  0
SECTION
  2
HEADER
  9
$ACADVER
  1
AC1021
  9
$DWGCODEPAGE
  3
ANSI_1251
  9
$INSBASE
 10
0.0
 20
0.0
 30
0.0
  9
$EXTMIN
 10
-6000.0
 20
-11850.0
 30
0.0
  9
$EXTMAX
 10
15000.0
 20
3000.0
 30
0.0
  9
$LIMMIN
 10
0.0
 20
0.0
  9
$LIMMAX
 10
12.0
 20
9.0
  9
$ORTHOMODE
 70
0
  9
$REGENMODE
 70
1
  9
$FILLMODE
 70
1
  9
$QTEXTMODE
 70
0
  9
$MIRRTEXT
 70
0
  9
$LTSCALE
 40
1.0
  9
$ATTMODE
 70
0
  9
$TEXTSIZE
 40
2.5
  9
$TRACEWID
 40
15.68
  9
$TEXTSTYLE
  7
Standard
  9
$CLAYER
  8
0
  9
$CELTYPE
  6
BYLAYER
  9
$CECOLOR
 62
256
  9
$CELTSCALE
 40
1.0
  9
$DISPSILH
 70
0
  9
$DIMSCALE
 40
50.0
  9
$DIMASZ
 40
2.5
  9
$DIMEXO
 40
0.625
  9
$DIMDLI
 40
3.75
  9
$DIMRND
 40
0.0
  9
$DIMDLE
 40
0.0
  9
$DIMEXE
 40
0.125
  9
$DIMTP
 40
0.0
  9
$DIMTM
 40
0.0
  9
$DIMTXT
 40
1.8
  9
$DIMCEN
 40
2.5
  9
$DIMTSZ
 40
1.5
  9
$DIMTOL
 70
0
  9
$DIMLIM
 70
0
  9
$DIMTIH
 70
0
  9
$DIMTOH
 70
0
  9
$DIMSE1
 70
0
  9
$DIMSE2
 70
0
  9
$DIMTAD
 70
1
  9
$DIMZIN
 70
1
  9
$DIMBLK
  1

  9
$DIMASO
 70
1
  9
$DIMSHO
 70
1
  9
$DIMPOST
  1

  9
$DIMAPOST
  1

  9
$DIMALT
 70
0
  9
$DIMALTD
 70
3
  9
$DIMALTF
 40
0.03937
  9
$DIMLFAC
 40
1.0
  9
$DIMTOFL
 70
1
  9
$DIMTVP
 40
0.0
  9
$DIMTIX
 70
0
  9
$DIMSOXD
 70
0
  9
$DIMSAH
 70
0
  9
$DIMBLK1
  1

  9
$DIMBLK2
  1

  9
$DIMSTYLE
  2
Standard
  9
$DIMCLRD
 70
0
  9
$DIMCLRE
 70
0
  9
$DIMCLRT
 70
0
  9
$DIMTFAC
 40
1.0
  9
$DIMGAP
 40
0.625
  9
$DIMJUST
 70
0
  9
$DIMSD1
 70
0
  9
$DIMSD2
 70
0
  9
$DIMTOLJ
 70
0
  9
$DIMTZIN
 70
8
  9
$DIMALTZ
 70
0
  9
$DIMALTTZ
 70
0
  9
$DIMUPT
 70
0
  9
$DIMDEC
 70
0
  9
$DIMTDEC
 70
2
  9
$DIMALTU
 70
2
  9
$DIMALTTD
 70
3
  9
$DIMTXSTY
  7
standard
  9
$DIMAUNIT
 70
0
  9
$DIMADEC
 70
0
  9
$DIMALTRND
 40
0.0
  9
$DIMAZIN
 70
0
  9
$DIMDSEP
 70
0
  9
$DIMATFIT
 70
3
  9
$DIMFRAC
 70
0
  9
$DIMLDRBLK
  1
STANDARD
  9
$DIMLUNIT
 70
2
  9
$DIMLWD
 70
-2
  9
$DIMLWE
 70
-2
  9
$DIMTMOVE
 70
0
  9
$DIMFXL
 40
1.0
  9
$DIMFXLON
 70
0
  9
$DIMJOGANG
 40
0.7854
  9
$DIMTFILL
 70
0
  9
$DIMTFILLCLR
 70
0
  9
$DIMARCSYM
 70
0
  9
$DIMLTYPE
  6

  9
$DIMLTEX1
  6

  9
$DIMLTEX2
  6

  9
$LUNITS
 70
2
  9
$LUPREC
 70
0
  9
$SKETCHINC
 40
1.0
  9
$FILLETRAD
 40
0.0
  9
$AUNITS
 70
0
  9
$AUPREC
 70
2
  9
$MENU
  1
.
  9
$ELEVATION
 40
0.0
  9
$PELEVATION
 40
0.0
  9
$THICKNESS
 40
0.0
  9
$LIMCHECK
 70
0
  9
$CHAMFERA
 40
0.0
  9
$CHAMFERB
 40
0.0
  9
$CHAMFERC
 40
0.0
  9
$CHAMFERD
 40
0.0
  9
$SKPOLY
 70
0
  9
$USRTIMER
 70
1
  9
$ANGBASE
 50
0.0
  9
$ANGDIR
 70
0
  9
$PDMODE
 70
34
  9
$PDSIZE
 40
0.0
  9
$PLINEWID
 40
0.0
  9
$SPLFRAME
 70
0
  9
$SPLINETYPE
 70
2
  9
$SPLINESEGS
 70
8
  9
$HANDSEED
  5
2000D
  9
$SURFTAB1
 70
6
  9
$SURFTAB2
 70
6
  9
$SURFTYPE
 70
6
  9
$SURFU
 70
6
  9
$SURFV
 70
6
  9
$UCSBASE
  2

  9
$UCSNAME
  2

  9
$UCSORG
 10
0.0
 20
0.0
 30
0.0
  9
$UCSXDIR
 10
1.0
 20
0.0
 30
0.0
  9
$UCSYDIR
 10
0.0
 20
1.0
 30
0.0
  9
$UCSORTHOREF
  2

  9
$UCSORTHOVIEW
 70
0
  9
$UCSORGTOP
 10
0.0
 20
0.0
 30
0.0
  9
$UCSORGBOTTOM
 10
0.0
 20
0.0
 30
0.0
  9
$UCSORGLEFT
 10
0.0
 20
0.0
 30
0.0
  9
$UCSORGRIGHT
 10
0.0
 20
0.0
 30
0.0
  9
$UCSORGFRONT
 10
0.0
 20
0.0
 30
0.0
  9
$UCSORGBACK
 10
0.0
 20
0.0
 30
0.0
  9
$PUCSBASE
  2

  9
$PUCSNAME
  2

  9
$PUCSORG
 10
0.0
 20
0.0
 30
0.0
  9
$PUCSXDIR
 10
1.0
 20
0.0
 30
0.0
  9
$PUCSYDIR
 10
0.0
 20
1.0
 30
0.0
  9
$PUCSORTHOREF
  2

  9
$PUCSORTHOVIEW
 70
0
  9
$PUCSORGTOP
 10
0.0
 20
0.0
 30
0.0
  9
$PUCSORGBOTTOM
 10
0.0
 20
0.0
 30
0.0
  9
$PUCSORGLEFT
 10
0.0
 20
0.0
 30
0.0
  9
$PUCSORGRIGHT
 10
0.0
 20
0.0
 30
0.0
  9
$PUCSORGFRONT
 10
0.0
 20
0.0
 30
0.0
  9
$PUCSORGBACK
 10
0.0
 20
0.0
 30
0.0
  9
$USERI1
 70
0
  9
$USERI2
 70
0
  9
$USERI3
 70
0
  9
$USERI4
 70
0
  9
$USERI5
 70
0
  9
$USERR1
 40
0.0
  9
$USERR2
 40
0.0
  9
$USERR3
 40
0.0
  9
$USERR4
 40
0.0
  9
$USERR5
 40
0.0
  9
$WORLDVIEW
 70
1
  9
$SHADEDGE
 70
3
  9
$SHADEDIF
 70
70
  9
$TILEMODE
 70
1
  9
$MAXACTVP
 70
64
  9
$PINSBASE
 10
120.0
 20
237.0
 30
0.0
  9
$PLIMCHECK
 70
0
  9
$PEXTMIN
 10
0.0
 20
0.0
 30
0.0
  9
$PEXTMAX
 10
0.0
 20
0.0
 30
0.0
  9
$GRIDMODE
 70
1
  9
$SNAPSTYLE
 70
0
  9
$GRIDUNIT
 10
0.0
 20
0.0
  9
$PLIMMIN
 10
0.0
 20
0.0
  9
$PLIMMAX
 10
420.0
 20
297.0
  9
$UNITMODE
 70
0
  9
$VISRETAIN
 70
1
  9
$PLINEGEN
 70
0
  9
$PSLTSCALE
 70
1
  9
$TREEDEPTH
 70
3020
  9
$CMLSTYLE
  2
Standard
  9
$CMLJUST
 70
0
  9
$CMLSCALE
 40
20.0
  9
$PROXYGRAPHICS
 70
1
  9
$MEASUREMENT
 70
1
  9
$CELWEIGHT
370
-1
  9
$ENDCAPS
280
0
  9
$JOINSTYLE
280
0
  9
$LWDISPLAY
290
0
  9
$INSUNITS
 70
4
  9
$HYPERLINKBASE
  1

  9
$STYLESHEET
  1

  9
$XEDIT
290
1
  9
$CEPSNTYPE
380
0
  9
$PSTYLEMODE
290
1
  9
$EXTNAMES
290
1
  9
$PSVPSCALE
 40
0.02
  9
$OLESTARTUP
290
0
  9
$SORTENTS
280
127
  9
$INDEXCTL
280
0
  9
$HIDETEXT
280
1
  9
$XCLIPFRAME
290
0
  9
$HALOGAP
280
0
  9
$OBSCOLOR
 70
257
  9
$OBSLTYPE
280
0
  9
$INTERSECTIONDISPLAY
280
0
  9
$INTERSECTIONCOLOR
 70
257
  9
$DIMASSOC
280
1
  9
$PROJECTNAME
  1

  9
$CAMERADISPLAY
290
0
  9
$LENSLENGTH
 40
50.0
  9
$CAMERAHEIGHT
 40
0.0
  9
$STEPSPERSEC
 40
2.0
  9
$STEPSIZE
 40
50.0
  9
$3DDWFPREC
 40
2.0
  9
$PSOLWIDTH
 40
5.0
  9
$PSOLHEIGHT
 40
80.0
  9
$LOFTANG1
 40
1.570796326794897
  9
$LOFTANG2
 40
1.570796326794897
  9
$LOFTMAG1
 40
0.0
  9
$LOFTMAG2
 40
0.0
  9
$LOFTPARAM
 70
7
  9
$LOFTNORMALS
280
1
  9
$LATITUDE
 40
1.0
  9
$LONGITUDE
 40
1.0
  9
$NORTHDIRECTION
 40
0.0
  9
$TIMEZONE
 70
-8000
  9
$LIGHTGLYPHDISPLAY
280
1
  9
$TILEMODELIGHTSYNCH
280
1
  9
$SOLIDHIST
280
1
  9
$SHOWHIST
280
1
  9
$DWFFRAME
280
2
  9
$DGNFRAME
280
0
  9
$REALWORLDSCALE
290
1
  9
$INTERFERECOLOR
 62
1
  9
$CSHADOW
280
0
  9
$SHADOWPLANELOCATION
 40
0.0
  9
$TDUPDATE
 40
2458439.913263889
  9
$VERSIONGUID
  2
2216F5F6-E9D1-11E8-A5E9-D8CB8A9961D7
  0
ENDSEC
  0
SECTION
  2
CLASSES
  0
CLASS
  1
ACDBDICTIONARYWDFLT
  2
AcDbDictionaryWithDefault
  3
ObjectDBX Classes
 90
0
 91
0
280
0
281
0
  0
ENDSEC
  0
SECTION
  2
TABLES
  0
TABLE
  2
VPORT
  5
8
330
0
100
AcDbSymbolTable
 70
1
  0
VPORT
  5
31
330
8
100
AcDbSymbolTableRecord
100
AcDbViewportTableRecord
  2
*ACTIVE
 70
0
 10
0.0
 20
0.0
 11
1.0
 21
1.0
 12
7611.940298507463
 22
2115.671641791045
 13
0.0
 23
0.0
 14
10.0
 24
10.0
 15
10.0
 25
10.0
 16
0.0
 26
0.0
 36
1.0
 17
0.0
 27
0.0
 37
0.0
 40
17305.97014925373
 41
1.239327296248383
 42
50.0
 43
0.0
 44
0.0
 50
0.0
 51
0.0
 71
0
 72
100
 73
1
 74
3
 75
0
 76
1
 77
0
 78
0
281
0
 65
1
110
0.0
120
0.0
130
0.0
111
1.0
121
0.0
131
0.0
112
0.0
122
1.0
132
0.0
 79
0
146
0.0
348
10020
 60
7
 61
5
292
1
282
1
141
0.0
142
0.0
 63
250
421
3358443
  0
ENDTAB
  0
TABLE
  2
LTYPE
  5
5
330
0
100
AcDbSymbolTable
 70
27
  0
LTYPE
  5
14
330
5
100
AcDbSymbolTableRecord
100
AcDbLinetypeTableRecord
  2
ByBlock
 70
0
  3

 72
65
 73
0
 40
0.0
  0
LTYPE
  5
15
330
5
100
AcDbSymbolTableRecord
100
AcDbLinetypeTableRecord
  2
ByLayer
 70
0
  3

 72
65
 73
0
 40
0.0
  0
LTYPE
  5
16
330
5
100
AcDbSymbolTableRecord
100
AcDbLinetypeTableRecord
  2
Continuous
 70
0
  3
Solid line
 72
65
 73
0
 40
0.0
  0
LTYPE
  5
32
330
5
100
AcDbSymbolTableRecord
100
AcDbLinetypeTableRecord
  2
DOT
 70
0
  3
Dot . . . . . . . . . . . . . . . . . . . . . .
 72
65
 73
2
 40
6.35
 49
0.0
 74
0
 49
-6.35
 74
0
  0
LTYPE
  5
33
330
5
100
AcDbSymbolTableRecord
100
AcDbLinetypeTableRecord
  2
DOTTINY
 70
0
  3
Dot (.15x) .....................................
 72
65
 73
2
 40
0.9525
 49
0.0
 74
0
 49
-0.9525
 74
0
  0
LTYPE
  5
34
330
5
100
AcDbSymbolTableRecord
100
AcDbLinetypeTableRecord
  2
DOT2
 70
0
  3
Dot (.5x) .....................................
 72
65
 73
2
 40
3.175
 49
0.0
 74
0
 49
-3.175
 74
0
  0
LTYPE
  5
35
330
5
100
AcDbSymbolTableRecord
100
AcDbLinetypeTableRecord
  2
DOTX2
 70
0
  3
Dot (2x) .  .  .  .  .  .  .  .  .  .  .  .  .
 72
65
 73
2
 40
12.7
 49
0.0
 74
0
 49
-12.7
 74
0
  0
LTYPE
  5
36
330
5
100
AcDbSymbolTableRecord
100
AcDbLinetypeTableRecord
  2
DASHED
 70
0
  3
Dashed _ _ _ _ _ _ _ _ _ _ _ _ _ _ _ _ _
 72
65
 73
2
 40
19.05
 49
12.7
 74
0
 49
-6.35
 74
0
  0
LTYPE
  5
37
330
5
100
AcDbSymbolTableRecord
100
AcDbLinetypeTableRecord
  2
DASHEDTINY
 70
0
  3
Dashed (.15x) _ _ _ _ _ _ _ _ _ _ _ _ _ _ _ _ _
 72
65
 73
2
 40
2.8575
 49
1.905
 74
0
 49
-0.9525
 74
0
  0
LTYPE
  5
38
330
5
100
AcDbSymbolTableRecord
100
AcDbLinetypeTableRecord
  2
DASHED2
 70
0
  3
Dashed (.5x) _ _ _ _ _ _ _ _ _ _ _ _ _ _ _ _ _
 72
65
 73
2
 40
9.524999999999999
 49
6.35
 74
0
 49
-3.175
 74
0
  0
LTYPE
  5
39
330
5
100
AcDbSymbolTableRecord
100
AcDbLinetypeTableRecord
  2
DASHEDX2
 70
0
  3
Dashed (2x) ____  ____  ____  ____  ____  ___
 72
65
 73
2
 40
38.09999999999999
 49
25.4
 74
0
 49
-12.7
 74
0
  0
LTYPE
  5
3A
330
5
100
AcDbSymbolTableRecord
100
AcDbLinetypeTableRecord
  2
DASHDOT
 70
0
  3
Dash dot __ . __ . __ . __ . __ . __ . __ . __
 72
65
 73
4
 40
25.4
 49
12.7
 74
0
 49
-6.35
 74
0
 49
0.0
 74
0
 49
-6.35
 74
0
  0
LTYPE
  5
3B
330
5
100
AcDbSymbolTableRecord
100
AcDbLinetypeTableRecord
  2
DASHDOTTINY
 70
0
  3
Dash dot (.15x) _._._._._._._._._._._._._._._.
 72
65
 73
4
 40
3.81
 49
1.905
 74
0
 49
-0.9525
 74
0
 49
0.0
 74
0
 49
-0.9525
 74
0
  0
LTYPE
  5
3C
330
5
100
AcDbSymbolTableRecord
100
AcDbLinetypeTableRecord
  2
DASHDOT2
 70
0
  3
Dash dot (.5x) _._._._._._._._._._._._._._._.
 72
65
 73
4
 40
12.7
 49
6.35
 74
0
 49
-3.175
 74
0
 49
0.0
 74
0
 49
-3.175
 74
0
  0
LTYPE
  5
3D
330
5
100
AcDbSymbolTableRecord
100
AcDbLinetypeTableRecord
  2
DASHDOTX2
 70
0
  3
Dash dot (2x) ____  .  ____  .  ____  .  ___
 72
65
 73
4
 40
50.8
 49
25.4
 74
0
 49
-12.7
 74
0
 49
0.0
 74
0
 49
-12.7
 74
0
  0
LTYPE
  5
3E
330
5
100
AcDbSymbolTableRecord
100
AcDbLinetypeTableRecord
  2
DIVIDE
 70
0
  3
Divide ____ . . ____ . . ____ . . ____ . . ____
 72
65
 73
6
 40
31.75
 49
12.7
 74
0
 49
-6.35
 74
0
 49
0.0
 74
0
 49
-6.35
 74
0
 49
0.0
 74
0
 49
-6.35
 74
0
  0
LTYPE
  5
3F
330
5
100
AcDbSymbolTableRecord
100
AcDbLinetypeTableRecord
  2
DIVIDETINY
 70
0
  3
Divide (.15x) __..__..__..__..__..__..__..__.._
 72
65
 73
6
 40
4.7625
 49
1.905
 74
0
 49
-0.9525
 74
0
 49
0.0
 74
0
 49
-0.9525
 74
0
 49
0.0
 74
0
 49
-0.9525
 74
0
  0
LTYPE
  5
40
330
5
100
AcDbSymbolTableRecord
100
AcDbLinetypeTableRecord
  2
DIVIDE2
 70
0
  3
Divide (.5x) __..__..__..__..__..__..__..__.._
 72
65
 73
6
 40
15.875
 49
6.35
 74
0
 49
-3.175
 74
0
 49
0.0
 74
0
 49
-3.175
 74
0
 49
0.0
 74
0
 49
-3.175
 74
0
  0
LTYPE
  5
41
330
5
100
AcDbSymbolTableRecord
100
AcDbLinetypeTableRecord
  2
DIVIDEX2
 70
0
  3
Divide (2x) ________  .  .  ________  .  .  _
 72
65
 73
6
 40
63.5
 49
25.4
 74
0
 49
-12.7
 74
0
 49
0.0
 74
0
 49
-12.7
 74
0
 49
0.0
 74
0
 49
-12.7
 74
0
  0
LTYPE
  5
42
330
5
100
AcDbSymbolTableRecord
100
AcDbLinetypeTableRecord
  2
BORDER
 70
0
  3
Border __ __ . __ __ . __ __ . __ __ . __ __ .
 72
65
 73
6
 40
44.45
 49
12.7
 74
0
 49
-6.35
 74
0
 49
12.7
 74
0
 49
-6.35
 74
0
 49
0.0
 74
0
 49
-6.35
 74
0
  0
LTYPE
  5
43
330
5
100
AcDbSymbolTableRecord
100
AcDbLinetypeTableRecord
  2
BORDERTINY
 70
0
  3
Border (.15x) __.__.__.__.__.__.__.__.__.__.__.
 72
65
 73
6
 40
6.6675
 49
1.905
 74
0
 49
-0.9525
 74
0
 49
1.905
 74
0
 49
-0.9525
 74
0
 49
0.0
 74
0
 49
-0.9525
 74
0
  0
LTYPE
  5
44
330
5
100
AcDbSymbolTableRecord
100
AcDbLinetypeTableRecord
  2
BORDER2
 70
0
  3
Border (.5x) __.__.__.__.__.__.__.__.__.__.__.
 72
65
 73
6
 40
22.225
 49
6.35
 74
0
 49
-3.175
 74
0
 49
6.35
 74
0
 49
-3.175
 74
0
 49
0.0
 74
0
 49
-3.175
 74
0
  0
LTYPE
  5
45
330
5
100
AcDbSymbolTableRecord
100
AcDbLinetypeTableRecord
  2
BORDERX2
 70
0
  3
Border (2x) ____  ____  .  ____  ____  .  ___
 72
65
 73
6
 40
88.89999999999999
 49
25.4
 74
0
 49
-12.7
 74
0
 49
25.4
 74
0
 49
-12.7
 74
0
 49
0.0
 74
0
 49
-12.7
 74
0
  0
LTYPE
  5
46
330
5
100
AcDbSymbolTableRecord
100
AcDbLinetypeTableRecord
  2
CENTER
 70
0
  3
Center ____ _ ____ _ ____ _ ____ _ ____ _ ____
 72
65
 73
4
 40
50.8
 49
31.75
 74
0
 49
-6.35
 74
0
 49
6.35
 74
0
 49
-6.35
 74
0
  0
LTYPE
  5
47
330
5
100
AcDbSymbolTableRecord
100
AcDbLinetypeTableRecord
  2
CENTERTINY
 70
0
  3
Center (.15x) ___ _ ___ _ ___ _ ___ _ ___ _ ___
 72
65
 73
4
 40
7.619999999999999
 49
4.7625
 74
0
 49
-0.9525
 74
0
 49
0.9525
 74
0
 49
-0.9525
 74
0
  0
LTYPE
  5
48
330
5
100
AcDbSymbolTableRecord
100
AcDbLinetypeTableRecord
  2
CENTER2
 70
0
  3
Center (.5x) ___ _ ___ _ ___ _ ___ _ ___ _ ___
 72
65
 73
4
 40
28.575
 49
19.05
 74
0
 49
-3.175
 74
0
 49
3.175
 74
0
 49
-3.175
 74
0
  0
LTYPE
  5
49
330
5
100
AcDbSymbolTableRecord
100
AcDbLinetypeTableRecord
  2
CENTERX2
 70
0
  3
Center (2x) ________  __  ________  __  _____
 72
65
 73
4
 40
101.6
 49
63.5
 74
0
 49
-12.7
 74
0
 49
12.7
 74
0
 49
-12.7
 74
0
  0
ENDTAB
  0
TABLE
  2
LAYER
  5
2
330
0
100
AcDbSymbolTable
 70
32
  0
LAYER
  5
10
330
2
100
AcDbSymbolTableRecord
100
AcDbLayerTableRecord
  2
0
 70
4
 62
7
  6
CONTINUOUS
370
-3
390
F
  0
LAYER
  5
4A
330
2
100
AcDbSymbolTableRecord
100
AcDbLayerTableRecord
  2
01-sheet-border-inner
 70
4
 62
7
  6
CONTINUOUS
370
50
390
F
  0
LAYER
  5
4B
330
2
100
AcDbSymbolTableRecord
100
AcDbLayerTableRecord
  2
01-sheet-border-outer
 70
4
 62
7
  6
CONTINUOUS
290
0
370
0
390
F
  0
LAYER
  5
4C
330
2
100
AcDbSymbolTableRecord
100
AcDbLayerTableRecord
  2
01-sheet-construction
 70
5
 62
176
420
128
  6
CONTINUOUS
290
0
370
-3
390
F
1001
LibreCad
1070
1
  0
LAYER
  5
4D
330
2
100
AcDbSymbolTableRecord
100
AcDbLayerTableRecord
  2
02-title-block-construction
 70
5
 62
176
420
128
  6
CONTINUOUS
290
0
370
-3
390
F
1001
LibreCad
1070
1
  0
LAYER
  5
4E
330
2
100
AcDbSymbolTableRecord
100
AcDbLayerTableRecord
  2
02-title-block-table
 70
4
 62
7
  6
CONTINUOUS
370
50
390
F
  0
LAYER
  5
4F
330
2
100
AcDbSymbolTableRecord
100
AcDbLayerTableRecord
  2
02-title-block-text
 70
4
 62
7
  6
CONTINUOUS
370
9
390
F
  0
LAYER
  5
50
330
2
100
AcDbSymbolTableRecord
100
AcDbLayerTableRecord
  2
03-explication-construction
 70
5
 62
176
420
128
  6
CONTINUOUS
290
0
370
0
390
F
1001
LibreCad
1070
1
  0
LAYER
  5
51
330
2
100
AcDbSymbolTableRecord
100
AcDbLayerTableRecord
  2
03-explication-table
 70
4
 62
7
  6
CONTINUOUS
370
50
390
F
  0
LAYER
  5
52
330
2
100
AcDbSymbolTableRecord
100
AcDbLayerTableRecord
  2
03-explication-text
 70
4
 62
7
  6
CONTINUOUS
370
9
390
F
  0
LAYER
  5
53
330
2
100
AcDbSymbolTableRecord
100
AcDbLayerTableRecord
  2
04-legend-construction
 70
5
 62
176
420
128
  6
CONTINUOUS
290
0
370
0
390
F
1001
LibreCad
1070
1
  0
LAYER
  5
54
330
2
100
AcDbSymbolTableRecord
100
AcDbLayerTableRecord
  2
04-legend-table
 70
4
 62
7
  6
CONTINUOUS
370
50
390
F
  0
LAYER
  5
55
330
2
100
AcDbSymbolTableRecord
100
AcDbLayerTableRecord
  2
04-legend-text
 70
4
 62
7
  6
CONTINUOUS
370
9
390
F
  0
LAYER
  5
56
330
2
100
AcDbSymbolTableRecord
100
AcDbLayerTableRecord
  2
construction
 70
5
 62
176
420
128
  6
CONTINUOUS
290
0
370
0
390
F
1001
LibreCad
1070
1
  0
LAYER
  5
57
330
2
100
AcDbSymbolTableRecord
100
AcDbLayerTableRecord
  2
construction2
 70
5
 62
96
420
32768
  6
CONTINUOUS
290
0
370
0
390
F
1001
LibreCad
1070
1
  0
LAYER
  5
58
330
2
100
AcDbSymbolTableRecord
100
AcDbLayerTableRecord
  2
construction3
 70
5
 62
6
  6
CONTINUOUS
370
0
390
F
1001
LibreCad
1070
1
  0
LAYER
  5
59
330
2
100
AcDbSymbolTableRecord
100
AcDbLayerTableRecord
  2
dimension
 70
4
 62
7
  6
CONTINUOUS
370
9
390
F
  0
LAYER
  5
5A
330
2
100
AcDbSymbolTableRecord
100
AcDbLayerTableRecord
  2
door
 70
4
 62
7
  6
CONTINUOUS
370
20
390
F
  0
LAYER
  5
5B
330
2
100
AcDbSymbolTableRecord
100
AcDbLayerTableRecord
  2
plasterboard
 70
4
 62
7
  6
CONTINUOUS
370
18
390
F
  0
LAYER
  5
5C
330
2
100
AcDbSymbolTableRecord
100
AcDbLayerTableRecord
  2
plasterboard-hatch
 70
4
 62
7
  6
CONTINUOUS
370
0
390
F
  0
LAYER
  5
5D
330
2
100
AcDbSymbolTableRecord
100
AcDbLayerTableRecord
  2
room-804-tile-contour
 70
4
 62
7
  6
CONTINUOUS
370
0
390
F
  0
LAYER
  5
5E
330
2
100
AcDbSymbolTableRecord
100
AcDbLayerTableRecord
  2
room-804-tile-hatch
 70
4
 62
7
  6
CONTINUOUS
370
0
390
F
  0
LAYER
  5
5F
330
2
100
AcDbSymbolTableRecord
100
AcDbLayerTableRecord
  2
room-805-tile-contour
 70
4
 62
8
  6
CONTINUOUS
370
9
390
F
  0
LAYER
  5
60
330
2
100
AcDbSymbolTableRecord
100
AcDbLayerTableRecord
  2
room-805-tile-direction
 70
4
 62
7
  6
CONTINUOUS
370
9
390
F
  0
LAYER
  5
61
330
2
100
AcDbSymbolTableRecord
100
AcDbLayerTableRecord
  2
room-805-tile-hatch
 70
4
 62
253
420
10526884
  6
CONTINUOUS
370
0
390
F
  0
LAYER
  5
62
330
2
100
AcDbSymbolTableRecord
100
AcDbLayerTableRecord
  2
room-80x-tile-contour
 70
4
 62
7
  6
CONTINUOUS
370
0
390
F
  0
LAYER
  5
63
330
2
100
AcDbSymbolTableRecord
100
AcDbLayerTableRecord
  2
room-80x-tile-hatch
 70
4
 62
7
  6
CONTINUOUS
370
0
390
F
  0
LAYER
  5
64
330
2
100
AcDbSymbolTableRecord
100
AcDbLayerTableRecord
  2
room-num
 70
4
 62
7
  6
CONTINUOUS
370
9
390
F
  0
LAYER
  5
65
330
2
100
AcDbSymbolTableRecord
100
AcDbLayerTableRecord
  2
thing
 70
4
 62
7
  6
CONTINUOUS
370
9
390
F
  0
LAYER
  5
66
330
2
100
AcDbSymbolTableRecord
100
AcDbLayerTableRecord
  2
wall
 70
4
 62
7
  6
CONTINUOUS
370
35
390
F
  0
LAYER
  5
67
330
2
100
AcDbSymbolTableRecord
100
AcDbLayerTableRecord
  2
wall-hatch
 70
4
 62
7
  6
CONTINUOUS
370
0
390
F
  0
LAYER
  5
68
330
2
100
AcDbSymbolTableRecord
100
AcDbLayerTableRecord
  2
window
 70
4
 62
7
  6
CONTINUOUS
370
20
390
F
  0
ENDTAB
  0
TABLE
  2
STYLE
  5
3
330
0
100
AcDbSymbolTable
 70
2
  0
STYLE
  5
69
330
3
100
AcDbSymbolTableRecord
100
AcDbTextStyleTableRecord
  2
unicode
 70
0
 40
0.0
 41
1.0
 50
0.0
 71
0
 42
1.0
  3
unicode
  4

  0
STYLE
  5
6A
330
3
100
AcDbSymbolTableRecord
100
AcDbTextStyleTableRecord
  2
Standard
 70
0
 40
0.0
 41
1.0
 50
0.0
 71
0
 42
1.0
  3
txt
  4

  0
ENDTAB
  0
TABLE
  2
VIEW
  5
6
330
0
100
AcDbSymbolTable
 70
0
  0
ENDTAB
  0
TABLE
  2
UCS
  5
7
330
0
100
AcDbSymbolTable
 70
0
  0
ENDTAB
  0
TABLE
  2
APPID
  5
9
330
0
100
AcDbSymbolTable
 70
2
  0
APPID
  5
12
330
9
100
AcDbSymbolTableRecord
100
AcDbRegAppTableRecord
  2
ACAD
 70
0
  0
APPID
  5
6B
330
9
100
AcDbSymbolTableRecord
100
AcDbRegAppTableRecord
  2
LibreCad
 70
0
  0
ENDTAB
  0
TABLE
  2
DIMSTYLE
  5
A
330
0
100
AcDbSymbolTable
 70
1
100
AcDbDimStyleTable
 71
1
  0
DIMSTYLE
105
6C
330
A
100
AcDbSymbolTableRecord
100
AcDbDimStyleTableRecord
  2
Standard
 70
0
 40
50.0
 41
2.5
 42
0.625
 43
0.38
 44
0.125
 45
0.0
 46
0.0
 47
0.0
 48
0.0
 49
1.0
140
1.8
141
0.09
142
1.5
143
25.4
144
1.0
145
0.0
146
1.0
147
0.625
148
0.0
 71
0
 72
0
 73
0
 74
1
 75
0
 76
0
 77
0
 78
1
 79
0
170
0
171
2
172
0
173
0
174
0
175
0
176
0
177
0
178
0
179
0
271
0
272
4
273
2
274
2
275
0
276
0
277
2
278
0
279
0
280
0
281
0
282
0
283
1
284
0
285
0
286
0
288
0
289
3
340
standard
341

371
-2
372
-2
  0
ENDTAB
  0
TABLE
  2
BLOCK_RECORD
  5
1
330
0
100
AcDbSymbolTable
 70
5
  0
BLOCK_RECORD
  5
1F
330
1
100
AcDbSymbolTableRecord
100
AcDbBlockTableRecord
  2
*Model_Space
 70
0
280
1
281
0
340
2000B
  0
BLOCK_RECORD
  5
1E
330
1
100
AcDbSymbolTableRecord
100
AcDbBlockTableRecord
  2
*Paper_Space
 70
0
280
1
281
0
340
2000C
  0
BLOCK_RECORD
  5
6D
330
1
100
AcDbSymbolTableRecord
100
AcDbBlockTableRecord
  2
explication-1-800-2
 70
0
280
1
281
0
  0
BLOCK_RECORD
  5
70
330
1
100
AcDbSymbolTableRecord
100
AcDbBlockTableRecord
  2
legend
 70
0
280
1
281
0
  0
BLOCK_RECORD
  5
73
330
1
100
AcDbSymbolTableRecord
100
AcDbBlockTableRecord
  2
sheet-A3-border
 70
0
280
1
281
0
  0
ENDTAB
  0
ENDSEC
  0
SECTION
  2
BLOCKS
  0
BLOCK
  5
20
330
1F
100
AcDbEntity
  8
0
100
AcDbBlockBegin
  2
*Model_Space
 70
0
 10
0.0
 20
0.0
 30
0.0
  3
*Model_Space
  1

  0
ENDBLK
  5
21
330
1F
100
AcDbEntity
  8
0
100
AcDbBlockEnd
  0
BLOCK
  5
6E
330
6D
100
AcDbEntity
  8
0
100
AcDbBlockBegin
  2
explication-1-800-2
 70
0
 10
0.0
 20
0.0
  3
explication-1-800-2
  1

  0
LINE
  5
76
100
AcDbEntity
  8
03-explication-construction
  6
ByLayer
 62
256
370
-1
100
AcDbLine
 10
10.0
 20
-15.0
 11
10.0
 21
-30.0
  0
LINE
  5
77
100
AcDbEntity
  8
03-explication-construction
  6
ByLayer
 62
256
370
-1
100
AcDbLine
 10
80.0
 20
-30.0
 11
80.0
 21
-15.0
  0
MTEXT
  5
78
100
AcDbEntity
  8
03-explication-text
  6
ByLayer
 62
256
370
-1
100
AcDbMText
 10
47.5
 20
-7.5
 30
0.0
 40
3.0
 41
50.08333333333333
 71
5
 72
1
  1
Экспликация помещений
  7
unicode
210
0.0
220
0.0
230
1.0
 50
0.0
 73
2
 44
1.0
  0
MTEXT
  5
79
100
AcDbEntity
  8
03-explication-text
  6
ByLayer
 62
256
370
-1
100
AcDbMText
 10
87.5
 20
-22.5
 30
0.0
 40
3.0
 41
3.334481356397898
 71
5
 72
1
  1
м²
  7
unicode
210
0.0
220
0.0
230
1.0
 50
0.0
 73
2
 44
1.0
  0
MTEXT
  5
7A
100
AcDbEntity
  8
03-explication-text
  6
ByLayer
 62
256
370
-1
100
AcDbMText
 10
45.00000000000001
 20
-22.5
 30
0.0
 40
3.0
 41
28.66666666666666
 71
5
 72
1
  1
Наименование
  7
unicode
210
0.0
220
0.0
230
1.0
 50
0.0
 73
2
 44
1.0
  0
MTEXT
  5
7B
100
AcDbEntity
  8
03-explication-text
  6
ByLayer
 62
256
370
-1
100
AcDbMText
 10
5.0
 20
-22.5
 30
0.0
 40
3.0
 41
1.666666666666667
 71
5
 72
1
  1
N
  7
unicode
210
0.0
220
0.0
230
1.0
 50
0.0
 73
2
 44
1.0
  0
LWPOLYLINE
  5
7C
100
AcDbEntity
  8
03-explication-table
  6
ByLayer
 62
256
370
-1
100
AcDbPolyline
 90
4
 70
1
 43
0.0
 10
0.0
 20
0.0
 10
95.0
 20
0.0
 10
95.0
 20
-15.0
 10
0.0
 20
-15.0
  0
LWPOLYLINE
  5
7D
100
AcDbEntity
  8
03-explication-table
  6
ByLayer
 62
256
370
-1
100
AcDbPolyline
 90
4
 70
1
 43
0.0
 10
95.0
 20
-15.0
 10
0.0
 20
-15.0
 10
0.0
 20
-30.0
 10
95.0
 20
-30.0
  0
LWPOLYLINE
  5
7E
100
AcDbEntity
  8
03-explication-table
  6
ByLayer
 62
256
370
-1
100
AcDbPolyline
 90
4
 70
1
 43
0.0
 10
95.0
 20
-54.0
 10
0.0
 20
-54.0
 10
0.0
 20
-62.0
 10
95.0
 20
-62.0
  0
LWPOLYLINE
  5
7F
100
AcDbEntity
  8
03-explication-table
  6
ByLayer
 62
256
370
-1
100
AcDbPolyline
 90
4
 70
1
 43
0.0
 10
0.0
 20
-62.0
 10
95.0
 20
-62.0
 10
95.0
 20
-70.0
 10
0.0
 20
-70.0
  0
LINE
  5
80
100
AcDbEntity
  8
03-explication-construction
  6
ByLayer
 62
256
370
-1
100
AcDbLine
 10
15.0
 20
-15.0
 11
15.0
 21
-94.0
  0
LINE
  5
81
100
AcDbEntity
  8
03-explication-construction
  6
ByLayer
 62
256
370
-1
100
AcDbLine
 10
5.0
 20
-15.0
 11
5.0
 21
-30.0
  0
LINE
  5
82
100
AcDbEntity
  8
03-explication-construction
  6
ByLayer
 62
256
370
-1
100
AcDbLine
 10
87.5
 20
-15.0
 11
87.5
 21
-94.0
  0
LINE
  5
83
100
AcDbEntity
  8
03-explication-construction
  6
ByLayer
 62
256
370
-1
100
AcDbLine
 10
47.5
 20
-15.00000000000001
 11
47.5
 21
-1.163414459189985e-14
  0
LINE
  5
84
100
AcDbEntity
  8
03-explication-construction
  6
ByLayer
 62
256
370
-1
100
AcDbLine
 10
45.0
 20
-15.00000000000001
 11
45.0
 21
-94.00000000000001
  0
LINE
  5
85
100
AcDbEntity
  8
03-explication-construction
  6
ByLayer
 62
256
370
-1
100
AcDbLine
 10
95.0
 20
-15.0
 11
0.0
 21
-15.0
  0
LINE
  5
86
100
AcDbEntity
  8
03-explication-construction
  6
ByLayer
 62
256
370
-1
100
AcDbLine
 10
0.0
 20
-34.0
 11
95.0
 21
-34.0
  0
LINE
  5
87
100
AcDbEntity
  8
03-explication-construction
  6
ByLayer
 62
256
370
-1
100
AcDbLine
 10
0.0
 20
-42.0
 11
95.0
 21
-42.0
  0
LINE
  5
88
100
AcDbEntity
  8
03-explication-construction
  6
ByLayer
 62
256
370
-1
100
AcDbLine
 10
0.0
 20
-50.0
 11
95.0
 21
-50.0
  0
LINE
  5
89
100
AcDbEntity
  8
03-explication-construction
  6
ByLayer
 62
256
370
-1
100
AcDbLine
 10
0.0
 20
-58.0
 11
95.0
 21
-58.0
  0
LINE
  5
8A
100
AcDbEntity
  8
03-explication-construction
  6
ByLayer
 62
256
370
-1
100
AcDbLine
 10
0.0
 20
-66.0
 11
95.0
 21
-66.0
  0
LINE
  5
8B
100
AcDbEntity
  8
03-explication-construction
  6
ByLayer
 62
256
370
-1
100
AcDbLine
 10
0.0
 20
-74.0
 11
95.0
 21
-74.0
  0
LINE
  5
8C
100
AcDbEntity
  8
03-explication-construction
  6
ByLayer
 62
256
370
-1
100
AcDbLine
 10
0.0
 20
-82.0
 11
95.0
 21
-82.0
  0
LINE
  5
8D
100
AcDbEntity
  8
03-explication-construction
  6
ByLayer
 62
256
370
-1
100
AcDbLine
 10
0.0
 20
-90.0
 11
95.0
 21
-90.0
  0
LINE
  5
8E
100
AcDbEntity
  8
03-explication-construction
  6
ByLayer
 62
256
370
-1
100
AcDbLine
 10
95.0
 20
-22.5
 11
-1.377727649040772e-15
 21
-22.5
  0
LINE
  5
8F
100
AcDbEntity
  8
03-explication-construction
  6
ByLayer
 62
256
370
-1
100
AcDbLine
 10
-1.377727649040772e-15
 20
-7.5
 11
95.0
 21
-7.5
  0
LINE
  5
90
100
AcDbEntity
  8
03-explication-table
  6
ByLayer
 62
256
370
-1
100
AcDbLine
 10
10.0
 20
-15.0
 11
10.0
 21
-30.0
  0
LINE
  5
91
100
AcDbEntity
  8
03-explication-table
  6
ByLayer
 62
256
370
-1
100
AcDbLine
 10
10.0
 20
-30.0
 11
10.0
 21
-38.0
  0
LINE
  5
92
100
AcDbEntity
  8
03-explication-table
  6
ByLayer
 62
256
370
-1
100
AcDbLine
 10
10.0
 20
-38.0
 11
10.0
 21
-46.0
  0
LINE
  5
93
100
AcDbEntity
  8
03-explication-table
  6
ByLayer
 62
256
370
-1
100
AcDbLine
 10
10.0
 20
-46.0
 11
10.0
 21
-54.0
  0
LINE
  5
94
100
AcDbEntity
  8
03-explication-table
  6
ByLayer
 62
256
370
-1
100
AcDbLine
 10
10.0
 20
-54.0
 11
10.0
 21
-62.0
  0
LINE
  5
95
100
AcDbEntity
  8
03-explication-table
  6
ByLayer
 62
256
370
-1
100
AcDbLine
 10
10.0
 20
-62.0
 11
10.0
 21
-70.0
  0
LINE
  5
96
100
AcDbEntity
  8
03-explication-table
  6
ByLayer
 62
256
370
-1
100
AcDbLine
 10
80.0
 20
-62.0
 11
80.0
 21
-70.0
  0
LINE
  5
97
100
AcDbEntity
  8
03-explication-table
  6
ByLayer
 62
256
370
-1
100
AcDbLine
 10
80.0
 20
-54.0
 11
80.0
 21
-62.0
  0
LINE
  5
98
100
AcDbEntity
  8
03-explication-table
  6
ByLayer
 62
256
370
-1
100
AcDbLine
 10
80.0
 20
-46.0
 11
80.0
 21
-54.0
  0
LINE
  5
99
100
AcDbEntity
  8
03-explication-table
  6
ByLayer
 62
256
370
-1
100
AcDbLine
 10
80.0
 20
-38.0
 11
80.0
 21
-46.0
  0
LINE
  5
9A
100
AcDbEntity
  8
03-explication-table
  6
ByLayer
 62
256
370
-1
100
AcDbLine
 10
80.0
 20
-15.0
 11
80.0
 21
-30.0
  0
LINE
  5
9B
100
AcDbEntity
  8
03-explication-table
  6
ByLayer
 62
256
370
-1
100
AcDbLine
 10
80.0
 20
-30.0
 11
80.0
 21
-38.0
  0
MTEXT
  5
9C
100
AcDbEntity
  8
03-explication-text
  6
ByLayer
 62
256
370
-1
100
AcDbMText
 10
15.0
 20
-66.0
 30
0.0
 40
3.0
 41
15.83333333333333
 71
4
 72
1
  1
Санузел
  7
unicode
210
0.0
220
0.0
230
1.0
 50
0.0
 73
2
 44
1.0
  0
MTEXT
  5
9D
100
AcDbEntity
  8
03-explication-text
  6
ByLayer
 62
256
370
-1
100
AcDbMText
 10
15.0
 20
-58.0
 30
0.0
 40
3.0
 41
26.0
 71
4
 72
1
  1
Гардеробная
  7
unicode
210
0.0
220
0.0
230
1.0
 50
0.0
 73
2
 44
1.0
  0
MTEXT
  5
9E
100
AcDbEntity
  8
03-explication-text
  6
ByLayer
 62
256
370
-1
100
AcDbMText
 10
5.0
 20
-34.0
 30
0.0
 40
3.0
 41
5.333333333333333
 71
5
 72
1
  1
801
  7
unicode
210
0.0
220
0.0
230
1.0
 50
0.0
 73
2
 44
1.0
  0
MTEXT
  5
9F
100
AcDbEntity
  8
03-explication-text
  6
ByLayer
 62
256
370
-1
100
AcDbMText
 10
5.0
 20
-42.0
 30
0.0
 40
3.0
 41
6.0
 71
5
 72
1
  1
802
  7
unicode
210
0.0
220
0.0
230
1.0
 50
0.0
 73
2
 44
1.0
  0
MTEXT
  5
A0
100
AcDbEntity
  8
03-explication-text
  6
ByLayer
 62
256
370
-1
100
AcDbMText
 10
5.0
 20
-50.0
 30
0.0
 40
3.0
 41
6.0
 71
5
 72
1
  1
803
  7
unicode
210
0.0
220
0.0
230
1.0
 50
0.0
 73
2
 44
1.0
  0
MTEXT
  5
A1
100
AcDbEntity
  8
03-explication-text
  6
ByLayer
 62
256
370
-1
100
AcDbMText
 10
5.0
 20
-58.0
 30
0.0
 40
3.0
 41
6.333333333333333
 71
5
 72
1
  1
804
  7
unicode
210
0.0
220
0.0
230
1.0
 50
0.0
 73
2
 44
1.0
  0
MTEXT
  5
A2
100
AcDbEntity
  8
03-explication-text
  6
ByLayer
 62
256
370
-1
100
AcDbMText
 10
5.0
 20
-66.0
 30
0.0
 40
3.0
 41
6.0
 71
5
 72
1
  1
805
  7
unicode
210
0.0
220
0.0
230
1.0
 50
0.0
 73
2
 44
1.0
  0
MTEXT
  5
A3
100
AcDbEntity
  8
03-explication-text
  6
ByLayer
 62
256
370
-1
100
AcDbMText
 10
87.5
 20
-58.0
 30
0.0
 40
3.0
 41
4.833333333333334
 71
5
 72
1
  1
2,3
  7
unicode
210
0.0
220
0.0
230
1.0
 50
0.0
 73
2
 44
1.0
  0
MTEXT
  5
A4
100
AcDbEntity
  8
03-explication-text
  6
ByLayer
 62
256
370
-1
100
AcDbMText
 10
87.5
 20
-66.0
 30
0.0
 40
3.0
 41
4.5
 71
5
 72
1
  1
4,1
  7
unicode
210
0.0
220
0.0
230
1.0
 50
0.0
 73
2
 44
1.0
  0
LWPOLYLINE
  5
A5
100
AcDbEntity
  8
03-explication-table
  6
ByLayer
 62
256
370
-1
100
AcDbPolyline
 90
4
 70
1
 43
0.0
 10
0.0
 20
-46.0
 10
80.0
 20
-46.0
 10
80.0
 20
-54.0
 10
0.0
 20
-54.0
  0
LWPOLYLINE
  5
A6
100
AcDbEntity
  8
03-explication-table
  6
ByLayer
 62
256
370
-1
100
AcDbPolyline
 90
4
 70
1
 43
0.0
 10
0.0
 20
-30.0
 10
80.0
 20
-30.0
 10
80.0
 20
-38.0
 10
0.0
 20
-38.0
  0
LWPOLYLINE
  5
A7
100
AcDbEntity
  8
03-explication-table
  6
ByLayer
 62
256
370
-1
100
AcDbPolyline
 90
4
 70
1
 43
0.0
 10
80.0
 20
-38.0
 10
0.0
 20
-38.0
 10
0.0
 20
-46.0
 10
80.0
 20
-46.0
  0
LWPOLYLINE
  5
A8
100
AcDbEntity
  8
03-explication-table
  6
ByLayer
 62
256
370
-1
100
AcDbPolyline
 90
4
 70
1
 43
0.0
 10
80.0
 20
-30.0
 10
95.0
 20
-30.0
 10
95.0
 20
-54.0
 10
80.0
 20
-54.0
  0
MTEXT
  5
A9
100
AcDbEntity
  8
03-explication-text
  6
ByLayer
 62
256
370
-1
100
AcDbMText
 10
15.0
 20
-34.0
 30
0.0
 40
3.0
 41
19.16666666666666
 71
4
 72
1
  1
Прихожая
  7
unicode
210
0.0
220
0.0
230
1.0
 50
0.0
 73
2
 44
1.0
  0
MTEXT
  5
AA
100
AcDbEntity
  8
03-explication-text
  6
ByLayer
 62
256
370
-1
100
AcDbMText
 10
15.0
 20
-42.0
 30
0.0
 40
3.0
 41
18.83333333333333
 71
4
 72
1
  1
Гостиная
  7
unicode
210
0.0
220
0.0
230
1.0
 50
0.0
 73
2
 44
1.0
  0
MTEXT
  5
AB
100
AcDbEntity
  8
03-explication-text
  6
ByLayer
 62
256
370
-1
100
AcDbMText
 10
15.0
 20
-50.0
 30
0.0
 40
3.0
 41
11.0
 71
4
 72
1
  1
Кухня
  7
unicode
210
0.0
220
0.0
230
1.0
 50
0.0
 73
2
 44
1.0
  0
MTEXT
  5
AC
100
AcDbEntity
  8
03-explication-text
  6
ByLayer
 62
256
370
-1
100
AcDbMText
 10
87.5
 20
-42.0
 30
0.0
 40
3.0
 41
7.5
 71
5
 72
1
  1
34,7
  7
unicode
210
0.0
220
0.0
230
1.0
 50
0.0
 73
2
 44
1.0
  0
ENDBLK
  5
6F
330
6D
100
AcDbEntity
  8
0
100
AcDbBlockEnd
  0
BLOCK
  5
71
330
70
100
AcDbEntity
  8
0
100
AcDbBlockBegin
  2
legend
 70
0
 10
0.0
 20
0.0
  3
legend
  1

  0
LINE
  5
AD
100
AcDbEntity
  8
04-legend-construction
  6
ByLayer
 62
256
370
-1
100
AcDbLine
 10
95.0
 20
-15.0
 11
0.0
 21
-15.0
  0
LWPOLYLINE
  5
AE
100
AcDbEntity
  8
04-legend-table
  6
ByLayer
 62
256
370
-1
100
AcDbPolyline
 90
4
 70
1
 43
0.0
 10
0.0
 20
0.0
 10
95.0
 20
0.0
 10
95.0
 20
-15.0
 10
0.0
 20
-15.0
  0
MTEXT
  5
AF
100
AcDbEntity
  8
04-legend-text
  6
ByLayer
 62
256
370
-1
100
AcDbMText
 10
47.5
 20
-7.5
 30
0.0
 40
3.0
 41
46.41666666666666
 71
5
 72
1
  1
Условные обозначения
  7
unicode
210
0.0
220
0.0
230
1.0
 50
0.0
 73
2
 44
1.0
  0
LINE
  5
B0
100
AcDbEntity
  8
04-legend-construction
  6
ByLayer
 62
256
370
-1
100
AcDbLine
 10
20.0
 20
-5.329070518200751e-15
 11
20.0
 21
-15.0
  0
LINE
  5
B1
100
AcDbEntity
  8
04-legend-construction
  6
ByLayer
 62
256
370
-1
100
AcDbLine
 10
25.0
 20
-6.553717317348104e-15
 11
25.0
 21
-15.00000000000001
  0
LINE
  5
B2
100
AcDbEntity
  8
04-legend-construction
  6
ByLayer
 62
256
370
-1
100
AcDbLine
 10
47.5
 20
1.745121688784978e-14
 11
47.5
 21
-14.99999999999998
  0
LINE
  5
B3
100
AcDbEntity
  8
04-legend-construction
  6
ByLayer
 62
256
370
-1
100
AcDbLine
 10
-1.377727649040772e-15
 20
-7.5
 11
95.0
 21
-7.5
  0
LWPOLYLINE
  5
B4
100
AcDbEntity
  8
04-legend-table
  6
ByLayer
 62
256
370
-1
100
AcDbPolyline
 90
4
 70
1
 43
0.0
 10
0.0
 20
-23.0
 10
20.0
 20
-23.0
 10
20.0
 20
-15.0
 10
0.0
 20
-15.0
  0
LWPOLYLINE
  5
B5
100
AcDbEntity
  8
04-legend-table
  6
ByLayer
 62
256
370
-1
100
AcDbPolyline
 90
4
 70
1
 43
0.0
 10
20.0
 20
-23.0
 10
95.0
 20
-23.0
 10
95.0
 20
-15.0
 10
20.0
 20
-15.0
  0
LINE
  5
B6
100
AcDbEntity
  8
04-legend-construction
  6
ByLayer
 62
256
370
-1
100
AcDbLine
 10
95.0
 20
-19.0
 11
20.0
 21
-19.0
  0
LINE
  5
B7
100
AcDbEntity
  8
04-legend-construction
  6
ByLayer
 62
256
370
-1
100
AcDbLine
 10
10.0
 20
-15.0
 11
10.0
 21
-2.449293598294707e-15
  0
MTEXT
  5
B8
100
AcDbEntity
  8
04-legend-text
  6
ByLayer
 62
256
370
-1
100
AcDbMText
 10
25.0
 20
-19.0
 30
0.0
 40
2.5
 41
45.97222222222223
 71
4
 72
1
  1
Начало раскладки плитки
  7
unicode
210
0.0
220
0.0
230
1.0
 50
0.0
 73
2
 44
1.0
  0
ENDBLK
  5
72
330
70
100
AcDbEntity
  8
0
100
AcDbBlockEnd
  0
BLOCK
  5
1C
330
1E
100
AcDbEntity
  8
0
100
AcDbBlockBegin
  2
*Paper_Space
 70
0
 10
0.0
 20
0.0
 30
0.0
  3
*Paper_Space
  1

  0
ENDBLK
  5
1D
330
1E
100
AcDbEntity
  8
0
100
AcDbBlockEnd
  0
BLOCK
  5
74
330
73
100
AcDbEntity
  8
0
100
AcDbBlockBegin
  2
sheet-A3-border
 70
0
 10
0.0
 20
0.0
  3
sheet-A3-border
  1

  0
LINE
  5
B9
100
AcDbEntity
  8
01-sheet-construction
  6
ByLayer
 62
256
370
-1
100
AcDbLine
 10
0.0
 20
-297.0
 11
420.0
 21
-297.0
  0
LINE
  5
BA
100
AcDbEntity
  8
01-sheet-construction
  6
ByLayer
 62
256
370
-1
100
AcDbLine
 10
420.0
 20
-297.0
 11
420.0
 21
0.0
  0
LINE
  5
BB
100
AcDbEntity
  8
01-sheet-construction
  6
ByLayer
 62
256
370
-1
100
AcDbLine
 10
420.0
 20
0.0
 11
0.0
 21
0.0
  0
LINE
  5
BC
100
AcDbEntity
  8
01-sheet-construction
  6
ByLayer
 62
256
370
-1
100
AcDbLine
 10
0.0
 20
0.0
 11
0.0
 21
-297.0
  0
LINE
  5
BD
100
AcDbEntity
  8
01-sheet-border-inner
  6
ByLayer
 62
256
370
-1
100
AcDbLine
 10
20.0
 20
-292.0
 11
415.0
 21
-292.0
  0
LINE
  5
BE
100
AcDbEntity
  8
01-sheet-border-inner
  6
ByLayer
 62
256
370
-1
100
AcDbLine
 10
415.0
 20
-292.0
 11
415.0
 21
-5.0
  0
LINE
  5
BF
100
AcDbEntity
  8
01-sheet-border-inner
  6
ByLayer
 62
256
370
-1
100
AcDbLine
 10
415.0
 20
-5.0
 11
20.0
 21
-5.0
  0
LINE
  5
C0
100
AcDbEntity
  8
01-sheet-border-inner
  6
ByLayer
 62
256
370
-1
100
AcDbLine
 10
20.0
 20
-5.0
 11
20.0
 21
-292.0
  0
LWPOLYLINE
  5
C1
100
AcDbEntity
  8
01-sheet-border-outer
  6
ByLayer
 62
256
370
-1
100
AcDbPolyline
 90
4
 70
1
 43
0.0
 10
0.0
 20
0.0
 10
420.0
 20
0.0
 10
420.0
 20
-297.0
 10
0.0
 20
-297.0
  0
LINE
  5
C2
100
AcDbEntity
  8
01-sheet-construction
  6
ByLayer
 62
256
370
-1
100
AcDbLine
 10
310.0
 20
-20.0
 11
405.0
 21
-20.0
  0
LINE
  5
C3
100
AcDbEntity
  8
01-sheet-construction
  6
ByLayer
 62
256
370
-1
100
AcDbLine
 10
310.0
 20
-20.0
 11
310.0
 21
-115.0
  0
LINE
  5
C4
100
AcDbEntity
  8
01-sheet-construction
  6
ByLayer
 62
256
370
-1
100
AcDbLine
 10
30.0
 20
-5.000000000000003
 11
30.0
 21
-292.0
  0
LINE
  5
C5
100
AcDbEntity
  8
01-sheet-construction
  6
ByLayer
 62
256
370
-1
100
AcDbLine
 10
20.0
 20
-282.0
 11
415.0
 21
-282.0
  0
LINE
  5
C6
100
AcDbEntity
  8
02-title-block-construction
  6
ByLayer
 62
256
370
-1
100
AcDbLine
 10
415.0
 20
-289.5
 11
250.0
 21
-289.5
  0
LINE
  5
C7
100
AcDbEntity
  8
02-title-block-construction
  6
ByLayer
 62
256
370
-1
100
AcDbLine
 10
415.0
 20
-287.0
 11
250.0
 21
-287.0
  0
LINE
  5
C8
100
AcDbEntity
  8
02-title-block-construction
  6
ByLayer
 62
256
370
-1
100
AcDbLine
 10
250.0
 20
-284.5
 11
415.0
 21
-284.5
  0
LINE
  5
C9
100
AcDbEntity
  8
02-title-block-construction
  6
ByLayer
 62
256
370
-1
100
AcDbLine
 10
250.0
 20
-282.0
 11
415.0
 21
-282.0
  0
LINE
  5
CA
100
AcDbEntity
  8
02-title-block-construction
  6
ByLayer
 62
256
370
-1
100
AcDbLine
 10
250.0
 20
-279.5
 11
415.0
 21
-279.5
  0
LINE
  5
CB
100
AcDbEntity
  8
02-title-block-construction
  6
ByLayer
 62
256
370
-1
100
AcDbLine
 10
250.0
 20
-277.0
 11
415.0
 21
-277.0
  0
LINE
  5
CC
100
AcDbEntity
  8
02-title-block-construction
  6
ByLayer
 62
256
370
-1
100
AcDbLine
 10
250.0
 20
-274.5
 11
415.0
 21
-274.5
  0
LINE
  5
CD
100
AcDbEntity
  8
02-title-block-construction
  6
ByLayer
 62
256
370
-1
100
AcDbLine
 10
250.0
 20
-272.0
 11
415.0
 21
-272.0
  0
LINE
  5
CE
100
AcDbEntity
  8
02-title-block-construction
  6
ByLayer
 62
256
370
-1
100
AcDbLine
 10
250.0
 20
-292.0
 11
250.0
 21
-272.0
  0
LINE
  5
CF
100
AcDbEntity
  8
02-title-block-construction
  6
ByLayer
 62
256
370
-1
100
AcDbLine
 10
332.5
 20
-292.0
 11
332.5
 21
-272.0
  0
LINE
  5
D0
100
AcDbEntity
  8
02-title-block-construction
  6
ByLayer
 62
256
370
-1
100
AcDbLine
 10
353.125
 20
-292.0000000000001
 11
353.125
 21
-272.0
  0
LINE
  5
D1
100
AcDbEntity
  8
02-title-block-construction
  6
ByLayer
 62
256
370
-1
100
AcDbLine
 10
373.75
 20
-292.0000000000001
 11
373.75
 21
-272.0000000000001
  0
LINE
  5
D2
100
AcDbEntity
  8
02-title-block-construction
  6
ByLayer
 62
256
370
-1
100
AcDbLine
 10
394.375
 20
-292.0000000000001
 11
394.375
 21
-272.0000000000001
  0
LINE
  5
D3
100
AcDbEntity
  8
02-title-block-construction
  6
ByLayer
 62
256
370
-1
100
AcDbLine
 10
415.0
 20
-292.0000000000001
 11
415.0
 21
-272.0000000000001
  0
LINE
  5
D4
100
AcDbEntity
  8
02-title-block-construction
  6
ByLayer
 62
256
370
-1
100
AcDbLine
 10
342.8125
 20
-292.0
 11
342.8125
 21
-272.0
  0
LINE
  5
D5
100
AcDbEntity
  8
02-title-block-construction
  6
ByLayer
 62
256
370
-1
100
AcDbLine
 10
363.4375
 20
-292.0000000000001
 11
363.4375
 21
-272.0000000000001
  0
LINE
  5
D6
100
AcDbEntity
  8
02-title-block-construction
  6
ByLayer
 62
256
370
-1
100
AcDbLine
 10
384.0625
 20
-292.0000000000001
 11
384.0625
 21
-272.0000000000001
  0
LINE
  5
D7
100
AcDbEntity
  8
02-title-block-construction
  6
ByLayer
 62
256
370
-1
100
AcDbLine
 10
404.6875
 20
-292.0000000000001
 11
404.6875
 21
-272.0000000000001
  0
LINE
  5
D8
100
AcDbEntity
  8
02-title-block-construction
  6
ByLayer
 62
256
370
-1
100
AcDbLine
 10
291.25
 20
-292.0
 11
291.25
 21
-272.0
  0
LWPOLYLINE
  5
D9
100
AcDbEntity
  8
02-title-block-table
  6
ByLayer
 62
256
370
-1
100
AcDbPolyline
 90
4
 70
1
 43
0.0
 10
250.0
 20
-272.0
 10
415.0
 20
-272.0
 10
415.0
 20
-292.0
 10
250.0
 20
-292.0
  0
LINE
  5
DA
100
AcDbEntity
  8
02-title-block-table
  6
ByLayer
 62
256
370
-1
100
AcDbLine
 10
250.0
 20
-282.0
 11
415.0
 21
-282.0
  0
LINE
  5
DB
100
AcDbEntity
  8
02-title-block-table
  6
ByLayer
 62
256
370
-1
100
AcDbLine
 10
332.5
 20
-272.0
 11
332.5
 21
-292.0
  0
LINE
  5
DC
100
AcDbEntity
  8
02-title-block-table
  6
ByLayer
 62
256
370
-1
100
AcDbLine
 10
353.125
 20
-272.0
 11
353.125
 21
-282.0
  0
LINE
  5
DD
100
AcDbEntity
  8
02-title-block-table
  6
ByLayer
 62
256
370
-1
100
AcDbLine
 10
373.75
 20
-272.0
 11
373.75
 21
-282.0
  0
LINE
  5
DE
100
AcDbEntity
  8
02-title-block-table
  6
ByLayer
 62
256
370
-1
100
AcDbLine
 10
394.375
 20
-272.0
 11
394.375
 21
-282.0
  0
LINE
  5
DF
100
AcDbEntity
  8
02-title-block-table
  6
ByLayer
 62
256
370
-1
100
AcDbLine
 10
332.5
 20
-277.0
 11
415.0
 21
-277.0
  0
LINE
  5
E0
100
AcDbEntity
  8
02-title-block-table
  6
ByLayer
 62
256
370
-1
100
AcDbLine
 10
332.5
 20
-287.0
 11
415.0
 21
-287.0
  0
LINE
  5
E1
100
AcDbEntity
  8
02-title-block-table
  6
ByLayer
 62
256
370
-1
100
AcDbLine
 10
373.75
 20
-287.0
 11
373.75
 21
-292.0
  0
MTEXT
  5
E2
100
AcDbEntity
  8
02-title-block-text
  6
ByLayer
 62
256
370
-1
100
AcDbMText
 10
342.8125
 20
-274.5
 30
0.0
 40
2.5
 41
15.0
 71
5
 72
1
  1
Масштаб
  7
unicode
210
0.0
220
0.0
230
1.0
 50
0.0
 73
2
 44
1.0
  0
MTEXT
  5
E3
100
AcDbEntity
  8
02-title-block-text
  6
ByLayer
 62
256
370
-1
100
AcDbMText
 10
363.4375
 20
-274.5
 30
0.0
 40
2.5
 41
7.5
 71
5
 72
1
  1
Лист
  7
unicode
210
0.0
220
0.0
230
1.0
 50
0.0
 73
2
 44
1.0
  0
MTEXT
  5
E4
100
AcDbEntity
  8
02-title-block-text
  6
ByLayer
 62
256
370
-1
100
AcDbMText
 10
384.0625
 20
-274.5
 30
0.0
 40
2.5
 41
11.38888888888889
 71
5
 72
1
  1
Листов
  7
unicode
210
0.0
220
0.0
230
1.0
 50
0.0
 73
2
 44
1.0
  0
MTEXT
  5
E5
100
AcDbEntity
  8
02-title-block-text
  6
ByLayer
 62
256
370
-1
100
AcDbMText
 10
404.6875
 20
-274.5
 30
0.0
 40
2.5
 41
8.88888888888889
 71
5
 72
1
  1
Дата
  7
unicode
210
0.0
220
0.0
230
1.0
 50
0.0
 73
2
 44
1.0
  0
MTEXT
  5
E6
100
AcDbEntity
  8
02-title-block-text
  6
ByLayer
 62
256
370
-1
100
AcDbMText
 10
373.75
 20
-284.5
 30
0.0
 40
2.5
 41
47.36111111111111
 71
5
 72
1
  1
Дизайнер: Ольга Правдина
  7
unicode
210
0.0
220
0.0
230
1.0
 50
0.0
 73
2
 44
1.0
  0
MTEXT
  5
E7
100
AcDbEntity
  8
02-title-block-text
  6
ByLayer
 62
256
370
-1
100
AcDbMText
 10
394.375
 20
-289.5
 30
0.0
 40
2.5
 41
35.55555555555556
 71
5
 72
1
  1
http://artidea.gallery
  7
unicode
210
0.0
220
0.0
230
1.0
 50
0.0
 73
2
 44
1.0
  0
MTEXT
  5
E8
100
AcDbEntity
  8
02-title-block-text
  6
ByLayer
 62
256
370
-1
100
AcDbMText
 10
353.125
 20
-289.5
 30
0.0
 40
2.5
 41
31.31944444444445
 71
5
 72
1
  1
Тел.: +79780123193
  7
unicode
210
0.0
220
0.0
230
1.0
 50
0.0
 73
2
 44
1.0
  0
MTEXT
  5
E9
100
AcDbEntity
  8
02-title-block-text
  6
ByLayer
 62
256
370
-1
100
AcDbMText
 10
384.0625
 20
-279.5
 30
0.0
 40
2.5
 41
4.166666666666667
 71
5
 72
1
  7
unicode
210
0.0
220
0.0
230
1.0
 50
0.0
 73
2
 44
1.0
  1
13
  0
MTEXT
  5
EA
100
AcDbEntity
  8
02-title-block-text
  6
ByLayer
 62
256
370
-1
100
AcDbMText
 10
363.4375
 20
-279.5
 30
0.0
 40
2.5
 41
1.666666666666667
 71
5
 72
1
  7
unicode
210
0.0
220
0.0
230
1.0
 50
0.0
 73
2
 44
1.0
  1
3
  0
MTEXT
  5
EB
100
AcDbEntity
  8
02-title-block-text
  6
ByLayer
 62
256
370
-1
100
AcDbMText
 10
404.6875
 20
-279.5
 30
0.0
 40
2.5
 41
18.61111111111111
 71
5
 72
1
  7
unicode
210
0.0
220
0.0
230
1.0
 50
0.0
 73
2
 44
1.0
  1
2018-11-16
  0
MTEXT
  5
EC
100
AcDbEntity
  8
02-title-block-text
  6
ByLayer
 62
256
370
-1
100
AcDbMText
 10
342.8125
 20
-279.5
 30
0.0
 40
2.5
 41
5.277777777777779
 71
5
 72
1
  1
1:50
  7
unicode
210
0.0
220
0.0
230
1.0
 50
0.0
 73
2
 44
1.0
  0
MTEXT
  5
ED
100
AcDbEntity
  8
02-title-block-text
  6
ByLayer
 62
256
370
-1
100
AcDbMText
 10
291.25
 20
-277.0
 30
0.0
 40
2.5
 41
20.8350011243245
 71
5
 72
1
  7
unicode
210
0.0
220
0.0
230
1.0
 50
0.0
 73
2
 44
1.0
  1
г.Евпатория\Pул.Красивая, д.10, кв.15
  0
MTEXT
  5
EE
100
AcDbEntity
  8
02-title-block-text
  6
ByLayer
 62
256
370
-1
100
AcDbMText
 10
291.25
 20
-287.0
 30
0.0
 40
2.5
 41
48.47222222222222
 71
5
 72
1
  1
План напольного покрытия.
  7
unicode
210
0.0
220
0.0
230
1.0
 50
0.0
 73
2
 44
1.0
  0
ENDBLK
  5
75
330
73
100
AcDbEntity
  8
0
100
AcDbBlockEnd
  0
ENDSEC
  0
SECTION
  2
ENTITIES
  0
HATCH
  5
EF
330
1F
100
AcDbEntity
  8
room-805-tile-direction
  6
ByLayer
 62
256
370
-1
100
AcDbHatch
 10
0.0
 20
0.0
 30
0.0
210
0.0
220
0.0
230
1.0
  2
SOLID
 70
1
 71
0
 91
1
 92
0
 93
3
 72
1
 10
10200.0
 20
-3800.0
 11
10200.0
 21
-3600.0
 72
1
 10
10200.0
 20
-3600.0
 11
10000.0
 21
-3800.0
 72
1
 10
10000.0
 20
-3800.0
 11
10200.0
 21
-3800.0
 97
0
 75
0
 76
1
 98
0
  0
HATCH
  5
F0
330
1F
100
AcDbEntity
  8
room-805-tile-direction
  6
ByLayer
 62
256
370
-1
100
AcDbHatch
 10
0.0
 20
0.0
 30
0.0
210
0.0
220
0.0
230
1.0
  2
SOLID
 70
1
 71
0
 91
1
 92
0
 93
3
 72
1
 10
4105.0
 20
-5180.0
 11
4205.0
 21
-5180.0
 72
1
 10
4205.0
 20
-5180.0
 11
4105.0
 21
-5280.0
 72
1
 10
4105.0
 20
-5280.0
 11
4105.0
 21
-5180.0
 97
0
 75
0
 76
1
 98
0
  0
HATCH
  5
F1
330
1F
100
AcDbEntity
  8
room-80x-tile-hatch
  6
ByLayer
 62
256
370
-1
100
AcDbHatch
 10
0.0
 20
0.0
 30
0.0
210
0.0
220
0.0
230
1.0
  2
iso03w100a
 70
0
 71
0
 91
1
 92
0
 93
40
 72
1
 10
20.0
 20
-20.0
 11
1200.0
 21
-20.0
 72
1
 10
1200.0
 20
-20.0
 11
1200.0
 21
70.0
 72
1
 10
1200.0
 20
70.0
 11
2060.0
 21
70.0
 72
1
 10
2060.0
 20
70.0
 11
2060.0
 21
-20.0
 72
1
 10
2060.0
 20
-20.0
 11
2485.0
 21
-20.0
 72
1
 10
2485.0
 20
-20.0
 11
2485.0
 21
-220.0
 72
1
 10
2485.0
 20
-220.0
 11
2920.000000000001
 21
-220.0
 72
1
 10
2920.000000000001
 20
-220.0
 11
2920.0
 21
-20.0
 72
1
 10
2920.0
 20
-20.0
 11
5675.0
 21
-20.0
 72
1
 10
5675.0
 20
-20.0
 11
5675.0
 21
-220.0
 72
1
 10
5675.0
 20
-220.0
 11
5775.0
 21
-220.0
 72
1
 10
5775.0
 20
-220.0
 11
5775.0
 21
-4260.0
 72
1
 10
5775.0
 20
-4260.0
 11
5070.0
 21
-4260.0
 72
1
 10
5070.0
 20
-4260.0
 11
5070.0
 21
-4160.0
 72
1
 10
5070.0
 20
-4160.0
 11
4125.0
 21
-4160.0
 72
1
 10
4125.0
 20
-4160.0
 11
4125.0
 21
-3560.0
 72
1
 10
4125.0
 20
-3560.0
 11
3985.0
 21
-3560.0
 72
1
 10
3985.0
 20
-3560.0
 11
3985.0
 21
-5940.0
 72
1
 10
3985.0
 20
-5940.0
 11
4055.0
 21
-5940.0
 72
1
 10
4055.0
 20
-5940.0
 11
4055.0
 21
-6690.0
 72
1
 10
4055.0
 20
-6690.0
 11
3985.0
 21
-6690.0
 72
1
 10
3985.0
 20
-6690.0
 11
3985.0
 21
-7200.0
 72
1
 10
3985.0
 20
-7200.0
 11
2865.0
 21
-7200.0
 72
1
 10
2865.0
 20
-7200.0
 11
2865.0
 21
-7550.0
 72
1
 10
2865.0
 20
-7550.0
 11
2830.0
 21
-7550.0
 72
1
 10
2830.0
 20
-7550.0
 11
2830.0
 21
-7720.0
 72
1
 10
2830.0
 20
-7720.0
 11
2780.0
 21
-7720.0
 72
1
 10
2780.0
 20
-7720.0
 11
2780.0
 21
-7740.0
 72
1
 10
2780.0
 20
-7740.0
 11
1900.0
 21
-7740.0
 72
1
 10
1900.0
 20
-7740.0
 11
1900.0
 21
-7720.0
 72
1
 10
1900.0
 20
-7720.0
 11
1845.0
 21
-7720.0
 72
1
 10
1845.0
 20
-7720.0
 11
1845.0
 21
-7550.0
 72
1
 10
1845.0
 20
-7550.0
 11
1385.0
 21
-7550.0
 72
1
 10
1385.0
 20
-7550.0
 11
1385.0
 21
-7040.0
 72
1
 10
1385.0
 20
-7040.0
 11
1315.0
 21
-7040.0
 72
1
 10
1315.0
 20
-7040.0
 11
1315.0
 21
-6290.0
 72
1
 10
1315.0
 20
-6290.0
 11
1385.0
 21
-6290.0
 72
1
 10
1385.0
 20
-6290.0
 11
1385.0
 21
-5380.0
 72
1
 10
1385.0
 20
-5380.0
 11
20.00000000000001
 21
-5380.0
 72
1
 10
20.00000000000001
 20
-5380.0
 11
20.0
 21
-20.0
 97
0
 75
0
 76
1
 52
1.570796326794897
 41
5.0
 77
0
 78
0
 98
0
  0
HATCH
  5
F2
330
1F
100
AcDbEntity
  8
room-804-tile-hatch
  6
ByLayer
 62
256
370
-1
100
AcDbHatch
 10
0.0
 20
0.0
 30
0.0
210
0.0
220
0.0
230
1.0
  2
iso03w100a
 70
0
 71
0
 91
1
 92
0
 93
10
 72
1
 10
20.0
 20
-5520.0
 11
780.0
 21
-5520.0
 72
1
 10
780.0
 20
-5520.0
 11
780.0
 21
-6250.0
 72
1
 10
780.0
 20
-6250.0
 11
1245.0
 21
-6250.0
 72
1
 10
1245.0
 20
-6250.0
 11
1245.0
 21
-6290.0
 72
1
 10
1245.0
 20
-6290.0
 11
1315.0
 21
-6290.0
 72
1
 10
1315.0
 20
-6290.0
 11
1315.0
 21
-7040.0
 72
1
 10
1315.0
 20
-7040.0
 11
1245.0
 21
-7040.0
 72
1
 10
1245.0
 20
-7040.0
 11
1245.0
 21
-7550.0
 72
1
 10
1245.0
 20
-7550.0
 11
19.99999999999954
 21
-7550.0
 72
1
 10
19.99999999999954
 20
-7550.0
 11
20.0
 21
-5520.0
 97
0
 75
0
 76
1
 52
1.570796326794897
 41
5.0
 77
0
 78
0
 98
0
  0
HATCH
  5
F3
330
1F
100
AcDbEntity
  8
room-805-tile-hatch
  6
ByLayer
 62
256
370
-1
100
AcDbHatch
 10
0.0
 20
0.0
 30
0.0
210
0.0
220
0.0
230
1.0
  2
misc03
 70
0
 71
0
 91
1
 92
0
 93
434
 72
1
 10
4105.0
 20
-5180.0
 11
4305.0
 21
-5180.0
 72
1
 10
4305.0
 20
-5180.0
 11
4305.0
 21
-5380.0
 72
1
 10
4305.0
 20
-5380.0
 11
4105.0
 21
-5380.0
 72
1
 10
4105.0
 20
-5380.0
 11
4105.0
 21
-5180.0
 72
1
 10
4305.0
 20
-5180.0
 11
4505.0
 21
-5180.0
 72
1
 10
4505.0
 20
-5180.0
 11
4505.0
 21
-5380.0
 72
1
 10
4505.0
 20
-5380.0
 11
4305.0
 21
-5380.0
 72
1
 10
4305.0
 20
-5380.0
 11
4305.0
 21
-5180.0
 72
1
 10
4540.0
 20
-5180.0
 11
4705.0
 21
-5180.0
 72
1
 10
4705.0
 20
-5180.0
 11
4705.0
 21
-5300.0
 72
1
 10
4705.0
 20
-5300.0
 11
4540.0
 21
-5300.0
 72
1
 10
4540.0
 20
-5300.0
 11
4540.0
 21
-5180.0
 72
1
 10
4540.0
 20
-5180.0
 11
4505.0
 21
-5180.0
 72
1
 10
4505.0
 20
-5180.0
 11
4505.0
 21
-5380.0
 72
1
 10
4505.0
 20
-5380.0
 11
4705.0
 21
-5380.0
 72
1
 10
4705.0
 20
-5380.0
 11
4705.0
 21
-5300.0
 72
1
 10
4705.0
 20
-5300.0
 11
4905.0
 21
-5300.0
 72
1
 10
4905.0
 20
-5300.0
 11
4905.0
 21
-5180.0
 72
1
 10
4905.0
 20
-5180.0
 11
4705.0
 21
-5180.0
 72
1
 10
4705.0
 20
-5180.0
 11
4705.0
 21
-5300.0
 72
1
 10
4705.0
 20
-5300.0
 11
4540.0
 21
-5300.0
 72
1
 10
4540.0
 20
-5300.0
 11
4540.0
 21
-5180.0
 72
1
 10
4905.0
 20
-5180.0
 11
5105.0
 21
-5180.0
 72
1
 10
5105.0
 20
-5180.0
 11
5105.0
 21
-5300.0
 72
1
 10
5105.0
 20
-5300.0
 11
4905.0
 21
-5300.0
 72
1
 10
4905.0
 20
-5300.0
 11
4905.0
 21
-5180.0
 72
1
 10
5105.0
 20
-5180.0
 11
5305.0
 21
-5180.0
 72
1
 10
5305.0
 20
-5180.0
 11
5305.0
 21
-5300.0
 72
1
 10
5305.0
 20
-5300.0
 11
5105.0
 21
-5300.0
 72
1
 10
5105.0
 20
-5300.0
 11
5105.0
 21
-5180.0
 72
1
 10
5305.0
 20
-5180.0
 11
5505.0
 21
-5180.0
 72
1
 10
5505.0
 20
-5180.0
 11
5505.0
 21
-5300.0
 72
1
 10
5505.0
 20
-5300.0
 11
5305.0
 21
-5300.0
 72
1
 10
5305.0
 20
-5300.0
 11
5305.0
 21
-5180.0
 72
1
 10
5505.0
 20
-5180.0
 11
5705.0
 21
-5180.0
 72
1
 10
5705.0
 20
-5180.0
 11
5705.0
 21
-5300.0
 72
1
 10
5705.0
 20
-5300.0
 11
5505.0
 21
-5300.0
 72
1
 10
5505.0
 20
-5300.0
 11
5505.0
 21
-5180.0
 72
1
 10
4705.0
 20
-5300.0
 11
4905.0
 21
-5300.0
 72
1
 10
4905.0
 20
-5300.0
 11
4905.0
 21
-5380.0
 72
1
 10
4905.0
 20
-5380.0
 11
4705.0
 21
-5380.0
 72
1
 10
4705.0
 20
-5380.0
 11
4705.0
 21
-5300.0
 72
1
 10
4905.0
 20
-5300.0
 11
5105.0
 21
-5300.0
 72
1
 10
5105.0
 20
-5300.0
 11
5105.0
 21
-5380.0
 72
1
 10
5105.0
 20
-5380.0
 11
4905.0
 21
-5380.0
 72
1
 10
4905.0
 20
-5380.0
 11
4905.0
 21
-5300.0
 72
1
 10
5105.0
 20
-5300.0
 11
5305.0
 21
-5300.0
 72
1
 10
5305.0
 20
-5300.0
 11
5305.0
 21
-5380.0
 72
1
 10
5305.0
 20
-5380.0
 11
5105.0
 21
-5380.0
 72
1
 10
5105.0
 20
-5380.0
 11
5105.0
 21
-5300.0
 72
1
 10
5305.0
 20
-5300.0
 11
5505.0
 21
-5300.0
 72
1
 10
5505.0
 20
-5300.0
 11
5505.0
 21
-5380.0
 72
1
 10
5505.0
 20
-5380.0
 11
5305.0
 21
-5380.0
 72
1
 10
5305.0
 20
-5380.0
 11
5305.0
 21
-5300.0
 72
1
 10
5505.0
 20
-5300.0
 11
5705.0
 21
-5300.0
 72
1
 10
5705.0
 20
-5300.0
 11
5705.0
 21
-5380.0
 72
1
 10
5705.0
 20
-5380.0
 11
5505.0
 21
-5380.0
 72
1
 10
5505.0
 20
-5380.0
 11
5505.0
 21
-5300.0
 72
1
 10
4105.0
 20
-5380.0
 11
4305.0
 21
-5380.0
 72
1
 10
4305.0
 20
-5380.0
 11
4305.0
 21
-5580.0
 72
1
 10
4305.0
 20
-5580.0
 11
4105.0
 21
-5580.0
 72
1
 10
4105.0
 20
-5580.0
 11
4105.0
 21
-5380.0
 72
1
 10
4305.0
 20
-5380.0
 11
4505.0
 21
-5380.0
 72
1
 10
4505.0
 20
-5380.0
 11
4505.0
 21
-5580.0
 72
1
 10
4505.0
 20
-5580.0
 11
4305.0
 21
-5580.0
 72
1
 10
4305.0
 20
-5580.0
 11
4305.0
 21
-5380.0
 72
1
 10
4505.0
 20
-5380.0
 11
4705.0
 21
-5380.0
 72
1
 10
4705.0
 20
-5380.0
 11
4705.0
 21
-5580.0
 72
1
 10
4705.0
 20
-5580.0
 11
4505.0
 21
-5580.0
 72
1
 10
4505.0
 20
-5580.0
 11
4505.0
 21
-5380.0
 72
1
 10
4705.0
 20
-5380.0
 11
4905.0
 21
-5380.0
 72
1
 10
4905.0
 20
-5380.0
 11
4905.0
 21
-5580.0
 72
1
 10
4905.0
 20
-5580.0
 11
4705.0
 21
-5580.0
 72
1
 10
4705.0
 20
-5580.0
 11
4705.0
 21
-5380.0
 72
1
 10
4905.0
 20
-5380.0
 11
5105.0
 21
-5380.0
 72
1
 10
5105.0
 20
-5380.0
 11
5105.0
 21
-5580.0
 72
1
 10
5105.0
 20
-5580.0
 11
4905.0
 21
-5580.0
 72
1
 10
4905.0
 20
-5580.0
 11
4905.0
 21
-5380.0
 72
1
 10
5105.0
 20
-5380.0
 11
5305.0
 21
-5380.0
 72
1
 10
5305.0
 20
-5380.0
 11
5305.0
 21
-5580.0
 72
1
 10
5305.0
 20
-5580.0
 11
5105.0
 21
-5580.0
 72
1
 10
5105.0
 20
-5580.0
 11
5105.0
 21
-5380.0
 72
1
 10
5305.0
 20
-5380.0
 11
5505.0
 21
-5380.0
 72
1
 10
5505.0
 20
-5380.0
 11
5505.0
 21
-5580.0
 72
1
 10
5505.0
 20
-5580.0
 11
5305.0
 21
-5580.0
 72
1
 10
5305.0
 20
-5580.0
 11
5305.0
 21
-5380.0
 72
1
 10
5505.0
 20
-5380.0
 11
5705.0
 21
-5380.0
 72
1
 10
5705.0
 20
-5380.0
 11
5705.0
 21
-5580.0
 72
1
 10
5705.0
 20
-5580.0
 11
5505.0
 21
-5580.0
 72
1
 10
5505.0
 20
-5580.0
 11
5505.0
 21
-5380.0
 72
1
 10
4105.0
 20
-5580.0
 11
4305.0
 21
-5580.0
 72
1
 10
4305.0
 20
-5580.0
 11
4305.0
 21
-5780.0
 72
1
 10
4305.0
 20
-5780.0
 11
4105.0
 21
-5780.0
 72
1
 10
4105.0
 20
-5780.0
 11
4105.0
 21
-5580.0
 72
1
 10
4305.0
 20
-5580.0
 11
4505.0
 21
-5580.0
 72
1
 10
4505.0
 20
-5580.0
 11
4505.0
 21
-5780.0
 72
1
 10
4505.0
 20
-5780.0
 11
4305.0
 21
-5780.0
 72
1
 10
4305.0
 20
-5780.0
 11
4305.0
 21
-5580.0
 72
1
 10
4505.0
 20
-5580.0
 11
4705.0
 21
-5580.0
 72
1
 10
4705.0
 20
-5580.0
 11
4705.0
 21
-5780.0
 72
1
 10
4705.0
 20
-5780.0
 11
4505.0
 21
-5780.0
 72
1
 10
4505.0
 20
-5780.0
 11
4505.0
 21
-5580.0
 72
1
 10
4705.0
 20
-5580.0
 11
4905.0
 21
-5580.0
 72
1
 10
4905.0
 20
-5580.0
 11
4905.0
 21
-5780.0
 72
1
 10
4905.0
 20
-5780.0
 11
4705.0
 21
-5780.0
 72
1
 10
4705.0
 20
-5780.0
 11
4705.0
 21
-5580.0
 72
1
 10
4905.0
 20
-5580.0
 11
5105.0
 21
-5580.0
 72
1
 10
5105.0
 20
-5580.0
 11
5105.0
 21
-5780.0
 72
1
 10
5105.0
 20
-5780.0
 11
4905.0
 21
-5780.0
 72
1
 10
4905.0
 20
-5780.0
 11
4905.0
 21
-5580.0
 72
1
 10
5105.0
 20
-5580.0
 11
5305.0
 21
-5580.0
 72
1
 10
5305.0
 20
-5580.0
 11
5305.0
 21
-5780.0
 72
1
 10
5305.0
 20
-5780.0
 11
5105.0
 21
-5780.0
 72
1
 10
5105.0
 20
-5780.0
 11
5105.0
 21
-5580.0
 72
1
 10
5305.0
 20
-5580.0
 11
5505.0
 21
-5580.0
 72
1
 10
5505.0
 20
-5580.0
 11
5505.0
 21
-5780.0
 72
1
 10
5505.0
 20
-5780.0
 11
5305.0
 21
-5780.0
 72
1
 10
5305.0
 20
-5780.0
 11
5305.0
 21
-5580.0
 72
1
 10
5505.0
 20
-5580.0
 11
5705.0
 21
-5580.0
 72
1
 10
5705.0
 20
-5580.0
 11
5705.0
 21
-5780.0
 72
1
 10
5705.0
 20
-5780.0
 11
5505.0
 21
-5780.0
 72
1
 10
5505.0
 20
-5780.0
 11
5505.0
 21
-5580.0
 72
1
 10
4105.0
 20
-5780.0
 11
4305.0
 21
-5780.0
 72
1
 10
4305.0
 20
-5780.0
 11
4305.0
 21
-5980.0
 72
1
 10
4305.0
 20
-5980.0
 11
4105.0
 21
-5980.0
 72
1
 10
4105.0
 20
-5980.0
 11
4105.0
 21
-5780.0
 72
1
 10
4305.0
 20
-5780.0
 11
4505.0
 21
-5780.0
 72
1
 10
4505.0
 20
-5780.0
 11
4505.0
 21
-5980.0
 72
1
 10
4505.0
 20
-5980.0
 11
4305.0
 21
-5980.0
 72
1
 10
4305.0
 20
-5980.0
 11
4305.0
 21
-5780.0
 72
1
 10
4505.0
 20
-5780.0
 11
4705.0
 21
-5780.0
 72
1
 10
4705.0
 20
-5780.0
 11
4705.0
 21
-5980.0
 72
1
 10
4705.0
 20
-5980.0
 11
4505.0
 21
-5980.0
 72
1
 10
4505.0
 20
-5980.0
 11
4505.0
 21
-5780.0
 72
1
 10
4705.0
 20
-5780.0
 11
4905.0
 21
-5780.0
 72
1
 10
4905.0
 20
-5780.0
 11
4905.0
 21
-5980.0
 72
1
 10
4905.0
 20
-5980.0
 11
4705.0
 21
-5980.0
 72
1
 10
4705.0
 20
-5980.0
 11
4705.0
 21
-5780.0
 72
1
 10
4905.0
 20
-5780.0
 11
5105.0
 21
-5780.0
 72
1
 10
5105.0
 20
-5780.0
 11
5105.0
 21
-5980.0
 72
1
 10
5105.0
 20
-5980.0
 11
4905.0
 21
-5980.0
 72
1
 10
4905.0
 20
-5980.0
 11
4905.0
 21
-5780.0
 72
1
 10
5105.0
 20
-5780.0
 11
5305.0
 21
-5780.0
 72
1
 10
5305.0
 20
-5780.0
 11
5305.0
 21
-5980.0
 72
1
 10
5305.0
 20
-5980.0
 11
5105.0
 21
-5980.0
 72
1
 10
5105.0
 20
-5980.0
 11
5105.0
 21
-5780.0
 72
1
 10
5305.0
 20
-5780.0
 11
5505.0
 21
-5780.0
 72
1
 10
5505.0
 20
-5780.0
 11
5505.0
 21
-5980.0
 72
1
 10
5505.0
 20
-5980.0
 11
5305.0
 21
-5980.0
 72
1
 10
5305.0
 20
-5980.0
 11
5305.0
 21
-5780.0
 72
1
 10
5505.0
 20
-5780.0
 11
5705.0
 21
-5780.0
 72
1
 10
5705.0
 20
-5780.0
 11
5705.0
 21
-5980.0
 72
1
 10
5705.0
 20
-5980.0
 11
5505.0
 21
-5980.0
 72
1
 10
5505.0
 20
-5980.0
 11
5505.0
 21
-5780.0
 72
1
 10
4105.0
 20
-5980.0
 11
4305.0
 21
-5980.0
 72
1
 10
4305.0
 20
-5980.0
 11
4305.0
 21
-6180.0
 72
1
 10
4305.0
 20
-6180.0
 11
4105.0
 21
-6180.0
 72
1
 10
4105.0
 20
-6180.0
 11
4105.0
 21
-5980.0
 72
1
 10
4305.0
 20
-5980.0
 11
4505.0
 21
-5980.0
 72
1
 10
4505.0
 20
-5980.0
 11
4505.0
 21
-6180.0
 72
1
 10
4505.0
 20
-6180.0
 11
4305.0
 21
-6180.0
 72
1
 10
4305.0
 20
-6180.0
 11
4305.0
 21
-5980.0
 72
1
 10
4505.0
 20
-5980.0
 11
4705.0
 21
-5980.0
 72
1
 10
4705.0
 20
-5980.0
 11
4705.0
 21
-6180.0
 72
1
 10
4705.0
 20
-6180.0
 11
4505.0
 21
-6180.0
 72
1
 10
4505.0
 20
-6180.0
 11
4505.0
 21
-5980.0
 72
1
 10
4705.0
 20
-5980.0
 11
4905.0
 21
-5980.0
 72
1
 10
4905.0
 20
-5980.0
 11
4905.0
 21
-6180.0
 72
1
 10
4905.0
 20
-6180.0
 11
4705.0
 21
-6180.0
 72
1
 10
4705.0
 20
-6180.0
 11
4705.0
 21
-5980.0
 72
1
 10
4905.0
 20
-5980.0
 11
5105.0
 21
-5980.0
 72
1
 10
5105.0
 20
-5980.0
 11
5105.0
 21
-6180.0
 72
1
 10
5105.0
 20
-6180.0
 11
4905.0
 21
-6180.0
 72
1
 10
4905.0
 20
-6180.0
 11
4905.0
 21
-5980.0
 72
1
 10
5105.0
 20
-5980.0
 11
5305.0
 21
-5980.0
 72
1
 10
5305.0
 20
-5980.0
 11
5305.0
 21
-6180.0
 72
1
 10
5305.0
 20
-6180.0
 11
5105.0
 21
-6180.0
 72
1
 10
5105.0
 20
-6180.0
 11
5105.0
 21
-5980.0
 72
1
 10
5305.0
 20
-5980.0
 11
5505.0
 21
-5980.0
 72
1
 10
5505.0
 20
-5980.0
 11
5505.0
 21
-6180.0
 72
1
 10
5505.0
 20
-6180.0
 11
5305.0
 21
-6180.0
 72
1
 10
5305.0
 20
-6180.0
 11
5305.0
 21
-5980.0
 72
1
 10
5505.0
 20
-5980.0
 11
5705.0
 21
-5980.0
 72
1
 10
5705.0
 20
-5980.0
 11
5705.0
 21
-6180.0
 72
1
 10
5705.0
 20
-6180.0
 11
5505.0
 21
-6180.0
 72
1
 10
5505.0
 20
-6180.0
 11
5505.0
 21
-5980.0
 72
1
 10
4105.0
 20
-6180.0
 11
4305.0
 21
-6180.0
 72
1
 10
4305.0
 20
-6180.0
 11
4305.0
 21
-6380.0
 72
1
 10
4305.0
 20
-6380.0
 11
4105.0
 21
-6380.0
 72
1
 10
4105.0
 20
-6380.0
 11
4105.0
 21
-6180.0
 72
1
 10
4305.0
 20
-6180.0
 11
4505.0
 21
-6180.0
 72
1
 10
4505.0
 20
-6180.0
 11
4505.0
 21
-6380.0
 72
1
 10
4505.0
 20
-6380.0
 11
4305.0
 21
-6380.0
 72
1
 10
4305.0
 20
-6380.0
 11
4305.0
 21
-6180.0
 72
1
 10
4505.0
 20
-6180.0
 11
4705.0
 21
-6180.0
 72
1
 10
4705.0
 20
-6180.0
 11
4705.0
 21
-6380.0
 72
1
 10
4705.0
 20
-6380.0
 11
4505.0
 21
-6380.0
 72
1
 10
4505.0
 20
-6380.0
 11
4505.0
 21
-6180.0
 72
1
 10
4705.0
 20
-6180.0
 11
4905.0
 21
-6180.0
 72
1
 10
4905.0
 20
-6180.0
 11
4905.0
 21
-6380.0
 72
1
 10
4905.0
 20
-6380.0
 11
4705.0
 21
-6380.0
 72
1
 10
4705.0
 20
-6380.0
 11
4705.0
 21
-6180.0
 72
1
 10
4905.0
 20
-6180.0
 11
5105.0
 21
-6180.0
 72
1
 10
5105.0
 20
-6180.0
 11
5105.0
 21
-6380.0
 72
1
 10
5105.0
 20
-6380.0
 11
4905.0
 21
-6380.0
 72
1
 10
4905.0
 20
-6380.0
 11
4905.0
 21
-6180.0
 72
1
 10
5105.0
 20
-6180.0
 11
5305.0
 21
-6180.0
 72
1
 10
5305.0
 20
-6180.0
 11
5305.0
 21
-6380.0
 72
1
 10
5305.0
 20
-6380.0
 11
5105.0
 21
-6380.0
 72
1
 10
5105.0
 20
-6380.0
 11
5105.0
 21
-6180.0
 72
1
 10
5305.0
 20
-6180.0
 11
5505.0
 21
-6180.0
 72
1
 10
5505.0
 20
-6180.0
 11
5505.0
 21
-6380.0
 72
1
 10
5505.0
 20
-6380.0
 11
5305.0
 21
-6380.0
 72
1
 10
5305.0
 20
-6380.0
 11
5305.0
 21
-6180.0
 72
1
 10
5505.0
 20
-6180.0
 11
5705.0
 21
-6180.0
 72
1
 10
5705.0
 20
-6180.0
 11
5705.0
 21
-6380.0
 72
1
 10
5705.0
 20
-6380.0
 11
5505.0
 21
-6380.0
 72
1
 10
5505.0
 20
-6380.0
 11
5505.0
 21
-6180.0
 72
1
 10
4105.0
 20
-6380.0
 11
4305.0
 21
-6380.0
 72
1
 10
4305.0
 20
-6380.0
 11
4305.0
 21
-6580.0
 72
1
 10
4305.0
 20
-6580.0
 11
4105.0
 21
-6580.0
 72
1
 10
4105.0
 20
-6580.0
 11
4105.0
 21
-6380.0
 72
1
 10
4305.0
 20
-6380.0
 11
4505.0
 21
-6380.0
 72
1
 10
4505.0
 20
-6380.0
 11
4505.0
 21
-6580.0
 72
1
 10
4505.0
 20
-6580.0
 11
4305.0
 21
-6580.0
 72
1
 10
4305.0
 20
-6580.0
 11
4305.0
 21
-6380.0
 72
1
 10
4505.0
 20
-6380.0
 11
4705.0
 21
-6380.0
 72
1
 10
4705.0
 20
-6380.0
 11
4705.0
 21
-6580.0
 72
1
 10
4705.0
 20
-6580.0
 11
4505.0
 21
-6580.0
 72
1
 10
4505.0
 20
-6580.0
 11
4505.0
 21
-6380.0
 72
1
 10
4705.0
 20
-6380.0
 11
4905.0
 21
-6380.0
 72
1
 10
4905.0
 20
-6380.0
 11
4905.0
 21
-6580.0
 72
1
 10
4905.0
 20
-6580.0
 11
4705.0
 21
-6580.0
 72
1
 10
4705.0
 20
-6580.0
 11
4705.0
 21
-6380.0
 72
1
 10
4905.0
 20
-6380.0
 11
5105.0
 21
-6380.0
 72
1
 10
5105.0
 20
-6380.0
 11
5105.0
 21
-6580.0
 72
1
 10
5105.0
 20
-6580.0
 11
4905.0
 21
-6580.0
 72
1
 10
4905.0
 20
-6580.0
 11
4905.0
 21
-6380.0
 72
1
 10
5105.0
 20
-6380.0
 11
5305.0
 21
-6380.0
 72
1
 10
5305.0
 20
-6380.0
 11
5305.0
 21
-6580.0
 72
1
 10
5305.0
 20
-6580.0
 11
5105.0
 21
-6580.0
 72
1
 10
5105.0
 20
-6580.0
 11
5105.0
 21
-6380.0
 72
1
 10
5305.0
 20
-6380.0
 11
5505.0
 21
-6380.0
 72
1
 10
5505.0
 20
-6380.0
 11
5505.0
 21
-6580.0
 72
1
 10
5505.0
 20
-6580.0
 11
5305.0
 21
-6580.0
 72
1
 10
5305.0
 20
-6580.0
 11
5305.0
 21
-6380.0
 72
1
 10
5505.0
 20
-6380.0
 11
5705.0
 21
-6380.0
 72
1
 10
5705.0
 20
-6380.0
 11
5705.0
 21
-6580.0
 72
1
 10
5705.0
 20
-6580.0
 11
5505.0
 21
-6580.0
 72
1
 10
5505.0
 20
-6580.0
 11
5505.0
 21
-6380.0
 72
1
 10
5705.0
 20
-6490.0
 11
5795.0
 21
-6490.0
 72
1
 10
5795.0
 20
-6490.0
 11
5795.0
 21
-6580.0
 72
1
 10
5795.0
 20
-6580.0
 11
5705.0
 21
-6580.0
 72
1
 10
5705.0
 20
-6580.0
 11
5705.0
 21
-6490.0
 72
1
 10
4105.0
 20
-6580.0
 11
4305.0
 21
-6580.0
 72
1
 10
4305.0
 20
-6580.0
 11
4305.0
 21
-6780.0
 72
1
 10
4305.0
 20
-6780.0
 11
4105.0
 21
-6780.0
 72
1
 10
4105.0
 20
-6780.0
 11
4105.0
 21
-6580.0
 72
1
 10
4305.0
 20
-6580.0
 11
4505.0
 21
-6580.0
 72
1
 10
4505.0
 20
-6580.0
 11
4505.0
 21
-6780.0
 72
1
 10
4505.0
 20
-6780.0
 11
4305.0
 21
-6780.0
 72
1
 10
4305.0
 20
-6780.0
 11
4305.0
 21
-6580.0
 72
1
 10
4505.0
 20
-6580.0
 11
4705.0
 21
-6580.0
 72
1
 10
4705.0
 20
-6580.0
 11
4705.0
 21
-6780.0
 72
1
 10
4705.0
 20
-6780.0
 11
4505.0
 21
-6780.0
 72
1
 10
4505.0
 20
-6780.0
 11
4505.0
 21
-6580.0
 72
1
 10
4705.0
 20
-6580.0
 11
4905.0
 21
-6580.0
 72
1
 10
4905.0
 20
-6580.0
 11
4905.0
 21
-6780.0
 72
1
 10
4905.0
 20
-6780.0
 11
4705.0
 21
-6780.0
 72
1
 10
4705.0
 20
-6780.0
 11
4705.0
 21
-6580.0
 72
1
 10
4905.0
 20
-6580.0
 11
5105.0
 21
-6580.0
 72
1
 10
5105.0
 20
-6580.0
 11
5105.0
 21
-6780.0
 72
1
 10
5105.0
 20
-6780.0
 11
4905.0
 21
-6780.0
 72
1
 10
4905.0
 20
-6780.0
 11
4905.0
 21
-6580.0
 72
1
 10
5105.0
 20
-6580.0
 11
5305.0
 21
-6580.0
 72
1
 10
5305.0
 20
-6580.0
 11
5305.0
 21
-6780.0
 72
1
 10
5305.0
 20
-6780.0
 11
5105.0
 21
-6780.0
 72
1
 10
5105.0
 20
-6780.0
 11
5105.0
 21
-6580.0
 72
1
 10
5305.0
 20
-6580.0
 11
5505.0
 21
-6580.0
 72
1
 10
5505.0
 20
-6580.0
 11
5505.0
 21
-6780.0
 72
1
 10
5505.0
 20
-6780.0
 11
5305.0
 21
-6780.0
 72
1
 10
5305.0
 20
-6780.0
 11
5305.0
 21
-6580.0
 72
1
 10
5505.0
 20
-6580.0
 11
5705.0
 21
-6580.0
 72
1
 10
5705.0
 20
-6580.0
 11
5705.0
 21
-6780.0
 72
1
 10
5705.0
 20
-6780.0
 11
5505.0
 21
-6780.0
 72
1
 10
5505.0
 20
-6780.0
 11
5505.0
 21
-6580.0
 72
1
 10
5705.0
 20
-6580.0
 11
5795.0
 21
-6580.0
 72
1
 10
5795.0
 20
-6580.0
 11
5795.0
 21
-6780.0
 72
1
 10
5795.0
 20
-6780.0
 11
5705.0
 21
-6780.0
 72
1
 10
5705.0
 20
-6780.0
 11
5705.0
 21
-6580.0
 72
1
 10
4105.0
 20
-6780.0
 11
4305.0
 21
-6780.0
 72
1
 10
4305.0
 20
-6780.0
 11
4305.0
 21
-6980.0
 72
1
 10
4305.0
 20
-6980.0
 11
4105.0
 21
-6980.0
 72
1
 10
4105.0
 20
-6980.0
 11
4105.0
 21
-6780.0
 72
1
 10
4305.0
 20
-6780.0
 11
4505.0
 21
-6780.0
 72
1
 10
4505.0
 20
-6780.0
 11
4505.0
 21
-6980.0
 72
1
 10
4505.0
 20
-6980.0
 11
4305.0
 21
-6980.0
 72
1
 10
4305.0
 20
-6980.0
 11
4305.0
 21
-6780.0
 72
1
 10
4505.0
 20
-6780.0
 11
4705.0
 21
-6780.0
 72
1
 10
4705.0
 20
-6780.0
 11
4705.0
 21
-6980.0
 72
1
 10
4705.0
 20
-6980.0
 11
4505.0
 21
-6980.0
 72
1
 10
4505.0
 20
-6980.0
 11
4505.0
 21
-6780.0
 72
1
 10
4705.0
 20
-6780.0
 11
4905.0
 21
-6780.0
 72
1
 10
4905.0
 20
-6780.0
 11
4905.0
 21
-6980.0
 72
1
 10
4905.0
 20
-6980.0
 11
4705.0
 21
-6980.0
 72
1
 10
4705.0
 20
-6980.0
 11
4705.0
 21
-6780.0
 72
1
 10
4905.0
 20
-6780.0
 11
5105.0
 21
-6780.0
 72
1
 10
5105.0
 20
-6780.0
 11
5105.0
 21
-6980.0
 72
1
 10
5105.0
 20
-6980.0
 11
4905.0
 21
-6980.0
 72
1
 10
4905.0
 20
-6980.0
 11
4905.0
 21
-6780.0
 72
1
 10
5105.0
 20
-6780.0
 11
5305.0
 21
-6780.0
 72
1
 10
5305.0
 20
-6780.0
 11
5305.0
 21
-6980.0
 72
1
 10
5305.0
 20
-6980.0
 11
5105.0
 21
-6980.0
 72
1
 10
5105.0
 20
-6980.0
 11
5105.0
 21
-6780.0
 72
1
 10
5305.0
 20
-6780.0
 11
5505.0
 21
-6780.0
 72
1
 10
5505.0
 20
-6780.0
 11
5505.0
 21
-6980.0
 72
1
 10
5505.0
 20
-6980.0
 11
5305.0
 21
-6980.0
 72
1
 10
5305.0
 20
-6980.0
 11
5305.0
 21
-6780.0
 72
1
 10
5505.0
 20
-6780.0
 11
5705.0
 21
-6780.0
 72
1
 10
5705.0
 20
-6780.0
 11
5705.0
 21
-6980.0
 72
1
 10
5705.0
 20
-6980.0
 11
5505.0
 21
-6980.0
 72
1
 10
5505.0
 20
-6980.0
 11
5505.0
 21
-6780.0
 72
1
 10
5705.0
 20
-6780.0
 11
5795.0
 21
-6780.0
 72
1
 10
5795.0
 20
-6780.0
 11
5795.0
 21
-6980.0
 72
1
 10
5795.0
 20
-6980.0
 11
5705.0
 21
-6980.0
 72
1
 10
5705.0
 20
-6980.0
 11
5705.0
 21
-6780.0
 72
1
 10
4105.0
 20
-6980.0
 11
4305.0
 21
-6980.0
 72
1
 10
4305.0
 20
-6980.0
 11
4305.0
 21
-7180.0
 72
1
 10
4305.0
 20
-7180.0
 11
4105.0
 21
-7180.0
 72
1
 10
4105.0
 20
-7180.0
 11
4105.0
 21
-6980.0
 72
1
 10
4305.0
 20
-6980.0
 11
4505.0
 21
-6980.0
 72
1
 10
4505.0
 20
-6980.0
 11
4505.0
 21
-7180.0
 72
1
 10
4505.0
 20
-7180.0
 11
4305.0
 21
-7180.0
 72
1
 10
4305.0
 20
-7180.0
 11
4305.0
 21
-6980.0
 72
1
 10
4505.0
 20
-6980.0
 11
4705.0
 21
-6980.0
 72
1
 10
4705.0
 20
-6980.0
 11
4705.0
 21
-7180.0
 72
1
 10
4705.0
 20
-7180.0
 11
4505.0
 21
-7180.0
 72
1
 10
4505.0
 20
-7180.0
 11
4505.0
 21
-6980.0
 72
1
 10
4705.0
 20
-6980.0
 11
4905.0
 21
-6980.0
 72
1
 10
4905.0
 20
-6980.0
 11
4905.0
 21
-7180.0
 72
1
 10
4905.0
 20
-7180.0
 11
4705.0
 21
-7180.0
 72
1
 10
4705.0
 20
-7180.0
 11
4705.0
 21
-6980.0
 72
1
 10
4905.0
 20
-6980.0
 11
5105.0
 21
-6980.0
 72
1
 10
5105.0
 20
-6980.0
 11
5105.0
 21
-7180.0
 72
1
 10
5105.0
 20
-7180.0
 11
4905.0
 21
-7180.0
 72
1
 10
4905.0
 20
-7180.0
 11
4905.0
 21
-6980.0
 72
1
 10
5105.0
 20
-6980.0
 11
5305.0
 21
-6980.0
 72
1
 10
5305.0
 20
-6980.0
 11
5305.0
 21
-7180.0
 72
1
 10
5305.0
 20
-7180.0
 11
5105.0
 21
-7180.0
 72
1
 10
5105.0
 20
-7180.0
 11
5105.0
 21
-6980.0
 72
1
 10
5305.0
 20
-6980.0
 11
5505.0
 21
-6980.0
 72
1
 10
5505.0
 20
-6980.0
 11
5505.0
 21
-7180.0
 72
1
 10
5505.0
 20
-7180.0
 11
5305.0
 21
-7180.0
 72
1
 10
5305.0
 20
-7180.0
 11
5305.0
 21
-6980.0
 72
1
 10
5505.0
 20
-6980.0
 11
5705.0
 21
-6980.0
 72
1
 10
5705.0
 20
-6980.0
 11
5705.0
 21
-7180.0
 72
1
 10
5705.0
 20
-7180.0
 11
5505.0
 21
-7180.0
 72
1
 10
5505.0
 20
-7180.0
 11
5505.0
 21
-6980.0
 72
1
 10
5705.0
 20
-6980.0
 11
5795.0
 21
-6980.0
 72
1
 10
5795.0
 20
-6980.0
 11
5795.0
 21
-7180.0
 72
1
 10
5795.0
 20
-7180.0
 11
5705.0
 21
-7180.0
 72
1
 10
5705.0
 20
-7180.0
 11
5705.0
 21
-6980.0
 72
1
 10
4105.0
 20
-7180.0
 11
4305.0
 21
-7180.0
 72
1
 10
4305.0
 20
-7180.0
 11
4305.0
 21
-7380.0
 72
1
 10
4305.0
 20
-7380.0
 11
4105.0
 21
-7380.0
 72
1
 10
4105.0
 20
-7380.0
 11
4105.0
 21
-7180.0
 72
1
 10
4305.0
 20
-7180.0
 11
4505.0
 21
-7180.0
 72
1
 10
4505.0
 20
-7180.0
 11
4505.0
 21
-7380.0
 72
1
 10
4505.0
 20
-7380.0
 11
4305.0
 21
-7380.0
 72
1
 10
4305.0
 20
-7380.0
 11
4305.0
 21
-7180.0
 72
1
 10
4505.0
 20
-7180.0
 11
4705.0
 21
-7180.0
 72
1
 10
4705.0
 20
-7180.0
 11
4705.0
 21
-7380.0
 72
1
 10
4705.0
 20
-7380.0
 11
4505.0
 21
-7380.0
 72
1
 10
4505.0
 20
-7380.0
 11
4505.0
 21
-7180.0
 72
1
 10
4705.0
 20
-7180.0
 11
4905.0
 21
-7180.0
 72
1
 10
4905.0
 20
-7180.0
 11
4905.0
 21
-7380.0
 72
1
 10
4905.0
 20
-7380.0
 11
4705.0
 21
-7380.0
 72
1
 10
4705.0
 20
-7380.0
 11
4705.0
 21
-7180.0
 72
1
 10
4905.0
 20
-7180.0
 11
5105.0
 21
-7180.0
 72
1
 10
5105.0
 20
-7180.0
 11
5105.0
 21
-7380.0
 72
1
 10
5105.0
 20
-7380.0
 11
4905.0
 21
-7380.0
 72
1
 10
4905.0
 20
-7380.0
 11
4905.0
 21
-7180.0
 72
1
 10
5105.0
 20
-7180.0
 11
5305.0
 21
-7180.0
 72
1
 10
5305.0
 20
-7180.0
 11
5305.0
 21
-7380.0
 72
1
 10
5305.0
 20
-7380.0
 11
5105.0
 21
-7380.0
 72
1
 10
5105.0
 20
-7380.0
 11
5105.0
 21
-7180.0
 72
1
 10
5305.0
 20
-7180.0
 11
5505.0
 21
-7180.0
 72
1
 10
5505.0
 20
-7180.0
 11
5505.0
 21
-7380.0
 72
1
 10
5505.0
 20
-7380.0
 11
5305.0
 21
-7380.0
 72
1
 10
5305.0
 20
-7380.0
 11
5305.0
 21
-7180.0
 72
1
 10
5505.0
 20
-7180.0
 11
5705.0
 21
-7180.0
 72
1
 10
5705.0
 20
-7180.0
 11
5705.0
 21
-7380.0
 72
1
 10
5705.0
 20
-7380.0
 11
5505.0
 21
-7380.0
 72
1
 10
5505.0
 20
-7380.0
 11
5505.0
 21
-7180.0
 72
1
 10
5705.0
 20
-7180.0
 11
5795.0
 21
-7180.0
 72
1
 10
5795.0
 20
-7180.0
 11
5795.0
 21
-7380.0
 72
1
 10
5795.0
 20
-7380.0
 11
5705.0
 21
-7380.0
 72
1
 10
5705.0
 20
-7380.0
 11
5705.0
 21
-7180.0
 72
1
 10
4105.0
 20
-7380.0
 11
4305.0
 21
-7380.0
 72
1
 10
4305.0
 20
-7380.0
 11
4305.0
 21
-7570.0
 72
1
 10
4305.0
 20
-7570.0
 11
4105.0
 21
-7570.0
 72
1
 10
4105.0
 20
-7570.0
 11
4105.0
 21
-7380.0
 72
1
 10
4305.0
 20
-7380.0
 11
4505.0
 21
-7380.0
 72
1
 10
4505.0
 20
-7380.0
 11
4505.0
 21
-7570.0
 72
1
 10
4505.0
 20
-7570.0
 11
4305.0
 21
-7570.0
 72
1
 10
4305.0
 20
-7570.0
 11
4305.0
 21
-7380.0
 72
1
 10
4505.0
 20
-7380.0
 11
4705.0
 21
-7380.0
 72
1
 10
4705.0
 20
-7380.0
 11
4705.0
 21
-7570.0
 72
1
 10
4705.0
 20
-7570.0
 11
4505.0
 21
-7570.0
 72
1
 10
4505.0
 20
-7570.0
 11
4505.0
 21
-7380.0
 72
1
 10
4705.0
 20
-7380.0
 11
4905.0
 21
-7380.0
 72
1
 10
4905.0
 20
-7380.0
 11
4905.0
 21
-7570.0
 72
1
 10
4905.0
 20
-7570.0
 11
4705.0
 21
-7570.0
 72
1
 10
4705.0
 20
-7570.0
 11
4705.0
 21
-7380.0
 72
1
 10
4905.0
 20
-7380.0
 11
5105.0
 21
-7380.0
 72
1
 10
5105.0
 20
-7380.0
 11
5105.0
 21
-7570.0
 72
1
 10
5105.0
 20
-7570.0
 11
4905.0
 21
-7570.0
 72
1
 10
4905.0
 20
-7570.0
 11
4905.0
 21
-7380.0
 72
1
 10
5105.0
 20
-7380.0
 11
5305.0
 21
-7380.0
 72
1
 10
5305.0
 20
-7380.0
 11
5305.0
 21
-7570.0
 72
1
 10
5305.0
 20
-7570.0
 11
5105.0
 21
-7570.0
 72
1
 10
5105.0
 20
-7570.0
 11
5105.0
 21
-7380.0
 72
1
 10
5305.0
 20
-7380.0
 11
5505.0
 21
-7380.0
 72
1
 10
5505.0
 20
-7380.0
 11
5505.0
 21
-7570.0
 72
1
 10
5505.0
 20
-7570.0
 11
5305.0
 21
-7570.0
 72
1
 10
5305.0
 20
-7570.0
 11
5305.0
 21
-7380.0
 72
1
 10
5505.0
 20
-7380.0
 11
5705.0
 21
-7380.0
 72
1
 10
5705.0
 20
-7380.0
 11
5705.0
 21
-7570.0
 72
1
 10
5705.0
 20
-7570.0
 11
5505.0
 21
-7570.0
 72
1
 10
5505.0
 20
-7570.0
 11
5505.0
 21
-7380.0
 72
1
 10
5705.0
 20
-7380.0
 11
5795.0
 21
-7380.0
 72
1
 10
5795.0
 20
-7380.0
 11
5795.0
 21
-7570.0
 72
1
 10
5795.0
 20
-7570.0
 11
5705.0
 21
-7570.0
 72
1
 10
5705.0
 20
-7570.0
 11
5705.0
 21
-7380.0
 97
0
 75
0
 76
1
 52
0.7853981633974483
 41
18.0
 77
0
 78
0
 98
0
  0
HATCH
  5
F4
330
1F
100
AcDbEntity
  8
plasterboard-hatch
  6
ByLayer
 62
256
370
-1
100
AcDbHatch
 10
0.0
 20
0.0
 30
0.0
210
0.0
220
0.0
230
1.0
  2
kerpele
 70
0
 71
0
 91
1
 92
0
 93
4
 72
1
 10
4105.0
 20
-7420.0
 11
4085.0
 21
-7420.0
 72
1
 10
4085.0
 20
-7420.0
 11
4085.0
 21
-7570.0
 72
1
 10
4085.0
 20
-7570.0
 11
4105.0
 21
-7570.0
 72
1
 10
4105.0
 20
-7570.0
 11
4105.0
 21
-7420.0
 97
0
 75
0
 76
1
 52
-1.570796326794897
 41
1.0
 77
0
 78
0
 98
0
  0
HATCH
  5
F5
330
1F
100
AcDbEntity
  8
plasterboard-hatch
  6
ByLayer
 62
256
370
-1
100
AcDbHatch
 10
0.0
 20
0.0
 30
0.0
210
0.0
220
0.0
230
1.0
  2
kerpele
 70
0
 71
0
 91
1
 92
0
 93
4
 72
1
 10
5775.0
 20
-3530.0
 11
5795.0
 21
-3530.0
 72
1
 10
5795.0
 20
-3530.0
 11
5795.0
 21
-3650.0
 72
1
 10
5795.0
 20
-3650.0
 11
5775.0
 21
-3650.0
 72
1
 10
5775.0
 20
-3650.0
 11
5775.0
 21
-3530.0
 97
0
 75
0
 76
1
 52
1.570796326794897
 41
1.0
 77
0
 78
0
 98
0
  0
HATCH
  5
F6
330
1F
100
AcDbEntity
  8
plasterboard-hatch
  6
ByLayer
 62
256
370
-1
100
AcDbHatch
 10
0.0
 20
0.0
 30
0.0
210
0.0
220
0.0
230
1.0
  2
kerpele
 70
0
 71
0
 91
1
 92
0
 93
4
 72
1
 10
5705.0
 20
-6085.0
 11
5725.0
 21
-6085.0
 72
1
 10
5725.0
 20
-6085.0
 11
5725.0
 21
-5180.0
 72
1
 10
5725.0
 20
-5180.0
 11
5705.0
 21
-5180.0
 72
1
 10
5705.0
 20
-5180.0
 11
5705.0
 21
-6085.0
 97
0
 75
0
 76
1
 52
1.570796326794897
 41
1.0
 77
0
 78
0
 98
0
  0
HATCH
  5
F7
330
1F
100
AcDbEntity
  8
plasterboard-hatch
  6
ByBlock
 62
256
370
-1
100
AcDbHatch
 10
0.0
 20
0.0
 30
0.0
210
0.0
220
0.0
230
1.0
  2
kerpele
 70
0
 71
0
 91
1
 92
0
 93
16
 72
1
 10
1245.0
 20
-7550.0
 11
19.99999999999954
 21
-7550.0
 72
1
 10
19.99999999999954
 20
-7550.0
 11
20.0
 21
-5520.0
 72
1
 10
20.0
 20
-5520.0
 11
780.0
 21
-5520.0
 72
1
 10
780.0
 20
-5520.0
 11
780.0
 21
-6250.0
 72
1
 10
780.0
 20
-6250.0
 11
1245.0
 21
-6250.0
 72
1
 10
1245.0
 20
-6250.0
 11
1245.0
 21
-6290.0
 72
1
 10
1245.0
 20
-6290.0
 11
1265.0
 21
-6290.0
 72
1
 10
1265.0
 20
-6290.0
 11
1265.0
 21
-6230.0
 72
1
 10
1265.0
 20
-6230.0
 11
800.0
 21
-6230.0
 72
1
 10
800.0
 20
-6230.0
 11
800.0
 21
-5500.0
 72
1
 10
800.0
 20
-5500.0
 11
-3.373901931650958e-13
 21
-5500.0
 72
1
 10
-3.373901931650958e-13
 20
-5500.0
 11
-4.641411368768469e-13
 21
-7570.0
 72
1
 10
-4.641411368768469e-13
 20
-7570.0
 11
1265.0
 21
-7570.0
 72
1
 10
1265.0
 20
-7570.0
 11
1265.0
 21
-7040.0
 72
1
 10
1265.0
 20
-7040.0
 11
1245.0
 21
-7040.0
 72
1
 10
1245.0
 20
-7040.0
 11
1245.0
 21
-7550.0
 97
0
 75
0
 76
1
 52
1.570796326794897
 41
1.0
 77
0
 78
0
 98
0
  0
HATCH
  5
F8
330
1F
100
AcDbEntity
  8
plasterboard-hatch
  6
ByBlock
 62
256
370
-1
100
AcDbHatch
 10
0.0
 20
0.0
 30
0.0
210
0.0
220
0.0
230
1.0
  2
kerpele
 70
0
 71
0
 91
1
 92
0
 93
8
 72
1
 10
1845.0
 20
-7550.0
 11
1385.0
 21
-7550.0
 72
1
 10
1385.0
 20
-7550.0
 11
1385.0
 21
-7040.0
 72
1
 10
1385.0
 20
-7040.0
 11
1365.0
 21
-7040.0
 72
1
 10
1365.0
 20
-7040.0
 11
1365.0
 21
-7570.0
 72
1
 10
1365.0
 20
-7570.0
 11
1825.0
 21
-7570.0
 72
1
 10
1825.0
 20
-7570.0
 11
1825.0
 21
-7720.0
 72
1
 10
1825.0
 20
-7720.0
 11
1845.0
 21
-7720.0
 72
1
 10
1845.0
 20
-7720.0
 11
1845.0
 21
-7550.0
 97
0
 75
0
 76
1
 52
1.570796326794897
 41
1.0
 77
0
 78
0
 98
0
  0
HATCH
  5
F9
330
1F
100
AcDbEntity
  8
plasterboard-hatch
  6
ByBlock
 62
256
370
-1
100
AcDbHatch
 10
0.0
 20
0.0
 30
0.0
210
0.0
220
0.0
230
1.0
  2
kerpele
 70
0
 71
0
 91
1
 92
0
 93
12
 72
1
 10
2865.0
 20
-7200.0
 11
3985.0
 21
-7200.0
 72
1
 10
3985.0
 20
-7200.0
 11
3985.0
 21
-6690.0
 72
1
 10
3985.0
 20
-6690.0
 11
4005.0
 21
-6690.0
 72
1
 10
4005.0
 20
-6690.0
 11
4005.0
 21
-7220.0
 72
1
 10
4005.0
 20
-7220.0
 11
2885.0
 21
-7220.0
 72
1
 10
2885.0
 20
-7220.0
 11
2885.0
 21
-7570.0
 72
1
 10
2885.0
 20
-7570.0
 11
2850.0
 21
-7570.0
 72
1
 10
2850.0
 20
-7570.0
 11
2850.0
 21
-7720.0
 72
1
 10
2850.0
 20
-7720.0
 11
2830.0
 21
-7720.0
 72
1
 10
2830.0
 20
-7720.0
 11
2830.0
 21
-7550.0
 72
1
 10
2830.0
 20
-7550.0
 11
2865.0
 21
-7550.0
 72
1
 10
2865.0
 20
-7550.0
 11
2865.0
 21
-7200.0
 97
0
 75
0
 76
1
 52
1.570796326794897
 41
1.0
 77
0
 78
0
 98
0
  0
HATCH
  5
FA
330
1F
100
AcDbEntity
  8
plasterboard-hatch
  6
ByBlock
 62
256
370
-1
100
AcDbHatch
 10
0.0
 20
0.0
 30
0.0
210
0.0
220
0.0
230
1.0
  2
kerpele
 70
0
 71
0
 91
1
 92
0
 93
16
 72
1
 10
3985.0
 20
-3560.0
 11
4125.0
 21
-3560.0
 72
1
 10
4125.0
 20
-3560.0
 11
4125.0
 21
-4160.0
 72
1
 10
4125.0
 20
-4160.0
 11
5070.0
 21
-4160.0
 72
1
 10
5070.0
 20
-4160.0
 11
5070.0
 21
-4260.0
 72
1
 10
5070.0
 20
-4260.0
 11
5775.0
 21
-4260.0
 72
1
 10
5775.0
 20
-4260.0
 11
5775.0
 21
-4250.0
 72
1
 10
5775.0
 20
-4250.0
 11
5795.0
 21
-4250.0
 72
1
 10
5795.0
 20
-4250.0
 11
5795.0
 21
-4280.0
 72
1
 10
5795.0
 20
-4280.0
 11
5050.0
 21
-4280.0
 72
1
 10
5050.0
 20
-4280.0
 11
5050.0
 21
-4180.0
 72
1
 10
5050.0
 20
-4180.0
 11
4105.0
 21
-4180.0
 72
1
 10
4105.0
 20
-4180.0
 11
4105.0
 21
-3580.0
 72
1
 10
4105.0
 20
-3580.0
 11
4005.0
 21
-3580.0
 72
1
 10
4005.0
 20
-3580.0
 11
4005.0
 21
-5940.0
 72
1
 10
4005.0
 20
-5940.0
 11
3985.0
 21
-5940.0
 72
1
 10
3985.0
 20
-5940.0
 11
3985.0
 21
-3560.0
 97
0
 75
0
 76
1
 52
1.570796326794897
 41
1.0
 77
0
 78
0
 98
0
  0
HATCH
  5
FB
330
1F
100
AcDbEntity
  8
plasterboard-hatch
  6
ByBlock
 62
256
370
-1
100
AcDbHatch
 10
0.0
 20
0.0
 30
0.0
210
0.0
220
0.0
230
1.0
  2
kerpele
 70
0
 71
0
 91
1
 92
0
 93
20
 72
1
 10
5675.0
 20
-220.0
 11
5775.0
 21
-220.0
 72
1
 10
5775.0
 20
-220.0
 11
5775.0
 21
-3530.0
 72
1
 10
5775.0
 20
-3530.0
 11
5795.0
 21
-3530.0
 72
1
 10
5795.0
 20
-3530.0
 11
5795.0
 21
-200.0
 72
1
 10
5795.0
 20
-200.0
 11
5695.0
 21
-200.0
 72
1
 10
5695.0
 20
-200.0
 11
5695.0
 21
0.0
 72
1
 10
5695.0
 20
0.0
 11
2900.0
 21
0.0
 72
1
 10
2900.0
 20
0.0
 11
2900.0
 21
-200.0
 72
1
 10
2900.0
 20
-200.0
 11
2505.0
 21
-200.0
 72
1
 10
2505.0
 20
-200.0
 11
2505.0
 21
0.0
 72
1
 10
2505.0
 20
0.0
 11
2060.0
 21
0.0
 72
1
 10
2060.0
 20
0.0
 11
2060.0
 21
-20.0
 72
1
 10
2060.0
 20
-20.0
 11
2485.0
 21
-20.0
 72
1
 10
2485.0
 20
-20.0
 11
2485.0
 21
-220.0
 72
1
 10
2485.0
 20
-220.0
 11
2920.0
 21
-220.0
 72
1
 10
2920.0
 20
-220.0
 11
2920.0
 21
-20.0
 72
1
 10
2920.0
 20
-20.0
 11
3640.0
 21
-20.0
 72
1
 10
3640.0
 20
-20.0
 11
5315.0
 21
-20.0
 72
1
 10
5315.0
 20
-20.0
 11
5675.0
 21
-20.0
 72
1
 10
5675.0
 20
-20.0
 11
5675.0
 21
-220.0
 97
0
 75
0
 76
1
 52
1.570796326794897
 41
1.0
 77
0
 78
0
 98
0
  0
HATCH
  5
FC
330
1F
100
AcDbEntity
  8
plasterboard-hatch
  6
ByBlock
 62
256
370
-1
100
AcDbHatch
 10
0.0
 20
0.0
 30
0.0
210
0.0
220
0.0
230
1.0
  2
kerpele
 70
0
 71
0
 91
1
 92
0
 93
11
 72
1
 10
20.00000000000001
 20
-5380.0
 11
1385.0
 21
-5380.0
 72
1
 10
1385.0
 20
-5380.0
 11
1385.0
 21
-6290.0
 72
1
 10
1385.0
 20
-6290.0
 11
1365.0
 21
-6290.0
 72
1
 10
1365.0
 20
-6290.0
 11
1365.0
 21
-5400.0
 72
1
 10
1365.0
 20
-5400.0
 11
0.0
 21
-5400.0
 72
1
 10
0.0
 20
-5400.0
 11
0.0
 21
0.0
 72
1
 10
0.0
 20
0.0
 11
1200.0
 21
0.0
 72
1
 10
1200.0
 20
0.0
 11
1200.0
 21
-20.0
 72
1
 10
1200.0
 20
-20.0
 11
390.0
 21
-20.0
 72
1
 10
390.0
 20
-20.0
 11
20.0
 21
-20.0
 72
1
 10
20.0
 20
-20.0
 11
20.00000000000001
 21
-5380.0
 97
0
 75
0
 76
1
 52
1.570796326794897
 41
1.0
 77
0
 78
0
 98
0
  0
HATCH
  5
FD
330
1F
100
AcDbEntity
  8
wall-hatch
  6
ByLayer
 62
256
370
-1
100
AcDbHatch
 10
0.0
 20
0.0
 30
0.0
210
0.0
220
0.0
230
1.0
  2
gost_ferroconcrete
 70
0
 71
0
 91
1
 92
0
 93
88
 72
1
 10
5795.0
 20
-5080.0
 11
4105.0
 21
-5080.0
 72
1
 10
4105.0
 20
-5080.0
 11
4105.0
 21
-4380.0
 72
1
 10
4105.0
 20
-4380.0
 11
5795.0
 21
-4380.0
 72
1
 10
5795.0
 20
-4380.0
 11
5795.0
 21
-5080.0
 72
1
 10
2900.0
 20
0.0
 11
3640.0
 21
0.0
 72
1
 10
3640.0
 20
0.0
 11
3640.0
 21
300.0
 72
1
 10
3640.0
 20
300.0
 11
2060.0
 21
300.0
 72
1
 10
2060.0
 20
300.0
 11
2060.0
 21
0.0
 72
1
 10
2060.0
 20
0.0
 11
2505.0
 21
0.0
 72
1
 10
2505.0
 20
0.0
 11
2505.0
 21
-200.0
 72
1
 10
2505.0
 20
-200.0
 11
2900.0
 21
-200.0
 72
1
 10
2900.0
 20
-200.0
 11
2900.0
 21
0.0
 72
1
 10
3085.0
 20
-7420.0
 11
3830.0
 21
-7420.0
 72
1
 10
3830.0
 20
-7420.0
 11
3830.0
 21
-7570.0
 72
1
 10
3830.0
 20
-7570.0
 11
3085.0
 21
-7570.0
 72
1
 10
3085.0
 20
-7570.0
 11
3085.0
 21
-7420.0
 72
1
 10
1265.0
 20
-6130.0
 11
900.0
 21
-6130.0
 72
1
 10
900.0
 20
-6130.0
 11
900.0
 21
-5500.0
 72
1
 10
900.0
 20
-5500.0
 11
1265.0
 21
-5500.0
 72
1
 10
1265.0
 20
-5500.0
 11
1265.0
 21
-6130.0
 72
1
 10
390.0000000000001
 20
300.0
 11
-300.0
 21
300.0
 72
1
 10
-300.0
 20
300.0
 11
-270.0
 21
220.0
 72
1
 10
-270.0
 20
220.0
 11
-330.0
 21
110.0
 72
1
 10
-330.0
 20
110.0
 11
-300.0
 21
1.469576158976824e-13
 72
1
 10
-300.0
 20
1.469576158976824e-13
 11
-200.0
 21
1.469576158976824e-13
 72
1
 10
-200.0
 20
1.469576158976824e-13
 11
-200.0
 21
-7570.0
 72
1
 10
-200.0
 20
-7570.0
 11
-300.0
 21
-7570.0
 72
1
 10
-300.0
 20
-7570.0
 11
-290.0
 21
-7610.0
 72
1
 10
-290.0
 20
-7610.0
 11
-330.0
 21
-7690.0
 72
1
 10
-330.0
 20
-7690.0
 11
-300.0
 21
-7770.0
 72
1
 10
-300.0
 20
-7770.0
 11
1825.0
 21
-7770.0
 72
1
 10
1825.0
 20
-7770.0
 11
1825.0
 21
-7570.0
 72
1
 10
1825.0
 20
-7570.0
 11
1365.0
 21
-7570.0
 72
1
 10
1365.0
 20
-7570.0
 11
1365.0
 21
-7040.0
 72
1
 10
1365.0
 20
-7040.0
 11
1265.0
 21
-7040.0
 72
1
 10
1265.0
 20
-7040.0
 11
1265.0
 21
-7570.0
 72
1
 10
1265.0
 20
-7570.0
 11
-4.641411368768469e-13
 21
-7570.0
 72
1
 10
-4.641411368768469e-13
 20
-7570.0
 11
-3.373901931650958e-13
 21
-5500.0
 72
1
 10
-3.373901931650958e-13
 20
-5500.0
 11
800.0
 21
-5500.0
 72
1
 10
800.0
 20
-5500.0
 11
800.0
 21
-6230.0
 72
1
 10
800.0
 20
-6230.0
 11
1265.0
 21
-6230.0
 72
1
 10
1265.0
 20
-6230.0
 11
1265.0
 21
-6290.0
 72
1
 10
1265.0
 20
-6290.0
 11
1365.0
 21
-6290.0
 72
1
 10
1365.0
 20
-6290.0
 11
1365.0
 21
-5400.0
 72
1
 10
1365.0
 20
-5400.0
 11
0.0
 21
-5400.0
 72
1
 10
0.0
 20
-5400.0
 11
0.0
 21
0.0
 72
1
 10
0.0
 20
0.0
 11
390.0
 21
0.0
 72
1
 10
390.0
 20
0.0
 11
390.0000000000001
 21
300.0
 72
1
 10
6095.0
 20
-7770.0
 11
2850.0
 21
-7770.0
 72
1
 10
2850.0
 20
-7770.0
 11
2850.0
 21
-7570.0
 72
1
 10
2850.0
 20
-7570.0
 11
2885.0
 21
-7570.0
 72
1
 10
2885.0
 20
-7570.0
 11
2885.0
 21
-7220.0
 72
1
 10
2885.0
 20
-7220.0
 11
4005.0
 21
-7220.0
 72
1
 10
4005.0
 20
-7220.0
 11
4005.0
 21
-6690.0
 72
1
 10
4005.0
 20
-6690.0
 11
4105.0
 21
-6690.0
 72
1
 10
4105.0
 20
-6690.0
 11
4105.0
 21
-7420.0
 72
1
 10
4105.0
 20
-7420.0
 11
4030.0
 21
-7420.0
 72
1
 10
4030.0
 20
-7420.0
 11
4030.0
 21
-7570.0
 72
1
 10
4030.0
 20
-7570.0
 11
5795.0
 21
-7570.0
 72
1
 10
5795.0
 20
-7570.0
 11
5795.0
 21
-6490.0
 72
1
 10
5795.0
 20
-6490.0
 11
5705.0
 21
-6490.0
 72
1
 10
5705.0
 20
-6490.0
 11
5705.0
 21
-6085.0
 72
1
 10
5705.0
 20
-6085.0
 11
5795.0
 21
-6085.0
 72
1
 10
5795.0
 20
-6085.0
 11
5795.0
 21
-5180.0
 72
1
 10
5795.0
 20
-5180.0
 11
4105.0
 21
-5180.0
 72
1
 10
4105.0
 20
-5180.0
 11
4105.0
 21
-5940.0
 72
1
 10
4105.0
 20
-5940.0
 11
4005.0
 21
-5940.0
 72
1
 10
4005.0
 20
-5940.0
 11
4005.0
 21
-3580.0
 72
1
 10
4005.0
 20
-3580.0
 11
4105.0
 21
-3580.0
 72
1
 10
4105.0
 20
-3580.0
 11
4105.0
 21
-4180.0
 72
1
 10
4105.0
 20
-4180.0
 11
5050.0
 21
-4180.0
 72
1
 10
5050.0
 20
-4180.0
 11
5050.0
 21
-4280.0
 72
1
 10
5050.0
 20
-4280.0
 11
5795.0
 21
-4280.0
 72
1
 10
5795.0
 20
-4280.0
 11
5795.0
 21
-200.0
 72
1
 10
5795.0
 20
-200.0
 11
5695.0
 21
-200.0
 72
1
 10
5695.0
 20
-200.0
 11
5695.0
 21
0.0
 72
1
 10
5695.0
 20
0.0
 11
5315.0
 21
0.0
 72
1
 10
5315.0
 20
0.0
 11
5315.0
 21
300.0
 72
1
 10
5315.0
 20
300.0
 11
6095.0
 21
300.0
 72
1
 10
6095.0
 20
300.0
 11
6150.0
 21
190.0
 72
1
 10
6150.0
 20
190.0
 11
6080.0
 21
110.0
 72
1
 10
6080.0
 20
110.0
 11
6095.0
 21
0.0
 72
1
 10
6095.0
 20
0.0
 11
5995.0
 21
0.0
 72
1
 10
5995.0
 20
0.0
 11
5995.0
 21
-7570.0
 72
1
 10
5995.0
 20
-7570.0
 11
6095.0
 21
-7570.0
 72
1
 10
6095.0
 20
-7570.0
 11
6140.0
 21
-7650.0
 72
1
 10
6140.0
 20
-7650.0
 11
6080.0
 21
-7710.0
 72
1
 10
6080.0
 20
-7710.0
 11
6095.0
 21
-7770.0
 97
0
 75
0
 76
1
 52
0.0
 41
15.0
 77
0
 78
0
 98
0
  0
LINE
  5
FE
330
1F
100
AcDbEntity
  8
construction
  6
ByLayer
 62
256
370
-1
100
AcDbLine
 10
-500.0
 20
0.0
 11
500.0
 21
0.0
  0
LINE
  5
FF
330
1F
100
AcDbEntity
  8
construction
  6
ByLayer
 62
256
370
-1
100
AcDbLine
 10
-3.061616997868383e-14
 20
-500.0
 11
3.061616997868383e-14
 21
500.0
  0
LINE
  5
100
330
1F
100
AcDbEntity
  8
construction
  6
ByLayer
 62
256
370
-1
100
AcDbLine
 10
2505.0
 20
-500.0000000000006
 11
2505.0
 21
499.9999999999994
  0
LINE
  5
101
330
1F
100
AcDbEntity
  8
construction
  6
ByLayer
 62
256
370
-1
100
AcDbLine
 10
2900.0
 20
-500.0000000000007
 11
2900.0
 21
499.9999999999993
  0
LINE
  5
102
330
1F
100
AcDbEntity
  8
construction
  6
ByLayer
 62
256
370
-1
100
AcDbLine
 10
5695.0
 20
-500.0000000000014
 11
5695.0
 21
499.9999999999986
  0
LINE
  5
103
330
1F
100
AcDbEntity
  8
construction
  6
ByLayer
 62
256
370
-1
100
AcDbLine
 10
5795.0
 20
-500.0000000000014
 11
5795.0
 21
499.9999999999986
  0
LINE
  5
104
330
1F
100
AcDbEntity
  8
construction
  6
ByLayer
 62
256
370
-1
100
AcDbLine
 10
1365.0
 20
-500.0000000000003
 11
1365.0
 21
499.9999999999997
  0
LINE
  5
105
330
1F
100
AcDbEntity
  8
construction
  6
ByLayer
 62
256
370
-1
100
AcDbLine
 10
-500.000000000001
 20
-5400.0
 11
499.999999999999
 21
-5400.0
  0
LINE
  5
106
330
1F
100
AcDbEntity
  8
construction
  6
ByLayer
 62
256
370
-1
100
AcDbLine
 10
-500.000000000001
 20
-5500.0
 11
499.999999999999
 21
-5500.0
  0
LINE
  5
107
330
1F
100
AcDbEntity
  8
construction
  6
ByLayer
 62
256
370
-1
100
AcDbLine
 10
1.163414459189985e-13
 20
-3500.0
 11
1365.0
 21
-3500.0
  0
LINE
  5
108
330
1F
100
AcDbEntity
  8
construction
  6
ByLayer
 62
256
370
-1
100
AcDbLine
 10
1.224646799147353e-13
 20
-3400.0
 11
1365.0
 21
-3400.0
  0
LINE
  5
109
330
1F
100
AcDbEntity
  8
construction
  6
ByLayer
 62
256
370
-1
100
AcDbLine
 10
-500.0000000000014
 20
-7570.0
 11
499.9999999999986
 21
-7570.0
  0
LINE
  5
10A
330
1F
100
AcDbEntity
  8
wall-hatch
  6
ByLayer
 62
256
370
-1
100
AcDbLine
 10
900.0
 20
-5500.0
 11
1265.0
 21
-6130.0
  0
LINE
  5
10B
330
1F
100
AcDbEntity
  8
wall-hatch
  6
ByLayer
 62
256
370
-1
100
AcDbLine
 10
900.0
 20
-6130.0
 11
1265.0
 21
-5500.0
  0
LINE
  5
10C
330
1F
100
AcDbEntity
  8
wall-hatch
  6
ByLayer
 62
256
370
-1
100
AcDbLine
 10
3085.0
 20
-7420.0
 11
3830.0
 21
-7570.0
  0
LINE
  5
10D
330
1F
100
AcDbEntity
  8
wall-hatch
  6
ByLayer
 62
256
370
-1
100
AcDbLine
 10
3085.0
 20
-7570.0
 11
3830.0
 21
-7420.0
  0
LINE
  5
10E
330
1F
100
AcDbEntity
  8
wall-hatch
  6
ByLayer
 62
256
370
-1
100
AcDbLine
 10
4105.0
 20
-4380.0
 11
5795.0
 21
-5080.0
  0
LINE
  5
10F
330
1F
100
AcDbEntity
  8
wall-hatch
  6
ByLayer
 62
256
370
-1
100
AcDbLine
 10
4105.0
 20
-5080.0
 11
5795.0
 21
-4380.0
  0
LINE
  5
110
330
1F
100
AcDbEntity
  8
construction
  6
ByLayer
 62
256
370
-1
100
AcDbLine
 10
389.9999999999999
 20
-500.0000000000001
 11
390.0000000000001
 21
499.9999999999999
  0
LINE
  5
111
330
1F
100
AcDbEntity
  8
construction
  6
ByLayer
 62
256
370
-1
100
AcDbLine
 10
2060.0
 20
-500.0000000000005
 11
2060.0
 21
499.9999999999995
  0
LINE
  5
112
330
1F
100
AcDbEntity
  8
construction
  6
ByLayer
 62
256
370
-1
100
AcDbLine
 10
1200.0
 20
-500.0000000000003
 11
1200.0
 21
499.9999999999997
  0
LINE
  5
113
330
1F
100
AcDbEntity
  8
construction
  6
ByLayer
 62
256
370
-1
100
AcDbLine
 10
5315.0
 20
-500.0000000000014
 11
5315.0
 21
499.9999999999986
  0
LINE
  5
114
330
1F
100
AcDbEntity
  8
construction
  6
ByLayer
 62
256
370
-1
100
AcDbLine
 10
3640.0
 20
-500.0000000000011
 11
3640.0
 21
499.9999999999989
  0
LINE
  5
115
330
1F
100
AcDbEntity
  8
construction
  6
ByLayer
 62
256
370
-1
100
AcDbLine
 10
4477.5
 20
-200.0
 11
4477.5
 21
800.0
  0
LINE
  5
116
330
1F
100
AcDbEntity
  8
construction
  6
ByLayer
 62
256
370
-1
100
AcDbLine
 10
3640.0
 20
70.0
 11
5315.0
 21
70.0
  0
LWPOLYLINE
  5
117
330
1F
100
AcDbEntity
  8
wall
  6
ByLayer
 62
256
370
-1
100
AcDbPolyline
 90
5
 70
0
 43
0.0
 10
5795.0
 20
-5080.0
 10
4105.0
 20
-5080.0
 10
4105.0
 20
-4380.0
 10
5795.0
 20
-4380.0
 10
5795.0
 20
-5080.0
  0
LWPOLYLINE
  5
118
330
1F
100
AcDbEntity
  8
wall
  6
ByLayer
 62
256
370
-1
100
AcDbPolyline
 90
9
 70
0
 43
0.0
 10
2900.0
 20
0.0
 10
3640.0
 20
0.0
 10
3640.0
 20
300.0
 10
2060.0
 20
300.0
 10
2060.0
 20
0.0
 10
2505.0
 20
0.0
 10
2505.0
 20
-200.0
 10
2900.0
 20
-200.0
 10
2900.0
 20
0.0
  0
LWPOLYLINE
  5
119
330
1F
100
AcDbEntity
  8
wall
  6
ByLayer
 62
256
370
-1
100
AcDbPolyline
 90
5
 70
0
 43
0.0
 10
3085.0
 20
-7420.0
 10
3830.0
 20
-7420.0
 10
3830.0
 20
-7570.0
 10
3085.0
 20
-7570.0
 10
3085.0
 20
-7420.0
  0
LWPOLYLINE
  5
11A
330
1F
100
AcDbEntity
  8
wall
  6
ByLayer
 62
256
370
-1
100
AcDbPolyline
 90
4
 70
1
 43
0.0
 10
1265.0
 20
-6130.0
 10
900.0
 20
-6130.0
 10
900.0
 20
-5500.0
 10
1265.0
 20
-5500.0
  0
LWPOLYLINE
  5
11B
330
1F
100
AcDbEntity
  8
wall
  6
ByLayer
 62
256
370
-1
100
AcDbPolyline
 90
28
 70
1
 43
0.0
 10
390.0000000000001
 20
300.0
 10
-300.0
 20
300.0
 10
-270.0
 20
220.0
 10
-330.0
 20
110.0
 10
-300.0
 20
1.469576158976824e-13
 10
-200.0
 20
1.469576158976824e-13
 10
-200.0
 20
-7570.0
 10
-300.0
 20
-7570.0
 10
-290.0
 20
-7610.0
 10
-330.0
 20
-7690.0
 10
-300.0
 20
-7770.0
 10
1825.0
 20
-7770.0
 10
1825.0
 20
-7570.0
 10
1365.0
 20
-7570.0
 10
1365.0
 20
-7040.0
 10
1265.0
 20
-7040.0
 10
1265.0
 20
-7570.0
 10
-4.641411368768469e-13
 20
-7570.0
 10
-3.373901931650958e-13
 20
-5500.0
 10
800.0
 20
-5500.0
 10
800.0
 20
-6230.0
 10
1265.0
 20
-6230.0
 10
1265.0
 20
-6290.0
 10
1365.0
 20
-6290.0
 10
1365.0
 20
-5400.0
 10
0.0
 20
-5400.0
 10
0.0
 20
0.0
 10
390.0
 20
0.0
  0
LWPOLYLINE
  5
11C
330
1F
100
AcDbEntity
  8
wall
  6
ByLayer
 62
256
370
-1
100
AcDbPolyline
 90
4
 70
1
 43
0.0
 10
1200.0
 20
300.0
 10
1200.0
 20
0.0
 10
390.0
 20
0.0
 10
390.0000000000001
 20
300.0
  0
LWPOLYLINE
  5
11D
330
1F
100
AcDbEntity
  8
wall
  6
ByLayer
 62
256
370
-1
100
AcDbPolyline
 90
4
 70
1
 43
0.0
 10
5315.0
 20
300.0
 10
3640.0
 20
300.0
 10
3640.0
 20
0.0
 10
5315.0
 20
0.0
  0
LWPOLYLINE
  5
11E
330
1F
100
AcDbEntity
  8
window
  6
ByLayer
 62
256
370
-1
100
AcDbPolyline
 90
4
 70
1
 43
0.0
 10
390.0
 20
70.0
 10
420.0
 20
70.0
 10
420.0
 20
140.0
 10
390.0
 20
140.0
  0
LWPOLYLINE
  5
11F
330
1F
100
AcDbEntity
  8
window
  6
ByLayer
 62
256
370
-1
100
AcDbPolyline
 90
4
 70
1
 43
0.0
 10
420.0
 20
70.0
 10
500.0
 20
70.0
 10
500.0
 20
140.0
 10
420.0
 20
140.0
  0
LWPOLYLINE
  5
120
330
1F
100
AcDbEntity
  8
window
  6
ByLayer
 62
256
370
-1
100
AcDbPolyline
 90
4
 70
1
 43
0.0
 10
1200.0
 20
70.0
 10
1120.0
 20
70.0
 10
1120.0
 20
140.0
 10
1200.0
 20
140.0
  0
LWPOLYLINE
  5
121
330
1F
100
AcDbEntity
  8
window
  6
ByLayer
 62
256
370
-1
100
AcDbPolyline
 90
4
 70
1
 43
0.0
 10
500.0
 20
140.0
 10
1120.0
 20
140.0
 10
1120.0
 20
70.0
 10
500.0
 20
70.0
  0
LWPOLYLINE
  5
122
330
1F
100
AcDbEntity
  8
window
  6
ByLayer
 62
256
370
-1
100
AcDbPolyline
 90
4
 70
1
 43
0.0
 10
1120.0
 20
100.0
 10
500.0
 20
100.0
 10
500.0
 20
110.0
 10
1120.0
 20
110.0
  0
LWPOLYLINE
  5
123
330
1F
100
AcDbEntity
  8
window
  6
ByLayer
 62
256
370
-1
100
AcDbPolyline
 90
4
 70
1
 43
0.0
 10
1200.0
 20
70.0
 10
1280.0
 20
70.0
 10
1280.0
 20
140.0
 10
1200.0
 20
140.0
  0
LWPOLYLINE
  5
124
330
1F
100
AcDbEntity
  8
window
  6
ByLayer
 62
256
370
-1
100
AcDbPolyline
 90
4
 70
1
 43
0.0
 10
2060.0
 20
70.0
 10
2030.0
 20
70.0
 10
2030.0
 20
140.0
 10
2060.0
 20
140.0
  0
LWPOLYLINE
  5
125
330
1F
100
AcDbEntity
  8
window
  6
ByLayer
 62
256
370
-1
100
AcDbPolyline
 90
4
 70
1
 43
0.0
 10
2030.0
 20
70.0
 10
1950.0
 20
70.0
 10
1950.0
 20
140.0
 10
2030.0
 20
140.0
  0
LWPOLYLINE
  5
126
330
1F
100
AcDbEntity
  8
window
  6
ByLayer
 62
256
370
-1
100
AcDbPolyline
 90
4
 70
1
 43
0.0
 10
1280.0
 20
140.0
 10
1950.0
 20
140.0
 10
1950.0
 20
70.0
 10
1280.0
 20
70.0
  0
LWPOLYLINE
  5
127
330
1F
100
AcDbEntity
  8
window
  6
ByLayer
 62
256
370
-1
100
AcDbPolyline
 90
4
 70
1
 43
0.0
 10
1950.0
 20
100.0
 10
1280.0
 20
100.0
 10
1280.0
 20
110.0
 10
1950.0
 20
110.0
  0
LINE
  5
128
330
1F
100
AcDbEntity
  8
window
  6
ByLayer
 62
256
370
-1
100
AcDbLine
 10
2030.0
 20
70.0
 11
2030.0
 21
-760.0
  0
ARC
  5
129
330
1F
100
AcDbEntity
  8
window
  6
ByLayer
 62
256
370
-1
100
AcDbCircle
 10
2030.0
 20
70.0
 40
830.0
100
AcDbArc
 50
180.0
 51
270.0
  0
LWPOLYLINE
  5
12A
330
1F
100
AcDbEntity
  8
window
  6
ByLayer
 62
256
370
-1
100
AcDbPolyline
 90
4
 70
1
 43
0.0
 10
3640.0
 20
70.0
 10
3670.0
 20
70.0
 10
3670.0
 20
140.0
 10
3640.0
 20
140.0
  0
LWPOLYLINE
  5
12B
330
1F
100
AcDbEntity
  8
window
  6
ByLayer
 62
256
370
-1
100
AcDbPolyline
 90
4
 70
1
 43
0.0
 10
5315.0
 20
70.0
 10
5285.0
 20
70.0
 10
5285.0
 20
140.0
 10
5315.0
 20
140.0
  0
LWPOLYLINE
  5
12C
330
1F
100
AcDbEntity
  8
window
  6
ByLayer
 62
256
370
-1
100
AcDbPolyline
 90
4
 70
1
 43
0.0
 10
3670.0
 20
70.0
 10
3750.0
 20
70.0
 10
3750.0
 20
140.0
 10
3670.0
 20
140.0
  0
LWPOLYLINE
  5
12D
330
1F
100
AcDbEntity
  8
window
  6
ByLayer
 62
256
370
-1
100
AcDbPolyline
 90
4
 70
1
 43
0.0
 10
5285.0
 20
70.0
 10
5205.0
 20
70.0
 10
5205.0
 20
140.0
 10
5285.0
 20
140.0
  0
LWPOLYLINE
  5
12E
330
1F
100
AcDbEntity
  8
window
  6
ByLayer
 62
256
370
-1
100
AcDbPolyline
 90
4
 70
1
 43
0.0
 10
4477.5
 20
70.0
 10
4397.5
 20
70.0
 10
4397.5
 20
140.0
 10
4477.5
 20
140.0
  0
LWPOLYLINE
  5
12F
330
1F
100
AcDbEntity
  8
window
  6
ByLayer
 62
256
370
-1
100
AcDbPolyline
 90
4
 70
1
 43
0.0
 10
4477.5
 20
70.0
 10
4557.5
 20
70.0
 10
4557.5
 20
140.0
 10
4477.5
 20
140.0
  0
LWPOLYLINE
  5
130
330
1F
100
AcDbEntity
  8
window
  6
ByLayer
 62
256
370
-1
100
AcDbPolyline
 90
4
 70
1
 43
0.0
 10
4557.5
 20
140.0
 10
5205.0
 20
140.0
 10
5205.0
 20
70.0
 10
4557.5
 20
70.0
  0
LWPOLYLINE
  5
131
330
1F
100
AcDbEntity
  8
window
  6
ByLayer
 62
256
370
-1
100
AcDbPolyline
 90
4
 70
1
 43
0.0
 10
3750.0
 20
140.0
 10
4397.5
 20
140.0
 10
4397.5
 20
70.0
 10
3750.0
 20
70.0
  0
LWPOLYLINE
  5
132
330
1F
100
AcDbEntity
  8
window
  6
ByLayer
 62
256
370
-1
100
AcDbPolyline
 90
4
 70
1
 43
0.0
 10
5205.0
 20
100.0
 10
4557.0
 20
100.0
 10
4557.0
 20
110.0
 10
5205.0
 20
110.0
  0
LWPOLYLINE
  5
133
330
1F
100
AcDbEntity
  8
window
  6
ByLayer
 62
256
370
-1
100
AcDbPolyline
 90
4
 70
1
 43
0.0
 10
4397.5
 20
100.0
 10
3749.5
 20
100.0
 10
3749.5
 20
110.0
 10
4397.5
 20
110.0
  0
LINE
  5
134
330
1F
100
AcDbEntity
  8
construction
  6
ByLayer
 62
256
370
-1
100
AcDbLine
 10
1825.0
 20
-7720.0
 11
1365.0
 21
-7720.0
  0
LWPOLYLINE
  5
135
330
1F
100
AcDbEntity
  8
door
  6
ByLayer
 62
256
370
-1
100
AcDbPolyline
 90
4
 70
1
 43
0.0
 10
2850.0
 20
-7720.0
 10
2820.0
 20
-7720.0
 10
2820.0
 20
-7770.0
 10
2850.0
 20
-7770.0
  0
LWPOLYLINE
  5
136
330
1F
100
AcDbEntity
  8
door
  6
ByLayer
 62
256
370
-1
100
AcDbPolyline
 90
8
 70
1
 43
0.0
 10
2820.0
 20
-7720.0
 10
2780.0
 20
-7720.0
 10
2780.0
 20
-7740.0
 10
2800.0
 20
-7740.0
 10
2800.0
 20
-7790.0
 10
2880.0
 20
-7790.0
 10
2880.0
 20
-7770.0
 10
2820.0
 20
-7770.0
  0
LWPOLYLINE
  5
137
330
1F
100
AcDbEntity
  8
door
  6
ByLayer
 62
256
370
-1
100
AcDbPolyline
 90
4
 70
1
 43
0.0
 10
1880.0
 20
-7740.0
 10
2800.0
 20
-7740.0
 10
2800.0
 20
-7790.0
 10
1880.0
 20
-7790.0
  0
LINE
  5
138
330
1F
100
AcDbEntity
  8
door
  6
ByLayer
 62
256
370
-1
100
AcDbLine
 10
2800.0
 20
-7790.0
 11
2800.0
 21
-8710.0
  0
ARC
  5
139
330
1F
100
AcDbEntity
  8
door
  6
ByLayer
 62
256
370
-1
100
AcDbCircle
 10
2800.0
 20
-7790.0
 40
920.0
100
AcDbArc
 50
180.0
 51
270.0
  0
MTEXT
  5
13A
330
1F
100
AcDbEntity
  8
room-num
  6
ByLayer
 62
256
370
-1
100
AcDbMText
 10
2574.285714285714
 20
-5707.142857142857
 30
0.0
 40
90.0
 41
160.0
 71
5
 72
1
  1
801
  7
unicode
210
0.0
220
0.0
230
1.0
 50
0.0
 73
2
 44
1.0
  0
MTEXT
  5
13B
330
1F
100
AcDbEntity
  8
room-num
  6
ByLayer
 62
256
370
-1
100
AcDbMText
 10
1894.285714285714
 20
-2525.714285714286
 30
0.0
 40
90.0
 41
180.0
 71
5
 72
1
  1
802
  7
unicode
210
0.0
220
0.0
230
1.0
 50
0.0
 73
2
 44
1.0
  0
MTEXT
  5
13C
330
1F
100
AcDbEntity
  8
room-num
  6
ByLayer
 62
256
370
-1
100
AcDbMText
 10
4845.0
 20
-1967.142857142857
 30
0.0
 40
90.0
 41
180.0
 71
5
 72
1
  1
803
  7
unicode
210
0.0
220
0.0
230
1.0
 50
0.0
 73
2
 44
1.0
  0
MTEXT
  5
13D
330
1F
100
AcDbEntity
  8
room-num
  6
ByLayer
 62
256
370
-1
100
AcDbMText
 10
607.1428571428571
 20
-6642.142857142857
 30
0.0
 40
90.0
 41
190.0
 71
5
 72
1
  1
804
  7
unicode
210
0.0
220
0.0
230
1.0
 50
0.0
 73
2
 44
1.0
  0
MTEXT
  5
13E
330
1F
100
AcDbEntity
  8
room-num
  6
ByLayer
 62
256
370
-1
100
AcDbMText
 10
4917.857142857143
 20
-6350.714285714286
 30
0.0
 40
90.0
 41
180.0
 71
5
 72
1
  1
805
  7
unicode
210
0.0
220
0.0
230
1.0
 50
0.0
 73
2
 44
1.0
  0
CIRCLE
  5
13F
330
1F
100
AcDbEntity
  8
room-num
  6
ByLayer
 62
256
370
-1
100
AcDbCircle
 10
2582.706752508117
 20
-5705.218056206482
 40
150.0
  0
CIRCLE
  5
140
330
1F
100
AcDbEntity
  8
room-num
  6
ByLayer
 62
256
370
-1
100
AcDbCircle
 10
603.3730962620668
 20
-6643.019481395108
 40
150.0
  0
CIRCLE
  5
141
330
1F
100
AcDbEntity
  8
room-num
  6
ByLayer
 62
256
370
-1
100
AcDbCircle
 10
1893.767629290986
 20
-2523.289286280572
 40
150.0
  0
CIRCLE
  5
142
330
1F
100
AcDbEntity
  8
room-num
  6
ByLayer
 62
256
370
-1
100
AcDbCircle
 10
4843.459836480495
 20
-1965.296173612067
 40
150.0
  0
CIRCLE
  5
143
330
1F
100
AcDbEntity
  8
room-num
  6
ByLayer
 62
256
370
-1
100
AcDbCircle
 10
4918.960155140808
 20
-6346.602544353768
 40
150.0
  0
LINE
  5
144
330
1F
100
AcDbEntity
  8
construction
  6
ByLayer
 62
256
370
-1
100
AcDbLine
 10
5615.0
 20
-200.0
 11
5615.0
 21
9.797174393178826e-15
  0
LINE
  5
145
330
1F
100
AcDbEntity
  8
construction
  6
ByLayer
 62
256
370
-1
100
AcDbLine
 10
5745.0
 20
-4280.0
 11
5745.0
 21
-200.0
  0
LWPOLYLINE
  5
146
330
1F
100
AcDbEntity
  8
wall
  6
ByLayer
 62
256
370
-1
100
AcDbPolyline
 90
4
 70
1
 43
0.0
 10
5795.0
 20
-3650.0
 10
5775.0
 20
-3650.0
 10
5775.0
 20
-4250.0
 10
5795.0
 20
-4250.0
  0
LWPOLYLINE
  5
147
330
1F
100
AcDbEntity
  8
wall
  6
ByLayer
 62
256
370
-1
100
AcDbPolyline
 90
40
 70
1
 43
0.0
 10
6095.0
 20
-7770.0
 10
2850.0
 20
-7770.0
 10
2850.0
 20
-7570.0
 10
2885.0
 20
-7570.0
 10
2885.0
 20
-7220.0
 10
4005.0
 20
-7220.0
 10
4005.0
 20
-6690.0
 10
4105.0
 20
-6690.0
 10
4105.0
 20
-7420.0
 10
4030.0
 20
-7420.0
 10
4030.0
 20
-7570.0
 10
5795.0
 20
-7570.0
 10
5795.0
 20
-6490.0
 10
5705.0
 20
-6490.0
 10
5705.0
 20
-6085.0
 10
5795.0
 20
-6085.0
 10
5795.0
 20
-5180.0
 10
4105.0
 20
-5180.0
 10
4105.0
 20
-5940.0
 10
4005.0
 20
-5940.0
 10
4005.0
 20
-3580.0
 10
4105.0
 20
-3580.0
 10
4105.0
 20
-4180.0
 10
5050.0
 20
-4180.0
 10
5050.0
 20
-4280.0
 10
5795.0
 20
-4280.0
 10
5795.0
 20
-200.0
 10
5695.0
 20
-200.0
 10
5695.0
 20
0.0
 10
5315.0
 20
0.0
 10
5315.0
 20
300.0
 10
6095.0
 20
300.0
 10
6150.0
 20
190.0
 10
6080.0
 20
110.0
 10
6095.0
 20
0.0
 10
5995.0
 20
0.0
 10
5995.0
 20
-7570.0
 10
6095.0
 20
-7570.0
 10
6140.0
 20
-7650.0
 10
6080.0
 20
-7710.0
  0
LWPOLYLINE
  5
148
330
1F
100
AcDbEntity
  8
plasterboard
  6
ByLayer
 62
256
370
-1
100
AcDbPolyline
 90
11
 70
1
 43
0.0
 10
20.00000000000001
 20
-5380.0
 10
1385.0
 20
-5380.0
 10
1385.0
 20
-6290.0
 10
1365.0
 20
-6290.0
 10
1365.0
 20
-5400.0
 10
0.0
 20
-5400.0
 10
0.0
 20
0.0
 10
1200.0
 20
0.0
 10
1200.0
 20
-20.0
 10
390.0
 20
-20.0
 10
20.0
 20
-20.0
  0
LWPOLYLINE
  5
149
330
1F
100
AcDbEntity
  8
plasterboard
  6
ByLayer
 62
256
370
-1
100
AcDbPolyline
 90
16
 70
1
 43
0.0
 10
1245.0
 20
-7550.0
 10
19.99999999999954
 20
-7550.0
 10
20.0
 20
-5520.0
 10
780.0
 20
-5520.0
 10
780.0
 20
-6250.0
 10
1245.0
 20
-6250.0
 10
1245.0
 20
-6290.0
 10
1265.0
 20
-6290.0
 10
1265.0
 20
-6230.0
 10
800.0
 20
-6230.0
 10
800.0
 20
-5500.0
 10
-3.373901931650958e-13
 20
-5500.0
 10
-4.641411368768469e-13
 20
-7570.0
 10
1265.0
 20
-7570.0
 10
1265.0
 20
-7040.0
 10
1245.0
 20
-7040.0
  0
LWPOLYLINE
  5
14A
330
1F
100
AcDbEntity
  8
plasterboard
  6
ByLayer
 62
256
370
-1
100
AcDbPolyline
 90
8
 70
1
 43
0.0
 10
1845.0
 20
-7550.0
 10
1385.0
 20
-7550.0
 10
1385.0
 20
-7040.0
 10
1365.0
 20
-7040.0
 10
1365.0
 20
-7570.0
 10
1825.0
 20
-7570.0
 10
1825.0
 20
-7720.0
 10
1845.0
 20
-7720.0
  0
LWPOLYLINE
  5
14B
330
1F
100
AcDbEntity
  8
plasterboard
  6
ByLayer
 62
256
370
-1
100
AcDbPolyline
 90
12
 70
1
 43
0.0
 10
2865.0
 20
-7200.0
 10
3985.0
 20
-7200.0
 10
3985.0
 20
-6690.0
 10
4005.0
 20
-6690.0
 10
4005.0
 20
-7220.0
 10
2885.0
 20
-7220.0
 10
2885.0
 20
-7570.0
 10
2850.0
 20
-7570.0
 10
2850.0
 20
-7720.0
 10
2830.0
 20
-7720.0
 10
2830.0
 20
-7550.0
 10
2865.0
 20
-7550.0
  0
LWPOLYLINE
  5
14C
330
1F
100
AcDbEntity
  8
plasterboard
  6
ByBlock
 62
256
370
-1
100
AcDbPolyline
 90
16
 70
1
 43
0.0
 10
3985.0
 20
-3560.0
 10
4125.0
 20
-3560.0
 10
4125.0
 20
-4160.0
 10
5070.0
 20
-4160.0
 10
5070.0
 20
-4260.0
 10
5775.0
 20
-4260.0
 10
5775.0
 20
-4250.0
 10
5795.0
 20
-4250.0
 10
5795.0
 20
-4280.0
 10
5050.0
 20
-4280.0
 10
5050.0
 20
-4180.0
 10
4105.0
 20
-4180.0
 10
4105.0
 20
-3580.0
 10
4005.0
 20
-3580.0
 10
4005.0
 20
-5940.0
 10
3985.0
 20
-5940.0
  0
LWPOLYLINE
  5
14D
330
1F
100
AcDbEntity
  8
plasterboard
  6
ByBlock
 62
256
370
-1
100
AcDbPolyline
 90
20
 70
1
 43
0.0
 10
5675.0
 20
-220.0
 10
5775.0
 20
-220.0
 10
5775.0
 20
-3530.0
 10
5795.0
 20
-3530.0
 10
5795.0
 20
-200.0
 10
5695.0
 20
-200.0
 10
5695.0
 20
0.0
 10
2900.0
 20
0.0
 10
2900.0
 20
-200.0
 10
2505.0
 20
-200.0
 10
2505.0
 20
0.0
 10
2060.0
 20
0.0
 10
2060.0
 20
-20.0
 10
2485.0
 20
-20.0
 10
2485.0
 20
-220.0
 10
2920.0
 20
-220.0
 10
2920.0
 20
-20.0
 10
3640.0
 20
-20.0
 10
5315.0
 20
-20.0
 10
5675.0
 20
-20.0
  0
LWPOLYLINE
  5
14E
330
1F
100
AcDbEntity
  8
door
  6
ByLayer
 62
256
370
-1
100
AcDbPolyline
 90
10
 70
1
 43
0.0
 10
1245.0
 20
-7040.0
 10
1245.0
 20
-7100.0
 10
1235.0
 20
-7100.0
 10
1235.0
 20
-7005.0
 10
1325.0
 20
-7005.0
 10
1325.0
 20
-7015.0
 10
1395.0
 20
-7015.0
 10
1395.0
 20
-7100.0
 10
1385.0
 20
-7100.0
 10
1385.0
 20
-7040.0
  0
LWPOLYLINE
  5
14F
330
1F
100
AcDbEntity
  8
door
  6
ByLayer
 62
256
370
-1
100
AcDbPolyline
 90
4
 70
1
 43
0.0
 10
1365.0
 20
-6355.0
 10
1365.0
 20
-6315.0
 10
2065.0
 20
-6315.0
 10
2065.0
 20
-6355.0
  0
ARC
  5
150
330
1F
100
AcDbEntity
  8
door
  6
ByLayer
 62
256
370
-1
100
AcDbCircle
 10
1365.0
 20
-6315.0
 40
700.0
100
AcDbArc
 50
270.0
 51
356.7295120768164
  0
LWPOLYLINE
  5
151
330
1F
100
AcDbEntity
  8
door
  6
ByLayer
 62
256
370
-1
100
AcDbPolyline
 90
4
 70
1
 43
0.0
 10
1825.0
 20
-7720.0
 10
1860.0
 20
-7720.0
 10
1860.0
 20
-7770.0
 10
1825.0
 20
-7770.0
  0
LWPOLYLINE
  5
152
330
1F
100
AcDbEntity
  8
door
  6
ByLayer
 62
256
370
-1
100
AcDbPolyline
 90
8
 70
1
 43
0.0
 10
1860.0
 20
-7720.0
 10
1900.0
 20
-7720.0
 10
1900.0
 20
-7740.0
 10
1880.0
 20
-7740.0
 10
1880.0
 20
-7790.0
 10
1800.0
 20
-7790.0
 10
1800.0
 20
-7770.0
 10
1860.0
 20
-7770.0
  0
LWPOLYLINE
  5
153
330
1F
100
AcDbEntity
  8
door
  6
ByLayer
 62
256
370
-1
100
AcDbPolyline
 90
10
 70
1
 43
0.0
 10
1385.0
 20
-6290.0
 10
1245.0
 20
-6290.0
 10
1245.0
 20
-6250.0
 10
1235.0
 20
-6250.0
 10
1235.0
 20
-6325.0
 10
1325.0
 20
-6325.0
 10
1325.0
 20
-6315.0
 10
1395.0
 20
-6315.0
 10
1395.0
 20
-6230.0
 10
1385.0
 20
-6230.0
  0
LWPOLYLINE
  5
154
330
1F
100
AcDbEntity
  8
door
  6
ByLayer
 62
256
370
-1
100
AcDbPolyline
 90
4
 70
1
 43
0.0
 10
4085.0
 20
-6625.0
 10
4085.0
 20
-6665.0
 10
4785.0
 20
-6665.0
 10
4785.0
 20
-6625.0
  0
ARC
  5
155
330
1F
100
AcDbEntity
  8
door
  6
ByLayer
 62
256
370
-1
100
AcDbCircle
 10
4085.0
 20
-6665.0
 40
700.0
100
AcDbArc
 50
3.270487923183595
 51
90.0
  0
LWPOLYLINE
  5
156
330
1F
100
AcDbEntity
  8
door
  6
ByLayer
 62
256
370
-1
100
AcDbPolyline
 90
10
 70
1
 43
0.0
 10
3985.0
 20
-5940.0
 10
3985.0
 20
-5880.0
 10
3975.0
 20
-5880.0
 10
3975.0
 20
-5975.0
 10
4045.0
 20
-5975.0
 10
4045.0
 20
-5965.0
 10
4115.0
 20
-5965.0
 10
4115.0
 20
-5880.0
 10
4105.0
 20
-5880.0
 10
4105.0
 20
-5940.0
  0
LWPOLYLINE
  5
157
330
1F
100
AcDbEntity
  8
door
  6
ByLayer
 62
256
370
-1
100
AcDbPolyline
 90
10
 70
1
 43
0.0
 10
4105.0
 20
-6690.0
 10
3985.0
 20
-6690.0
 10
3985.0
 20
-6750.0
 10
3975.0
 20
-6750.0
 10
3975.0
 20
-6655.0
 10
4045.0
 20
-6655.0
 10
4045.0
 20
-6665.0
 10
4115.0
 20
-6665.0
 10
4115.0
 20
-6750.0
 10
4105.0
 20
-6750.0
  0
LWPOLYLINE
  5
158
330
1F
100
AcDbEntity
  8
plasterboard
  6
ByLayer
 62
256
370
-1
100
AcDbPolyline
 90
4
 70
1
 43
0.0
 10
5705.0
 20
-6085.0
 10
5725.0
 20
-6085.0
 10
5725.0
 20
-5180.0
 10
5705.0
 20
-5180.0
  0
LWPOLYLINE
  5
159
330
1F
100
AcDbEntity
  8
plasterboard
  6
ByLayer
 62
256
370
-1
100
AcDbPolyline
 90
4
 70
1
 43
0.0
 10
5775.0
 20
-3530.0
 10
5795.0
 20
-3530.0
 10
5795.0
 20
-3650.0
 10
5775.0
 20
-3650.0
  0
LWPOLYLINE
  5
15A
330
1F
100
AcDbEntity
  8
plasterboard
  6
ByLayer
 62
256
370
-1
100
AcDbPolyline
 90
4
 70
1
 43
0.0
 10
4105.0
 20
-7420.0
 10
4085.0
 20
-7420.0
 10
4085.0
 20
-7570.0
 10
4105.0
 20
-7570.0
  0
LWPOLYLINE
  5
15B
330
1F
100
AcDbEntity
  8
wall
  6
ByLayer
 62
256
370
-1
100
AcDbPolyline
 90
4
 70
1
 43
0.0
 10
5705.0
 20
-5180.0
 10
4540.0
 20
-5180.0
 10
4540.0
 20
-5300.0
 10
5705.0
 20
-5300.0
  0
LINE
  5
15C
330
1F
100
AcDbEntity
  8
construction3
  6
ByLayer
 62
256
370
-1
100
AcDbLine
 10
4305.0
 20
-5180.0
 11
4305.0
 21
-5940.0
  0
LINE
  5
15D
330
1F
100
AcDbEntity
  8
construction3
  6
ByLayer
 62
256
370
-1
100
AcDbLine
 10
4505.0
 20
-5180.0
 11
4505.0
 21
-5940.0
  0
LINE
  5
15E
330
1F
100
AcDbEntity
  8
construction3
  6
ByLayer
 62
256
370
-1
100
AcDbLine
 10
4705.0
 20
-5180.0
 11
4705.0
 21
-5940.0
  0
LINE
  5
15F
330
1F
100
AcDbEntity
  8
construction3
  6
ByLayer
 62
256
370
-1
100
AcDbLine
 10
4905.0
 20
-5180.0
 11
4905.0
 21
-5940.0
  0
LINE
  5
160
330
1F
100
AcDbEntity
  8
construction3
  6
ByLayer
 62
256
370
-1
100
AcDbLine
 10
5105.0
 20
-5180.0
 11
5105.0
 21
-5940.0
  0
LINE
  5
161
330
1F
100
AcDbEntity
  8
construction3
  6
ByLayer
 62
256
370
-1
100
AcDbLine
 10
5305.0
 20
-5180.0
 11
5305.0
 21
-5940.0
  0
LINE
  5
162
330
1F
100
AcDbEntity
  8
construction3
  6
ByLayer
 62
256
370
-1
100
AcDbLine
 10
5505.0
 20
-5180.0
 11
5505.0
 21
-5940.0
  0
LINE
  5
163
330
1F
100
AcDbEntity
  8
construction3
  6
ByLayer
 62
256
370
-1
100
AcDbLine
 10
5705.0
 20
-5180.0
 11
5705.0
 21
-5940.0
  0
LINE
  5
164
330
1F
100
AcDbEntity
  8
construction3
  6
ByLayer
 62
256
370
-1
100
AcDbLine
 10
5905.0
 20
-5180.0
 11
5905.0
 21
-5940.0
  0
LINE
  5
165
330
1F
100
AcDbEntity
  8
construction3
  6
ByLayer
 62
256
370
-1
100
AcDbLine
 10
4105.0
 20
-5180.0
 11
4105.0
 21
-5940.0
  0
LINE
  5
166
330
1F
100
AcDbEntity
  8
construction3
  6
ByLayer
 62
256
370
-1
100
AcDbLine
 10
3905.0
 20
-5180.0
 11
3905.0
 21
-5940.0
  0
LINE
  5
167
330
1F
100
AcDbEntity
  8
construction3
  6
ByLayer
 62
256
370
-1
100
AcDbLine
 10
5795.0
 20
-5380.0
 11
4105.0
 21
-5380.0
  0
LINE
  5
168
330
1F
100
AcDbEntity
  8
construction3
  6
ByLayer
 62
256
370
-1
100
AcDbLine
 10
5795.0
 20
-5580.0
 11
4105.0
 21
-5580.0
  0
LINE
  5
169
330
1F
100
AcDbEntity
  8
construction3
  6
ByLayer
 62
256
370
-1
100
AcDbLine
 10
5795.0
 20
-5780.0
 11
4105.0
 21
-5780.0
  0
LINE
  5
16A
330
1F
100
AcDbEntity
  8
construction3
  6
ByLayer
 62
256
370
-1
100
AcDbLine
 10
5795.0
 20
-5980.0
 11
4105.0
 21
-5980.0
  0
LINE
  5
16B
330
1F
100
AcDbEntity
  8
construction3
  6
ByLayer
 62
256
370
-1
100
AcDbLine
 10
5795.0
 20
-6180.0
 11
4105.0
 21
-6180.0
  0
LINE
  5
16C
330
1F
100
AcDbEntity
  8
construction3
  6
ByLayer
 62
256
370
-1
100
AcDbLine
 10
5795.0
 20
-6380.0
 11
4105.0
 21
-6380.0
  0
LINE
  5
16D
330
1F
100
AcDbEntity
  8
construction3
  6
ByLayer
 62
256
370
-1
100
AcDbLine
 10
5795.0
 20
-6580.0
 11
4105.0
 21
-6580.0
  0
LINE
  5
16E
330
1F
100
AcDbEntity
  8
construction3
  6
ByLayer
 62
256
370
-1
100
AcDbLine
 10
5795.0
 20
-6780.0
 11
4105.0
 21
-6780.0
  0
LINE
  5
16F
330
1F
100
AcDbEntity
  8
construction3
  6
ByLayer
 62
256
370
-1
100
AcDbLine
 10
5795.0
 20
-6980.0
 11
4105.0
 21
-6980.0
  0
LINE
  5
170
330
1F
100
AcDbEntity
  8
construction3
  6
ByLayer
 62
256
370
-1
100
AcDbLine
 10
5795.0
 20
-7180.0
 11
4105.0
 21
-7180.0
  0
LINE
  5
171
330
1F
100
AcDbEntity
  8
construction3
  6
ByLayer
 62
256
370
-1
100
AcDbLine
 10
5795.0
 20
-7380.0
 11
4105.0
 21
-7380.0
  0
LINE
  5
172
330
1F
100
AcDbEntity
  8
construction3
  6
ByLayer
 62
256
370
-1
100
AcDbLine
 10
5795.0
 20
-7580.0
 11
4105.0
 21
-7580.0
  0
LINE
  5
173
330
1F
100
AcDbEntity
  8
construction3
  6
ByLayer
 62
256
370
-1
100
AcDbLine
 10
5794.999999999999
 20
-7780.0
 11
4104.999999999999
 21
-7780.0
  0
LINE
  5
174
330
1F
100
AcDbEntity
  8
construction3
  6
ByLayer
 62
256
370
-1
100
AcDbLine
 10
5795.0
 20
-5180.0
 11
4105.0
 21
-5180.0
  0
LWPOLYLINE
  5
175
330
1F
100
AcDbEntity
  8
room-805-tile-contour
  6
ByLayer
 62
256
370
-1
100
AcDbPolyline
 90
4
 70
1
 43
0.0
 10
4105.0
 20
-5180.0
 10
4305.0
 20
-5180.0
 10
4305.0
 20
-5380.0
 10
4105.0
 20
-5380.0
  0
LWPOLYLINE
  5
176
330
1F
100
AcDbEntity
  8
room-805-tile-contour
  6
ByLayer
 62
256
370
-1
100
AcDbPolyline
 90
4
 70
1
 43
0.0
 10
4305.0
 20
-5180.0
 10
4505.0
 20
-5180.0
 10
4505.0
 20
-5380.0
 10
4305.0
 20
-5380.0
  0
LWPOLYLINE
  5
177
330
1F
100
AcDbEntity
  8
room-805-tile-contour
  6
ByLayer
 62
256
370
-1
100
AcDbPolyline
 90
4
 70
1
 43
0.0
 10
4540.0
 20
-5180.0
 10
4705.0
 20
-5180.0
 10
4705.0
 20
-5300.0
 10
4540.0
 20
-5300.0
  0
LWPOLYLINE
  5
178
330
1F
100
AcDbEntity
  8
room-805-tile-contour
  6
ByLayer
 62
256
370
-1
100
AcDbPolyline
 90
4
 70
1
 43
0.0
 10
4705.0
 20
-5180.0
 10
4905.0
 20
-5180.0
 10
4905.0
 20
-5300.0
 10
4705.0
 20
-5300.0
  0
LWPOLYLINE
  5
179
330
1F
100
AcDbEntity
  8
room-805-tile-contour
  6
ByLayer
 62
256
370
-1
100
AcDbPolyline
 90
4
 70
1
 43
0.0
 10
4905.0
 20
-5180.0
 10
5105.0
 20
-5180.0
 10
5105.0
 20
-5300.0
 10
4905.0
 20
-5300.0
  0
LWPOLYLINE
  5
17A
330
1F
100
AcDbEntity
  8
room-805-tile-contour
  6
ByLayer
 62
256
370
-1
100
AcDbPolyline
 90
4
 70
1
 43
0.0
 10
5105.0
 20
-5180.0
 10
5305.0
 20
-5180.0
 10
5305.0
 20
-5300.0
 10
5105.0
 20
-5300.0
  0
LWPOLYLINE
  5
17B
330
1F
100
AcDbEntity
  8
room-805-tile-contour
  6
ByLayer
 62
256
370
-1
100
AcDbPolyline
 90
4
 70
1
 43
0.0
 10
5305.0
 20
-5180.0
 10
5505.0
 20
-5180.0
 10
5505.0
 20
-5300.0
 10
5305.0
 20
-5300.0
  0
LWPOLYLINE
  5
17C
330
1F
100
AcDbEntity
  8
room-805-tile-contour
  6
ByLayer
 62
256
370
-1
100
AcDbPolyline
 90
4
 70
1
 43
0.0
 10
5505.0
 20
-5180.0
 10
5705.0
 20
-5180.0
 10
5705.0
 20
-5300.0
 10
5505.0
 20
-5300.0
  0
LWPOLYLINE
  5
17D
330
1F
100
AcDbEntity
  8
room-805-tile-contour
  6
ByLayer
 62
256
370
-1
100
AcDbPolyline
 90
6
 70
1
 43
0.0
 10
4505.0
 20
-5180.0
 10
4540.0
 20
-5180.0
 10
4540.0
 20
-5300.0
 10
4705.0
 20
-5300.0
 10
4705.0
 20
-5380.0
 10
4505.0
 20
-5380.0
  0
LWPOLYLINE
  5
17E
330
1F
100
AcDbEntity
  8
room-805-tile-contour
  6
ByLayer
 62
256
370
-1
100
AcDbPolyline
 90
4
 70
1
 43
0.0
 10
4705.0
 20
-5300.0
 10
4905.0
 20
-5300.0
 10
4905.0
 20
-5380.0
 10
4705.0
 20
-5380.0
  0
LWPOLYLINE
  5
17F
330
1F
100
AcDbEntity
  8
room-805-tile-contour
  6
ByLayer
 62
256
370
-1
100
AcDbPolyline
 90
4
 70
1
 43
0.0
 10
4905.0
 20
-5300.0
 10
5105.0
 20
-5300.0
 10
5105.0
 20
-5380.0
 10
4905.0
 20
-5380.0
  0
LWPOLYLINE
  5
180
330
1F
100
AcDbEntity
  8
room-805-tile-contour
  6
ByLayer
 62
256
370
-1
100
AcDbPolyline
 90
4
 70
1
 43
0.0
 10
5105.0
 20
-5300.0
 10
5305.0
 20
-5300.0
 10
5305.0
 20
-5380.0
 10
5105.0
 20
-5380.0
  0
LWPOLYLINE
  5
181
330
1F
100
AcDbEntity
  8
room-805-tile-contour
  6
ByLayer
 62
256
370
-1
100
AcDbPolyline
 90
4
 70
1
 43
0.0
 10
5305.0
 20
-5300.0
 10
5505.0
 20
-5300.0
 10
5505.0
 20
-5380.0
 10
5305.0
 20
-5380.0
  0
LWPOLYLINE
  5
182
330
1F
100
AcDbEntity
  8
room-805-tile-contour
  6
ByLayer
 62
256
370
-1
100
AcDbPolyline
 90
4
 70
1
 43
0.0
 10
5505.0
 20
-5300.0
 10
5705.0
 20
-5300.0
 10
5705.0
 20
-5380.0
 10
5505.0
 20
-5380.0
  0
LWPOLYLINE
  5
183
330
1F
100
AcDbEntity
  8
room-805-tile-contour
  6
ByLayer
 62
256
370
-1
100
AcDbPolyline
 90
4
 70
1
 43
0.0
 10
4105.0
 20
-5380.0
 10
4305.0
 20
-5380.0
 10
4305.0
 20
-5580.0
 10
4105.0
 20
-5580.0
  0
LWPOLYLINE
  5
184
330
1F
100
AcDbEntity
  8
room-805-tile-contour
  6
ByLayer
 62
256
370
-1
100
AcDbPolyline
 90
4
 70
1
 43
0.0
 10
4305.0
 20
-5380.0
 10
4505.0
 20
-5380.0
 10
4505.0
 20
-5580.0
 10
4305.0
 20
-5580.0
  0
LWPOLYLINE
  5
185
330
1F
100
AcDbEntity
  8
room-805-tile-contour
  6
ByLayer
 62
256
370
-1
100
AcDbPolyline
 90
4
 70
1
 43
0.0
 10
4505.0
 20
-5380.0
 10
4705.0
 20
-5380.0
 10
4705.0
 20
-5580.0
 10
4505.0
 20
-5580.0
  0
LWPOLYLINE
  5
186
330
1F
100
AcDbEntity
  8
room-805-tile-contour
  6
ByLayer
 62
256
370
-1
100
AcDbPolyline
 90
4
 70
1
 43
0.0
 10
4705.0
 20
-5380.0
 10
4905.0
 20
-5380.0
 10
4905.0
 20
-5580.0
 10
4705.0
 20
-5580.0
  0
LWPOLYLINE
  5
187
330
1F
100
AcDbEntity
  8
room-805-tile-contour
  6
ByLayer
 62
256
370
-1
100
AcDbPolyline
 90
4
 70
1
 43
0.0
 10
4905.0
 20
-5380.0
 10
5105.0
 20
-5380.0
 10
5105.0
 20
-5580.0
 10
4905.0
 20
-5580.0
  0
LWPOLYLINE
  5
188
330
1F
100
AcDbEntity
  8
room-805-tile-contour
  6
ByLayer
 62
256
370
-1
100
AcDbPolyline
 90
4
 70
1
 43
0.0
 10
5105.0
 20
-5380.0
 10
5305.0
 20
-5380.0
 10
5305.0
 20
-5580.0
 10
5105.0
 20
-5580.0
  0
LWPOLYLINE
  5
189
330
1F
100
AcDbEntity
  8
room-805-tile-contour
  6
ByLayer
 62
256
370
-1
100
AcDbPolyline
 90
4
 70
1
 43
0.0
 10
5305.0
 20
-5380.0
 10
5505.0
 20
-5380.0
 10
5505.0
 20
-5580.0
 10
5305.0
 20
-5580.0
  0
LWPOLYLINE
  5
18A
330
1F
100
AcDbEntity
  8
room-805-tile-contour
  6
ByLayer
 62
256
370
-1
100
AcDbPolyline
 90
4
 70
1
 43
0.0
 10
5505.0
 20
-5380.0
 10
5705.0
 20
-5380.0
 10
5705.0
 20
-5580.0
 10
5505.0
 20
-5580.0
  0
LWPOLYLINE
  5
18B
330
1F
100
AcDbEntity
  8
room-805-tile-contour
  6
ByLayer
 62
256
370
-1
100
AcDbPolyline
 90
4
 70
1
 43
0.0
 10
4105.0
 20
-5580.0
 10
4305.0
 20
-5580.0
 10
4305.0
 20
-5780.0
 10
4105.0
 20
-5780.0
  0
LWPOLYLINE
  5
18C
330
1F
100
AcDbEntity
  8
room-805-tile-contour
  6
ByLayer
 62
256
370
-1
100
AcDbPolyline
 90
4
 70
1
 43
0.0
 10
4305.0
 20
-5580.0
 10
4505.0
 20
-5580.0
 10
4505.0
 20
-5780.0
 10
4305.0
 20
-5780.0
  0
LWPOLYLINE
  5
18D
330
1F
100
AcDbEntity
  8
room-805-tile-contour
  6
ByLayer
 62
256
370
-1
100
AcDbPolyline
 90
4
 70
1
 43
0.0
 10
4505.0
 20
-5580.0
 10
4705.0
 20
-5580.0
 10
4705.0
 20
-5780.0
 10
4505.0
 20
-5780.0
  0
LWPOLYLINE
  5
18E
330
1F
100
AcDbEntity
  8
room-805-tile-contour
  6
ByLayer
 62
256
370
-1
100
AcDbPolyline
 90
4
 70
1
 43
0.0
 10
4705.0
 20
-5580.0
 10
4905.0
 20
-5580.0
 10
4905.0
 20
-5780.0
 10
4705.0
 20
-5780.0
  0
LWPOLYLINE
  5
18F
330
1F
100
AcDbEntity
  8
room-805-tile-contour
  6
ByLayer
 62
256
370
-1
100
AcDbPolyline
 90
4
 70
1
 43
0.0
 10
4905.0
 20
-5580.0
 10
5105.0
 20
-5580.0
 10
5105.0
 20
-5780.0
 10
4905.0
 20
-5780.0
  0
LWPOLYLINE
  5
190
330
1F
100
AcDbEntity
  8
room-805-tile-contour
  6
ByLayer
 62
256
370
-1
100
AcDbPolyline
 90
4
 70
1
 43
0.0
 10
5105.0
 20
-5580.0
 10
5305.0
 20
-5580.0
 10
5305.0
 20
-5780.0
 10
5105.0
 20
-5780.0
  0
LWPOLYLINE
  5
191
330
1F
100
AcDbEntity
  8
room-805-tile-contour
  6
ByLayer
 62
256
370
-1
100
AcDbPolyline
 90
4
 70
1
 43
0.0
 10
5305.0
 20
-5580.0
 10
5505.0
 20
-5580.0
 10
5505.0
 20
-5780.0
 10
5305.0
 20
-5780.0
  0
LWPOLYLINE
  5
192
330
1F
100
AcDbEntity
  8
room-805-tile-contour
  6
ByLayer
 62
256
370
-1
100
AcDbPolyline
 90
4
 70
1
 43
0.0
 10
5505.0
 20
-5580.0
 10
5705.0
 20
-5580.0
 10
5705.0
 20
-5780.0
 10
5505.0
 20
-5780.0
  0
LWPOLYLINE
  5
193
330
1F
100
AcDbEntity
  8
room-805-tile-contour
  6
ByLayer
 62
256
370
-1
100
AcDbPolyline
 90
4
 70
1
 43
0.0
 10
4105.0
 20
-5780.0
 10
4305.0
 20
-5780.0
 10
4305.0
 20
-5980.0
 10
4105.0
 20
-5980.0
  0
LWPOLYLINE
  5
194
330
1F
100
AcDbEntity
  8
room-805-tile-contour
  6
ByLayer
 62
256
370
-1
100
AcDbPolyline
 90
4
 70
1
 43
0.0
 10
4305.0
 20
-5780.0
 10
4505.0
 20
-5780.0
 10
4505.0
 20
-5980.0
 10
4305.0
 20
-5980.0
  0
LWPOLYLINE
  5
195
330
1F
100
AcDbEntity
  8
room-805-tile-contour
  6
ByLayer
 62
256
370
-1
100
AcDbPolyline
 90
4
 70
1
 43
0.0
 10
4505.0
 20
-5780.0
 10
4705.0
 20
-5780.0
 10
4705.0
 20
-5980.0
 10
4505.0
 20
-5980.0
  0
LWPOLYLINE
  5
196
330
1F
100
AcDbEntity
  8
room-805-tile-contour
  6
ByLayer
 62
256
370
-1
100
AcDbPolyline
 90
4
 70
1
 43
0.0
 10
4705.0
 20
-5780.0
 10
4905.0
 20
-5780.0
 10
4905.0
 20
-5980.0
 10
4705.0
 20
-5980.0
  0
LWPOLYLINE
  5
197
330
1F
100
AcDbEntity
  8
room-805-tile-contour
  6
ByLayer
 62
256
370
-1
100
AcDbPolyline
 90
4
 70
1
 43
0.0
 10
4905.0
 20
-5780.0
 10
5105.0
 20
-5780.0
 10
5105.0
 20
-5980.0
 10
4905.0
 20
-5980.0
  0
LWPOLYLINE
  5
198
330
1F
100
AcDbEntity
  8
room-805-tile-contour
  6
ByLayer
 62
256
370
-1
100
AcDbPolyline
 90
4
 70
1
 43
0.0
 10
5105.0
 20
-5780.0
 10
5305.0
 20
-5780.0
 10
5305.0
 20
-5980.0
 10
5105.0
 20
-5980.0
  0
LWPOLYLINE
  5
199
330
1F
100
AcDbEntity
  8
room-805-tile-contour
  6
ByLayer
 62
256
370
-1
100
AcDbPolyline
 90
4
 70
1
 43
0.0
 10
5305.0
 20
-5780.0
 10
5505.0
 20
-5780.0
 10
5505.0
 20
-5980.0
 10
5305.0
 20
-5980.0
  0
LWPOLYLINE
  5
19A
330
1F
100
AcDbEntity
  8
room-805-tile-contour
  6
ByLayer
 62
256
370
-1
100
AcDbPolyline
 90
4
 70
1
 43
0.0
 10
5505.0
 20
-5780.0
 10
5705.0
 20
-5780.0
 10
5705.0
 20
-5980.0
 10
5505.0
 20
-5980.0
  0
LWPOLYLINE
  5
19B
330
1F
100
AcDbEntity
  8
room-805-tile-contour
  6
ByLayer
 62
256
370
-1
100
AcDbPolyline
 90
4
 70
1
 43
0.0
 10
4105.0
 20
-5980.0
 10
4305.0
 20
-5980.0
 10
4305.0
 20
-6180.0
 10
4105.0
 20
-6180.0
  0
LWPOLYLINE
  5
19C
330
1F
100
AcDbEntity
  8
room-805-tile-contour
  6
ByLayer
 62
256
370
-1
100
AcDbPolyline
 90
4
 70
1
 43
0.0
 10
4305.0
 20
-5980.0
 10
4505.0
 20
-5980.0
 10
4505.0
 20
-6180.0
 10
4305.0
 20
-6180.0
  0
LWPOLYLINE
  5
19D
330
1F
100
AcDbEntity
  8
room-805-tile-contour
  6
ByLayer
 62
256
370
-1
100
AcDbPolyline
 90
4
 70
1
 43
0.0
 10
4505.0
 20
-5980.0
 10
4705.0
 20
-5980.0
 10
4705.0
 20
-6180.0
 10
4505.0
 20
-6180.0
  0
LWPOLYLINE
  5
19E
330
1F
100
AcDbEntity
  8
room-805-tile-contour
  6
ByLayer
 62
256
370
-1
100
AcDbPolyline
 90
4
 70
1
 43
0.0
 10
4705.0
 20
-5980.0
 10
4905.0
 20
-5980.0
 10
4905.0
 20
-6180.0
 10
4705.0
 20
-6180.0
  0
LWPOLYLINE
  5
19F
330
1F
100
AcDbEntity
  8
room-805-tile-contour
  6
ByLayer
 62
256
370
-1
100
AcDbPolyline
 90
4
 70
1
 43
0.0
 10
4905.0
 20
-5980.0
 10
5105.0
 20
-5980.0
 10
5105.0
 20
-6180.0
 10
4905.0
 20
-6180.0
  0
LWPOLYLINE
  5
1A0
330
1F
100
AcDbEntity
  8
room-805-tile-contour
  6
ByLayer
 62
256
370
-1
100
AcDbPolyline
 90
4
 70
1
 43
0.0
 10
5105.0
 20
-5980.0
 10
5305.0
 20
-5980.0
 10
5305.0
 20
-6180.0
 10
5105.0
 20
-6180.0
  0
LWPOLYLINE
  5
1A1
330
1F
100
AcDbEntity
  8
room-805-tile-contour
  6
ByLayer
 62
256
370
-1
100
AcDbPolyline
 90
4
 70
1
 43
0.0
 10
5305.0
 20
-5980.0
 10
5505.0
 20
-5980.0
 10
5505.0
 20
-6180.0
 10
5305.0
 20
-6180.0
  0
LWPOLYLINE
  5
1A2
330
1F
100
AcDbEntity
  8
room-805-tile-contour
  6
ByLayer
 62
256
370
-1
100
AcDbPolyline
 90
4
 70
1
 43
0.0
 10
5505.0
 20
-5980.0
 10
5705.0
 20
-5980.0
 10
5705.0
 20
-6180.0
 10
5505.0
 20
-6180.0
  0
LWPOLYLINE
  5
1A3
330
1F
100
AcDbEntity
  8
room-805-tile-contour
  6
ByLayer
 62
256
370
-1
100
AcDbPolyline
 90
4
 70
1
 43
0.0
 10
4105.0
 20
-6180.0
 10
4305.0
 20
-6180.0
 10
4305.0
 20
-6380.0
 10
4105.0
 20
-6380.0
  0
LWPOLYLINE
  5
1A4
330
1F
100
AcDbEntity
  8
room-805-tile-contour
  6
ByLayer
 62
256
370
-1
100
AcDbPolyline
 90
4
 70
1
 43
0.0
 10
4305.0
 20
-6180.0
 10
4505.0
 20
-6180.0
 10
4505.0
 20
-6380.0
 10
4305.0
 20
-6380.0
  0
LWPOLYLINE
  5
1A5
330
1F
100
AcDbEntity
  8
room-805-tile-contour
  6
ByLayer
 62
256
370
-1
100
AcDbPolyline
 90
4
 70
1
 43
0.0
 10
4505.0
 20
-6180.0
 10
4705.0
 20
-6180.0
 10
4705.0
 20
-6380.0
 10
4505.0
 20
-6380.0
  0
LWPOLYLINE
  5
1A6
330
1F
100
AcDbEntity
  8
room-805-tile-contour
  6
ByLayer
 62
256
370
-1
100
AcDbPolyline
 90
4
 70
1
 43
0.0
 10
4705.0
 20
-6180.0
 10
4905.0
 20
-6180.0
 10
4905.0
 20
-6380.0
 10
4705.0
 20
-6380.0
  0
LWPOLYLINE
  5
1A7
330
1F
100
AcDbEntity
  8
room-805-tile-contour
  6
ByLayer
 62
256
370
-1
100
AcDbPolyline
 90
4
 70
1
 43
0.0
 10
4905.0
 20
-6180.0
 10
5105.0
 20
-6180.0
 10
5105.0
 20
-6380.0
 10
4905.0
 20
-6380.0
  0
LWPOLYLINE
  5
1A8
330
1F
100
AcDbEntity
  8
room-805-tile-contour
  6
ByLayer
 62
256
370
-1
100
AcDbPolyline
 90
4
 70
1
 43
0.0
 10
5105.0
 20
-6180.0
 10
5305.0
 20
-6180.0
 10
5305.0
 20
-6380.0
 10
5105.0
 20
-6380.0
  0
LWPOLYLINE
  5
1A9
330
1F
100
AcDbEntity
  8
room-805-tile-contour
  6
ByLayer
 62
256
370
-1
100
AcDbPolyline
 90
4
 70
1
 43
0.0
 10
5305.0
 20
-6180.0
 10
5505.0
 20
-6180.0
 10
5505.0
 20
-6380.0
 10
5305.0
 20
-6380.0
  0
LWPOLYLINE
  5
1AA
330
1F
100
AcDbEntity
  8
room-805-tile-contour
  6
ByLayer
 62
256
370
-1
100
AcDbPolyline
 90
4
 70
1
 43
0.0
 10
5505.0
 20
-6180.0
 10
5705.0
 20
-6180.0
 10
5705.0
 20
-6380.0
 10
5505.0
 20
-6380.0
  0
LWPOLYLINE
  5
1AB
330
1F
100
AcDbEntity
  8
room-805-tile-contour
  6
ByLayer
 62
256
370
-1
100
AcDbPolyline
 90
4
 70
1
 43
0.0
 10
4105.0
 20
-6380.0
 10
4305.0
 20
-6380.0
 10
4305.0
 20
-6580.0
 10
4105.0
 20
-6580.0
  0
LWPOLYLINE
  5
1AC
330
1F
100
AcDbEntity
  8
room-805-tile-contour
  6
ByLayer
 62
256
370
-1
100
AcDbPolyline
 90
4
 70
1
 43
0.0
 10
4305.0
 20
-6380.0
 10
4505.0
 20
-6380.0
 10
4505.0
 20
-6580.0
 10
4305.0
 20
-6580.0
  0
LWPOLYLINE
  5
1AD
330
1F
100
AcDbEntity
  8
room-805-tile-contour
  6
ByLayer
 62
256
370
-1
100
AcDbPolyline
 90
4
 70
1
 43
0.0
 10
4505.0
 20
-6380.0
 10
4705.0
 20
-6380.0
 10
4705.0
 20
-6580.0
 10
4505.0
 20
-6580.0
  0
LWPOLYLINE
  5
1AE
330
1F
100
AcDbEntity
  8
room-805-tile-contour
  6
ByLayer
 62
256
370
-1
100
AcDbPolyline
 90
4
 70
1
 43
0.0
 10
4705.0
 20
-6380.0
 10
4905.0
 20
-6380.0
 10
4905.0
 20
-6580.0
 10
4705.0
 20
-6580.0
  0
LWPOLYLINE
  5
1AF
330
1F
100
AcDbEntity
  8
room-805-tile-contour
  6
ByLayer
 62
256
370
-1
100
AcDbPolyline
 90
4
 70
1
 43
0.0
 10
4905.0
 20
-6380.0
 10
5105.0
 20
-6380.0
 10
5105.0
 20
-6580.0
 10
4905.0
 20
-6580.0
  0
LWPOLYLINE
  5
1B0
330
1F
100
AcDbEntity
  8
room-805-tile-contour
  6
ByLayer
 62
256
370
-1
100
AcDbPolyline
 90
4
 70
1
 43
0.0
 10
5105.0
 20
-6380.0
 10
5305.0
 20
-6380.0
 10
5305.0
 20
-6580.0
 10
5105.0
 20
-6580.0
  0
LWPOLYLINE
  5
1B1
330
1F
100
AcDbEntity
  8
room-805-tile-contour
  6
ByLayer
 62
256
370
-1
100
AcDbPolyline
 90
4
 70
1
 43
0.0
 10
5305.0
 20
-6380.0
 10
5505.0
 20
-6380.0
 10
5505.0
 20
-6580.0
 10
5305.0
 20
-6580.0
  0
LWPOLYLINE
  5
1B2
330
1F
100
AcDbEntity
  8
room-805-tile-contour
  6
ByLayer
 62
256
370
-1
100
AcDbPolyline
 90
4
 70
1
 43
0.0
 10
5505.0
 20
-6380.0
 10
5705.0
 20
-6380.0
 10
5705.0
 20
-6580.0
 10
5505.0
 20
-6580.0
  0
LWPOLYLINE
  5
1B3
330
1F
100
AcDbEntity
  8
room-805-tile-contour
  6
ByLayer
 62
256
370
-1
100
AcDbPolyline
 90
4
 70
1
 43
0.0
 10
5705.0
 20
-6490.0
 10
5795.0
 20
-6490.0
 10
5795.0
 20
-6580.0
 10
5705.0
 20
-6580.0
  0
LWPOLYLINE
  5
1B4
330
1F
100
AcDbEntity
  8
room-805-tile-contour
  6
ByLayer
 62
256
370
-1
100
AcDbPolyline
 90
4
 70
1
 43
0.0
 10
4105.0
 20
-6580.0
 10
4305.0
 20
-6580.0
 10
4305.0
 20
-6780.0
 10
4105.0
 20
-6780.0
  0
LWPOLYLINE
  5
1B5
330
1F
100
AcDbEntity
  8
room-805-tile-contour
  6
ByLayer
 62
256
370
-1
100
AcDbPolyline
 90
4
 70
1
 43
0.0
 10
4305.0
 20
-6580.0
 10
4505.0
 20
-6580.0
 10
4505.0
 20
-6780.0
 10
4305.0
 20
-6780.0
  0
LWPOLYLINE
  5
1B6
330
1F
100
AcDbEntity
  8
room-805-tile-contour
  6
ByLayer
 62
256
370
-1
100
AcDbPolyline
 90
4
 70
1
 43
0.0
 10
4505.0
 20
-6580.0
 10
4705.0
 20
-6580.0
 10
4705.0
 20
-6780.0
 10
4505.0
 20
-6780.0
  0
LWPOLYLINE
  5
1B7
330
1F
100
AcDbEntity
  8
room-805-tile-contour
  6
ByLayer
 62
256
370
-1
100
AcDbPolyline
 90
4
 70
1
 43
0.0
 10
4705.0
 20
-6580.0
 10
4905.0
 20
-6580.0
 10
4905.0
 20
-6780.0
 10
4705.0
 20
-6780.0
  0
LWPOLYLINE
  5
1B8
330
1F
100
AcDbEntity
  8
room-805-tile-contour
  6
ByLayer
 62
256
370
-1
100
AcDbPolyline
 90
4
 70
1
 43
0.0
 10
4905.0
 20
-6580.0
 10
5105.0
 20
-6580.0
 10
5105.0
 20
-6780.0
 10
4905.0
 20
-6780.0
  0
LWPOLYLINE
  5
1B9
330
1F
100
AcDbEntity
  8
room-805-tile-contour
  6
ByLayer
 62
256
370
-1
100
AcDbPolyline
 90
4
 70
1
 43
0.0
 10
5105.0
 20
-6580.0
 10
5305.0
 20
-6580.0
 10
5305.0
 20
-6780.0
 10
5105.0
 20
-6780.0
  0
LWPOLYLINE
  5
1BA
330
1F
100
AcDbEntity
  8
room-805-tile-contour
  6
ByLayer
 62
256
370
-1
100
AcDbPolyline
 90
4
 70
1
 43
0.0
 10
5305.0
 20
-6580.0
 10
5505.0
 20
-6580.0
 10
5505.0
 20
-6780.0
 10
5305.0
 20
-6780.0
  0
LWPOLYLINE
  5
1BB
330
1F
100
AcDbEntity
  8
room-805-tile-contour
  6
ByLayer
 62
256
370
-1
100
AcDbPolyline
 90
4
 70
1
 43
0.0
 10
5505.0
 20
-6580.0
 10
5705.0
 20
-6580.0
 10
5705.0
 20
-6780.0
 10
5505.0
 20
-6780.0
  0
LWPOLYLINE
  5
1BC
330
1F
100
AcDbEntity
  8
room-805-tile-contour
  6
ByLayer
 62
256
370
-1
100
AcDbPolyline
 90
4
 70
1
 43
0.0
 10
5705.0
 20
-6580.0
 10
5795.0
 20
-6580.0
 10
5795.0
 20
-6780.0
 10
5705.0
 20
-6780.0
  0
LWPOLYLINE
  5
1BD
330
1F
100
AcDbEntity
  8
room-805-tile-contour
  6
ByLayer
 62
256
370
-1
100
AcDbPolyline
 90
4
 70
1
 43
0.0
 10
4105.0
 20
-6780.0
 10
4305.0
 20
-6780.0
 10
4305.0
 20
-6980.0
 10
4105.0
 20
-6980.0
  0
LWPOLYLINE
  5
1BE
330
1F
100
AcDbEntity
  8
room-805-tile-contour
  6
ByLayer
 62
256
370
-1
100
AcDbPolyline
 90
4
 70
1
 43
0.0
 10
4305.0
 20
-6780.0
 10
4505.0
 20
-6780.0
 10
4505.0
 20
-6980.0
 10
4305.0
 20
-6980.0
  0
LWPOLYLINE
  5
1BF
330
1F
100
AcDbEntity
  8
room-805-tile-contour
  6
ByLayer
 62
256
370
-1
100
AcDbPolyline
 90
4
 70
1
 43
0.0
 10
4505.0
 20
-6780.0
 10
4705.0
 20
-6780.0
 10
4705.0
 20
-6980.0
 10
4505.0
 20
-6980.0
  0
LWPOLYLINE
  5
1C0
330
1F
100
AcDbEntity
  8
room-805-tile-contour
  6
ByLayer
 62
256
370
-1
100
AcDbPolyline
 90
4
 70
1
 43
0.0
 10
4705.0
 20
-6780.0
 10
4905.0
 20
-6780.0
 10
4905.0
 20
-6980.0
 10
4705.0
 20
-6980.0
  0
LWPOLYLINE
  5
1C1
330
1F
100
AcDbEntity
  8
room-805-tile-contour
  6
ByLayer
 62
256
370
-1
100
AcDbPolyline
 90
4
 70
1
 43
0.0
 10
4905.0
 20
-6780.0
 10
5105.0
 20
-6780.0
 10
5105.0
 20
-6980.0
 10
4905.0
 20
-6980.0
  0
LWPOLYLINE
  5
1C2
330
1F
100
AcDbEntity
  8
room-805-tile-contour
  6
ByLayer
 62
256
370
-1
100
AcDbPolyline
 90
4
 70
1
 43
0.0
 10
5105.0
 20
-6780.0
 10
5305.0
 20
-6780.0
 10
5305.0
 20
-6980.0
 10
5105.0
 20
-6980.0
  0
LWPOLYLINE
  5
1C3
330
1F
100
AcDbEntity
  8
room-805-tile-contour
  6
ByLayer
 62
256
370
-1
100
AcDbPolyline
 90
4
 70
1
 43
0.0
 10
5305.0
 20
-6780.0
 10
5505.0
 20
-6780.0
 10
5505.0
 20
-6980.0
 10
5305.0
 20
-6980.0
  0
LWPOLYLINE
  5
1C4
330
1F
100
AcDbEntity
  8
room-805-tile-contour
  6
ByLayer
 62
256
370
-1
100
AcDbPolyline
 90
4
 70
1
 43
0.0
 10
5505.0
 20
-6780.0
 10
5705.0
 20
-6780.0
 10
5705.0
 20
-6980.0
 10
5505.0
 20
-6980.0
  0
LWPOLYLINE
  5
1C5
330
1F
100
AcDbEntity
  8
room-805-tile-contour
  6
ByLayer
 62
256
370
-1
100
AcDbPolyline
 90
4
 70
1
 43
0.0
 10
5705.0
 20
-6780.0
 10
5795.0
 20
-6780.0
 10
5795.0
 20
-6980.0
 10
5705.0
 20
-6980.0
  0
LWPOLYLINE
  5
1C6
330
1F
100
AcDbEntity
  8
room-805-tile-contour
  6
ByLayer
 62
256
370
-1
100
AcDbPolyline
 90
4
 70
1
 43
0.0
 10
4105.0
 20
-6980.0
 10
4305.0
 20
-6980.0
 10
4305.0
 20
-7180.0
 10
4105.0
 20
-7180.0
  0
LWPOLYLINE
  5
1C7
330
1F
100
AcDbEntity
  8
room-805-tile-contour
  6
ByLayer
 62
256
370
-1
100
AcDbPolyline
 90
4
 70
1
 43
0.0
 10
4305.0
 20
-6980.0
 10
4505.0
 20
-6980.0
 10
4505.0
 20
-7180.0
 10
4305.0
 20
-7180.0
  0
LWPOLYLINE
  5
1C8
330
1F
100
AcDbEntity
  8
room-805-tile-contour
  6
ByLayer
 62
256
370
-1
100
AcDbPolyline
 90
4
 70
1
 43
0.0
 10
4505.0
 20
-6980.0
 10
4705.0
 20
-6980.0
 10
4705.0
 20
-7180.0
 10
4505.0
 20
-7180.0
  0
LWPOLYLINE
  5
1C9
330
1F
100
AcDbEntity
  8
room-805-tile-contour
  6
ByLayer
 62
256
370
-1
100
AcDbPolyline
 90
4
 70
1
 43
0.0
 10
4705.0
 20
-6980.0
 10
4905.0
 20
-6980.0
 10
4905.0
 20
-7180.0
 10
4705.0
 20
-7180.0
  0
LWPOLYLINE
  5
1CA
330
1F
100
AcDbEntity
  8
room-805-tile-contour
  6
ByLayer
 62
256
370
-1
100
AcDbPolyline
 90
4
 70
1
 43
0.0
 10
4905.0
 20
-6980.0
 10
5105.0
 20
-6980.0
 10
5105.0
 20
-7180.0
 10
4905.0
 20
-7180.0
  0
LWPOLYLINE
  5
1CB
330
1F
100
AcDbEntity
  8
room-805-tile-contour
  6
ByLayer
 62
256
370
-1
100
AcDbPolyline
 90
4
 70
1
 43
0.0
 10
5105.0
 20
-6980.0
 10
5305.0
 20
-6980.0
 10
5305.0
 20
-7180.0
 10
5105.0
 20
-7180.0
  0
LWPOLYLINE
  5
1CC
330
1F
100
AcDbEntity
  8
room-805-tile-contour
  6
ByLayer
 62
256
370
-1
100
AcDbPolyline
 90
4
 70
1
 43
0.0
 10
5305.0
 20
-6980.0
 10
5505.0
 20
-6980.0
 10
5505.0
 20
-7180.0
 10
5305.0
 20
-7180.0
  0
LWPOLYLINE
  5
1CD
330
1F
100
AcDbEntity
  8
room-805-tile-contour
  6
ByLayer
 62
256
370
-1
100
AcDbPolyline
 90
4
 70
1
 43
0.0
 10
5505.0
 20
-6980.0
 10
5705.0
 20
-6980.0
 10
5705.0
 20
-7180.0
 10
5505.0
 20
-7180.0
  0
LWPOLYLINE
  5
1CE
330
1F
100
AcDbEntity
  8
room-805-tile-contour
  6
ByLayer
 62
256
370
-1
100
AcDbPolyline
 90
4
 70
1
 43
0.0
 10
5705.0
 20
-6980.0
 10
5795.0
 20
-6980.0
 10
5795.0
 20
-7180.0
 10
5705.0
 20
-7180.0
  0
LWPOLYLINE
  5
1CF
330
1F
100
AcDbEntity
  8
room-805-tile-contour
  6
ByLayer
 62
256
370
-1
100
AcDbPolyline
 90
4
 70
1
 43
0.0
 10
4105.0
 20
-7180.0
 10
4305.0
 20
-7180.0
 10
4305.0
 20
-7380.0
 10
4105.0
 20
-7380.0
  0
LWPOLYLINE
  5
1D0
330
1F
100
AcDbEntity
  8
room-805-tile-contour
  6
ByLayer
 62
256
370
-1
100
AcDbPolyline
 90
4
 70
1
 43
0.0
 10
4305.0
 20
-7180.0
 10
4505.0
 20
-7180.0
 10
4505.0
 20
-7380.0
 10
4305.0
 20
-7380.0
  0
LWPOLYLINE
  5
1D1
330
1F
100
AcDbEntity
  8
room-805-tile-contour
  6
ByLayer
 62
256
370
-1
100
AcDbPolyline
 90
4
 70
1
 43
0.0
 10
4505.0
 20
-7180.0
 10
4705.0
 20
-7180.0
 10
4705.0
 20
-7380.0
 10
4505.0
 20
-7380.0
  0
LWPOLYLINE
  5
1D2
330
1F
100
AcDbEntity
  8
room-805-tile-contour
  6
ByLayer
 62
256
370
-1
100
AcDbPolyline
 90
4
 70
1
 43
0.0
 10
4705.0
 20
-7180.0
 10
4905.0
 20
-7180.0
 10
4905.0
 20
-7380.0
 10
4705.0
 20
-7380.0
  0
LWPOLYLINE
  5
1D3
330
1F
100
AcDbEntity
  8
room-805-tile-contour
  6
ByLayer
 62
256
370
-1
100
AcDbPolyline
 90
4
 70
1
 43
0.0
 10
4905.0
 20
-7180.0
 10
5105.0
 20
-7180.0
 10
5105.0
 20
-7380.0
 10
4905.0
 20
-7380.0
  0
LWPOLYLINE
  5
1D4
330
1F
100
AcDbEntity
  8
room-805-tile-contour
  6
ByLayer
 62
256
370
-1
100
AcDbPolyline
 90
4
 70
1
 43
0.0
 10
5105.0
 20
-7180.0
 10
5305.0
 20
-7180.0
 10
5305.0
 20
-7380.0
 10
5105.0
 20
-7380.0
  0
LWPOLYLINE
  5
1D5
330
1F
100
AcDbEntity
  8
room-805-tile-contour
  6
ByLayer
 62
256
370
-1
100
AcDbPolyline
 90
4
 70
1
 43
0.0
 10
5305.0
 20
-7180.0
 10
5505.0
 20
-7180.0
 10
5505.0
 20
-7380.0
 10
5305.0
 20
-7380.0
  0
LWPOLYLINE
  5
1D6
330
1F
100
AcDbEntity
  8
room-805-tile-contour
  6
ByLayer
 62
256
370
-1
100
AcDbPolyline
 90
4
 70
1
 43
0.0
 10
5505.0
 20
-7180.0
 10
5705.0
 20
-7180.0
 10
5705.0
 20
-7380.0
 10
5505.0
 20
-7380.0
  0
LWPOLYLINE
  5
1D7
330
1F
100
AcDbEntity
  8
room-805-tile-contour
  6
ByLayer
 62
256
370
-1
100
AcDbPolyline
 90
4
 70
1
 43
0.0
 10
5705.0
 20
-7180.0
 10
5795.0
 20
-7180.0
 10
5795.0
 20
-7380.0
 10
5705.0
 20
-7380.0
  0
LWPOLYLINE
  5
1D8
330
1F
100
AcDbEntity
  8
room-805-tile-contour
  6
ByLayer
 62
256
370
-1
100
AcDbPolyline
 90
4
 70
1
 43
0.0
 10
4105.0
 20
-7380.0
 10
4305.0
 20
-7380.0
 10
4305.0
 20
-7570.0
 10
4105.0
 20
-7570.0
  0
LWPOLYLINE
  5
1D9
330
1F
100
AcDbEntity
  8
room-805-tile-contour
  6
ByLayer
 62
256
370
-1
100
AcDbPolyline
 90
4
 70
1
 43
0.0
 10
4305.0
 20
-7380.0
 10
4505.0
 20
-7380.0
 10
4505.0
 20
-7570.0
 10
4305.0
 20
-7570.0
  0
LWPOLYLINE
  5
1DA
330
1F
100
AcDbEntity
  8
room-805-tile-contour
  6
ByLayer
 62
256
370
-1
100
AcDbPolyline
 90
4
 70
1
 43
0.0
 10
4505.0
 20
-7380.0
 10
4705.0
 20
-7380.0
 10
4705.0
 20
-7570.0
 10
4505.0
 20
-7570.0
  0
LWPOLYLINE
  5
1DB
330
1F
100
AcDbEntity
  8
room-805-tile-contour
  6
ByLayer
 62
256
370
-1
100
AcDbPolyline
 90
4
 70
1
 43
0.0
 10
4705.0
 20
-7380.0
 10
4905.0
 20
-7380.0
 10
4905.0
 20
-7570.0
 10
4705.0
 20
-7570.0
  0
LWPOLYLINE
  5
1DC
330
1F
100
AcDbEntity
  8
room-805-tile-contour
  6
ByLayer
 62
256
370
-1
100
AcDbPolyline
 90
4
 70
1
 43
0.0
 10
4905.0
 20
-7380.0
 10
5105.0
 20
-7380.0
 10
5105.0
 20
-7570.0
 10
4905.0
 20
-7570.0
  0
LWPOLYLINE
  5
1DD
330
1F
100
AcDbEntity
  8
room-805-tile-contour
  6
ByLayer
 62
256
370
-1
100
AcDbPolyline
 90
4
 70
1
 43
0.0
 10
5105.0
 20
-7380.0
 10
5305.0
 20
-7380.0
 10
5305.0
 20
-7570.0
 10
5105.0
 20
-7570.0
  0
LWPOLYLINE
  5
1DE
330
1F
100
AcDbEntity
  8
room-805-tile-contour
  6
ByLayer
 62
256
370
-1
100
AcDbPolyline
 90
4
 70
1
 43
0.0
 10
5305.0
 20
-7380.0
 10
5505.0
 20
-7380.0
 10
5505.0
 20
-7570.0
 10
5305.0
 20
-7570.0
  0
LWPOLYLINE
  5
1DF
330
1F
100
AcDbEntity
  8
room-805-tile-contour
  6
ByLayer
 62
256
370
-1
100
AcDbPolyline
 90
4
 70
1
 43
0.0
 10
5505.0
 20
-7380.0
 10
5705.0
 20
-7380.0
 10
5705.0
 20
-7570.0
 10
5505.0
 20
-7570.0
  0
LWPOLYLINE
  5
1E0
330
1F
100
AcDbEntity
  8
room-805-tile-contour
  6
ByLayer
 62
256
370
-1
100
AcDbPolyline
 90
4
 70
1
 43
0.0
 10
5705.0
 20
-7380.0
 10
5795.0
 20
-7380.0
 10
5795.0
 20
-7570.0
 10
5705.0
 20
-7570.0
  0
LWPOLYLINE
  5
1E1
330
1F
100
AcDbEntity
  8
room-804-tile-contour
  6
ByLayer
 62
256
370
-1
100
AcDbPolyline
 90
10
 70
1
 43
0.0
 10
20.0
 20
-5520.0
 10
780.0
 20
-5520.0
 10
780.0
 20
-6250.0
 10
1245.0
 20
-6250.0
 10
1245.0
 20
-6290.0
 10
1315.0
 20
-6290.0
 10
1315.0
 20
-7040.0
 10
1245.0
 20
-7040.0
 10
1245.0
 20
-7550.0
 10
19.99999999999954
 20
-7550.0
  0
LWPOLYLINE
  5
1E2
330
1F
100
AcDbEntity
  8
room-80x-tile-contour
  6
ByLayer
 62
256
370
-1
100
AcDbPolyline
 90
40
 70
1
 43
0.0
 10
20.0
 20
-20.0
 10
1200.0
 20
-20.0
 10
1200.0
 20
70.0
 10
2060.0
 20
70.0
 10
2060.0
 20
-20.0
 10
2485.0
 20
-20.0
 10
2485.0
 20
-220.0
 10
2920.000000000001
 20
-220.0
 10
2920.0
 20
-20.0
 10
5675.0
 20
-20.0
 10
5675.0
 20
-220.0
 10
5775.0
 20
-220.0
 10
5775.0
 20
-4260.0
 10
5070.0
 20
-4260.0
 10
5070.0
 20
-4160.0
 10
4125.0
 20
-4160.0
 10
4125.0
 20
-3560.0
 10
3985.0
 20
-3560.0
 10
3985.0
 20
-5940.0
 10
4055.0
 20
-5940.0
 10
4055.0
 20
-6690.0
 10
3985.0
 20
-6690.0
 10
3985.0
 20
-7200.0
 10
2865.0
 20
-7200.0
 10
2865.0
 20
-7550.0
 10
2830.0
 20
-7550.0
 10
2830.0
 20
-7720.0
 10
2780.0
 20
-7720.0
 10
2780.0
 20
-7740.0
 10
1900.0
 20
-7740.0
 10
1900.0
 20
-7720.0
 10
1845.0
 20
-7720.0
 10
1845.0
 20
-7550.0
 10
1385.0
 20
-7550.0
 10
1385.0
 20
-7040.0
 10
1315.0
 20
-7040.0
 10
1315.0
 20
-6290.0
 10
1385.0
 20
-6290.0
 10
1385.0
 20
-5380.0
 10
20.00000000000001
 20
-5380.0
  0
MTEXT
  5
1E3
330
1F
100
AcDbEntity
  8
dimension
  6
ByLayer
 62
256
370
-1
100
AcDbMText
 10
6600.0
 20
-6400.0
 30
0.0
 40
90.0
 41
882.5
 71
5
 72
1
  1
Плитка Тип-4
  7
unicode
210
0.0
220
0.0
230
1.0
 50
0.0
 73
2
 44
1.0
  0
LWPOLYLINE
  5
1E4
330
1F
100
AcDbEntity
  8
dimension
  6
ByLayer
 62
256
370
-1
100
AcDbPolyline
 90
3
 70
0
 43
0.0
 10
5640.0
 20
-6700.0
 10
6140.0
 20
-6470.0
 10
7060.0
 20
-6470.0
  0
MTEXT
  5
1E5
330
1F
100
AcDbEntity
  8
dimension
  6
ByLayer
 62
256
370
-1
100
AcDbMText
 10
6500.0
 20
-1100.0
 30
0.0
 40
90.0
 41
785.0
 71
5
 72
1
  1
Кварц-Винил
  7
unicode
210
0.0
220
0.0
230
1.0
 50
0.0
 73
2
 44
1.0
  0
LWPOLYLINE
  5
1E6
330
1F
100
AcDbEntity
  8
dimension
  6
ByLayer
 62
256
370
-1
100
AcDbPolyline
 90
3
 70
0
 43
0.0
 10
5400.0
 20
-1500.0
 10
6080.0
 20
-1190.0
 10
6920.0
 20
-1190.0
  0
LWPOLYLINE
  5
1E7
330
1F
100
AcDbEntity
  8
room-805-tile-direction
  6
ByLayer
 62
256
370
-1
100
AcDbPolyline
 90
3
 70
1
 43
0.0
 10
4105.0
 20
-5180.0
 10
4205.0
 20
-5180.0
 10
4105.0
 20
-5280.0
  0
INSERT
  5
1E8
330
1F
100
AcDbEntity
  8
0
  6
ByLayer
 62
256
370
-1
100
AcDbBlockReference
  2
explication-1-800-2
 10
9500.0
 20
2000.0
 30
0.0
 41
50.0
 42
50.0
 43
0.0
 50
0.0
 70
1
 71
1
 44
0.0
 45
0.0
  0
INSERT
  5
1E9
330
1F
100
AcDbEntity
  8
0
  6
ByLayer
 62
256
370
-1
100
AcDbBlockReference
  2
legend
 10
9500.0
 20
-2750.0
 30
0.0
 41
50.0
 42
50.0
 43
0.0
 50
0.0
 70
1
 71
1
 44
0.0
 45
0.0
  0
LINE
  5
1EA
330
1F
100
AcDbEntity
  8
room-805-tile-contour
  6
ByLayer
 62
256
370
-1
100
AcDbLine
 10
10200.0
 20
-3800.0
 11
9900.0
 21
-3800.0
  0
LINE
  5
1EB
330
1F
100
AcDbEntity
  8
room-805-tile-contour
  6
ByLayer
 62
256
370
-1
100
AcDbLine
 10
10200.0
 20
-3530.0
 11
10200.0
 21
-3800.0
  0
LWPOLYLINE
  5
1EC
330
1F
100
AcDbEntity
  8
room-805-tile-direction
  6
ByLayer
 62
256
370
-1
100
AcDbPolyline
 90
3
 70
1
 43
0.0
 10
10200.0
 20
-3800.0
 10
10200.0
 20
-3600.0
 10
10000.0
 20
-3800.0
  0
INSERT
  5
1ED
330
1F
100
AcDbEntity
  8
0
  6
ByLayer
 62
256
370
-1
100
AcDbBlockReference
  2
sheet-A3-border
 10
-6000.0
 20
3000.0
 30
0.0
 41
50.0
 42
50.0
 43
0.0
 50
0.0
 70
1
 71
1
 44
0.0
 45
0.0
  0
ENDSEC
  0
SECTION
  2
OBJECTS
  0
DICTIONARY
  5
C
330
0
100
AcDbDictionary
281
1
  3
ACAD_GROUP
350
D
  3
ACAD_COLOR
350
20000
  3
ACAD_LAYOUT
350
20001
  3
ACAD_MATERIAL
350
20002
  3
ACAD_MLEADERSTYLE
350
20003
  3
ACAD_MLINESTYLE
350
20004
  3
ACAD_PLOTSETTINGS
350
20005
  3
ACAD_PLOTSTYLENAME
350
20006
  3
ACAD_SCALELIST
350
20008
  3
ACAD_TABLESTYLE
350
20009
  3
ACAD_VISUALSTYLE
350
2000A
  0
DICTIONARY
  5
D
330
C
100
AcDbDictionary
281
1
  0
DICTIONARY
  5
20000
330
C
100
AcDbDictionary
281
1
  0
DICTIONARY
  5
20001
330
C
100
AcDbDictionary
281
1
  3
Model
350
2000B
  3
Layout1
350
2000C
  0
DICTIONARY
  5
20002
330
C
100
AcDbDictionary
281
1
  0
DICTIONARY
  5
20003
330
C
100
AcDbDictionary
281
1
  0
DICTIONARY
  5
20004
330
C
100
AcDbDictionary
281
1
  0
DICTIONARY
  5
20005
330
C
100
AcDbDictionary
281
1
  0
ACDBDICTIONARYWDFLT
  5
20006
330
C
100
AcDbDictionary
281
1
  3
Normal
350
20007
100
AcDbDictionaryWithDefault
340
20007
  0
ACDBPLACEHOLDER
  5
20007
330
20006
  0
DICTIONARY
  5
20008
330
C
100
AcDbDictionary
281
1
  0
DICTIONARY
  5
20009
330
C
100
AcDbDictionary
281
1
  0
DICTIONARY
  5
2000A
330
C
100
AcDbDictionary
281
1
  0
LAYOUT
  5
2000B
330
20001
100
AcDbPlotSettings
  1

  2
DWFx ePlot (XPS Compatible).pc3
  4
ANSI_A_(8.50_x_11.00_Inches)
  6

 40
5.8
 41
17.8
 42
5.8
 43
17.8
 44
215.9
 45
279.4
 46
0.0
 47
0.0
 48
0.0
 49
0.0
140
0.0
141
0.0
142
1.0
143
14.53
 70
11952
 72
0
 73
1
 74
0
  7

 75
0
147
0.069
148
114.98
149
300.29
100
AcDbLayout
  1
Model
 70
1
 71
0
 10
0.0
 20
0.0
 11
12.0
 21
9.0
 12
0.0
 22
0.0
 32
0.0
 14
0.0
 24
0.0
 34
0.0
 15
0.0
 25
0.0
 35
0.0
146
0.0
 13
0.0
 23
0.0
 33
0.0
 16
1.0
 26
0.0
 36
0.0
 17
0.0
 27
1.0
 37
0.0
 76
0
330
1F
  0
LAYOUT
  5
2000C
330
20001
100
AcDbPlotSettings
  1

  2
DWFx ePlot (XPS Compatible).pc3
  4
ANSI_A_(8.50_x_11.00_Inches)
  6

 40
5.8
 41
17.8
 42
5.8
 43
17.8
 44
215.9
 45
279.4
 46
0.0
 47
0.0
 48
0.0
 49
0.0
140
0.0
141
0.0
142
1.0
143
1.0
 70
688
 72
0
 73
1
 74
5
  7
acad.ctb
 75
16
147
1.0
148
0.0
149
0.0
100
AcDbLayout
  1
Layout1
 70
1
 71
1
 10
-0.7
 20
-0.23
 11
10.3
 21
8.27
 12
0.0
 22
0.0
 32
0.0
 14
0.63
 24
0.8
 34
0.0
 15
9.0
 25
7.2
 35
0.0
146
0.0
 13
0.0
 23
0.0
 33
0.0
 16
1.0
 26
0.0
 36
0.0
 17
0.0
 27
1.0
 37
0.0
 76
0
330
1E
  0
ENDSEC
  0
EOF
