  0
SECTION
  2
HEADER
  9
$ACADVER
  1
AC1021
  9
$DWGCODEPAGE
  3
ANSI_1251
  9
$INSBASE
 10
0.0
 20
0.0
 30
0.0
  9
$EXTMIN
 10
-6000.0
 20
-11850.0
 30
0.0
  9
$EXTMAX
 10
15000.0
 20
3000.0
 30
0.0
  9
$LIMMIN
 10
0.0
 20
0.0
  9
$LIMMAX
 10
12.0
 20
9.0
  9
$ORTHOMODE
 70
0
  9
$REGENMODE
 70
1
  9
$FILLMODE
 70
1
  9
$QTEXTMODE
 70
0
  9
$MIRRTEXT
 70
0
  9
$LTSCALE
 40
1.0
  9
$ATTMODE
 70
0
  9
$TEXTSIZE
 40
2.5
  9
$TRACEWID
 40
15.68
  9
$TEXTSTYLE
  7
Standard
  9
$CLAYER
  8
0
  9
$CELTYPE
  6
BYLAYER
  9
$CECOLOR
 62
256
  9
$CELTSCALE
 40
1.0
  9
$DISPSILH
 70
0
  9
$DIMSCALE
 40
50.0
  9
$DIMASZ
 40
2.5
  9
$DIMEXO
 40
0.625
  9
$DIMDLI
 40
3.75
  9
$DIMRND
 40
0.0
  9
$DIMDLE
 40
0.0
  9
$DIMEXE
 40
0.125
  9
$DIMTP
 40
0.0
  9
$DIMTM
 40
0.0
  9
$DIMTXT
 40
1.8
  9
$DIMCEN
 40
2.5
  9
$DIMTSZ
 40
1.5
  9
$DIMTOL
 70
0
  9
$DIMLIM
 70
0
  9
$DIMTIH
 70
0
  9
$DIMTOH
 70
0
  9
$DIMSE1
 70
0
  9
$DIMSE2
 70
0
  9
$DIMTAD
 70
1
  9
$DIMZIN
 70
1
  9
$DIMBLK
  1

  9
$DIMASO
 70
1
  9
$DIMSHO
 70
1
  9
$DIMPOST
  1

  9
$DIMAPOST
  1

  9
$DIMALT
 70
0
  9
$DIMALTD
 70
3
  9
$DIMALTF
 40
0.03937
  9
$DIMLFAC
 40
1.0
  9
$DIMTOFL
 70
1
  9
$DIMTVP
 40
0.0
  9
$DIMTIX
 70
0
  9
$DIMSOXD
 70
0
  9
$DIMSAH
 70
0
  9
$DIMBLK1
  1

  9
$DIMBLK2
  1

  9
$DIMSTYLE
  2
Standard
  9
$DIMCLRD
 70
0
  9
$DIMCLRE
 70
0
  9
$DIMCLRT
 70
0
  9
$DIMTFAC
 40
1.0
  9
$DIMGAP
 40
0.625
  9
$DIMJUST
 70
0
  9
$DIMSD1
 70
0
  9
$DIMSD2
 70
0
  9
$DIMTOLJ
 70
0
  9
$DIMTZIN
 70
8
  9
$DIMALTZ
 70
0
  9
$DIMALTTZ
 70
0
  9
$DIMUPT
 70
0
  9
$DIMDEC
 70
0
  9
$DIMTDEC
 70
2
  9
$DIMALTU
 70
2
  9
$DIMALTTD
 70
3
  9
$DIMTXSTY
  7
standard
  9
$DIMAUNIT
 70
0
  9
$DIMADEC
 70
0
  9
$DIMALTRND
 40
0.0
  9
$DIMAZIN
 70
0
  9
$DIMDSEP
 70
0
  9
$DIMATFIT
 70
3
  9
$DIMFRAC
 70
0
  9
$DIMLDRBLK
  1
STANDARD
  9
$DIMLUNIT
 70
2
  9
$DIMLWD
 70
-2
  9
$DIMLWE
 70
-2
  9
$DIMTMOVE
 70
0
  9
$DIMFXL
 40
1.0
  9
$DIMFXLON
 70
0
  9
$DIMJOGANG
 40
0.7854
  9
$DIMTFILL
 70
0
  9
$DIMTFILLCLR
 70
0
  9
$DIMARCSYM
 70
0
  9
$DIMLTYPE
  6

  9
$DIMLTEX1
  6

  9
$DIMLTEX2
  6

  9
$LUNITS
 70
2
  9
$LUPREC
 70
0
  9
$SKETCHINC
 40
1.0
  9
$FILLETRAD
 40
0.0
  9
$AUNITS
 70
0
  9
$AUPREC
 70
2
  9
$MENU
  1
.
  9
$ELEVATION
 40
0.0
  9
$PELEVATION
 40
0.0
  9
$THICKNESS
 40
0.0
  9
$LIMCHECK
 70
0
  9
$CHAMFERA
 40
0.0
  9
$CHAMFERB
 40
0.0
  9
$CHAMFERC
 40
0.0
  9
$CHAMFERD
 40
0.0
  9
$SKPOLY
 70
0
  9
$USRTIMER
 70
1
  9
$ANGBASE
 50
0.0
  9
$ANGDIR
 70
0
  9
$PDMODE
 70
34
  9
$PDSIZE
 40
0.0
  9
$PLINEWID
 40
0.0
  9
$SPLFRAME
 70
0
  9
$SPLINETYPE
 70
2
  9
$SPLINESEGS
 70
8
  9
$HANDSEED
  5
2000D
  9
$SURFTAB1
 70
6
  9
$SURFTAB2
 70
6
  9
$SURFTYPE
 70
6
  9
$SURFU
 70
6
  9
$SURFV
 70
6
  9
$UCSBASE
  2

  9
$UCSNAME
  2

  9
$UCSORG
 10
0.0
 20
0.0
 30
0.0
  9
$UCSXDIR
 10
1.0
 20
0.0
 30
0.0
  9
$UCSYDIR
 10
0.0
 20
1.0
 30
0.0
  9
$UCSORTHOREF
  2

  9
$UCSORTHOVIEW
 70
0
  9
$UCSORGTOP
 10
0.0
 20
0.0
 30
0.0
  9
$UCSORGBOTTOM
 10
0.0
 20
0.0
 30
0.0
  9
$UCSORGLEFT
 10
0.0
 20
0.0
 30
0.0
  9
$UCSORGRIGHT
 10
0.0
 20
0.0
 30
0.0
  9
$UCSORGFRONT
 10
0.0
 20
0.0
 30
0.0
  9
$UCSORGBACK
 10
0.0
 20
0.0
 30
0.0
  9
$PUCSBASE
  2

  9
$PUCSNAME
  2

  9
$PUCSORG
 10
0.0
 20
0.0
 30
0.0
  9
$PUCSXDIR
 10
1.0
 20
0.0
 30
0.0
  9
$PUCSYDIR
 10
0.0
 20
1.0
 30
0.0
  9
$PUCSORTHOREF
  2

  9
$PUCSORTHOVIEW
 70
0
  9
$PUCSORGTOP
 10
0.0
 20
0.0
 30
0.0
  9
$PUCSORGBOTTOM
 10
0.0
 20
0.0
 30
0.0
  9
$PUCSORGLEFT
 10
0.0
 20
0.0
 30
0.0
  9
$PUCSORGRIGHT
 10
0.0
 20
0.0
 30
0.0
  9
$PUCSORGFRONT
 10
0.0
 20
0.0
 30
0.0
  9
$PUCSORGBACK
 10
0.0
 20
0.0
 30
0.0
  9
$USERI1
 70
0
  9
$USERI2
 70
0
  9
$USERI3
 70
0
  9
$USERI4
 70
0
  9
$USERI5
 70
0
  9
$USERR1
 40
0.0
  9
$USERR2
 40
0.0
  9
$USERR3
 40
0.0
  9
$USERR4
 40
0.0
  9
$USERR5
 40
0.0
  9
$WORLDVIEW
 70
1
  9
$SHADEDGE
 70
3
  9
$SHADEDIF
 70
70
  9
$TILEMODE
 70
1
  9
$MAXACTVP
 70
64
  9
$PINSBASE
 10
120.0
 20
237.0
 30
0.0
  9
$PLIMCHECK
 70
0
  9
$PEXTMIN
 10
0.0
 20
0.0
 30
0.0
  9
$PEXTMAX
 10
0.0
 20
0.0
 30
0.0
  9
$GRIDMODE
 70
1
  9
$SNAPSTYLE
 70
0
  9
$GRIDUNIT
 10
0.0
 20
0.0
  9
$PLIMMIN
 10
0.0
 20
0.0
  9
$PLIMMAX
 10
420.0
 20
297.0
  9
$UNITMODE
 70
0
  9
$VISRETAIN
 70
1
  9
$PLINEGEN
 70
0
  9
$PSLTSCALE
 70
1
  9
$TREEDEPTH
 70
3020
  9
$CMLSTYLE
  2
Standard
  9
$CMLJUST
 70
0
  9
$CMLSCALE
 40
20.0
  9
$PROXYGRAPHICS
 70
1
  9
$MEASUREMENT
 70
1
  9
$CELWEIGHT
370
-1
  9
$ENDCAPS
280
0
  9
$JOINSTYLE
280
0
  9
$LWDISPLAY
290
0
  9
$INSUNITS
 70
4
  9
$HYPERLINKBASE
  1

  9
$STYLESHEET
  1

  9
$XEDIT
290
1
  9
$CEPSNTYPE
380
0
  9
$PSTYLEMODE
290
1
  9
$EXTNAMES
290
1
  9
$PSVPSCALE
 40
0.02
  9
$OLESTARTUP
290
0
  9
$SORTENTS
280
127
  9
$INDEXCTL
280
0
  9
$HIDETEXT
280
1
  9
$XCLIPFRAME
290
0
  9
$HALOGAP
280
0
  9
$OBSCOLOR
 70
257
  9
$OBSLTYPE
280
0
  9
$INTERSECTIONDISPLAY
280
0
  9
$INTERSECTIONCOLOR
 70
257
  9
$DIMASSOC
280
1
  9
$PROJECTNAME
  1

  9
$CAMERADISPLAY
290
0
  9
$LENSLENGTH
 40
50.0
  9
$CAMERAHEIGHT
 40
0.0
  9
$STEPSPERSEC
 40
2.0
  9
$STEPSIZE
 40
50.0
  9
$3DDWFPREC
 40
2.0
  9
$PSOLWIDTH
 40
5.0
  9
$PSOLHEIGHT
 40
80.0
  9
$LOFTANG1
 40
1.570796326794897
  9
$LOFTANG2
 40
1.570796326794897
  9
$LOFTMAG1
 40
0.0
  9
$LOFTMAG2
 40
0.0
  9
$LOFTPARAM
 70
7
  9
$LOFTNORMALS
280
1
  9
$LATITUDE
 40
1.0
  9
$LONGITUDE
 40
1.0
  9
$NORTHDIRECTION
 40
0.0
  9
$TIMEZONE
 70
-8000
  9
$LIGHTGLYPHDISPLAY
280
1
  9
$TILEMODELIGHTSYNCH
280
1
  9
$SOLIDHIST
280
1
  9
$SHOWHIST
280
1
  9
$DWFFRAME
280
2
  9
$DGNFRAME
280
0
  9
$REALWORLDSCALE
290
1
  9
$INTERFERECOLOR
 62
1
  9
$CSHADOW
280
0
  9
$SHADOWPLANELOCATION
 40
0.0
  9
$TDUPDATE
 40
2458439.913263889
  9
$VERSIONGUID
  2
2216F5F4-E9D1-11E8-A5E9-D8CB8A9961D7
  0
ENDSEC
  0
SECTION
  2
CLASSES
  0
CLASS
  1
ACDBDICTIONARYWDFLT
  2
AcDbDictionaryWithDefault
  3
ObjectDBX Classes
 90
0
 91
0
280
0
281
0
  0
ENDSEC
  0
SECTION
  2
TABLES
  0
TABLE
  2
VPORT
  5
8
330
0
100
AcDbSymbolTable
 70
1
  0
VPORT
  5
31
330
8
100
AcDbSymbolTableRecord
100
AcDbViewportTableRecord
  2
*ACTIVE
 70
0
 10
0.0
 20
0.0
 11
1.0
 21
1.0
 12
7611.940298507463
 22
2115.671641791045
 13
0.0
 23
0.0
 14
10.0
 24
10.0
 15
10.0
 25
10.0
 16
0.0
 26
0.0
 36
1.0
 17
0.0
 27
0.0
 37
0.0
 40
17305.97014925373
 41
1.239327296248383
 42
50.0
 43
0.0
 44
0.0
 50
0.0
 51
0.0
 71
0
 72
100
 73
1
 74
3
 75
0
 76
1
 77
0
 78
0
281
0
 65
1
110
0.0
120
0.0
130
0.0
111
1.0
121
0.0
131
0.0
112
0.0
122
1.0
132
0.0
 79
0
146
0.0
348
10020
 60
7
 61
5
292
1
282
1
141
0.0
142
0.0
 63
250
421
3358443
  0
ENDTAB
  0
TABLE
  2
LTYPE
  5
5
330
0
100
AcDbSymbolTable
 70
27
  0
LTYPE
  5
14
330
5
100
AcDbSymbolTableRecord
100
AcDbLinetypeTableRecord
  2
ByBlock
 70
0
  3

 72
65
 73
0
 40
0.0
  0
LTYPE
  5
15
330
5
100
AcDbSymbolTableRecord
100
AcDbLinetypeTableRecord
  2
ByLayer
 70
0
  3

 72
65
 73
0
 40
0.0
  0
LTYPE
  5
16
330
5
100
AcDbSymbolTableRecord
100
AcDbLinetypeTableRecord
  2
Continuous
 70
0
  3
Solid line
 72
65
 73
0
 40
0.0
  0
LTYPE
  5
32
330
5
100
AcDbSymbolTableRecord
100
AcDbLinetypeTableRecord
  2
DOT
 70
0
  3
Dot . . . . . . . . . . . . . . . . . . . . . .
 72
65
 73
2
 40
6.35
 49
0.0
 74
0
 49
-6.35
 74
0
  0
LTYPE
  5
33
330
5
100
AcDbSymbolTableRecord
100
AcDbLinetypeTableRecord
  2
DOTTINY
 70
0
  3
Dot (.15x) .....................................
 72
65
 73
2
 40
0.9525
 49
0.0
 74
0
 49
-0.9525
 74
0
  0
LTYPE
  5
34
330
5
100
AcDbSymbolTableRecord
100
AcDbLinetypeTableRecord
  2
DOT2
 70
0
  3
Dot (.5x) .....................................
 72
65
 73
2
 40
3.175
 49
0.0
 74
0
 49
-3.175
 74
0
  0
LTYPE
  5
35
330
5
100
AcDbSymbolTableRecord
100
AcDbLinetypeTableRecord
  2
DOTX2
 70
0
  3
Dot (2x) .  .  .  .  .  .  .  .  .  .  .  .  .
 72
65
 73
2
 40
12.7
 49
0.0
 74
0
 49
-12.7
 74
0
  0
LTYPE
  5
36
330
5
100
AcDbSymbolTableRecord
100
AcDbLinetypeTableRecord
  2
DASHED
 70
0
  3
Dashed _ _ _ _ _ _ _ _ _ _ _ _ _ _ _ _ _
 72
65
 73
2
 40
19.05
 49
12.7
 74
0
 49
-6.35
 74
0
  0
LTYPE
  5
37
330
5
100
AcDbSymbolTableRecord
100
AcDbLinetypeTableRecord
  2
DASHEDTINY
 70
0
  3
Dashed (.15x) _ _ _ _ _ _ _ _ _ _ _ _ _ _ _ _ _
 72
65
 73
2
 40
2.8575
 49
1.905
 74
0
 49
-0.9525
 74
0
  0
LTYPE
  5
38
330
5
100
AcDbSymbolTableRecord
100
AcDbLinetypeTableRecord
  2
DASHED2
 70
0
  3
Dashed (.5x) _ _ _ _ _ _ _ _ _ _ _ _ _ _ _ _ _
 72
65
 73
2
 40
9.524999999999999
 49
6.35
 74
0
 49
-3.175
 74
0
  0
LTYPE
  5
39
330
5
100
AcDbSymbolTableRecord
100
AcDbLinetypeTableRecord
  2
DASHEDX2
 70
0
  3
Dashed (2x) ____  ____  ____  ____  ____  ___
 72
65
 73
2
 40
38.09999999999999
 49
25.4
 74
0
 49
-12.7
 74
0
  0
LTYPE
  5
3A
330
5
100
AcDbSymbolTableRecord
100
AcDbLinetypeTableRecord
  2
DASHDOT
 70
0
  3
Dash dot __ . __ . __ . __ . __ . __ . __ . __
 72
65
 73
4
 40
25.4
 49
12.7
 74
0
 49
-6.35
 74
0
 49
0.0
 74
0
 49
-6.35
 74
0
  0
LTYPE
  5
3B
330
5
100
AcDbSymbolTableRecord
100
AcDbLinetypeTableRecord
  2
DASHDOTTINY
 70
0
  3
Dash dot (.15x) _._._._._._._._._._._._._._._.
 72
65
 73
4
 40
3.81
 49
1.905
 74
0
 49
-0.9525
 74
0
 49
0.0
 74
0
 49
-0.9525
 74
0
  0
LTYPE
  5
3C
330
5
100
AcDbSymbolTableRecord
100
AcDbLinetypeTableRecord
  2
DASHDOT2
 70
0
  3
Dash dot (.5x) _._._._._._._._._._._._._._._.
 72
65
 73
4
 40
12.7
 49
6.35
 74
0
 49
-3.175
 74
0
 49
0.0
 74
0
 49
-3.175
 74
0
  0
LTYPE
  5
3D
330
5
100
AcDbSymbolTableRecord
100
AcDbLinetypeTableRecord
  2
DASHDOTX2
 70
0
  3
Dash dot (2x) ____  .  ____  .  ____  .  ___
 72
65
 73
4
 40
50.8
 49
25.4
 74
0
 49
-12.7
 74
0
 49
0.0
 74
0
 49
-12.7
 74
0
  0
LTYPE
  5
3E
330
5
100
AcDbSymbolTableRecord
100
AcDbLinetypeTableRecord
  2
DIVIDE
 70
0
  3
Divide ____ . . ____ . . ____ . . ____ . . ____
 72
65
 73
6
 40
31.75
 49
12.7
 74
0
 49
-6.35
 74
0
 49
0.0
 74
0
 49
-6.35
 74
0
 49
0.0
 74
0
 49
-6.35
 74
0
  0
LTYPE
  5
3F
330
5
100
AcDbSymbolTableRecord
100
AcDbLinetypeTableRecord
  2
DIVIDETINY
 70
0
  3
Divide (.15x) __..__..__..__..__..__..__..__.._
 72
65
 73
6
 40
4.7625
 49
1.905
 74
0
 49
-0.9525
 74
0
 49
0.0
 74
0
 49
-0.9525
 74
0
 49
0.0
 74
0
 49
-0.9525
 74
0
  0
LTYPE
  5
40
330
5
100
AcDbSymbolTableRecord
100
AcDbLinetypeTableRecord
  2
DIVIDE2
 70
0
  3
Divide (.5x) __..__..__..__..__..__..__..__.._
 72
65
 73
6
 40
15.875
 49
6.35
 74
0
 49
-3.175
 74
0
 49
0.0
 74
0
 49
-3.175
 74
0
 49
0.0
 74
0
 49
-3.175
 74
0
  0
LTYPE
  5
41
330
5
100
AcDbSymbolTableRecord
100
AcDbLinetypeTableRecord
  2
DIVIDEX2
 70
0
  3
Divide (2x) ________  .  .  ________  .  .  _
 72
65
 73
6
 40
63.5
 49
25.4
 74
0
 49
-12.7
 74
0
 49
0.0
 74
0
 49
-12.7
 74
0
 49
0.0
 74
0
 49
-12.7
 74
0
  0
LTYPE
  5
42
330
5
100
AcDbSymbolTableRecord
100
AcDbLinetypeTableRecord
  2
BORDER
 70
0
  3
Border __ __ . __ __ . __ __ . __ __ . __ __ .
 72
65
 73
6
 40
44.45
 49
12.7
 74
0
 49
-6.35
 74
0
 49
12.7
 74
0
 49
-6.35
 74
0
 49
0.0
 74
0
 49
-6.35
 74
0
  0
LTYPE
  5
43
330
5
100
AcDbSymbolTableRecord
100
AcDbLinetypeTableRecord
  2
BORDERTINY
 70
0
  3
Border (.15x) __.__.__.__.__.__.__.__.__.__.__.
 72
65
 73
6
 40
6.6675
 49
1.905
 74
0
 49
-0.9525
 74
0
 49
1.905
 74
0
 49
-0.9525
 74
0
 49
0.0
 74
0
 49
-0.9525
 74
0
  0
LTYPE
  5
44
330
5
100
AcDbSymbolTableRecord
100
AcDbLinetypeTableRecord
  2
BORDER2
 70
0
  3
Border (.5x) __.__.__.__.__.__.__.__.__.__.__.
 72
65
 73
6
 40
22.225
 49
6.35
 74
0
 49
-3.175
 74
0
 49
6.35
 74
0
 49
-3.175
 74
0
 49
0.0
 74
0
 49
-3.175
 74
0
  0
LTYPE
  5
45
330
5
100
AcDbSymbolTableRecord
100
AcDbLinetypeTableRecord
  2
BORDERX2
 70
0
  3
Border (2x) ____  ____  .  ____  ____  .  ___
 72
65
 73
6
 40
88.89999999999999
 49
25.4
 74
0
 49
-12.7
 74
0
 49
25.4
 74
0
 49
-12.7
 74
0
 49
0.0
 74
0
 49
-12.7
 74
0
  0
LTYPE
  5
46
330
5
100
AcDbSymbolTableRecord
100
AcDbLinetypeTableRecord
  2
CENTER
 70
0
  3
Center ____ _ ____ _ ____ _ ____ _ ____ _ ____
 72
65
 73
4
 40
50.8
 49
31.75
 74
0
 49
-6.35
 74
0
 49
6.35
 74
0
 49
-6.35
 74
0
  0
LTYPE
  5
47
330
5
100
AcDbSymbolTableRecord
100
AcDbLinetypeTableRecord
  2
CENTERTINY
 70
0
  3
Center (.15x) ___ _ ___ _ ___ _ ___ _ ___ _ ___
 72
65
 73
4
 40
7.619999999999999
 49
4.7625
 74
0
 49
-0.9525
 74
0
 49
0.9525
 74
0
 49
-0.9525
 74
0
  0
LTYPE
  5
48
330
5
100
AcDbSymbolTableRecord
100
AcDbLinetypeTableRecord
  2
CENTER2
 70
0
  3
Center (.5x) ___ _ ___ _ ___ _ ___ _ ___ _ ___
 72
65
 73
4
 40
28.575
 49
19.05
 74
0
 49
-3.175
 74
0
 49
3.175
 74
0
 49
-3.175
 74
0
  0
LTYPE
  5
49
330
5
100
AcDbSymbolTableRecord
100
AcDbLinetypeTableRecord
  2
CENTERX2
 70
0
  3
Center (2x) ________  __  ________  __  _____
 72
65
 73
4
 40
101.6
 49
63.5
 74
0
 49
-12.7
 74
0
 49
12.7
 74
0
 49
-12.7
 74
0
  0
ENDTAB
  0
TABLE
  2
LAYER
  5
2
330
0
100
AcDbSymbolTable
 70
21
  0
LAYER
  5
10
330
2
100
AcDbSymbolTableRecord
100
AcDbLayerTableRecord
  2
0
 70
4
 62
7
  6
CONTINUOUS
370
-3
390
F
  0
LAYER
  5
4A
330
2
100
AcDbSymbolTableRecord
100
AcDbLayerTableRecord
  2
01-sheet-border-inner
 70
4
 62
7
  6
CONTINUOUS
370
50
390
F
  0
LAYER
  5
4B
330
2
100
AcDbSymbolTableRecord
100
AcDbLayerTableRecord
  2
01-sheet-border-outer
 70
4
 62
7
  6
CONTINUOUS
290
0
370
0
390
F
  0
LAYER
  5
4C
330
2
100
AcDbSymbolTableRecord
100
AcDbLayerTableRecord
  2
01-sheet-construction
 70
5
 62
176
420
128
  6
CONTINUOUS
290
0
370
-3
390
F
1001
LibreCad
1070
1
  0
LAYER
  5
4D
330
2
100
AcDbSymbolTableRecord
100
AcDbLayerTableRecord
  2
02-title-block-construction
 70
5
 62
176
420
128
  6
CONTINUOUS
290
0
370
-3
390
F
1001
LibreCad
1070
1
  0
LAYER
  5
4E
330
2
100
AcDbSymbolTableRecord
100
AcDbLayerTableRecord
  2
02-title-block-table
 70
4
 62
7
  6
CONTINUOUS
370
50
390
F
  0
LAYER
  5
4F
330
2
100
AcDbSymbolTableRecord
100
AcDbLayerTableRecord
  2
02-title-block-text
 70
4
 62
7
  6
CONTINUOUS
370
9
390
F
  0
LAYER
  5
50
330
2
100
AcDbSymbolTableRecord
100
AcDbLayerTableRecord
  2
03-explication-construction
 70
5
 62
176
420
128
  6
CONTINUOUS
290
0
370
0
390
F
1001
LibreCad
1070
1
  0
LAYER
  5
51
330
2
100
AcDbSymbolTableRecord
100
AcDbLayerTableRecord
  2
03-explication-table
 70
4
 62
7
  6
CONTINUOUS
370
50
390
F
  0
LAYER
  5
52
330
2
100
AcDbSymbolTableRecord
100
AcDbLayerTableRecord
  2
03-explication-text
 70
4
 62
7
  6
CONTINUOUS
370
9
390
F
  0
LAYER
  5
53
330
2
100
AcDbSymbolTableRecord
100
AcDbLayerTableRecord
  2
area-border
 70
5
 62
16
420
8388608
  6
CONTINUOUS
290
0
370
0
390
F
  0
LAYER
  5
54
330
2
100
AcDbSymbolTableRecord
100
AcDbLayerTableRecord
  2
area-hatch
 70
5
 62
16
420
8388608
  6
CONTINUOUS
290
0
370
0
390
F
  0
LAYER
  5
55
330
2
100
AcDbSymbolTableRecord
100
AcDbLayerTableRecord
  2
construction
 70
5
 62
176
420
128
  6
CONTINUOUS
290
0
370
0
390
F
1001
LibreCad
1070
1
  0
LAYER
  5
56
330
2
100
AcDbSymbolTableRecord
100
AcDbLayerTableRecord
  2
dimension
 70
4
 62
7
  6
CONTINUOUS
370
9
390
F
  0
LAYER
  5
57
330
2
100
AcDbSymbolTableRecord
100
AcDbLayerTableRecord
  2
door
 70
4
 62
7
  6
CONTINUOUS
370
20
390
F
  0
LAYER
  5
58
330
2
100
AcDbSymbolTableRecord
100
AcDbLayerTableRecord
  2
pipe
 70
4
 62
7
  6
CONTINUOUS
370
9
390
F
  0
LAYER
  5
59
330
2
100
AcDbSymbolTableRecord
100
AcDbLayerTableRecord
  2
room-num
 70
4
 62
7
  6
CONTINUOUS
370
9
390
F
  0
LAYER
  5
5A
330
2
100
AcDbSymbolTableRecord
100
AcDbLayerTableRecord
  2
thing
 70
4
 62
7
  6
CONTINUOUS
370
9
390
F
  0
LAYER
  5
5B
330
2
100
AcDbSymbolTableRecord
100
AcDbLayerTableRecord
  2
wall
 70
4
 62
7
  6
CONTINUOUS
370
35
390
F
  0
LAYER
  5
5C
330
2
100
AcDbSymbolTableRecord
100
AcDbLayerTableRecord
  2
wall-hatch
 70
4
 62
7
  6
CONTINUOUS
370
0
390
F
  0
LAYER
  5
5D
330
2
100
AcDbSymbolTableRecord
100
AcDbLayerTableRecord
  2
window
 70
4
 62
7
  6
CONTINUOUS
370
20
390
F
  0
ENDTAB
  0
TABLE
  2
STYLE
  5
3
330
0
100
AcDbSymbolTable
 70
2
  0
STYLE
  5
5E
330
3
100
AcDbSymbolTableRecord
100
AcDbTextStyleTableRecord
  2
unicode
 70
0
 40
0.0
 41
1.0
 50
0.0
 71
0
 42
1.0
  3
unicode
  4

  0
STYLE
  5
5F
330
3
100
AcDbSymbolTableRecord
100
AcDbTextStyleTableRecord
  2
Standard
 70
0
 40
0.0
 41
1.0
 50
0.0
 71
0
 42
1.0
  3
txt
  4

  0
ENDTAB
  0
TABLE
  2
VIEW
  5
6
330
0
100
AcDbSymbolTable
 70
0
  0
ENDTAB
  0
TABLE
  2
UCS
  5
7
330
0
100
AcDbSymbolTable
 70
0
  0
ENDTAB
  0
TABLE
  2
APPID
  5
9
330
0
100
AcDbSymbolTable
 70
2
  0
APPID
  5
12
330
9
100
AcDbSymbolTableRecord
100
AcDbRegAppTableRecord
  2
ACAD
 70
0
  0
APPID
  5
60
330
9
100
AcDbSymbolTableRecord
100
AcDbRegAppTableRecord
  2
LibreCad
 70
0
  0
ENDTAB
  0
TABLE
  2
DIMSTYLE
  5
A
330
0
100
AcDbSymbolTable
 70
1
100
AcDbDimStyleTable
 71
1
  0
DIMSTYLE
105
61
330
A
100
AcDbSymbolTableRecord
100
AcDbDimStyleTableRecord
  2
Standard
 70
0
 40
50.0
 41
2.5
 42
0.625
 43
0.38
 44
0.125
 45
0.0
 46
0.0
 47
0.0
 48
0.0
 49
1.0
140
1.8
141
0.09
142
1.5
143
25.4
144
1.0
145
0.0
146
1.0
147
0.625
148
0.0
 71
0
 72
0
 73
0
 74
1
 75
0
 76
0
 77
0
 78
1
 79
0
170
0
171
2
172
0
173
0
174
0
175
0
176
0
177
0
178
0
179
0
271
0
272
4
273
2
274
2
275
0
276
0
277
2
278
0
279
0
280
0
281
0
282
0
283
1
284
0
285
0
286
0
288
0
289
3
340
standard
341

371
-2
372
-2
  0
ENDTAB
  0
TABLE
  2
BLOCK_RECORD
  5
1
330
0
100
AcDbSymbolTable
 70
63
  0
BLOCK_RECORD
  5
1F
330
1
100
AcDbSymbolTableRecord
100
AcDbBlockTableRecord
  2
*Model_Space
 70
0
280
1
281
0
340
2000B
  0
BLOCK_RECORD
  5
1E
330
1
100
AcDbSymbolTableRecord
100
AcDbBlockTableRecord
  2
*Paper_Space
 70
0
280
1
281
0
340
2000C
  0
BLOCK_RECORD
  5
62
330
1
100
AcDbSymbolTableRecord
100
AcDbBlockTableRecord
  2
*D26
 70
0
280
1
281
0
  0
BLOCK_RECORD
  5
65
330
1
100
AcDbSymbolTableRecord
100
AcDbBlockTableRecord
  2
*D38
 70
0
280
1
281
0
  0
BLOCK_RECORD
  5
68
330
1
100
AcDbSymbolTableRecord
100
AcDbBlockTableRecord
  2
*D11
 70
0
280
1
281
0
  0
BLOCK_RECORD
  5
6B
330
1
100
AcDbSymbolTableRecord
100
AcDbBlockTableRecord
  2
*D36
 70
0
280
1
281
0
  0
BLOCK_RECORD
  5
6E
330
1
100
AcDbSymbolTableRecord
100
AcDbBlockTableRecord
  2
*D49
 70
0
280
1
281
0
  0
BLOCK_RECORD
  5
71
330
1
100
AcDbSymbolTableRecord
100
AcDbBlockTableRecord
  2
*D29
 70
0
280
1
281
0
  0
BLOCK_RECORD
  5
74
330
1
100
AcDbSymbolTableRecord
100
AcDbBlockTableRecord
  2
*D32
 70
0
280
1
281
0
  0
BLOCK_RECORD
  5
77
330
1
100
AcDbSymbolTableRecord
100
AcDbBlockTableRecord
  2
*D45
 70
0
280
1
281
0
  0
BLOCK_RECORD
  5
7A
330
1
100
AcDbSymbolTableRecord
100
AcDbBlockTableRecord
  2
*D57
 70
0
280
1
281
0
  0
BLOCK_RECORD
  5
7D
330
1
100
AcDbSymbolTableRecord
100
AcDbBlockTableRecord
  2
*D59
 70
0
280
1
281
0
  0
BLOCK_RECORD
  5
80
330
1
100
AcDbSymbolTableRecord
100
AcDbBlockTableRecord
  2
*D44
 70
0
280
1
281
0
  0
BLOCK_RECORD
  5
83
330
1
100
AcDbSymbolTableRecord
100
AcDbBlockTableRecord
  2
*D10
 70
0
280
1
281
0
  0
BLOCK_RECORD
  5
86
330
1
100
AcDbSymbolTableRecord
100
AcDbBlockTableRecord
  2
*D4
 70
0
280
1
281
0
  0
BLOCK_RECORD
  5
89
330
1
100
AcDbSymbolTableRecord
100
AcDbBlockTableRecord
  2
*D5
 70
0
280
1
281
0
  0
BLOCK_RECORD
  5
8C
330
1
100
AcDbSymbolTableRecord
100
AcDbBlockTableRecord
  2
*D2
 70
0
280
1
281
0
  0
BLOCK_RECORD
  5
8F
330
1
100
AcDbSymbolTableRecord
100
AcDbBlockTableRecord
  2
*D41
 70
0
280
1
281
0
  0
BLOCK_RECORD
  5
92
330
1
100
AcDbSymbolTableRecord
100
AcDbBlockTableRecord
  2
*D31
 70
0
280
1
281
0
  0
BLOCK_RECORD
  5
95
330
1
100
AcDbSymbolTableRecord
100
AcDbBlockTableRecord
  2
*D17
 70
0
280
1
281
0
  0
BLOCK_RECORD
  5
98
330
1
100
AcDbSymbolTableRecord
100
AcDbBlockTableRecord
  2
*D20
 70
0
280
1
281
0
  0
BLOCK_RECORD
  5
9B
330
1
100
AcDbSymbolTableRecord
100
AcDbBlockTableRecord
  2
*D9
 70
0
280
1
281
0
  0
BLOCK_RECORD
  5
9E
330
1
100
AcDbSymbolTableRecord
100
AcDbBlockTableRecord
  2
*D21
 70
0
280
1
281
0
  0
BLOCK_RECORD
  5
A1
330
1
100
AcDbSymbolTableRecord
100
AcDbBlockTableRecord
  2
*D3
 70
0
280
1
281
0
  0
BLOCK_RECORD
  5
A4
330
1
100
AcDbSymbolTableRecord
100
AcDbBlockTableRecord
  2
*D27
 70
0
280
1
281
0
  0
BLOCK_RECORD
  5
A7
330
1
100
AcDbSymbolTableRecord
100
AcDbBlockTableRecord
  2
*D47
 70
0
280
1
281
0
  0
BLOCK_RECORD
  5
AA
330
1
100
AcDbSymbolTableRecord
100
AcDbBlockTableRecord
  2
*D16
 70
0
280
1
281
0
  0
BLOCK_RECORD
  5
AD
330
1
100
AcDbSymbolTableRecord
100
AcDbBlockTableRecord
  2
*D23
 70
0
280
1
281
0
  0
BLOCK_RECORD
  5
B0
330
1
100
AcDbSymbolTableRecord
100
AcDbBlockTableRecord
  2
*D58
 70
0
280
1
281
0
  0
BLOCK_RECORD
  5
B3
330
1
100
AcDbSymbolTableRecord
100
AcDbBlockTableRecord
  2
*D37
 70
0
280
1
281
0
  0
BLOCK_RECORD
  5
B6
330
1
100
AcDbSymbolTableRecord
100
AcDbBlockTableRecord
  2
*D55
 70
0
280
1
281
0
  0
BLOCK_RECORD
  5
B9
330
1
100
AcDbSymbolTableRecord
100
AcDbBlockTableRecord
  2
*D8
 70
0
280
1
281
0
  0
BLOCK_RECORD
  5
BC
330
1
100
AcDbSymbolTableRecord
100
AcDbBlockTableRecord
  2
*D39
 70
0
280
1
281
0
  0
BLOCK_RECORD
  5
BF
330
1
100
AcDbSymbolTableRecord
100
AcDbBlockTableRecord
  2
*D50
 70
0
280
1
281
0
  0
BLOCK_RECORD
  5
C2
330
1
100
AcDbSymbolTableRecord
100
AcDbBlockTableRecord
  2
*D14
 70
0
280
1
281
0
  0
BLOCK_RECORD
  5
C5
330
1
100
AcDbSymbolTableRecord
100
AcDbBlockTableRecord
  2
*D46
 70
0
280
1
281
0
  0
BLOCK_RECORD
  5
C8
330
1
100
AcDbSymbolTableRecord
100
AcDbBlockTableRecord
  2
*D28
 70
0
280
1
281
0
  0
BLOCK_RECORD
  5
CB
330
1
100
AcDbSymbolTableRecord
100
AcDbBlockTableRecord
  2
*D15
 70
0
280
1
281
0
  0
BLOCK_RECORD
  5
CE
330
1
100
AcDbSymbolTableRecord
100
AcDbBlockTableRecord
  2
*D1
 70
0
280
1
281
0
  0
BLOCK_RECORD
  5
D1
330
1
100
AcDbSymbolTableRecord
100
AcDbBlockTableRecord
  2
*D34
 70
0
280
1
281
0
  0
BLOCK_RECORD
  5
D4
330
1
100
AcDbSymbolTableRecord
100
AcDbBlockTableRecord
  2
*D18
 70
0
280
1
281
0
  0
BLOCK_RECORD
  5
D7
330
1
100
AcDbSymbolTableRecord
100
AcDbBlockTableRecord
  2
*D52
 70
0
280
1
281
0
  0
BLOCK_RECORD
  5
DA
330
1
100
AcDbSymbolTableRecord
100
AcDbBlockTableRecord
  2
*D56
 70
0
280
1
281
0
  0
BLOCK_RECORD
  5
DD
330
1
100
AcDbSymbolTableRecord
100
AcDbBlockTableRecord
  2
*D19
 70
0
280
1
281
0
  0
BLOCK_RECORD
  5
E0
330
1
100
AcDbSymbolTableRecord
100
AcDbBlockTableRecord
  2
*D53
 70
0
280
1
281
0
  0
BLOCK_RECORD
  5
E3
330
1
100
AcDbSymbolTableRecord
100
AcDbBlockTableRecord
  2
*D33
 70
0
280
1
281
0
  0
BLOCK_RECORD
  5
E6
330
1
100
AcDbSymbolTableRecord
100
AcDbBlockTableRecord
  2
*D13
 70
0
280
1
281
0
  0
BLOCK_RECORD
  5
E9
330
1
100
AcDbSymbolTableRecord
100
AcDbBlockTableRecord
  2
*D25
 70
0
280
1
281
0
  0
BLOCK_RECORD
  5
EC
330
1
100
AcDbSymbolTableRecord
100
AcDbBlockTableRecord
  2
*D7
 70
0
280
1
281
0
  0
BLOCK_RECORD
  5
EF
330
1
100
AcDbSymbolTableRecord
100
AcDbBlockTableRecord
  2
*D24
 70
0
280
1
281
0
  0
BLOCK_RECORD
  5
F2
330
1
100
AcDbSymbolTableRecord
100
AcDbBlockTableRecord
  2
*D12
 70
0
280
1
281
0
  0
BLOCK_RECORD
  5
F5
330
1
100
AcDbSymbolTableRecord
100
AcDbBlockTableRecord
  2
*D6
 70
0
280
1
281
0
  0
BLOCK_RECORD
  5
F8
330
1
100
AcDbSymbolTableRecord
100
AcDbBlockTableRecord
  2
*D30
 70
0
280
1
281
0
  0
BLOCK_RECORD
  5
FB
330
1
100
AcDbSymbolTableRecord
100
AcDbBlockTableRecord
  2
*D51
 70
0
280
1
281
0
  0
BLOCK_RECORD
  5
FE
330
1
100
AcDbSymbolTableRecord
100
AcDbBlockTableRecord
  2
*D54
 70
0
280
1
281
0
  0
BLOCK_RECORD
  5
101
330
1
100
AcDbSymbolTableRecord
100
AcDbBlockTableRecord
  2
*D40
 70
0
280
1
281
0
  0
BLOCK_RECORD
  5
104
330
1
100
AcDbSymbolTableRecord
100
AcDbBlockTableRecord
  2
*D22
 70
0
280
1
281
0
  0
BLOCK_RECORD
  5
107
330
1
100
AcDbSymbolTableRecord
100
AcDbBlockTableRecord
  2
*D42
 70
0
280
1
281
0
  0
BLOCK_RECORD
  5
10A
330
1
100
AcDbSymbolTableRecord
100
AcDbBlockTableRecord
  2
*D43
 70
0
280
1
281
0
  0
BLOCK_RECORD
  5
10D
330
1
100
AcDbSymbolTableRecord
100
AcDbBlockTableRecord
  2
*D35
 70
0
280
1
281
0
  0
BLOCK_RECORD
  5
110
330
1
100
AcDbSymbolTableRecord
100
AcDbBlockTableRecord
  2
*D48
 70
0
280
1
281
0
  0
BLOCK_RECORD
  5
113
330
1
100
AcDbSymbolTableRecord
100
AcDbBlockTableRecord
  2
explication-1-800-1
 70
0
280
1
281
0
  0
BLOCK_RECORD
  5
116
330
1
100
AcDbSymbolTableRecord
100
AcDbBlockTableRecord
  2
sheet-A3-border
 70
0
280
1
281
0
  0
ENDTAB
  0
ENDSEC
  0
SECTION
  2
BLOCKS
  0
BLOCK
  5
A8
330
A7
100
AcDbEntity
  8
0
100
AcDbBlockBegin
  2
*D47
 70
1
 10
0.0
 20
0.0
  3
*D47
  1

  0
LINE
  5
1A3
100
AcDbEntity
  8
dimension
  6
ByBlock
 62
0
370
-2
100
AcDbLine
 10
4500.0
 20
-7420.0
 11
4500.0
 21
-6690.0
  0
MTEXT
  5
1A4
100
AcDbEntity
  8
dimension
  6
CONTINUOUS
 62
0
370
-2
100
AcDbMText
 10
4423.75
 20
-7055.0
 30
0.0
 40
90.0
 41
180.0000000000056
 71
5
 72
1
  1
730
  7
standard
210
0.0
220
0.0
230
1.0
 50
90.0
 73
2
 44
1.0
  0
LINE
  5
1A5
100
AcDbEntity
  8
dimension
  6
ByBlock
 62
0
370
-2
100
AcDbLine
 10
4446.966991411009
 20
-7366.966991411009
 11
4553.033008588991
 21
-7473.033008588991
  0
LINE
  5
1A6
100
AcDbEntity
  8
dimension
  6
ByBlock
 62
0
370
-2
100
AcDbLine
 10
4446.966991411009
 20
-6636.966991411009
 11
4553.033008588991
 21
-6743.033008588991
  0
LINE
  5
1A7
100
AcDbEntity
  8
dimension
  6
ByBlock
 62
0
370
-2
100
AcDbLine
 10
4136.25
 20
-7420.0
 11
4506.25
 21
-7420.0
  0
LINE
  5
1A8
100
AcDbEntity
  8
dimension
  6
ByBlock
 62
0
370
-2
100
AcDbLine
 10
4136.25
 20
-6690.0
 11
4506.25
 21
-6690.0
  0
ENDBLK
  5
A9
330
A7
100
AcDbEntity
  8
0
100
AcDbBlockEnd
  0
BLOCK
  5
108
330
107
100
AcDbEntity
  8
0
100
AcDbBlockBegin
  2
*D42
 70
1
 10
0.0
 20
0.0
  3
*D42
  1

  0
LINE
  5
263
100
AcDbEntity
  8
dimension
  6
ByBlock
 62
0
370
-2
100
AcDbLine
 10
2000.0
 20
-5400.0
 11
2000.0
 21
-7570.0
  0
MTEXT
  5
264
100
AcDbEntity
  8
dimension
  6
CONTINUOUS
 62
0
370
-2
100
AcDbMText
 10
1923.75
 20
-6485.0
 30
0.0
 40
90.0
 41
230.0
 71
5
 72
1
  1
2170
  7
standard
210
0.0
220
0.0
230
1.0
 50
90.0
 73
2
 44
1.0
  0
LINE
  5
265
100
AcDbEntity
  8
dimension
  6
ByBlock
 62
0
370
-2
100
AcDbLine
 10
2053.033008588991
 20
-5453.033008588991
 11
1946.966991411009
 21
-5346.966991411009
  0
LINE
  5
266
100
AcDbEntity
  8
dimension
  6
ByBlock
 62
0
370
-2
100
AcDbLine
 10
2053.033008588991
 20
-7623.033008588991
 11
1946.966991411009
 21
-7516.966991411009
  0
LINE
  5
267
100
AcDbEntity
  8
dimension
  6
ByBlock
 62
0
370
-2
100
AcDbLine
 10
1396.25
 20
-5400.0
 11
2006.25
 21
-5400.0
  0
LINE
  5
268
100
AcDbEntity
  8
dimension
  6
ByBlock
 62
0
370
-2
100
AcDbLine
 10
1396.25
 20
-7570.0
 11
2006.25
 21
-7570.0
  0
ENDBLK
  5
109
330
107
100
AcDbEntity
  8
0
100
AcDbBlockEnd
  0
BLOCK
  5
FF
330
FE
100
AcDbEntity
  8
0
100
AcDbBlockBegin
  2
*D54
 70
1
 10
0.0
 20
0.0
  3
*D54
  1

  0
LINE
  5
251
100
AcDbEntity
  8
dimension
  6
ByBlock
 62
0
370
-2
100
AcDbLine
 10
5600.0
 20
250.0
 11
5600.0
 21
-450.0
  0
MTEXT
  5
252
100
AcDbEntity
  8
dimension
  6
CONTINUOUS
 62
0
370
-2
100
AcDbMText
 10
5523.75
 20
-99.99999999999999
 30
0.0
 40
90.0
 41
180.0
 71
5
 72
1
  1
200
  7
standard
210
0.0
220
0.0
230
1.0
 50
90.0
 73
2
 44
1.0
  0
LINE
  5
253
100
AcDbEntity
  8
dimension
  6
ByBlock
 62
0
370
-2
100
AcDbLine
 10
5546.966991411009
 20
53.03300858899107
 11
5653.033008588991
 21
-53.03300858899107
  0
LINE
  5
254
100
AcDbEntity
  8
dimension
  6
ByBlock
 62
0
370
-2
100
AcDbLine
 10
5546.966991411009
 20
-146.9669914110089
 11
5653.033008588991
 21
-253.0330085889911
  0
LINE
  5
255
100
AcDbEntity
  8
dimension
  6
ByBlock
 62
0
370
-2
100
AcDbLine
 10
5663.75
 20
3.827021247335479e-15
 11
5593.75
 21
7.654042494670958e-16
  0
LINE
  5
256
100
AcDbEntity
  8
dimension
  6
ByBlock
 62
0
370
-2
100
AcDbLine
 10
5663.75
 20
-200.0
 11
5593.75
 21
-200.0
  0
ENDBLK
  5
100
330
FE
100
AcDbEntity
  8
0
100
AcDbBlockEnd
  0
BLOCK
  5
C6
330
C5
100
AcDbEntity
  8
0
100
AcDbBlockBegin
  2
*D46
 70
1
 10
0.0
 20
0.0
  3
*D46
  1

  0
LINE
  5
1DF
100
AcDbEntity
  8
dimension
  6
ByBlock
 62
0
370
-2
100
AcDbLine
 10
4500.0
 20
-7820.0
 11
4500.0
 21
-7170.0
  0
MTEXT
  5
1E0
100
AcDbEntity
  8
dimension
  6
CONTINUOUS
 62
0
370
-2
100
AcDbMText
 10
4423.75
 20
-7308.749999999997
 30
0.0
 40
90.0
 41
160.0000000000056
 71
5
 72
1
  1
150
  7
standard
210
0.0
220
0.0
230
1.0
 50
90.0
 73
2
 44
1.0
  0
LINE
  5
1E1
100
AcDbEntity
  8
dimension
  6
ByBlock
 62
0
370
-2
100
AcDbLine
 10
4553.033008588991
 20
-7623.033008588991
 11
4446.966991411009
 21
-7516.966991411009
  0
LINE
  5
1E2
100
AcDbEntity
  8
dimension
  6
ByBlock
 62
0
370
-2
100
AcDbLine
 10
4553.033008588991
 20
-7473.033008588991
 11
4446.966991411009
 21
-7366.966991411009
  0
LINE
  5
1E3
100
AcDbEntity
  8
dimension
  6
ByBlock
 62
0
370
-2
100
AcDbLine
 10
4061.25
 20
-7570.0
 11
4506.25
 21
-7570.0
  0
LINE
  5
1E4
100
AcDbEntity
  8
dimension
  6
ByBlock
 62
0
370
-2
100
AcDbLine
 10
4061.25
 20
-7420.0
 11
4506.25
 21
-7420.0
  0
ENDBLK
  5
C7
330
C5
100
AcDbEntity
  8
0
100
AcDbBlockEnd
  0
BLOCK
  5
75
330
74
100
AcDbEntity
  8
0
100
AcDbBlockBegin
  2
*D32
 70
1
 10
0.0
 20
0.0
  3
*D32
  1

  0
LINE
  5
13D
100
AcDbEntity
  8
dimension
  6
ByBlock
 62
0
370
-2
100
AcDbLine
 10
500.0000000000003
 20
-5400.0
 11
500.0000000000003
 21
0.0
  0
MTEXT
  5
13E
100
AcDbEntity
  8
dimension
  6
CONTINUOUS
 62
0
370
-2
100
AcDbMText
 10
423.7500000000003
 20
-2700.0
 30
0.0
 40
90.0
 41
260.0000000000056
 71
5
 72
1
  1
5400
  7
standard
210
0.0
220
0.0
230
1.0
 50
90.0
 73
2
 44
1.0
  0
LINE
  5
13F
100
AcDbEntity
  8
dimension
  6
ByBlock
 62
0
370
-2
100
AcDbLine
 10
446.9669914110092
 20
-5346.966991411009
 11
553.0330085889914
 21
-5453.033008588991
  0
LINE
  5
140
100
AcDbEntity
  8
dimension
  6
ByBlock
 62
0
370
-2
100
AcDbLine
 10
446.9669914110092
 20
53.03300858899107
 11
553.0330085889914
 21
-53.03300858899107
  0
LINE
  5
141
100
AcDbEntity
  8
dimension
  6
ByBlock
 62
0
370
-2
100
AcDbLine
 10
31.25
 20
-5400.0
 11
506.2500000000003
 21
-5400.0
  0
LINE
  5
142
100
AcDbEntity
  8
dimension
  6
ByBlock
 62
0
370
-2
100
AcDbLine
 10
31.25
 20
0.0
 11
506.2500000000003
 21
0.0
  0
ENDBLK
  5
76
330
74
100
AcDbEntity
  8
0
100
AcDbBlockEnd
  0
BLOCK
  5
8A
330
89
100
AcDbEntity
  8
0
100
AcDbBlockBegin
  2
*D5
 70
1
 10
0.0
 20
0.0
  3
*D5
  1

  0
LINE
  5
167
100
AcDbEntity
  8
dimension
  6
ByBlock
 62
0
370
-2
100
AcDbLine
 10
2505.0
 20
-400.0
 11
2900.0
 21
-400.0
  0
MTEXT
  5
168
100
AcDbEntity
  8
dimension
  6
CONTINUOUS
 62
0
370
-2
100
AcDbMText
 10
2702.5
 20
-323.75
 30
0.0
 40
90.0
 41
180.0000000000112
 71
5
 72
1
  1
395
  7
standard
210
0.0
220
0.0
230
1.0
 50
0.0
 73
2
 44
1.0
  0
LINE
  5
169
100
AcDbEntity
  8
dimension
  6
ByBlock
 62
0
370
-2
100
AcDbLine
 10
2558.033008588991
 20
-346.966991411009
 11
2451.966991411009
 21
-453.033008588991
  0
LINE
  5
16A
100
AcDbEntity
  8
dimension
  6
ByBlock
 62
0
370
-2
100
AcDbLine
 10
2953.033008588991
 20
-346.966991411009
 11
2846.966991411009
 21
-453.033008588991
  0
LINE
  5
16B
100
AcDbEntity
  8
dimension
  6
ByBlock
 62
0
370
-2
100
AcDbLine
 10
2505.0
 20
-231.25
 11
2505.0
 21
-406.25
  0
LINE
  5
16C
100
AcDbEntity
  8
dimension
  6
ByBlock
 62
0
370
-2
100
AcDbLine
 10
2900.0
 20
-231.25
 11
2900.0
 21
-406.25
  0
ENDBLK
  5
8B
330
89
100
AcDbEntity
  8
0
100
AcDbBlockEnd
  0
BLOCK
  5
E1
330
E0
100
AcDbEntity
  8
0
100
AcDbBlockBegin
  2
*D53
 70
1
 10
0.0
 20
0.0
  3
*D53
  1

  0
LINE
  5
215
100
AcDbEntity
  8
dimension
  6
ByBlock
 62
0
370
-2
100
AcDbLine
 10
5400.0
 20
-5180.0
 11
5400.0
 21
-7570.0
  0
MTEXT
  5
216
100
AcDbEntity
  8
dimension
  6
CONTINUOUS
 62
0
370
-2
100
AcDbMText
 10
5323.75
 20
-6375.0
 30
0.0
 40
90.0
 41
250.0000000000056
 71
5
 72
1
  1
2390
  7
standard
210
0.0
220
0.0
230
1.0
 50
90.0
 73
2
 44
1.0
  0
LINE
  5
217
100
AcDbEntity
  8
dimension
  6
ByBlock
 62
0
370
-2
100
AcDbLine
 10
5453.033008588991
 20
-5233.033008588991
 11
5346.966991411009
 21
-5126.966991411009
  0
LINE
  5
218
100
AcDbEntity
  8
dimension
  6
ByBlock
 62
0
370
-2
100
AcDbLine
 10
5453.033008588991
 20
-7623.033008588991
 11
5346.966991411009
 21
-7516.966991411009
  0
LINE
  5
219
100
AcDbEntity
  8
dimension
  6
ByBlock
 62
0
370
-2
100
AcDbLine
 10
5763.75
 20
-5180.0
 11
5393.75
 21
-5180.0
  0
LINE
  5
21A
100
AcDbEntity
  8
dimension
  6
ByBlock
 62
0
370
-2
100
AcDbLine
 10
5763.75
 20
-7570.0
 11
5393.75
 21
-7570.0
  0
ENDBLK
  5
E2
330
E0
100
AcDbEntity
  8
0
100
AcDbBlockEnd
  0
BLOCK
  5
D2
330
D1
100
AcDbEntity
  8
0
100
AcDbBlockBegin
  2
*D34
 70
1
 10
0.0
 20
0.0
  3
*D34
  1

  0
LINE
  5
1F7
100
AcDbEntity
  8
dimension
  6
ByBlock
 62
0
370
-2
100
AcDbLine
 10
600.0
 20
-6230.0
 11
600.0
 21
-5500.0
  0
MTEXT
  5
1F8
100
AcDbEntity
  8
dimension
  6
CONTINUOUS
 62
0
370
-2
100
AcDbMText
 10
523.75
 20
-5865.0
 30
0.0
 40
90.0
 41
180.0000000000056
 71
5
 72
1
  1
730
  7
standard
210
0.0
220
0.0
230
1.0
 50
90.0
 73
2
 44
1.0
  0
LINE
  5
1F9
100
AcDbEntity
  8
dimension
  6
ByBlock
 62
0
370
-2
100
AcDbLine
 10
546.966991411009
 20
-6176.966991411009
 11
653.033008588991
 21
-6283.033008588991
  0
LINE
  5
1FA
100
AcDbEntity
  8
dimension
  6
ByBlock
 62
0
370
-2
100
AcDbLine
 10
546.966991411009
 20
-5446.966991411009
 11
653.033008588991
 21
-5553.033008588991
  0
LINE
  5
1FB
100
AcDbEntity
  8
dimension
  6
ByBlock
 62
0
370
-2
100
AcDbLine
 10
768.75
 20
-6230.0
 11
593.75
 21
-6230.0
  0
LINE
  5
1FC
100
AcDbEntity
  8
dimension
  6
ByBlock
 62
0
370
-2
100
AcDbLine
 10
768.75
 20
-5500.0
 11
593.75
 21
-5500.0
  0
ENDBLK
  5
D3
330
D1
100
AcDbEntity
  8
0
100
AcDbBlockEnd
  0
BLOCK
  5
84
330
83
100
AcDbEntity
  8
0
100
AcDbBlockBegin
  2
*D10
 70
1
 10
0.0
 20
0.0
  3
*D10
  1

  0
LINE
  5
15B
100
AcDbEntity
  8
dimension
  6
ByBlock
 62
0
370
-2
100
AcDbLine
 10
0.0
 20
-1000.0
 11
5795.0
 21
-1000.0
  0
MTEXT
  5
15C
100
AcDbEntity
  8
dimension
  6
CONTINUOUS
 62
0
370
-2
100
AcDbMText
 10
2897.5
 20
-923.75
 30
0.0
 40
90.0
 41
250.0000000000112
 71
5
 72
1
  1
5795
  7
standard
210
0.0
220
0.0
230
1.0
 50
0.0
 73
2
 44
1.0
  0
LINE
  5
15D
100
AcDbEntity
  8
dimension
  6
ByBlock
 62
0
370
-2
100
AcDbLine
 10
53.03300858899107
 20
-946.966991411009
 11
-53.03300858899107
 21
-1053.033008588991
  0
LINE
  5
15E
100
AcDbEntity
  8
dimension
  6
ByBlock
 62
0
370
-2
100
AcDbLine
 10
5848.033008588991
 20
-946.966991411009
 11
5741.966991411009
 21
-1053.033008588991
  0
LINE
  5
15F
100
AcDbEntity
  8
dimension
  6
ByBlock
 62
0
370
-2
100
AcDbLine
 10
-5.740531871003218e-15
 20
-31.25
 11
-1.148106374200644e-15
 21
-1006.25
  0
LINE
  5
160
100
AcDbEntity
  8
dimension
  6
ByBlock
 62
0
370
-2
100
AcDbLine
 10
5795.0
 20
-231.25
 11
5795.0
 21
-1006.25
  0
ENDBLK
  5
85
330
83
100
AcDbEntity
  8
0
100
AcDbBlockEnd
  0
BLOCK
  5
B7
330
B6
100
AcDbEntity
  8
0
100
AcDbBlockBegin
  2
*D55
 70
1
 10
0.0
 20
0.0
  3
*D55
  1

  0
LINE
  5
1C1
100
AcDbEntity
  8
dimension
  6
ByBlock
 62
0
370
-2
100
AcDbLine
 10
5600.0
 20
-200.0
 11
5600.0
 21
-4280.0
  0
MTEXT
  5
1C2
100
AcDbEntity
  8
dimension
  6
CONTINUOUS
 62
0
370
-2
100
AcDbMText
 10
5523.75
 20
-2240.0
 30
0.0
 40
90.0
 41
260.0
 71
5
 72
1
  1
4080
  7
standard
210
0.0
220
0.0
230
1.0
 50
90.0
 73
2
 44
1.0
  0
LINE
  5
1C3
100
AcDbEntity
  8
dimension
  6
ByBlock
 62
0
370
-2
100
AcDbLine
 10
5653.033008588991
 20
-253.0330085889911
 11
5546.966991411009
 21
-146.9669914110089
  0
LINE
  5
1C4
100
AcDbEntity
  8
dimension
  6
ByBlock
 62
0
370
-2
100
AcDbLine
 10
5653.033008588991
 20
-4333.033008588991
 11
5546.966991411009
 21
-4226.966991411009
  0
LINE
  5
1C5
100
AcDbEntity
  8
dimension
  6
ByBlock
 62
0
370
-2
100
AcDbLine
 10
5663.75
 20
-200.0
 11
5593.75
 21
-200.0
  0
LINE
  5
1C6
100
AcDbEntity
  8
dimension
  6
ByBlock
 62
0
370
-2
100
AcDbLine
 10
5763.75
 20
-4280.0
 11
5593.75
 21
-4280.0
  0
ENDBLK
  5
B8
330
B6
100
AcDbEntity
  8
0
100
AcDbBlockEnd
  0
BLOCK
  5
6C
330
6B
100
AcDbEntity
  8
0
100
AcDbBlockBegin
  2
*D36
 70
1
 10
0.0
 20
0.0
  3
*D36
  1

  0
LINE
  5
12B
100
AcDbEntity
  8
dimension
  6
ByBlock
 62
0
370
-2
100
AcDbLine
 10
1800.0
 20
-6290.0
 11
1800.0
 21
-5400.0
  0
MTEXT
  5
12C
100
AcDbEntity
  8
dimension
  6
CONTINUOUS
 62
0
370
-2
100
AcDbMText
 10
1723.75
 20
-5845.0
 30
0.0
 40
90.0
 41
180.0
 71
5
 72
1
  1
890
  7
standard
210
0.0
220
0.0
230
1.0
 50
90.0
 73
2
 44
1.0
  0
LINE
  5
12D
100
AcDbEntity
  8
dimension
  6
ByBlock
 62
0
370
-2
100
AcDbLine
 10
1746.966991411009
 20
-6236.966991411009
 11
1853.033008588991
 21
-6343.033008588991
  0
LINE
  5
12E
100
AcDbEntity
  8
dimension
  6
ByBlock
 62
0
370
-2
100
AcDbLine
 10
1746.966991411009
 20
-5346.966991411009
 11
1853.033008588991
 21
-5453.033008588991
  0
LINE
  5
12F
100
AcDbEntity
  8
dimension
  6
ByBlock
 62
0
370
-2
100
AcDbLine
 10
1396.25
 20
-6290.0
 11
1806.25
 21
-6290.0
  0
LINE
  5
130
100
AcDbEntity
  8
dimension
  6
ByBlock
 62
0
370
-2
100
AcDbLine
 10
1396.25
 20
-5400.0
 11
1806.25
 21
-5400.0
  0
ENDBLK
  5
6D
330
6B
100
AcDbEntity
  8
0
100
AcDbBlockEnd
  0
BLOCK
  5
99
330
98
100
AcDbEntity
  8
0
100
AcDbBlockBegin
  2
*D20
 70
1
 10
0.0
 20
0.0
  3
*D20
  1

  0
LINE
  5
185
100
AcDbEntity
  8
dimension
  6
ByBlock
 62
0
370
-2
100
AcDbLine
 10
799.9999999999999
 20
-6400.0
 11
-3.373901931650958e-13
 21
-6400.0
  0
MTEXT
  5
186
100
AcDbEntity
  8
dimension
  6
CONTINUOUS
 62
0
370
-2
100
AcDbMText
 10
399.9999999999998
 20
-6323.75
 30
0.0
 40
90.0
 41
180.0
 71
5
 72
1
  1
800
  7
standard
210
0.0
220
0.0
230
1.0
 50
0.0
 73
2
 44
1.0
  0
LINE
  5
187
100
AcDbEntity
  8
dimension
  6
ByBlock
 62
0
370
-2
100
AcDbLine
 10
746.9669914110088
 20
-6453.033008588991
 11
853.0330085889909
 21
-6346.966991411009
  0
LINE
  5
188
100
AcDbEntity
  8
dimension
  6
ByBlock
 62
0
370
-2
100
AcDbLine
 10
-53.0330085889914
 20
-6453.033008588991
 11
53.03300858899073
 21
-6346.966991411009
  0
LINE
  5
189
100
AcDbEntity
  8
dimension
  6
ByBlock
 62
0
370
-2
100
AcDbLine
 10
800.0
 20
-6261.25
 11
799.9999999999999
 21
-6406.25
  0
LINE
  5
18A
100
AcDbEntity
  8
dimension
  6
ByBlock
 62
0
370
-2
100
AcDbLine
 10
-3.43130725036099e-13
 20
-5531.25
 11
-3.385382995392965e-13
 21
-6406.25
  0
ENDBLK
  5
9A
330
98
100
AcDbEntity
  8
0
100
AcDbBlockEnd
  0
BLOCK
  5
7E
330
7D
100
AcDbEntity
  8
0
100
AcDbBlockBegin
  2
*D59
 70
1
 10
0.0
 20
0.0
  3
*D59
  1

  0
LINE
  5
14F
100
AcDbEntity
  8
dimension
  6
ByBlock
 62
0
370
-2
100
AcDbLine
 10
5200.0
 20
-3930.0
 11
5200.0
 21
-4530.0
  0
MTEXT
  5
150
100
AcDbEntity
  8
dimension
  6
CONTINUOUS
 62
0
370
-2
100
AcDbMText
 10
5123.75
 20
-4068.75
 30
0.0
 40
90.0
 41
160.0
 71
5
 72
1
  1
100
  7
standard
210
0.0
220
0.0
230
1.0
 50
90.0
 73
2
 44
1.0
  0
LINE
  5
151
100
AcDbEntity
  8
dimension
  6
ByBlock
 62
0
370
-2
100
AcDbLine
 10
5146.966991411009
 20
-4126.966991411009
 11
5253.033008588991
 21
-4233.033008588991
  0
LINE
  5
152
100
AcDbEntity
  8
dimension
  6
ByBlock
 62
0
370
-2
100
AcDbLine
 10
5146.966991411009
 20
-4226.966991411009
 11
5253.033008588991
 21
-4333.033008588991
  0
LINE
  5
153
100
AcDbEntity
  8
dimension
  6
ByBlock
 62
0
370
-2
100
AcDbLine
 10
5081.25
 20
-4180.0
 11
5206.25
 21
-4180.0
  0
LINE
  5
154
100
AcDbEntity
  8
dimension
  6
ByBlock
 62
0
370
-2
100
AcDbLine
 10
5081.25
 20
-4280.0
 11
5206.25
 21
-4280.0
  0
ENDBLK
  5
7F
330
7D
100
AcDbEntity
  8
0
100
AcDbBlockEnd
  0
BLOCK
  5
B1
330
B0
100
AcDbEntity
  8
0
100
AcDbBlockBegin
  2
*D58
 70
1
 10
0.0
 20
0.0
  3
*D58
  1

  0
LINE
  5
1B5
100
AcDbEntity
  8
dimension
  6
ByBlock
 62
0
370
-2
100
AcDbLine
 10
4300.0
 20
-4180.0
 11
4300.0
 21
-3385.0
  0
MTEXT
  5
1B6
100
AcDbEntity
  8
dimension
  6
CONTINUOUS
 62
0
370
-2
100
AcDbMText
 10
4223.75
 20
-3782.5
 30
0.0
 40
90.0
 41
180.0000000000056
 71
5
 72
1
  1
795
  7
standard
210
0.0
220
0.0
230
1.0
 50
90.0
 73
2
 44
1.0
  0
LINE
  5
1B7
100
AcDbEntity
  8
dimension
  6
ByBlock
 62
0
370
-2
100
AcDbLine
 10
4246.966991411009
 20
-4126.966991411009
 11
4353.033008588991
 21
-4233.033008588991
  0
LINE
  5
1B8
100
AcDbEntity
  8
dimension
  6
ByBlock
 62
0
370
-2
100
AcDbLine
 10
4246.966991411009
 20
-3331.966991411009
 11
4353.033008588991
 21
-3438.033008588991
  0
LINE
  5
1B9
100
AcDbEntity
  8
dimension
  6
ByBlock
 62
0
370
-2
100
AcDbLine
 10
4136.25
 20
-4180.0
 11
4306.25
 21
-4180.0
  0
LINE
  5
1BA
100
AcDbEntity
  8
dimension
  6
ByBlock
 62
0
370
-2
100
AcDbLine
 10
4136.25
 20
-3385.0
 11
4306.25
 21
-3385.0
  0
ENDBLK
  5
B2
330
B0
100
AcDbEntity
  8
0
100
AcDbBlockEnd
  0
BLOCK
  5
D8
330
D7
100
AcDbEntity
  8
0
100
AcDbBlockBegin
  2
*D52
 70
1
 10
0.0
 20
0.0
  3
*D52
  1

  0
LINE
  5
203
100
AcDbEntity
  8
dimension
  6
ByBlock
 62
0
370
-2
100
AcDbLine
 10
5600.0
 20
-6490.0
 11
5600.0
 21
-7570.0
  0
MTEXT
  5
204
100
AcDbEntity
  8
dimension
  6
CONTINUOUS
 62
0
370
-2
100
AcDbMText
 10
5523.75
 20
-7030.0
 30
0.0
 40
90.0
 41
230.0
 71
5
 72
1
  1
1080
  7
standard
210
0.0
220
0.0
230
1.0
 50
90.0
 73
2
 44
1.0
  0
LINE
  5
205
100
AcDbEntity
  8
dimension
  6
ByBlock
 62
0
370
-2
100
AcDbLine
 10
5653.033008588991
 20
-6543.033008588991
 11
5546.966991411009
 21
-6436.966991411009
  0
LINE
  5
206
100
AcDbEntity
  8
dimension
  6
ByBlock
 62
0
370
-2
100
AcDbLine
 10
5653.033008588991
 20
-7623.033008588991
 11
5546.966991411009
 21
-7516.966991411009
  0
LINE
  5
207
100
AcDbEntity
  8
dimension
  6
ByBlock
 62
0
370
-2
100
AcDbLine
 10
5763.75
 20
-6490.0
 11
5593.75
 21
-6490.0
  0
LINE
  5
208
100
AcDbEntity
  8
dimension
  6
ByBlock
 62
0
370
-2
100
AcDbLine
 10
5763.75
 20
-7570.0
 11
5593.75
 21
-7570.0
  0
ENDBLK
  5
D9
330
D7
100
AcDbEntity
  8
0
100
AcDbBlockEnd
  0
BLOCK
  5
FC
330
FB
100
AcDbEntity
  8
0
100
AcDbBlockBegin
  2
*D51
 70
1
 10
0.0
 20
0.0
  3
*D51
  1

  0
LINE
  5
24B
100
AcDbEntity
  8
dimension
  6
ByBlock
 62
0
370
-2
100
AcDbLine
 10
5600.0
 20
-6085.0
 11
5600.0
 21
-6490.0
  0
MTEXT
  5
24C
100
AcDbEntity
  8
dimension
  6
CONTINUOUS
 62
0
370
-2
100
AcDbMText
 10
5523.75
 20
-6287.5
 30
0.0
 40
90.0
 41
190.0000000000056
 71
5
 72
1
  1
405
  7
standard
210
0.0
220
0.0
230
1.0
 50
90.0
 73
2
 44
1.0
  0
LINE
  5
24D
100
AcDbEntity
  8
dimension
  6
ByBlock
 62
0
370
-2
100
AcDbLine
 10
5653.033008588991
 20
-6138.033008588991
 11
5546.966991411009
 21
-6031.966991411009
  0
LINE
  5
24E
100
AcDbEntity
  8
dimension
  6
ByBlock
 62
0
370
-2
100
AcDbLine
 10
5653.033008588991
 20
-6543.033008588991
 11
5546.966991411009
 21
-6436.966991411009
  0
LINE
  5
24F
100
AcDbEntity
  8
dimension
  6
ByBlock
 62
0
370
-2
100
AcDbLine
 10
5673.75
 20
-6085.0
 11
5593.75
 21
-6085.0
  0
LINE
  5
250
100
AcDbEntity
  8
dimension
  6
ByBlock
 62
0
370
-2
100
AcDbLine
 10
5673.75
 20
-6490.0
 11
5593.75
 21
-6490.0
  0
ENDBLK
  5
FD
330
FB
100
AcDbEntity
  8
0
100
AcDbBlockEnd
  0
BLOCK
  5
BA
330
B9
100
AcDbEntity
  8
0
100
AcDbBlockBegin
  2
*D8
 70
1
 10
0.0
 20
0.0
  3
*D8
  1

  0
LINE
  5
1C7
100
AcDbEntity
  8
dimension
  6
ByBlock
 62
0
370
-2
100
AcDbLine
 10
5315.0
 20
-400.0
 11
5695.0
 21
-400.0
  0
MTEXT
  5
1C8
100
AcDbEntity
  8
dimension
  6
CONTINUOUS
 62
0
370
-2
100
AcDbMText
 10
5505.0
 20
-323.75
 30
0.0
 40
90.0
 41
180.0000000000056
 71
5
 72
1
  1
380
  7
standard
210
0.0
220
0.0
230
1.0
 50
0.0
 73
2
 44
1.0
  0
LINE
  5
1C9
100
AcDbEntity
  8
dimension
  6
ByBlock
 62
0
370
-2
100
AcDbLine
 10
5368.033008588991
 20
-346.966991411009
 11
5261.966991411009
 21
-453.033008588991
  0
LINE
  5
1CA
100
AcDbEntity
  8
dimension
  6
ByBlock
 62
0
370
-2
100
AcDbLine
 10
5748.033008588991
 20
-346.966991411009
 11
5641.966991411009
 21
-453.033008588991
  0
LINE
  5
1CB
100
AcDbEntity
  8
dimension
  6
ByBlock
 62
0
370
-2
100
AcDbLine
 10
5315.0
 20
-31.25
 11
5315.0
 21
-406.25
  0
LINE
  5
1CC
100
AcDbEntity
  8
dimension
  6
ByBlock
 62
0
370
-2
100
AcDbLine
 10
5695.0
 20
-31.25
 11
5695.0
 21
-406.25
  0
ENDBLK
  5
BB
330
B9
100
AcDbEntity
  8
0
100
AcDbBlockEnd
  0
BLOCK
  5
78
330
77
100
AcDbEntity
  8
0
100
AcDbBlockBegin
  2
*D45
 70
1
 10
0.0
 20
0.0
  3
*D45
  1

  0
LINE
  5
143
100
AcDbEntity
  8
dimension
  6
ByBlock
 62
0
370
-2
100
AcDbLine
 10
3800.0
 20
-6690.0
 11
3800.0
 21
-7220.0
  0
MTEXT
  5
144
100
AcDbEntity
  8
dimension
  6
CONTINUOUS
 62
0
370
-2
100
AcDbMText
 10
3723.75
 20
-6955.0
 30
0.0
 40
90.0
 41
180.0000000000112
 71
5
 72
1
  1
530
  7
standard
210
0.0
220
0.0
230
1.0
 50
90.0
 73
2
 44
1.0
  0
LINE
  5
145
100
AcDbEntity
  8
dimension
  6
ByBlock
 62
0
370
-2
100
AcDbLine
 10
3853.033008588991
 20
-6743.033008588991
 11
3746.966991411009
 21
-6636.966991411009
  0
LINE
  5
146
100
AcDbEntity
  8
dimension
  6
ByBlock
 62
0
370
-2
100
AcDbLine
 10
3853.033008588991
 20
-7273.033008588991
 11
3746.966991411009
 21
-7166.966991411009
  0
LINE
  5
147
100
AcDbEntity
  8
dimension
  6
ByBlock
 62
0
370
-2
100
AcDbLine
 10
3973.75
 20
-6690.0
 11
3793.75
 21
-6690.0
  0
LINE
  5
148
100
AcDbEntity
  8
dimension
  6
ByBlock
 62
0
370
-2
100
AcDbLine
 10
3973.75
 20
-7220.0
 11
3793.75
 21
-7220.0
  0
ENDBLK
  5
79
330
77
100
AcDbEntity
  8
0
100
AcDbBlockEnd
  0
BLOCK
  5
CC
330
CB
100
AcDbEntity
  8
0
100
AcDbBlockBegin
  2
*D15
 70
1
 10
0.0
 20
0.0
  3
*D15
  1

  0
LINE
  5
1EB
100
AcDbEntity
  8
dimension
  6
ByBlock
 62
0
370
-2
100
AcDbLine
 10
2885.0
 20
-7100.0
 11
4005.0
 21
-7100.0
  0
MTEXT
  5
1EC
100
AcDbEntity
  8
dimension
  6
CONTINUOUS
 62
0
370
-2
100
AcDbMText
 10
3445.0
 20
-7023.75
 30
0.0
 40
90.0
 41
210.0
 71
5
 72
1
  1
1120
  7
standard
210
0.0
220
0.0
230
1.0
 50
0.0
 73
2
 44
1.0
  0
LINE
  5
1ED
100
AcDbEntity
  8
dimension
  6
ByBlock
 62
0
370
-2
100
AcDbLine
 10
2938.033008588991
 20
-7046.966991411009
 11
2831.966991411009
 21
-7153.033008588991
  0
LINE
  5
1EE
100
AcDbEntity
  8
dimension
  6
ByBlock
 62
0
370
-2
100
AcDbLine
 10
4058.033008588991
 20
-7046.966991411009
 11
3951.966991411009
 21
-7153.033008588991
  0
LINE
  5
1EF
100
AcDbEntity
  8
dimension
  6
ByBlock
 62
0
370
-2
100
AcDbLine
 10
2885.0
 20
-7188.75
 11
2885.0
 21
-7093.75
  0
LINE
  5
1F0
100
AcDbEntity
  8
dimension
  6
ByBlock
 62
0
370
-2
100
AcDbLine
 10
4005.0
 20
-7188.75
 11
4005.0
 21
-7093.75
  0
ENDBLK
  5
CD
330
CB
100
AcDbEntity
  8
0
100
AcDbBlockEnd
  0
BLOCK
  5
72
330
71
100
AcDbEntity
  8
0
100
AcDbBlockBegin
  2
*D29
 70
1
 10
0.0
 20
0.0
  3
*D29
  1

  0
LINE
  5
137
100
AcDbEntity
  8
dimension
  6
ByBlock
 62
0
370
-2
100
AcDbLine
 10
5050.0
 20
-4000.0
 11
4105.0
 21
-4000.0
  0
MTEXT
  5
138
100
AcDbEntity
  8
dimension
  6
CONTINUOUS
 62
0
370
-2
100
AcDbMText
 10
4577.5
 20
-3923.75
 30
0.0
 40
90.0
 41
190.0000000000112
 71
5
 72
1
  1
945
  7
standard
210
0.0
220
0.0
230
1.0
 50
0.0
 73
2
 44
1.0
  0
LINE
  5
139
100
AcDbEntity
  8
dimension
  6
ByBlock
 62
0
370
-2
100
AcDbLine
 10
4996.966991411009
 20
-4053.033008588991
 11
5103.033008588991
 21
-3946.966991411009
  0
LINE
  5
13A
100
AcDbEntity
  8
dimension
  6
ByBlock
 62
0
370
-2
100
AcDbLine
 10
4051.966991411009
 20
-4053.033008588991
 11
4158.033008588991
 21
-3946.966991411009
  0
LINE
  5
13B
100
AcDbEntity
  8
dimension
  6
ByBlock
 62
0
370
-2
100
AcDbLine
 10
5050.0
 20
-4148.75
 11
5050.0
 21
-3993.75
  0
LINE
  5
13C
100
AcDbEntity
  8
dimension
  6
ByBlock
 62
0
370
-2
100
AcDbLine
 10
4105.0
 20
-4148.75
 11
4105.0
 21
-3993.75
  0
ENDBLK
  5
73
330
71
100
AcDbEntity
  8
0
100
AcDbBlockEnd
  0
BLOCK
  5
1C
330
1E
100
AcDbEntity
  8
0
100
AcDbBlockBegin
  2
*Paper_Space
 70
0
 10
0.0
 20
0.0
 30
0.0
  3
*Paper_Space
  1

  0
ENDBLK
  5
1D
330
1E
100
AcDbEntity
  8
0
100
AcDbBlockEnd
  0
BLOCK
  5
114
330
113
100
AcDbEntity
  8
0
100
AcDbBlockBegin
  2
explication-1-800-1
 70
0
 10
0.0
 20
0.0
  3
explication-1-800-1
  1

  0
LINE
  5
27B
100
AcDbEntity
  8
03-explication-construction
  6
ByLayer
 62
256
370
-1
100
AcDbLine
 10
10.0
 20
-15.0
 11
10.0
 21
-30.0
  0
LINE
  5
27C
100
AcDbEntity
  8
03-explication-construction
  6
ByLayer
 62
256
370
-1
100
AcDbLine
 10
80.0
 20
-30.0
 11
80.0
 21
-15.0
  0
MTEXT
  5
27D
100
AcDbEntity
  8
03-explication-text
  6
ByLayer
 62
256
370
-1
100
AcDbMText
 10
47.5
 20
-7.5
 30
0.0
 40
3.0
 41
50.08333333333333
 71
5
 72
1
  1
Экспликация помещений
  7
unicode
210
0.0
220
0.0
230
1.0
 50
0.0
 73
2
 44
1.0
  0
MTEXT
  5
27E
100
AcDbEntity
  8
03-explication-text
  6
ByLayer
 62
256
370
-1
100
AcDbMText
 10
87.5
 20
-22.5
 30
0.0
 40
3.0
 41
3.334481356397898
 71
5
 72
1
  1
м²
  7
unicode
210
0.0
220
0.0
230
1.0
 50
0.0
 73
2
 44
1.0
  0
MTEXT
  5
27F
100
AcDbEntity
  8
03-explication-text
  6
ByLayer
 62
256
370
-1
100
AcDbMText
 10
45.00000000000001
 20
-22.5
 30
0.0
 40
3.0
 41
28.66666666666666
 71
5
 72
1
  1
Наименование
  7
unicode
210
0.0
220
0.0
230
1.0
 50
0.0
 73
2
 44
1.0
  0
MTEXT
  5
280
100
AcDbEntity
  8
03-explication-text
  6
ByLayer
 62
256
370
-1
100
AcDbMText
 10
5.0
 20
-22.5
 30
0.0
 40
3.0
 41
1.666666666666667
 71
5
 72
1
  1
N
  7
unicode
210
0.0
220
0.0
230
1.0
 50
0.0
 73
2
 44
1.0
  0
LWPOLYLINE
  5
281
100
AcDbEntity
  8
03-explication-table
  6
ByLayer
 62
256
370
-1
100
AcDbPolyline
 90
4
 70
1
 43
0.0
 10
0.0
 20
0.0
 10
95.0
 20
0.0
 10
95.0
 20
-15.0
 10
0.0
 20
-15.0
  0
LWPOLYLINE
  5
282
100
AcDbEntity
  8
03-explication-table
  6
ByLayer
 62
256
370
-1
100
AcDbPolyline
 90
4
 70
1
 43
0.0
 10
95.0
 20
-15.0
 10
0.0
 20
-15.0
 10
0.0
 20
-30.0
 10
95.0
 20
-30.0
  0
LWPOLYLINE
  5
283
100
AcDbEntity
  8
03-explication-table
  6
ByLayer
 62
256
370
-1
100
AcDbPolyline
 90
4
 70
1
 43
0.0
 10
95.0
 20
-54.0
 10
0.0
 20
-54.0
 10
0.0
 20
-62.0
 10
95.0
 20
-62.0
  0
LWPOLYLINE
  5
284
100
AcDbEntity
  8
03-explication-table
  6
ByLayer
 62
256
370
-1
100
AcDbPolyline
 90
4
 70
1
 43
0.0
 10
0.0
 20
-62.0
 10
95.0
 20
-62.0
 10
95.0
 20
-70.0
 10
0.0
 20
-70.0
  0
LINE
  5
285
100
AcDbEntity
  8
03-explication-construction
  6
ByLayer
 62
256
370
-1
100
AcDbLine
 10
15.0
 20
-15.0
 11
15.0
 21
-94.0
  0
LINE
  5
286
100
AcDbEntity
  8
03-explication-construction
  6
ByLayer
 62
256
370
-1
100
AcDbLine
 10
5.0
 20
-15.0
 11
5.0
 21
-30.0
  0
LINE
  5
287
100
AcDbEntity
  8
03-explication-construction
  6
ByLayer
 62
256
370
-1
100
AcDbLine
 10
87.5
 20
-15.0
 11
87.5
 21
-94.0
  0
LINE
  5
288
100
AcDbEntity
  8
03-explication-construction
  6
ByLayer
 62
256
370
-1
100
AcDbLine
 10
47.5
 20
-15.00000000000001
 11
47.5
 21
-1.163414459189985e-14
  0
LINE
  5
289
100
AcDbEntity
  8
03-explication-construction
  6
ByLayer
 62
256
370
-1
100
AcDbLine
 10
45.0
 20
-15.00000000000001
 11
45.0
 21
-94.00000000000001
  0
LINE
  5
28A
100
AcDbEntity
  8
03-explication-construction
  6
ByLayer
 62
256
370
-1
100
AcDbLine
 10
95.0
 20
-15.0
 11
0.0
 21
-15.0
  0
LINE
  5
28B
100
AcDbEntity
  8
03-explication-construction
  6
ByLayer
 62
256
370
-1
100
AcDbLine
 10
0.0
 20
-34.0
 11
95.0
 21
-34.0
  0
LINE
  5
28C
100
AcDbEntity
  8
03-explication-construction
  6
ByLayer
 62
256
370
-1
100
AcDbLine
 10
0.0
 20
-42.0
 11
95.0
 21
-42.0
  0
LINE
  5
28D
100
AcDbEntity
  8
03-explication-construction
  6
ByLayer
 62
256
370
-1
100
AcDbLine
 10
0.0
 20
-50.0
 11
95.0
 21
-50.0
  0
LINE
  5
28E
100
AcDbEntity
  8
03-explication-construction
  6
ByLayer
 62
256
370
-1
100
AcDbLine
 10
0.0
 20
-58.0
 11
95.0
 21
-58.0
  0
LINE
  5
28F
100
AcDbEntity
  8
03-explication-construction
  6
ByLayer
 62
256
370
-1
100
AcDbLine
 10
0.0
 20
-66.0
 11
95.0
 21
-66.0
  0
LINE
  5
290
100
AcDbEntity
  8
03-explication-construction
  6
ByLayer
 62
256
370
-1
100
AcDbLine
 10
0.0
 20
-74.0
 11
95.0
 21
-74.0
  0
LINE
  5
291
100
AcDbEntity
  8
03-explication-construction
  6
ByLayer
 62
256
370
-1
100
AcDbLine
 10
0.0
 20
-82.0
 11
95.0
 21
-82.0
  0
LINE
  5
292
100
AcDbEntity
  8
03-explication-construction
  6
ByLayer
 62
256
370
-1
100
AcDbLine
 10
0.0
 20
-90.0
 11
95.0
 21
-90.0
  0
LINE
  5
293
100
AcDbEntity
  8
03-explication-construction
  6
ByLayer
 62
256
370
-1
100
AcDbLine
 10
95.0
 20
-22.5
 11
-1.377727649040772e-15
 21
-22.5
  0
LINE
  5
294
100
AcDbEntity
  8
03-explication-construction
  6
ByLayer
 62
256
370
-1
100
AcDbLine
 10
-1.377727649040772e-15
 20
-7.5
 11
95.0
 21
-7.5
  0
LINE
  5
295
100
AcDbEntity
  8
03-explication-table
  6
ByLayer
 62
256
370
-1
100
AcDbLine
 10
10.0
 20
-15.0
 11
10.0
 21
-30.0
  0
LINE
  5
296
100
AcDbEntity
  8
03-explication-table
  6
ByLayer
 62
256
370
-1
100
AcDbLine
 10
10.0
 20
-30.0
 11
10.0
 21
-38.0
  0
LINE
  5
297
100
AcDbEntity
  8
03-explication-table
  6
ByLayer
 62
256
370
-1
100
AcDbLine
 10
10.0
 20
-38.0
 11
10.0
 21
-46.0
  0
LINE
  5
298
100
AcDbEntity
  8
03-explication-table
  6
ByLayer
 62
256
370
-1
100
AcDbLine
 10
10.0
 20
-46.0
 11
10.0
 21
-54.0
  0
LINE
  5
299
100
AcDbEntity
  8
03-explication-table
  6
ByLayer
 62
256
370
-1
100
AcDbLine
 10
10.0
 20
-54.0
 11
10.0
 21
-62.0
  0
LINE
  5
29A
100
AcDbEntity
  8
03-explication-table
  6
ByLayer
 62
256
370
-1
100
AcDbLine
 10
10.0
 20
-62.0
 11
10.0
 21
-70.0
  0
LINE
  5
29B
100
AcDbEntity
  8
03-explication-table
  6
ByLayer
 62
256
370
-1
100
AcDbLine
 10
80.0
 20
-62.0
 11
80.0
 21
-70.0
  0
LINE
  5
29C
100
AcDbEntity
  8
03-explication-table
  6
ByLayer
 62
256
370
-1
100
AcDbLine
 10
80.0
 20
-54.0
 11
80.0
 21
-62.0
  0
LINE
  5
29D
100
AcDbEntity
  8
03-explication-table
  6
ByLayer
 62
256
370
-1
100
AcDbLine
 10
80.0
 20
-46.0
 11
80.0
 21
-54.0
  0
LINE
  5
29E
100
AcDbEntity
  8
03-explication-table
  6
ByLayer
 62
256
370
-1
100
AcDbLine
 10
80.0
 20
-38.0
 11
80.0
 21
-46.0
  0
LINE
  5
29F
100
AcDbEntity
  8
03-explication-table
  6
ByLayer
 62
256
370
-1
100
AcDbLine
 10
80.0
 20
-15.0
 11
80.0
 21
-30.0
  0
LINE
  5
2A0
100
AcDbEntity
  8
03-explication-table
  6
ByLayer
 62
256
370
-1
100
AcDbLine
 10
80.0
 20
-30.0
 11
80.0
 21
-38.0
  0
MTEXT
  5
2A1
100
AcDbEntity
  8
03-explication-text
  6
ByLayer
 62
256
370
-1
100
AcDbMText
 10
15.0
 20
-66.0
 30
0.0
 40
3.0
 41
15.83333333333333
 71
4
 72
1
  1
Санузел
  7
unicode
210
0.0
220
0.0
230
1.0
 50
0.0
 73
2
 44
1.0
  0
MTEXT
  5
2A2
100
AcDbEntity
  8
03-explication-text
  6
ByLayer
 62
256
370
-1
100
AcDbMText
 10
15.0
 20
-58.0
 30
0.0
 40
3.0
 41
26.0
 71
4
 72
1
  1
Гардеробная
  7
unicode
210
0.0
220
0.0
230
1.0
 50
0.0
 73
2
 44
1.0
  0
MTEXT
  5
2A3
100
AcDbEntity
  8
03-explication-text
  6
ByLayer
 62
256
370
-1
100
AcDbMText
 10
5.0
 20
-34.0
 30
0.0
 40
3.0
 41
5.333333333333333
 71
5
 72
1
  1
801
  7
unicode
210
0.0
220
0.0
230
1.0
 50
0.0
 73
2
 44
1.0
  0
MTEXT
  5
2A4
100
AcDbEntity
  8
03-explication-text
  6
ByLayer
 62
256
370
-1
100
AcDbMText
 10
5.0
 20
-42.0
 30
0.0
 40
3.0
 41
6.0
 71
5
 72
1
  1
802
  7
unicode
210
0.0
220
0.0
230
1.0
 50
0.0
 73
2
 44
1.0
  0
MTEXT
  5
2A5
100
AcDbEntity
  8
03-explication-text
  6
ByLayer
 62
256
370
-1
100
AcDbMText
 10
5.0
 20
-50.0
 30
0.0
 40
3.0
 41
6.0
 71
5
 72
1
  1
803
  7
unicode
210
0.0
220
0.0
230
1.0
 50
0.0
 73
2
 44
1.0
  0
MTEXT
  5
2A6
100
AcDbEntity
  8
03-explication-text
  6
ByLayer
 62
256
370
-1
100
AcDbMText
 10
5.0
 20
-58.0
 30
0.0
 40
3.0
 41
6.333333333333333
 71
5
 72
1
  1
804
  7
unicode
210
0.0
220
0.0
230
1.0
 50
0.0
 73
2
 44
1.0
  0
MTEXT
  5
2A7
100
AcDbEntity
  8
03-explication-text
  6
ByLayer
 62
256
370
-1
100
AcDbMText
 10
5.0
 20
-66.0
 30
0.0
 40
3.0
 41
6.0
 71
5
 72
1
  1
805
  7
unicode
210
0.0
220
0.0
230
1.0
 50
0.0
 73
2
 44
1.0
  0
MTEXT
  5
2A8
100
AcDbEntity
  8
03-explication-text
  6
ByLayer
 62
256
370
-1
100
AcDbMText
 10
87.5
 20
-58.0
 30
0.0
 40
3.0
 41
4.833333333333334
 71
5
 72
1
  1
2,3
  7
unicode
210
0.0
220
0.0
230
1.0
 50
0.0
 73
2
 44
1.0
  0
MTEXT
  5
2A9
100
AcDbEntity
  8
03-explication-text
  6
ByLayer
 62
256
370
-1
100
AcDbMText
 10
87.5
 20
-66.0
 30
0.0
 40
3.0
 41
4.5
 71
5
 72
1
  1
4,1
  7
unicode
210
0.0
220
0.0
230
1.0
 50
0.0
 73
2
 44
1.0
  0
LWPOLYLINE
  5
2AA
100
AcDbEntity
  8
03-explication-table
  6
ByLayer
 62
256
370
-1
100
AcDbPolyline
 90
4
 70
1
 43
0.0
 10
0.0
 20
-46.0
 10
80.0
 20
-46.0
 10
80.0
 20
-54.0
 10
0.0
 20
-54.0
  0
LWPOLYLINE
  5
2AB
100
AcDbEntity
  8
03-explication-table
  6
ByLayer
 62
256
370
-1
100
AcDbPolyline
 90
4
 70
1
 43
0.0
 10
0.0
 20
-30.0
 10
80.0
 20
-30.0
 10
80.0
 20
-38.0
 10
0.0
 20
-38.0
  0
LWPOLYLINE
  5
2AC
100
AcDbEntity
  8
03-explication-table
  6
ByLayer
 62
256
370
-1
100
AcDbPolyline
 90
4
 70
1
 43
0.0
 10
80.0
 20
-38.0
 10
0.0
 20
-38.0
 10
0.0
 20
-46.0
 10
80.0
 20
-46.0
  0
LWPOLYLINE
  5
2AD
100
AcDbEntity
  8
03-explication-table
  6
ByLayer
 62
256
370
-1
100
AcDbPolyline
 90
4
 70
1
 43
0.0
 10
80.0
 20
-30.0
 10
95.0
 20
-30.0
 10
95.0
 20
-54.0
 10
80.0
 20
-54.0
  0
MTEXT
  5
2AE
100
AcDbEntity
  8
03-explication-text
  6
ByLayer
 62
256
370
-1
100
AcDbMText
 10
87.5
 20
-42.0
 30
0.0
 40
3.0
 41
7.5
 71
5
 72
1
  1
34,6
  7
unicode
210
0.0
220
0.0
230
1.0
 50
0.0
 73
2
 44
1.0
  0
MTEXT
  5
2AF
100
AcDbEntity
  8
03-explication-text
  6
ByLayer
 62
256
370
-1
100
AcDbMText
 10
15.0
 20
-34.0
 30
0.0
 40
3.0
 41
19.16666666666666
 71
4
 72
1
  1
Прихожая
  7
unicode
210
0.0
220
0.0
230
1.0
 50
0.0
 73
2
 44
1.0
  0
MTEXT
  5
2B0
100
AcDbEntity
  8
03-explication-text
  6
ByLayer
 62
256
370
-1
100
AcDbMText
 10
15.0
 20
-42.0
 30
0.0
 40
3.0
 41
18.83333333333333
 71
4
 72
1
  1
Гостиная
  7
unicode
210
0.0
220
0.0
230
1.0
 50
0.0
 73
2
 44
1.0
  0
MTEXT
  5
2B1
100
AcDbEntity
  8
03-explication-text
  6
ByLayer
 62
256
370
-1
100
AcDbMText
 10
15.0
 20
-50.0
 30
0.0
 40
3.0
 41
11.0
 71
4
 72
1
  1
Кухня
  7
unicode
210
0.0
220
0.0
230
1.0
 50
0.0
 73
2
 44
1.0
  0
ENDBLK
  5
115
330
113
100
AcDbEntity
  8
0
100
AcDbBlockEnd
  0
BLOCK
  5
63
330
62
100
AcDbEntity
  8
0
100
AcDbBlockBegin
  2
*D26
 70
1
 10
0.0
 20
0.0
  3
*D26
  1

  0
LINE
  5
119
100
AcDbEntity
  8
dimension
  6
ByBlock
 62
0
370
-2
100
AcDbLine
 10
3755.0
 20
-6500.0
 11
4355.0
 21
-6500.0
  0
MTEXT
  5
11A
100
AcDbEntity
  8
dimension
  6
CONTINUOUS
 62
0
370
-2
100
AcDbMText
 10
4216.25
 20
-6423.75
 30
0.0
 40
90.0
 41
160.0
 71
5
 72
1
  1
100
  7
standard
210
0.0
220
0.0
230
1.0
 50
0.0
 73
2
 44
1.0
  0
LINE
  5
11B
100
AcDbEntity
  8
dimension
  6
ByBlock
 62
0
370
-2
100
AcDbLine
 10
3951.966991411009
 20
-6553.033008588991
 11
4058.033008588991
 21
-6446.966991411009
  0
LINE
  5
11C
100
AcDbEntity
  8
dimension
  6
ByBlock
 62
0
370
-2
100
AcDbLine
 10
4051.966991411009
 20
-6553.033008588991
 11
4158.033008588991
 21
-6446.966991411009
  0
LINE
  5
11D
100
AcDbEntity
  8
dimension
  6
ByBlock
 62
0
370
-2
100
AcDbLine
 10
4005.0
 20
-6658.75
 11
4005.0
 21
-6493.75
  0
LINE
  5
11E
100
AcDbEntity
  8
dimension
  6
ByBlock
 62
0
370
-2
100
AcDbLine
 10
4105.0
 20
-6658.75
 11
4105.0
 21
-6493.75
  0
ENDBLK
  5
64
330
62
100
AcDbEntity
  8
0
100
AcDbBlockEnd
  0
BLOCK
  5
ED
330
EC
100
AcDbEntity
  8
0
100
AcDbBlockBegin
  2
*D7
 70
1
 10
0.0
 20
0.0
  3
*D7
  1

  0
LINE
  5
22D
100
AcDbEntity
  8
dimension
  6
ByBlock
 62
0
370
-2
100
AcDbLine
 10
3640.0
 20
-400.0
 11
5315.0
 21
-400.0
  0
MTEXT
  5
22E
100
AcDbEntity
  8
dimension
  6
CONTINUOUS
 62
0
370
-2
100
AcDbMText
 10
4477.5
 20
-323.75
 30
0.0
 40
90.0
 41
230.0000000000112
 71
5
 72
1
  1
1675
  7
standard
210
0.0
220
0.0
230
1.0
 50
0.0
 73
2
 44
1.0
  0
LINE
  5
22F
100
AcDbEntity
  8
dimension
  6
ByBlock
 62
0
370
-2
100
AcDbLine
 10
3693.033008588991
 20
-346.966991411009
 11
3586.966991411009
 21
-453.033008588991
  0
LINE
  5
230
100
AcDbEntity
  8
dimension
  6
ByBlock
 62
0
370
-2
100
AcDbLine
 10
5368.033008588991
 20
-346.966991411009
 11
5261.966991411009
 21
-453.033008588991
  0
LINE
  5
231
100
AcDbEntity
  8
dimension
  6
ByBlock
 62
0
370
-2
100
AcDbLine
 10
3640.0
 20
-31.25
 11
3640.0
 21
-406.25
  0
LINE
  5
232
100
AcDbEntity
  8
dimension
  6
ByBlock
 62
0
370
-2
100
AcDbLine
 10
5315.0
 20
-31.25
 11
5315.0
 21
-406.25
  0
ENDBLK
  5
EE
330
EC
100
AcDbEntity
  8
0
100
AcDbBlockEnd
  0
BLOCK
  5
87
330
86
100
AcDbEntity
  8
0
100
AcDbBlockBegin
  2
*D4
 70
1
 10
0.0
 20
0.0
  3
*D4
  1

  0
LINE
  5
161
100
AcDbEntity
  8
dimension
  6
ByBlock
 62
0
370
-2
100
AcDbLine
 10
2060.0
 20
-400.0
 11
2505.0
 21
-400.0
  0
MTEXT
  5
162
100
AcDbEntity
  8
dimension
  6
CONTINUOUS
 62
0
370
-2
100
AcDbMText
 10
2282.5
 20
-323.75
 30
0.0
 40
90.0
 41
200.0000000000056
 71
5
 72
1
  1
445
  7
standard
210
0.0
220
0.0
230
1.0
 50
0.0
 73
2
 44
1.0
  0
LINE
  5
163
100
AcDbEntity
  8
dimension
  6
ByBlock
 62
0
370
-2
100
AcDbLine
 10
2113.033008588991
 20
-346.966991411009
 11
2006.966991411009
 21
-453.033008588991
  0
LINE
  5
164
100
AcDbEntity
  8
dimension
  6
ByBlock
 62
0
370
-2
100
AcDbLine
 10
2558.033008588991
 20
-346.966991411009
 11
2451.966991411009
 21
-453.033008588991
  0
LINE
  5
165
100
AcDbEntity
  8
dimension
  6
ByBlock
 62
0
370
-2
100
AcDbLine
 10
2060.0
 20
-31.25
 11
2060.0
 21
-406.25
  0
LINE
  5
166
100
AcDbEntity
  8
dimension
  6
ByBlock
 62
0
370
-2
100
AcDbLine
 10
2505.0
 20
-31.25
 11
2505.0
 21
-406.25
  0
ENDBLK
  5
88
330
86
100
AcDbEntity
  8
0
100
AcDbBlockEnd
  0
BLOCK
  5
F9
330
F8
100
AcDbEntity
  8
0
100
AcDbBlockBegin
  2
*D30
 70
1
 10
0.0
 20
0.0
  3
*D30
  1

  0
LINE
  5
245
100
AcDbEntity
  8
dimension
  6
ByBlock
 62
0
370
-2
100
AcDbLine
 10
3755.0
 20
-3200.0
 11
4355.0
 21
-3200.0
  0
MTEXT
  5
246
100
AcDbEntity
  8
dimension
  6
CONTINUOUS
 62
0
370
-2
100
AcDbMText
 10
4216.25
 20
-3123.75
 30
0.0
 40
90.0
 41
160.0
 71
5
 72
1
  1
100
  7
standard
210
0.0
220
0.0
230
1.0
 50
0.0
 73
2
 44
1.0
  0
LINE
  5
247
100
AcDbEntity
  8
dimension
  6
ByBlock
 62
0
370
-2
100
AcDbLine
 10
3951.966991411009
 20
-3253.033008588991
 11
4058.033008588991
 21
-3146.966991411009
  0
LINE
  5
248
100
AcDbEntity
  8
dimension
  6
ByBlock
 62
0
370
-2
100
AcDbLine
 10
4051.966991411009
 20
-3253.033008588991
 11
4158.033008588991
 21
-3146.966991411009
  0
LINE
  5
249
100
AcDbEntity
  8
dimension
  6
ByBlock
 62
0
370
-2
100
AcDbLine
 10
4005.0
 20
-3353.75
 11
4005.0
 21
-3193.75
  0
LINE
  5
24A
100
AcDbEntity
  8
dimension
  6
ByBlock
 62
0
370
-2
100
AcDbLine
 10
4105.0
 20
-3353.75
 11
4105.0
 21
-3193.75
  0
ENDBLK
  5
FA
330
F8
100
AcDbEntity
  8
0
100
AcDbBlockEnd
  0
BLOCK
  5
CF
330
CE
100
AcDbEntity
  8
0
100
AcDbBlockBegin
  2
*D1
 70
1
 10
0.0
 20
0.0
  3
*D1
  1

  0
LINE
  5
1F1
100
AcDbEntity
  8
dimension
  6
ByBlock
 62
0
370
-2
100
AcDbLine
 10
0.0
 20
-400.0
 11
390.0
 21
-400.0
  0
MTEXT
  5
1F2
100
AcDbEntity
  8
dimension
  6
CONTINUOUS
 62
0
370
-2
100
AcDbMText
 10
195.0
 20
-323.75
 30
0.0
 40
90.0
 41
180.0000000000056
 71
5
 72
1
  1
390
  7
standard
210
0.0
220
0.0
230
1.0
 50
0.0
 73
2
 44
1.0
  0
LINE
  5
1F3
100
AcDbEntity
  8
dimension
  6
ByBlock
 62
0
370
-2
100
AcDbLine
 10
53.03300858899107
 20
-346.966991411009
 11
-53.03300858899107
 21
-453.033008588991
  0
LINE
  5
1F4
100
AcDbEntity
  8
dimension
  6
ByBlock
 62
0
370
-2
100
AcDbLine
 10
443.0330085889911
 20
-346.966991411009
 11
336.9669914110089
 21
-453.033008588991
  0
LINE
  5
1F5
100
AcDbEntity
  8
dimension
  6
ByBlock
 62
0
370
-2
100
AcDbLine
 10
-5.740531871003218e-15
 20
-31.25
 11
-1.148106374200644e-15
 21
-406.25
  0
LINE
  5
1F6
100
AcDbEntity
  8
dimension
  6
ByBlock
 62
0
370
-2
100
AcDbLine
 10
390.0
 20
-31.25
 11
390.0
 21
-406.25
  0
ENDBLK
  5
D0
330
CE
100
AcDbEntity
  8
0
100
AcDbBlockEnd
  0
BLOCK
  5
F0
330
EF
100
AcDbEntity
  8
0
100
AcDbBlockBegin
  2
*D24
 70
1
 10
0.0
 20
0.0
  3
*D24
  1

  0
LINE
  5
233
100
AcDbEntity
  8
dimension
  6
ByBlock
 62
0
370
-2
100
AcDbLine
 10
4105.0
 20
-5400.0
 11
5795.0
 21
-5400.0
  0
MTEXT
  5
234
100
AcDbEntity
  8
dimension
  6
CONTINUOUS
 62
0
370
-2
100
AcDbMText
 10
4950.0
 20
-5323.75
 30
0.0
 40
90.0
 41
230.0000000000056
 71
5
 72
1
  1
1690
  7
standard
210
0.0
220
0.0
230
1.0
 50
0.0
 73
2
 44
1.0
  0
LINE
  5
235
100
AcDbEntity
  8
dimension
  6
ByBlock
 62
0
370
-2
100
AcDbLine
 10
4158.033008588991
 20
-5346.966991411009
 11
4051.966991411009
 21
-5453.033008588991
  0
LINE
  5
236
100
AcDbEntity
  8
dimension
  6
ByBlock
 62
0
370
-2
100
AcDbLine
 10
5848.033008588991
 20
-5346.966991411009
 11
5741.966991411009
 21
-5453.033008588991
  0
LINE
  5
237
100
AcDbEntity
  8
dimension
  6
ByBlock
 62
0
370
-2
100
AcDbLine
 10
4105.0
 20
-5211.25
 11
4105.0
 21
-5406.25
  0
LINE
  5
238
100
AcDbEntity
  8
dimension
  6
ByBlock
 62
0
370
-2
100
AcDbLine
 10
5795.0
 20
-5211.25
 11
5795.0
 21
-5406.25
  0
ENDBLK
  5
F1
330
EF
100
AcDbEntity
  8
0
100
AcDbBlockEnd
  0
BLOCK
  5
AE
330
AD
100
AcDbEntity
  8
0
100
AcDbBlockBegin
  2
*D23
 70
1
 10
0.0
 20
0.0
  3
*D23
  1

  0
LINE
  5
1AF
100
AcDbEntity
  8
dimension
  6
ByBlock
 62
0
370
-2
100
AcDbLine
 10
1365.0
 20
-5200.0
 11
4005.0
 21
-5200.0
  0
MTEXT
  5
1B0
100
AcDbEntity
  8
dimension
  6
CONTINUOUS
 62
0
370
-2
100
AcDbMText
 10
2685.0
 20
-5123.75
 30
0.0
 40
90.0
 41
260.0000000000056
 71
5
 72
1
  1
2640
  7
standard
210
0.0
220
0.0
230
1.0
 50
0.0
 73
2
 44
1.0
  0
LINE
  5
1B1
100
AcDbEntity
  8
dimension
  6
ByBlock
 62
0
370
-2
100
AcDbLine
 10
1418.033008588991
 20
-5146.966991411009
 11
1311.966991411009
 21
-5253.033008588991
  0
LINE
  5
1B2
100
AcDbEntity
  8
dimension
  6
ByBlock
 62
0
370
-2
100
AcDbLine
 10
4058.033008588991
 20
-5146.966991411009
 11
3951.966991411009
 21
-5253.033008588991
  0
LINE
  5
1B3
100
AcDbEntity
  8
dimension
  6
ByBlock
 62
0
370
-2
100
AcDbLine
 10
1365.0
 20
-5368.75
 11
1365.0
 21
-5193.75
  0
LINE
  5
1B4
100
AcDbEntity
  8
dimension
  6
ByBlock
 62
0
370
-2
100
AcDbLine
 10
4005.0
 20
-5908.75
 11
4005.0
 21
-5193.75
  0
ENDBLK
  5
AF
330
AD
100
AcDbEntity
  8
0
100
AcDbBlockEnd
  0
BLOCK
  5
10B
330
10A
100
AcDbEntity
  8
0
100
AcDbBlockBegin
  2
*D43
 70
1
 10
0.0
 20
0.0
  3
*D43
  1

  0
LINE
  5
269
100
AcDbEntity
  8
dimension
  6
ByBlock
 62
0
370
-2
100
AcDbLine
 10
3800.0
 20
-3385.0
 11
3800.0
 21
-5940.0
  0
MTEXT
  5
26A
100
AcDbEntity
  8
dimension
  6
CONTINUOUS
 62
0
370
-2
100
AcDbMText
 10
3723.75
 20
-4662.5
 30
0.0
 40
90.0
 41
250.0000000000168
 71
5
 72
1
  1
2555
  7
standard
210
0.0
220
0.0
230
1.0
 50
90.0
 73
2
 44
1.0
  0
LINE
  5
26B
100
AcDbEntity
  8
dimension
  6
ByBlock
 62
0
370
-2
100
AcDbLine
 10
3853.033008588991
 20
-3438.033008588991
 11
3746.966991411009
 21
-3331.966991411009
  0
LINE
  5
26C
100
AcDbEntity
  8
dimension
  6
ByBlock
 62
0
370
-2
100
AcDbLine
 10
3853.033008588991
 20
-5993.033008588991
 11
3746.966991411009
 21
-5886.966991411009
  0
LINE
  5
26D
100
AcDbEntity
  8
dimension
  6
ByBlock
 62
0
370
-2
100
AcDbLine
 10
3973.75
 20
-3385.0
 11
3793.75
 21
-3385.0
  0
LINE
  5
26E
100
AcDbEntity
  8
dimension
  6
ByBlock
 62
0
370
-2
100
AcDbLine
 10
3973.75
 20
-5940.0
 11
3793.75
 21
-5940.0
  0
ENDBLK
  5
10C
330
10A
100
AcDbEntity
  8
0
100
AcDbBlockEnd
  0
BLOCK
  5
AB
330
AA
100
AcDbEntity
  8
0
100
AcDbBlockBegin
  2
*D16
 70
1
 10
0.0
 20
0.0
  3
*D16
  1

  0
LINE
  5
1A9
100
AcDbEntity
  8
dimension
  6
ByBlock
 62
0
370
-2
100
AcDbLine
 10
3780.0
 20
-7500.0
 11
4355.0
 21
-7500.0
  0
MTEXT
  5
1AA
100
AcDbEntity
  8
dimension
  6
CONTINUOUS
 62
0
370
-2
100
AcDbMText
 10
4191.250000000003
 20
-7423.75
 30
0.0
 40
90.0
 41
110.0000000000056
 71
5
 72
1
  1
75
  7
standard
210
0.0
220
0.0
230
1.0
 50
0.0
 73
2
 44
1.0
  0
LINE
  5
1AB
100
AcDbEntity
  8
dimension
  6
ByBlock
 62
0
370
-2
100
AcDbLine
 10
3976.966991411009
 20
-7553.033008588991
 11
4083.033008588991
 21
-7446.966991411009
  0
LINE
  5
1AC
100
AcDbEntity
  8
dimension
  6
ByBlock
 62
0
370
-2
100
AcDbLine
 10
4051.966991411009
 20
-7553.033008588991
 11
4158.033008588991
 21
-7446.966991411009
  0
LINE
  5
1AD
100
AcDbEntity
  8
dimension
  6
ByBlock
 62
0
370
-2
100
AcDbLine
 10
4030.0
 20
-7451.25
 11
4030.0
 21
-7506.25
  0
LINE
  5
1AE
100
AcDbEntity
  8
dimension
  6
ByBlock
 62
0
370
-2
100
AcDbLine
 10
4105.0
 20
-7451.25
 11
4105.0
 21
-7506.25
  0
ENDBLK
  5
AC
330
AA
100
AcDbEntity
  8
0
100
AcDbBlockEnd
  0
BLOCK
  5
96
330
95
100
AcDbEntity
  8
0
100
AcDbBlockBegin
  2
*D17
 70
1
 10
0.0
 20
0.0
  3
*D17
  1

  0
LINE
  5
17F
100
AcDbEntity
  8
dimension
  6
ByBlock
 62
0
370
-2
100
AcDbLine
 10
4030.0
 20
-8000.0
 11
5795.0
 21
-8000.0
  0
MTEXT
  5
180
100
AcDbEntity
  8
dimension
  6
CONTINUOUS
 62
0
370
-2
100
AcDbMText
 10
4912.5
 20
-7923.75
 30
0.0
 40
90.0
 41
230.0000000000112
 71
5
 72
1
  1
1765
  7
standard
210
0.0
220
0.0
230
1.0
 50
0.0
 73
2
 44
1.0
  0
LINE
  5
181
100
AcDbEntity
  8
dimension
  6
ByBlock
 62
0
370
-2
100
AcDbLine
 10
4083.033008588991
 20
-7946.966991411009
 11
3976.966991411009
 21
-8053.033008588991
  0
LINE
  5
182
100
AcDbEntity
  8
dimension
  6
ByBlock
 62
0
370
-2
100
AcDbLine
 10
5848.033008588991
 20
-7946.966991411009
 11
5741.966991411009
 21
-8053.033008588991
  0
LINE
  5
183
100
AcDbEntity
  8
dimension
  6
ByBlock
 62
0
370
-2
100
AcDbLine
 10
4030.0
 20
-7601.25
 11
4030.0
 21
-8006.25
  0
LINE
  5
184
100
AcDbEntity
  8
dimension
  6
ByBlock
 62
0
370
-2
100
AcDbLine
 10
5795.0
 20
-7601.25
 11
5795.0
 21
-8006.25
  0
ENDBLK
  5
97
330
95
100
AcDbEntity
  8
0
100
AcDbBlockEnd
  0
BLOCK
  5
BD
330
BC
100
AcDbEntity
  8
0
100
AcDbBlockBegin
  2
*D39
 70
1
 10
0.0
 20
0.0
  3
*D39
  1

  0
LINE
  5
1CD
100
AcDbEntity
  8
dimension
  6
ByBlock
 62
0
370
-2
100
AcDbLine
 10
2700.0
 20
-7570.0
 11
2700.0
 21
-7220.0
  0
MTEXT
  5
1CE
100
AcDbEntity
  8
dimension
  6
CONTINUOUS
 62
0
370
-2
100
AcDbMText
 10
2623.75
 20
-7395.0
 30
0.0
 40
90.0
 41
180.0000000000112
 71
5
 72
1
  1
350
  7
standard
210
0.0
220
0.0
230
1.0
 50
90.0
 73
2
 44
1.0
  0
LINE
  5
1CF
100
AcDbEntity
  8
dimension
  6
ByBlock
 62
0
370
-2
100
AcDbLine
 10
2646.966991411009
 20
-7516.966991411009
 11
2753.033008588991
 21
-7623.033008588991
  0
LINE
  5
1D0
100
AcDbEntity
  8
dimension
  6
ByBlock
 62
0
370
-2
100
AcDbLine
 10
2646.966991411009
 20
-7166.966991411009
 11
2753.033008588991
 21
-7273.033008588991
  0
LINE
  5
1D1
100
AcDbEntity
  8
dimension
  6
ByBlock
 62
0
370
-2
100
AcDbLine
 10
2818.75
 20
-7570.0
 11
2693.75
 21
-7570.0
  0
LINE
  5
1D2
100
AcDbEntity
  8
dimension
  6
ByBlock
 62
0
370
-2
100
AcDbLine
 10
2853.75
 20
-7220.0
 11
2693.75
 21
-7220.0
  0
ENDBLK
  5
BE
330
BC
100
AcDbEntity
  8
0
100
AcDbBlockEnd
  0
BLOCK
  5
20
330
1F
100
AcDbEntity
  8
0
100
AcDbBlockBegin
  2
*Model_Space
 70
0
 10
0.0
 20
0.0
 30
0.0
  3
*Model_Space
  1

  0
ENDBLK
  5
21
330
1F
100
AcDbEntity
  8
0
100
AcDbBlockEnd
  0
BLOCK
  5
6F
330
6E
100
AcDbEntity
  8
0
100
AcDbBlockBegin
  2
*D49
 70
1
 10
0.0
 20
0.0
  3
*D49
  1

  0
LINE
  5
131
100
AcDbEntity
  8
dimension
  6
ByBlock
 62
0
370
-2
100
AcDbLine
 10
4500.0
 20
-5940.0
 11
4500.0
 21
-5180.0
  0
MTEXT
  5
132
100
AcDbEntity
  8
dimension
  6
CONTINUOUS
 62
0
370
-2
100
AcDbMText
 10
4423.75
 20
-5560.0
 30
0.0
 40
90.0
 41
180.0000000000056
 71
5
 72
1
  1
760
  7
standard
210
0.0
220
0.0
230
1.0
 50
90.0
 73
2
 44
1.0
  0
LINE
  5
133
100
AcDbEntity
  8
dimension
  6
ByBlock
 62
0
370
-2
100
AcDbLine
 10
4446.966991411009
 20
-5886.966991411009
 11
4553.033008588991
 21
-5993.033008588991
  0
LINE
  5
134
100
AcDbEntity
  8
dimension
  6
ByBlock
 62
0
370
-2
100
AcDbLine
 10
4446.966991411009
 20
-5126.966991411009
 11
4553.033008588991
 21
-5233.033008588991
  0
LINE
  5
135
100
AcDbEntity
  8
dimension
  6
ByBlock
 62
0
370
-2
100
AcDbLine
 10
4136.25
 20
-5940.0
 11
4506.25
 21
-5940.0
  0
LINE
  5
136
100
AcDbEntity
  8
dimension
  6
ByBlock
 62
0
370
-2
100
AcDbLine
 10
4136.25
 20
-5180.0
 11
4506.25
 21
-5180.0
  0
ENDBLK
  5
70
330
6E
100
AcDbEntity
  8
0
100
AcDbBlockEnd
  0
BLOCK
  5
F6
330
F5
100
AcDbEntity
  8
0
100
AcDbBlockBegin
  2
*D6
 70
1
 10
0.0
 20
0.0
  3
*D6
  1

  0
LINE
  5
23F
100
AcDbEntity
  8
dimension
  6
ByBlock
 62
0
370
-2
100
AcDbLine
 10
2900.0
 20
-400.0
 11
3640.0
 21
-400.0
  0
MTEXT
  5
240
100
AcDbEntity
  8
dimension
  6
CONTINUOUS
 62
0
370
-2
100
AcDbMText
 10
3270.0
 20
-323.75
 30
0.0
 40
90.0
 41
190.0
 71
5
 72
1
  1
740
  7
standard
210
0.0
220
0.0
230
1.0
 50
0.0
 73
2
 44
1.0
  0
LINE
  5
241
100
AcDbEntity
  8
dimension
  6
ByBlock
 62
0
370
-2
100
AcDbLine
 10
2953.033008588991
 20
-346.966991411009
 11
2846.966991411009
 21
-453.033008588991
  0
LINE
  5
242
100
AcDbEntity
  8
dimension
  6
ByBlock
 62
0
370
-2
100
AcDbLine
 10
3693.033008588991
 20
-346.966991411009
 11
3586.966991411009
 21
-453.033008588991
  0
LINE
  5
243
100
AcDbEntity
  8
dimension
  6
ByBlock
 62
0
370
-2
100
AcDbLine
 10
2900.0
 20
-31.25
 11
2900.0
 21
-406.25
  0
LINE
  5
244
100
AcDbEntity
  8
dimension
  6
ByBlock
 62
0
370
-2
100
AcDbLine
 10
3640.0
 20
-31.25
 11
3640.0
 21
-406.25
  0
ENDBLK
  5
F7
330
F5
100
AcDbEntity
  8
0
100
AcDbBlockEnd
  0
BLOCK
  5
66
330
65
100
AcDbEntity
  8
0
100
AcDbBlockBegin
  2
*D38
 70
1
 10
0.0
 20
0.0
  3
*D38
  1

  0
LINE
  5
11F
100
AcDbEntity
  8
dimension
  6
ByBlock
 62
0
370
-2
100
AcDbLine
 10
1100.0
 20
-7040.0
 11
1100.0
 21
-7570.0
  0
MTEXT
  5
120
100
AcDbEntity
  8
dimension
  6
CONTINUOUS
 62
0
370
-2
100
AcDbMText
 10
1023.75
 20
-7305.0
 30
0.0
 40
90.0
 41
180.0000000000112
 71
5
 72
1
  1
530
  7
standard
210
0.0
220
0.0
230
1.0
 50
90.0
 73
2
 44
1.0
  0
LINE
  5
121
100
AcDbEntity
  8
dimension
  6
ByBlock
 62
0
370
-2
100
AcDbLine
 10
1153.033008588991
 20
-7093.033008588991
 11
1046.966991411009
 21
-6986.966991411009
  0
LINE
  5
122
100
AcDbEntity
  8
dimension
  6
ByBlock
 62
0
370
-2
100
AcDbLine
 10
1153.033008588991
 20
-7623.033008588991
 11
1046.966991411009
 21
-7516.966991411009
  0
LINE
  5
123
100
AcDbEntity
  8
dimension
  6
ByBlock
 62
0
370
-2
100
AcDbLine
 10
1233.75
 20
-7040.0
 11
1093.75
 21
-7040.0
  0
LINE
  5
124
100
AcDbEntity
  8
dimension
  6
ByBlock
 62
0
370
-2
100
AcDbLine
 10
1233.75
 20
-7570.0
 11
1093.75
 21
-7570.0
  0
ENDBLK
  5
67
330
65
100
AcDbEntity
  8
0
100
AcDbBlockEnd
  0
BLOCK
  5
E4
330
E3
100
AcDbEntity
  8
0
100
AcDbBlockBegin
  2
*D33
 70
1
 10
0.0
 20
0.0
  3
*D33
  1

  0
LINE
  5
21B
100
AcDbEntity
  8
dimension
  6
ByBlock
 62
0
370
-2
100
AcDbLine
 10
3100.0
 20
-450.0
 11
3100.0
 21
250.0
  0
MTEXT
  5
21C
100
AcDbEntity
  8
dimension
  6
CONTINUOUS
 62
0
370
-2
100
AcDbMText
 10
3023.75
 20
-99.99999999999999
 30
0.0
 40
90.0
 41
180.0
 71
5
 72
1
  1
200
  7
standard
210
0.0
220
0.0
230
1.0
 50
90.0
 73
2
 44
1.0
  0
LINE
  5
21D
100
AcDbEntity
  8
dimension
  6
ByBlock
 62
0
370
-2
100
AcDbLine
 10
3153.033008588991
 20
-253.033008588991
 11
3046.966991411009
 21
-146.9669914110089
  0
LINE
  5
21E
100
AcDbEntity
  8
dimension
  6
ByBlock
 62
0
370
-2
100
AcDbLine
 10
3153.033008588991
 20
-53.03300858899107
 11
3046.966991411009
 21
53.03300858899107
  0
LINE
  5
21F
100
AcDbEntity
  8
dimension
  6
ByBlock
 62
0
370
-2
100
AcDbLine
 10
2931.25
 20
-200.0
 11
3106.25
 21
-200.0
  0
LINE
  5
220
100
AcDbEntity
  8
dimension
  6
ByBlock
 62
0
370
-2
100
AcDbLine
 10
2931.25
 20
0.0
 11
3106.25
 21
0.0
  0
ENDBLK
  5
E5
330
E3
100
AcDbEntity
  8
0
100
AcDbBlockEnd
  0
BLOCK
  5
69
330
68
100
AcDbEntity
  8
0
100
AcDbBlockBegin
  2
*D11
 70
1
 10
0.0
 20
0.0
  3
*D11
  1

  0
LINE
  5
125
100
AcDbEntity
  8
dimension
  6
ByBlock
 62
0
370
-2
100
AcDbLine
 10
0.0
 20
-5200.0
 11
1365.0
 21
-5200.0
  0
MTEXT
  5
126
100
AcDbEntity
  8
dimension
  6
CONTINUOUS
 62
0
370
-2
100
AcDbMText
 10
682.5
 20
-5123.75
 30
0.0
 40
90.0
 41
230.0000000000168
 71
5
 72
1
  1
1365
  7
standard
210
0.0
220
0.0
230
1.0
 50
0.0
 73
2
 44
1.0
  0
LINE
  5
127
100
AcDbEntity
  8
dimension
  6
ByBlock
 62
0
370
-2
100
AcDbLine
 10
53.03300858899107
 20
-5146.966991411009
 11
-53.03300858899107
 21
-5253.033008588991
  0
LINE
  5
128
100
AcDbEntity
  8
dimension
  6
ByBlock
 62
0
370
-2
100
AcDbLine
 10
1418.033008588991
 20
-5146.966991411009
 11
1311.966991411009
 21
-5253.033008588991
  0
LINE
  5
129
100
AcDbEntity
  8
dimension
  6
ByBlock
 62
0
370
-2
100
AcDbLine
 10
1.913510623667739e-15
 20
-5368.75
 11
3.827021247335479e-16
 21
-5193.75
  0
LINE
  5
12A
100
AcDbEntity
  8
dimension
  6
ByBlock
 62
0
370
-2
100
AcDbLine
 10
1365.0
 20
-5368.75
 11
1365.0
 21
-5193.75
  0
ENDBLK
  5
6A
330
68
100
AcDbEntity
  8
0
100
AcDbBlockEnd
  0
BLOCK
  5
B4
330
B3
100
AcDbEntity
  8
0
100
AcDbBlockBegin
  2
*D37
 70
1
 10
0.0
 20
0.0
  3
*D37
  1

  0
LINE
  5
1BB
100
AcDbEntity
  8
dimension
  6
ByBlock
 62
0
370
-2
100
AcDbLine
 10
1800.0
 20
-6290.0
 11
1800.0
 21
-7040.0
  0
MTEXT
  5
1BC
100
AcDbEntity
  8
dimension
  6
CONTINUOUS
 62
0
370
-2
100
AcDbMText
 10
1723.75
 20
-6665.0
 30
0.0
 40
90.0
 41
180.0000000000056
 71
5
 72
1
  1
750
  7
standard
210
0.0
220
0.0
230
1.0
 50
90.0
 73
2
 44
1.0
  0
LINE
  5
1BD
100
AcDbEntity
  8
dimension
  6
ByBlock
 62
0
370
-2
100
AcDbLine
 10
1853.033008588991
 20
-6343.033008588991
 11
1746.966991411009
 21
-6236.966991411009
  0
LINE
  5
1BE
100
AcDbEntity
  8
dimension
  6
ByBlock
 62
0
370
-2
100
AcDbLine
 10
1853.033008588991
 20
-7093.033008588991
 11
1746.966991411009
 21
-6986.966991411009
  0
LINE
  5
1BF
100
AcDbEntity
  8
dimension
  6
ByBlock
 62
0
370
-2
100
AcDbLine
 10
1396.25
 20
-6290.0
 11
1806.25
 21
-6290.0
  0
LINE
  5
1C0
100
AcDbEntity
  8
dimension
  6
ByBlock
 62
0
370
-2
100
AcDbLine
 10
1396.25
 20
-7040.0
 11
1806.25
 21
-7040.0
  0
ENDBLK
  5
B5
330
B3
100
AcDbEntity
  8
0
100
AcDbBlockEnd
  0
BLOCK
  5
C0
330
BF
100
AcDbEntity
  8
0
100
AcDbBlockBegin
  2
*D50
 70
1
 10
0.0
 20
0.0
  3
*D50
  1

  0
LINE
  5
1D3
100
AcDbEntity
  8
dimension
  6
ByBlock
 62
0
370
-2
100
AcDbLine
 10
5600.0
 20
-5180.0
 11
5600.0
 21
-6085.0
  0
MTEXT
  5
1D4
100
AcDbEntity
  8
dimension
  6
CONTINUOUS
 62
0
370
-2
100
AcDbMText
 10
5523.75
 20
-5632.5
 30
0.0
 40
90.0
 41
180.0000000000112
 71
5
 72
1
  1
905
  7
standard
210
0.0
220
0.0
230
1.0
 50
90.0
 73
2
 44
1.0
  0
LINE
  5
1D5
100
AcDbEntity
  8
dimension
  6
ByBlock
 62
0
370
-2
100
AcDbLine
 10
5653.033008588991
 20
-5233.033008588991
 11
5546.966991411009
 21
-5126.966991411009
  0
LINE
  5
1D6
100
AcDbEntity
  8
dimension
  6
ByBlock
 62
0
370
-2
100
AcDbLine
 10
5653.033008588991
 20
-6138.033008588991
 11
5546.966991411009
 21
-6031.966991411009
  0
LINE
  5
1D7
100
AcDbEntity
  8
dimension
  6
ByBlock
 62
0
370
-2
100
AcDbLine
 10
5763.75
 20
-5180.0
 11
5593.75
 21
-5180.0
  0
LINE
  5
1D8
100
AcDbEntity
  8
dimension
  6
ByBlock
 62
0
370
-2
100
AcDbLine
 10
5763.75
 20
-6085.0
 11
5593.75
 21
-6085.0
  0
ENDBLK
  5
C1
330
BF
100
AcDbEntity
  8
0
100
AcDbBlockEnd
  0
BLOCK
  5
A5
330
A4
100
AcDbEntity
  8
0
100
AcDbBlockBegin
  2
*D27
 70
1
 10
0.0
 20
0.0
  3
*D27
  1

  0
LINE
  5
19D
100
AcDbEntity
  8
dimension
  6
ByBlock
 62
0
370
-2
100
AcDbLine
 10
5455.0
 20
-5940.0
 11
6045.0
 21
-5940.0
  0
MTEXT
  5
19E
100
AcDbEntity
  8
dimension
  6
CONTINUOUS
 62
0
370
-2
100
AcDbMText
 10
5881.250000000003
 20
-5863.75
 30
0.0
 40
90.0
 41
110.0000000000056
 71
5
 72
1
  1
90
  7
standard
210
0.0
220
0.0
230
1.0
 50
0.0
 73
2
 44
1.0
  0
LINE
  5
19F
100
AcDbEntity
  8
dimension
  6
ByBlock
 62
0
370
-2
100
AcDbLine
 10
5651.966991411009
 20
-5993.033008588991
 11
5758.033008588991
 21
-5886.966991411009
  0
LINE
  5
1A0
100
AcDbEntity
  8
dimension
  6
ByBlock
 62
0
370
-2
100
AcDbLine
 10
5741.966991411009
 20
-5993.033008588991
 11
5848.033008588991
 21
-5886.966991411009
  0
LINE
  5
1A1
100
AcDbEntity
  8
dimension
  6
ByBlock
 62
0
370
-2
100
AcDbLine
 10
5705.0
 20
-6053.75
 11
5705.0
 21
-5933.75
  0
LINE
  5
1A2
100
AcDbEntity
  8
dimension
  6
ByBlock
 62
0
370
-2
100
AcDbLine
 10
5795.0
 20
-6053.75
 11
5795.0
 21
-5933.75
  0
ENDBLK
  5
A6
330
A4
100
AcDbEntity
  8
0
100
AcDbBlockEnd
  0
BLOCK
  5
A2
330
A1
100
AcDbEntity
  8
0
100
AcDbBlockBegin
  2
*D3
 70
1
 10
0.0
 20
0.0
  3
*D3
  1

  0
LINE
  5
197
100
AcDbEntity
  8
dimension
  6
ByBlock
 62
0
370
-2
100
AcDbLine
 10
1200.0
 20
-400.0
 11
2060.0
 21
-400.0
  0
MTEXT
  5
198
100
AcDbEntity
  8
dimension
  6
CONTINUOUS
 62
0
370
-2
100
AcDbMText
 10
1630.0
 20
-323.75
 30
0.0
 40
90.0
 41
180.0000000000056
 71
5
 72
1
  1
860
  7
standard
210
0.0
220
0.0
230
1.0
 50
0.0
 73
2
 44
1.0
  0
LINE
  5
199
100
AcDbEntity
  8
dimension
  6
ByBlock
 62
0
370
-2
100
AcDbLine
 10
1253.033008588991
 20
-346.966991411009
 11
1146.966991411009
 21
-453.033008588991
  0
LINE
  5
19A
100
AcDbEntity
  8
dimension
  6
ByBlock
 62
0
370
-2
100
AcDbLine
 10
2113.033008588991
 20
-346.966991411009
 11
2006.966991411009
 21
-453.033008588991
  0
LINE
  5
19B
100
AcDbEntity
  8
dimension
  6
ByBlock
 62
0
370
-2
100
AcDbLine
 10
1200.0
 20
-31.25
 11
1200.0
 21
-406.25
  0
LINE
  5
19C
100
AcDbEntity
  8
dimension
  6
ByBlock
 62
0
370
-2
100
AcDbLine
 10
2060.0
 20
-31.25
 11
2060.0
 21
-406.25
  0
ENDBLK
  5
A3
330
A1
100
AcDbEntity
  8
0
100
AcDbBlockEnd
  0
BLOCK
  5
102
330
101
100
AcDbEntity
  8
0
100
AcDbBlockBegin
  2
*D40
 70
1
 10
0.0
 20
0.0
  3
*D40
  1

  0
LINE
  5
257
100
AcDbEntity
  8
dimension
  6
ByBlock
 62
0
370
-2
100
AcDbLine
 10
2000.0
 20
-7320.0
 11
2000.0
 21
-7970.405845398161
  0
MTEXT
  5
258
100
AcDbEntity
  8
dimension
  6
CONTINUOUS
 62
0
370
-2
100
AcDbMText
 10
1923.75
 20
-7458.749999999996
 30
0.0
 40
90.0
 41
160.0000000000056
 71
5
 72
1
  1
150
  7
standard
210
0.0
220
0.0
230
1.0
 50
90.0
 73
2
 44
1.0
  0
LINE
  5
259
100
AcDbEntity
  8
dimension
  6
ByBlock
 62
0
370
-2
100
AcDbLine
 10
1946.966991411009
 20
-7516.966991411009
 11
2053.033008588991
 21
-7623.033008588991
  0
LINE
  5
25A
100
AcDbEntity
  8
dimension
  6
ByBlock
 62
0
370
-2
100
AcDbLine
 10
1946.966991411009
 20
-7667.37283680917
 11
2053.033008588991
 21
-7773.438853987152
  0
LINE
  5
25B
100
AcDbEntity
  8
dimension
  6
ByBlock
 62
0
370
-2
100
AcDbLine
 10
1856.25
 20
-7570.0
 11
2006.25
 21
-7570.0
  0
LINE
  5
25C
100
AcDbEntity
  8
dimension
  6
ByBlock
 62
0
370
-2
100
AcDbLine
 10
1856.25
 20
-7720.405845398161
 11
2006.25
 21
-7720.405845398161
  0
ENDBLK
  5
103
330
101
100
AcDbEntity
  8
0
100
AcDbBlockEnd
  0
BLOCK
  5
DE
330
DD
100
AcDbEntity
  8
0
100
AcDbBlockBegin
  2
*D19
 70
1
 10
0.0
 20
0.0
  3
*D19
  1

  0
LINE
  5
20F
100
AcDbEntity
  8
dimension
  6
ByBlock
 62
0
370
-2
100
AcDbLine
 10
1265.0
 20
-6400.0
 11
800.0
 21
-6400.0
  0
MTEXT
  5
210
100
AcDbEntity
  8
dimension
  6
CONTINUOUS
 62
0
370
-2
100
AcDbMText
 10
1032.5
 20
-6323.75
 30
0.0
 40
90.0
 41
190.0000000000112
 71
5
 72
1
  1
465
  7
standard
210
0.0
220
0.0
230
1.0
 50
0.0
 73
2
 44
1.0
  0
LINE
  5
211
100
AcDbEntity
  8
dimension
  6
ByBlock
 62
0
370
-2
100
AcDbLine
 10
1211.966991411009
 20
-6453.033008588991
 11
1318.033008588991
 21
-6346.966991411009
  0
LINE
  5
212
100
AcDbEntity
  8
dimension
  6
ByBlock
 62
0
370
-2
100
AcDbLine
 10
746.966991411009
 20
-6453.033008588991
 11
853.033008588991
 21
-6346.966991411009
  0
LINE
  5
213
100
AcDbEntity
  8
dimension
  6
ByBlock
 62
0
370
-2
100
AcDbLine
 10
1265.0
 20
-6261.25
 11
1265.0
 21
-6406.25
  0
LINE
  5
214
100
AcDbEntity
  8
dimension
  6
ByBlock
 62
0
370
-2
100
AcDbLine
 10
800.0
 20
-6261.25
 11
800.0
 21
-6406.25
  0
ENDBLK
  5
DF
330
DD
100
AcDbEntity
  8
0
100
AcDbBlockEnd
  0
BLOCK
  5
81
330
80
100
AcDbEntity
  8
0
100
AcDbBlockBegin
  2
*D44
 70
1
 10
0.0
 20
0.0
  3
*D44
  1

  0
LINE
  5
155
100
AcDbEntity
  8
dimension
  6
ByBlock
 62
0
370
-2
100
AcDbLine
 10
3800.0
 20
-5940.0
 11
3800.0
 21
-6690.0
  0
MTEXT
  5
156
100
AcDbEntity
  8
dimension
  6
CONTINUOUS
 62
0
370
-2
100
AcDbMText
 10
3723.75
 20
-6315.0
 30
0.0
 40
90.0
 41
180.0000000000056
 71
5
 72
1
  1
750
  7
standard
210
0.0
220
0.0
230
1.0
 50
90.0
 73
2
 44
1.0
  0
LINE
  5
157
100
AcDbEntity
  8
dimension
  6
ByBlock
 62
0
370
-2
100
AcDbLine
 10
3853.033008588991
 20
-5993.033008588991
 11
3746.966991411009
 21
-5886.966991411009
  0
LINE
  5
158
100
AcDbEntity
  8
dimension
  6
ByBlock
 62
0
370
-2
100
AcDbLine
 10
3853.033008588991
 20
-6743.033008588991
 11
3746.966991411009
 21
-6636.966991411009
  0
LINE
  5
159
100
AcDbEntity
  8
dimension
  6
ByBlock
 62
0
370
-2
100
AcDbLine
 10
3973.75
 20
-5940.0
 11
3793.75
 21
-5940.0
  0
LINE
  5
15A
100
AcDbEntity
  8
dimension
  6
ByBlock
 62
0
370
-2
100
AcDbLine
 10
3973.75
 20
-6690.0
 11
3793.75
 21
-6690.0
  0
ENDBLK
  5
82
330
80
100
AcDbEntity
  8
0
100
AcDbBlockEnd
  0
BLOCK
  5
111
330
110
100
AcDbEntity
  8
0
100
AcDbBlockBegin
  2
*D48
 70
1
 10
0.0
 20
0.0
  3
*D48
  1

  0
LINE
  5
275
100
AcDbEntity
  8
dimension
  6
ByBlock
 62
0
370
-2
100
AcDbLine
 10
4500.0
 20
-6690.0
 11
4500.0
 21
-5940.0
  0
MTEXT
  5
276
100
AcDbEntity
  8
dimension
  6
CONTINUOUS
 62
0
370
-2
100
AcDbMText
 10
4423.75
 20
-6315.0
 30
0.0
 40
90.0
 41
180.0000000000056
 71
5
 72
1
  1
750
  7
standard
210
0.0
220
0.0
230
1.0
 50
90.0
 73
2
 44
1.0
  0
LINE
  5
277
100
AcDbEntity
  8
dimension
  6
ByBlock
 62
0
370
-2
100
AcDbLine
 10
4446.966991411009
 20
-6636.966991411009
 11
4553.033008588991
 21
-6743.033008588991
  0
LINE
  5
278
100
AcDbEntity
  8
dimension
  6
ByBlock
 62
0
370
-2
100
AcDbLine
 10
4446.966991411009
 20
-5886.966991411009
 11
4553.033008588991
 21
-5993.033008588991
  0
LINE
  5
279
100
AcDbEntity
  8
dimension
  6
ByBlock
 62
0
370
-2
100
AcDbLine
 10
4136.25
 20
-6690.0
 11
4506.25
 21
-6690.0
  0
LINE
  5
27A
100
AcDbEntity
  8
dimension
  6
ByBlock
 62
0
370
-2
100
AcDbLine
 10
4136.25
 20
-5940.0
 11
4506.25
 21
-5940.0
  0
ENDBLK
  5
112
330
110
100
AcDbEntity
  8
0
100
AcDbBlockEnd
  0
BLOCK
  5
F3
330
F2
100
AcDbEntity
  8
0
100
AcDbBlockBegin
  2
*D12
 70
1
 10
0.0
 20
0.0
  3
*D12
  1

  0
LINE
  5
239
100
AcDbEntity
  8
dimension
  6
ByBlock
 62
0
370
-2
100
AcDbLine
 10
1365.0
 20
-7400.0
 11
1825.0
 21
-7400.0
  0
MTEXT
  5
23A
100
AcDbEntity
  8
dimension
  6
CONTINUOUS
 62
0
370
-2
100
AcDbMText
 10
1595.0
 20
-7323.75
 30
0.0
 40
90.0
 41
190.0000000000056
 71
5
 72
1
  1
460
  7
standard
210
0.0
220
0.0
230
1.0
 50
0.0
 73
2
 44
1.0
  0
LINE
  5
23B
100
AcDbEntity
  8
dimension
  6
ByBlock
 62
0
370
-2
100
AcDbLine
 10
1418.033008588991
 20
-7346.966991411009
 11
1311.966991411009
 21
-7453.033008588991
  0
LINE
  5
23C
100
AcDbEntity
  8
dimension
  6
ByBlock
 62
0
370
-2
100
AcDbLine
 10
1878.033008588991
 20
-7346.966991411009
 11
1771.966991411009
 21
-7453.033008588991
  0
LINE
  5
23D
100
AcDbEntity
  8
dimension
  6
ByBlock
 62
0
370
-2
100
AcDbLine
 10
1365.0
 20
-7538.75
 11
1365.0
 21
-7393.75
  0
LINE
  5
23E
100
AcDbEntity
  8
dimension
  6
ByBlock
 62
0
370
-2
100
AcDbLine
 10
1825.0
 20
-7538.75
 11
1825.0
 21
-7393.75
  0
ENDBLK
  5
F4
330
F2
100
AcDbEntity
  8
0
100
AcDbBlockEnd
  0
BLOCK
  5
9F
330
9E
100
AcDbEntity
  8
0
100
AcDbBlockBegin
  2
*D21
 70
1
 10
0.0
 20
0.0
  3
*D21
  1

  0
LINE
  5
191
100
AcDbEntity
  8
dimension
  6
ByBlock
 62
0
370
-2
100
AcDbLine
 10
-4.547473508864641e-13
 20
-7400.0
 11
1265.0
 21
-7400.0
  0
MTEXT
  5
192
100
AcDbEntity
  8
dimension
  6
CONTINUOUS
 62
0
370
-2
100
AcDbMText
 10
632.4999999999998
 20
-7323.75
 30
0.0
 40
90.0
 41
230.0000000000112
 71
5
 72
1
  1
1265
  7
standard
210
0.0
220
0.0
230
1.0
 50
0.0
 73
2
 44
1.0
  0
LINE
  5
193
100
AcDbEntity
  8
dimension
  6
ByBlock
 62
0
370
-2
100
AcDbLine
 10
53.03300858899062
 20
-7346.966991411009
 11
-53.03300858899153
 21
-7453.033008588991
  0
LINE
  5
194
100
AcDbEntity
  8
dimension
  6
ByBlock
 62
0
370
-2
100
AcDbLine
 10
1318.033008588991
 20
-7346.966991411009
 11
1211.966991411009
 21
-7453.033008588991
  0
LINE
  5
195
100
AcDbEntity
  8
dimension
  6
ByBlock
 62
0
370
-2
100
AcDbLine
 10
-4.622276262531791e-13
 20
-7538.75
 11
-4.543646487617306e-13
 21
-7393.75
  0
LINE
  5
196
100
AcDbEntity
  8
dimension
  6
ByBlock
 62
0
370
-2
100
AcDbLine
 10
1265.0
 20
-7538.75
 11
1265.0
 21
-7393.75
  0
ENDBLK
  5
A0
330
9E
100
AcDbEntity
  8
0
100
AcDbBlockEnd
  0
BLOCK
  5
EA
330
E9
100
AcDbEntity
  8
0
100
AcDbBlockBegin
  2
*D25
 70
1
 10
0.0
 20
0.0
  3
*D25
  1

  0
LINE
  5
227
100
AcDbEntity
  8
dimension
  6
ByBlock
 62
0
370
-2
100
AcDbLine
 10
3755.0
 20
-6100.0
 11
4355.0
 21
-6100.0
  0
MTEXT
  5
228
100
AcDbEntity
  8
dimension
  6
CONTINUOUS
 62
0
370
-2
100
AcDbMText
 10
4216.25
 20
-6023.75
 30
0.0
 40
90.0
 41
160.0
 71
5
 72
1
  1
100
  7
standard
210
0.0
220
0.0
230
1.0
 50
0.0
 73
2
 44
1.0
  0
LINE
  5
229
100
AcDbEntity
  8
dimension
  6
ByBlock
 62
0
370
-2
100
AcDbLine
 10
3951.966991411009
 20
-6153.033008588991
 11
4058.033008588991
 21
-6046.966991411009
  0
LINE
  5
22A
100
AcDbEntity
  8
dimension
  6
ByBlock
 62
0
370
-2
100
AcDbLine
 10
4051.966991411009
 20
-6153.033008588991
 11
4158.033008588991
 21
-6046.966991411009
  0
LINE
  5
22B
100
AcDbEntity
  8
dimension
  6
ByBlock
 62
0
370
-2
100
AcDbLine
 10
4005.0
 20
-5971.25
 11
4005.0
 21
-6106.25
  0
LINE
  5
22C
100
AcDbEntity
  8
dimension
  6
ByBlock
 62
0
370
-2
100
AcDbLine
 10
4105.0
 20
-5971.25
 11
4105.0
 21
-6106.25
  0
ENDBLK
  5
EB
330
E9
100
AcDbEntity
  8
0
100
AcDbBlockEnd
  0
BLOCK
  5
10E
330
10D
100
AcDbEntity
  8
0
100
AcDbBlockBegin
  2
*D35
 70
1
 10
0.0
 20
0.0
  3
*D35
  1

  0
LINE
  5
26F
100
AcDbEntity
  8
dimension
  6
ByBlock
 62
0
370
-2
100
AcDbLine
 10
1200.0
 20
-6540.0
 11
1200.0
 21
-5980.0
  0
MTEXT
  5
270
100
AcDbEntity
  8
dimension
  6
CONTINUOUS
 62
0
370
-2
100
AcDbMText
 10
1123.75
 20
-6143.749999999997
 30
0.0
 40
90.0
 41
110.0000000000056
 71
5
 72
1
  1
60
  7
standard
210
0.0
220
0.0
230
1.0
 50
90.0
 73
2
 44
1.0
  0
LINE
  5
271
100
AcDbEntity
  8
dimension
  6
ByBlock
 62
0
370
-2
100
AcDbLine
 10
1253.033008588991
 20
-6343.033008588991
 11
1146.966991411009
 21
-6236.966991411009
  0
LINE
  5
272
100
AcDbEntity
  8
dimension
  6
ByBlock
 62
0
370
-2
100
AcDbLine
 10
1253.033008588991
 20
-6283.033008588991
 11
1146.966991411009
 21
-6176.966991411009
  0
LINE
  5
273
100
AcDbEntity
  8
dimension
  6
ByBlock
 62
0
370
-2
100
AcDbLine
 10
1233.75
 20
-6290.0
 11
1193.75
 21
-6290.0
  0
LINE
  5
274
100
AcDbEntity
  8
dimension
  6
ByBlock
 62
0
370
-2
100
AcDbLine
 10
1233.75
 20
-6230.0
 11
1193.75
 21
-6230.0
  0
ENDBLK
  5
10F
330
10D
100
AcDbEntity
  8
0
100
AcDbBlockEnd
  0
BLOCK
  5
93
330
92
100
AcDbEntity
  8
0
100
AcDbBlockBegin
  2
*D31
 70
1
 10
0.0
 20
0.0
  3
*D31
  1

  0
LINE
  5
179
100
AcDbEntity
  8
dimension
  6
ByBlock
 62
0
370
-2
100
AcDbLine
 10
4105.0
 20
-3800.0
 11
5795.0
 21
-3800.0
  0
MTEXT
  5
17A
100
AcDbEntity
  8
dimension
  6
CONTINUOUS
 62
0
370
-2
100
AcDbMText
 10
4950.0
 20
-3723.75
 30
0.0
 40
90.0
 41
230.0000000000056
 71
5
 72
1
  1
1690
  7
standard
210
0.0
220
0.0
230
1.0
 50
0.0
 73
2
 44
1.0
  0
LINE
  5
17B
100
AcDbEntity
  8
dimension
  6
ByBlock
 62
0
370
-2
100
AcDbLine
 10
4158.033008588991
 20
-3746.966991411009
 11
4051.966991411009
 21
-3853.033008588991
  0
LINE
  5
17C
100
AcDbEntity
  8
dimension
  6
ByBlock
 62
0
370
-2
100
AcDbLine
 10
5848.033008588991
 20
-3746.966991411009
 11
5741.966991411009
 21
-3853.033008588991
  0
LINE
  5
17D
100
AcDbEntity
  8
dimension
  6
ByBlock
 62
0
370
-2
100
AcDbLine
 10
4105.0
 20
-4148.75
 11
4105.0
 21
-3793.75
  0
LINE
  5
17E
100
AcDbEntity
  8
dimension
  6
ByBlock
 62
0
370
-2
100
AcDbLine
 10
5795.0
 20
-4248.75
 11
5795.0
 21
-3793.75
  0
ENDBLK
  5
94
330
92
100
AcDbEntity
  8
0
100
AcDbBlockEnd
  0
BLOCK
  5
9C
330
9B
100
AcDbEntity
  8
0
100
AcDbBlockBegin
  2
*D9
 70
1
 10
0.0
 20
0.0
  3
*D9
  1

  0
LINE
  5
18B
100
AcDbEntity
  8
dimension
  6
ByBlock
 62
0
370
-2
100
AcDbLine
 10
5445.0
 20
-399.9999999999999
 11
6045.0
 21
-400.0000000000001
  0
MTEXT
  5
18C
100
AcDbEntity
  8
dimension
  6
CONTINUOUS
 62
0
370
-2
100
AcDbMText
 10
5906.25
 20
-323.75
 30
0.0
 40
90.0
 41
160.0
 71
5
 72
1
  1
100
  7
standard
210
0.0
220
0.0
230
1.0
 50
0.0
 73
2
 44
1.0
  0
LINE
  5
18D
100
AcDbEntity
  8
dimension
  6
ByBlock
 62
0
370
-2
100
AcDbLine
 10
5641.966991411009
 20
-453.033008588991
 11
5748.033008588991
 21
-346.966991411009
  0
LINE
  5
18E
100
AcDbEntity
  8
dimension
  6
ByBlock
 62
0
370
-2
100
AcDbLine
 10
5741.966991411009
 20
-453.033008588991
 11
5848.033008588991
 21
-346.966991411009
  0
LINE
  5
18F
100
AcDbEntity
  8
dimension
  6
ByBlock
 62
0
370
-2
100
AcDbLine
 10
5695.0
 20
-231.25
 11
5695.0
 21
-406.25
  0
LINE
  5
190
100
AcDbEntity
  8
dimension
  6
ByBlock
 62
0
370
-2
100
AcDbLine
 10
5795.0
 20
-231.25
 11
5795.0
 21
-406.25
  0
ENDBLK
  5
9D
330
9B
100
AcDbEntity
  8
0
100
AcDbBlockEnd
  0
BLOCK
  5
7B
330
7A
100
AcDbEntity
  8
0
100
AcDbBlockBegin
  2
*D57
 70
1
 10
0.0
 20
0.0
  3
*D57
  1

  0
LINE
  5
149
100
AcDbEntity
  8
dimension
  6
ByBlock
 62
0
370
-2
100
AcDbLine
 10
3800.0
 20
-3385.0
 11
3800.0
 21
2.524354896707238e-29
  0
MTEXT
  5
14A
100
AcDbEntity
  8
dimension
  6
CONTINUOUS
 62
0
370
-2
100
AcDbMText
 10
3723.75
 20
-1692.5
 30
0.0
 40
90.0
 41
250.0000000000168
 71
5
 72
1
  1
3385
  7
standard
210
0.0
220
0.0
230
1.0
 50
90.0
 73
2
 44
1.0
  0
LINE
  5
14B
100
AcDbEntity
  8
dimension
  6
ByBlock
 62
0
370
-2
100
AcDbLine
 10
3746.966991411009
 20
-3331.966991411009
 11
3853.033008588991
 21
-3438.033008588991
  0
LINE
  5
14C
100
AcDbEntity
  8
dimension
  6
ByBlock
 62
0
370
-2
100
AcDbLine
 10
3746.966991411009
 20
53.03300858899107
 11
3853.033008588991
 21
-53.03300858899107
  0
LINE
  5
14D
100
AcDbEntity
  8
dimension
  6
ByBlock
 62
0
370
-2
100
AcDbLine
 10
3973.75
 20
-3385.0
 11
3793.75
 21
-3385.0
  0
LINE
  5
14E
100
AcDbEntity
  8
dimension
  6
ByBlock
 62
0
370
-2
100
AcDbLine
 10
5283.75
 20
3.827021247335479e-15
 11
3793.75
 21
7.65404249467121e-16
  0
ENDBLK
  5
7C
330
7A
100
AcDbEntity
  8
0
100
AcDbBlockEnd
  0
BLOCK
  5
C9
330
C8
100
AcDbEntity
  8
0
100
AcDbBlockBegin
  2
*D28
 70
1
 10
0.0
 20
0.0
  3
*D28
  1

  0
LINE
  5
1E5
100
AcDbEntity
  8
dimension
  6
ByBlock
 62
0
370
-2
100
AcDbLine
 10
5795.0
 20
-4000.0
 11
5050.0
 21
-4000.0
  0
MTEXT
  5
1E6
100
AcDbEntity
  8
dimension
  6
CONTINUOUS
 62
0
370
-2
100
AcDbMText
 10
5422.5
 20
-3923.75
 30
0.0
 40
90.0
 41
190.0000000000056
 71
5
 72
1
  1
745
  7
standard
210
0.0
220
0.0
230
1.0
 50
0.0
 73
2
 44
1.0
  0
LINE
  5
1E7
100
AcDbEntity
  8
dimension
  6
ByBlock
 62
0
370
-2
100
AcDbLine
 10
5741.966991411009
 20
-4053.033008588991
 11
5848.033008588991
 21
-3946.966991411009
  0
LINE
  5
1E8
100
AcDbEntity
  8
dimension
  6
ByBlock
 62
0
370
-2
100
AcDbLine
 10
4996.966991411009
 20
-4053.033008588991
 11
5103.033008588991
 21
-3946.966991411009
  0
LINE
  5
1E9
100
AcDbEntity
  8
dimension
  6
ByBlock
 62
0
370
-2
100
AcDbLine
 10
5795.0
 20
-4248.75
 11
5795.0
 21
-3993.75
  0
LINE
  5
1EA
100
AcDbEntity
  8
dimension
  6
ByBlock
 62
0
370
-2
100
AcDbLine
 10
5050.0
 20
-4248.75
 11
5050.0
 21
-3993.75
  0
ENDBLK
  5
CA
330
C8
100
AcDbEntity
  8
0
100
AcDbBlockEnd
  0
BLOCK
  5
E7
330
E6
100
AcDbEntity
  8
0
100
AcDbBlockBegin
  2
*D13
 70
1
 10
0.0
 20
0.0
  3
*D13
  1

  0
LINE
  5
221
100
AcDbEntity
  8
dimension
  6
ByBlock
 62
0
370
-2
100
AcDbLine
 10
1825.0
 20
-7400.0
 11
2850.0
 21
-7400.0
  0
MTEXT
  5
222
100
AcDbEntity
  8
dimension
  6
CONTINUOUS
 62
0
370
-2
100
AcDbMText
 10
2337.5
 20
-7323.75
 30
0.0
 40
90.0
 41
230.0000000000056
 71
5
 72
1
  1
1025
  7
standard
210
0.0
220
0.0
230
1.0
 50
0.0
 73
2
 44
1.0
  0
LINE
  5
223
100
AcDbEntity
  8
dimension
  6
ByBlock
 62
0
370
-2
100
AcDbLine
 10
1878.033008588991
 20
-7346.966991411009
 11
1771.966991411009
 21
-7453.033008588991
  0
LINE
  5
224
100
AcDbEntity
  8
dimension
  6
ByBlock
 62
0
370
-2
100
AcDbLine
 10
2903.033008588991
 20
-7346.966991411009
 11
2796.966991411009
 21
-7453.033008588991
  0
LINE
  5
225
100
AcDbEntity
  8
dimension
  6
ByBlock
 62
0
370
-2
100
AcDbLine
 10
1825.0
 20
-7538.75
 11
1825.0
 21
-7393.75
  0
LINE
  5
226
100
AcDbEntity
  8
dimension
  6
ByBlock
 62
0
370
-2
100
AcDbLine
 10
2850.0
 20
-7538.75
 11
2850.0
 21
-7393.75
  0
ENDBLK
  5
E8
330
E6
100
AcDbEntity
  8
0
100
AcDbBlockEnd
  0
BLOCK
  5
D5
330
D4
100
AcDbEntity
  8
0
100
AcDbBlockBegin
  2
*D18
 70
1
 10
0.0
 20
0.0
  3
*D18
  1

  0
LINE
  5
1FD
100
AcDbEntity
  8
dimension
  6
ByBlock
 62
0
370
-2
100
AcDbLine
 10
1615.0
 20
-6400.0
 11
1015.0
 21
-6400.0
  0
MTEXT
  5
1FE
100
AcDbEntity
  8
dimension
  6
CONTINUOUS
 62
0
370
-2
100
AcDbMText
 10
1476.25
 20
-6323.75
 30
0.0
 40
90.0
 41
160.0
 71
5
 72
1
  1
100
  7
standard
210
0.0
220
0.0
230
1.0
 50
0.0
 73
2
 44
1.0
  0
LINE
  5
1FF
100
AcDbEntity
  8
dimension
  6
ByBlock
 62
0
370
-2
100
AcDbLine
 10
1418.033008588991
 20
-6346.966991411009
 11
1311.966991411009
 21
-6453.033008588991
  0
LINE
  5
200
100
AcDbEntity
  8
dimension
  6
ByBlock
 62
0
370
-2
100
AcDbLine
 10
1318.033008588991
 20
-6346.966991411009
 11
1211.966991411009
 21
-6453.033008588991
  0
LINE
  5
201
100
AcDbEntity
  8
dimension
  6
ByBlock
 62
0
370
-2
100
AcDbLine
 10
1365.0
 20
-6321.25
 11
1365.0
 21
-6406.25
  0
LINE
  5
202
100
AcDbEntity
  8
dimension
  6
ByBlock
 62
0
370
-2
100
AcDbLine
 10
1265.0
 20
-6321.25
 11
1265.0
 21
-6406.25
  0
ENDBLK
  5
D6
330
D4
100
AcDbEntity
  8
0
100
AcDbBlockEnd
  0
BLOCK
  5
8D
330
8C
100
AcDbEntity
  8
0
100
AcDbBlockBegin
  2
*D2
 70
1
 10
0.0
 20
0.0
  3
*D2
  1

  0
LINE
  5
16D
100
AcDbEntity
  8
dimension
  6
ByBlock
 62
0
370
-2
100
AcDbLine
 10
390.0
 20
-400.0
 11
1200.0
 21
-400.0
  0
MTEXT
  5
16E
100
AcDbEntity
  8
dimension
  6
CONTINUOUS
 62
0
370
-2
100
AcDbMText
 10
795.0
 20
-323.75
 30
0.0
 40
90.0
 41
160.0
 71
5
 72
1
  1
810
  7
standard
210
0.0
220
0.0
230
1.0
 50
0.0
 73
2
 44
1.0
  0
LINE
  5
16F
100
AcDbEntity
  8
dimension
  6
ByBlock
 62
0
370
-2
100
AcDbLine
 10
443.0330085889911
 20
-346.966991411009
 11
336.9669914110089
 21
-453.033008588991
  0
LINE
  5
170
100
AcDbEntity
  8
dimension
  6
ByBlock
 62
0
370
-2
100
AcDbLine
 10
1253.033008588991
 20
-346.966991411009
 11
1146.966991411009
 21
-453.033008588991
  0
LINE
  5
171
100
AcDbEntity
  8
dimension
  6
ByBlock
 62
0
370
-2
100
AcDbLine
 10
390.0
 20
-31.25
 11
390.0
 21
-406.25
  0
LINE
  5
172
100
AcDbEntity
  8
dimension
  6
ByBlock
 62
0
370
-2
100
AcDbLine
 10
1200.0
 20
-31.25
 11
1200.0
 21
-406.25
  0
ENDBLK
  5
8E
330
8C
100
AcDbEntity
  8
0
100
AcDbBlockEnd
  0
BLOCK
  5
105
330
104
100
AcDbEntity
  8
0
100
AcDbBlockBegin
  2
*D22
 70
1
 10
0.0
 20
0.0
  3
*D22
  1

  0
LINE
  5
25D
100
AcDbEntity
  8
dimension
  6
ByBlock
 62
0
370
-2
100
AcDbLine
 10
1015.0
 20
-6900.0
 11
1615.0
 21
-6900.0
  0
MTEXT
  5
25E
100
AcDbEntity
  8
dimension
  6
CONTINUOUS
 62
0
370
-2
100
AcDbMText
 10
1476.25
 20
-6823.75
 30
0.0
 40
90.0
 41
160.0
 71
5
 72
1
  1
100
  7
standard
210
0.0
220
0.0
230
1.0
 50
0.0
 73
2
 44
1.0
  0
LINE
  5
25F
100
AcDbEntity
  8
dimension
  6
ByBlock
 62
0
370
-2
100
AcDbLine
 10
1211.966991411009
 20
-6953.033008588991
 11
1318.033008588991
 21
-6846.966991411009
  0
LINE
  5
260
100
AcDbEntity
  8
dimension
  6
ByBlock
 62
0
370
-2
100
AcDbLine
 10
1311.966991411009
 20
-6953.033008588991
 11
1418.033008588991
 21
-6846.966991411009
  0
LINE
  5
261
100
AcDbEntity
  8
dimension
  6
ByBlock
 62
0
370
-2
100
AcDbLine
 10
1265.0
 20
-7008.75
 11
1265.0
 21
-6893.75
  0
LINE
  5
262
100
AcDbEntity
  8
dimension
  6
ByBlock
 62
0
370
-2
100
AcDbLine
 10
1365.0
 20
-7008.75
 11
1365.0
 21
-6893.75
  0
ENDBLK
  5
106
330
104
100
AcDbEntity
  8
0
100
AcDbBlockEnd
  0
BLOCK
  5
90
330
8F
100
AcDbEntity
  8
0
100
AcDbBlockBegin
  2
*D41
 70
1
 10
0.0
 20
0.0
  3
*D41
  1

  0
LINE
  5
173
100
AcDbEntity
  8
dimension
  6
ByBlock
 62
0
370
-2
100
AcDbLine
 10
200.0
 20
-5500.0
 11
200.0
 21
-7570.0
  0
MTEXT
  5
174
100
AcDbEntity
  8
dimension
  6
CONTINUOUS
 62
0
370
-2
100
AcDbMText
 10
123.75
 20
-6535.0
 30
0.0
 40
90.0
 41
250.0
 71
5
 72
1
  1
2070
  7
standard
210
0.0
220
0.0
230
1.0
 50
90.0
 73
2
 44
1.0
  0
LINE
  5
175
100
AcDbEntity
  8
dimension
  6
ByBlock
 62
0
370
-2
100
AcDbLine
 10
253.0330085889911
 20
-5553.033008588991
 11
146.9669914110089
 21
-5446.966991411009
  0
LINE
  5
176
100
AcDbEntity
  8
dimension
  6
ByBlock
 62
0
370
-2
100
AcDbLine
 10
253.0330085889911
 20
-7623.033008588991
 11
146.9669914110089
 21
-7516.966991411009
  0
LINE
  5
177
100
AcDbEntity
  8
dimension
  6
ByBlock
 62
0
370
-2
100
AcDbLine
 10
31.24999999999966
 20
-5500.0
 11
206.25
 21
-5500.0
  0
LINE
  5
178
100
AcDbEntity
  8
dimension
  6
ByBlock
 62
0
370
-2
100
AcDbLine
 10
31.24999999999953
 20
-7570.0
 11
206.25
 21
-7570.0
  0
ENDBLK
  5
91
330
8F
100
AcDbEntity
  8
0
100
AcDbBlockEnd
  0
BLOCK
  5
117
330
116
100
AcDbEntity
  8
0
100
AcDbBlockBegin
  2
sheet-A3-border
 70
0
 10
0.0
 20
0.0
  3
sheet-A3-border
  1

  0
LINE
  5
2B2
100
AcDbEntity
  8
01-sheet-construction
  6
ByLayer
 62
256
370
-1
100
AcDbLine
 10
0.0
 20
-297.0
 11
420.0
 21
-297.0
  0
LINE
  5
2B3
100
AcDbEntity
  8
01-sheet-construction
  6
ByLayer
 62
256
370
-1
100
AcDbLine
 10
420.0
 20
-297.0
 11
420.0
 21
0.0
  0
LINE
  5
2B4
100
AcDbEntity
  8
01-sheet-construction
  6
ByLayer
 62
256
370
-1
100
AcDbLine
 10
420.0
 20
0.0
 11
0.0
 21
0.0
  0
LINE
  5
2B5
100
AcDbEntity
  8
01-sheet-construction
  6
ByLayer
 62
256
370
-1
100
AcDbLine
 10
0.0
 20
0.0
 11
0.0
 21
-297.0
  0
LINE
  5
2B6
100
AcDbEntity
  8
01-sheet-border-inner
  6
ByLayer
 62
256
370
-1
100
AcDbLine
 10
20.0
 20
-292.0
 11
415.0
 21
-292.0
  0
LINE
  5
2B7
100
AcDbEntity
  8
01-sheet-border-inner
  6
ByLayer
 62
256
370
-1
100
AcDbLine
 10
415.0
 20
-292.0
 11
415.0
 21
-5.0
  0
LINE
  5
2B8
100
AcDbEntity
  8
01-sheet-border-inner
  6
ByLayer
 62
256
370
-1
100
AcDbLine
 10
415.0
 20
-5.0
 11
20.0
 21
-5.0
  0
LINE
  5
2B9
100
AcDbEntity
  8
01-sheet-border-inner
  6
ByLayer
 62
256
370
-1
100
AcDbLine
 10
20.0
 20
-5.0
 11
20.0
 21
-292.0
  0
LWPOLYLINE
  5
2BA
100
AcDbEntity
  8
01-sheet-border-outer
  6
ByLayer
 62
256
370
-1
100
AcDbPolyline
 90
4
 70
1
 43
0.0
 10
0.0
 20
0.0
 10
420.0
 20
0.0
 10
420.0
 20
-297.0
 10
0.0
 20
-297.0
  0
LINE
  5
2BB
100
AcDbEntity
  8
01-sheet-construction
  6
ByLayer
 62
256
370
-1
100
AcDbLine
 10
310.0
 20
-20.0
 11
405.0
 21
-20.0
  0
LINE
  5
2BC
100
AcDbEntity
  8
01-sheet-construction
  6
ByLayer
 62
256
370
-1
100
AcDbLine
 10
310.0
 20
-20.0
 11
310.0
 21
-115.0
  0
LINE
  5
2BD
100
AcDbEntity
  8
01-sheet-construction
  6
ByLayer
 62
256
370
-1
100
AcDbLine
 10
30.0
 20
-5.000000000000003
 11
30.0
 21
-292.0
  0
LINE
  5
2BE
100
AcDbEntity
  8
01-sheet-construction
  6
ByLayer
 62
256
370
-1
100
AcDbLine
 10
20.0
 20
-282.0
 11
415.0
 21
-282.0
  0
LINE
  5
2BF
100
AcDbEntity
  8
02-title-block-construction
  6
ByLayer
 62
256
370
-1
100
AcDbLine
 10
415.0
 20
-289.5
 11
250.0
 21
-289.5
  0
LINE
  5
2C0
100
AcDbEntity
  8
02-title-block-construction
  6
ByLayer
 62
256
370
-1
100
AcDbLine
 10
415.0
 20
-287.0
 11
250.0
 21
-287.0
  0
LINE
  5
2C1
100
AcDbEntity
  8
02-title-block-construction
  6
ByLayer
 62
256
370
-1
100
AcDbLine
 10
250.0
 20
-284.5
 11
415.0
 21
-284.5
  0
LINE
  5
2C2
100
AcDbEntity
  8
02-title-block-construction
  6
ByLayer
 62
256
370
-1
100
AcDbLine
 10
250.0
 20
-282.0
 11
415.0
 21
-282.0
  0
LINE
  5
2C3
100
AcDbEntity
  8
02-title-block-construction
  6
ByLayer
 62
256
370
-1
100
AcDbLine
 10
250.0
 20
-279.5
 11
415.0
 21
-279.5
  0
LINE
  5
2C4
100
AcDbEntity
  8
02-title-block-construction
  6
ByLayer
 62
256
370
-1
100
AcDbLine
 10
250.0
 20
-277.0
 11
415.0
 21
-277.0
  0
LINE
  5
2C5
100
AcDbEntity
  8
02-title-block-construction
  6
ByLayer
 62
256
370
-1
100
AcDbLine
 10
250.0
 20
-274.5
 11
415.0
 21
-274.5
  0
LINE
  5
2C6
100
AcDbEntity
  8
02-title-block-construction
  6
ByLayer
 62
256
370
-1
100
AcDbLine
 10
250.0
 20
-272.0
 11
415.0
 21
-272.0
  0
LINE
  5
2C7
100
AcDbEntity
  8
02-title-block-construction
  6
ByLayer
 62
256
370
-1
100
AcDbLine
 10
250.0
 20
-292.0
 11
250.0
 21
-272.0
  0
LINE
  5
2C8
100
AcDbEntity
  8
02-title-block-construction
  6
ByLayer
 62
256
370
-1
100
AcDbLine
 10
332.5
 20
-292.0
 11
332.5
 21
-272.0
  0
LINE
  5
2C9
100
AcDbEntity
  8
02-title-block-construction
  6
ByLayer
 62
256
370
-1
100
AcDbLine
 10
353.125
 20
-292.0000000000001
 11
353.125
 21
-272.0
  0
LINE
  5
2CA
100
AcDbEntity
  8
02-title-block-construction
  6
ByLayer
 62
256
370
-1
100
AcDbLine
 10
373.75
 20
-292.0000000000001
 11
373.75
 21
-272.0000000000001
  0
LINE
  5
2CB
100
AcDbEntity
  8
02-title-block-construction
  6
ByLayer
 62
256
370
-1
100
AcDbLine
 10
394.375
 20
-292.0000000000001
 11
394.375
 21
-272.0000000000001
  0
LINE
  5
2CC
100
AcDbEntity
  8
02-title-block-construction
  6
ByLayer
 62
256
370
-1
100
AcDbLine
 10
415.0
 20
-292.0000000000001
 11
415.0
 21
-272.0000000000001
  0
LINE
  5
2CD
100
AcDbEntity
  8
02-title-block-construction
  6
ByLayer
 62
256
370
-1
100
AcDbLine
 10
342.8125
 20
-292.0
 11
342.8125
 21
-272.0
  0
LINE
  5
2CE
100
AcDbEntity
  8
02-title-block-construction
  6
ByLayer
 62
256
370
-1
100
AcDbLine
 10
363.4375
 20
-292.0000000000001
 11
363.4375
 21
-272.0000000000001
  0
LINE
  5
2CF
100
AcDbEntity
  8
02-title-block-construction
  6
ByLayer
 62
256
370
-1
100
AcDbLine
 10
384.0625
 20
-292.0000000000001
 11
384.0625
 21
-272.0000000000001
  0
LINE
  5
2D0
100
AcDbEntity
  8
02-title-block-construction
  6
ByLayer
 62
256
370
-1
100
AcDbLine
 10
404.6875
 20
-292.0000000000001
 11
404.6875
 21
-272.0000000000001
  0
LINE
  5
2D1
100
AcDbEntity
  8
02-title-block-construction
  6
ByLayer
 62
256
370
-1
100
AcDbLine
 10
291.25
 20
-292.0
 11
291.25
 21
-272.0
  0
LWPOLYLINE
  5
2D2
100
AcDbEntity
  8
02-title-block-table
  6
ByLayer
 62
256
370
-1
100
AcDbPolyline
 90
4
 70
1
 43
0.0
 10
250.0
 20
-272.0
 10
415.0
 20
-272.0
 10
415.0
 20
-292.0
 10
250.0
 20
-292.0
  0
LINE
  5
2D3
100
AcDbEntity
  8
02-title-block-table
  6
ByLayer
 62
256
370
-1
100
AcDbLine
 10
250.0
 20
-282.0
 11
415.0
 21
-282.0
  0
LINE
  5
2D4
100
AcDbEntity
  8
02-title-block-table
  6
ByLayer
 62
256
370
-1
100
AcDbLine
 10
332.5
 20
-272.0
 11
332.5
 21
-292.0
  0
LINE
  5
2D5
100
AcDbEntity
  8
02-title-block-table
  6
ByLayer
 62
256
370
-1
100
AcDbLine
 10
353.125
 20
-272.0
 11
353.125
 21
-282.0
  0
LINE
  5
2D6
100
AcDbEntity
  8
02-title-block-table
  6
ByLayer
 62
256
370
-1
100
AcDbLine
 10
373.75
 20
-272.0
 11
373.75
 21
-282.0
  0
LINE
  5
2D7
100
AcDbEntity
  8
02-title-block-table
  6
ByLayer
 62
256
370
-1
100
AcDbLine
 10
394.375
 20
-272.0
 11
394.375
 21
-282.0
  0
LINE
  5
2D8
100
AcDbEntity
  8
02-title-block-table
  6
ByLayer
 62
256
370
-1
100
AcDbLine
 10
332.5
 20
-277.0
 11
415.0
 21
-277.0
  0
LINE
  5
2D9
100
AcDbEntity
  8
02-title-block-table
  6
ByLayer
 62
256
370
-1
100
AcDbLine
 10
332.5
 20
-287.0
 11
415.0
 21
-287.0
  0
LINE
  5
2DA
100
AcDbEntity
  8
02-title-block-table
  6
ByLayer
 62
256
370
-1
100
AcDbLine
 10
373.75
 20
-287.0
 11
373.75
 21
-292.0
  0
MTEXT
  5
2DB
100
AcDbEntity
  8
02-title-block-text
  6
ByLayer
 62
256
370
-1
100
AcDbMText
 10
342.8125
 20
-274.5
 30
0.0
 40
2.5
 41
15.0
 71
5
 72
1
  1
Масштаб
  7
unicode
210
0.0
220
0.0
230
1.0
 50
0.0
 73
2
 44
1.0
  0
MTEXT
  5
2DC
100
AcDbEntity
  8
02-title-block-text
  6
ByLayer
 62
256
370
-1
100
AcDbMText
 10
363.4375
 20
-274.5
 30
0.0
 40
2.5
 41
7.5
 71
5
 72
1
  1
Лист
  7
unicode
210
0.0
220
0.0
230
1.0
 50
0.0
 73
2
 44
1.0
  0
MTEXT
  5
2DD
100
AcDbEntity
  8
02-title-block-text
  6
ByLayer
 62
256
370
-1
100
AcDbMText
 10
384.0625
 20
-274.5
 30
0.0
 40
2.5
 41
11.38888888888889
 71
5
 72
1
  1
Листов
  7
unicode
210
0.0
220
0.0
230
1.0
 50
0.0
 73
2
 44
1.0
  0
MTEXT
  5
2DE
100
AcDbEntity
  8
02-title-block-text
  6
ByLayer
 62
256
370
-1
100
AcDbMText
 10
404.6875
 20
-274.5
 30
0.0
 40
2.5
 41
8.88888888888889
 71
5
 72
1
  1
Дата
  7
unicode
210
0.0
220
0.0
230
1.0
 50
0.0
 73
2
 44
1.0
  0
MTEXT
  5
2DF
100
AcDbEntity
  8
02-title-block-text
  6
ByLayer
 62
256
370
-1
100
AcDbMText
 10
373.75
 20
-284.5
 30
0.0
 40
2.5
 41
47.36111111111111
 71
5
 72
1
  1
Дизайнер: Ольга Правдина
  7
unicode
210
0.0
220
0.0
230
1.0
 50
0.0
 73
2
 44
1.0
  0
MTEXT
  5
2E0
100
AcDbEntity
  8
02-title-block-text
  6
ByLayer
 62
256
370
-1
100
AcDbMText
 10
394.375
 20
-289.5
 30
0.0
 40
2.5
 41
35.55555555555556
 71
5
 72
1
  1
http://artidea.gallery
  7
unicode
210
0.0
220
0.0
230
1.0
 50
0.0
 73
2
 44
1.0
  0
MTEXT
  5
2E1
100
AcDbEntity
  8
02-title-block-text
  6
ByLayer
 62
256
370
-1
100
AcDbMText
 10
353.125
 20
-289.5
 30
0.0
 40
2.5
 41
31.31944444444445
 71
5
 72
1
  1
Тел.: +79780123193
  7
unicode
210
0.0
220
0.0
230
1.0
 50
0.0
 73
2
 44
1.0
  0
MTEXT
  5
2E2
100
AcDbEntity
  8
02-title-block-text
  6
ByLayer
 62
256
370
-1
100
AcDbMText
 10
384.0625
 20
-279.5
 30
0.0
 40
2.5
 41
4.166666666666667
 71
5
 72
1
  7
unicode
210
0.0
220
0.0
230
1.0
 50
0.0
 73
2
 44
1.0
  1
13
  0
MTEXT
  5
2E3
100
AcDbEntity
  8
02-title-block-text
  6
ByLayer
 62
256
370
-1
100
AcDbMText
 10
363.4375
 20
-279.5
 30
0.0
 40
2.5
 41
1.666666666666667
 71
5
 72
1
  7
unicode
210
0.0
220
0.0
230
1.0
 50
0.0
 73
2
 44
1.0
  1
1
  0
MTEXT
  5
2E4
100
AcDbEntity
  8
02-title-block-text
  6
ByLayer
 62
256
370
-1
100
AcDbMText
 10
404.6875
 20
-279.5
 30
0.0
 40
2.5
 41
18.61111111111111
 71
5
 72
1
  7
unicode
210
0.0
220
0.0
230
1.0
 50
0.0
 73
2
 44
1.0
  1
2018-11-16
  0
MTEXT
  5
2E5
100
AcDbEntity
  8
02-title-block-text
  6
ByLayer
 62
256
370
-1
100
AcDbMText
 10
342.8125
 20
-279.5
 30
0.0
 40
2.5
 41
5.277777777777779
 71
5
 72
1
  1
1:50
  7
unicode
210
0.0
220
0.0
230
1.0
 50
0.0
 73
2
 44
1.0
  0
MTEXT
  5
2E6
100
AcDbEntity
  8
02-title-block-text
  6
ByLayer
 62
256
370
-1
100
AcDbMText
 10
291.25
 20
-277.0
 30
0.0
 40
2.5
 41
20.8350011243245
 71
5
 72
1
  7
unicode
210
0.0
220
0.0
230
1.0
 50
0.0
 73
2
 44
1.0
  1
г.Евпатория\Pул.Красивая, д.10, кв.15
  0
MTEXT
  5
2E7
100
AcDbEntity
  8
02-title-block-text
  6
ByLayer
 62
256
370
-1
100
AcDbMText
 10
291.25
 20
-287.0
 30
0.0
 40
2.5
 41
24.23611111111111
 71
5
 72
1
  1
План обмеров.
  7
unicode
210
0.0
220
0.0
230
1.0
 50
0.0
 73
2
 44
1.0
  0
ENDBLK
  5
118
330
116
100
AcDbEntity
  8
0
100
AcDbBlockEnd
  0
BLOCK
  5
C3
330
C2
100
AcDbEntity
  8
0
100
AcDbBlockBegin
  2
*D14
 70
1
 10
0.0
 20
0.0
  3
*D14
  1

  0
LINE
  5
1D9
100
AcDbEntity
  8
dimension
  6
ByBlock
 62
0
370
-2
100
AcDbLine
 10
2600.0
 20
-7400.0
 11
3135.0
 21
-7400.0
  0
MTEXT
  5
1DA
100
AcDbEntity
  8
dimension
  6
CONTINUOUS
 62
0
370
-2
100
AcDbMText
 10
2971.250000000005
 20
-7323.75
 30
0.0
 40
90.0
 41
110.0000000000111
 71
5
 72
1
  1
35
  7
standard
210
0.0
220
0.0
230
1.0
 50
0.0
 73
2
 44
1.0
  0
LINE
  5
1DB
100
AcDbEntity
  8
dimension
  6
ByBlock
 62
0
370
-2
100
AcDbLine
 10
2796.966991411009
 20
-7453.033008588991
 11
2903.033008588991
 21
-7346.966991411009
  0
LINE
  5
1DC
100
AcDbEntity
  8
dimension
  6
ByBlock
 62
0
370
-2
100
AcDbLine
 10
2831.966991411009
 20
-7453.033008588991
 11
2938.033008588991
 21
-7346.966991411009
  0
LINE
  5
1DD
100
AcDbEntity
  8
dimension
  6
ByBlock
 62
0
370
-2
100
AcDbLine
 10
2850.0
 20
-7538.75
 11
2850.0
 21
-7393.75
  0
LINE
  5
1DE
100
AcDbEntity
  8
dimension
  6
ByBlock
 62
0
370
-2
100
AcDbLine
 10
2885.0
 20
-7538.75
 11
2885.0
 21
-7393.75
  0
ENDBLK
  5
C4
330
C2
100
AcDbEntity
  8
0
100
AcDbBlockEnd
  0
BLOCK
  5
DB
330
DA
100
AcDbEntity
  8
0
100
AcDbBlockBegin
  2
*D56
 70
1
 10
0.0
 20
0.0
  3
*D56
  1

  0
LINE
  5
209
100
AcDbEntity
  8
dimension
  6
ByBlock
 62
0
370
-2
100
AcDbLine
 10
0.0
 20
-5000.0
 11
4005.0
 21
-5000.0
  0
MTEXT
  5
20A
100
AcDbEntity
  8
dimension
  6
CONTINUOUS
 62
0
370
-2
100
AcDbMText
 10
2002.5
 20
-4923.75
 30
0.0
 40
90.0
 41
260.0000000000056
 71
5
 72
1
  1
4005
  7
standard
210
0.0
220
0.0
230
1.0
 50
0.0
 73
2
 44
1.0
  0
LINE
  5
20B
100
AcDbEntity
  8
dimension
  6
ByBlock
 62
0
370
-2
100
AcDbLine
 10
53.03300858899107
 20
-4946.966991411009
 11
-53.03300858899107
 21
-5053.033008588991
  0
LINE
  5
20C
100
AcDbEntity
  8
dimension
  6
ByBlock
 62
0
370
-2
100
AcDbLine
 10
4058.033008588991
 20
-4946.966991411009
 11
3951.966991411009
 21
-5053.033008588991
  0
LINE
  5
20D
100
AcDbEntity
  8
dimension
  6
ByBlock
 62
0
370
-2
100
AcDbLine
 10
1.913510623667739e-15
 20
-5368.75
 11
3.827021247335479e-16
 21
-4993.75
  0
LINE
  5
20E
100
AcDbEntity
  8
dimension
  6
ByBlock
 62
0
370
-2
100
AcDbLine
 10
4005.0
 20
-5908.75
 11
4005.0
 21
-4993.75
  0
ENDBLK
  5
DC
330
DA
100
AcDbEntity
  8
0
100
AcDbBlockEnd
  0
ENDSEC
  0
SECTION
  2
ENTITIES
  0
HATCH
  5
2E8
330
1F
100
AcDbEntity
  8
area-hatch
  6
ByLayer
 62
256
370
-1
100
AcDbHatch
 10
0.0
 20
0.0
 30
0.0
210
0.0
220
0.0
230
1.0
  2
ansi31
 70
0
 71
0
 91
1
 92
0
 93
14
 72
1
 10
4105.0
 20
-5180.0
 11
5795.0
 21
-5180.0
 72
1
 10
5795.0
 20
-5180.0
 11
5795.0
 21
-6085.0
 72
1
 10
5795.0
 20
-6085.0
 11
5705.0
 21
-6085.0
 72
1
 10
5705.0
 20
-6085.0
 11
5705.0
 21
-6490.0
 72
1
 10
5705.0
 20
-6490.0
 11
5795.0
 21
-6490.0
 72
1
 10
5795.0
 20
-6490.0
 11
5795.0
 21
-7570.0
 72
1
 10
5795.0
 20
-7570.0
 11
4030.0
 21
-7570.0
 72
1
 10
4030.0
 20
-7570.0
 11
4030.0
 21
-7420.0
 72
1
 10
4030.0
 20
-7420.0
 11
4105.0
 21
-7420.0
 72
1
 10
4105.0
 20
-7420.0
 11
4105.0
 21
-6690.0
 72
1
 10
4105.0
 20
-6690.0
 11
4055.0
 21
-6690.0
 72
1
 10
4055.0
 20
-6690.0
 11
4055.0
 21
-5940.0
 72
1
 10
4055.0
 20
-5940.0
 11
4105.0
 21
-5940.0
 72
1
 10
4105.0
 20
-5940.0
 11
4105.0
 21
-5180.0
 97
0
 75
0
 76
1
 52
0.0
 41
15.0
 77
0
 78
0
 98
0
  0
HATCH
  5
2E9
330
1F
100
AcDbEntity
  8
area-hatch
  6
ByLayer
 62
256
370
-1
100
AcDbHatch
 10
0.0
 20
0.0
 30
0.0
210
0.0
220
0.0
230
1.0
  2
ansi31
 70
0
 71
0
 91
1
 92
0
 93
10
 72
1
 10
-3.373901931650958e-13
 20
-5500.0
 11
800.0
 21
-5500.0
 72
1
 10
800.0
 20
-5500.0
 11
800.0
 21
-6230.0
 72
1
 10
800.0
 20
-6230.0
 11
1265.0
 21
-6230.0
 72
1
 10
1265.0
 20
-6230.0
 11
1265.0
 21
-6290.0
 72
1
 10
1265.0
 20
-6290.0
 11
1315.0
 21
-6290.0
 72
1
 10
1315.0
 20
-6290.0
 11
1315.0
 21
-7040.0
 72
1
 10
1315.0
 20
-7040.0
 11
1265.0
 21
-7040.0
 72
1
 10
1265.0
 20
-7040.0
 11
1265.0
 21
-7570.0
 72
1
 10
1265.0
 20
-7570.0
 11
-4.641411368768469e-13
 21
-7570.0
 72
1
 10
-4.641411368768469e-13
 20
-7570.0
 11
-3.373901931650958e-13
 21
-5500.0
 97
0
 75
0
 76
1
 52
0.0
 41
15.0
 77
0
 78
0
 98
0
  0
HATCH
  5
2EA
330
1F
100
AcDbEntity
  8
area-hatch
  6
ByLayer
 62
256
370
-1
100
AcDbHatch
 10
0.0
 20
0.0
 30
0.0
210
0.0
220
0.0
230
1.0
  2
ansi31
 70
0
 71
0
 91
1
 92
0
 93
40
 72
1
 10
0.0
 20
0.0
 11
1200.0
 21
0.0
 72
1
 10
1200.0
 20
0.0
 11
1200.0
 21
70.0
 72
1
 10
1200.0
 20
70.0
 11
2060.0
 21
70.0
 72
1
 10
2060.0
 20
70.0
 11
2060.0
 21
0.0
 72
1
 10
2060.0
 20
0.0
 11
2505.0
 21
0.0
 72
1
 10
2505.0
 20
0.0
 11
2505.0
 21
-200.0
 72
1
 10
2505.0
 20
-200.0
 11
2900.0
 21
-200.0
 72
1
 10
2900.0
 20
-200.0
 11
2900.0
 21
0.0
 72
1
 10
2900.0
 20
0.0
 11
5695.0
 21
0.0
 72
1
 10
5695.0
 20
0.0
 11
5695.0
 21
-200.0
 72
1
 10
5695.0
 20
-200.0
 11
5795.0
 21
-200.0
 72
1
 10
5795.0
 20
-200.0
 11
5795.0
 21
-4280.0
 72
1
 10
5795.0
 20
-4280.0
 11
5050.0
 21
-4280.0
 72
1
 10
5050.0
 20
-4280.0
 11
5050.0
 21
-4180.0
 72
1
 10
5050.0
 20
-4180.0
 11
4105.0
 21
-4180.0
 72
1
 10
4105.0
 20
-4180.0
 11
4105.0
 21
-3385.0
 72
1
 10
4105.0
 20
-3385.0
 11
4005.0
 21
-3385.0
 72
1
 10
4005.0
 20
-3385.0
 11
4005.0
 21
-5940.0
 72
1
 10
4005.0
 20
-5940.0
 11
4055.0
 21
-5940.0
 72
1
 10
4055.0
 20
-5940.0
 11
4055.0
 21
-6690.0
 72
1
 10
4055.0
 20
-6690.0
 11
4005.0
 21
-6690.0
 72
1
 10
4005.0
 20
-6690.0
 11
4005.0
 21
-7220.0
 72
1
 10
4005.0
 20
-7220.0
 11
2885.0
 21
-7220.0
 72
1
 10
2885.0
 20
-7220.0
 11
2885.0
 21
-7570.0
 72
1
 10
2885.0
 20
-7570.0
 11
2850.0
 21
-7570.0
 72
1
 10
2850.0
 20
-7570.0
 11
2850.0
 21
-7720.0
 72
1
 10
2850.0
 20
-7720.0
 11
2780.0
 21
-7720.0
 72
1
 10
2780.0
 20
-7720.0
 11
2780.0
 21
-7740.0
 72
1
 10
2780.0
 20
-7740.0
 11
1900.0
 21
-7740.0
 72
1
 10
1900.0
 20
-7740.0
 11
1900.0
 21
-7720.0
 72
1
 10
1900.0
 20
-7720.0
 11
1825.0
 21
-7720.0
 72
1
 10
1825.0
 20
-7720.0
 11
1825.0
 21
-7570.0
 72
1
 10
1825.0
 20
-7570.0
 11
1365.0
 21
-7570.0
 72
1
 10
1365.0
 20
-7570.0
 11
1365.0
 21
-7040.0
 72
1
 10
1365.0
 20
-7040.0
 11
1315.0
 21
-7040.0
 72
1
 10
1315.0
 20
-7040.0
 11
1315.0
 21
-6290.0
 72
1
 10
1315.0
 20
-6290.0
 11
1365.0
 21
-6290.0
 72
1
 10
1365.0
 20
-6290.0
 11
1365.0
 21
-5400.0
 72
1
 10
1365.0
 20
-5400.0
 11
0.0
 21
-5400.0
 72
1
 10
0.0
 20
-5400.0
 11
0.0
 21
0.0
 97
0
 75
0
 76
1
 52
0.0
 41
15.0
 77
0
 78
0
 98
0
  0
HATCH
  5
2EB
330
1F
100
AcDbEntity
  8
wall-hatch
  6
ByLayer
 62
256
370
-1
100
AcDbHatch
 10
0.0
 20
0.0
 30
0.0
210
0.0
220
0.0
230
1.0
  2
gost_ferroconcrete
 70
0
 71
0
 91
1
 92
0
 93
88
 72
1
 10
5795.0
 20
-5080.0
 11
4105.0
 21
-5080.0
 72
1
 10
4105.0
 20
-5080.0
 11
4105.0
 21
-4380.0
 72
1
 10
4105.0
 20
-4380.0
 11
5795.0
 21
-4380.0
 72
1
 10
5795.0
 20
-4380.0
 11
5795.0
 21
-5080.0
 72
1
 10
2900.0
 20
0.0
 11
3640.0
 21
0.0
 72
1
 10
3640.0
 20
0.0
 11
3640.0
 21
300.0
 72
1
 10
3640.0
 20
300.0
 11
2060.0
 21
300.0
 72
1
 10
2060.0
 20
300.0
 11
2060.0
 21
0.0
 72
1
 10
2060.0
 20
0.0
 11
2505.0
 21
0.0
 72
1
 10
2505.0
 20
0.0
 11
2505.0
 21
-200.0
 72
1
 10
2505.0
 20
-200.0
 11
2900.0
 21
-200.0
 72
1
 10
2900.0
 20
-200.0
 11
2900.0
 21
0.0
 72
1
 10
3085.0
 20
-7420.0
 11
3830.0
 21
-7420.0
 72
1
 10
3830.0
 20
-7420.0
 11
3830.0
 21
-7570.0
 72
1
 10
3830.0
 20
-7570.0
 11
3085.0
 21
-7570.0
 72
1
 10
3085.0
 20
-7570.0
 11
3085.0
 21
-7420.0
 72
1
 10
6095.0
 20
-7770.0
 11
2850.0
 21
-7770.0
 72
1
 10
2850.0
 20
-7770.0
 11
2850.0
 21
-7570.0
 72
1
 10
2850.0
 20
-7570.0
 11
2885.0
 21
-7570.0
 72
1
 10
2885.0
 20
-7570.0
 11
2885.0
 21
-7220.0
 72
1
 10
2885.0
 20
-7220.0
 11
4005.0
 21
-7220.0
 72
1
 10
4005.0
 20
-7220.0
 11
4005.0
 21
-6690.0
 72
1
 10
4005.0
 20
-6690.0
 11
4105.0
 21
-6690.0
 72
1
 10
4105.0
 20
-6690.0
 11
4105.0
 21
-7420.0
 72
1
 10
4105.0
 20
-7420.0
 11
4030.0
 21
-7420.0
 72
1
 10
4030.0
 20
-7420.0
 11
4030.0
 21
-7570.0
 72
1
 10
4030.0
 20
-7570.0
 11
5795.0
 21
-7570.0
 72
1
 10
5795.0
 20
-7570.0
 11
5795.0
 21
-6490.0
 72
1
 10
5795.0
 20
-6490.0
 11
5705.0
 21
-6490.0
 72
1
 10
5705.0
 20
-6490.0
 11
5705.0
 21
-6085.0
 72
1
 10
5705.0
 20
-6085.0
 11
5795.0
 21
-6085.0
 72
1
 10
5795.0
 20
-6085.0
 11
5795.0
 21
-5180.0
 72
1
 10
5795.0
 20
-5180.0
 11
4105.0
 21
-5180.0
 72
1
 10
4105.0
 20
-5180.0
 11
4105.0
 21
-5940.0
 72
1
 10
4105.0
 20
-5940.0
 11
4005.0
 21
-5940.0
 72
1
 10
4005.0
 20
-5940.0
 11
4005.0
 21
-3385.0
 72
1
 10
4005.0
 20
-3385.0
 11
4105.0
 21
-3385.0
 72
1
 10
4105.0
 20
-3385.0
 11
4105.0
 21
-4180.0
 72
1
 10
4105.0
 20
-4180.0
 11
5050.0
 21
-4180.0
 72
1
 10
5050.0
 20
-4180.0
 11
5050.0
 21
-4280.0
 72
1
 10
5050.0
 20
-4280.0
 11
5795.0
 21
-4280.0
 72
1
 10
5795.0
 20
-4280.0
 11
5795.0
 21
-200.0
 72
1
 10
5795.0
 20
-200.0
 11
5695.0
 21
-200.0
 72
1
 10
5695.0
 20
-200.0
 11
5695.0
 21
0.0
 72
1
 10
5695.0
 20
0.0
 11
5315.0
 21
0.0
 72
1
 10
5315.0
 20
0.0
 11
5315.0
 21
300.0
 72
1
 10
5315.0
 20
300.0
 11
6095.0
 21
300.0
 72
1
 10
6095.0
 20
300.0
 11
6150.0
 21
190.0
 72
1
 10
6150.0
 20
190.0
 11
6080.0
 21
110.0
 72
1
 10
6080.0
 20
110.0
 11
6095.0
 21
0.0
 72
1
 10
6095.0
 20
0.0
 11
5995.0
 21
0.0
 72
1
 10
5995.0
 20
0.0
 11
5995.0
 21
-7570.0
 72
1
 10
5995.0
 20
-7570.0
 11
6095.0
 21
-7570.0
 72
1
 10
6095.0
 20
-7570.0
 11
6140.0
 21
-7650.0
 72
1
 10
6140.0
 20
-7650.0
 11
6080.0
 21
-7710.0
 72
1
 10
6080.0
 20
-7710.0
 11
6095.0
 21
-7770.0
 72
1
 10
1265.0
 20
-6130.0
 11
900.0
 21
-6130.0
 72
1
 10
900.0
 20
-6130.0
 11
900.0
 21
-5500.0
 72
1
 10
900.0
 20
-5500.0
 11
1265.0
 21
-5500.0
 72
1
 10
1265.0
 20
-5500.0
 11
1265.0
 21
-6130.0
 72
1
 10
390.0000000000001
 20
300.0
 11
-300.0
 21
300.0
 72
1
 10
-300.0
 20
300.0
 11
-270.0
 21
220.0
 72
1
 10
-270.0
 20
220.0
 11
-330.0
 21
110.0
 72
1
 10
-330.0
 20
110.0
 11
-300.0
 21
1.469576158976824e-13
 72
1
 10
-300.0
 20
1.469576158976824e-13
 11
-200.0
 21
1.469576158976824e-13
 72
1
 10
-200.0
 20
1.469576158976824e-13
 11
-200.0
 21
-7570.0
 72
1
 10
-200.0
 20
-7570.0
 11
-300.0
 21
-7570.0
 72
1
 10
-300.0
 20
-7570.0
 11
-290.0
 21
-7610.0
 72
1
 10
-290.0
 20
-7610.0
 11
-330.0
 21
-7690.0
 72
1
 10
-330.0
 20
-7690.0
 11
-300.0
 21
-7770.0
 72
1
 10
-300.0
 20
-7770.0
 11
1825.0
 21
-7770.0
 72
1
 10
1825.0
 20
-7770.0
 11
1825.0
 21
-7570.0
 72
1
 10
1825.0
 20
-7570.0
 11
1365.0
 21
-7570.0
 72
1
 10
1365.0
 20
-7570.0
 11
1365.0
 21
-7040.0
 72
1
 10
1365.0
 20
-7040.0
 11
1265.0
 21
-7040.0
 72
1
 10
1265.0
 20
-7040.0
 11
1265.0
 21
-7570.0
 72
1
 10
1265.0
 20
-7570.0
 11
-4.641411368768469e-13
 21
-7570.0
 72
1
 10
-4.641411368768469e-13
 20
-7570.0
 11
-3.373901931650958e-13
 21
-5500.0
 72
1
 10
-3.373901931650958e-13
 20
-5500.0
 11
800.0
 21
-5500.0
 72
1
 10
800.0
 20
-5500.0
 11
800.0
 21
-6230.0
 72
1
 10
800.0
 20
-6230.0
 11
1265.0
 21
-6230.0
 72
1
 10
1265.0
 20
-6230.0
 11
1265.0
 21
-6290.0
 72
1
 10
1265.0
 20
-6290.0
 11
1365.0
 21
-6290.0
 72
1
 10
1365.0
 20
-6290.0
 11
1365.0
 21
-5400.0
 72
1
 10
1365.0
 20
-5400.0
 11
0.0
 21
-5400.0
 72
1
 10
0.0
 20
-5400.0
 11
0.0
 21
0.0
 72
1
 10
0.0
 20
0.0
 11
390.0
 21
0.0
 72
1
 10
390.0
 20
0.0
 11
390.0000000000001
 21
300.0
 97
0
 75
0
 76
1
 52
0.0
 41
15.0
 77
0
 78
0
 98
0
  0
LINE
  5
2EC
330
1F
100
AcDbEntity
  8
construction
  6
ByLayer
 62
256
370
-1
100
AcDbLine
 10
-500.0
 20
0.0
 11
500.0
 21
0.0
  0
LINE
  5
2ED
330
1F
100
AcDbEntity
  8
construction
  6
ByLayer
 62
256
370
-1
100
AcDbLine
 10
-3.061616997868383e-14
 20
-500.0
 11
3.061616997868383e-14
 21
500.0
  0
LINE
  5
2EE
330
1F
100
AcDbEntity
  8
construction
  6
ByLayer
 62
256
370
-1
100
AcDbLine
 10
2505.0
 20
-500.0000000000006
 11
2505.0
 21
499.9999999999994
  0
LINE
  5
2EF
330
1F
100
AcDbEntity
  8
construction
  6
ByLayer
 62
256
370
-1
100
AcDbLine
 10
2900.0
 20
-500.0000000000007
 11
2900.0
 21
499.9999999999993
  0
LINE
  5
2F0
330
1F
100
AcDbEntity
  8
construction
  6
ByLayer
 62
256
370
-1
100
AcDbLine
 10
5695.0
 20
-500.0000000000014
 11
5695.0
 21
499.9999999999986
  0
LINE
  5
2F1
330
1F
100
AcDbEntity
  8
construction
  6
ByLayer
 62
256
370
-1
100
AcDbLine
 10
5795.0
 20
-500.0000000000014
 11
5795.0
 21
499.9999999999986
  0
LINE
  5
2F2
330
1F
100
AcDbEntity
  8
construction
  6
ByLayer
 62
256
370
-1
100
AcDbLine
 10
1365.0
 20
-500.0000000000003
 11
1365.0
 21
499.9999999999997
  0
LINE
  5
2F3
330
1F
100
AcDbEntity
  8
construction
  6
ByLayer
 62
256
370
-1
100
AcDbLine
 10
-500.000000000001
 20
-5400.0
 11
499.999999999999
 21
-5400.0
  0
LINE
  5
2F4
330
1F
100
AcDbEntity
  8
construction
  6
ByLayer
 62
256
370
-1
100
AcDbLine
 10
-500.000000000001
 20
-5500.0
 11
499.999999999999
 21
-5500.0
  0
LINE
  5
2F5
330
1F
100
AcDbEntity
  8
construction
  6
ByLayer
 62
256
370
-1
100
AcDbLine
 10
1.163414459189985e-13
 20
-3500.0
 11
1365.0
 21
-3500.0
  0
LINE
  5
2F6
330
1F
100
AcDbEntity
  8
construction
  6
ByLayer
 62
256
370
-1
100
AcDbLine
 10
1.224646799147353e-13
 20
-3400.0
 11
1365.0
 21
-3400.0
  0
LINE
  5
2F7
330
1F
100
AcDbEntity
  8
construction
  6
ByLayer
 62
256
370
-1
100
AcDbLine
 10
-500.0000000000014
 20
-7570.0
 11
499.9999999999986
 21
-7570.0
  0
LINE
  5
2F8
330
1F
100
AcDbEntity
  8
wall-hatch
  6
ByLayer
 62
256
370
-1
100
AcDbLine
 10
900.0
 20
-5500.0
 11
1265.0
 21
-6130.0
  0
LINE
  5
2F9
330
1F
100
AcDbEntity
  8
wall-hatch
  6
ByLayer
 62
256
370
-1
100
AcDbLine
 10
900.0
 20
-6130.0
 11
1265.0
 21
-5500.0
  0
LINE
  5
2FA
330
1F
100
AcDbEntity
  8
wall-hatch
  6
ByLayer
 62
256
370
-1
100
AcDbLine
 10
3085.0
 20
-7420.0
 11
3830.0
 21
-7570.0
  0
LINE
  5
2FB
330
1F
100
AcDbEntity
  8
wall-hatch
  6
ByLayer
 62
256
370
-1
100
AcDbLine
 10
3085.0
 20
-7570.0
 11
3830.0
 21
-7420.0
  0
LINE
  5
2FC
330
1F
100
AcDbEntity
  8
wall-hatch
  6
ByLayer
 62
256
370
-1
100
AcDbLine
 10
4105.0
 20
-4380.0
 11
5795.0
 21
-5080.0
  0
LINE
  5
2FD
330
1F
100
AcDbEntity
  8
wall-hatch
  6
ByLayer
 62
256
370
-1
100
AcDbLine
 10
4105.0
 20
-5080.0
 11
5795.0
 21
-4380.0
  0
LINE
  5
2FE
330
1F
100
AcDbEntity
  8
construction
  6
ByLayer
 62
256
370
-1
100
AcDbLine
 10
389.9999999999999
 20
-500.0000000000001
 11
390.0000000000001
 21
499.9999999999999
  0
LINE
  5
2FF
330
1F
100
AcDbEntity
  8
construction
  6
ByLayer
 62
256
370
-1
100
AcDbLine
 10
2060.0
 20
-500.0000000000005
 11
2060.0
 21
499.9999999999995
  0
LINE
  5
300
330
1F
100
AcDbEntity
  8
construction
  6
ByLayer
 62
256
370
-1
100
AcDbLine
 10
1200.0
 20
-500.0000000000003
 11
1200.0
 21
499.9999999999997
  0
LINE
  5
301
330
1F
100
AcDbEntity
  8
construction
  6
ByLayer
 62
256
370
-1
100
AcDbLine
 10
5315.0
 20
-500.0000000000014
 11
5315.0
 21
499.9999999999986
  0
LINE
  5
302
330
1F
100
AcDbEntity
  8
construction
  6
ByLayer
 62
256
370
-1
100
AcDbLine
 10
3640.0
 20
-500.0000000000011
 11
3640.0
 21
499.9999999999989
  0
LINE
  5
303
330
1F
100
AcDbEntity
  8
construction
  6
ByLayer
 62
256
370
-1
100
AcDbLine
 10
4477.5
 20
-200.0
 11
4477.5
 21
800.0
  0
LINE
  5
304
330
1F
100
AcDbEntity
  8
construction
  6
ByLayer
 62
256
370
-1
100
AcDbLine
 10
3640.0
 20
70.0
 11
5315.0
 21
70.0
  0
LWPOLYLINE
  5
305
330
1F
100
AcDbEntity
  8
wall
  6
ByLayer
 62
256
370
-1
100
AcDbPolyline
 90
5
 70
0
 43
0.0
 10
5795.0
 20
-5080.0
 10
4105.0
 20
-5080.0
 10
4105.0
 20
-4380.0
 10
5795.0
 20
-4380.0
 10
5795.0
 20
-5080.0
  0
LWPOLYLINE
  5
306
330
1F
100
AcDbEntity
  8
wall
  6
ByLayer
 62
256
370
-1
100
AcDbPolyline
 90
9
 70
0
 43
0.0
 10
2900.0
 20
0.0
 10
3640.0
 20
0.0
 10
3640.0
 20
300.0
 10
2060.0
 20
300.0
 10
2060.0
 20
0.0
 10
2505.0
 20
0.0
 10
2505.0
 20
-200.0
 10
2900.0
 20
-200.0
 10
2900.0
 20
0.0
  0
LWPOLYLINE
  5
307
330
1F
100
AcDbEntity
  8
wall
  6
ByLayer
 62
256
370
-1
100
AcDbPolyline
 90
5
 70
0
 43
0.0
 10
3085.0
 20
-7420.0
 10
3830.0
 20
-7420.0
 10
3830.0
 20
-7570.0
 10
3085.0
 20
-7570.0
 10
3085.0
 20
-7420.0
  0
LWPOLYLINE
  5
308
330
1F
100
AcDbEntity
  8
wall
  6
ByLayer
 62
256
370
-1
100
AcDbPolyline
 90
40
 70
1
 43
0.0
 10
6095.0
 20
-7770.0
 10
2850.0
 20
-7770.0
 10
2850.0
 20
-7570.0
 10
2885.0
 20
-7570.0
 10
2885.0
 20
-7220.0
 10
4005.0
 20
-7220.0
 10
4005.0
 20
-6690.0
 10
4105.0
 20
-6690.0
 10
4105.0
 20
-7420.0
 10
4030.0
 20
-7420.0
 10
4030.0
 20
-7570.0
 10
5795.0
 20
-7570.0
 10
5795.0
 20
-6490.0
 10
5705.0
 20
-6490.0
 10
5705.0
 20
-6085.0
 10
5795.0
 20
-6085.0
 10
5795.0
 20
-5180.0
 10
4105.0
 20
-5180.0
 10
4105.0
 20
-5940.0
 10
4005.0
 20
-5940.0
 10
4005.0
 20
-3385.0
 10
4105.0
 20
-3385.0
 10
4105.0
 20
-4180.0
 10
5050.0
 20
-4180.0
 10
5050.0
 20
-4280.0
 10
5795.0
 20
-4280.0
 10
5795.0
 20
-200.0
 10
5695.0
 20
-200.0
 10
5695.0
 20
0.0
 10
5315.0
 20
0.0
 10
5315.0
 20
300.0
 10
6095.0
 20
300.0
 10
6150.0
 20
190.0
 10
6080.0
 20
110.0
 10
6095.0
 20
0.0
 10
5995.0
 20
0.0
 10
5995.0
 20
-7570.0
 10
6095.0
 20
-7570.0
 10
6140.0
 20
-7650.0
 10
6080.0
 20
-7710.0
  0
LWPOLYLINE
  5
309
330
1F
100
AcDbEntity
  8
wall
  6
ByLayer
 62
256
370
-1
100
AcDbPolyline
 90
4
 70
1
 43
0.0
 10
1265.0
 20
-6130.0
 10
900.0
 20
-6130.0
 10
900.0
 20
-5500.0
 10
1265.0
 20
-5500.0
  0
LWPOLYLINE
  5
30A
330
1F
100
AcDbEntity
  8
wall
  6
ByLayer
 62
256
370
-1
100
AcDbPolyline
 90
28
 70
1
 43
0.0
 10
390.0000000000001
 20
300.0
 10
-300.0
 20
300.0
 10
-270.0
 20
220.0
 10
-330.0
 20
110.0
 10
-300.0
 20
1.469576158976824e-13
 10
-200.0
 20
1.469576158976824e-13
 10
-200.0
 20
-7570.0
 10
-300.0
 20
-7570.0
 10
-290.0
 20
-7610.0
 10
-330.0
 20
-7690.0
 10
-300.0
 20
-7770.0
 10
1825.0
 20
-7770.0
 10
1825.0
 20
-7570.0
 10
1365.0
 20
-7570.0
 10
1365.0
 20
-7040.0
 10
1265.0
 20
-7040.0
 10
1265.0
 20
-7570.0
 10
-4.641411368768469e-13
 20
-7570.0
 10
-3.373901931650958e-13
 20
-5500.0
 10
800.0
 20
-5500.0
 10
800.0
 20
-6230.0
 10
1265.0
 20
-6230.0
 10
1265.0
 20
-6290.0
 10
1365.0
 20
-6290.0
 10
1365.0
 20
-5400.0
 10
0.0
 20
-5400.0
 10
0.0
 20
0.0
 10
390.0
 20
0.0
  0
LWPOLYLINE
  5
30B
330
1F
100
AcDbEntity
  8
wall
  6
ByLayer
 62
256
370
-1
100
AcDbPolyline
 90
4
 70
1
 43
0.0
 10
1200.0
 20
300.0
 10
1200.0
 20
0.0
 10
390.0
 20
0.0
 10
390.0000000000001
 20
300.0
  0
LWPOLYLINE
  5
30C
330
1F
100
AcDbEntity
  8
wall
  6
ByLayer
 62
256
370
-1
100
AcDbPolyline
 90
4
 70
1
 43
0.0
 10
5315.0
 20
300.0
 10
3640.0
 20
300.0
 10
3640.0
 20
0.0
 10
5315.0
 20
0.0
  0
LWPOLYLINE
  5
30D
330
1F
100
AcDbEntity
  8
window
  6
ByLayer
 62
256
370
-1
100
AcDbPolyline
 90
4
 70
1
 43
0.0
 10
390.0
 20
70.0
 10
420.0
 20
70.0
 10
420.0
 20
140.0
 10
390.0
 20
140.0
  0
LWPOLYLINE
  5
30E
330
1F
100
AcDbEntity
  8
window
  6
ByLayer
 62
256
370
-1
100
AcDbPolyline
 90
4
 70
1
 43
0.0
 10
420.0
 20
70.0
 10
500.0
 20
70.0
 10
500.0
 20
140.0
 10
420.0
 20
140.0
  0
LWPOLYLINE
  5
30F
330
1F
100
AcDbEntity
  8
window
  6
ByLayer
 62
256
370
-1
100
AcDbPolyline
 90
4
 70
1
 43
0.0
 10
1200.0
 20
70.0
 10
1120.0
 20
70.0
 10
1120.0
 20
140.0
 10
1200.0
 20
140.0
  0
LWPOLYLINE
  5
310
330
1F
100
AcDbEntity
  8
window
  6
ByLayer
 62
256
370
-1
100
AcDbPolyline
 90
4
 70
1
 43
0.0
 10
500.0
 20
140.0
 10
1120.0
 20
140.0
 10
1120.0
 20
70.0
 10
500.0
 20
70.0
  0
LWPOLYLINE
  5
311
330
1F
100
AcDbEntity
  8
window
  6
ByLayer
 62
256
370
-1
100
AcDbPolyline
 90
4
 70
1
 43
0.0
 10
1120.0
 20
100.0
 10
500.0
 20
100.0
 10
500.0
 20
110.0
 10
1120.0
 20
110.0
  0
LWPOLYLINE
  5
312
330
1F
100
AcDbEntity
  8
window
  6
ByLayer
 62
256
370
-1
100
AcDbPolyline
 90
4
 70
1
 43
0.0
 10
1200.0
 20
70.0
 10
1280.0
 20
70.0
 10
1280.0
 20
140.0
 10
1200.0
 20
140.0
  0
LWPOLYLINE
  5
313
330
1F
100
AcDbEntity
  8
window
  6
ByLayer
 62
256
370
-1
100
AcDbPolyline
 90
4
 70
1
 43
0.0
 10
2060.0
 20
70.0
 10
2030.0
 20
70.0
 10
2030.0
 20
140.0
 10
2060.0
 20
140.0
  0
LWPOLYLINE
  5
314
330
1F
100
AcDbEntity
  8
window
  6
ByLayer
 62
256
370
-1
100
AcDbPolyline
 90
4
 70
1
 43
0.0
 10
2030.0
 20
70.0
 10
1950.0
 20
70.0
 10
1950.0
 20
140.0
 10
2030.0
 20
140.0
  0
LWPOLYLINE
  5
315
330
1F
100
AcDbEntity
  8
window
  6
ByLayer
 62
256
370
-1
100
AcDbPolyline
 90
4
 70
1
 43
0.0
 10
1280.0
 20
140.0
 10
1950.0
 20
140.0
 10
1950.0
 20
70.0
 10
1280.0
 20
70.0
  0
LWPOLYLINE
  5
316
330
1F
100
AcDbEntity
  8
window
  6
ByLayer
 62
256
370
-1
100
AcDbPolyline
 90
4
 70
1
 43
0.0
 10
1950.0
 20
100.0
 10
1280.0
 20
100.0
 10
1280.0
 20
110.0
 10
1950.0
 20
110.0
  0
LINE
  5
317
330
1F
100
AcDbEntity
  8
window
  6
ByLayer
 62
256
370
-1
100
AcDbLine
 10
2030.0
 20
70.0
 11
2030.0
 21
-760.0
  0
ARC
  5
318
330
1F
100
AcDbEntity
  8
window
  6
ByLayer
 62
256
370
-1
100
AcDbCircle
 10
2030.0
 20
70.0
 40
830.0
100
AcDbArc
 50
180.0
 51
270.0
  0
LWPOLYLINE
  5
319
330
1F
100
AcDbEntity
  8
window
  6
ByLayer
 62
256
370
-1
100
AcDbPolyline
 90
4
 70
1
 43
0.0
 10
3640.0
 20
70.0
 10
3670.0
 20
70.0
 10
3670.0
 20
140.0
 10
3640.0
 20
140.0
  0
LWPOLYLINE
  5
31A
330
1F
100
AcDbEntity
  8
window
  6
ByLayer
 62
256
370
-1
100
AcDbPolyline
 90
4
 70
1
 43
0.0
 10
5315.0
 20
70.0
 10
5285.0
 20
70.0
 10
5285.0
 20
140.0
 10
5315.0
 20
140.0
  0
LWPOLYLINE
  5
31B
330
1F
100
AcDbEntity
  8
window
  6
ByLayer
 62
256
370
-1
100
AcDbPolyline
 90
4
 70
1
 43
0.0
 10
3670.0
 20
70.0
 10
3750.0
 20
70.0
 10
3750.0
 20
140.0
 10
3670.0
 20
140.0
  0
LWPOLYLINE
  5
31C
330
1F
100
AcDbEntity
  8
window
  6
ByLayer
 62
256
370
-1
100
AcDbPolyline
 90
4
 70
1
 43
0.0
 10
5285.0
 20
70.0
 10
5205.0
 20
70.0
 10
5205.0
 20
140.0
 10
5285.0
 20
140.0
  0
LWPOLYLINE
  5
31D
330
1F
100
AcDbEntity
  8
window
  6
ByLayer
 62
256
370
-1
100
AcDbPolyline
 90
4
 70
1
 43
0.0
 10
4477.5
 20
70.0
 10
4397.5
 20
70.0
 10
4397.5
 20
140.0
 10
4477.5
 20
140.0
  0
LWPOLYLINE
  5
31E
330
1F
100
AcDbEntity
  8
window
  6
ByLayer
 62
256
370
-1
100
AcDbPolyline
 90
4
 70
1
 43
0.0
 10
4477.5
 20
70.0
 10
4557.5
 20
70.0
 10
4557.5
 20
140.0
 10
4477.5
 20
140.0
  0
LWPOLYLINE
  5
31F
330
1F
100
AcDbEntity
  8
window
  6
ByLayer
 62
256
370
-1
100
AcDbPolyline
 90
4
 70
1
 43
0.0
 10
4557.5
 20
140.0
 10
5205.0
 20
140.0
 10
5205.0
 20
70.0
 10
4557.5
 20
70.0
  0
LWPOLYLINE
  5
320
330
1F
100
AcDbEntity
  8
window
  6
ByLayer
 62
256
370
-1
100
AcDbPolyline
 90
4
 70
1
 43
0.0
 10
3750.0
 20
140.0
 10
4397.5
 20
140.0
 10
4397.5
 20
70.0
 10
3750.0
 20
70.0
  0
LWPOLYLINE
  5
321
330
1F
100
AcDbEntity
  8
window
  6
ByLayer
 62
256
370
-1
100
AcDbPolyline
 90
4
 70
1
 43
0.0
 10
5205.0
 20
100.0
 10
4557.0
 20
100.0
 10
4557.0
 20
110.0
 10
5205.0
 20
110.0
  0
LWPOLYLINE
  5
322
330
1F
100
AcDbEntity
  8
window
  6
ByLayer
 62
256
370
-1
100
AcDbPolyline
 90
4
 70
1
 43
0.0
 10
4397.5
 20
100.0
 10
3749.5
 20
100.0
 10
3749.5
 20
110.0
 10
4397.5
 20
110.0
  0
LINE
  5
323
330
1F
100
AcDbEntity
  8
construction
  6
ByLayer
 62
256
370
-1
100
AcDbLine
 10
1825.0
 20
-7720.0
 11
1365.0
 21
-7720.0
  0
LWPOLYLINE
  5
324
330
1F
100
AcDbEntity
  8
door
  6
ByLayer
 62
256
370
-1
100
AcDbPolyline
 90
4
 70
1
 43
0.0
 10
1825.0
 20
-7720.0
 10
1860.0
 20
-7720.0
 10
1860.0
 20
-7770.0
 10
1825.0
 20
-7770.0
  0
LWPOLYLINE
  5
325
330
1F
100
AcDbEntity
  8
door
  6
ByLayer
 62
256
370
-1
100
AcDbPolyline
 90
4
 70
1
 43
0.0
 10
2850.0
 20
-7720.0
 10
2820.0
 20
-7720.0
 10
2820.0
 20
-7770.0
 10
2850.0
 20
-7770.0
  0
LWPOLYLINE
  5
326
330
1F
100
AcDbEntity
  8
door
  6
ByLayer
 62
256
370
-1
100
AcDbPolyline
 90
8
 70
1
 43
0.0
 10
2820.0
 20
-7720.0
 10
2780.0
 20
-7720.0
 10
2780.0
 20
-7740.0
 10
2800.0
 20
-7740.0
 10
2800.0
 20
-7790.0
 10
2880.0
 20
-7790.0
 10
2880.0
 20
-7770.0
 10
2820.0
 20
-7770.0
  0
LWPOLYLINE
  5
327
330
1F
100
AcDbEntity
  8
door
  6
ByLayer
 62
256
370
-1
100
AcDbPolyline
 90
8
 70
1
 43
0.0
 10
1860.0
 20
-7720.0
 10
1900.0
 20
-7720.0
 10
1900.0
 20
-7740.0
 10
1880.0
 20
-7740.0
 10
1880.0
 20
-7790.0
 10
1800.0
 20
-7790.0
 10
1800.0
 20
-7770.0
 10
1860.0
 20
-7770.0
  0
LWPOLYLINE
  5
328
330
1F
100
AcDbEntity
  8
door
  6
ByLayer
 62
256
370
-1
100
AcDbPolyline
 90
4
 70
1
 43
0.0
 10
1880.0
 20
-7740.0
 10
2800.0
 20
-7740.0
 10
2800.0
 20
-7790.0
 10
1880.0
 20
-7790.0
  0
LINE
  5
329
330
1F
100
AcDbEntity
  8
door
  6
ByLayer
 62
256
370
-1
100
AcDbLine
 10
2800.0
 20
-7790.0
 11
2800.0
 21
-8710.0
  0
ARC
  5
32A
330
1F
100
AcDbEntity
  8
door
  6
ByLayer
 62
256
370
-1
100
AcDbCircle
 10
2800.0
 20
-7790.0
 40
920.0
100
AcDbArc
 50
180.0
 51
270.0
  0
MTEXT
  5
32B
330
1F
100
AcDbEntity
  8
room-num
  6
ByLayer
 62
256
370
-1
100
AcDbMText
 10
2574.285714285714
 20
-5707.142857142857
 30
0.0
 40
90.0
 41
160.0
 71
5
 72
1
  1
801
  7
unicode
210
0.0
220
0.0
230
1.0
 50
0.0
 73
2
 44
1.0
  0
MTEXT
  5
32C
330
1F
100
AcDbEntity
  8
room-num
  6
ByLayer
 62
256
370
-1
100
AcDbMText
 10
1894.285714285714
 20
-2525.714285714286
 30
0.0
 40
90.0
 41
180.0
 71
5
 72
1
  1
802
  7
unicode
210
0.0
220
0.0
230
1.0
 50
0.0
 73
2
 44
1.0
  0
MTEXT
  5
32D
330
1F
100
AcDbEntity
  8
room-num
  6
ByLayer
 62
256
370
-1
100
AcDbMText
 10
4845.0
 20
-1967.142857142857
 30
0.0
 40
90.0
 41
180.0
 71
5
 72
1
  1
803
  7
unicode
210
0.0
220
0.0
230
1.0
 50
0.0
 73
2
 44
1.0
  0
MTEXT
  5
32E
330
1F
100
AcDbEntity
  8
room-num
  6
ByLayer
 62
256
370
-1
100
AcDbMText
 10
607.1428571428571
 20
-6642.142857142857
 30
0.0
 40
90.0
 41
190.0
 71
5
 72
1
  1
804
  7
unicode
210
0.0
220
0.0
230
1.0
 50
0.0
 73
2
 44
1.0
  0
MTEXT
  5
32F
330
1F
100
AcDbEntity
  8
room-num
  6
ByLayer
 62
256
370
-1
100
AcDbMText
 10
4917.857142857143
 20
-6350.714285714286
 30
0.0
 40
90.0
 41
180.0
 71
5
 72
1
  1
805
  7
unicode
210
0.0
220
0.0
230
1.0
 50
0.0
 73
2
 44
1.0
  0
CIRCLE
  5
330
330
1F
100
AcDbEntity
  8
room-num
  6
ByLayer
 62
256
370
-1
100
AcDbCircle
 10
2582.706752508117
 20
-5705.218056206482
 40
150.0
  0
CIRCLE
  5
331
330
1F
100
AcDbEntity
  8
room-num
  6
ByLayer
 62
256
370
-1
100
AcDbCircle
 10
603.3730962620668
 20
-6643.019481395108
 40
150.0
  0
CIRCLE
  5
332
330
1F
100
AcDbEntity
  8
room-num
  6
ByLayer
 62
256
370
-1
100
AcDbCircle
 10
1893.767629290986
 20
-2523.289286280572
 40
150.0
  0
CIRCLE
  5
333
330
1F
100
AcDbEntity
  8
room-num
  6
ByLayer
 62
256
370
-1
100
AcDbCircle
 10
4843.459836480495
 20
-1965.296173612067
 40
150.0
  0
CIRCLE
  5
334
330
1F
100
AcDbEntity
  8
room-num
  6
ByLayer
 62
256
370
-1
100
AcDbCircle
 10
4918.960155140808
 20
-6346.602544353768
 40
150.0
  0
LWPOLYLINE
  5
335
330
1F
100
AcDbEntity
  8
area-border
  6
ByLayer
 62
256
370
-1
100
AcDbPolyline
 90
40
 70
1
 43
0.0
 10
0.0
 20
0.0
 10
1200.0
 20
0.0
 10
1200.0
 20
70.0
 10
2060.0
 20
70.0
 10
2060.0
 20
0.0
 10
2505.0
 20
0.0
 10
2505.0
 20
-200.0
 10
2900.0
 20
-200.0
 10
2900.0
 20
0.0
 10
5695.0
 20
0.0
 10
5695.0
 20
-200.0
 10
5795.0
 20
-200.0
 10
5795.0
 20
-4280.0
 10
5050.0
 20
-4280.0
 10
5050.0
 20
-4180.0
 10
4105.0
 20
-4180.0
 10
4105.0
 20
-3385.0
 10
4005.0
 20
-3385.0
 10
4005.0
 20
-5940.0
 10
4055.0
 20
-5940.0
 10
4055.0
 20
-6690.0
 10
4005.0
 20
-6690.0
 10
4005.0
 20
-7220.0
 10
2885.0
 20
-7220.0
 10
2885.0
 20
-7570.0
 10
2850.0
 20
-7570.0
 10
2850.0
 20
-7720.0
 10
2780.0
 20
-7720.0
 10
2780.0
 20
-7740.0
 10
1900.0
 20
-7740.0
 10
1900.0
 20
-7720.0
 10
1825.0
 20
-7720.0
 10
1825.0
 20
-7570.0
 10
1365.0
 20
-7570.0
 10
1365.0
 20
-7040.0
 10
1315.0
 20
-7040.0
 10
1315.0
 20
-6290.0
 10
1365.0
 20
-6290.0
 10
1365.0
 20
-5400.0
 10
0.0
 20
-5400.0
  0
LWPOLYLINE
  5
336
330
1F
100
AcDbEntity
  8
area-border
  6
ByLayer
 62
256
370
-1
100
AcDbPolyline
 90
10
 70
1
 43
0.0
 10
-3.373901931650958e-13
 20
-5500.0
 10
800.0
 20
-5500.0
 10
800.0
 20
-6230.0
 10
1265.0
 20
-6230.0
 10
1265.0
 20
-6290.0
 10
1315.0
 20
-6290.0
 10
1315.0
 20
-7040.0
 10
1265.0
 20
-7040.0
 10
1265.0
 20
-7570.0
 10
-4.641411368768469e-13
 20
-7570.0
  0
LWPOLYLINE
  5
337
330
1F
100
AcDbEntity
  8
area-border
  6
ByLayer
 62
256
370
-1
100
AcDbPolyline
 90
14
 70
1
 43
0.0
 10
4105.0
 20
-5180.0
 10
5795.0
 20
-5180.0
 10
5795.0
 20
-6085.0
 10
5705.0
 20
-6085.0
 10
5705.0
 20
-6490.0
 10
5795.0
 20
-6490.0
 10
5795.0
 20
-7570.0
 10
4030.0
 20
-7570.0
 10
4030.0
 20
-7420.0
 10
4105.0
 20
-7420.0
 10
4105.0
 20
-6690.0
 10
4055.0
 20
-6690.0
 10
4055.0
 20
-5940.0
 10
4105.0
 20
-5940.0
  0
DIMENSION
  5
338
330
1F
100
AcDbEntity
  8
dimension
  6
ByLayer
 62
256
370
-1
100
AcDbDimension
  2
*D1
 10
400.0
 20
-400.0
 30
0.0
 11
195.0
 21
-323.75
 31
0.0
 70
32
 71
5
  3
Standard
 53
0.0
210
0.0
220
0.0
230
1.0
100
AcDbAlignedDimension
 13
0.0
 23
0.0
 33
0.0
 14
390.0
 24
0.0
 34
0.0
100
AcDbRotatedDimension
  0
DIMENSION
  5
339
330
1F
100
AcDbEntity
  8
dimension
  6
ByLayer
 62
256
370
-1
100
AcDbDimension
  2
*D2
 10
1200.0
 20
-400.0
 30
0.0
 11
795.0
 21
-323.75
 31
0.0
 70
32
 71
5
  3
Standard
 53
0.0
210
0.0
220
0.0
230
1.0
100
AcDbAlignedDimension
 13
390.0
 23
0.0
 33
0.0
 14
1200.0
 24
0.0
 34
0.0
100
AcDbRotatedDimension
  0
DIMENSION
  5
33A
330
1F
100
AcDbEntity
  8
dimension
  6
ByLayer
 62
256
370
-1
100
AcDbDimension
  2
*D3
 10
2100.0
 20
-400.0
 30
0.0
 11
1630.0
 21
-323.75
 31
0.0
 70
32
 71
5
  3
Standard
 53
0.0
210
0.0
220
0.0
230
1.0
100
AcDbAlignedDimension
 13
1200.0
 23
0.0
 33
0.0
 14
2060.0
 24
0.0
 34
0.0
100
AcDbRotatedDimension
  0
DIMENSION
  5
33B
330
1F
100
AcDbEntity
  8
dimension
  6
ByLayer
 62
256
370
-1
100
AcDbDimension
  2
*D4
 10
2200.0
 20
-400.0
 30
0.0
 11
2282.5
 21
-323.75
 31
0.0
 70
32
 71
5
  3
Standard
 53
0.0
210
0.0
220
0.0
230
1.0
100
AcDbAlignedDimension
 13
2060.0
 23
0.0
 33
0.0
 14
2505.0
 24
0.0
 34
0.0
100
AcDbRotatedDimension
  0
DIMENSION
  5
33C
330
1F
100
AcDbEntity
  8
dimension
  6
ByLayer
 62
256
370
-1
100
AcDbDimension
  2
*D5
 10
2900.0
 20
-400.0
 30
0.0
 11
2702.5
 21
-323.75
 31
0.0
 70
32
 71
5
  3
Standard
 53
0.0
210
0.0
220
0.0
230
1.0
100
AcDbAlignedDimension
 13
2505.0
 23
-200.0
 33
0.0
 14
2900.0
 24
-200.0
 34
0.0
100
AcDbRotatedDimension
  0
DIMENSION
  5
33D
330
1F
100
AcDbEntity
  8
dimension
  6
ByLayer
 62
256
370
-1
100
AcDbDimension
  2
*D6
 10
3640.0
 20
-400.0
 30
0.0
 11
3270.0
 21
-323.75
 31
0.0
 70
32
 71
5
  3
Standard
 53
0.0
210
0.0
220
0.0
230
1.0
100
AcDbAlignedDimension
 13
2900.0
 23
0.0
 33
0.0
 14
3640.0
 24
0.0
 34
0.0
100
AcDbRotatedDimension
  0
DIMENSION
  5
33E
330
1F
100
AcDbEntity
  8
dimension
  6
ByLayer
 62
256
370
-1
100
AcDbDimension
  2
*D7
 10
5315.0
 20
-400.0
 30
0.0
 11
4477.5
 21
-323.75
 31
0.0
 70
32
 71
5
  3
Standard
 53
0.0
210
0.0
220
0.0
230
1.0
100
AcDbAlignedDimension
 13
3640.0
 23
0.0
 33
0.0
 14
5315.0
 24
0.0
 34
0.0
100
AcDbRotatedDimension
  0
DIMENSION
  5
33F
330
1F
100
AcDbEntity
  8
dimension
  6
ByLayer
 62
256
370
-1
100
AcDbDimension
  2
*D8
 10
5695.0
 20
-400.0
 30
0.0
 11
5505.0
 21
-323.75
 31
0.0
 70
32
 71
5
  3
Standard
 53
0.0
210
0.0
220
0.0
230
1.0
100
AcDbAlignedDimension
 13
5315.0
 23
0.0
 33
0.0
 14
5695.0
 24
0.0
 34
0.0
100
AcDbRotatedDimension
  0
DIMENSION
  5
340
330
1F
100
AcDbEntity
  8
dimension
  6
ByLayer
 62
256
370
-1
100
AcDbDimension
  2
*D9
 10
5795.0
 20
-400.0
 30
0.0
 11
5745.0
 21
-323.75
 31
0.0
 70
32
 71
5
  3
Standard
 53
0.0
210
0.0
220
0.0
230
1.0
100
AcDbAlignedDimension
 13
5695.0
 23
-200.0
 33
0.0
 14
5795.0
 24
-200.0
 34
0.0
100
AcDbRotatedDimension
  0
DIMENSION
  5
341
330
1F
100
AcDbEntity
  8
dimension
  6
ByLayer
 62
256
370
-1
100
AcDbDimension
  2
*D10
 10
5795.0
 20
-1000.0
 30
0.0
 11
2897.5
 21
-923.75
 31
0.0
 70
32
 71
5
  3
Standard
 53
0.0
210
0.0
220
0.0
230
1.0
100
AcDbAlignedDimension
 13
0.0
 23
0.0
 33
0.0
 14
5795.0
 24
-200.0
 34
0.0
100
AcDbRotatedDimension
  0
DIMENSION
  5
342
330
1F
100
AcDbEntity
  8
dimension
  6
ByLayer
 62
256
370
-1
100
AcDbDimension
  2
*D11
 10
1365.0
 20
-5200.0
 30
0.0
 11
682.5
 21
-5123.75
 31
0.0
 70
32
 71
5
  3
Standard
 53
0.0
210
0.0
220
0.0
230
1.0
100
AcDbAlignedDimension
 13
0.0
 23
-5400.0
 33
0.0
 14
1365.0
 24
-5400.0
 34
0.0
100
AcDbRotatedDimension
  0
DIMENSION
  5
343
330
1F
100
AcDbEntity
  8
dimension
  6
ByLayer
 62
256
370
-1
100
AcDbDimension
  2
*D12
 10
1825.0
 20
-7400.0
 30
0.0
 11
1595.0
 21
-7323.75
 31
0.0
 70
32
 71
5
  3
Standard
 53
0.0
210
0.0
220
0.0
230
1.0
100
AcDbAlignedDimension
 13
1365.0
 23
-7570.0
 33
0.0
 14
1825.0
 24
-7570.0
 34
0.0
100
AcDbRotatedDimension
  0
DIMENSION
  5
344
330
1F
100
AcDbEntity
  8
dimension
  6
ByLayer
 62
256
370
-1
100
AcDbDimension
  2
*D13
 10
2850.0
 20
-7400.0
 30
0.0
 11
2337.5
 21
-7323.75
 31
0.0
 70
32
 71
5
  3
Standard
 53
0.0
210
0.0
220
0.0
230
1.0
100
AcDbAlignedDimension
 13
1825.0
 23
-7570.0
 33
0.0
 14
2850.0
 24
-7570.0
 34
0.0
100
AcDbRotatedDimension
  0
DIMENSION
  5
345
330
1F
100
AcDbEntity
  8
dimension
  6
ByLayer
 62
256
370
-1
100
AcDbDimension
  2
*D14
 10
2885.0
 20
-7400.0
 30
0.0
 11
2867.5
 21
-7323.75
 31
0.0
 70
32
 71
5
  3
Standard
 53
0.0
210
0.0
220
0.0
230
1.0
100
AcDbAlignedDimension
 13
2850.0
 23
-7570.0
 33
0.0
 14
2885.0
 24
-7570.0
 34
0.0
100
AcDbRotatedDimension
  0
DIMENSION
  5
346
330
1F
100
AcDbEntity
  8
dimension
  6
ByLayer
 62
256
370
-1
100
AcDbDimension
  2
*D15
 10
4005.0
 20
-7100.0
 30
0.0
 11
3445.0
 21
-7023.75
 31
0.0
 70
32
 71
5
  3
Standard
 53
0.0
210
0.0
220
0.0
230
1.0
100
AcDbAlignedDimension
 13
2885.0
 23
-7220.0
 33
0.0
 14
4005.0
 24
-7220.0
 34
0.0
100
AcDbRotatedDimension
  0
DIMENSION
  5
347
330
1F
100
AcDbEntity
  8
dimension
  6
ByLayer
 62
256
370
-1
100
AcDbDimension
  2
*D16
 10
4105.0
 20
-7500.0
 30
0.0
 11
4067.5
 21
-7423.75
 31
0.0
 70
32
 71
5
  3
Standard
 53
0.0
210
0.0
220
0.0
230
1.0
100
AcDbAlignedDimension
 13
4030.0
 23
-7420.0
 33
0.0
 14
4105.0
 24
-7420.0
 34
0.0
100
AcDbRotatedDimension
  0
DIMENSION
  5
348
330
1F
100
AcDbEntity
  8
dimension
  6
ByLayer
 62
256
370
-1
100
AcDbDimension
  2
*D17
 10
5795.0
 20
-8000.0
 30
0.0
 11
4912.5
 21
-7923.75
 31
0.0
 70
32
 71
5
  3
Standard
 53
0.0
210
0.0
220
0.0
230
1.0
100
AcDbAlignedDimension
 13
4030.0
 23
-7570.0
 33
0.0
 14
5795.0
 24
-7570.0
 34
0.0
100
AcDbRotatedDimension
  0
DIMENSION
  5
349
330
1F
100
AcDbEntity
  8
dimension
  6
ByLayer
 62
256
370
-1
100
AcDbDimension
  2
*D18
 10
1265.0
 20
-6400.0
 30
0.0
 11
1315.0
 21
-6323.75
 31
0.0
 70
32
 71
5
  3
Standard
 53
0.0
210
0.0
220
0.0
230
1.0
100
AcDbAlignedDimension
 13
1365.0
 23
-6290.0
 33
0.0
 14
1265.0
 24
-6290.0
 34
0.0
100
AcDbRotatedDimension
  0
DIMENSION
  5
34A
330
1F
100
AcDbEntity
  8
dimension
  6
ByLayer
 62
256
370
-1
100
AcDbDimension
  2
*D19
 10
800.0
 20
-6400.0
 30
0.0
 11
1032.5
 21
-6323.75
 31
0.0
 70
32
 71
5
  3
Standard
 53
0.0
210
0.0
220
0.0
230
1.0
100
AcDbAlignedDimension
 13
1265.0
 23
-6230.0
 33
0.0
 14
800.0
 24
-6230.0
 34
0.0
100
AcDbRotatedDimension
  0
DIMENSION
  5
34B
330
1F
100
AcDbEntity
  8
dimension
  6
ByLayer
 62
256
370
-1
100
AcDbDimension
  2
*D20
 10
-3.924992991267266e-13
 20
-6400.0
 30
0.0
 11
399.9999999999998
 21
-6323.75
 31
0.0
 70
32
 71
5
  3
Standard
 53
0.0
210
0.0
220
0.0
230
1.0
100
AcDbAlignedDimension
 13
800.0
 23
-6230.0
 33
0.0
 14
-3.373901931650958e-13
 24
-5500.0
 34
0.0
100
AcDbRotatedDimension
  0
DIMENSION
  5
34C
330
1F
100
AcDbEntity
  8
dimension
  6
ByLayer
 62
256
370
-1
100
AcDbDimension
  2
*D21
 10
1265.0
 20
-7400.0
 30
0.0
 11
632.4999999999998
 21
-7323.75
 31
0.0
 70
32
 71
5
  3
Standard
 53
0.0
210
0.0
220
0.0
230
1.0
100
AcDbAlignedDimension
 13
-4.641411368768469e-13
 23
-7570.0
 33
0.0
 14
1265.0
 24
-7570.0
 34
0.0
100
AcDbRotatedDimension
  0
DIMENSION
  5
34D
330
1F
100
AcDbEntity
  8
dimension
  6
ByLayer
 62
256
370
-1
100
AcDbDimension
  2
*D22
 10
1365.0
 20
-6900.0
 30
0.0
 11
1315.0
 21
-6823.75
 31
0.0
 70
32
 71
5
  3
Standard
 53
0.0
210
0.0
220
0.0
230
1.0
100
AcDbAlignedDimension
 13
1265.0
 23
-7040.0
 33
0.0
 14
1365.0
 24
-7040.0
 34
0.0
100
AcDbRotatedDimension
  0
DIMENSION
  5
34E
330
1F
100
AcDbEntity
  8
dimension
  6
ByLayer
 62
256
370
-1
100
AcDbDimension
  2
*D23
 10
4005.0
 20
-5200.0
 30
0.0
 11
2685.0
 21
-5123.75
 31
0.0
 70
32
 71
5
  3
Standard
 53
0.0
210
0.0
220
0.0
230
1.0
100
AcDbAlignedDimension
 13
1365.0
 23
-5400.0
 33
0.0
 14
4005.0
 24
-5940.0
 34
0.0
100
AcDbRotatedDimension
  0
DIMENSION
  5
34F
330
1F
100
AcDbEntity
  8
dimension
  6
ByLayer
 62
256
370
-1
100
AcDbDimension
  2
*D24
 10
5795.0
 20
-5400.0
 30
0.0
 11
4950.0
 21
-5323.75
 31
0.0
 70
32
 71
5
  3
Standard
 53
0.0
210
0.0
220
0.0
230
1.0
100
AcDbAlignedDimension
 13
4105.0
 23
-5180.0
 33
0.0
 14
5795.0
 24
-5180.0
 34
0.0
100
AcDbRotatedDimension
  0
DIMENSION
  5
350
330
1F
100
AcDbEntity
  8
dimension
  6
ByLayer
 62
256
370
-1
100
AcDbDimension
  2
*D25
 10
4105.0
 20
-6100.0
 30
0.0
 11
4055.0
 21
-6023.75
 31
0.0
 70
32
 71
5
  3
Standard
 53
0.0
210
0.0
220
0.0
230
1.0
100
AcDbAlignedDimension
 13
4005.0
 23
-5940.0
 33
0.0
 14
4105.0
 24
-5940.0
 34
0.0
100
AcDbRotatedDimension
  0
DIMENSION
  5
351
330
1F
100
AcDbEntity
  8
dimension
  6
ByLayer
 62
256
370
-1
100
AcDbDimension
  2
*D26
 10
4105.0
 20
-6500.0
 30
0.0
 11
4055.0
 21
-6423.75
 31
0.0
 70
32
 71
5
  3
Standard
 53
0.0
210
0.0
220
0.0
230
1.0
100
AcDbAlignedDimension
 13
4005.0
 23
-6690.0
 33
0.0
 14
4105.0
 24
-6690.0
 34
0.0
100
AcDbRotatedDimension
  0
DIMENSION
  5
352
330
1F
100
AcDbEntity
  8
dimension
  6
ByLayer
 62
256
370
-1
100
AcDbDimension
  2
*D27
 10
5795.0
 20
-5940.0
 30
0.0
 11
5750.0
 21
-5863.75
 31
0.0
 70
32
 71
5
  3
Standard
 53
0.0
210
0.0
220
0.0
230
1.0
100
AcDbAlignedDimension
 13
5705.0
 23
-6085.0
 33
0.0
 14
5795.0
 24
-6085.0
 34
0.0
100
AcDbRotatedDimension
  0
DIMENSION
  5
353
330
1F
100
AcDbEntity
  8
dimension
  6
ByLayer
 62
256
370
-1
100
AcDbDimension
  2
*D28
 10
5050.0
 20
-4000.0
 30
0.0
 11
5422.5
 21
-3923.75
 31
0.0
 70
32
 71
5
  3
Standard
 53
0.0
210
0.0
220
0.0
230
1.0
100
AcDbAlignedDimension
 13
5795.0
 23
-4280.0
 33
0.0
 14
5050.0
 24
-4280.0
 34
0.0
100
AcDbRotatedDimension
  0
DIMENSION
  5
354
330
1F
100
AcDbEntity
  8
dimension
  6
ByLayer
 62
256
370
-1
100
AcDbDimension
  2
*D29
 10
4105.0
 20
-4000.0
 30
0.0
 11
4577.5
 21
-3923.75
 31
0.0
 70
32
 71
5
  3
Standard
 53
0.0
210
0.0
220
0.0
230
1.0
100
AcDbAlignedDimension
 13
5050.0
 23
-4180.0
 33
0.0
 14
4105.0
 24
-4180.0
 34
0.0
100
AcDbRotatedDimension
  0
DIMENSION
  5
355
330
1F
100
AcDbEntity
  8
dimension
  6
ByLayer
 62
256
370
-1
100
AcDbDimension
  2
*D30
 10
4105.0
 20
-3200.0
 30
0.0
 11
4055.0
 21
-3123.75
 31
0.0
 70
32
 71
5
  3
Standard
 53
0.0
210
0.0
220
0.0
230
1.0
100
AcDbAlignedDimension
 13
4005.0
 23
-3385.0
 33
0.0
 14
4105.0
 24
-3385.0
 34
0.0
100
AcDbRotatedDimension
  0
DIMENSION
  5
356
330
1F
100
AcDbEntity
  8
dimension
  6
ByLayer
 62
256
370
-1
100
AcDbDimension
  2
*D31
 10
5795.0
 20
-3800.0
 30
0.0
 11
4950.0
 21
-3723.75
 31
0.0
 70
32
 71
5
  3
Standard
 53
0.0
210
0.0
220
0.0
230
1.0
100
AcDbAlignedDimension
 13
4105.0
 23
-4180.0
 33
0.0
 14
5795.0
 24
-4280.0
 34
0.0
100
AcDbRotatedDimension
  0
DIMENSION
  5
357
330
1F
100
AcDbEntity
  8
dimension
  6
ByLayer
 62
256
370
-1
100
AcDbDimension
  2
*D32
 10
500.0000000000003
 20
-6.12323399573677e-14
 30
0.0
 11
423.7500000000003
 21
-2700.0
 31
0.0
 70
32
 71
5
  3
Standard
 53
0.0
210
0.0
220
0.0
230
1.0
100
AcDbAlignedDimension
 13
0.0
 23
-5400.0
 33
0.0
 14
0.0
 24
0.0
 34
0.0
 50
90.0
100
AcDbRotatedDimension
  0
DIMENSION
  5
358
330
1F
100
AcDbEntity
  8
dimension
  6
ByLayer
 62
256
370
-1
100
AcDbDimension
  2
*D33
 10
3100.0
 20
-2.449293598294707e-14
 30
0.0
 11
3023.75
 21
-99.99999999999999
 31
0.0
 70
32
 71
5
  3
Standard
 53
0.0
210
0.0
220
0.0
230
1.0
100
AcDbAlignedDimension
 13
2900.0
 23
-200.0
 33
0.0
 14
2900.0
 24
0.0
 34
0.0
 50
90.0
100
AcDbRotatedDimension
  0
DIMENSION
  5
359
330
1F
100
AcDbEntity
  8
dimension
  6
ByLayer
 62
256
370
-1
100
AcDbDimension
  2
*D34
 10
600.0
 20
-5500.0
 30
0.0
 11
523.75
 21
-5865.0
 31
0.0
 70
32
 71
5
  3
Standard
 53
0.0
210
0.0
220
0.0
230
1.0
100
AcDbAlignedDimension
 13
800.0
 23
-6230.0
 33
0.0
 14
800.0
 24
-5500.0
 34
0.0
 50
90.0
100
AcDbRotatedDimension
  0
DIMENSION
  5
35A
330
1F
100
AcDbEntity
  8
dimension
  6
ByLayer
 62
256
370
-1
100
AcDbDimension
  2
*D35
 10
1200.0
 20
-6230.0
 30
0.0
 11
1123.75
 21
-6260.0
 31
0.0
 70
32
 71
5
  3
Standard
 53
0.0
210
0.0
220
0.0
230
1.0
100
AcDbAlignedDimension
 13
1265.0
 23
-6290.0
 33
0.0
 14
1265.0
 24
-6230.0
 34
0.0
 50
90.0
100
AcDbRotatedDimension
  0
DIMENSION
  5
35B
330
1F
100
AcDbEntity
  8
dimension
  6
ByLayer
 62
256
370
-1
100
AcDbDimension
  2
*D36
 10
1800.0
 20
-5400.0
 30
0.0
 11
1723.75
 21
-5845.0
 31
0.0
 70
32
 71
5
  3
Standard
 53
0.0
210
0.0
220
0.0
230
1.0
100
AcDbAlignedDimension
 13
1365.0
 23
-6290.0
 33
0.0
 14
1365.0
 24
-5400.0
 34
0.0
 50
90.0
100
AcDbRotatedDimension
  0
DIMENSION
  5
35C
330
1F
100
AcDbEntity
  8
dimension
  6
ByLayer
 62
256
370
-1
100
AcDbDimension
  2
*D37
 10
1800.0
 20
-7040.0
 30
0.0
 11
1723.75
 21
-6665.0
 31
0.0
 70
32
 71
5
  3
Standard
 53
0.0
210
0.0
220
0.0
230
1.0
100
AcDbAlignedDimension
 13
1365.0
 23
-6290.0
 33
0.0
 14
1365.0
 24
-7040.0
 34
0.0
 50
90.0
100
AcDbRotatedDimension
  0
DIMENSION
  5
35D
330
1F
100
AcDbEntity
  8
dimension
  6
ByLayer
 62
256
370
-1
100
AcDbDimension
  2
*D38
 10
1100.0
 20
-7570.0
 30
0.0
 11
1023.75
 21
-7305.0
 31
0.0
 70
32
 71
5
  3
Standard
 53
0.0
210
0.0
220
0.0
230
1.0
100
AcDbAlignedDimension
 13
1265.0
 23
-7040.0
 33
0.0
 14
1265.0
 24
-7570.0
 34
0.0
 50
90.0
100
AcDbRotatedDimension
  0
DIMENSION
  5
35E
330
1F
100
AcDbEntity
  8
dimension
  6
ByLayer
 62
256
370
-1
100
AcDbDimension
  2
*D39
 10
2700.0
 20
-7220.0
 30
0.0
 11
2623.75
 21
-7395.0
 31
0.0
 70
32
 71
5
  3
Standard
 53
0.0
210
0.0
220
0.0
230
1.0
100
AcDbAlignedDimension
 13
2850.0
 23
-7570.0
 33
0.0
 14
2885.0
 24
-7220.0
 34
0.0
 50
90.0
100
AcDbRotatedDimension
  0
DIMENSION
  5
35F
330
1F
100
AcDbEntity
  8
dimension
  6
ByLayer
 62
256
370
-1
100
AcDbDimension
  2
*D40
 10
2000.0
 20
-7720.405845398161
 30
0.0
 11
1923.75
 21
-7645.20292269908
 31
0.0
 70
32
 71
5
  3
Standard
 53
0.0
210
0.0
220
0.0
230
1.0
100
AcDbAlignedDimension
 13
1825.0
 23
-7570.0
 33
0.0
 14
1825.0
 24
-7720.405845398161
 34
0.0
 50
90.0
100
AcDbRotatedDimension
  0
DIMENSION
  5
360
330
1F
100
AcDbEntity
  8
dimension
  6
ByLayer
 62
256
370
-1
100
AcDbDimension
  2
*D41
 10
200.0
 20
-7570.0
 30
0.0
 11
123.75
 21
-6535.0
 31
0.0
 70
32
 71
5
  3
Standard
 53
0.0
210
0.0
220
0.0
230
1.0
100
AcDbAlignedDimension
 13
-3.373901931650958e-13
 23
-5500.0
 33
0.0
 14
-4.641411368768469e-13
 24
-7570.0
 34
0.0
 50
90.0
100
AcDbRotatedDimension
  0
DIMENSION
  5
361
330
1F
100
AcDbEntity
  8
dimension
  6
ByLayer
 62
256
370
-1
100
AcDbDimension
  2
*D42
 10
2000.0
 20
-7570.0
 30
0.0
 11
1923.75
 21
-6485.0
 31
0.0
 70
32
 71
5
  3
Standard
 53
0.0
210
0.0
220
0.0
230
1.0
100
AcDbAlignedDimension
 13
1365.0
 23
-5400.0
 33
0.0
 14
1365.0
 24
-7570.0
 34
0.0
 50
90.0
100
AcDbRotatedDimension
  0
DIMENSION
  5
362
330
1F
100
AcDbEntity
  8
dimension
  6
ByLayer
 62
256
370
-1
100
AcDbDimension
  2
*D43
 10
3800.0
 20
-5940.0
 30
0.0
 11
3723.75
 21
-4662.5
 31
0.0
 70
32
 71
5
  3
Standard
 53
0.0
210
0.0
220
0.0
230
1.0
100
AcDbAlignedDimension
 13
4005.0
 23
-3385.0
 33
0.0
 14
4005.0
 24
-5940.0
 34
0.0
 50
90.0
100
AcDbRotatedDimension
  0
DIMENSION
  5
363
330
1F
100
AcDbEntity
  8
dimension
  6
ByLayer
 62
256
370
-1
100
AcDbDimension
  2
*D44
 10
3800.0
 20
-6690.0
 30
0.0
 11
3723.75
 21
-6315.0
 31
0.0
 70
32
 71
5
  3
Standard
 53
0.0
210
0.0
220
0.0
230
1.0
100
AcDbAlignedDimension
 13
4005.0
 23
-5940.0
 33
0.0
 14
4005.0
 24
-6690.0
 34
0.0
 50
90.0
100
AcDbRotatedDimension
  0
DIMENSION
  5
364
330
1F
100
AcDbEntity
  8
dimension
  6
ByLayer
 62
256
370
-1
100
AcDbDimension
  2
*D45
 10
3800.0
 20
-7220.0
 30
0.0
 11
3723.75
 21
-6955.0
 31
0.0
 70
32
 71
5
  3
Standard
 53
0.0
210
0.0
220
0.0
230
1.0
100
AcDbAlignedDimension
 13
4005.0
 23
-6690.0
 33
0.0
 14
4005.0
 24
-7220.0
 34
0.0
 50
90.0
100
AcDbRotatedDimension
  0
DIMENSION
  5
365
330
1F
100
AcDbEntity
  8
dimension
  6
ByLayer
 62
256
370
-1
100
AcDbDimension
  2
*D46
 10
4500.0
 20
-7420.0
 30
0.0
 11
4423.75
 21
-7495.0
 31
0.0
 70
32
 71
5
  3
Standard
 53
0.0
210
0.0
220
0.0
230
1.0
100
AcDbAlignedDimension
 13
4030.0
 23
-7570.0
 33
0.0
 14
4030.0
 24
-7420.0
 34
0.0
 50
90.0
100
AcDbRotatedDimension
  0
DIMENSION
  5
366
330
1F
100
AcDbEntity
  8
dimension
  6
ByLayer
 62
256
370
-1
100
AcDbDimension
  2
*D47
 10
4500.0
 20
-6690.0
 30
0.0
 11
4423.75
 21
-7055.0
 31
0.0
 70
32
 71
5
  3
Standard
 53
0.0
210
0.0
220
0.0
230
1.0
100
AcDbAlignedDimension
 13
4105.0
 23
-7420.0
 33
0.0
 14
4105.0
 24
-6690.0
 34
0.0
 50
90.0
100
AcDbRotatedDimension
  0
DIMENSION
  5
367
330
1F
100
AcDbEntity
  8
dimension
  6
ByLayer
 62
256
370
-1
100
AcDbDimension
  2
*D48
 10
4500.0
 20
-5940.0
 30
0.0
 11
4423.75
 21
-6315.0
 31
0.0
 70
32
 71
5
  3
Standard
 53
0.0
210
0.0
220
0.0
230
1.0
100
AcDbAlignedDimension
 13
4105.0
 23
-6690.0
 33
0.0
 14
4105.0
 24
-5940.0
 34
0.0
 50
90.0
100
AcDbRotatedDimension
  0
DIMENSION
  5
368
330
1F
100
AcDbEntity
  8
dimension
  6
ByLayer
 62
256
370
-1
100
AcDbDimension
  2
*D49
 10
4500.0
 20
-5180.0
 30
0.0
 11
4423.75
 21
-5560.0
 31
0.0
 70
32
 71
5
  3
Standard
 53
0.0
210
0.0
220
0.0
230
1.0
100
AcDbAlignedDimension
 13
4105.0
 23
-5940.0
 33
0.0
 14
4105.0
 24
-5180.0
 34
0.0
 50
90.0
100
AcDbRotatedDimension
  0
DIMENSION
  5
369
330
1F
100
AcDbEntity
  8
dimension
  6
ByLayer
 62
256
370
-1
100
AcDbDimension
  2
*D50
 10
5600.0
 20
-6085.0
 30
0.0
 11
5523.75
 21
-5632.5
 31
0.0
 70
32
 71
5
  3
Standard
 53
0.0
210
0.0
220
0.0
230
1.0
100
AcDbAlignedDimension
 13
5795.0
 23
-5180.0
 33
0.0
 14
5795.0
 24
-6085.0
 34
0.0
 50
90.0
100
AcDbRotatedDimension
  0
DIMENSION
  5
36A
330
1F
100
AcDbEntity
  8
dimension
  6
ByLayer
 62
256
370
-1
100
AcDbDimension
  2
*D51
 10
5600.0
 20
-6490.0
 30
0.0
 11
5523.75
 21
-6287.5
 31
0.0
 70
32
 71
5
  3
Standard
 53
0.0
210
0.0
220
0.0
230
1.0
100
AcDbAlignedDimension
 13
5705.0
 23
-6085.0
 33
0.0
 14
5705.0
 24
-6490.0
 34
0.0
 50
90.0
100
AcDbRotatedDimension
  0
DIMENSION
  5
36B
330
1F
100
AcDbEntity
  8
dimension
  6
ByLayer
 62
256
370
-1
100
AcDbDimension
  2
*D52
 10
5600.0
 20
-7570.0
 30
0.0
 11
5523.75
 21
-7030.0
 31
0.0
 70
32
 71
5
  3
Standard
 53
0.0
210
0.0
220
0.0
230
1.0
100
AcDbAlignedDimension
 13
5795.0
 23
-6490.0
 33
0.0
 14
5795.0
 24
-7570.0
 34
0.0
 50
90.0
100
AcDbRotatedDimension
  0
DIMENSION
  5
36C
330
1F
100
AcDbEntity
  8
dimension
  6
ByLayer
 62
256
370
-1
100
AcDbDimension
  2
*D53
 10
5400.0
 20
-7570.0
 30
0.0
 11
5323.75
 21
-6375.0
 31
0.0
 70
32
 71
5
  3
Standard
 53
0.0
210
0.0
220
0.0
230
1.0
100
AcDbAlignedDimension
 13
5795.0
 23
-5180.0
 33
0.0
 14
5795.0
 24
-7570.0
 34
0.0
 50
90.0
100
AcDbRotatedDimension
  0
DIMENSION
  5
36D
330
1F
100
AcDbEntity
  8
dimension
  6
ByLayer
 62
256
370
-1
100
AcDbDimension
  2
*D54
 10
5600.0
 20
-200.0
 30
0.0
 11
5523.75
 21
-99.99999999999999
 31
0.0
 70
32
 71
5
  3
Standard
 53
0.0
210
0.0
220
0.0
230
1.0
100
AcDbAlignedDimension
 13
5695.0
 23
0.0
 33
0.0
 14
5695.0
 24
-200.0
 34
0.0
 50
90.0
100
AcDbRotatedDimension
  0
DIMENSION
  5
36E
330
1F
100
AcDbEntity
  8
dimension
  6
ByLayer
 62
256
370
-1
100
AcDbDimension
  2
*D55
 10
5600.0
 20
-4280.0
 30
0.0
 11
5523.75
 21
-2240.0
 31
0.0
 70
32
 71
5
  3
Standard
 53
0.0
210
0.0
220
0.0
230
1.0
100
AcDbAlignedDimension
 13
5695.0
 23
-200.0
 33
0.0
 14
5795.0
 24
-4280.0
 34
0.0
 50
90.0
100
AcDbRotatedDimension
  0
DIMENSION
  5
36F
330
1F
100
AcDbEntity
  8
dimension
  6
ByLayer
 62
256
370
-1
100
AcDbDimension
  2
*D56
 10
4005.0
 20
-5000.0
 30
0.0
 11
2002.5
 21
-4923.75
 31
0.0
 70
32
 71
5
  3
Standard
 53
0.0
210
0.0
220
0.0
230
1.0
100
AcDbAlignedDimension
 13
0.0
 23
-5400.0
 33
0.0
 14
4005.0
 24
-5940.0
 34
0.0
100
AcDbRotatedDimension
  0
DIMENSION
  5
370
330
1F
100
AcDbEntity
  8
dimension
  6
ByLayer
 62
256
370
-1
100
AcDbDimension
  2
*D57
 10
3800.0
 20
1.85533990070824e-13
 30
0.0
 11
3723.75
 21
-1692.5
 31
0.0
 70
32
 71
5
  3
Standard
 53
0.0
210
0.0
220
0.0
230
1.0
100
AcDbAlignedDimension
 13
4005.0
 23
-3385.0
 33
0.0
 14
5315.0
 24
0.0
 34
0.0
 50
90.0
100
AcDbRotatedDimension
  0
DIMENSION
  5
371
330
1F
100
AcDbEntity
  8
dimension
  6
ByLayer
 62
256
370
-1
100
AcDbDimension
  2
*D58
 10
4300.0
 20
-3385.0
 30
0.0
 11
4223.75
 21
-3782.5
 31
0.0
 70
32
 71
5
  3
Standard
 53
0.0
210
0.0
220
0.0
230
1.0
100
AcDbAlignedDimension
 13
4105.0
 23
-4180.0
 33
0.0
 14
4105.0
 24
-3385.0
 34
0.0
 50
90.0
100
AcDbRotatedDimension
  0
DIMENSION
  5
372
330
1F
100
AcDbEntity
  8
dimension
  6
ByLayer
 62
256
370
-1
100
AcDbDimension
  2
*D59
 10
5200.0
 20
-4280.0
 30
0.0
 11
5123.75
 21
-4230.0
 31
0.0
 70
32
 71
5
  3
Standard
 53
0.0
210
0.0
220
0.0
230
1.0
100
AcDbAlignedDimension
 13
5050.0
 23
-4180.0
 33
0.0
 14
5050.0
 24
-4280.0
 34
0.0
 50
90.0
100
AcDbRotatedDimension
  0
MTEXT
  5
373
330
1F
100
AcDbEntity
  8
dimension
  6
ByLayer
 62
256
370
-1
100
AcDbMText
 10
2574.285714285714
 20
-3035.714285714286
 30
0.0
 40
90.0
 41
640.1065268319817
 71
5
 72
1
  1
S = 34,6м²
  7
unicode
210
0.0
220
0.0
230
1.0
 50
0.0
 73
2
 44
1.0
  0
MTEXT
  5
374
330
1F
100
AcDbEntity
  8
dimension
  6
ByLayer
 62
256
370
-1
100
AcDbMText
 10
631.4285714285714
 20
-7006.428571428572
 30
0.0
 40
90.0
 41
560.1065268319817
 71
5
 72
1
  1
S = 2,3м²
  7
unicode
210
0.0
220
0.0
230
1.0
 50
0.0
 73
2
 44
1.0
  0
MTEXT
  5
375
330
1F
100
AcDbEntity
  8
dimension
  6
ByLayer
 62
256
370
-1
100
AcDbMText
 10
4966.428571428572
 20
-6678.571428571428
 30
0.0
 40
90.0
 41
550.1065268319817
 71
5
 72
1
  1
S = 4,1м²
  7
unicode
210
0.0
220
0.0
230
1.0
 50
0.0
 73
2
 44
1.0
  0
MTEXT
  5
376
330
1F
100
AcDbEntity
  8
dimension
  6
ByLayer
 62
256
370
-1
100
AcDbMText
 10
2610.714285714286
 20
-3266.428571428572
 30
0.0
 40
90.0
 41
505.0
 71
5
 72
1
  1
h = 2710
  7
unicode
210
0.0
220
0.0
230
1.0
 50
0.0
 73
2
 44
1.0
  0
MTEXT
  5
377
330
1F
100
AcDbEntity
  8
dimension
  6
ByLayer
 62
256
370
-1
100
AcDbMText
 10
631.4285714285714
 20
-7164.285714285715
 30
0.0
 40
90.0
 41
505.0
 71
5
 72
1
  1
h = 2710
  7
unicode
210
0.0
220
0.0
230
1.0
 50
0.0
 73
2
 44
1.0
  0
MTEXT
  5
378
330
1F
100
AcDbEntity
  8
dimension
  6
ByLayer
 62
256
370
-1
100
AcDbMText
 10
4966.428571428572
 20
-6897.142857142857
 30
0.0
 40
90.0
 41
525.0
 71
5
 72
1
  1
h = 2730
  7
unicode
210
0.0
220
0.0
230
1.0
 50
0.0
 73
2
 44
1.0
  0
INSERT
  5
379
330
1F
100
AcDbEntity
  8
0
  6
ByLayer
 62
256
370
-1
100
AcDbBlockReference
  2
explication-1-800-1
 10
9500.0
 20
2000.0
 30
0.0
 41
50.0
 42
50.0
 43
0.0
 50
0.0
 70
1
 71
1
 44
0.0
 45
0.0
  0
INSERT
  5
37A
330
1F
100
AcDbEntity
  8
0
  6
ByLayer
 62
256
370
-1
100
AcDbBlockReference
  2
sheet-A3-border
 10
-6000.0
 20
3000.0
 30
0.0
 41
50.0
 42
50.0
 43
0.0
 50
0.0
 70
1
 71
1
 44
0.0
 45
0.0
  0
ENDSEC
  0
SECTION
  2
OBJECTS
  0
DICTIONARY
  5
C
330
0
100
AcDbDictionary
281
1
  3
ACAD_GROUP
350
D
  3
ACAD_COLOR
350
20000
  3
ACAD_LAYOUT
350
20001
  3
ACAD_MATERIAL
350
20002
  3
ACAD_MLEADERSTYLE
350
20003
  3
ACAD_MLINESTYLE
350
20004
  3
ACAD_PLOTSETTINGS
350
20005
  3
ACAD_PLOTSTYLENAME
350
20006
  3
ACAD_SCALELIST
350
20008
  3
ACAD_TABLESTYLE
350
20009
  3
ACAD_VISUALSTYLE
350
2000A
  0
DICTIONARY
  5
D
330
C
100
AcDbDictionary
281
1
  0
DICTIONARY
  5
20000
330
C
100
AcDbDictionary
281
1
  0
DICTIONARY
  5
20001
330
C
100
AcDbDictionary
281
1
  3
Model
350
2000B
  3
Layout1
350
2000C
  0
DICTIONARY
  5
20002
330
C
100
AcDbDictionary
281
1
  0
DICTIONARY
  5
20003
330
C
100
AcDbDictionary
281
1
  0
DICTIONARY
  5
20004
330
C
100
AcDbDictionary
281
1
  0
DICTIONARY
  5
20005
330
C
100
AcDbDictionary
281
1
  0
ACDBDICTIONARYWDFLT
  5
20006
330
C
100
AcDbDictionary
281
1
  3
Normal
350
20007
100
AcDbDictionaryWithDefault
340
20007
  0
ACDBPLACEHOLDER
  5
20007
330
20006
  0
DICTIONARY
  5
20008
330
C
100
AcDbDictionary
281
1
  0
DICTIONARY
  5
20009
330
C
100
AcDbDictionary
281
1
  0
DICTIONARY
  5
2000A
330
C
100
AcDbDictionary
281
1
  0
LAYOUT
  5
2000B
330
20001
100
AcDbPlotSettings
  1

  2
DWFx ePlot (XPS Compatible).pc3
  4
ANSI_A_(8.50_x_11.00_Inches)
  6

 40
5.8
 41
17.8
 42
5.8
 43
17.8
 44
215.9
 45
279.4
 46
0.0
 47
0.0
 48
0.0
 49
0.0
140
0.0
141
0.0
142
1.0
143
14.53
 70
11952
 72
0
 73
1
 74
0
  7

 75
0
147
0.069
148
114.98
149
300.29
100
AcDbLayout
  1
Model
 70
1
 71
0
 10
0.0
 20
0.0
 11
12.0
 21
9.0
 12
0.0
 22
0.0
 32
0.0
 14
0.0
 24
0.0
 34
0.0
 15
0.0
 25
0.0
 35
0.0
146
0.0
 13
0.0
 23
0.0
 33
0.0
 16
1.0
 26
0.0
 36
0.0
 17
0.0
 27
1.0
 37
0.0
 76
0
330
1F
  0
LAYOUT
  5
2000C
330
20001
100
AcDbPlotSettings
  1

  2
DWFx ePlot (XPS Compatible).pc3
  4
ANSI_A_(8.50_x_11.00_Inches)
  6

 40
5.8
 41
17.8
 42
5.8
 43
17.8
 44
215.9
 45
279.4
 46
0.0
 47
0.0
 48
0.0
 49
0.0
140
0.0
141
0.0
142
1.0
143
1.0
 70
688
 72
0
 73
1
 74
5
  7
acad.ctb
 75
16
147
1.0
148
0.0
149
0.0
100
AcDbLayout
  1
Layout1
 70
1
 71
1
 10
-0.7
 20
-0.23
 11
10.3
 21
8.27
 12
0.0
 22
0.0
 32
0.0
 14
0.63
 24
0.8
 34
0.0
 15
9.0
 25
7.2
 35
0.0
146
0.0
 13
0.0
 23
0.0
 33
0.0
 16
1.0
 26
0.0
 36
0.0
 17
0.0
 27
1.0
 37
0.0
 76
0
330
1E
  0
ENDSEC
  0
EOF
