999
dxfrw 0.6.3
  0
SECTION
  2
HEADER
  9
$ACADVER
  1
AC1021
  9
$DWGCODEPAGE
  3
ANSI_1251
  9
$INSBASE
 10
0
 20
0
 30
0
  9
$EXTMIN
 10
-6000
 20
-11850
 30
0
  9
$EXTMAX
 10
15000
 20
3000
 30
0
  9
$LIMMIN
 10
0
 20
0
  9
$LIMMAX
 10
12
 20
9
  9
$ORTHOMODE
 70
    0
  9
$REGENMODE
 70
    1
  9
$FILLMODE
 70
    1
  9
$QTEXTMODE
 70
    0
  9
$MIRRTEXT
 70
    0
  9
$LTSCALE
 40
1
  9
$ATTMODE
 70
    0
  9
$TEXTSIZE
 40
2.5
  9
$TRACEWID
 40
15.68
  9
$TEXTSTYLE
  7
Standard
  9
$CLAYER
  8
0
  9
$CELTYPE
  6
BYLAYER
  9
$CECOLOR
 62
  256
  9
$CELTSCALE
 40
1
  9
$DISPSILH
 70
    0
  9
$DIMSCALE
 40
50
  9
$DIMASZ
 40
2.5
  9
$DIMEXO
 40
0.625
  9
$DIMDLI
 40
3.75
  9
$DIMRND
 40
0
  9
$DIMDLE
 40
0
  9
$DIMEXE
 40
0.125
  9
$DIMTP
 40
0
  9
$DIMTM
 40
0
  9
$DIMTXT
 40
1.8
  9
$DIMCEN
 40
2.5
  9
$DIMTSZ
 40
1.5
  9
$DIMTOL
 70
    0
  9
$DIMLIM
 70
    0
  9
$DIMTIH
 70
    0
  9
$DIMTOH
 70
    0
  9
$DIMSE1
 70
    0
  9
$DIMSE2
 70
    0
  9
$DIMTAD
 70
    1
  9
$DIMZIN
 70
    1
  9
$DIMBLK
  1

  9
$DIMASO
 70
    1
  9
$DIMSHO
 70
    1
  9
$DIMPOST
  1

  9
$DIMAPOST
  1

  9
$DIMALT
 70
    0
  9
$DIMALTD
 70
    3
  9
$DIMALTF
 40
0.03937
  9
$DIMLFAC
 40
1
  9
$DIMTOFL
 70
    1
  9
$DIMTVP
 40
0
  9
$DIMTIX
 70
    0
  9
$DIMSOXD
 70
    0
  9
$DIMSAH
 70
    0
  9
$DIMBLK1
  1

  9
$DIMBLK2
  1

  9
$DIMSTYLE
  2
Standard
  9
$DIMCLRD
 70
    0
  9
$DIMCLRE
 70
    0
  9
$DIMCLRT
 70
    0
  9
$DIMTFAC
 40
1
  9
$DIMGAP
 40
0.625
  9
$DIMJUST
 70
    0
  9
$DIMSD1
 70
    0
  9
$DIMSD2
 70
    0
  9
$DIMTOLJ
 70
    0
  9
$DIMTZIN
 70
    8
  9
$DIMALTZ
 70
    0
  9
$DIMALTTZ
 70
    0
  9
$DIMUPT
 70
    0
  9
$DIMDEC
 70
    0
  9
$DIMTDEC
 70
    2
  9
$DIMALTU
 70
    2
  9
$DIMALTTD
 70
    3
  9
$DIMTXSTY
  7
standard
  9
$DIMAUNIT
 70
    0
  9
$DIMADEC
 70
    0
  9
$DIMALTRND
 40
0
  9
$DIMAZIN
 70
    0
  9
$DIMDSEP
 70
    0
  9
$DIMATFIT
 70
    3
  9
$DIMFRAC
 70
    0
  9
$DIMLDRBLK
  1
STANDARD
  9
$DIMLUNIT
 70
    2
  9
$DIMLWD
 70
   -2
  9
$DIMLWE
 70
   -2
  9
$DIMTMOVE
 70
    0
  9
$DIMFXL
 40
1
  9
$DIMFXLON
 70
    0
  9
$DIMJOGANG
 40
0.7854
  9
$DIMTFILL
 70
    0
  9
$DIMTFILLCLR
 70
    0
  9
$DIMARCSYM
 70
    0
  9
$DIMLTYPE
  6

  9
$DIMLTEX1
  6

  9
$DIMLTEX2
  6

  9
$LUNITS
 70
    2
  9
$LUPREC
 70
    0
  9
$SKETCHINC
 40
1
  9
$FILLETRAD
 40
0
  9
$AUNITS
 70
    0
  9
$AUPREC
 70
    2
  9
$MENU
  1
.
  9
$ELEVATION
 40
0
  9
$PELEVATION
 40
0
  9
$THICKNESS
 40
0
  9
$LIMCHECK
 70
    0
  9
$CHAMFERA
 40
0
  9
$CHAMFERB
 40
0
  9
$CHAMFERC
 40
0
  9
$CHAMFERD
 40
0
  9
$SKPOLY
 70
    0
  9
$USRTIMER
 70
    1
  9
$ANGBASE
 50
0
  9
$ANGDIR
 70
    0
  9
$PDMODE
 70
   34
  9
$PDSIZE
 40
0
  9
$PLINEWID
 40
0
  9
$SPLFRAME
 70
    0
  9
$SPLINETYPE
 70
    2
  9
$SPLINESEGS
 70
    8
  9
$HANDSEED
  5
20000
  9
$SURFTAB1
 70
    6
  9
$SURFTAB2
 70
    6
  9
$SURFTYPE
 70
    6
  9
$SURFU
 70
    6
  9
$SURFV
 70
    6
  9
$UCSBASE
  2

  9
$UCSNAME
  2

  9
$UCSORG
 10
0
 20
0
 30
0
  9
$UCSXDIR
 10
1
 20
0
 30
0
  9
$UCSYDIR
 10
0
 20
1
 30
0
  9
$UCSORTHOREF
  2

  9
$UCSORTHOVIEW
 70
    0
  9
$UCSORGTOP
 10
0
 20
0
 30
0
  9
$UCSORGBOTTOM
 10
0
 20
0
 30
0
  9
$UCSORGLEFT
 10
0
 20
0
 30
0
  9
$UCSORGRIGHT
 10
0
 20
0
 30
0
  9
$UCSORGFRONT
 10
0
 20
0
 30
0
  9
$UCSORGBACK
 10
0
 20
0
 30
0
  9
$PUCSBASE
  2

  9
$PUCSNAME
  2

  9
$PUCSORG
 10
0
 20
0
 30
0
  9
$PUCSXDIR
 10
1
 20
0
 30
0
  9
$PUCSYDIR
 10
0
 20
1
 30
0
  9
$PUCSORTHOREF
  2

  9
$PUCSORTHOVIEW
 70
    0
  9
$PUCSORGTOP
 10
0
 20
0
 30
0
  9
$PUCSORGBOTTOM
 10
0
 20
0
 30
0
  9
$PUCSORGLEFT
 10
0
 20
0
 30
0
  9
$PUCSORGRIGHT
 10
0
 20
0
 30
0
  9
$PUCSORGFRONT
 10
0
 20
0
 30
0
  9
$PUCSORGBACK
 10
0
 20
0
 30
0
  9
$USERI1
 70
    0
  9
$USERI2
 70
    0
  9
$USERI3
 70
    0
  9
$USERI4
 70
    0
  9
$USERI5
 70
    0
  9
$USERR1
 40
0
  9
$USERR2
 40
0
  9
$USERR3
 40
0
  9
$USERR4
 40
0
  9
$USERR5
 40
0
  9
$WORLDVIEW
 70
    1
  9
$SHADEDGE
 70
    3
  9
$SHADEDIF
 70
   70
  9
$TILEMODE
 70
    1
  9
$MAXACTVP
 70
   64
  9
$PINSBASE
 10
120
 20
237
 30
0
  9
$PLIMCHECK
 70
    0
  9
$PEXTMIN
 10
0
 20
0
 30
0
  9
$PEXTMAX
 10
0
 20
0
 30
0
  9
$GRIDMODE
 70
    1
  9
$SNAPSTYLE
 70
    0
  9
$GRIDUNIT
 10
0
 20
0
  9
$PLIMMIN
 10
0
 20
0
  9
$PLIMMAX
 10
420
 20
297
  9
$UNITMODE
 70
    0
  9
$VISRETAIN
 70
    1
  9
$PLINEGEN
 70
    0
  9
$PSLTSCALE
 70
    1
  9
$TREEDEPTH
 70
 3020
  9
$CMLSTYLE
  2
Standard
  9
$CMLJUST
 70
    0
  9
$CMLSCALE
 40
20
  9
$PROXYGRAPHICS
 70
    1
  9
$MEASUREMENT
 70
    1
  9
$CELWEIGHT
370
   -1
  9
$ENDCAPS
280
    0
  9
$JOINSTYLE
280
    0
  9
$LWDISPLAY
290
    0
  9
$INSUNITS
 70
    4
  9
$HYPERLINKBASE
  1

  9
$STYLESHEET
  1

  9
$XEDIT
290
    1
  9
$CEPSNTYPE
380
    0
  9
$PSTYLEMODE
290
    1
  9
$EXTNAMES
290
    1
  9
$PSVPSCALE
 40
0.02
  9
$OLESTARTUP
290
    0
  9
$SORTENTS
280
  127
  9
$INDEXCTL
280
    0
  9
$HIDETEXT
280
    1
  9
$XCLIPFRAME
290
    0
  9
$HALOGAP
280
    0
  9
$OBSCOLOR
 70
  257
  9
$OBSLTYPE
280
    0
  9
$INTERSECTIONDISPLAY
280
    0
  9
$INTERSECTIONCOLOR
 70
  257
  9
$DIMASSOC
280
    1
  9
$PROJECTNAME
  1

  9
$CAMERADISPLAY
290
    0
  9
$LENSLENGTH
 40
50
  9
$CAMERAHEIGHT
 40
0
  9
$STEPSPERSEC
 40
2
  9
$STEPSIZE
 40
50
  9
$3DDWFPREC
 40
2
  9
$PSOLWIDTH
 40
5
  9
$PSOLHEIGHT
 40
80
  9
$LOFTANG1
 40
1.570796326794897
  9
$LOFTANG2
 40
1.570796326794897
  9
$LOFTMAG1
 40
0
  9
$LOFTMAG2
 40
0
  9
$LOFTPARAM
 70
    7
  9
$LOFTNORMALS
280
    1
  9
$LATITUDE
 40
1
  9
$LONGITUDE
 40
1
  9
$NORTHDIRECTION
 40
0
  9
$TIMEZONE
 70
-8000
  9
$LIGHTGLYPHDISPLAY
280
    1
  9
$TILEMODELIGHTSYNCH
280
    1
  9
$SOLIDHIST
280
    1
  9
$SHOWHIST
280
    1
  9
$DWFFRAME
280
    2
  9
$DGNFRAME
280
    0
  9
$REALWORLDSCALE
290
    1
  9
$INTERFERECOLOR
 62
    1
  9
$CSHADOW
280
    0
  9
$SHADOWPLANELOCATION
 40
0
  0
ENDSEC
  0
SECTION
  2
CLASSES
  0
ENDSEC
  0
SECTION
  2
TABLES
  0
TABLE
  2
VPORT
  5
8
330
0
100
AcDbSymbolTable
 70
    1
  0
VPORT
  5
31
330
2
100
AcDbSymbolTableRecord
100
AcDbViewportTableRecord
  2
*ACTIVE
 70
    0
 10
0
 20
0
 11
1
 21
1
 12
7611.940298507463
 22
2115.671641791045
 13
0
 23
0
 14
10
 24
10
 15
10
 25
10
 16
0
 26
0
 36
1
 17
0
 27
0
 37
0
 40
17305.97014925373
 41
1.239327296248383
 42
50
 43
0
 44
0
 50
0
 51
0
 71
    0
 72
  100
 73
    1
 74
    3
 75
    0
 76
    1
 77
    0
 78
    0
281
    0
 65
    1
110
0
120
0
130
0
111
1
121
0
131
0
112
0
122
1
132
0
 79
    0
146
0
348
10020
 60
    7
 61
    5
292
1
282
    1
141
0
142
0
 63
  250
421
3358443
  0
ENDTAB
  0
TABLE
  2
LTYPE
  5
5
330
0
100
AcDbSymbolTable
 70
    4
  0
LTYPE
  5
14
330
5
100
AcDbSymbolTableRecord
100
AcDbLinetypeTableRecord
  2
ByBlock
 70
    0
  3

 72
   65
 73
    0
 40
0
  0
LTYPE
  5
15
330
5
100
AcDbSymbolTableRecord
100
AcDbLinetypeTableRecord
  2
ByLayer
 70
    0
  3

 72
   65
 73
    0
 40
0
  0
LTYPE
  5
16
330
5
100
AcDbSymbolTableRecord
100
AcDbLinetypeTableRecord
  2
Continuous
 70
    0
  3
Solid line
 72
   65
 73
    0
 40
0
  0
LTYPE
  5
32
330
5
100
AcDbSymbolTableRecord
100
AcDbLinetypeTableRecord
  2
DOT
 70
    0
  3
Dot . . . . . . . . . . . . . . . . . . . . . .
 72
   65
 73
    2
 40
6.35
 49
0
 74
    0
 49
-6.35
 74
    0
  0
LTYPE
  5
33
330
5
100
AcDbSymbolTableRecord
100
AcDbLinetypeTableRecord
  2
DOTTINY
 70
    0
  3
Dot (.15x) .....................................
 72
   65
 73
    2
 40
0.9525
 49
0
 74
    0
 49
-0.9525
 74
    0
  0
LTYPE
  5
34
330
5
100
AcDbSymbolTableRecord
100
AcDbLinetypeTableRecord
  2
DOT2
 70
    0
  3
Dot (.5x) .....................................
 72
   65
 73
    2
 40
3.175
 49
0
 74
    0
 49
-3.175
 74
    0
  0
LTYPE
  5
35
330
5
100
AcDbSymbolTableRecord
100
AcDbLinetypeTableRecord
  2
DOTX2
 70
    0
  3
Dot (2x) .  .  .  .  .  .  .  .  .  .  .  .  .
 72
   65
 73
    2
 40
12.7
 49
0
 74
    0
 49
-12.7
 74
    0
  0
LTYPE
  5
36
330
5
100
AcDbSymbolTableRecord
100
AcDbLinetypeTableRecord
  2
DASHED
 70
    0
  3
Dashed _ _ _ _ _ _ _ _ _ _ _ _ _ _ _ _ _
 72
   65
 73
    2
 40
19.05
 49
12.7
 74
    0
 49
-6.35
 74
    0
  0
LTYPE
  5
37
330
5
100
AcDbSymbolTableRecord
100
AcDbLinetypeTableRecord
  2
DASHEDTINY
 70
    0
  3
Dashed (.15x) _ _ _ _ _ _ _ _ _ _ _ _ _ _ _ _ _
 72
   65
 73
    2
 40
2.8575
 49
1.905
 74
    0
 49
-0.9525
 74
    0
  0
LTYPE
  5
38
330
5
100
AcDbSymbolTableRecord
100
AcDbLinetypeTableRecord
  2
DASHED2
 70
    0
  3
Dashed (.5x) _ _ _ _ _ _ _ _ _ _ _ _ _ _ _ _ _
 72
   65
 73
    2
 40
9.524999999999999
 49
6.35
 74
    0
 49
-3.175
 74
    0
  0
LTYPE
  5
39
330
5
100
AcDbSymbolTableRecord
100
AcDbLinetypeTableRecord
  2
DASHEDX2
 70
    0
  3
Dashed (2x) ____  ____  ____  ____  ____  ___
 72
   65
 73
    2
 40
38.09999999999999
 49
25.4
 74
    0
 49
-12.7
 74
    0
  0
LTYPE
  5
3A
330
5
100
AcDbSymbolTableRecord
100
AcDbLinetypeTableRecord
  2
DASHDOT
 70
    0
  3
Dash dot __ . __ . __ . __ . __ . __ . __ . __
 72
   65
 73
    4
 40
25.4
 49
12.7
 74
    0
 49
-6.35
 74
    0
 49
0
 74
    0
 49
-6.35
 74
    0
  0
LTYPE
  5
3B
330
5
100
AcDbSymbolTableRecord
100
AcDbLinetypeTableRecord
  2
DASHDOTTINY
 70
    0
  3
Dash dot (.15x) _._._._._._._._._._._._._._._.
 72
   65
 73
    4
 40
3.81
 49
1.905
 74
    0
 49
-0.9525
 74
    0
 49
0
 74
    0
 49
-0.9525
 74
    0
  0
LTYPE
  5
3C
330
5
100
AcDbSymbolTableRecord
100
AcDbLinetypeTableRecord
  2
DASHDOT2
 70
    0
  3
Dash dot (.5x) _._._._._._._._._._._._._._._.
 72
   65
 73
    4
 40
12.7
 49
6.35
 74
    0
 49
-3.175
 74
    0
 49
0
 74
    0
 49
-3.175
 74
    0
  0
LTYPE
  5
3D
330
5
100
AcDbSymbolTableRecord
100
AcDbLinetypeTableRecord
  2
DASHDOTX2
 70
    0
  3
Dash dot (2x) ____  .  ____  .  ____  .  ___
 72
   65
 73
    4
 40
50.8
 49
25.4
 74
    0
 49
-12.7
 74
    0
 49
0
 74
    0
 49
-12.7
 74
    0
  0
LTYPE
  5
3E
330
5
100
AcDbSymbolTableRecord
100
AcDbLinetypeTableRecord
  2
DIVIDE
 70
    0
  3
Divide ____ . . ____ . . ____ . . ____ . . ____
 72
   65
 73
    6
 40
31.75
 49
12.7
 74
    0
 49
-6.35
 74
    0
 49
0
 74
    0
 49
-6.35
 74
    0
 49
0
 74
    0
 49
-6.35
 74
    0
  0
LTYPE
  5
3F
330
5
100
AcDbSymbolTableRecord
100
AcDbLinetypeTableRecord
  2
DIVIDETINY
 70
    0
  3
Divide (.15x) __..__..__..__..__..__..__..__.._
 72
   65
 73
    6
 40
4.7625
 49
1.905
 74
    0
 49
-0.9525
 74
    0
 49
0
 74
    0
 49
-0.9525
 74
    0
 49
0
 74
    0
 49
-0.9525
 74
    0
  0
LTYPE
  5
40
330
5
100
AcDbSymbolTableRecord
100
AcDbLinetypeTableRecord
  2
DIVIDE2
 70
    0
  3
Divide (.5x) __..__..__..__..__..__..__..__.._
 72
   65
 73
    6
 40
15.875
 49
6.35
 74
    0
 49
-3.175
 74
    0
 49
0
 74
    0
 49
-3.175
 74
    0
 49
0
 74
    0
 49
-3.175
 74
    0
  0
LTYPE
  5
41
330
5
100
AcDbSymbolTableRecord
100
AcDbLinetypeTableRecord
  2
DIVIDEX2
 70
    0
  3
Divide (2x) ________  .  .  ________  .  .  _
 72
   65
 73
    6
 40
63.5
 49
25.4
 74
    0
 49
-12.7
 74
    0
 49
0
 74
    0
 49
-12.7
 74
    0
 49
0
 74
    0
 49
-12.7
 74
    0
  0
LTYPE
  5
42
330
5
100
AcDbSymbolTableRecord
100
AcDbLinetypeTableRecord
  2
BORDER
 70
    0
  3
Border __ __ . __ __ . __ __ . __ __ . __ __ .
 72
   65
 73
    6
 40
44.45
 49
12.7
 74
    0
 49
-6.35
 74
    0
 49
12.7
 74
    0
 49
-6.35
 74
    0
 49
0
 74
    0
 49
-6.35
 74
    0
  0
LTYPE
  5
43
330
5
100
AcDbSymbolTableRecord
100
AcDbLinetypeTableRecord
  2
BORDERTINY
 70
    0
  3
Border (.15x) __.__.__.__.__.__.__.__.__.__.__.
 72
   65
 73
    6
 40
6.6675
 49
1.905
 74
    0
 49
-0.9525
 74
    0
 49
1.905
 74
    0
 49
-0.9525
 74
    0
 49
0
 74
    0
 49
-0.9525
 74
    0
  0
LTYPE
  5
44
330
5
100
AcDbSymbolTableRecord
100
AcDbLinetypeTableRecord
  2
BORDER2
 70
    0
  3
Border (.5x) __.__.__.__.__.__.__.__.__.__.__.
 72
   65
 73
    6
 40
22.225
 49
6.35
 74
    0
 49
-3.175
 74
    0
 49
6.35
 74
    0
 49
-3.175
 74
    0
 49
0
 74
    0
 49
-3.175
 74
    0
  0
LTYPE
  5
45
330
5
100
AcDbSymbolTableRecord
100
AcDbLinetypeTableRecord
  2
BORDERX2
 70
    0
  3
Border (2x) ____  ____  .  ____  ____  .  ___
 72
   65
 73
    6
 40
88.89999999999999
 49
25.4
 74
    0
 49
-12.7
 74
    0
 49
25.4
 74
    0
 49
-12.7
 74
    0
 49
0
 74
    0
 49
-12.7
 74
    0
  0
LTYPE
  5
46
330
5
100
AcDbSymbolTableRecord
100
AcDbLinetypeTableRecord
  2
CENTER
 70
    0
  3
Center ____ _ ____ _ ____ _ ____ _ ____ _ ____
 72
   65
 73
    4
 40
50.8
 49
31.75
 74
    0
 49
-6.35
 74
    0
 49
6.35
 74
    0
 49
-6.35
 74
    0
  0
LTYPE
  5
47
330
5
100
AcDbSymbolTableRecord
100
AcDbLinetypeTableRecord
  2
CENTERTINY
 70
    0
  3
Center (.15x) ___ _ ___ _ ___ _ ___ _ ___ _ ___
 72
   65
 73
    4
 40
7.619999999999999
 49
4.7625
 74
    0
 49
-0.9525
 74
    0
 49
0.9525
 74
    0
 49
-0.9525
 74
    0
  0
LTYPE
  5
48
330
5
100
AcDbSymbolTableRecord
100
AcDbLinetypeTableRecord
  2
CENTER2
 70
    0
  3
Center (.5x) ___ _ ___ _ ___ _ ___ _ ___ _ ___
 72
   65
 73
    4
 40
28.575
 49
19.05
 74
    0
 49
-3.175
 74
    0
 49
3.175
 74
    0
 49
-3.175
 74
    0
  0
LTYPE
  5
49
330
5
100
AcDbSymbolTableRecord
100
AcDbLinetypeTableRecord
  2
CENTERX2
 70
    0
  3
Center (2x) ________  __  ________  __  _____
 72
   65
 73
    4
 40
101.6
 49
63.5
 74
    0
 49
-12.7
 74
    0
 49
12.7
 74
    0
 49
-12.7
 74
    0
  0
ENDTAB
  0
TABLE
  2
LAYER
  5
2
330
0
100
AcDbSymbolTable
 70
    1
  0
LAYER
  5
10
330
2
100
AcDbSymbolTableRecord
100
AcDbLayerTableRecord
  2
0
 70
    4
 62
    7
  6
CONTINUOUS
370
   -3
390
F
  0
LAYER
  5
4A
330
2
100
AcDbSymbolTableRecord
100
AcDbLayerTableRecord
  2
01-sheet-border-inner
 70
    4
 62
    7
  6
CONTINUOUS
370
   50
390
F
  0
LAYER
  5
4B
330
2
100
AcDbSymbolTableRecord
100
AcDbLayerTableRecord
  2
01-sheet-border-outer
 70
    4
 62
    7
  6
CONTINUOUS
290
0
370
    0
390
F
  0
LAYER
  5
4C
330
2
100
AcDbSymbolTableRecord
100
AcDbLayerTableRecord
  2
01-sheet-construction
 70
    5
 62
  176
420
  128
  6
CONTINUOUS
290
0
370
   -3
390
F
1001
LibreCad
1070
    1
  0
LAYER
  5
4D
330
2
100
AcDbSymbolTableRecord
100
AcDbLayerTableRecord
  2
02-title-block-construction
 70
    5
 62
  176
420
  128
  6
CONTINUOUS
290
0
370
   -3
390
F
1001
LibreCad
1070
    1
  0
LAYER
  5
4E
330
2
100
AcDbSymbolTableRecord
100
AcDbLayerTableRecord
  2
02-title-block-table
 70
    4
 62
    7
  6
CONTINUOUS
370
   50
390
F
  0
LAYER
  5
4F
330
2
100
AcDbSymbolTableRecord
100
AcDbLayerTableRecord
  2
02-title-block-text
 70
    4
 62
    7
  6
CONTINUOUS
370
    9
390
F
  0
LAYER
  5
50
330
2
100
AcDbSymbolTableRecord
100
AcDbLayerTableRecord
  2
03-explication-construction
 70
    5
 62
  176
420
  128
  6
CONTINUOUS
290
0
370
    0
390
F
1001
LibreCad
1070
    1
  0
LAYER
  5
51
330
2
100
AcDbSymbolTableRecord
100
AcDbLayerTableRecord
  2
03-explication-table
 70
    4
 62
    7
  6
CONTINUOUS
370
   50
390
F
  0
LAYER
  5
52
330
2
100
AcDbSymbolTableRecord
100
AcDbLayerTableRecord
  2
03-explication-text
 70
    4
 62
    7
  6
CONTINUOUS
370
    9
390
F
  0
LAYER
  5
53
330
2
100
AcDbSymbolTableRecord
100
AcDbLayerTableRecord
  2
04-legend-construction
 70
    5
 62
  176
420
  128
  6
CONTINUOUS
290
0
370
    0
390
F
1001
LibreCad
1070
    1
  0
LAYER
  5
54
330
2
100
AcDbSymbolTableRecord
100
AcDbLayerTableRecord
  2
04-legend-table
 70
    4
 62
    7
  6
CONTINUOUS
370
   50
390
F
  0
LAYER
  5
55
330
2
100
AcDbSymbolTableRecord
100
AcDbLayerTableRecord
  2
04-legend-text
 70
    4
 62
    7
  6
CONTINUOUS
370
    9
390
F
  0
LAYER
  5
56
330
2
100
AcDbSymbolTableRecord
100
AcDbLayerTableRecord
  2
10-notice-border
 70
    4
 62
    7
  6
CONTINUOUS
370
   25
390
F
  0
LAYER
  5
57
330
2
100
AcDbSymbolTableRecord
100
AcDbLayerTableRecord
  2
10-notice-text
 70
    4
 62
    7
  6
CONTINUOUS
370
    9
390
F
  0
LAYER
  5
58
330
2
100
AcDbSymbolTableRecord
100
AcDbLayerTableRecord
  2
axes
 70
    4
 62
    7
  6
CENTERTINY
370
    0
390
F
  0
LAYER
  5
59
330
2
100
AcDbSymbolTableRecord
100
AcDbLayerTableRecord
  2
construction
 70
    5
 62
  176
420
  128
  6
CONTINUOUS
290
0
370
    0
390
F
1001
LibreCad
1070
    1
  0
LAYER
  5
5A
330
2
100
AcDbSymbolTableRecord
100
AcDbLayerTableRecord
  2
construction2
 70
    5
 62
   96
420
32768
  6
CONTINUOUS
290
0
370
    0
390
F
1001
LibreCad
1070
    1
  0
LAYER
  5
5B
330
2
100
AcDbSymbolTableRecord
100
AcDbLayerTableRecord
  2
construction3
 70
    5
 62
    5
  6
CONTINUOUS
290
0
370
    0
390
F
1001
LibreCad
1070
    1
  0
LAYER
  5
5C
330
2
100
AcDbSymbolTableRecord
100
AcDbLayerTableRecord
  2
construction4
 70
    5
 62
    6
  6
CONTINUOUS
290
0
370
    0
390
F
1001
LibreCad
1070
    1
  0
LAYER
  5
5D
330
2
100
AcDbSymbolTableRecord
100
AcDbLayerTableRecord
  2
construction5
 70
    5
 62
    3
  6
CONTINUOUS
290
0
370
    0
390
F
1001
LibreCad
1070
    1
  0
LAYER
  5
5E
330
2
100
AcDbSymbolTableRecord
100
AcDbLayerTableRecord
  2
construction6
 70
    5
 62
    4
  6
CONTINUOUS
290
0
370
    0
390
F
1001
LibreCad
1070
    1
  0
LAYER
  5
5F
330
2
100
AcDbSymbolTableRecord
100
AcDbLayerTableRecord
  2
construction7
 70
    5
 62
    2
  6
CONTINUOUS
370
    0
390
F
1001
LibreCad
1070
    1
  0
LAYER
  5
60
330
2
100
AcDbSymbolTableRecord
100
AcDbLayerTableRecord
  2
door
 70
    4
 62
    7
  6
CONTINUOUS
370
   20
390
F
  0
LAYER
  5
61
330
2
100
AcDbSymbolTableRecord
100
AcDbLayerTableRecord
  2
light
 70
    4
 62
    7
  6
CONTINUOUS
370
    0
390
F
  0
LAYER
  5
62
330
2
100
AcDbSymbolTableRecord
100
AcDbLayerTableRecord
  2
outlet
 70
    4
 62
    7
  6
CONTINUOUS
370
    9
390
F
  0
LAYER
  5
63
330
2
100
AcDbSymbolTableRecord
100
AcDbLayerTableRecord
  2
plasterboard
 70
    4
 62
    7
  6
CONTINUOUS
370
   18
390
F
  0
LAYER
  5
64
330
2
100
AcDbSymbolTableRecord
100
AcDbLayerTableRecord
  2
plasterboard-hatch
 70
    4
 62
    7
  6
CONTINUOUS
370
    0
390
F
  0
LAYER
  5
65
330
2
100
AcDbSymbolTableRecord
100
AcDbLayerTableRecord
  2
plasterboard-hidden
 70
    4
 62
    7
  6
DASHEDTINY
370
   18
390
F
  0
LAYER
  5
66
330
2
100
AcDbSymbolTableRecord
100
AcDbLayerTableRecord
  2
room-num
 70
    4
 62
    7
  6
CONTINUOUS
370
    9
390
F
  0
LAYER
  5
67
330
2
100
AcDbSymbolTableRecord
100
AcDbLayerTableRecord
  2
thing
 70
    4
 62
    7
  6
CONTINUOUS
370
    9
390
F
  0
LAYER
  5
68
330
2
100
AcDbSymbolTableRecord
100
AcDbLayerTableRecord
  2
thing-hidden
 70
    4
 62
    7
  6
DASHEDTINY
370
   13
390
F
  0
LAYER
  5
69
330
2
100
AcDbSymbolTableRecord
100
AcDbLayerTableRecord
  2
thing-hidden1
 70
    4
 62
    7
  6
DASHEDTINY
290
0
370
    0
390
F
  0
LAYER
  5
6A
330
2
100
AcDbSymbolTableRecord
100
AcDbLayerTableRecord
  2
wall
 70
    4
 62
    7
  6
CONTINUOUS
370
   35
390
F
  0
LAYER
  5
6B
330
2
100
AcDbSymbolTableRecord
100
AcDbLayerTableRecord
  2
wall-hatch
 70
    4
 62
    7
  6
CONTINUOUS
370
    0
390
F
  0
LAYER
  5
6C
330
2
100
AcDbSymbolTableRecord
100
AcDbLayerTableRecord
  2
wall-hidden
 70
    4
 62
    7
  6
DASHEDTINY
370
   25
390
F
  0
LAYER
  5
6D
330
2
100
AcDbSymbolTableRecord
100
AcDbLayerTableRecord
  2
window
 70
    4
 62
    7
  6
CONTINUOUS
370
   20
390
F
  0
LAYER
  5
6E
330
2
100
AcDbSymbolTableRecord
100
AcDbLayerTableRecord
  2
wire
 70
    4
 62
    7
  6
DASHDOTTINY
370
    9
390
F
  0
ENDTAB
  0
TABLE
  2
STYLE
  5
3
330
0
100
AcDbSymbolTable
 70
    3
  0
STYLE
  5
6F
330
2
100
AcDbSymbolTableRecord
100
AcDbTextStyleTableRecord
  2
unicode
 70
    0
 40
0
 41
1
 50
0
 71
    0
 42
1
  3
unicode
  4

  0
STYLE
  5
70
330
2
100
AcDbSymbolTableRecord
100
AcDbTextStyleTableRecord
  2
Standard
 70
    0
 40
0
 41
1
 50
0
 71
    0
 42
1
  3
txt
  4

  0
ENDTAB
  0
TABLE
  2
VIEW
  5
6
330
0
100
AcDbSymbolTable
 70
    0
  0
ENDTAB
  0
TABLE
  2
UCS
  5
7
330
0
100
AcDbSymbolTable
 70
    0
  0
ENDTAB
  0
TABLE
  2
APPID
  5
9
330
0
100
AcDbSymbolTable
 70
    1
  0
APPID
  5
12
330
9
100
AcDbSymbolTableRecord
100
AcDbRegAppTableRecord
  2
ACAD
 70
    0
  0
APPID
  5
71
330
9
100
AcDbSymbolTableRecord
100
AcDbRegAppTableRecord
  2
LibreCad
 70
    0
  0
ENDTAB
  0
TABLE
  2
DIMSTYLE
  5
A
330
0
100
AcDbSymbolTable
 70
    1
100
AcDbDimStyleTable
 71
    1
  0
DIMSTYLE
105
72
330
A
100
AcDbSymbolTableRecord
100
AcDbDimStyleTableRecord
  2
Standard
 70
    0
 40
50
 41
2.5
 42
0.625
 43
0.38
 44
0.125
 45
0
 46
0
 47
0
 48
0
 49
1
140
1.8
141
0.09
142
1.5
143
25.4
144
1
145
0
146
1
147
0.625
148
0
 71
    0
 72
    0
 73
    0
 74
    1
 75
    0
 76
    0
 77
    0
 78
    1
 79
    0
170
    0
171
    2
172
    0
173
    0
174
    0
175
    0
176
    0
177
    0
178
    0
179
    0
271
    0
272
    4
273
    2
274
    2
275
    0
276
    0
277
    2
278
    0
279
    0
280
    0
281
    0
282
    0
283
    1
284
    0
285
    0
286
    0
288
    0
289
    3
340
standard
341

371
   -2
372
   -2
  0
ENDTAB
  0
TABLE
  2
BLOCK_RECORD
  5
1
330
0
100
AcDbSymbolTable
 70
    2
  0
BLOCK_RECORD
  5
1F
330
1
100
AcDbSymbolTableRecord
100
AcDbBlockTableRecord
  2
*Model_Space
 70
    0
280
    1
281
    0
  0
BLOCK_RECORD
  5
1E
330
1
100
AcDbSymbolTableRecord
100
AcDbBlockTableRecord
  2
*Paper_Space
 70
    0
280
    1
281
    0
  0
BLOCK_RECORD
  5
73
330
1
100
AcDbSymbolTableRecord
100
AcDbBlockTableRecord
  2
lamp1
 70
    0
280
    1
281
    0
  0
BLOCK_RECORD
  5
76
330
1
100
AcDbSymbolTableRecord
100
AcDbBlockTableRecord
  2
elk7
 70
    0
280
    1
281
    0
  0
BLOCK_RECORD
  5
79
330
1
100
AcDbSymbolTableRecord
100
AcDbBlockTableRecord
  2
elk6
 70
    0
280
    1
281
    0
  0
BLOCK_RECORD
  5
7C
330
1
100
AcDbSymbolTableRecord
100
AcDbBlockTableRecord
  2
my-switch-2-pass
 70
    0
280
    1
281
    0
  0
BLOCK_RECORD
  5
7F
330
1
100
AcDbSymbolTableRecord
100
AcDbBlockTableRecord
  2
my-switch-2
 70
    0
280
    1
281
    0
  0
BLOCK_RECORD
  5
82
330
1
100
AcDbSymbolTableRecord
100
AcDbBlockTableRecord
  2
my-switch-1
 70
    0
280
    1
281
    0
  0
BLOCK_RECORD
  5
85
330
1
100
AcDbSymbolTableRecord
100
AcDbBlockTableRecord
  2
my-free-wire
 70
    0
280
    1
281
    0
  0
BLOCK_RECORD
  5
88
330
1
100
AcDbSymbolTableRecord
100
AcDbBlockTableRecord
  2
explication-1-800-2
 70
    0
280
    1
281
    0
  0
BLOCK_RECORD
  5
8B
330
1
100
AcDbSymbolTableRecord
100
AcDbBlockTableRecord
  2
template-notice-1
 70
    0
280
    1
281
    0
  0
BLOCK_RECORD
  5
8E
330
1
100
AcDbSymbolTableRecord
100
AcDbBlockTableRecord
  2
legend-wire
 70
    0
280
    1
281
    0
  0
BLOCK_RECORD
  5
91
330
1
100
AcDbSymbolTableRecord
100
AcDbBlockTableRecord
  2
sheet-A3-border
 70
    0
280
    1
281
    0
  0
ENDTAB
  0
ENDSEC
  0
SECTION
  2
BLOCKS
  0
BLOCK
  5
20
330
1F
100
AcDbEntity
  8
0
100
AcDbBlockBegin
  2
*Model_Space
 70
    0
 10
0
 20
0
 30
0
  3
*Model_Space
  1

  0
ENDBLK
  5
21
330
1F
100
AcDbEntity
  8
0
100
AcDbBlockEnd
  0
BLOCK
  5
1C
330
1B
100
AcDbEntity
  8
0
100
AcDbBlockBegin
  2
*Paper_Space
 70
    0
 10
0
 20
0
 30
0
  3
*Paper_Space
  1

  0
ENDBLK
  5
1D
330
1F
100
AcDbEntity
  8
0
100
AcDbBlockEnd
  0
BLOCK
  5
74
330
73
100
AcDbEntity
  8
0
100
AcDbBlockBegin
  2
lamp1
 70
    0
 10
0
 20
0
  3
lamp1
  1

  0
LINE
  5
94
100
AcDbEntity
  8
0
  6
CONTINUOUS
 62
    7
370
   18
100
AcDbLine
 10
-2.165064
 20
1.25
 11
2.165064
 21
3.75
  0
LINE
  5
95
100
AcDbEntity
  8
0
  6
CONTINUOUS
 62
    7
370
   18
100
AcDbLine
 10
-2.165064
 20
3.75
 11
2.165064
 21
1.25
  0
CIRCLE
  5
96
100
AcDbEntity
  8
0
  6
CONTINUOUS
 62
    7
370
   18
100
AcDbCircle
 10
0
 20
2.5
 40
2.5
  0
LINE
  5
97
100
AcDbEntity
  8
0
  6
CONTINUOUS
 62
    7
370
   18
100
AcDbLine
 10
0
 20
5
 11
0
 21
0
  0
ENDBLK
  5
75
330
73
100
AcDbEntity
  8
0
100
AcDbBlockEnd
  0
BLOCK
  5
77
330
76
100
AcDbEntity
  8
0
100
AcDbBlockBegin
  2
elk7
 70
    0
 10
0
 20
0
  3
elk7
  1

  0
LINE
  5
98
100
AcDbEntity
  8
0
  6
CONTINUOUS
 62
    7
370
   18
100
AcDbLine
 10
0
 20
0
 11
4
 21
4
  0
LINE
  5
99
100
AcDbEntity
  8
0
  6
CONTINUOUS
 62
    7
370
   18
100
AcDbLine
 10
4
 20
0
 11
0
 21
0
  0
LINE
  5
9A
100
AcDbEntity
  8
0
  6
CONTINUOUS
 62
    7
370
   18
100
AcDbLine
 10
0
 20
4
 11
4
 21
4
  0
LINE
  5
9B
100
AcDbEntity
  8
0
  6
CONTINUOUS
 62
    7
370
   18
100
AcDbLine
 10
0
 20
0
 11
0
 21
4
  0
LINE
  5
9C
100
AcDbEntity
  8
0
  6
CONTINUOUS
 62
    7
370
   18
100
AcDbLine
 10
4
 20
4
 11
4
 21
0
  0
ENDBLK
  5
78
330
76
100
AcDbEntity
  8
0
100
AcDbBlockEnd
  0
BLOCK
  5
7A
330
79
100
AcDbEntity
  8
0
100
AcDbBlockBegin
  2
elk6
 70
    0
 10
0
 20
0
  3
elk6
  1

  0
LINE
  5
9D
100
AcDbEntity
  8
0
  6
CONTINUOUS
 62
    7
370
   18
100
AcDbLine
 10
0
 20
0
 11
0
 21
4
  0
LINE
  5
9E
100
AcDbEntity
  8
0
  6
CONTINUOUS
 62
    7
370
   18
100
AcDbLine
 10
4
 20
4
 11
4
 21
0
  0
LINE
  5
9F
100
AcDbEntity
  8
0
  6
CONTINUOUS
 62
    7
370
   18
100
AcDbLine
 10
4
 20
0
 11
0
 21
0
  0
LINE
  5
A0
100
AcDbEntity
  8
0
  6
CONTINUOUS
 62
    7
370
   18
100
AcDbLine
 10
0
 20
4
 11
4
 21
4
  0
LINE
  5
A1
100
AcDbEntity
  8
0
  6
CONTINUOUS
 62
    7
370
   18
100
AcDbLine
 10
0
 20
0
 11
4
 21
4
  0
LINE
  5
A2
100
AcDbEntity
  8
0
  6
CONTINUOUS
 62
    7
370
   18
100
AcDbLine
 10
0.108121
 20
0
 11
4
 21
3.891879
  0
LINE
  5
A3
100
AcDbEntity
  8
0
  6
CONTINUOUS
 62
    7
370
   18
100
AcDbLine
 10
0.249542
 20
0
 11
4
 21
3.750458
  0
LINE
  5
A4
100
AcDbEntity
  8
0
  6
CONTINUOUS
 62
    7
370
   18
100
AcDbLine
 10
0.390964
 20
0
 11
4
 21
3.609036
  0
LINE
  5
A5
100
AcDbEntity
  8
0
  6
CONTINUOUS
 62
    7
370
   18
100
AcDbLine
 10
0.532385
 20
0
 11
4
 21
3.467615
  0
LINE
  5
A6
100
AcDbEntity
  8
0
  6
CONTINUOUS
 62
    7
370
   18
100
AcDbLine
 10
0.673807
 20
0
 11
4
 21
3.326193
  0
LINE
  5
A7
100
AcDbEntity
  8
0
  6
CONTINUOUS
 62
    7
370
   18
100
AcDbLine
 10
0.815228
 20
0
 11
4
 21
3.184772
  0
LINE
  5
A8
100
AcDbEntity
  8
0
  6
CONTINUOUS
 62
    7
370
   18
100
AcDbLine
 10
0.956649
 20
0
 11
4
 21
3.043351
  0
LINE
  5
A9
100
AcDbEntity
  8
0
  6
CONTINUOUS
 62
    7
370
   18
100
AcDbLine
 10
1.098071
 20
0
 11
4
 21
2.901929
  0
LINE
  5
AA
100
AcDbEntity
  8
0
  6
CONTINUOUS
 62
    7
370
   18
100
AcDbLine
 10
1.239492
 20
0
 11
4
 21
2.760508
  0
LINE
  5
AB
100
AcDbEntity
  8
0
  6
CONTINUOUS
 62
    7
370
   18
100
AcDbLine
 10
1.380913
 20
0
 11
4
 21
2.619087
  0
LINE
  5
AC
100
AcDbEntity
  8
0
  6
CONTINUOUS
 62
    7
370
   18
100
AcDbLine
 10
1.522335
 20
0
 11
4
 21
2.477665
  0
LINE
  5
AD
100
AcDbEntity
  8
0
  6
CONTINUOUS
 62
    7
370
   18
100
AcDbLine
 10
1.663756
 20
0
 11
4
 21
2.336244
  0
LINE
  5
AE
100
AcDbEntity
  8
0
  6
CONTINUOUS
 62
    7
370
   18
100
AcDbLine
 10
1.805177
 20
0
 11
4
 21
2.194823
  0
LINE
  5
AF
100
AcDbEntity
  8
0
  6
CONTINUOUS
 62
    7
370
   18
100
AcDbLine
 10
1.946599
 20
0
 11
4
 21
2.053401
  0
LINE
  5
B0
100
AcDbEntity
  8
0
  6
CONTINUOUS
 62
    7
370
   18
100
AcDbLine
 10
2.08802
 20
0
 11
4
 21
1.91198
  0
LINE
  5
B1
100
AcDbEntity
  8
0
  6
CONTINUOUS
 62
    7
370
   18
100
AcDbLine
 10
2.229441
 20
0
 11
4
 21
1.770559
  0
LINE
  5
B2
100
AcDbEntity
  8
0
  6
CONTINUOUS
 62
    7
370
   18
100
AcDbLine
 10
2.370863
 20
0
 11
4
 21
1.629137
  0
LINE
  5
B3
100
AcDbEntity
  8
0
  6
CONTINUOUS
 62
    7
370
   18
100
AcDbLine
 10
2.512284
 20
0
 11
4
 21
1.487716
  0
LINE
  5
B4
100
AcDbEntity
  8
0
  6
CONTINUOUS
 62
    7
370
   18
100
AcDbLine
 10
2.653706
 20
0
 11
4
 21
1.346294
  0
LINE
  5
B5
100
AcDbEntity
  8
0
  6
CONTINUOUS
 62
    7
370
   18
100
AcDbLine
 10
2.795127
 20
0
 11
4
 21
1.204873
  0
LINE
  5
B6
100
AcDbEntity
  8
0
  6
CONTINUOUS
 62
    7
370
   18
100
AcDbLine
 10
2.936548
 20
0
 11
4
 21
1.063452
  0
LINE
  5
B7
100
AcDbEntity
  8
0
  6
CONTINUOUS
 62
    7
370
   18
100
AcDbLine
 10
3.07797
 20
0
 11
4
 21
0.92203
  0
LINE
  5
B8
100
AcDbEntity
  8
0
  6
CONTINUOUS
 62
    7
370
   18
100
AcDbLine
 10
3.219391
 20
0
 11
4
 21
0.780609
  0
LINE
  5
B9
100
AcDbEntity
  8
0
  6
CONTINUOUS
 62
    7
370
   18
100
AcDbLine
 10
3.360812
 20
0
 11
4
 21
0.639188
  0
LINE
  5
BA
100
AcDbEntity
  8
0
  6
CONTINUOUS
 62
    7
370
   18
100
AcDbLine
 10
3.502234
 20
0
 11
4
 21
0.497766
  0
LINE
  5
BB
100
AcDbEntity
  8
0
  6
CONTINUOUS
 62
    7
370
   18
100
AcDbLine
 10
3.643655
 20
0
 11
4
 21
0.356345
  0
LINE
  5
BC
100
AcDbEntity
  8
0
  6
CONTINUOUS
 62
    7
370
   18
100
AcDbLine
 10
3.785076
 20
0
 11
4
 21
0.214924
  0
LINE
  5
BD
100
AcDbEntity
  8
0
  6
CONTINUOUS
 62
    7
370
   18
100
AcDbLine
 10
3.926498
 20
0
 11
4
 21
0.073502
  0
ENDBLK
  5
7B
330
79
100
AcDbEntity
  8
0
100
AcDbBlockEnd
  0
BLOCK
  5
7D
330
7C
100
AcDbEntity
  8
0
100
AcDbBlockBegin
  2
my-switch-2-pass
 70
    0
 10
0
 20
0
  3
my-switch-2-pass
  1

  0
LWPOLYLINE
  5
BE
100
AcDbEntity
  8
0
  6
ByLayer
 62
  256
370
   -1
100
AcDbPolyline
 90
    4
 70
    1
 43
0
 10
0
 20
0
 10
5
 20
0
 10
5
 20
5
 10
0
 20
5
  0
LWPOLYLINE
  5
BF
100
AcDbEntity
  8
0
  6
ByLayer
 62
  256
370
   -1
100
AcDbPolyline
 90
    8
 70
    1
 43
0
 10
1.3
 20
4
 10
3.7
 20
4.000000000000001
 42
-0.414213562373095
 10
4
 20
3.700000000000001
 10
4
 20
1.300000000000001
 42
-0.4142135623730955
 10
3.7
 20
0.9999999999999998
 10
1.3
 20
0.9999999999999999
 42
-0.4142135623730954
 10
0.9999999999999999
 20
1.3
 10
0.9999999999999998
 20
3.7
 42
-0.4142135623730954
  0
LINE
  5
C0
100
AcDbEntity
  8
0
  6
ByLayer
 62
  256
370
   -1
100
AcDbLine
 10
2.5
 20
4
 11
2.5
 21
1
  0
LINE
  5
C1
100
AcDbEntity
  8
0
  6
ByLayer
 62
  256
370
   -1
100
AcDbLine
 10
5
 20
5
 11
6
 21
6
  0
LINE
  5
C2
100
AcDbEntity
  8
0
  6
ByLayer
 62
  256
370
   -1
100
AcDbLine
 10
6
 20
6
 11
6
 21
5.5
  0
LINE
  5
C3
100
AcDbEntity
  8
0
  6
ByLayer
 62
  256
370
   -1
100
AcDbLine
 10
6
 20
6
 11
5.5
 21
6
  0
ENDBLK
  5
7E
330
7C
100
AcDbEntity
  8
0
100
AcDbBlockEnd
  0
BLOCK
  5
80
330
7F
100
AcDbEntity
  8
0
100
AcDbBlockBegin
  2
my-switch-2
 70
    0
 10
0
 20
0
  3
my-switch-2
  1

  0
LWPOLYLINE
  5
C4
100
AcDbEntity
  8
0
  6
ByLayer
 62
  256
370
   -1
100
AcDbPolyline
 90
    4
 70
    1
 43
0
 10
0
 20
0
 10
5
 20
0
 10
5
 20
5
 10
0
 20
5
  0
LWPOLYLINE
  5
C5
100
AcDbEntity
  8
0
  6
ByLayer
 62
  256
370
   -1
100
AcDbPolyline
 90
    8
 70
    1
 43
0
 10
1.3
 20
4
 10
3.7
 20
4.000000000000001
 42
-0.414213562373095
 10
4
 20
3.700000000000001
 10
4
 20
1.300000000000001
 42
-0.4142135623730955
 10
3.7
 20
0.9999999999999998
 10
1.3
 20
0.9999999999999999
 42
-0.4142135623730954
 10
0.9999999999999999
 20
1.3
 10
0.9999999999999998
 20
3.7
 42
-0.4142135623730954
  0
LINE
  5
C6
100
AcDbEntity
  8
0
  6
ByLayer
 62
  256
370
   -1
100
AcDbLine
 10
2.5
 20
4
 11
2.5
 21
1
  0
ENDBLK
  5
81
330
7F
100
AcDbEntity
  8
0
100
AcDbBlockEnd
  0
BLOCK
  5
83
330
82
100
AcDbEntity
  8
0
100
AcDbBlockBegin
  2
my-switch-1
 70
    0
 10
0
 20
0
  3
my-switch-1
  1

  0
LWPOLYLINE
  5
C7
100
AcDbEntity
  8
outlet
  6
ByLayer
 62
  256
370
   -1
100
AcDbPolyline
 90
    4
 70
    1
 43
0
 10
0
 20
0
 10
5
 20
0
 10
5
 20
5
 10
0
 20
5
  0
LWPOLYLINE
  5
C8
100
AcDbEntity
  8
outlet
  6
ByLayer
 62
  256
370
   -1
100
AcDbPolyline
 90
    8
 70
    1
 43
0
 10
1.3
 20
4
 10
3.7
 20
4.000000000000001
 42
-0.414213562373095
 10
4
 20
3.700000000000001
 10
4
 20
1.300000000000001
 42
-0.4142135623730955
 10
3.7
 20
0.9999999999999998
 10
1.3
 20
0.9999999999999999
 42
-0.4142135623730954
 10
0.9999999999999999
 20
1.3
 10
0.9999999999999998
 20
3.7
 42
-0.4142135623730954
  0
ENDBLK
  5
84
330
82
100
AcDbEntity
  8
0
100
AcDbBlockEnd
  0
BLOCK
  5
86
330
85
100
AcDbEntity
  8
0
100
AcDbBlockBegin
  2
my-free-wire
 70
    0
 10
0
 20
0
  3
my-free-wire
  1

  0
LINE
  5
C9
100
AcDbEntity
  8
0
  6
ByLayer
 62
  256
370
   -1
100
AcDbLine
 10
5
 20
5
 11
0
 21
0
  0
LINE
  5
CA
100
AcDbEntity
  8
0
  6
ByLayer
 62
  256
370
   -1
100
AcDbLine
 10
5
 20
5
 11
0
 21
5
  0
LINE
  5
CB
100
AcDbEntity
  8
0
  6
ByLayer
 62
  256
370
   -1
100
AcDbLine
 10
0
 20
5
 11
0
 21
0
  0
CIRCLE
  5
CC
100
AcDbEntity
  8
0
  6
ByLayer
 62
  256
370
   -1
100
AcDbCircle
 10
1
 20
4
 40
0.5
  0
LWPOLYLINE
  5
CD
100
AcDbEntity
  8
0
  6
ByLayer
 62
  256
370
   -1
100
AcDbPolyline
 90
    4
 70
    0
 43
0
 10
1
 20
4
 42
-0.414213562373095
 10
2
 20
3
 42
0.414213562373095
 10
3
 20
2
 42
-0.4142135623730949
 10
4
 20
0.9999999999999997
 42
-0.4142135623730949
  0
ENDBLK
  5
87
330
85
100
AcDbEntity
  8
0
100
AcDbBlockEnd
  0
BLOCK
  5
89
330
88
100
AcDbEntity
  8
0
100
AcDbBlockBegin
  2
explication-1-800-2
 70
    0
 10
0
 20
0
  3
explication-1-800-2
  1

  0
LINE
  5
CE
100
AcDbEntity
  8
03-explication-construction
  6
ByLayer
 62
  256
370
   -1
100
AcDbLine
 10
10
 20
-15
 11
10
 21
-30
  0
LINE
  5
CF
100
AcDbEntity
  8
03-explication-construction
  6
ByLayer
 62
  256
370
   -1
100
AcDbLine
 10
80
 20
-30
 11
80
 21
-15
  0
MTEXT
  5
D0
100
AcDbEntity
  8
03-explication-text
  6
ByLayer
 62
  256
370
   -1
100
AcDbMText
 10
47.5
 20
-7.5
 30
0
 40
3
 41
50.08333333333333
 71
    5
 72
    1
  1
Экспликация помещений
  7
unicode
210
0
220
0
230
1
 50
0
 73
    2
 44
1
  0
MTEXT
  5
D1
100
AcDbEntity
  8
03-explication-text
  6
ByLayer
 62
  256
370
   -1
100
AcDbMText
 10
87.5
 20
-22.5
 30
0
 40
3
 41
3.334481356397898
 71
    5
 72
    1
  1
м²
  7
unicode
210
0
220
0
230
1
 50
0
 73
    2
 44
1
  0
MTEXT
  5
D2
100
AcDbEntity
  8
03-explication-text
  6
ByLayer
 62
  256
370
   -1
100
AcDbMText
 10
45.00000000000001
 20
-22.5
 30
0
 40
3
 41
28.66666666666666
 71
    5
 72
    1
  1
Наименование
  7
unicode
210
0
220
0
230
1
 50
0
 73
    2
 44
1
  0
MTEXT
  5
D3
100
AcDbEntity
  8
03-explication-text
  6
ByLayer
 62
  256
370
   -1
100
AcDbMText
 10
5
 20
-22.5
 30
0
 40
3
 41
1.666666666666667
 71
    5
 72
    1
  1
N
  7
unicode
210
0
220
0
230
1
 50
0
 73
    2
 44
1
  0
LWPOLYLINE
  5
D4
100
AcDbEntity
  8
03-explication-table
  6
ByLayer
 62
  256
370
   -1
100
AcDbPolyline
 90
    4
 70
    1
 43
0
 10
0
 20
0
 10
95
 20
0
 10
95
 20
-15
 10
0
 20
-15
  0
LWPOLYLINE
  5
D5
100
AcDbEntity
  8
03-explication-table
  6
ByLayer
 62
  256
370
   -1
100
AcDbPolyline
 90
    4
 70
    1
 43
0
 10
95
 20
-15
 10
0
 20
-15
 10
0
 20
-30
 10
95
 20
-30
  0
LWPOLYLINE
  5
D6
100
AcDbEntity
  8
03-explication-table
  6
ByLayer
 62
  256
370
   -1
100
AcDbPolyline
 90
    4
 70
    1
 43
0
 10
95
 20
-54
 10
0
 20
-54
 10
0
 20
-62
 10
95
 20
-62
  0
LWPOLYLINE
  5
D7
100
AcDbEntity
  8
03-explication-table
  6
ByLayer
 62
  256
370
   -1
100
AcDbPolyline
 90
    4
 70
    1
 43
0
 10
0
 20
-62
 10
95
 20
-62
 10
95
 20
-70
 10
0
 20
-70
  0
LINE
  5
D8
100
AcDbEntity
  8
03-explication-construction
  6
ByLayer
 62
  256
370
   -1
100
AcDbLine
 10
15
 20
-15
 11
15
 21
-94
  0
LINE
  5
D9
100
AcDbEntity
  8
03-explication-construction
  6
ByLayer
 62
  256
370
   -1
100
AcDbLine
 10
5
 20
-15
 11
5
 21
-30
  0
LINE
  5
DA
100
AcDbEntity
  8
03-explication-construction
  6
ByLayer
 62
  256
370
   -1
100
AcDbLine
 10
87.5
 20
-15
 11
87.5
 21
-94
  0
LINE
  5
DB
100
AcDbEntity
  8
03-explication-construction
  6
ByLayer
 62
  256
370
   -1
100
AcDbLine
 10
47.5
 20
-15.00000000000001
 11
47.5
 21
-1.163414459189985e-14
  0
LINE
  5
DC
100
AcDbEntity
  8
03-explication-construction
  6
ByLayer
 62
  256
370
   -1
100
AcDbLine
 10
45
 20
-15.00000000000001
 11
45
 21
-94.00000000000001
  0
LINE
  5
DD
100
AcDbEntity
  8
03-explication-construction
  6
ByLayer
 62
  256
370
   -1
100
AcDbLine
 10
95
 20
-15
 11
0
 21
-15
  0
LINE
  5
DE
100
AcDbEntity
  8
03-explication-construction
  6
ByLayer
 62
  256
370
   -1
100
AcDbLine
 10
0
 20
-34
 11
95
 21
-34
  0
LINE
  5
DF
100
AcDbEntity
  8
03-explication-construction
  6
ByLayer
 62
  256
370
   -1
100
AcDbLine
 10
0
 20
-42
 11
95
 21
-42
  0
LINE
  5
E0
100
AcDbEntity
  8
03-explication-construction
  6
ByLayer
 62
  256
370
   -1
100
AcDbLine
 10
0
 20
-50
 11
95
 21
-50
  0
LINE
  5
E1
100
AcDbEntity
  8
03-explication-construction
  6
ByLayer
 62
  256
370
   -1
100
AcDbLine
 10
0
 20
-58
 11
95
 21
-58
  0
LINE
  5
E2
100
AcDbEntity
  8
03-explication-construction
  6
ByLayer
 62
  256
370
   -1
100
AcDbLine
 10
0
 20
-66
 11
95
 21
-66
  0
LINE
  5
E3
100
AcDbEntity
  8
03-explication-construction
  6
ByLayer
 62
  256
370
   -1
100
AcDbLine
 10
0
 20
-74
 11
95
 21
-74
  0
LINE
  5
E4
100
AcDbEntity
  8
03-explication-construction
  6
ByLayer
 62
  256
370
   -1
100
AcDbLine
 10
0
 20
-82
 11
95
 21
-82
  0
LINE
  5
E5
100
AcDbEntity
  8
03-explication-construction
  6
ByLayer
 62
  256
370
   -1
100
AcDbLine
 10
0
 20
-90
 11
95
 21
-90
  0
LINE
  5
E6
100
AcDbEntity
  8
03-explication-construction
  6
ByLayer
 62
  256
370
   -1
100
AcDbLine
 10
95
 20
-22.5
 11
-1.377727649040772e-15
 21
-22.5
  0
LINE
  5
E7
100
AcDbEntity
  8
03-explication-construction
  6
ByLayer
 62
  256
370
   -1
100
AcDbLine
 10
-1.377727649040772e-15
 20
-7.5
 11
95
 21
-7.5
  0
LINE
  5
E8
100
AcDbEntity
  8
03-explication-table
  6
ByLayer
 62
  256
370
   -1
100
AcDbLine
 10
10
 20
-15
 11
10
 21
-30
  0
LINE
  5
E9
100
AcDbEntity
  8
03-explication-table
  6
ByLayer
 62
  256
370
   -1
100
AcDbLine
 10
10
 20
-30
 11
10
 21
-38
  0
LINE
  5
EA
100
AcDbEntity
  8
03-explication-table
  6
ByLayer
 62
  256
370
   -1
100
AcDbLine
 10
10
 20
-38
 11
10
 21
-46
  0
LINE
  5
EB
100
AcDbEntity
  8
03-explication-table
  6
ByLayer
 62
  256
370
   -1
100
AcDbLine
 10
10
 20
-46
 11
10
 21
-54
  0
LINE
  5
EC
100
AcDbEntity
  8
03-explication-table
  6
ByLayer
 62
  256
370
   -1
100
AcDbLine
 10
10
 20
-54
 11
10
 21
-62
  0
LINE
  5
ED
100
AcDbEntity
  8
03-explication-table
  6
ByLayer
 62
  256
370
   -1
100
AcDbLine
 10
10
 20
-62
 11
10
 21
-70
  0
LINE
  5
EE
100
AcDbEntity
  8
03-explication-table
  6
ByLayer
 62
  256
370
   -1
100
AcDbLine
 10
80
 20
-62
 11
80
 21
-70
  0
LINE
  5
EF
100
AcDbEntity
  8
03-explication-table
  6
ByLayer
 62
  256
370
   -1
100
AcDbLine
 10
80
 20
-54
 11
80
 21
-62
  0
LINE
  5
F0
100
AcDbEntity
  8
03-explication-table
  6
ByLayer
 62
  256
370
   -1
100
AcDbLine
 10
80
 20
-46
 11
80
 21
-54
  0
LINE
  5
F1
100
AcDbEntity
  8
03-explication-table
  6
ByLayer
 62
  256
370
   -1
100
AcDbLine
 10
80
 20
-38
 11
80
 21
-46
  0
LINE
  5
F2
100
AcDbEntity
  8
03-explication-table
  6
ByLayer
 62
  256
370
   -1
100
AcDbLine
 10
80
 20
-15
 11
80
 21
-30
  0
LINE
  5
F3
100
AcDbEntity
  8
03-explication-table
  6
ByLayer
 62
  256
370
   -1
100
AcDbLine
 10
80
 20
-30
 11
80
 21
-38
  0
MTEXT
  5
F4
100
AcDbEntity
  8
03-explication-text
  6
ByLayer
 62
  256
370
   -1
100
AcDbMText
 10
15
 20
-66
 30
0
 40
3
 41
15.83333333333333
 71
    4
 72
    1
  1
Санузел
  7
unicode
210
0
220
0
230
1
 50
0
 73
    2
 44
1
  0
MTEXT
  5
F5
100
AcDbEntity
  8
03-explication-text
  6
ByLayer
 62
  256
370
   -1
100
AcDbMText
 10
15
 20
-58
 30
0
 40
3
 41
26
 71
    4
 72
    1
  1
Гардеробная
  7
unicode
210
0
220
0
230
1
 50
0
 73
    2
 44
1
  0
MTEXT
  5
F6
100
AcDbEntity
  8
03-explication-text
  6
ByLayer
 62
  256
370
   -1
100
AcDbMText
 10
5
 20
-34
 30
0
 40
3
 41
5.333333333333333
 71
    5
 72
    1
  1
801
  7
unicode
210
0
220
0
230
1
 50
0
 73
    2
 44
1
  0
MTEXT
  5
F7
100
AcDbEntity
  8
03-explication-text
  6
ByLayer
 62
  256
370
   -1
100
AcDbMText
 10
5
 20
-42
 30
0
 40
3
 41
6
 71
    5
 72
    1
  1
802
  7
unicode
210
0
220
0
230
1
 50
0
 73
    2
 44
1
  0
MTEXT
  5
F8
100
AcDbEntity
  8
03-explication-text
  6
ByLayer
 62
  256
370
   -1
100
AcDbMText
 10
5
 20
-50
 30
0
 40
3
 41
6
 71
    5
 72
    1
  1
803
  7
unicode
210
0
220
0
230
1
 50
0
 73
    2
 44
1
  0
MTEXT
  5
F9
100
AcDbEntity
  8
03-explication-text
  6
ByLayer
 62
  256
370
   -1
100
AcDbMText
 10
5
 20
-58
 30
0
 40
3
 41
6.333333333333333
 71
    5
 72
    1
  1
804
  7
unicode
210
0
220
0
230
1
 50
0
 73
    2
 44
1
  0
MTEXT
  5
FA
100
AcDbEntity
  8
03-explication-text
  6
ByLayer
 62
  256
370
   -1
100
AcDbMText
 10
5
 20
-66
 30
0
 40
3
 41
6
 71
    5
 72
    1
  1
805
  7
unicode
210
0
220
0
230
1
 50
0
 73
    2
 44
1
  0
MTEXT
  5
FB
100
AcDbEntity
  8
03-explication-text
  6
ByLayer
 62
  256
370
   -1
100
AcDbMText
 10
87.5
 20
-58
 30
0
 40
3
 41
4.833333333333334
 71
    5
 72
    1
  1
2,3
  7
unicode
210
0
220
0
230
1
 50
0
 73
    2
 44
1
  0
MTEXT
  5
FC
100
AcDbEntity
  8
03-explication-text
  6
ByLayer
 62
  256
370
   -1
100
AcDbMText
 10
87.5
 20
-66
 30
0
 40
3
 41
4.5
 71
    5
 72
    1
  1
4,1
  7
unicode
210
0
220
0
230
1
 50
0
 73
    2
 44
1
  0
LWPOLYLINE
  5
FD
100
AcDbEntity
  8
03-explication-table
  6
ByLayer
 62
  256
370
   -1
100
AcDbPolyline
 90
    4
 70
    1
 43
0
 10
0
 20
-46
 10
80
 20
-46
 10
80
 20
-54
 10
0
 20
-54
  0
LWPOLYLINE
  5
FE
100
AcDbEntity
  8
03-explication-table
  6
ByLayer
 62
  256
370
   -1
100
AcDbPolyline
 90
    4
 70
    1
 43
0
 10
0
 20
-30
 10
80
 20
-30
 10
80
 20
-38
 10
0
 20
-38
  0
LWPOLYLINE
  5
FF
100
AcDbEntity
  8
03-explication-table
  6
ByLayer
 62
  256
370
   -1
100
AcDbPolyline
 90
    4
 70
    1
 43
0
 10
80
 20
-38
 10
0
 20
-38
 10
0
 20
-46
 10
80
 20
-46
  0
LWPOLYLINE
  5
100
100
AcDbEntity
  8
03-explication-table
  6
ByLayer
 62
  256
370
   -1
100
AcDbPolyline
 90
    4
 70
    1
 43
0
 10
80
 20
-30
 10
95
 20
-30
 10
95
 20
-54
 10
80
 20
-54
  0
MTEXT
  5
101
100
AcDbEntity
  8
03-explication-text
  6
ByLayer
 62
  256
370
   -1
100
AcDbMText
 10
15
 20
-34
 30
0
 40
3
 41
19.16666666666666
 71
    4
 72
    1
  1
Прихожая
  7
unicode
210
0
220
0
230
1
 50
0
 73
    2
 44
1
  0
MTEXT
  5
102
100
AcDbEntity
  8
03-explication-text
  6
ByLayer
 62
  256
370
   -1
100
AcDbMText
 10
15
 20
-42
 30
0
 40
3
 41
18.83333333333333
 71
    4
 72
    1
  1
Гостиная
  7
unicode
210
0
220
0
230
1
 50
0
 73
    2
 44
1
  0
MTEXT
  5
103
100
AcDbEntity
  8
03-explication-text
  6
ByLayer
 62
  256
370
   -1
100
AcDbMText
 10
15
 20
-50
 30
0
 40
3
 41
11
 71
    4
 72
    1
  1
Кухня
  7
unicode
210
0
220
0
230
1
 50
0
 73
    2
 44
1
  0
MTEXT
  5
104
100
AcDbEntity
  8
03-explication-text
  6
ByLayer
 62
  256
370
   -1
100
AcDbMText
 10
87.5
 20
-42
 30
0
 40
3
 41
7.5
 71
    5
 72
    1
  1
34,7
  7
unicode
210
0
220
0
230
1
 50
0
 73
    2
 44
1
  0
ENDBLK
  5
8A
330
88
100
AcDbEntity
  8
0
100
AcDbBlockEnd
  0
BLOCK
  5
8C
330
8B
100
AcDbEntity
  8
0
100
AcDbBlockBegin
  2
template-notice-1
 70
    0
 10
0
 20
0
  3
template-notice-1
  1

  0
LWPOLYLINE
  5
105
100
AcDbEntity
  8
10-notice-border
  6
ByLayer
 62
  256
370
   -1
100
AcDbPolyline
 90
    4
 70
    1
 43
0
 10
0
 20
0
 10
2200
 20
0
 10
2200
 20
-700
 10
0
 20
-700
  0
MTEXT
  5
106
100
AcDbEntity
  8
10-notice-text
  6
ByLayer
 62
  256
370
   -1
100
AcDbMText
 10
100
 20
-100
 30
0
 40
60
 41
533.3333333333334
 71
    1
 72
    1
  1
ПРИМЕЧАНИЕ:
  7
unicode
210
0
220
0
230
1
 50
0
 73
    2
 44
1
  0
MTEXT
  5
107
100
AcDbEntity
  8
10-notice-text
  6
ByLayer
 62
  256
370
   -1
100
AcDbMText
 10
100
 20
-300
 30
0
 40
60
 41
1530
 71
    1
 72
    1
  1
Данный лист смотреть совместно с\Pлистами разверток помещений.
  7
unicode
210
0
220
0
230
1
 50
0
 73
    2
 44
1
  0
ENDBLK
  5
8D
330
8B
100
AcDbEntity
  8
0
100
AcDbBlockEnd
  0
BLOCK
  5
8F
330
8E
100
AcDbEntity
  8
0
100
AcDbBlockBegin
  2
legend-wire
 70
    0
 10
0
 20
0
  3
legend-wire
  1

  0
LINE
  5
108
100
AcDbEntity
  8
04-legend-construction
  6
ByLayer
 62
  256
370
   -1
100
AcDbLine
 10
4750
 20
-750
 11
0
 21
-750
  0
LWPOLYLINE
  5
109
100
AcDbEntity
  8
04-legend-table
  6
ByLayer
 62
  256
370
   -1
100
AcDbPolyline
 90
    4
 70
    1
 43
0
 10
0
 20
0
 10
4750
 20
0
 10
4750
 20
-750
 10
0
 20
-750
  0
MTEXT
  5
10A
100
AcDbEntity
  8
04-legend-text
  6
ByLayer
 62
  256
370
   -1
100
AcDbMText
 10
2375
 20
-375
 30
0
 40
150
 41
2320.833333333333
 71
    5
 72
    1
  1
Условные обозначения
  7
unicode
210
0
220
0
230
1
 50
0
 73
    2
 44
1
  0
LINE
  5
10B
100
AcDbEntity
  8
04-legend-construction
  6
ByLayer
 62
  256
370
   -1
100
AcDbLine
 10
1000
 20
-2.664535259100376e-13
 11
1000
 21
-750
  0
LINE
  5
10C
100
AcDbEntity
  8
04-legend-construction
  6
ByLayer
 62
  256
370
   -1
100
AcDbLine
 10
1250
 20
-3.276858658674052e-13
 11
1250
 21
-750.0000000000006
  0
LINE
  5
10D
100
AcDbEntity
  8
04-legend-construction
  6
ByLayer
 62
  256
370
   -1
100
AcDbLine
 10
-3.673940397442059e-14
 20
-2950
 11
4750
 21
-2950
  0
LINE
  5
10E
100
AcDbEntity
  8
04-legend-construction
  6
ByLayer
 62
  256
370
   -1
100
AcDbLine
 10
4750
 20
-3350
 11
-3.673940397442059e-14
 21
-3350
  0
LINE
  5
10F
100
AcDbEntity
  8
04-legend-construction
  6
ByLayer
 62
  256
370
   -1
100
AcDbLine
 10
-3.673940397442059e-14
 20
-3750
 11
4750
 21
-3750
  0
LINE
  5
110
100
AcDbEntity
  8
04-legend-construction
  6
ByLayer
 62
  256
370
   -1
100
AcDbLine
 10
2375
 20
8.725608443924891e-13
 11
2375
 21
-749.999999999999
  0
LINE
  5
111
100
AcDbEntity
  8
04-legend-construction
  6
ByLayer
 62
  256
370
   -1
100
AcDbLine
 10
-6.88863824520386e-14
 20
-375
 11
4750
 21
-375
  0
LWPOLYLINE
  5
112
100
AcDbEntity
  8
04-legend-table
  6
ByLayer
 62
  256
370
   -1
100
AcDbPolyline
 90
    4
 70
    1
 43
0
 10
0
 20
-2350
 10
1000
 20
-2350
 10
1000
 20
-1950
 10
0
 20
-1950
  0
LWPOLYLINE
  5
113
100
AcDbEntity
  8
04-legend-table
  6
ByLayer
 62
  256
370
   -1
100
AcDbPolyline
 90
    4
 70
    1
 43
0
 10
0
 20
-1950
 10
1000
 20
-1950
 10
1000
 20
-1550
 10
0
 20
-1550
  0
LWPOLYLINE
  5
114
100
AcDbEntity
  8
04-legend-table
  6
ByLayer
 62
  256
370
   -1
100
AcDbPolyline
 90
    4
 70
    1
 43
0
 10
0
 20
-1550
 10
1000
 20
-1550
 10
1000
 20
-1150
 10
0
 20
-1150
  0
LWPOLYLINE
  5
115
100
AcDbEntity
  8
04-legend-table
  6
ByLayer
 62
  256
370
   -1
100
AcDbPolyline
 90
    4
 70
    1
 43
0
 10
0
 20
-1150
 10
1000
 20
-1150
 10
1000
 20
-750
 10
0
 20
-750
  0
LINE
  5
116
100
AcDbEntity
  8
04-legend-construction
  6
ByLayer
 62
  256
370
   -1
100
AcDbLine
 10
4750
 20
-950
 11
1000
 21
-950
  0
LINE
  5
117
100
AcDbEntity
  8
04-legend-construction
  6
ByLayer
 62
  256
370
   -1
100
AcDbLine
 10
4750
 20
-1150
 11
1000
 21
-1150
  0
LINE
  5
118
100
AcDbEntity
  8
04-legend-construction
  6
ByLayer
 62
  256
370
   -1
100
AcDbLine
 10
4750
 20
-1350
 11
1000
 21
-1350
  0
LINE
  5
119
100
AcDbEntity
  8
04-legend-construction
  6
ByLayer
 62
  256
370
   -1
100
AcDbLine
 10
4750
 20
-1550
 11
1000
 21
-1550
  0
LINE
  5
11A
100
AcDbEntity
  8
04-legend-construction
  6
ByLayer
 62
  256
370
   -1
100
AcDbLine
 10
4750
 20
-1750
 11
1000
 21
-1750
  0
LINE
  5
11B
100
AcDbEntity
  8
04-legend-construction
  6
ByLayer
 62
  256
370
   -1
100
AcDbLine
 10
4750
 20
-1950
 11
1000
 21
-1950
  0
LINE
  5
11C
100
AcDbEntity
  8
04-legend-construction
  6
ByLayer
 62
  256
370
   -1
100
AcDbLine
 10
4750
 20
-2150
 11
1000
 21
-2150
  0
LINE
  5
11D
100
AcDbEntity
  8
04-legend-construction
  6
ByLayer
 62
  256
370
   -1
100
AcDbLine
 10
4750
 20
-2350
 11
1000
 21
-2350
  0
LINE
  5
11E
100
AcDbEntity
  8
04-legend-construction
  6
ByLayer
 62
  256
370
   -1
100
AcDbLine
 10
4750
 20
-2350
 11
1000
 21
-2350
  0
LINE
  5
11F
100
AcDbEntity
  8
04-legend-construction
  6
ByLayer
 62
  256
370
   -1
100
AcDbLine
 10
4750
 20
-2550
 11
1000
 21
-2550
  0
LINE
  5
120
100
AcDbEntity
  8
04-legend-construction
  6
ByLayer
 62
  256
370
   -1
100
AcDbLine
 10
4750
 20
-2750
 11
1000
 21
-2750
  0
LINE
  5
121
100
AcDbEntity
  8
04-legend-construction
  6
ByLayer
 62
  256
370
   -1
100
AcDbLine
 10
-7.34788079488412e-14
 20
-3150
 11
4750
 21
-3150
  0
LINE
  5
122
100
AcDbEntity
  8
04-legend-construction
  6
ByLayer
 62
  256
370
   -1
100
AcDbLine
 10
4750
 20
-3550
 11
-7.34788079488412e-14
 21
-3550
  0
LINE
  5
123
100
AcDbEntity
  8
04-legend-construction
  6
ByLayer
 62
  256
370
   -1
100
AcDbLine
 10
-7.34788079488412e-14
 20
-3950
 11
4750
 21
-3950
  0
LINE
  5
124
100
AcDbEntity
  8
04-legend-construction
  6
ByLayer
 62
  256
370
   -1
100
AcDbLine
 10
500
 20
-750
 11
500
 21
-1.224646799147354e-13
  0
LINE
  5
125
100
AcDbEntity
  8
04-legend-construction
  6
ByLayer
 62
  256
370
   -1
100
AcDbLine
 10
4000
 20
2.755455298081544e-13
 11
4000
 21
-749.9999999999994
  0
LINE
  5
126
100
AcDbEntity
  8
04-legend-construction
  6
ByLayer
 62
  256
370
   -1
100
AcDbLine
 10
4375
 20
1.377727649040772e-13
 11
4375
 21
-750
  0
LWPOLYLINE
  5
127
100
AcDbEntity
  8
04-legend-table
  6
ByLayer
 62
  256
370
   -1
100
AcDbPolyline
 90
    4
 70
    1
 43
0
 10
1000
 20
-750
 10
4000
 20
-750
 10
4000
 20
-1150
 10
1000
 20
-1150
  0
LWPOLYLINE
  5
128
100
AcDbEntity
  8
04-legend-table
  6
ByLayer
 62
  256
370
   -1
100
AcDbPolyline
 90
    4
 70
    1
 43
0
 10
4000
 20
-750
 10
4750
 20
-750
 10
4750
 20
-1150
 10
4000
 20
-1150
  0
LWPOLYLINE
  5
129
100
AcDbEntity
  8
04-legend-table
  6
ByLayer
 62
  256
370
   -1
100
AcDbPolyline
 90
    4
 70
    1
 43
0
 10
1000
 20
-1150
 10
4000
 20
-1150
 10
4000
 20
-1550
 10
1000
 20
-1550
  0
LWPOLYLINE
  5
12A
100
AcDbEntity
  8
04-legend-table
  6
ByLayer
 62
  256
370
   -1
100
AcDbPolyline
 90
    4
 70
    1
 43
0
 10
4000
 20
-1150
 10
4750
 20
-1150
 10
4750
 20
-1550
 10
4000
 20
-1550
  0
LWPOLYLINE
  5
12B
100
AcDbEntity
  8
04-legend-table
  6
ByLayer
 62
  256
370
   -1
100
AcDbPolyline
 90
    4
 70
    1
 43
0
 10
1000
 20
-1550
 10
4000
 20
-1550
 10
4000
 20
-1950
 10
1000
 20
-1950
  0
LWPOLYLINE
  5
12C
100
AcDbEntity
  8
04-legend-table
  6
ByLayer
 62
  256
370
   -1
100
AcDbPolyline
 90
    4
 70
    1
 43
0
 10
4000
 20
-1550
 10
4750
 20
-1550
 10
4750
 20
-1950
 10
4000
 20
-1950
  0
LWPOLYLINE
  5
12D
100
AcDbEntity
  8
04-legend-table
  6
ByLayer
 62
  256
370
   -1
100
AcDbPolyline
 90
    4
 70
    1
 43
0
 10
1000
 20
-1950
 10
4000
 20
-1950
 10
4000
 20
-2350
 10
1000
 20
-2350
  0
LWPOLYLINE
  5
12E
100
AcDbEntity
  8
04-legend-table
  6
ByLayer
 62
  256
370
   -1
100
AcDbPolyline
 90
    4
 70
    1
 43
0
 10
4000
 20
-1950
 10
4750
 20
-1950
 10
4750
 20
-2350
 10
4000
 20
-2350
  0
LINE
  5
12F
100
AcDbEntity
  8
04-legend-construction
  6
ByLayer
 62
  256
370
   -1
100
AcDbLine
 10
2500
 20
-1150
 11
2500
 21
-750
  0
MTEXT
  5
130
100
AcDbEntity
  8
04-legend-text
  6
ByLayer
 62
  256
370
   -1
100
AcDbMText
 10
2500
 20
-950
 30
0
 40
150
 41
1433.333333333333
 71
    5
 72
    1
  1
Наименование
  7
unicode
210
0
220
0
230
1
 50
0
 73
    2
 44
1
  0
MTEXT
  5
131
100
AcDbEntity
  8
04-legend-text
  6
ByLayer
 62
  256
370
   -1
100
AcDbMText
 10
4375
 20
-950
 30
0
 40
150
 41
650
 71
    5
 72
    1
  1
кол-во
  7
unicode
210
0
220
0
230
1
 50
0
 73
    2
 44
1
  0
MTEXT
  5
132
100
AcDbEntity
  8
04-legend-text
  6
ByLayer
 62
  256
370
   -1
100
AcDbMText
 10
1250
 20
-1350
 30
0
 40
150
 41
716.666666666667
 71
    4
 72
    1
  1
Люстра
  7
unicode
210
0
220
0
230
1
 50
0
 73
    2
 44
1
  0
MTEXT
  5
133
100
AcDbEntity
  8
04-legend-text
  6
ByLayer
 62
  256
370
   -1
100
AcDbMText
 10
4375
 20
-1350
 30
0
 40
150
 41
66.66666666666667
 71
    5
 72
    1
  1
3
  7
unicode
210
0
220
0
230
1
 50
0
 73
    2
 44
1
  0
MTEXT
  5
134
100
AcDbEntity
  8
04-legend-text
  6
ByLayer
 62
  256
370
   -1
100
AcDbMText
 10
4375
 20
-5750
 30
0
 40
150
 41
0
 71
    5
 72
    1
  1

  7
unicode
210
0
220
0
230
1
 50
0
 73
    2
 44
1
  0
MTEXT
  5
135
100
AcDbEntity
  8
04-legend-text
  6
ByLayer
 62
  256
370
   -1
100
AcDbMText
 10
1250
 20
-1750
 30
0
 40
150
 41
1879.166666666667
 71
    4
 72
    1
  1
Светильник Тип-3
  7
unicode
210
0
220
0
230
1
 50
0
 73
    2
 44
1
  0
MTEXT
  5
136
100
AcDbEntity
  8
04-legend-text
  6
ByLayer
 62
  256
370
   -1
100
AcDbMText
 10
4375
 20
-1750
 30
0
 40
150
 41
200
 71
    5
 72
    1
  1
34
  7
unicode
210
0
220
0
230
1
 50
0
 73
    2
 44
1
  0
MTEXT
  5
137
100
AcDbEntity
  8
04-legend-text
  6
ByLayer
 62
  256
370
   -1
100
AcDbMText
 10
1250
 20
-2150
 30
0
 40
150
 41
1895.833333333333
 71
    4
 72
    1
  1
Светильник Тип-4
  7
unicode
210
0
220
0
230
1
 50
0
 73
    2
 44
1
  0
MTEXT
  5
138
100
AcDbEntity
  8
04-legend-text
  6
ByLayer
 62
  256
370
   -1
100
AcDbMText
 10
4375
 20
-2150
 30
0
 40
150
 41
66.66666666666667
 71
    5
 72
    1
  1
2
  7
unicode
210
0
220
0
230
1
 50
0
 73
    2
 44
1
  0
LWPOLYLINE
  5
139
100
AcDbEntity
  8
04-legend-table
  6
ByLayer
 62
  256
370
   -1
100
AcDbPolyline
 90
    4
 70
    1
 43
0
 10
0
 20
-3150
 10
1000
 20
-3150
 10
1000
 20
-2750
 10
0
 20
-2750
  0
LWPOLYLINE
  5
13A
100
AcDbEntity
  8
04-legend-table
  6
ByLayer
 62
  256
370
   -1
100
AcDbPolyline
 90
    4
 70
    1
 43
0
 10
0
 20
-2750
 10
1000
 20
-2750
 10
1000
 20
-2350
 10
0
 20
-2350
  0
LWPOLYLINE
  5
13B
100
AcDbEntity
  8
04-legend-table
  6
ByLayer
 62
  256
370
   -1
100
AcDbPolyline
 90
    4
 70
    1
 43
0
 10
1000
 20
-2350
 10
4000
 20
-2350
 10
4000
 20
-2750
 10
1000
 20
-2750
  0
LWPOLYLINE
  5
13C
100
AcDbEntity
  8
04-legend-table
  6
ByLayer
 62
  256
370
   -1
100
AcDbPolyline
 90
    4
 70
    1
 43
0
 10
4000
 20
-2350
 10
4750
 20
-2350
 10
4750
 20
-2750
 10
4000
 20
-2750
  0
LWPOLYLINE
  5
13D
100
AcDbEntity
  8
04-legend-table
  6
ByLayer
 62
  256
370
   -1
100
AcDbPolyline
 90
    4
 70
    1
 43
0
 10
1000
 20
-2750
 10
4000
 20
-2750
 10
4000
 20
-3150
 10
1000
 20
-3150
  0
LWPOLYLINE
  5
13E
100
AcDbEntity
  8
04-legend-table
  6
ByLayer
 62
  256
370
   -1
100
AcDbPolyline
 90
    4
 70
    1
 43
0
 10
4000
 20
-2750
 10
4750
 20
-2750
 10
4750
 20
-3150
 10
4000
 20
-3150
  0
MTEXT
  5
13F
100
AcDbEntity
  8
04-legend-text
  6
ByLayer
 62
  256
370
   -1
100
AcDbMText
 10
1250
 20
-2550
 30
0
 40
150
 41
1520.833333333332
 71
    4
 72
    1
  1
Вывод провода
  7
unicode
210
0
220
0
230
1
 50
0
 73
    2
 44
1
  0
MTEXT
  5
140
100
AcDbEntity
  8
04-legend-text
  6
ByLayer
 62
  256
370
   -1
100
AcDbMText
 10
1250
 20
-2950
 30
0
 40
150
 41
2041.666666666667
 71
    4
 72
    1
  1
Включ. 1 клавишный
  7
unicode
210
0
220
0
230
1
 50
0
 73
    2
 44
1
  0
MTEXT
  5
141
100
AcDbEntity
  8
04-legend-text
  6
ByLayer
 62
  256
370
   -1
100
AcDbMText
 10
4375
 20
-2550
 30
0
 40
150
 41
83.33333333333334
 71
    5
 72
    1
  1
4
  7
unicode
210
0
220
0
230
1
 50
0
 73
    2
 44
1
  0
MTEXT
  5
142
100
AcDbEntity
  8
04-legend-text
  6
ByLayer
 62
  256
370
   -1
100
AcDbMText
 10
4375
 20
-2950
 30
0
 40
150
 41
66.66666666666667
 71
    5
 72
    1
  1
5
  7
unicode
210
0
220
0
230
1
 50
0
 73
    2
 44
1
  0
LWPOLYLINE
  5
143
100
AcDbEntity
  8
04-legend-table
  6
ByLayer
 62
  256
370
   -1
100
AcDbPolyline
 90
    4
 70
    1
 43
0
 10
0
 20
-4350
 10
1000
 20
-4350
 10
1000
 20
-3950
 10
0
 20
-3950
  0
LWPOLYLINE
  5
144
100
AcDbEntity
  8
04-legend-table
  6
ByLayer
 62
  256
370
   -1
100
AcDbPolyline
 90
    4
 70
    1
 43
0
 10
0
 20
-3950
 10
1000
 20
-3950
 10
1000
 20
-3550
 10
0
 20
-3550
  0
LWPOLYLINE
  5
145
100
AcDbEntity
  8
04-legend-table
  6
ByLayer
 62
  256
370
   -1
100
AcDbPolyline
 90
    4
 70
    1
 43
0
 10
0
 20
-3550
 10
1000
 20
-3550
 10
1000
 20
-3150
 10
0
 20
-3150
  0
LWPOLYLINE
  5
146
100
AcDbEntity
  8
04-legend-table
  6
ByLayer
 62
  256
370
   -1
100
AcDbPolyline
 90
    4
 70
    1
 43
0
 10
1000
 20
-3150
 10
4000
 20
-3150
 10
4000
 20
-3550
 10
1000
 20
-3550
  0
LWPOLYLINE
  5
147
100
AcDbEntity
  8
04-legend-table
  6
ByLayer
 62
  256
370
   -1
100
AcDbPolyline
 90
    4
 70
    1
 43
0
 10
4000
 20
-3150
 10
4750
 20
-3150
 10
4750
 20
-3550
 10
4000
 20
-3550
  0
LWPOLYLINE
  5
148
100
AcDbEntity
  8
04-legend-table
  6
ByLayer
 62
  256
370
   -1
100
AcDbPolyline
 90
    4
 70
    1
 43
0
 10
1000
 20
-3550
 10
4000
 20
-3550
 10
4000
 20
-3950
 10
1000
 20
-3950
  0
LWPOLYLINE
  5
149
100
AcDbEntity
  8
04-legend-table
  6
ByLayer
 62
  256
370
   -1
100
AcDbPolyline
 90
    4
 70
    1
 43
0
 10
4000
 20
-3550
 10
4750
 20
-3550
 10
4750
 20
-3950
 10
4000
 20
-3950
  0
LWPOLYLINE
  5
14A
100
AcDbEntity
  8
04-legend-table
  6
ByLayer
 62
  256
370
   -1
100
AcDbPolyline
 90
    4
 70
    1
 43
0
 10
1000
 20
-3950
 10
4000
 20
-3950
 10
4000
 20
-4350
 10
1000
 20
-4350
  0
LWPOLYLINE
  5
14B
100
AcDbEntity
  8
04-legend-table
  6
ByLayer
 62
  256
370
   -1
100
AcDbPolyline
 90
    4
 70
    1
 43
0
 10
4000
 20
-3950
 10
4750
 20
-3950
 10
4750
 20
-4350
 10
4000
 20
-4350
  0
MTEXT
  5
14C
100
AcDbEntity
  8
04-legend-text
  6
ByLayer
 62
  256
370
   -1
100
AcDbMText
 10
1250
 20
-3350
 30
0
 40
150
 41
1725
 71
    4
 72
    1
  1
Включ. 2-х клав.
  7
unicode
210
0
220
0
230
1
 50
0
 73
    2
 44
1
  0
MTEXT
  5
14D
100
AcDbEntity
  8
04-legend-text
  6
ByLayer
 62
  256
370
   -1
100
AcDbMText
 10
1250
 20
-3750
 30
0
 40
150
 41
2629.166666666667
 71
    4
 72
    1
  1
Включ. 2-х кл. проходной
  7
unicode
210
0
220
0
230
1
 50
0
 73
    2
 44
1
  0
MTEXT
  5
14E
100
AcDbEntity
  8
04-legend-text
  6
ByLayer
 62
  256
370
   -1
100
AcDbMText
 10
1250
 20
-4150
 30
0
 40
150
 41
2104.166666666667
 71
    4
 72
    1
  1
Трасса подключения
  7
unicode
210
0
220
0
230
1
 50
0
 73
    2
 44
1
  0
MTEXT
  5
14F
100
AcDbEntity
  8
04-legend-text
  6
ByLayer
 62
  256
370
   -1
100
AcDbMText
 10
4375
 20
-3350
 30
0
 40
150
 41
83.33333333333334
 71
    5
 72
    1
  1
4
  7
unicode
210
0
220
0
230
1
 50
0
 73
    2
 44
1
  0
MTEXT
  5
150
100
AcDbEntity
  8
04-legend-text
  6
ByLayer
 62
  256
370
   -1
100
AcDbMText
 10
4375
 20
-3750
 30
0
 40
150
 41
33.33333333333334
 71
    5
 72
    1
  1
1
  7
unicode
210
0
220
0
230
1
 50
0
 73
    2
 44
1
  0
ENDBLK
  5
90
330
8E
100
AcDbEntity
  8
0
100
AcDbBlockEnd
  0
BLOCK
  5
92
330
91
100
AcDbEntity
  8
0
100
AcDbBlockBegin
  2
sheet-A3-border
 70
    0
 10
0
 20
0
  3
sheet-A3-border
  1

  0
LINE
  5
151
100
AcDbEntity
  8
01-sheet-construction
  6
ByLayer
 62
  256
370
   -1
100
AcDbLine
 10
0
 20
-297
 11
420
 21
-297
  0
LINE
  5
152
100
AcDbEntity
  8
01-sheet-construction
  6
ByLayer
 62
  256
370
   -1
100
AcDbLine
 10
420
 20
-297
 11
420
 21
0
  0
LINE
  5
153
100
AcDbEntity
  8
01-sheet-construction
  6
ByLayer
 62
  256
370
   -1
100
AcDbLine
 10
420
 20
0
 11
0
 21
0
  0
LINE
  5
154
100
AcDbEntity
  8
01-sheet-construction
  6
ByLayer
 62
  256
370
   -1
100
AcDbLine
 10
0
 20
0
 11
0
 21
-297
  0
LINE
  5
155
100
AcDbEntity
  8
01-sheet-border-inner
  6
ByLayer
 62
  256
370
   -1
100
AcDbLine
 10
20
 20
-292
 11
415
 21
-292
  0
LINE
  5
156
100
AcDbEntity
  8
01-sheet-border-inner
  6
ByLayer
 62
  256
370
   -1
100
AcDbLine
 10
415
 20
-292
 11
415
 21
-5
  0
LINE
  5
157
100
AcDbEntity
  8
01-sheet-border-inner
  6
ByLayer
 62
  256
370
   -1
100
AcDbLine
 10
415
 20
-5
 11
20
 21
-5
  0
LINE
  5
158
100
AcDbEntity
  8
01-sheet-border-inner
  6
ByLayer
 62
  256
370
   -1
100
AcDbLine
 10
20
 20
-5
 11
20
 21
-292
  0
LWPOLYLINE
  5
159
100
AcDbEntity
  8
01-sheet-border-outer
  6
ByLayer
 62
  256
370
   -1
100
AcDbPolyline
 90
    4
 70
    1
 43
0
 10
0
 20
0
 10
420
 20
0
 10
420
 20
-297
 10
0
 20
-297
  0
LINE
  5
15A
100
AcDbEntity
  8
01-sheet-construction
  6
ByLayer
 62
  256
370
   -1
100
AcDbLine
 10
310
 20
-20
 11
405
 21
-20
  0
LINE
  5
15B
100
AcDbEntity
  8
01-sheet-construction
  6
ByLayer
 62
  256
370
   -1
100
AcDbLine
 10
310
 20
-20
 11
310
 21
-115
  0
LINE
  5
15C
100
AcDbEntity
  8
01-sheet-construction
  6
ByLayer
 62
  256
370
   -1
100
AcDbLine
 10
30
 20
-5.000000000000003
 11
30
 21
-292
  0
LINE
  5
15D
100
AcDbEntity
  8
01-sheet-construction
  6
ByLayer
 62
  256
370
   -1
100
AcDbLine
 10
20
 20
-282
 11
415
 21
-282
  0
LINE
  5
15E
100
AcDbEntity
  8
02-title-block-construction
  6
ByLayer
 62
  256
370
   -1
100
AcDbLine
 10
415
 20
-289.5
 11
250
 21
-289.5
  0
LINE
  5
15F
100
AcDbEntity
  8
02-title-block-construction
  6
ByLayer
 62
  256
370
   -1
100
AcDbLine
 10
415
 20
-287
 11
250
 21
-287
  0
LINE
  5
160
100
AcDbEntity
  8
02-title-block-construction
  6
ByLayer
 62
  256
370
   -1
100
AcDbLine
 10
250
 20
-284.5
 11
415
 21
-284.5
  0
LINE
  5
161
100
AcDbEntity
  8
02-title-block-construction
  6
ByLayer
 62
  256
370
   -1
100
AcDbLine
 10
250
 20
-282
 11
415
 21
-282
  0
LINE
  5
162
100
AcDbEntity
  8
02-title-block-construction
  6
ByLayer
 62
  256
370
   -1
100
AcDbLine
 10
250
 20
-279.5
 11
415
 21
-279.5
  0
LINE
  5
163
100
AcDbEntity
  8
02-title-block-construction
  6
ByLayer
 62
  256
370
   -1
100
AcDbLine
 10
250
 20
-277
 11
415
 21
-277
  0
LINE
  5
164
100
AcDbEntity
  8
02-title-block-construction
  6
ByLayer
 62
  256
370
   -1
100
AcDbLine
 10
250
 20
-274.5
 11
415
 21
-274.5
  0
LINE
  5
165
100
AcDbEntity
  8
02-title-block-construction
  6
ByLayer
 62
  256
370
   -1
100
AcDbLine
 10
250
 20
-272
 11
415
 21
-272
  0
LINE
  5
166
100
AcDbEntity
  8
02-title-block-construction
  6
ByLayer
 62
  256
370
   -1
100
AcDbLine
 10
250
 20
-292
 11
250
 21
-272
  0
LINE
  5
167
100
AcDbEntity
  8
02-title-block-construction
  6
ByLayer
 62
  256
370
   -1
100
AcDbLine
 10
332.5
 20
-292
 11
332.5
 21
-272
  0
LINE
  5
168
100
AcDbEntity
  8
02-title-block-construction
  6
ByLayer
 62
  256
370
   -1
100
AcDbLine
 10
353.125
 20
-292.0000000000001
 11
353.125
 21
-272
  0
LINE
  5
169
100
AcDbEntity
  8
02-title-block-construction
  6
ByLayer
 62
  256
370
   -1
100
AcDbLine
 10
373.75
 20
-292.0000000000001
 11
373.75
 21
-272.0000000000001
  0
LINE
  5
16A
100
AcDbEntity
  8
02-title-block-construction
  6
ByLayer
 62
  256
370
   -1
100
AcDbLine
 10
394.375
 20
-292.0000000000001
 11
394.375
 21
-272.0000000000001
  0
LINE
  5
16B
100
AcDbEntity
  8
02-title-block-construction
  6
ByLayer
 62
  256
370
   -1
100
AcDbLine
 10
415
 20
-292.0000000000001
 11
415
 21
-272.0000000000001
  0
LINE
  5
16C
100
AcDbEntity
  8
02-title-block-construction
  6
ByLayer
 62
  256
370
   -1
100
AcDbLine
 10
342.8125
 20
-292
 11
342.8125
 21
-272
  0
LINE
  5
16D
100
AcDbEntity
  8
02-title-block-construction
  6
ByLayer
 62
  256
370
   -1
100
AcDbLine
 10
363.4375
 20
-292.0000000000001
 11
363.4375
 21
-272.0000000000001
  0
LINE
  5
16E
100
AcDbEntity
  8
02-title-block-construction
  6
ByLayer
 62
  256
370
   -1
100
AcDbLine
 10
384.0625
 20
-292.0000000000001
 11
384.0625
 21
-272.0000000000001
  0
LINE
  5
16F
100
AcDbEntity
  8
02-title-block-construction
  6
ByLayer
 62
  256
370
   -1
100
AcDbLine
 10
404.6875
 20
-292.0000000000001
 11
404.6875
 21
-272.0000000000001
  0
LINE
  5
170
100
AcDbEntity
  8
02-title-block-construction
  6
ByLayer
 62
  256
370
   -1
100
AcDbLine
 10
291.25
 20
-292
 11
291.25
 21
-272
  0
LWPOLYLINE
  5
171
100
AcDbEntity
  8
02-title-block-table
  6
ByLayer
 62
  256
370
   -1
100
AcDbPolyline
 90
    4
 70
    1
 43
0
 10
250
 20
-272
 10
415
 20
-272
 10
415
 20
-292
 10
250
 20
-292
  0
LINE
  5
172
100
AcDbEntity
  8
02-title-block-table
  6
ByLayer
 62
  256
370
   -1
100
AcDbLine
 10
250
 20
-282
 11
415
 21
-282
  0
LINE
  5
173
100
AcDbEntity
  8
02-title-block-table
  6
ByLayer
 62
  256
370
   -1
100
AcDbLine
 10
332.5
 20
-272
 11
332.5
 21
-292
  0
LINE
  5
174
100
AcDbEntity
  8
02-title-block-table
  6
ByLayer
 62
  256
370
   -1
100
AcDbLine
 10
353.125
 20
-272
 11
353.125
 21
-282
  0
LINE
  5
175
100
AcDbEntity
  8
02-title-block-table
  6
ByLayer
 62
  256
370
   -1
100
AcDbLine
 10
373.75
 20
-272
 11
373.75
 21
-282
  0
LINE
  5
176
100
AcDbEntity
  8
02-title-block-table
  6
ByLayer
 62
  256
370
   -1
100
AcDbLine
 10
394.375
 20
-272
 11
394.375
 21
-282
  0
LINE
  5
177
100
AcDbEntity
  8
02-title-block-table
  6
ByLayer
 62
  256
370
   -1
100
AcDbLine
 10
332.5
 20
-277
 11
415
 21
-277
  0
LINE
  5
178
100
AcDbEntity
  8
02-title-block-table
  6
ByLayer
 62
  256
370
   -1
100
AcDbLine
 10
332.5
 20
-287
 11
415
 21
-287
  0
LINE
  5
179
100
AcDbEntity
  8
02-title-block-table
  6
ByLayer
 62
  256
370
   -1
100
AcDbLine
 10
373.75
 20
-287
 11
373.75
 21
-292
  0
MTEXT
  5
17A
100
AcDbEntity
  8
02-title-block-text
  6
ByLayer
 62
  256
370
   -1
100
AcDbMText
 10
342.8125
 20
-274.5
 30
0
 40
2.5
 41
15
 71
    5
 72
    1
  1
Масштаб
  7
unicode
210
0
220
0
230
1
 50
0
 73
    2
 44
1
  0
MTEXT
  5
17B
100
AcDbEntity
  8
02-title-block-text
  6
ByLayer
 62
  256
370
   -1
100
AcDbMText
 10
363.4375
 20
-274.5
 30
0
 40
2.5
 41
7.5
 71
    5
 72
    1
  1
Лист
  7
unicode
210
0
220
0
230
1
 50
0
 73
    2
 44
1
  0
MTEXT
  5
17C
100
AcDbEntity
  8
02-title-block-text
  6
ByLayer
 62
  256
370
   -1
100
AcDbMText
 10
384.0625
 20
-274.5
 30
0
 40
2.5
 41
11.38888888888889
 71
    5
 72
    1
  1
Листов
  7
unicode
210
0
220
0
230
1
 50
0
 73
    2
 44
1
  0
MTEXT
  5
17D
100
AcDbEntity
  8
02-title-block-text
  6
ByLayer
 62
  256
370
   -1
100
AcDbMText
 10
404.6875
 20
-274.5
 30
0
 40
2.5
 41
8.888888888888889
 71
    5
 72
    1
  1
Дата
  7
unicode
210
0
220
0
230
1
 50
0
 73
    2
 44
1
  0
MTEXT
  5
17E
100
AcDbEntity
  8
02-title-block-text
  6
ByLayer
 62
  256
370
   -1
100
AcDbMText
 10
373.75
 20
-284.5
 30
0
 40
2.5
 41
47.36111111111111
 71
    5
 72
    1
  1
Дизайнер: Ольга Правдина
  7
unicode
210
0
220
0
230
1
 50
0
 73
    2
 44
1
  0
MTEXT
  5
17F
100
AcDbEntity
  8
02-title-block-text
  6
ByLayer
 62
  256
370
   -1
100
AcDbMText
 10
394.375
 20
-289.5
 30
0
 40
2.5
 41
35.55555555555556
 71
    5
 72
    1
  1
http://artidea.gallery
  7
unicode
210
0
220
0
230
1
 50
0
 73
    2
 44
1
  0
MTEXT
  5
180
100
AcDbEntity
  8
02-title-block-text
  6
ByLayer
 62
  256
370
   -1
100
AcDbMText
 10
353.125
 20
-289.5
 30
0
 40
2.5
 41
31.31944444444445
 71
    5
 72
    1
  1
Тел.: +79780123193
  7
unicode
210
0
220
0
230
1
 50
0
 73
    2
 44
1
  0
MTEXT
  5
181
100
AcDbEntity
  8
02-title-block-text
  6
ByLayer
 62
  256
370
   -1
100
AcDbMText
 10
384.0625
 20
-279.5
 30
0
 40
2.5
 41
4.166666666666667
 71
    5
 72
    1
  1
XX
  7
unicode
210
0
220
0
230
1
 50
0
 73
    2
 44
1
  0
MTEXT
  5
182
100
AcDbEntity
  8
02-title-block-text
  6
ByLayer
 62
  256
370
   -1
100
AcDbMText
 10
363.4375
 20
-279.5
 30
0
 40
2.5
 41
1.666666666666667
 71
    5
 72
    1
  1
X
  7
unicode
210
0
220
0
230
1
 50
0
 73
    2
 44
1
  0
MTEXT
  5
183
100
AcDbEntity
  8
02-title-block-text
  6
ByLayer
 62
  256
370
   -1
100
AcDbMText
 10
404.6875
 20
-279.5
 30
0
 40
2.5
 41
18.61111111111111
 71
    5
 72
    1
  1
0000-00-00
  7
unicode
210
0
220
0
230
1
 50
0
 73
    2
 44
1
  0
MTEXT
  5
184
100
AcDbEntity
  8
02-title-block-text
  6
ByLayer
 62
  256
370
   -1
100
AcDbMText
 10
342.8125
 20
-279.5
 30
0
 40
2.5
 41
5.277777777777779
 71
    5
 72
    1
  1
1:50
  7
unicode
210
0
220
0
230
1
 50
0
 73
    2
 44
1
  0
MTEXT
  5
185
100
AcDbEntity
  8
02-title-block-text
  6
ByLayer
 62
  256
370
   -1
100
AcDbMText
 10
291.25
 20
-277
 30
0
 40
2.5
 41
20.8350011243245
 71
    5
 72
    1
  1
AddressField
  7
unicode
210
0
220
0
230
1
 50
0
 73
    2
 44
1
  0
MTEXT
  5
186
100
AcDbEntity
  8
02-title-block-text
  6
ByLayer
 62
  256
370
   -1
100
AcDbMText
 10
291.25
 20
-287
 30
0
 40
2.5
 41
53.68055555555556
 71
    5
 72
    1
  1
План подключения\Pосветительного оборудования.
  7
unicode
210
0
220
0
230
1
 50
0
 73
    2
 44
1
  0
ENDBLK
  5
93
330
91
100
AcDbEntity
  8
0
100
AcDbBlockEnd
  0
ENDSEC
  0
SECTION
  2
ENTITIES
  0
HATCH
  5
187
100
AcDbEntity
  8
plasterboard-hatch
  6
ByLayer
 62
  256
370
   -1
100
AcDbHatch
 10
0
 20
0
 30
0
210
0
220
0
230
1
  2
kerpele
 70
    0
 71
    0
 91
    1
 92
    0
 93
    4
 72
    1
 10
4085
 20
-7570
 11
4105
 21
-7570
 72
    1
 10
4105
 20
-7570
 11
4105
 21
-7420
 72
    1
 10
4105
 20
-7420
 11
4085
 21
-7420
 72
    1
 10
4085
 20
-7420
 11
4085
 21
-7570
 97
    0
 75
    0
 76
    1
 52
4.71238898038469
 41
1
 77
    0
 78
    0
 98
    0
  0
HATCH
  5
188
100
AcDbEntity
  8
plasterboard-hatch
  6
ByLayer
 62
  256
370
   -1
100
AcDbHatch
 10
0
 20
0
 30
0
210
0
220
0
230
1
  2
kerpele
 70
    0
 71
    0
 91
    1
 92
    0
 93
    4
 72
    1
 10
5775
 20
-3530
 11
5795
 21
-3530
 72
    1
 10
5795
 20
-3530
 11
5795
 21
-3650
 72
    1
 10
5795
 20
-3650
 11
5775
 21
-3650
 72
    1
 10
5775
 20
-3650
 11
5775
 21
-3530
 97
    0
 75
    0
 76
    1
 52
1.570796326794897
 41
1
 77
    0
 78
    0
 98
    0
  0
HATCH
  5
189
100
AcDbEntity
  8
plasterboard-hatch
  6
ByLayer
 62
  256
370
   -1
100
AcDbHatch
 10
0
 20
0
 30
0
210
0
220
0
230
1
  2
kerpele
 70
    0
 71
    0
 91
    1
 92
    0
 93
    4
 72
    1
 10
5705
 20
-6085
 11
5725
 21
-6085
 72
    1
 10
5725
 20
-6085
 11
5725
 21
-5180
 72
    1
 10
5725
 20
-5180
 11
5705
 21
-5180
 72
    1
 10
5705
 20
-5180
 11
5705
 21
-6085
 97
    0
 75
    0
 76
    1
 52
1.570796326794897
 41
1
 77
    0
 78
    0
 98
    0
  0
HATCH
  5
18A
100
AcDbEntity
  8
plasterboard-hatch
  6
ByBlock
 62
  256
370
   -1
100
AcDbHatch
 10
0
 20
0
 30
0
210
0
220
0
230
1
  2
kerpele
 70
    0
 71
    0
 91
    1
 92
    0
 93
   16
 72
    1
 10
1245
 20
-7550
 11
19.99999999999954
 21
-7550
 72
    1
 10
19.99999999999954
 20
-7550
 11
20
 21
-5520
 72
    1
 10
20
 20
-5520
 11
780
 21
-5520
 72
    1
 10
780
 20
-5520
 11
780
 21
-6250
 72
    1
 10
780
 20
-6250
 11
1245
 21
-6250
 72
    1
 10
1245
 20
-6250
 11
1245
 21
-6290
 72
    1
 10
1245
 20
-6290
 11
1265
 21
-6290
 72
    1
 10
1265
 20
-6290
 11
1265
 21
-6230
 72
    1
 10
1265
 20
-6230
 11
800
 21
-6230
 72
    1
 10
800
 20
-6230
 11
800
 21
-5500
 72
    1
 10
800
 20
-5500
 11
-3.373901931650958e-13
 21
-5500
 72
    1
 10
-3.373901931650958e-13
 20
-5500
 11
-4.641411368768469e-13
 21
-7570
 72
    1
 10
-4.641411368768469e-13
 20
-7570
 11
1265
 21
-7570
 72
    1
 10
1265
 20
-7570
 11
1265
 21
-7040
 72
    1
 10
1265
 20
-7040
 11
1245
 21
-7040
 72
    1
 10
1245
 20
-7040
 11
1245
 21
-7550
 97
    0
 75
    0
 76
    1
 52
1.570796326794897
 41
1
 77
    0
 78
    0
 98
    0
  0
HATCH
  5
18B
100
AcDbEntity
  8
plasterboard-hatch
  6
ByBlock
 62
  256
370
   -1
100
AcDbHatch
 10
0
 20
0
 30
0
210
0
220
0
230
1
  2
kerpele
 70
    0
 71
    0
 91
    1
 92
    0
 93
    8
 72
    1
 10
1845
 20
-7550
 11
1385
 21
-7550
 72
    1
 10
1385
 20
-7550
 11
1385
 21
-7040
 72
    1
 10
1385
 20
-7040
 11
1365
 21
-7040
 72
    1
 10
1365
 20
-7040
 11
1365
 21
-7570
 72
    1
 10
1365
 20
-7570
 11
1825
 21
-7570
 72
    1
 10
1825
 20
-7570
 11
1825
 21
-7720
 72
    1
 10
1825
 20
-7720
 11
1845
 21
-7720
 72
    1
 10
1845
 20
-7720
 11
1845
 21
-7550
 97
    0
 75
    0
 76
    1
 52
1.570796326794897
 41
1
 77
    0
 78
    0
 98
    0
  0
HATCH
  5
18C
100
AcDbEntity
  8
plasterboard-hatch
  6
ByBlock
 62
  256
370
   -1
100
AcDbHatch
 10
0
 20
0
 30
0
210
0
220
0
230
1
  2
kerpele
 70
    0
 71
    0
 91
    1
 92
    0
 93
   12
 72
    1
 10
2865
 20
-7200
 11
3985
 21
-7200
 72
    1
 10
3985
 20
-7200
 11
3985
 21
-6690
 72
    1
 10
3985
 20
-6690
 11
4005
 21
-6690
 72
    1
 10
4005
 20
-6690
 11
4005
 21
-7220
 72
    1
 10
4005
 20
-7220
 11
2885
 21
-7220
 72
    1
 10
2885
 20
-7220
 11
2885
 21
-7570
 72
    1
 10
2885
 20
-7570
 11
2850
 21
-7570
 72
    1
 10
2850
 20
-7570
 11
2850
 21
-7720
 72
    1
 10
2850
 20
-7720
 11
2830
 21
-7720
 72
    1
 10
2830
 20
-7720
 11
2830
 21
-7550
 72
    1
 10
2830
 20
-7550
 11
2865
 21
-7550
 72
    1
 10
2865
 20
-7550
 11
2865
 21
-7200
 97
    0
 75
    0
 76
    1
 52
1.570796326794897
 41
1
 77
    0
 78
    0
 98
    0
  0
HATCH
  5
18D
100
AcDbEntity
  8
plasterboard-hatch
  6
ByBlock
 62
  256
370
   -1
100
AcDbHatch
 10
0
 20
0
 30
0
210
0
220
0
230
1
  2
kerpele
 70
    0
 71
    0
 91
    1
 92
    0
 93
   16
 72
    1
 10
3985
 20
-3560
 11
4125
 21
-3560
 72
    1
 10
4125
 20
-3560
 11
4125
 21
-4160
 72
    1
 10
4125
 20
-4160
 11
5070
 21
-4160
 72
    1
 10
5070
 20
-4160
 11
5070
 21
-4260
 72
    1
 10
5070
 20
-4260
 11
5775
 21
-4260
 72
    1
 10
5775
 20
-4260
 11
5775
 21
-4250
 72
    1
 10
5775
 20
-4250
 11
5795
 21
-4250
 72
    1
 10
5795
 20
-4250
 11
5795
 21
-4280
 72
    1
 10
5795
 20
-4280
 11
5050
 21
-4280
 72
    1
 10
5050
 20
-4280
 11
5050
 21
-4180
 72
    1
 10
5050
 20
-4180
 11
4105
 21
-4180
 72
    1
 10
4105
 20
-4180
 11
4105
 21
-3580
 72
    1
 10
4105
 20
-3580
 11
4005
 21
-3580
 72
    1
 10
4005
 20
-3580
 11
4005
 21
-5940
 72
    1
 10
4005
 20
-5940
 11
3985
 21
-5940
 72
    1
 10
3985
 20
-5940
 11
3985
 21
-3560
 97
    0
 75
    0
 76
    1
 52
1.570796326794897
 41
1
 77
    0
 78
    0
 98
    0
  0
HATCH
  5
18E
100
AcDbEntity
  8
plasterboard-hatch
  6
ByBlock
 62
  256
370
   -1
100
AcDbHatch
 10
0
 20
0
 30
0
210
0
220
0
230
1
  2
kerpele
 70
    0
 71
    0
 91
    1
 92
    0
 93
   20
 72
    1
 10
5675
 20
-220
 11
5775
 21
-220
 72
    1
 10
5775
 20
-220
 11
5775
 21
-3530
 72
    1
 10
5775
 20
-3530
 11
5795
 21
-3530
 72
    1
 10
5795
 20
-3530
 11
5795
 21
-200
 72
    1
 10
5795
 20
-200
 11
5695
 21
-200
 72
    1
 10
5695
 20
-200
 11
5695
 21
0
 72
    1
 10
5695
 20
0
 11
2900
 21
0
 72
    1
 10
2900
 20
0
 11
2900
 21
-200
 72
    1
 10
2900
 20
-200
 11
2505
 21
-200
 72
    1
 10
2505
 20
-200
 11
2505
 21
0
 72
    1
 10
2505
 20
0
 11
2060
 21
0
 72
    1
 10
2060
 20
0
 11
2060
 21
-20
 72
    1
 10
2060
 20
-20
 11
2485
 21
-20
 72
    1
 10
2485
 20
-20
 11
2485
 21
-220
 72
    1
 10
2485
 20
-220
 11
2920
 21
-220
 72
    1
 10
2920
 20
-220
 11
2920
 21
-20
 72
    1
 10
2920
 20
-20
 11
3640
 21
-20
 72
    1
 10
3640
 20
-20
 11
5315
 21
-20
 72
    1
 10
5315
 20
-20
 11
5675
 21
-20
 72
    1
 10
5675
 20
-20
 11
5675
 21
-220
 97
    0
 75
    0
 76
    1
 52
1.570796326794897
 41
1
 77
    0
 78
    0
 98
    0
  0
HATCH
  5
18F
100
AcDbEntity
  8
plasterboard-hatch
  6
ByBlock
 62
  256
370
   -1
100
AcDbHatch
 10
0
 20
0
 30
0
210
0
220
0
230
1
  2
kerpele
 70
    0
 71
    0
 91
    1
 92
    0
 93
   11
 72
    1
 10
20.00000000000001
 20
-5380
 11
1385
 21
-5380
 72
    1
 10
1385
 20
-5380
 11
1385
 21
-6290
 72
    1
 10
1385
 20
-6290
 11
1365
 21
-6290
 72
    1
 10
1365
 20
-6290
 11
1365
 21
-5400
 72
    1
 10
1365
 20
-5400
 11
0
 21
-5400
 72
    1
 10
0
 20
-5400
 11
0
 21
0
 72
    1
 10
0
 20
0
 11
1200
 21
0
 72
    1
 10
1200
 20
0
 11
1200
 21
-20
 72
    1
 10
1200
 20
-20
 11
390
 21
-20
 72
    1
 10
390
 20
-20
 11
20
 21
-20
 72
    1
 10
20
 20
-20
 11
20.00000000000001
 21
-5380
 97
    0
 75
    0
 76
    1
 52
1.570796326794897
 41
1
 77
    0
 78
    0
 98
    0
  0
HATCH
  5
190
100
AcDbEntity
  8
wall-hatch
  6
ByLayer
 62
  256
370
   -1
100
AcDbHatch
 10
0
 20
0
 30
0
210
0
220
0
230
1
  2
gost_ferroconcrete
 70
    0
 71
    0
 91
    1
 92
    0
 93
   88
 72
    1
 10
5795
 20
-5080
 11
4105
 21
-5080
 72
    1
 10
4105
 20
-5080
 11
4105
 21
-4380
 72
    1
 10
4105
 20
-4380
 11
5795
 21
-4380
 72
    1
 10
5795
 20
-4380
 11
5795
 21
-5080
 72
    1
 10
2900
 20
0
 11
3640
 21
0
 72
    1
 10
3640
 20
0
 11
3640
 21
300
 72
    1
 10
3640
 20
300
 11
2060
 21
300
 72
    1
 10
2060
 20
300
 11
2060
 21
0
 72
    1
 10
2060
 20
0
 11
2505
 21
0
 72
    1
 10
2505
 20
0
 11
2505
 21
-200
 72
    1
 10
2505
 20
-200
 11
2900
 21
-200
 72
    1
 10
2900
 20
-200
 11
2900
 21
0
 72
    1
 10
3085
 20
-7420
 11
3830
 21
-7420
 72
    1
 10
3830
 20
-7420
 11
3830
 21
-7570
 72
    1
 10
3830
 20
-7570
 11
3085
 21
-7570
 72
    1
 10
3085
 20
-7570
 11
3085
 21
-7420
 72
    1
 10
1265
 20
-6130
 11
900
 21
-6130
 72
    1
 10
900
 20
-6130
 11
900
 21
-5500
 72
    1
 10
900
 20
-5500
 11
1265
 21
-5500
 72
    1
 10
1265
 20
-5500
 11
1265
 21
-6130
 72
    1
 10
390.0000000000001
 20
300
 11
-300
 21
300
 72
    1
 10
-300
 20
300
 11
-270
 21
220
 72
    1
 10
-270
 20
220
 11
-330
 21
110
 72
    1
 10
-330
 20
110
 11
-300
 21
1.469576158976824e-13
 72
    1
 10
-300
 20
1.469576158976824e-13
 11
-200
 21
1.469576158976824e-13
 72
    1
 10
-200
 20
1.469576158976824e-13
 11
-200
 21
-7570
 72
    1
 10
-200
 20
-7570
 11
-300
 21
-7570
 72
    1
 10
-300
 20
-7570
 11
-290
 21
-7610
 72
    1
 10
-290
 20
-7610
 11
-330
 21
-7690
 72
    1
 10
-330
 20
-7690
 11
-300
 21
-7770
 72
    1
 10
-300
 20
-7770
 11
1825
 21
-7770
 72
    1
 10
1825
 20
-7770
 11
1825
 21
-7570
 72
    1
 10
1825
 20
-7570
 11
1365
 21
-7570
 72
    1
 10
1365
 20
-7570
 11
1365
 21
-7040
 72
    1
 10
1365
 20
-7040
 11
1265
 21
-7040
 72
    1
 10
1265
 20
-7040
 11
1265
 21
-7570
 72
    1
 10
1265
 20
-7570
 11
-4.641411368768469e-13
 21
-7570
 72
    1
 10
-4.641411368768469e-13
 20
-7570
 11
-3.373901931650958e-13
 21
-5500
 72
    1
 10
-3.373901931650958e-13
 20
-5500
 11
800
 21
-5500
 72
    1
 10
800
 20
-5500
 11
800
 21
-6230
 72
    1
 10
800
 20
-6230
 11
1265
 21
-6230
 72
    1
 10
1265
 20
-6230
 11
1265
 21
-6290
 72
    1
 10
1265
 20
-6290
 11
1365
 21
-6290
 72
    1
 10
1365
 20
-6290
 11
1365
 21
-5400
 72
    1
 10
1365
 20
-5400
 11
0
 21
-5400
 72
    1
 10
0
 20
-5400
 11
0
 21
0
 72
    1
 10
0
 20
0
 11
390
 21
0
 72
    1
 10
390
 20
0
 11
390.0000000000001
 21
300
 72
    1
 10
6095
 20
-7770
 11
2850
 21
-7770
 72
    1
 10
2850
 20
-7770
 11
2850
 21
-7570
 72
    1
 10
2850
 20
-7570
 11
2885
 21
-7570
 72
    1
 10
2885
 20
-7570
 11
2885
 21
-7220
 72
    1
 10
2885
 20
-7220
 11
4005
 21
-7220
 72
    1
 10
4005
 20
-7220
 11
4005
 21
-6690
 72
    1
 10
4005
 20
-6690
 11
4105
 21
-6690
 72
    1
 10
4105
 20
-6690
 11
4105
 21
-7420
 72
    1
 10
4105
 20
-7420
 11
4030
 21
-7420
 72
    1
 10
4030
 20
-7420
 11
4030
 21
-7570
 72
    1
 10
4030
 20
-7570
 11
5795
 21
-7570
 72
    1
 10
5795
 20
-7570
 11
5795
 21
-6490
 72
    1
 10
5795
 20
-6490
 11
5705
 21
-6490
 72
    1
 10
5705
 20
-6490
 11
5705
 21
-6085
 72
    1
 10
5705
 20
-6085
 11
5795
 21
-6085
 72
    1
 10
5795
 20
-6085
 11
5795
 21
-5180
 72
    1
 10
5795
 20
-5180
 11
4105
 21
-5180
 72
    1
 10
4105
 20
-5180
 11
4105
 21
-5940
 72
    1
 10
4105
 20
-5940
 11
4005
 21
-5940
 72
    1
 10
4005
 20
-5940
 11
4005
 21
-3580
 72
    1
 10
4005
 20
-3580
 11
4105
 21
-3580
 72
    1
 10
4105
 20
-3580
 11
4105
 21
-4180
 72
    1
 10
4105
 20
-4180
 11
5050
 21
-4180
 72
    1
 10
5050
 20
-4180
 11
5050
 21
-4280
 72
    1
 10
5050
 20
-4280
 11
5795
 21
-4280
 72
    1
 10
5795
 20
-4280
 11
5795
 21
-200
 72
    1
 10
5795
 20
-200
 11
5695
 21
-200
 72
    1
 10
5695
 20
-200
 11
5695
 21
0
 72
    1
 10
5695
 20
0
 11
5315
 21
0
 72
    1
 10
5315
 20
0
 11
5315
 21
300
 72
    1
 10
5315
 20
300
 11
6095
 21
300
 72
    1
 10
6095
 20
300
 11
6150
 21
190
 72
    1
 10
6150
 20
190
 11
6080
 21
110
 72
    1
 10
6080
 20
110
 11
6095
 21
0
 72
    1
 10
6095
 20
0
 11
5995
 21
0
 72
    1
 10
5995
 20
0
 11
5995
 21
-7570
 72
    1
 10
5995
 20
-7570
 11
6095
 21
-7570
 72
    1
 10
6095
 20
-7570
 11
6140
 21
-7650
 72
    1
 10
6140
 20
-7650
 11
6080
 21
-7710
 72
    1
 10
6080
 20
-7710
 11
6095
 21
-7770
 97
    0
 75
    0
 76
    1
 52
0
 41
15
 77
    0
 78
    0
 98
    0
  0
LINE
  5
191
100
AcDbEntity
  8
construction
  6
ByLayer
 62
  256
370
   -1
100
AcDbLine
 10
-500
 20
0
 11
500
 21
0
  0
LINE
  5
192
100
AcDbEntity
  8
construction
  6
ByLayer
 62
  256
370
   -1
100
AcDbLine
 10
-3.061616997868383e-14
 20
-500
 11
3.061616997868383e-14
 21
500
  0
LINE
  5
193
100
AcDbEntity
  8
construction
  6
ByLayer
 62
  256
370
   -1
100
AcDbLine
 10
2505
 20
-500.0000000000006
 11
2505
 21
499.9999999999994
  0
LINE
  5
194
100
AcDbEntity
  8
construction
  6
ByLayer
 62
  256
370
   -1
100
AcDbLine
 10
2900
 20
-500.0000000000007
 11
2900
 21
499.9999999999993
  0
LINE
  5
195
100
AcDbEntity
  8
construction
  6
ByLayer
 62
  256
370
   -1
100
AcDbLine
 10
5695
 20
-500.0000000000014
 11
5695
 21
499.9999999999986
  0
LINE
  5
196
100
AcDbEntity
  8
construction
  6
ByLayer
 62
  256
370
   -1
100
AcDbLine
 10
5795
 20
-500.0000000000014
 11
5795
 21
499.9999999999986
  0
LINE
  5
197
100
AcDbEntity
  8
construction
  6
ByLayer
 62
  256
370
   -1
100
AcDbLine
 10
1365
 20
-500.0000000000003
 11
1365
 21
499.9999999999997
  0
LINE
  5
198
100
AcDbEntity
  8
construction
  6
ByLayer
 62
  256
370
   -1
100
AcDbLine
 10
-500.000000000001
 20
-5400
 11
499.999999999999
 21
-5400
  0
LINE
  5
199
100
AcDbEntity
  8
construction
  6
ByLayer
 62
  256
370
   -1
100
AcDbLine
 10
-500.000000000001
 20
-5500
 11
499.999999999999
 21
-5500
  0
LINE
  5
19A
100
AcDbEntity
  8
construction
  6
ByLayer
 62
  256
370
   -1
100
AcDbLine
 10
1.163414459189985e-13
 20
-3500
 11
1365
 21
-3500
  0
LINE
  5
19B
100
AcDbEntity
  8
construction
  6
ByLayer
 62
  256
370
   -1
100
AcDbLine
 10
1.224646799147353e-13
 20
-3400
 11
1365
 21
-3400
  0
LINE
  5
19C
100
AcDbEntity
  8
construction
  6
ByLayer
 62
  256
370
   -1
100
AcDbLine
 10
-500.0000000000014
 20
-7570
 11
499.9999999999986
 21
-7570
  0
LINE
  5
19D
100
AcDbEntity
  8
wall-hatch
  6
ByLayer
 62
  256
370
   -1
100
AcDbLine
 10
900
 20
-5500
 11
1265
 21
-6130
  0
LINE
  5
19E
100
AcDbEntity
  8
wall-hatch
  6
ByLayer
 62
  256
370
   -1
100
AcDbLine
 10
900
 20
-6130
 11
1265
 21
-5500
  0
LINE
  5
19F
100
AcDbEntity
  8
wall-hatch
  6
ByLayer
 62
  256
370
   -1
100
AcDbLine
 10
3085
 20
-7420
 11
3830
 21
-7570
  0
LINE
  5
1A0
100
AcDbEntity
  8
wall-hatch
  6
ByLayer
 62
  256
370
   -1
100
AcDbLine
 10
3085
 20
-7570
 11
3830
 21
-7420
  0
LINE
  5
1A1
100
AcDbEntity
  8
wall-hatch
  6
ByLayer
 62
  256
370
   -1
100
AcDbLine
 10
4105
 20
-4380
 11
5795
 21
-5080
  0
LINE
  5
1A2
100
AcDbEntity
  8
wall-hatch
  6
ByLayer
 62
  256
370
   -1
100
AcDbLine
 10
4105
 20
-5080
 11
5795
 21
-4380
  0
LINE
  5
1A3
100
AcDbEntity
  8
construction
  6
ByLayer
 62
  256
370
   -1
100
AcDbLine
 10
389.9999999999999
 20
-500.0000000000001
 11
390.0000000000001
 21
499.9999999999999
  0
LINE
  5
1A4
100
AcDbEntity
  8
construction
  6
ByLayer
 62
  256
370
   -1
100
AcDbLine
 10
2060
 20
-500.0000000000005
 11
2060
 21
499.9999999999995
  0
LINE
  5
1A5
100
AcDbEntity
  8
construction
  6
ByLayer
 62
  256
370
   -1
100
AcDbLine
 10
1200
 20
-500.0000000000003
 11
1200
 21
499.9999999999997
  0
LINE
  5
1A6
100
AcDbEntity
  8
construction
  6
ByLayer
 62
  256
370
   -1
100
AcDbLine
 10
5315
 20
-500.0000000000014
 11
5315
 21
499.9999999999986
  0
LINE
  5
1A7
100
AcDbEntity
  8
construction
  6
ByLayer
 62
  256
370
   -1
100
AcDbLine
 10
3640
 20
-500.0000000000011
 11
3640
 21
499.9999999999989
  0
LINE
  5
1A8
100
AcDbEntity
  8
construction
  6
ByLayer
 62
  256
370
   -1
100
AcDbLine
 10
4477.5
 20
-200
 11
4477.5
 21
800
  0
LINE
  5
1A9
100
AcDbEntity
  8
construction
  6
ByLayer
 62
  256
370
   -1
100
AcDbLine
 10
3640
 20
70
 11
5315
 21
70
  0
LWPOLYLINE
  5
1AA
100
AcDbEntity
  8
wall
  6
ByLayer
 62
  256
370
   -1
100
AcDbPolyline
 90
    5
 70
    0
 43
0
 10
5795
 20
-5080
 10
4105
 20
-5080
 10
4105
 20
-4380
 10
5795
 20
-4380
 10
5795
 20
-5080
  0
LWPOLYLINE
  5
1AB
100
AcDbEntity
  8
wall
  6
ByLayer
 62
  256
370
   -1
100
AcDbPolyline
 90
    9
 70
    0
 43
0
 10
2900
 20
0
 10
3640
 20
0
 10
3640
 20
300
 10
2060
 20
300
 10
2060
 20
0
 10
2505
 20
0
 10
2505
 20
-200
 10
2900
 20
-200
 10
2900
 20
0
  0
LWPOLYLINE
  5
1AC
100
AcDbEntity
  8
wall
  6
ByLayer
 62
  256
370
   -1
100
AcDbPolyline
 90
    5
 70
    0
 43
0
 10
3085
 20
-7420
 10
3830
 20
-7420
 10
3830
 20
-7570
 10
3085
 20
-7570
 10
3085
 20
-7420
  0
LWPOLYLINE
  5
1AD
100
AcDbEntity
  8
wall
  6
ByLayer
 62
  256
370
   -1
100
AcDbPolyline
 90
    4
 70
    1
 43
0
 10
1265
 20
-6130
 10
900
 20
-6130
 10
900
 20
-5500
 10
1265
 20
-5500
  0
LWPOLYLINE
  5
1AE
100
AcDbEntity
  8
wall
  6
ByLayer
 62
  256
370
   -1
100
AcDbPolyline
 90
   28
 70
    1
 43
0
 10
390.0000000000001
 20
300
 10
-300
 20
300
 10
-270
 20
220
 10
-330
 20
110
 10
-300
 20
1.469576158976824e-13
 10
-200
 20
1.469576158976824e-13
 10
-200
 20
-7570
 10
-300
 20
-7570
 10
-290
 20
-7610
 10
-330
 20
-7690
 10
-300
 20
-7770
 10
1825
 20
-7770
 10
1825
 20
-7570
 10
1365
 20
-7570
 10
1365
 20
-7040
 10
1265
 20
-7040
 10
1265
 20
-7570
 10
-4.641411368768469e-13
 20
-7570
 10
-3.373901931650958e-13
 20
-5500
 10
800
 20
-5500
 10
800
 20
-6230
 10
1265
 20
-6230
 10
1265
 20
-6290
 10
1365
 20
-6290
 10
1365
 20
-5400
 10
0
 20
-5400
 10
0
 20
0
 10
390
 20
0
  0
LWPOLYLINE
  5
1AF
100
AcDbEntity
  8
wall
  6
ByLayer
 62
  256
370
   -1
100
AcDbPolyline
 90
    4
 70
    1
 43
0
 10
1200
 20
300
 10
1200
 20
0
 10
390
 20
0
 10
390.0000000000001
 20
300
  0
LWPOLYLINE
  5
1B0
100
AcDbEntity
  8
wall
  6
ByLayer
 62
  256
370
   -1
100
AcDbPolyline
 90
    4
 70
    1
 43
0
 10
5315
 20
300
 10
3640
 20
300
 10
3640
 20
0
 10
5315
 20
0
  0
LWPOLYLINE
  5
1B1
100
AcDbEntity
  8
window
  6
ByLayer
 62
  256
370
   -1
100
AcDbPolyline
 90
    4
 70
    1
 43
0
 10
390
 20
70
 10
420
 20
70
 10
420
 20
140
 10
390
 20
140
  0
LWPOLYLINE
  5
1B2
100
AcDbEntity
  8
window
  6
ByLayer
 62
  256
370
   -1
100
AcDbPolyline
 90
    4
 70
    1
 43
0
 10
420
 20
70
 10
500
 20
70
 10
500
 20
140
 10
420
 20
140
  0
LWPOLYLINE
  5
1B3
100
AcDbEntity
  8
window
  6
ByLayer
 62
  256
370
   -1
100
AcDbPolyline
 90
    4
 70
    1
 43
0
 10
1200
 20
70
 10
1120
 20
70
 10
1120
 20
140
 10
1200
 20
140
  0
LWPOLYLINE
  5
1B4
100
AcDbEntity
  8
window
  6
ByLayer
 62
  256
370
   -1
100
AcDbPolyline
 90
    4
 70
    1
 43
0
 10
500
 20
140
 10
1120
 20
140
 10
1120
 20
70
 10
500
 20
70
  0
LWPOLYLINE
  5
1B5
100
AcDbEntity
  8
window
  6
ByLayer
 62
  256
370
   -1
100
AcDbPolyline
 90
    4
 70
    1
 43
0
 10
1120
 20
100
 10
500
 20
100
 10
500
 20
110
 10
1120
 20
110
  0
LWPOLYLINE
  5
1B6
100
AcDbEntity
  8
window
  6
ByLayer
 62
  256
370
   -1
100
AcDbPolyline
 90
    4
 70
    1
 43
0
 10
1200
 20
70
 10
1280
 20
70
 10
1280
 20
140
 10
1200
 20
140
  0
LWPOLYLINE
  5
1B7
100
AcDbEntity
  8
window
  6
ByLayer
 62
  256
370
   -1
100
AcDbPolyline
 90
    4
 70
    1
 43
0
 10
2060
 20
70
 10
2030
 20
70
 10
2030
 20
140
 10
2060
 20
140
  0
LWPOLYLINE
  5
1B8
100
AcDbEntity
  8
window
  6
ByLayer
 62
  256
370
   -1
100
AcDbPolyline
 90
    4
 70
    1
 43
0
 10
2030
 20
70
 10
1950
 20
70
 10
1950
 20
140
 10
2030
 20
140
  0
LWPOLYLINE
  5
1B9
100
AcDbEntity
  8
window
  6
ByLayer
 62
  256
370
   -1
100
AcDbPolyline
 90
    4
 70
    1
 43
0
 10
1280
 20
140
 10
1950
 20
140
 10
1950
 20
70
 10
1280
 20
70
  0
LWPOLYLINE
  5
1BA
100
AcDbEntity
  8
window
  6
ByLayer
 62
  256
370
   -1
100
AcDbPolyline
 90
    4
 70
    1
 43
0
 10
1950
 20
100
 10
1280
 20
100
 10
1280
 20
110
 10
1950
 20
110
  0
LINE
  5
1BB
100
AcDbEntity
  8
window
  6
ByLayer
 62
  256
370
   -1
100
AcDbLine
 10
2030
 20
70
 11
2030
 21
-760
  0
ARC
  5
1BC
100
AcDbEntity
  8
window
  6
ByLayer
 62
  256
370
   -1
100
AcDbCircle
 10
2030
 20
70
 40
830
100
AcDbArc
 50
180
 51
270
  0
LWPOLYLINE
  5
1BD
100
AcDbEntity
  8
window
  6
ByLayer
 62
  256
370
   -1
100
AcDbPolyline
 90
    4
 70
    1
 43
0
 10
3640
 20
70
 10
3670
 20
70
 10
3670
 20
140
 10
3640
 20
140
  0
LWPOLYLINE
  5
1BE
100
AcDbEntity
  8
window
  6
ByLayer
 62
  256
370
   -1
100
AcDbPolyline
 90
    4
 70
    1
 43
0
 10
5315
 20
70
 10
5285
 20
70
 10
5285
 20
140
 10
5315
 20
140
  0
LWPOLYLINE
  5
1BF
100
AcDbEntity
  8
window
  6
ByLayer
 62
  256
370
   -1
100
AcDbPolyline
 90
    4
 70
    1
 43
0
 10
3670
 20
70
 10
3750
 20
70
 10
3750
 20
140
 10
3670
 20
140
  0
LWPOLYLINE
  5
1C0
100
AcDbEntity
  8
window
  6
ByLayer
 62
  256
370
   -1
100
AcDbPolyline
 90
    4
 70
    1
 43
0
 10
5285
 20
70
 10
5205
 20
70
 10
5205
 20
140
 10
5285
 20
140
  0
LWPOLYLINE
  5
1C1
100
AcDbEntity
  8
window
  6
ByLayer
 62
  256
370
   -1
100
AcDbPolyline
 90
    4
 70
    1
 43
0
 10
4477.5
 20
70
 10
4397.5
 20
70
 10
4397.5
 20
140
 10
4477.5
 20
140
  0
LWPOLYLINE
  5
1C2
100
AcDbEntity
  8
window
  6
ByLayer
 62
  256
370
   -1
100
AcDbPolyline
 90
    4
 70
    1
 43
0
 10
4477.5
 20
70
 10
4557.5
 20
70
 10
4557.5
 20
140
 10
4477.5
 20
140
  0
LWPOLYLINE
  5
1C3
100
AcDbEntity
  8
window
  6
ByLayer
 62
  256
370
   -1
100
AcDbPolyline
 90
    4
 70
    1
 43
0
 10
4557.5
 20
140
 10
5205
 20
140
 10
5205
 20
70
 10
4557.5
 20
70
  0
LWPOLYLINE
  5
1C4
100
AcDbEntity
  8
window
  6
ByLayer
 62
  256
370
   -1
100
AcDbPolyline
 90
    4
 70
    1
 43
0
 10
3750
 20
140
 10
4397.5
 20
140
 10
4397.5
 20
70
 10
3750
 20
70
  0
LWPOLYLINE
  5
1C5
100
AcDbEntity
  8
window
  6
ByLayer
 62
  256
370
   -1
100
AcDbPolyline
 90
    4
 70
    1
 43
0
 10
5205
 20
100
 10
4557
 20
100
 10
4557
 20
110
 10
5205
 20
110
  0
LWPOLYLINE
  5
1C6
100
AcDbEntity
  8
window
  6
ByLayer
 62
  256
370
   -1
100
AcDbPolyline
 90
    4
 70
    1
 43
0
 10
4397.5
 20
100
 10
3749.5
 20
100
 10
3749.5
 20
110
 10
4397.5
 20
110
  0
LINE
  5
1C7
100
AcDbEntity
  8
construction
  6
ByLayer
 62
  256
370
   -1
100
AcDbLine
 10
1825
 20
-7720
 11
1365
 21
-7720
  0
LWPOLYLINE
  5
1C8
100
AcDbEntity
  8
door
  6
ByLayer
 62
  256
370
   -1
100
AcDbPolyline
 90
    4
 70
    1
 43
0
 10
2850
 20
-7720
 10
2820
 20
-7720
 10
2820
 20
-7770
 10
2850
 20
-7770
  0
LWPOLYLINE
  5
1C9
100
AcDbEntity
  8
door
  6
ByLayer
 62
  256
370
   -1
100
AcDbPolyline
 90
    8
 70
    1
 43
0
 10
2820
 20
-7720
 10
2780
 20
-7720
 10
2780
 20
-7740
 10
2800
 20
-7740
 10
2800
 20
-7790
 10
2880
 20
-7790
 10
2880
 20
-7770
 10
2820
 20
-7770
  0
LWPOLYLINE
  5
1CA
100
AcDbEntity
  8
door
  6
ByLayer
 62
  256
370
   -1
100
AcDbPolyline
 90
    4
 70
    1
 43
0
 10
1880
 20
-7740
 10
2800
 20
-7740
 10
2800
 20
-7790
 10
1880
 20
-7790
  0
LINE
  5
1CB
100
AcDbEntity
  8
door
  6
ByLayer
 62
  256
370
   -1
100
AcDbLine
 10
2800
 20
-7790
 11
2800
 21
-8710
  0
ARC
  5
1CC
100
AcDbEntity
  8
door
  6
ByLayer
 62
  256
370
   -1
100
AcDbCircle
 10
2800
 20
-7790
 40
920
100
AcDbArc
 50
180
 51
270
  0
MTEXT
  5
1CD
100
AcDbEntity
  8
room-num
  6
ByLayer
 62
  256
370
   -1
100
AcDbMText
 10
1894.285714285714
 20
-2525.714285714286
 30
0
 40
90
 41
180
 71
    5
 72
    1
  1
802
  7
unicode
210
0
220
0
230
1
 50
0
 73
    2
 44
1
  0
MTEXT
  5
1CE
100
AcDbEntity
  8
room-num
  6
ByLayer
 62
  256
370
   -1
100
AcDbMText
 10
607.1428571428571
 20
-6642.142857142857
 30
0
 40
90
 41
190
 71
    5
 72
    1
  1
804
  7
unicode
210
0
220
0
230
1
 50
0
 73
    2
 44
1
  0
CIRCLE
  5
1CF
100
AcDbEntity
  8
room-num
  6
ByLayer
 62
  256
370
   -1
100
AcDbCircle
 10
603.3730962620668
 20
-6643.019481395108
 40
150
  0
CIRCLE
  5
1D0
100
AcDbEntity
  8
room-num
  6
ByLayer
 62
  256
370
   -1
100
AcDbCircle
 10
1893.767629290986
 20
-2523.289286280572
 40
150
  0
LINE
  5
1D1
100
AcDbEntity
  8
construction
  6
ByLayer
 62
  256
370
   -1
100
AcDbLine
 10
5615
 20
-200
 11
5615
 21
9.797174393178826e-15
  0
LINE
  5
1D2
100
AcDbEntity
  8
construction
  6
ByLayer
 62
  256
370
   -1
100
AcDbLine
 10
5745
 20
-4280
 11
5745
 21
-200
  0
LWPOLYLINE
  5
1D3
100
AcDbEntity
  8
wall
  6
ByLayer
 62
  256
370
   -1
100
AcDbPolyline
 90
    4
 70
    1
 43
0
 10
5795
 20
-3650
 10
5775
 20
-3650
 10
5775
 20
-4250
 10
5795
 20
-4250
  0
LWPOLYLINE
  5
1D4
100
AcDbEntity
  8
wall
  6
ByLayer
 62
  256
370
   -1
100
AcDbPolyline
 90
   40
 70
    1
 43
0
 10
6095
 20
-7770
 10
2850
 20
-7770
 10
2850
 20
-7570
 10
2885
 20
-7570
 10
2885
 20
-7220
 10
4005
 20
-7220
 10
4005
 20
-6690
 10
4105
 20
-6690
 10
4105
 20
-7420
 10
4030
 20
-7420
 10
4030
 20
-7570
 10
5795
 20
-7570
 10
5795
 20
-6490
 10
5705
 20
-6490
 10
5705
 20
-6085
 10
5795
 20
-6085
 10
5795
 20
-5180
 10
4105
 20
-5180
 10
4105
 20
-5940
 10
4005
 20
-5940
 10
4005
 20
-3580
 10
4105
 20
-3580
 10
4105
 20
-4180
 10
5050
 20
-4180
 10
5050
 20
-4280
 10
5795
 20
-4280
 10
5795
 20
-200
 10
5695
 20
-200
 10
5695
 20
0
 10
5315
 20
0
 10
5315
 20
300
 10
6095
 20
300
 10
6150
 20
190
 10
6080
 20
110
 10
6095
 20
0
 10
5995
 20
0
 10
5995
 20
-7570
 10
6095
 20
-7570
 10
6140
 20
-7650
 10
6080
 20
-7710
  0
LWPOLYLINE
  5
1D5
100
AcDbEntity
  8
plasterboard
  6
ByLayer
 62
  256
370
   -1
100
AcDbPolyline
 90
   11
 70
    1
 43
0
 10
20.00000000000001
 20
-5380
 10
1385
 20
-5380
 10
1385
 20
-6290
 10
1365
 20
-6290
 10
1365
 20
-5400
 10
0
 20
-5400
 10
0
 20
0
 10
1200
 20
0
 10
1200
 20
-20
 10
390
 20
-20
 10
20
 20
-20
  0
LWPOLYLINE
  5
1D6
100
AcDbEntity
  8
plasterboard
  6
ByLayer
 62
  256
370
   -1
100
AcDbPolyline
 90
   16
 70
    1
 43
0
 10
1245
 20
-7550
 10
19.99999999999954
 20
-7550
 10
20
 20
-5520
 10
780
 20
-5520
 10
780
 20
-6250
 10
1245
 20
-6250
 10
1245
 20
-6290
 10
1265
 20
-6290
 10
1265
 20
-6230
 10
800
 20
-6230
 10
800
 20
-5500
 10
-3.373901931650958e-13
 20
-5500
 10
-4.641411368768469e-13
 20
-7570
 10
1265
 20
-7570
 10
1265
 20
-7040
 10
1245
 20
-7040
  0
LWPOLYLINE
  5
1D7
100
AcDbEntity
  8
plasterboard
  6
ByLayer
 62
  256
370
   -1
100
AcDbPolyline
 90
    8
 70
    1
 43
0
 10
1845
 20
-7550
 10
1385
 20
-7550
 10
1385
 20
-7040
 10
1365
 20
-7040
 10
1365
 20
-7570
 10
1825
 20
-7570
 10
1825
 20
-7720
 10
1845
 20
-7720
  0
LWPOLYLINE
  5
1D8
100
AcDbEntity
  8
plasterboard
  6
ByLayer
 62
  256
370
   -1
100
AcDbPolyline
 90
   12
 70
    1
 43
0
 10
2865
 20
-7200
 10
3985
 20
-7200
 10
3985
 20
-6690
 10
4005
 20
-6690
 10
4005
 20
-7220
 10
2885
 20
-7220
 10
2885
 20
-7570
 10
2850
 20
-7570
 10
2850
 20
-7720
 10
2830
 20
-7720
 10
2830
 20
-7550
 10
2865
 20
-7550
  0
LWPOLYLINE
  5
1D9
100
AcDbEntity
  8
plasterboard
  6
ByBlock
 62
  256
370
   -1
100
AcDbPolyline
 90
   16
 70
    1
 43
0
 10
3985
 20
-3560
 10
4125
 20
-3560
 10
4125
 20
-4160
 10
5070
 20
-4160
 10
5070
 20
-4260
 10
5775
 20
-4260
 10
5775
 20
-4250
 10
5795
 20
-4250
 10
5795
 20
-4280
 10
5050
 20
-4280
 10
5050
 20
-4180
 10
4105
 20
-4180
 10
4105
 20
-3580
 10
4005
 20
-3580
 10
4005
 20
-5940
 10
3985
 20
-5940
  0
LWPOLYLINE
  5
1DA
100
AcDbEntity
  8
plasterboard
  6
ByBlock
 62
  256
370
   -1
100
AcDbPolyline
 90
   20
 70
    1
 43
0
 10
5675
 20
-220
 10
5775
 20
-220
 10
5775
 20
-3530
 10
5795
 20
-3530
 10
5795
 20
-200
 10
5695
 20
-200
 10
5695
 20
0
 10
2900
 20
0
 10
2900
 20
-200
 10
2505
 20
-200
 10
2505
 20
0
 10
2060
 20
0
 10
2060
 20
-20
 10
2485
 20
-20
 10
2485
 20
-220
 10
2920
 20
-220
 10
2920
 20
-20
 10
3640
 20
-20
 10
5315
 20
-20
 10
5675
 20
-20
  0
LWPOLYLINE
  5
1DB
100
AcDbEntity
  8
door
  6
ByLayer
 62
  256
370
   -1
100
AcDbPolyline
 90
   10
 70
    1
 43
0
 10
1245
 20
-7040
 10
1245
 20
-7100
 10
1235
 20
-7100
 10
1235
 20
-7005
 10
1325
 20
-7005
 10
1325
 20
-7015
 10
1395
 20
-7015
 10
1395
 20
-7100
 10
1385
 20
-7100
 10
1385
 20
-7040
  0
LWPOLYLINE
  5
1DC
100
AcDbEntity
  8
door
  6
ByLayer
 62
  256
370
   -1
100
AcDbPolyline
 90
    4
 70
    1
 43
0
 10
1365
 20
-6355
 10
1365
 20
-6315
 10
2065
 20
-6315
 10
2065
 20
-6355
  0
ARC
  5
1DD
100
AcDbEntity
  8
door
  6
ByLayer
 62
  256
370
   -1
100
AcDbCircle
 10
1365
 20
-6315
 40
700
100
AcDbArc
 50
270
 51
356.7295120768164
  0
LWPOLYLINE
  5
1DE
100
AcDbEntity
  8
door
  6
ByLayer
 62
  256
370
   -1
100
AcDbPolyline
 90
    4
 70
    1
 43
0
 10
1825
 20
-7720
 10
1860
 20
-7720
 10
1860
 20
-7770
 10
1825
 20
-7770
  0
LWPOLYLINE
  5
1DF
100
AcDbEntity
  8
door
  6
ByLayer
 62
  256
370
   -1
100
AcDbPolyline
 90
    8
 70
    1
 43
0
 10
1860
 20
-7720
 10
1900
 20
-7720
 10
1900
 20
-7740
 10
1880
 20
-7740
 10
1880
 20
-7790
 10
1800
 20
-7790
 10
1800
 20
-7770
 10
1860
 20
-7770
  0
LWPOLYLINE
  5
1E0
100
AcDbEntity
  8
door
  6
ByLayer
 62
  256
370
   -1
100
AcDbPolyline
 90
   10
 70
    1
 43
0
 10
1385
 20
-6290
 10
1245
 20
-6290
 10
1245
 20
-6250
 10
1235
 20
-6250
 10
1235
 20
-6325
 10
1325
 20
-6325
 10
1325
 20
-6315
 10
1395
 20
-6315
 10
1395
 20
-6230
 10
1385
 20
-6230
  0
LWPOLYLINE
  5
1E1
100
AcDbEntity
  8
door
  6
ByLayer
 62
  256
370
   -1
100
AcDbPolyline
 90
    4
 70
    1
 43
0
 10
4085
 20
-6625
 10
4085
 20
-6665
 10
4785
 20
-6665
 10
4785
 20
-6625
  0
ARC
  5
1E2
100
AcDbEntity
  8
door
  6
ByLayer
 62
  256
370
   -1
100
AcDbCircle
 10
4085
 20
-6665
 40
700
100
AcDbArc
 50
3.270487923183595
 51
90
  0
LWPOLYLINE
  5
1E3
100
AcDbEntity
  8
door
  6
ByLayer
 62
  256
370
   -1
100
AcDbPolyline
 90
   10
 70
    1
 43
0
 10
3985
 20
-5940
 10
3985
 20
-5880
 10
3975
 20
-5880
 10
3975
 20
-5975
 10
4045
 20
-5975
 10
4045
 20
-5965
 10
4115
 20
-5965
 10
4115
 20
-5880
 10
4105
 20
-5880
 10
4105
 20
-5940
  0
LWPOLYLINE
  5
1E4
100
AcDbEntity
  8
door
  6
ByLayer
 62
  256
370
   -1
100
AcDbPolyline
 90
   10
 70
    1
 43
0
 10
4105
 20
-6690
 10
3985
 20
-6690
 10
3985
 20
-6750
 10
3975
 20
-6750
 10
3975
 20
-6655
 10
4045
 20
-6655
 10
4045
 20
-6665
 10
4115
 20
-6665
 10
4115
 20
-6750
 10
4105
 20
-6750
  0
LWPOLYLINE
  5
1E5
100
AcDbEntity
  8
plasterboard
  6
ByLayer
 62
  256
370
   -1
100
AcDbPolyline
 90
    4
 70
    1
 43
0
 10
5705
 20
-6085
 10
5725
 20
-6085
 10
5725
 20
-5180
 10
5705
 20
-5180
  0
LWPOLYLINE
  5
1E6
100
AcDbEntity
  8
plasterboard
  6
ByLayer
 62
  256
370
   -1
100
AcDbPolyline
 90
    4
 70
    1
 43
0
 10
5775
 20
-3530
 10
5795
 20
-3530
 10
5795
 20
-3650
 10
5775
 20
-3650
  0
LINE
  5
1E7
100
AcDbEntity
  8
wall-hidden
  6
ByLayer
 62
  256
370
   -1
100
AcDbLine
 10
2505
 20
-200
 11
0
 21
-200
  0
LINE
  5
1E8
100
AcDbEntity
  8
wall-hidden
  6
ByLayer
 62
  256
370
   -1
100
AcDbLine
 10
2900
 20
-200
 11
5695
 21
-200
  0
LINE
  5
1E9
100
AcDbEntity
  8
wall-hidden
  6
ByLayer
 62
  256
370
   -1
100
AcDbLine
 10
5695
 20
-200
 11
5695
 21
-4280
  0
LINE
  5
1EA
100
AcDbEntity
  8
plasterboard-hidden
  6
ByLayer
 62
  256
370
   -1
100
AcDbLine
 10
2485
 20
-220
 11
20
 21
-220
  0
LINE
  5
1EB
100
AcDbEntity
  8
plasterboard-hidden
  6
ByLayer
 62
  256
370
   -1
100
AcDbLine
 10
2920
 20
-220
 11
5675
 21
-220
  0
LINE
  5
1EC
100
AcDbEntity
  8
plasterboard-hidden
  6
ByLayer
 62
  256
370
   -1
100
AcDbLine
 10
5675
 20
-220
 11
5675
 21
-4260
  0
LINE
  5
1ED
100
AcDbEntity
  8
wall-hidden
  6
ByLayer
 62
  256
370
   -1
100
AcDbLine
 10
3070
 20
-4435
 11
2.95446040294299e-13
 21
-4435
  0
LINE
  5
1EE
100
AcDbEntity
  8
wall-hidden
  6
ByLayer
 62
  256
370
   -1
100
AcDbLine
 10
3070
 20
-5400.000000000001
 11
3070
 21
-4435
  0
LINE
  5
1EF
100
AcDbEntity
  8
wall-hidden
  6
ByLayer
 62
  256
370
   -1
100
AcDbLine
 10
3070
 20
-5400.000000000001
 11
1365
 21
-5400.000000000001
  0
LINE
  5
1F0
100
AcDbEntity
  8
plasterboard-hidden
  6
ByLayer
 62
  256
370
   -1
100
AcDbLine
 10
3050
 20
-5380.000000000001
 11
1385
 21
-5380
  0
LINE
  5
1F1
100
AcDbEntity
  8
plasterboard-hidden
  6
ByLayer
 62
  256
370
   -1
100
AcDbLine
 10
3050
 20
-4455
 11
20.00000000000001
 21
-4455
  0
LINE
  5
1F2
100
AcDbEntity
  8
plasterboard-hidden
  6
ByLayer
 62
  256
370
   -1
100
AcDbLine
 10
3050
 20
-5380.000000000001
 11
3050
 21
-4455
  0
LINE
  5
1F3
100
AcDbEntity
  8
construction2
  6
ByLayer
 62
  256
370
   -1
100
AcDbLine
 10
2680
 20
-5380
 11
2680
 21
-6290
  0
LINE
  5
1F4
100
AcDbEntity
  8
construction2
  6
ByLayer
 62
  256
370
   -1
100
AcDbLine
 10
3835
 20
-7200
 11
3835
 21
-6690
  0
LINE
  5
1F5
100
AcDbEntity
  8
construction2
  6
ByLayer
 62
  256
370
   -1
100
AcDbLine
 10
3015
 20
-7550
 11
3015
 21
-7200
  0
LINE
  5
1F6
100
AcDbEntity
  8
construction2
  6
ByLayer
 62
  256
370
   -1
100
AcDbLine
 10
2865
 20
-7100
 11
3985
 21
-7100
  0
LINE
  5
1F7
100
AcDbEntity
  8
construction2
  6
ByLayer
 62
  256
370
   -1
100
AcDbLine
 10
1845
 20
-6465
 11
1385
 21
-6465
  0
LINE
  5
1F8
100
AcDbEntity
  8
construction2
  6
ByLayer
 62
  256
370
   -1
100
AcDbLine
 10
2865
 20
-6290
 11
3985
 21
-6290
  0
LINE
  5
1F9
100
AcDbEntity
  8
axes
  6
ByLayer
 62
  256
370
   -1
100
AcDbLine
 10
2915
 20
-7100
 11
3115
 21
-7100
  0
LINE
  5
1FA
100
AcDbEntity
  8
axes
  6
ByLayer
 62
  256
370
   -1
100
AcDbLine
 10
3735
 20
-7100
 11
3935
 21
-7100
  0
LINE
  5
1FB
100
AcDbEntity
  8
axes
  6
ByLayer
 62
  256
370
   -1
100
AcDbLine
 10
3015
 20
-7200
 11
3015
 21
-7000
  0
LINE
  5
1FC
100
AcDbEntity
  8
axes
  6
ByLayer
 62
  256
370
   -1
100
AcDbLine
 10
3835
 20
-7200
 11
3835
 21
-7000
  0
LINE
  5
1FD
100
AcDbEntity
  8
construction2
  6
ByLayer
 62
  256
370
   -1
100
AcDbLine
 10
2950
 20
-5380
 11
3150
 21
-5380
  0
LINE
  5
1FE
100
AcDbEntity
  8
construction2
  6
ByLayer
 62
  256
370
   -1
100
AcDbLine
 10
1385
 20
-5380
 11
3985
 21
-7200
  0
LINE
  5
1FF
100
AcDbEntity
  8
construction2
  6
ByLayer
 62
  256
370
   -1
100
AcDbLine
 10
3985
 20
-5380
 11
1385
 21
-7550
  0
LINE
  5
200
100
AcDbEntity
  8
construction2
  6
ByLayer
 62
  256
370
   -1
100
AcDbLine
 10
1845
 20
-7375
 11
1385
 21
-7375
  0
LINE
  5
201
100
AcDbEntity
  8
construction2
  6
ByLayer
 62
  256
370
   -1
100
AcDbLine
 10
2950
 20
-5555
 11
3150
 21
-5555
  0
LINE
  5
202
100
AcDbEntity
  8
axes
  6
ByLayer
 62
  256
370
   -1
100
AcDbLine
 10
2580
 20
-7375
 11
2780
 21
-7375
  0
LINE
  5
203
100
AcDbEntity
  8
axes
  6
ByLayer
 62
  256
370
   -1
100
AcDbLine
 10
2680
 20
-7475
 11
2680
 21
-7275
  0
LINE
  5
204
100
AcDbEntity
  8
construction2
  6
ByLayer
 62
  256
370
   -1
100
AcDbLine
 10
1594.677419354839
 20
-7550
 11
1594.677419354839
 21
-7040
  0
LINE
  5
205
100
AcDbEntity
  8
axes
  6
ByLayer
 62
  256
370
   -1
100
AcDbLine
 10
1494.677419354839
 20
-5555
 11
1694.677419354839
 21
-5555
  0
LINE
  5
206
100
AcDbEntity
  8
axes
  6
ByLayer
 62
  256
370
   -1
100
AcDbLine
 10
1494.677419354839
 20
-6465
 11
1694.677419354839
 21
-6465
  0
LINE
  5
207
100
AcDbEntity
  8
axes
  6
ByLayer
 62
  256
370
   -1
100
AcDbLine
 10
1494.677419354839
 20
-7375
 11
1694.677419354839
 21
-7375
  0
LINE
  5
208
100
AcDbEntity
  8
axes
  6
ByLayer
 62
  256
370
   -1
100
AcDbLine
 10
1594.677419354839
 20
-5655
 11
1594.677419354839
 21
-5455
  0
LINE
  5
209
100
AcDbEntity
  8
axes
  6
ByLayer
 62
  256
370
   -1
100
AcDbLine
 10
1594.677419354839
 20
-6565
 11
1594.677419354839
 21
-6365
  0
LINE
  5
20A
100
AcDbEntity
  8
axes
  6
ByLayer
 62
  256
370
   -1
100
AcDbLine
 10
1594.677419354839
 20
-7475
 11
1594.677419354839
 21
-7275
  0
LINE
  5
20B
100
AcDbEntity
  8
construction2
  6
ByLayer
 62
  256
370
   -1
100
AcDbLine
 10
3775
 20
-5940
 11
3775
 21
-3560
  0
LINE
  5
20C
100
AcDbEntity
  8
axes
  6
ByLayer
 62
  256
370
   -1
100
AcDbLine
 10
3675
 20
-5555
 11
3875
 21
-5555
  0
LINE
  5
20D
100
AcDbEntity
  8
axes
  6
ByLayer
 62
  256
370
   -1
100
AcDbLine
 10
3775
 20
-5655.26923076923
 11
3775
 21
-5455.26923076923
  0
LINE
  5
20E
100
AcDbEntity
  8
axes
  6
ByLayer
 62
  256
370
   -1
100
AcDbLine
 10
3775
 20
-6565
 11
3775
 21
-6365
  0
LINE
  5
20F
100
AcDbEntity
  8
axes
  6
ByLayer
 62
  256
370
   -1
100
AcDbLine
 10
3675
 20
-6465
 11
3875
 21
-6465
  0
LINE
  5
210
100
AcDbEntity
  8
construction2
  6
ByLayer
 62
  256
370
   -1
100
AcDbLine
 10
2950
 20
-4645
 11
3150
 21
-4645
  0
LINE
  5
211
100
AcDbEntity
  8
construction2
  6
ByLayer
 62
  256
370
   -1
100
AcDbLine
 10
2950
 20
-3735
 11
3150
 21
-3735
  0
LINE
  5
212
100
AcDbEntity
  8
axes
  6
ByLayer
 62
  256
370
   -1
100
AcDbLine
 10
3675
 20
-3735
 11
3875
 21
-3735
  0
LINE
  5
213
100
AcDbEntity
  8
axes
  6
ByLayer
 62
  256
370
   -1
100
AcDbLine
 10
3675
 20
-4645
 11
3875
 21
-4645
  0
LINE
  5
214
100
AcDbEntity
  8
axes
  6
ByLayer
 62
  256
370
   -1
100
AcDbLine
 10
3775
 20
-3835
 11
3775
 21
-3635
  0
LINE
  5
215
100
AcDbEntity
  8
axes
  6
ByLayer
 62
  256
370
   -1
100
AcDbLine
 10
3775
 20
-4745
 11
3775
 21
-4545
  0
LINE
  5
216
100
AcDbEntity
  8
thing-hidden
  6
ByLayer
 62
  256
370
   -1
100
AcDbLine
 10
4125
 20
-3560
 11
5475
 21
-3560
  0
LINE
  5
217
100
AcDbEntity
  8
construction3
  6
ByLayer
 62
  256
370
   -1
100
AcDbLine
 10
5275
 20
-219.9999999999998
 11
5275
 21
-3530
  0
LINE
  5
218
100
AcDbEntity
  8
construction3
  6
ByLayer
 62
  256
370
   -1
100
AcDbLine
 10
4125
 20
-3360
 11
5475
 21
-3360
  0
LINE
  5
219
100
AcDbEntity
  8
construction3
  6
ByLayer
 62
  256
370
   -1
100
AcDbLine
 10
220
 20
-20.00000000000005
 11
220
 21
-5380
  0
LINE
  5
21A
100
AcDbEntity
  8
construction3
  6
ByLayer
 62
  256
370
   -1
100
AcDbLine
 10
1062.5
 20
-20.00000000000026
 11
1062.5
 21
-5380
  0
LINE
  5
21B
100
AcDbEntity
  8
construction3
  6
ByLayer
 62
  256
370
   -1
100
AcDbLine
 10
1905
 20
-20.00000000000046
 11
1905
 21
-5380
  0
LINE
  5
21C
100
AcDbEntity
  8
construction3
  6
ByLayer
 62
  256
370
   -1
100
AcDbLine
 10
2747.5
 20
-20.00000000000067
 11
2747.5
 21
-5380.000000000001
  0
LINE
  5
21D
100
AcDbEntity
  8
construction3
  6
ByLayer
 62
  256
370
   -1
100
AcDbLine
 10
3590
 20
-20.00000000000087
 11
3590
 21
-5380.000000000001
  0
LINE
  5
21E
100
AcDbEntity
  8
construction3
  6
ByLayer
 62
  256
370
   -1
100
AcDbLine
 10
4432.5
 20
-20.00000000000108
 11
4432.5
 21
-5380.000000000001
  0
LINE
  5
21F
100
AcDbEntity
  8
axes
  6
ByLayer
 62
  256
370
   -1
100
AcDbLine
 10
5175
 20
-3360
 11
5375
 21
-3360
  0
LINE
  5
220
100
AcDbEntity
  8
axes
  6
ByLayer
 62
  256
370
   -1
100
AcDbLine
 10
5275
 20
-3460
 11
5275
 21
-3260
  0
LINE
  5
221
100
AcDbEntity
  8
axes
  6
ByLayer
 62
  256
370
   -1
100
AcDbLine
 10
4332.5
 20
-3360
 11
4532.5
 21
-3360
  0
LINE
  5
222
100
AcDbEntity
  8
axes
  6
ByLayer
 62
  256
370
   -1
100
AcDbLine
 10
4432.5
 20
-3460
 11
4432.5
 21
-3260
  0
LINE
  5
223
100
AcDbEntity
  8
axes
  6
ByLayer
 62
  256
370
   -1
100
AcDbLine
 10
3490
 20
-3360
 11
3690
 21
-3360
  0
LINE
  5
224
100
AcDbEntity
  8
axes
  6
ByLayer
 62
  256
370
   -1
100
AcDbLine
 10
3590
 20
-3460
 11
3590
 21
-3260
  0
LINE
  5
225
100
AcDbEntity
  8
axes
  6
ByLayer
 62
  256
370
   -1
100
AcDbLine
 10
2647.5
 20
-3360
 11
2847.5
 21
-3360
  0
LINE
  5
226
100
AcDbEntity
  8
axes
  6
ByLayer
 62
  256
370
   -1
100
AcDbLine
 10
2747.5
 20
-3460
 11
2747.5
 21
-3260
  0
LINE
  5
227
100
AcDbEntity
  8
axes
  6
ByLayer
 62
  256
370
   -1
100
AcDbLine
 10
1805
 20
-3360
 11
2005
 21
-3360
  0
LINE
  5
228
100
AcDbEntity
  8
axes
  6
ByLayer
 62
  256
370
   -1
100
AcDbLine
 10
1905
 20
-3460
 11
1905
 21
-3260
  0
LINE
  5
229
100
AcDbEntity
  8
axes
  6
ByLayer
 62
  256
370
   -1
100
AcDbLine
 10
962.5
 20
-3360
 11
1162.5
 21
-3360
  0
LINE
  5
22A
100
AcDbEntity
  8
axes
  6
ByLayer
 62
  256
370
   -1
100
AcDbLine
 10
1062.5
 20
-3460
 11
1062.5
 21
-3260
  0
LINE
  5
22B
100
AcDbEntity
  8
axes
  6
ByLayer
 62
  256
370
   -1
100
AcDbLine
 10
120
 20
-3360
 11
320
 21
-3360
  0
LINE
  5
22C
100
AcDbEntity
  8
axes
  6
ByLayer
 62
  256
370
   -1
100
AcDbLine
 10
220
 20
-3460
 11
220
 21
-3260
  0
LINE
  5
22D
100
AcDbEntity
  8
axes
  6
ByLayer
 62
  256
370
   -1
100
AcDbLine
 10
2599.035087719298
 20
-6369.824561403509
 11
2999.035087719298
 21
-6369.824561403509
  0
LINE
  5
22E
100
AcDbEntity
  8
axes
  6
ByLayer
 62
  256
370
   -1
100
AcDbLine
 10
2799.035087719298
 20
-6569.824561403509
 11
2799.035087719298
 21
-6169.824561403509
  0
LINE
  5
22F
100
AcDbEntity
  8
plasterboard-hidden
  6
ByLayer
 62
  256
370
   -1
100
AcDbLine
 10
5775
 20
-370
 11
19.99999999999997
 21
-370
  0
LINE
  5
230
100
AcDbEntity
  8
construction3
  6
ByLayer
 62
  256
370
   -1
100
AcDbLine
 10
389.9999999999997
 20
-1950
 11
19.99999999999964
 21
-1950
  0
LINE
  5
231
100
AcDbEntity
  8
construction3
  6
ByLayer
 62
  256
370
   -1
100
AcDbLine
 10
2920
 20
-540
 11
5675
 21
-540
  0
LINE
  5
232
100
AcDbEntity
  8
axes
  6
ByLayer
 62
  256
370
   -1
100
AcDbLine
 10
120
 20
-540
 11
320
 21
-540
  0
LINE
  5
233
100
AcDbEntity
  8
axes
  6
ByLayer
 62
  256
370
   -1
100
AcDbLine
 10
220
 20
-640
 11
220
 21
-440
  0
LINE
  5
234
100
AcDbEntity
  8
axes
  6
ByLayer
 62
  256
370
   -1
100
AcDbLine
 10
962.5
 20
-540
 11
1162.5
 21
-540
  0
LINE
  5
235
100
AcDbEntity
  8
axes
  6
ByLayer
 62
  256
370
   -1
100
AcDbLine
 10
1062.5
 20
-640
 11
1062.5
 21
-440
  0
LINE
  5
236
100
AcDbEntity
  8
axes
  6
ByLayer
 62
  256
370
   -1
100
AcDbLine
 10
1805
 20
-540
 11
2005
 21
-540
  0
LINE
  5
237
100
AcDbEntity
  8
axes
  6
ByLayer
 62
  256
370
   -1
100
AcDbLine
 10
1905
 20
-640
 11
1905
 21
-440
  0
LINE
  5
238
100
AcDbEntity
  8
axes
  6
ByLayer
 62
  256
370
   -1
100
AcDbLine
 10
2647.5
 20
-540
 11
2847.5
 21
-540
  0
LINE
  5
239
100
AcDbEntity
  8
axes
  6
ByLayer
 62
  256
370
   -1
100
AcDbLine
 10
2747.5
 20
-640
 11
2747.5
 21
-440
  0
LINE
  5
23A
100
AcDbEntity
  8
axes
  6
ByLayer
 62
  256
370
   -1
100
AcDbLine
 10
3490
 20
-540
 11
3690
 21
-540
  0
LINE
  5
23B
100
AcDbEntity
  8
axes
  6
ByLayer
 62
  256
370
   -1
100
AcDbLine
 10
3590
 20
-640
 11
3590
 21
-440
  0
LINE
  5
23C
100
AcDbEntity
  8
axes
  6
ByLayer
 62
  256
370
   -1
100
AcDbLine
 10
4332.5
 20
-540
 11
4532.5
 21
-540
  0
LINE
  5
23D
100
AcDbEntity
  8
axes
  6
ByLayer
 62
  256
370
   -1
100
AcDbLine
 10
4432.5
 20
-640
 11
4432.5
 21
-440
  0
LINE
  5
23E
100
AcDbEntity
  8
axes
  6
ByLayer
 62
  256
370
   -1
100
AcDbLine
 10
5175
 20
-540
 11
5375
 21
-540
  0
LINE
  5
23F
100
AcDbEntity
  8
axes
  6
ByLayer
 62
  256
370
   -1
100
AcDbLine
 10
5275
 20
-640
 11
5275
 21
-440
  0
LINE
  5
240
100
AcDbEntity
  8
construction3
  6
ByLayer
 62
  256
370
   -1
100
AcDbLine
 10
119.9999999999998
 20
-1480
 11
319.9999999999998
 21
-1480
  0
LINE
  5
241
100
AcDbEntity
  8
construction3
  6
ByLayer
 62
  256
370
   -1
100
AcDbLine
 10
119.9999999999997
 20
-2420
 11
319.9999999999997
 21
-2420
  0
LINE
  5
242
100
AcDbEntity
  8
axes
  6
ByLayer
 62
  256
370
   -1
100
AcDbLine
 10
5175
 20
-1480
 11
5375
 21
-1480
  0
LINE
  5
243
100
AcDbEntity
  8
axes
  6
ByLayer
 62
  256
370
   -1
100
AcDbLine
 10
5275
 20
-1580
 11
5275
 21
-1380
  0
LINE
  5
244
100
AcDbEntity
  8
axes
  6
ByLayer
 62
  256
370
   -1
100
AcDbLine
 10
120
 20
-1480
 11
320
 21
-1480
  0
LINE
  5
245
100
AcDbEntity
  8
axes
  6
ByLayer
 62
  256
370
   -1
100
AcDbLine
 10
220
 20
-1580
 11
220
 21
-1380
  0
LINE
  5
246
100
AcDbEntity
  8
axes
  6
ByLayer
 62
  256
370
   -1
100
AcDbLine
 10
120
 20
-2420
 11
320
 21
-2420
  0
LINE
  5
247
100
AcDbEntity
  8
axes
  6
ByLayer
 62
  256
370
   -1
100
AcDbLine
 10
220
 20
-2520
 11
220
 21
-2320
  0
LINE
  5
248
100
AcDbEntity
  8
axes
  6
ByLayer
 62
  256
370
   -1
100
AcDbLine
 10
5175
 20
-2420
 11
5375
 21
-2420
  0
LINE
  5
249
100
AcDbEntity
  8
axes
  6
ByLayer
 62
  256
370
   -1
100
AcDbLine
 10
5275
 20
-2520
 11
5275
 21
-2320
  0
LINE
  5
24A
100
AcDbEntity
  8
construction4
  6
ByLayer
 62
  256
370
   -1
100
AcDbLine
 10
220
 20
-540
 11
3590
 21
-3360
  0
LINE
  5
24B
100
AcDbEntity
  8
construction4
  6
ByLayer
 62
  256
370
   -1
100
AcDbLine
 10
220
 20
-3360
 11
3590
 21
-540
  0
LINE
  5
24C
100
AcDbEntity
  8
construction4
  6
ByLayer
 62
  256
370
   -1
100
AcDbLine
 10
5275
 20
-540
 11
1905
 21
-3360
  0
LINE
  5
24D
100
AcDbEntity
  8
construction4
  6
ByLayer
 62
  256
370
   -1
100
AcDbLine
 10
5275
 20
-3360
 11
1905
 21
-540
  0
LINE
  5
24E
100
AcDbEntity
  8
construction4
  6
ByLayer
 62
  256
370
   -1
100
AcDbLine
 10
4111
 20
-369.9999999999995
 11
4111
 21
-3530
  0
LINE
  5
24F
100
AcDbEntity
  8
construction4
  6
ByLayer
 62
  256
370
   -1
100
AcDbLine
 10
1384
 20
-20.00000000000033
 11
1384
 21
-5380
  0
LINE
  5
250
100
AcDbEntity
  8
construction4
  6
ByLayer
 62
  256
370
   -1
100
AcDbLine
 10
2702.5
 20
-320
 11
2702.5
 21
-120
  0
LINE
  5
251
100
AcDbEntity
  8
axes
  6
ByLayer
 62
  256
370
   -1
100
AcDbLine
 10
3911
 20
-1950
 11
4311
 21
-1950
  0
LINE
  5
252
100
AcDbEntity
  8
axes
  6
ByLayer
 62
  256
370
   -1
100
AcDbLine
 10
4111
 20
-2150
 11
4111
 21
-1750
  0
LINE
  5
253
100
AcDbEntity
  8
axes
  6
ByLayer
 62
  256
370
   -1
100
AcDbLine
 10
1184
 20
-1950
 11
1584
 21
-1950
  0
LINE
  5
254
100
AcDbEntity
  8
axes
  6
ByLayer
 62
  256
370
   -1
100
AcDbLine
 10
1384
 20
-2150
 11
1384
 21
-1750
  0
INSERT
  5
255
100
AcDbEntity
  8
light
  6
ByLayer
 62
  256
370
   -1
100
AcDbBlockReference
  2
lamp1
 10
4111.000000000001
 20
-2075
 30
0
 41
50
 42
50
 43
0
 50
0
 70
    1
 71
    1
 44
0
 45
0
  0
INSERT
  5
256
100
AcDbEntity
  8
light
  6
ByLayer
 62
  256
370
   -1
100
AcDbBlockReference
  2
lamp1
 10
1384.000000000001
 20
-2075.000000000001
 30
0
 41
50
 42
50
 43
0
 50
0
 70
    1
 71
    1
 44
0
 45
0
  0
INSERT
  5
257
100
AcDbEntity
  8
light
  6
ByLayer
 62
  256
370
   -1
100
AcDbBlockReference
  2
lamp1
 10
2799.035087719299
 20
-6494.824561403509
 30
0
 41
50
 42
50
 43
0
 50
0
 70
    1
 71
    1
 44
0
 45
0
  0
INSERT
  5
258
100
AcDbEntity
  8
light
  6
ByLayer
 62
  256
370
   -1
100
AcDbBlockReference
  2
elk7
 10
3795
 20
-7140
 30
0
 41
20
 42
20
 43
0
 50
0
 70
    1
 71
    1
 44
0
 45
0
  0
INSERT
  5
259
100
AcDbEntity
  8
light
  6
ByLayer
 62
  256
370
   -1
100
AcDbBlockReference
  2
elk7
 10
2975
 20
-7140
 30
0
 41
20
 42
20
 43
0
 50
0
 70
    1
 71
    1
 44
0
 45
0
  0
INSERT
  5
25A
100
AcDbEntity
  8
light
  6
ByLayer
 62
  256
370
   -1
100
AcDbBlockReference
  2
elk6
 10
1554.68
 20
-7415
 30
0
 41
20
 42
20
 43
0
 50
0
 70
    1
 71
    1
 44
0
 45
0
  0
INSERT
  5
25B
100
AcDbEntity
  8
light
  6
ByLayer
 62
  256
370
   -1
100
AcDbBlockReference
  2
elk6
 10
2640.002580645161
 20
-7415
 30
0
 41
20
 42
20
 43
0
 50
0
 70
    1
 71
    1
 44
0
 45
0
  0
INSERT
  5
25C
100
AcDbEntity
  8
light
  6
ByLayer
 62
  256
370
   -1
100
AcDbBlockReference
  2
elk6
 10
1554.68
 20
-6505
 30
0
 41
20
 42
20
 43
0
 50
0
 70
    1
 71
    1
 44
0
 45
0
  0
INSERT
  5
25D
100
AcDbEntity
  8
light
  6
ByLayer
 62
  256
370
   -1
100
AcDbBlockReference
  2
elk6
 10
3735
 20
-6505
 30
0
 41
20
 42
20
 43
0
 50
0
 70
    1
 71
    1
 44
0
 45
0
  0
INSERT
  5
25E
100
AcDbEntity
  8
light
  6
ByLayer
 62
  256
370
   -1
100
AcDbBlockReference
  2
elk6
 10
3735
 20
-5595
 30
0
 41
20
 42
20
 43
0
 50
0
 70
    1
 71
    1
 44
0
 45
0
  0
INSERT
  5
25F
100
AcDbEntity
  8
light
  6
ByLayer
 62
  256
370
   -1
100
AcDbBlockReference
  2
elk6
 10
1554.677419354839
 20
-5595
 30
0
 41
20
 42
20
 43
0
 50
0
 70
    1
 71
    1
 44
0
 45
0
  0
INSERT
  5
260
100
AcDbEntity
  8
light
  6
ByLayer
 62
  256
370
   -1
100
AcDbBlockReference
  2
elk6
 10
3735
 20
-4685
 30
0
 41
20
 42
20
 43
0
 50
0
 70
    1
 71
    1
 44
0
 45
0
  0
INSERT
  5
261
100
AcDbEntity
  8
light
  6
ByLayer
 62
  256
370
   -1
100
AcDbBlockReference
  2
elk6
 10
3735
 20
-3775
 30
0
 41
20
 42
20
 43
0
 50
0
 70
    1
 71
    1
 44
0
 45
0
  0
INSERT
  5
262
100
AcDbEntity
  8
light
  6
ByLayer
 62
  256
370
   -1
100
AcDbBlockReference
  2
elk6
 10
5235
 20
-3400
 30
0
 41
20
 42
20
 43
0
 50
0
 70
    1
 71
    1
 44
0
 45
0
  0
INSERT
  5
263
100
AcDbEntity
  8
light
  6
ByLayer
 62
  256
370
   -1
100
AcDbBlockReference
  2
elk6
 10
4392.5
 20
-3400
 30
0
 41
20
 42
20
 43
0
 50
0
 70
    1
 71
    1
 44
0
 45
0
  0
INSERT
  5
264
100
AcDbEntity
  8
light
  6
ByLayer
 62
  256
370
   -1
100
AcDbBlockReference
  2
elk6
 10
3550
 20
-3400
 30
0
 41
20
 42
20
 43
0
 50
0
 70
    1
 71
    1
 44
0
 45
0
  0
INSERT
  5
265
100
AcDbEntity
  8
light
  6
ByLayer
 62
  256
370
   -1
100
AcDbBlockReference
  2
elk6
 10
2707.5
 20
-3400
 30
0
 41
20
 42
20
 43
0
 50
0
 70
    1
 71
    1
 44
0
 45
0
  0
INSERT
  5
266
100
AcDbEntity
  8
light
  6
ByLayer
 62
  256
370
   -1
100
AcDbBlockReference
  2
elk6
 10
1865
 20
-3400
 30
0
 41
20
 42
20
 43
0
 50
0
 70
    1
 71
    1
 44
0
 45
0
  0
INSERT
  5
267
100
AcDbEntity
  8
light
  6
ByLayer
 62
  256
370
   -1
100
AcDbBlockReference
  2
elk6
 10
1022.5
 20
-3400
 30
0
 41
20
 42
20
 43
0
 50
0
 70
    1
 71
    1
 44
0
 45
0
  0
INSERT
  5
268
100
AcDbEntity
  8
light
  6
ByLayer
 62
  256
370
   -1
100
AcDbBlockReference
  2
elk6
 10
180
 20
-3400
 30
0
 41
20
 42
20
 43
0
 50
0
 70
    1
 71
    1
 44
0
 45
0
  0
INSERT
  5
269
100
AcDbEntity
  8
light
  6
ByLayer
 62
  256
370
   -1
100
AcDbBlockReference
  2
elk6
 10
180
 20
-2460
 30
0
 41
20
 42
20
 43
0
 50
0
 70
    1
 71
    1
 44
0
 45
0
  0
INSERT
  5
26A
100
AcDbEntity
  8
light
  6
ByLayer
 62
  256
370
   -1
100
AcDbBlockReference
  2
elk6
 10
180
 20
-1520
 30
0
 41
20
 42
20
 43
0
 50
0
 70
    1
 71
    1
 44
0
 45
0
  0
INSERT
  5
26B
100
AcDbEntity
  8
light
  6
ByLayer
 62
  256
370
   -1
100
AcDbBlockReference
  2
elk6
 10
180
 20
-580
 30
0
 41
20
 42
20
 43
0
 50
0
 70
    1
 71
    1
 44
0
 45
0
  0
INSERT
  5
26C
100
AcDbEntity
  8
light
  6
ByLayer
 62
  256
370
   -1
100
AcDbBlockReference
  2
elk6
 10
1022.5
 20
-580
 30
0
 41
20
 42
20
 43
0
 50
0
 70
    1
 71
    1
 44
0
 45
0
  0
INSERT
  5
26D
100
AcDbEntity
  8
light
  6
ByLayer
 62
  256
370
   -1
100
AcDbBlockReference
  2
elk6
 10
1865
 20
-580
 30
0
 41
20
 42
20
 43
0
 50
0
 70
    1
 71
    1
 44
0
 45
0
  0
INSERT
  5
26E
100
AcDbEntity
  8
light
  6
ByLayer
 62
  256
370
   -1
100
AcDbBlockReference
  2
elk6
 10
2707.5
 20
-580
 30
0
 41
20
 42
20
 43
0
 50
0
 70
    1
 71
    1
 44
0
 45
0
  0
INSERT
  5
26F
100
AcDbEntity
  8
light
  6
ByLayer
 62
  256
370
   -1
100
AcDbBlockReference
  2
elk6
 10
3550
 20
-580
 30
0
 41
20
 42
20
 43
0
 50
0
 70
    1
 71
    1
 44
0
 45
0
  0
INSERT
  5
270
100
AcDbEntity
  8
light
  6
ByLayer
 62
  256
370
   -1
100
AcDbBlockReference
  2
elk6
 10
4392.5
 20
-580
 30
0
 41
20
 42
20
 43
0
 50
0
 70
    1
 71
    1
 44
0
 45
0
  0
INSERT
  5
271
100
AcDbEntity
  8
light
  6
ByLayer
 62
  256
370
   -1
100
AcDbBlockReference
  2
elk6
 10
5235
 20
-580
 30
0
 41
20
 42
20
 43
0
 50
0
 70
    1
 71
    1
 44
0
 45
0
  0
INSERT
  5
272
100
AcDbEntity
  8
light
  6
ByLayer
 62
  256
370
   -1
100
AcDbBlockReference
  2
elk6
 10
5235
 20
-1520
 30
0
 41
20
 42
20
 43
0
 50
0
 70
    1
 71
    1
 44
0
 45
0
  0
INSERT
  5
273
100
AcDbEntity
  8
light
  6
ByLayer
 62
  256
370
   -1
100
AcDbBlockReference
  2
elk6
 10
5235
 20
-2460
 30
0
 41
20
 42
20
 43
0
 50
0
 70
    1
 71
    1
 44
0
 45
0
  0
LINE
  5
274
100
AcDbEntity
  8
wall-hidden
  6
ByLayer
 62
  256
370
   -1
100
AcDbLine
 10
1365
 20
-6290
 11
1365
 21
-7040
  0
LINE
  5
275
100
AcDbEntity
  8
wall-hidden
  6
ByLayer
 62
  256
370
   -1
100
AcDbLine
 10
1265
 20
-6290
 11
1265
 21
-7040
  0
LINE
  5
276
100
AcDbEntity
  8
plasterboard-hidden
  6
ByLayer
 62
  256
370
   -1
100
AcDbLine
 10
1385
 20
-6290
 11
1385
 21
-7040
  0
LINE
  5
277
100
AcDbEntity
  8
plasterboard-hidden
  6
ByLayer
 62
  256
370
   -1
100
AcDbLine
 10
1245
 20
-6290
 11
1245
 21
-7040
  0
LINE
  5
278
100
AcDbEntity
  8
plasterboard-hidden
  6
ByLayer
 62
  256
370
   -1
100
AcDbLine
 10
3985
 20
-5940
 11
3985
 21
-6690
  0
LINE
  5
279
100
AcDbEntity
  8
wall-hidden
  6
ByLayer
 62
  256
370
   -1
100
AcDbLine
 10
4005
 20
-5940
 11
4005
 21
-6690
  0
LINE
  5
27A
100
AcDbEntity
  8
wall-hidden
  6
ByLayer
 62
  256
370
   -1
100
AcDbLine
 10
4105
 20
-6690
 11
4105
 21
-5940
  0
LINE
  5
27B
100
AcDbEntity
  8
axes
  6
ByLayer
 62
  256
370
   -1
100
AcDbLine
 10
-300
 20
-1950
 11
6095
 21
-1950
  0
LINE
  5
27C
100
AcDbEntity
  8
wall-hidden
  6
ByLayer
 62
  256
370
   -1
100
AcDbLine
 10
1825
 20
-7570
 11
2850
 21
-7569.999999999995
  0
LINE
  5
27D
100
AcDbEntity
  8
plasterboard-hidden
  6
ByLayer
 62
  256
370
   -1
100
AcDbLine
 10
1845
 20
-7550
 11
2830
 21
-7550
  0
LINE
  5
27E
100
AcDbEntity
  8
thing-hidden1
  6
ByLayer
 62
  256
370
   -1
100
AcDbLine
 10
470
 20
-370
 11
470
 21
-3530
  0
MTEXT
  5
27F
100
AcDbEntity
  8
room-num
  6
ByLayer
 62
  256
370
   -1
100
AcDbMText
 10
4400
 20
-2500
 30
0
 40
90
 41
180
 71
    5
 72
    1
  1
803
  7
unicode
210
0
220
0
230
1
 50
0
 73
    2
 44
1
  0
CIRCLE
  5
280
100
AcDbEntity
  8
room-num
  6
ByLayer
 62
  256
370
   -1
100
AcDbCircle
 10
4398.459836480495
 20
-2498.15331646921
 40
150
  0
MTEXT
  5
281
100
AcDbEntity
  8
room-num
  6
ByLayer
 62
  256
370
   -1
100
AcDbMText
 10
2300
 20
-6100
 30
0
 40
90
 41
160
 71
    5
 72
    1
  1
801
  7
unicode
210
0
220
0
230
1
 50
0
 73
    2
 44
1
  0
CIRCLE
  5
282
100
AcDbEntity
  8
room-num
  6
ByLayer
 62
  256
370
   -1
100
AcDbCircle
 10
2308.421038222403
 20
-6098.075199063625
 40
150
  0
LWPOLYLINE
  5
283
100
AcDbEntity
  8
thing-hidden1
  6
ByLayer
 62
  256
370
   -1
100
AcDbPolyline
 90
    4
 70
    1
 43
0
 10
19.99999999999954
 20
-7550
 10
1245
 20
-7550
 10
1245
 20
-7050
 10
19.99999999999954
 20
-7050
  0
LWPOLYLINE
  5
284
100
AcDbEntity
  8
thing-hidden1
  6
ByLayer
 62
  256
370
   -1
100
AcDbPolyline
 90
    4
 70
    1
 43
0
 10
20
 20
-5520
 10
780
 20
-5520
 10
780
 20
-6120
 10
20
 20
-6120
  0
LINE
  5
285
100
AcDbEntity
  8
construction5
  6
ByLayer
 62
  256
370
   -1
100
AcDbLine
 10
1245
 20
-6850
 11
19.9999999999996
 21
-6850
  0
LINE
  5
286
100
AcDbEntity
  8
construction5
  6
ByLayer
 62
  256
370
   -1
100
AcDbLine
 10
780
 20
-6450
 11
1245
 21
-6450
  0
LINE
  5
287
100
AcDbEntity
  8
construction5
  6
ByLayer
 62
  256
370
   -1
100
AcDbLine
 10
219.9999999999995
 20
-7550
 11
220
 21
-5520
  0
LINE
  5
288
100
AcDbEntity
  8
construction5
  6
ByLayer
 62
  256
370
   -1
100
AcDbLine
 10
1045
 20
-6290
 11
1045
 21
-7040
  0
LINE
  5
289
100
AcDbEntity
  8
axes
  6
ByLayer
 62
  256
370
   -1
100
AcDbLine
 10
945
 20
-6450
 11
1145
 21
-6450
  0
LINE
  5
28A
100
AcDbEntity
  8
axes
  6
ByLayer
 62
  256
370
   -1
100
AcDbLine
 10
1045
 20
-6550
 11
1045
 21
-6350
  0
INSERT
  5
28B
100
AcDbEntity
  8
light
  6
ByLayer
 62
  256
370
   -1
100
AcDbBlockReference
  2
elk6
 10
1005.002580645161
 20
-6490
 30
0
 41
20
 42
20
 43
0
 50
0
 70
    1
 71
    1
 44
0
 45
0
  0
LINE
  5
28C
100
AcDbEntity
  8
axes
  6
ByLayer
 62
  256
370
   -1
100
AcDbLine
 10
945
 20
-6850
 11
1145
 21
-6850
  0
LINE
  5
28D
100
AcDbEntity
  8
axes
  6
ByLayer
 62
  256
370
   -1
100
AcDbLine
 10
1045
 20
-6950
 11
1045
 21
-6750
  0
INSERT
  5
28E
100
AcDbEntity
  8
light
  6
ByLayer
 62
  256
370
   -1
100
AcDbBlockReference
  2
elk6
 10
1005.002580645161
 20
-6890
 30
0
 41
20
 42
20
 43
0
 50
0
 70
    1
 71
    1
 44
0
 45
0
  0
LINE
  5
28F
100
AcDbEntity
  8
axes
  6
ByLayer
 62
  256
370
   -1
100
AcDbLine
 10
119.9999999999998
 20
-6450
 11
319.9999999999998
 21
-6450
  0
LINE
  5
290
100
AcDbEntity
  8
axes
  6
ByLayer
 62
  256
370
   -1
100
AcDbLine
 10
219.9999999999998
 20
-6550
 11
219.9999999999998
 21
-6350
  0
INSERT
  5
291
100
AcDbEntity
  8
light
  6
ByLayer
 62
  256
370
   -1
100
AcDbBlockReference
  2
elk6
 10
180.0025806451611
 20
-6490
 30
0
 41
20
 42
20
 43
0
 50
0
 70
    1
 71
    1
 44
0
 45
0
  0
LINE
  5
292
100
AcDbEntity
  8
axes
  6
ByLayer
 62
  256
370
   -1
100
AcDbLine
 10
119.9999999999997
 20
-6849.997419354839
 11
319.9999999999997
 21
-6849.997419354839
  0
LINE
  5
293
100
AcDbEntity
  8
axes
  6
ByLayer
 62
  256
370
   -1
100
AcDbLine
 10
219.9999999999997
 20
-6949.997419354839
 11
219.9999999999997
 21
-6749.997419354839
  0
INSERT
  5
294
100
AcDbEntity
  8
light
  6
ByLayer
 62
  256
370
   -1
100
AcDbBlockReference
  2
elk6
 10
180.002580645161
 20
-6889.997419354839
 30
0
 41
20
 42
20
 43
0
 50
0
 70
    1
 71
    1
 44
0
 45
0
  0
LWPOLYLINE
  5
295
100
AcDbEntity
  8
plasterboard
  6
ByLayer
 62
  256
370
   -1
100
AcDbPolyline
 90
    4
 70
    1
 43
0
 10
4105
 20
-7420
 10
4085
 20
-7420
 10
4085
 20
-7570
 10
4105
 20
-7570
  0
LINE
  5
296
100
AcDbEntity
  8
construction6
  6
ByLayer
 62
  256
370
   -1
100
AcDbLine
 10
4638.5
 20
-5180
 11
4638.5
 21
-5940
  0
LINE
  5
297
100
AcDbEntity
  8
construction6
  6
ByLayer
 62
  256
370
   -1
100
AcDbLine
 10
5172
 20
-5180
 11
5172
 21
-5940
  0
LINE
  5
298
100
AcDbEntity
  8
construction6
  6
ByLayer
 62
  256
370
   -1
100
AcDbLine
 10
5795
 20
-5777.5
 11
4105
 21
-5777.5
  0
LINE
  5
299
100
AcDbEntity
  8
construction6
  6
ByLayer
 62
  256
370
   -1
100
AcDbLine
 10
5795
 20
-6375
 11
4105
 21
-6375
  0
LINE
  5
29A
100
AcDbEntity
  8
construction6
  6
ByLayer
 62
  256
370
   -1
100
AcDbLine
 10
5795
 20
-6972.5
 11
4105
 21
-6972.5
  0
LINE
  5
29B
100
AcDbEntity
  8
axes
  6
ByLayer
 62
  256
370
   -1
100
AcDbLine
 10
4638.5
 20
-5877.5
 11
4638.5
 21
-5677.5
  0
LINE
  5
29C
100
AcDbEntity
  8
axes
  6
ByLayer
 62
  256
370
   -1
100
AcDbLine
 10
4538.5
 20
-5777.5
 11
4738.5
 21
-5777.5
  0
INSERT
  5
29D
100
AcDbEntity
  8
light
  6
ByLayer
 62
  256
370
   -1
100
AcDbBlockReference
  2
elk6
 10
4598.5
 20
-5817.5
 30
0
 41
20
 42
20
 43
0
 50
0
 70
    1
 71
    1
 44
0
 45
0
  0
LINE
  5
29E
100
AcDbEntity
  8
axes
  6
ByLayer
 62
  256
370
   -1
100
AcDbLine
 10
5172
 20
-5877.5
 11
5172
 21
-5677.5
  0
LINE
  5
29F
100
AcDbEntity
  8
axes
  6
ByLayer
 62
  256
370
   -1
100
AcDbLine
 10
5072
 20
-5777.5
 11
5272
 21
-5777.5
  0
INSERT
  5
2A0
100
AcDbEntity
  8
light
  6
ByLayer
 62
  256
370
   -1
100
AcDbBlockReference
  2
elk6
 10
5132
 20
-5817.5
 30
0
 41
20
 42
20
 43
0
 50
0
 70
    1
 71
    1
 44
0
 45
0
  0
LINE
  5
2A1
100
AcDbEntity
  8
axes
  6
ByLayer
 62
  256
370
   -1
100
AcDbLine
 10
4638.5
 20
-7072.5
 11
4638.5
 21
-6872.5
  0
LINE
  5
2A2
100
AcDbEntity
  8
axes
  6
ByLayer
 62
  256
370
   -1
100
AcDbLine
 10
4538.5
 20
-6972.5
 11
4738.5
 21
-6972.5
  0
INSERT
  5
2A3
100
AcDbEntity
  8
light
  6
ByLayer
 62
  256
370
   -1
100
AcDbBlockReference
  2
elk6
 10
4598.5
 20
-7012.5
 30
0
 41
20
 42
20
 43
0
 50
0
 70
    1
 71
    1
 44
0
 45
0
  0
LINE
  5
2A4
100
AcDbEntity
  8
axes
  6
ByLayer
 62
  256
370
   -1
100
AcDbLine
 10
5172
 20
-7072.5
 11
5172
 21
-6872.5
  0
LINE
  5
2A5
100
AcDbEntity
  8
axes
  6
ByLayer
 62
  256
370
   -1
100
AcDbLine
 10
5072
 20
-6972.5
 11
5272
 21
-6972.5
  0
INSERT
  5
2A6
100
AcDbEntity
  8
light
  6
ByLayer
 62
  256
370
   -1
100
AcDbBlockReference
  2
elk6
 10
5132
 20
-7012.5
 30
0
 41
20
 42
20
 43
0
 50
0
 70
    1
 71
    1
 44
0
 45
0
  0
LINE
  5
2A7
100
AcDbEntity
  8
wall-hidden
  6
ByLayer
 62
  256
370
   -1
100
AcDbLine
 10
5705
 20
-6490
 11
5705
 21
-7570
  0
INSERT
  5
2A8
100
AcDbEntity
  8
outlet
  6
ByLayer
 62
  256
370
   -1
100
AcDbBlockReference
  2
my-switch-1
 10
1500
 20
-7200
 30
0
 41
30
 42
30
 43
0
 50
0
 70
    1
 71
    1
 44
200
 45
200
  0
INSERT
  5
2A9
100
AcDbEntity
  8
outlet
  6
ByLayer
 62
  256
370
   -1
100
AcDbBlockReference
  2
my-switch-1
 10
1900
 20
-7500
 30
0
 41
30
 42
30
 43
0
 50
0
 70
    1
 71
    1
 44
200
 45
200
  0
INSERT
  5
2AA
100
AcDbEntity
  8
outlet
  6
ByLayer
 62
  256
370
   -1
100
AcDbBlockReference
  2
my-switch-1
 10
2050
 20
-7500
 30
0
 41
30
 42
30
 43
0
 50
0
 70
    1
 71
    1
 44
200
 45
200
  0
LWPOLYLINE
  5
2AB
100
AcDbEntity
  8
wire
  6
ByLayer
 62
  256
370
   -1
100
AcDbPolyline
 90
    5
 70
    0
 43
0
 10
1538.999999999999
 20
-7080.000000000005
 42
0.1316524975873958
 10
1045.002580645159
 20
-6450.000000000001
 42
0.1316524975873959
 10
219.9999999999999
 20
-6450
 42
0.1316524975873956
 10
219.9999999999959
 20
-6849.997419354837
 42
0.1316524975873959
 10
1045
 20
-6857.821860645163
 42
0.1316524975873959
  0
LWPOLYLINE
  5
2AC
100
AcDbEntity
  8
wire
  6
ByLayer
 62
  256
370
   -1
100
AcDbPolyline
 90
    9
 70
    0
 43
0
 10
1939.000085424281
 20
-7380
 42
0.1316524975873957
 10
1594.68
 20
-7375
 42
0.3639702342662024
 10
1594.677419354839
 20
-6465
 42
0.2216946626429396
 10
1594.677419354836
 20
-5555
 42
0.2216946626429401
 10
3774.999999999998
 20
-3735
 42
-0.2216946626429396
 10
3775
 20
-4645
 42
0.2216946626429395
 10
3775
 20
-5555
 42
-0.2216946626429396
 10
3775
 20
-6467.162420000004
 42
0.2216946626429401
 10
2679.999999999999
 20
-7375
 42
0.2216946626429401
  0
INSERT
  5
2AD
100
AcDbEntity
  8
outlet
  6
ByLayer
 62
  256
370
   -1
100
AcDbBlockReference
  2
my-switch-1
 10
2500
 20
-7200
 30
0
 41
30
 42
30
 43
0
 50
0
 70
    1
 71
    1
 44
200
 45
200
  0
LWPOLYLINE
  5
2AE
100
AcDbEntity
  8
wire
  6
ByLayer
 62
  256
370
   -1
100
AcDbPolyline
 90
    3
 70
    0
 43
0
 10
2619.999999999995
 20
-7089.000000000005
 42
0.2216946626429399
 10
3015
 20
-7100
 42
-0.2216946626429401
 10
3835
 20
-7100
 42
-0.2216946626429401
  0
LWPOLYLINE
  5
2AF
100
AcDbEntity
  8
wire
  6
ByLayer
 62
  256
370
   -1
100
AcDbPolyline
 90
    2
 70
    0
 43
0
 10
2160.999999999995
 20
-7380
 42
-0.2216946626429399
 10
2690.781887719309
 20
-6432.324561403509
 42
-0.2216946626429399
  0
INSERT
  5
2B0
100
AcDbEntity
  8
outlet
  6
ByLayer
 62
  256
370
   -1
100
AcDbBlockReference
  2
my-switch-2
 10
3500
 20
-6000
 30
0
 41
30
 42
30
 43
0
 50
0
 70
    1
 71
    1
 44
200
 45
200
  0
INSERT
  5
2B1
100
AcDbEntity
  8
outlet
  6
ByLayer
 62
  256
370
   -1
100
AcDbBlockReference
  2
my-free-wire
 10
5500
 20
-6300
 30
0
 41
30
 42
30
 43
0
 50
0
 70
    1
 71
    1
 44
200
 45
200
  0
LWPOLYLINE
  5
2B2
100
AcDbEntity
  8
wire
  6
ByLayer
 62
  256
370
   -1
100
AcDbPolyline
 90
    5
 70
    0
 43
0
 10
3619.999999999995
 20
-5889.000000000004
 42
-0.2216946626429401
 10
4638.5
 20
-5777.5
 42
-0.2216946626429399
 10
5172
 20
-5777.5
 42
0.2216946626429396
 10
5172
 20
-6972.5
 42
-0.2216946626429399
 10
4638.5
 20
-6977.490839999991
 42
-0.2216946626429399
  0
LWPOLYLINE
  5
2B3
100
AcDbEntity
  8
wire
  6
ByLayer
 62
  256
370
   -1
100
AcDbPolyline
 90
    2
 70
    0
 43
0
 10
3539.000000000004
 20
-5969.999999999995
 42
0.2216946626429401
 10
5499.999999999996
 20
-6200.000000000005
 42
0.2216946626429401
  0
MTEXT
  5
2B4
100
AcDbEntity
  8
room-num
  6
ByLayer
 62
  256
370
   -1
100
AcDbMText
 10
4900
 20
-6000
 30
0
 40
90
 41
180
 71
    5
 72
    1
  1
805
  7
unicode
210
0
220
0
230
1
 50
0
 73
    2
 44
1
  0
CIRCLE
  5
2B5
100
AcDbEntity
  8
room-num
  6
ByLayer
 62
  256
370
   -1
100
AcDbCircle
 10
4901.103012283665
 20
-5995.888258639482
 40
150
  0
INSERT
  5
2B6
100
AcDbEntity
  8
outlet
  6
ByLayer
 62
  256
370
   -1
100
AcDbBlockReference
  2
my-switch-2-pass
 10
1500
 20
-5300
 30
0
 41
30
 42
30
 43
0
 50
0
 70
    1
 71
    1
 44
200
 45
200
  0
MTEXT
  5
2B7
100
AcDbEntity
  8
outlet
  6
ByLayer
 62
  256
370
   -1
100
AcDbMText
 10
738.75
 20
-4705
 30
0
 40
90
 41
1377.5
 71
    5
 72
    1
  1
Лестничная группа.\PПроходной.\PСм. план 9-го этажа.
  7
unicode
210
0
220
0
230
1
 50
0
 73
    2
 44
1
  0
LINE
  5
2B8
100
AcDbEntity
  8
outlet
  6
ByLayer
 62
  256
370
   -1
100
AcDbLine
 10
30
 20
-4930
 11
1460
 21
-4930
  0
LINE
  5
2B9
100
AcDbEntity
  8
outlet
  6
ByLayer
 62
  256
370
   -1
100
AcDbLine
 10
1460
 20
-4930
 11
1520
 21
-5160
  0
LWPOLYLINE
  5
2BA
100
AcDbEntity
  8
wire
  6
ByLayer
 62
  256
370
   -1
100
AcDbPolyline
 90
    2
 70
    0
 43
0
 10
1680
 20
-5120
 42
0.2216946626429403
 10
1400
 20
-4700
 42
0.2216946626429403
  0
INSERT
  5
2BB
100
AcDbEntity
  8
outlet
  6
ByLayer
 62
  256
370
   -1
100
AcDbBlockReference
  2
my-switch-2
 10
2950
 20
-3800
 30
0
 41
30
 42
30
 43
0
 50
0
 70
    1
 71
    1
 44
200
 45
200
  0
INSERT
  5
2BC
100
AcDbEntity
  8
outlet
  6
ByLayer
 62
  256
370
   -1
100
AcDbBlockReference
  2
my-switch-2
 10
3100
 20
-3800
 30
0
 41
30
 42
30
 43
0
 50
0
 70
    1
 71
    1
 44
200
 45
200
  0
INSERT
  5
2BD
100
AcDbEntity
  8
outlet
  6
ByLayer
 62
  256
370
   -1
100
AcDbBlockReference
  2
my-switch-2
 10
3250
 20
-3800
 30
0
 41
30
 42
30
 43
0
 50
0
 70
    1
 71
    1
 44
200
 45
200
  0
LWPOLYLINE
  5
2BE
100
AcDbEntity
  8
wire
  6
ByLayer
 62
  256
370
   -1
100
AcDbPolyline
 90
    2
 70
    0
 43
0
 10
3289.000045433289
 20
-3680
 42
-0.2216946626429394
 10
3986
 20
-1950.000000000001
 42
-0.2216946626429394
  0
LWPOLYLINE
  5
2BF
100
AcDbEntity
  8
wire
  6
ByLayer
 62
  256
370
   -1
100
AcDbPolyline
 90
    2
 70
    0
 43
0
 10
3360.999999999995
 20
-3680.000000000005
 42
-0.2216946626429399
 10
4000
 20
-1999.999999999998
 42
-0.2216946626429399
  0
LWPOLYLINE
  5
2C0
100
AcDbEntity
  8
wire
  6
ByLayer
 62
  256
370
   -1
100
AcDbPolyline
 90
    2
 70
    0
 43
0
 10
3060.999999999995
 20
-3680
 42
0.3639702342662023
 10
1509.000000000001
 20
-1950.000000000001
 42
0.3639702342662023
  0
LWPOLYLINE
  5
2C1
100
AcDbEntity
  8
wire
  6
ByLayer
 62
  256
370
   -1
100
AcDbPolyline
 90
    2
 70
    0
 43
0
 10
2989.000016124761
 20
-3680
 42
0.3639702342662023
 10
1492.253181604789
 20
-2012.499989379521
 42
0.3639702342662023
  0
LWPOLYLINE
  5
2C2
100
AcDbEntity
  8
wire
  6
ByLayer
 62
  256
370
   -1
100
AcDbPolyline
 90
    9
 70
    0
 43
0
 10
3210.999999999995
 20
-3770
 42
0.9999999999999994
 10
3590
 20
-3360
 42
-0.22169466264294
 10
4432.499999999999
 20
-3359.999999999999
 42
0.2216946626429401
 10
5275
 20
-3367.819280000002
 42
-0.2216946626429395
 10
5275
 20
-2420
 42
0.2216946626429401
 10
5275
 20
-1479.999999999996
 42
-0.221694662642939
 10
5274.999999999999
 20
-540.000000000001
 42
-0.2216946626429396
 10
4432.499999999999
 20
-539.9999999999992
 42
0.2216946626429401
 10
3590
 20
-539.9999999999992
 42
0.2216946626429401
  0
LWPOLYLINE
  5
2C3
100
AcDbEntity
  8
wire
  6
ByLayer
 62
  256
370
   -1
100
AcDbPolyline
 90
   11
 70
    0
 43
0
 10
3139.000000000005
 20
-3769.999999999995
 42
-0.9999999999999988
 10
2747.5
 20
-3360
 42
0.2216946626429399
 10
1905
 20
-3360
 42
-0.2216946626429396
 10
1062.5
 20
-3360
 42
0.22169466264294
 10
222.1624200000015
 20
-3360.000000000001
 42
0.2216946626429406
 10
219.9999999999993
 20
-2419.999999999998
 42
-0.221694662642939
 10
219.9999999999982
 20
-1480.000000000001
 42
0.2216946626429401
 10
219.9999999999989
 20
-539.9999999999993
 42
0.2216946626429396
 10
1062.5
 20
-539.9999999999995
 42
-0.22169466264294
 10
1905
 20
-539.9999999999993
 42
0.2216946626429396
 10
2747.5
 20
-539.9999999999995
 42
0.2216946626429396
  0
LINE
  5
2C4
100
AcDbEntity
  8
construction7
  6
ByLayer
 62
  256
370
   -1
100
AcDbLine
 10
5315
 20
-360
 11
5675
 21
-360
  0
LINE
  5
2C5
100
AcDbEntity
  8
construction7
  6
ByLayer
 62
  256
370
   -1
100
AcDbLine
 10
5315
 20
-1360
 11
5675
 21
-1360
  0
LINE
  5
2C6
100
AcDbEntity
  8
construction7
  6
ByLayer
 62
  256
370
   -1
100
AcDbLine
 10
5315
 20
-2160
 11
5675
 21
-2160
  0
LINE
  5
2C7
100
AcDbEntity
  8
construction7
  6
ByLayer
 62
  256
370
   -1
100
AcDbLine
 10
4815
 20
-3560
 11
4815
 21
-4160
  0
LINE
  5
2C8
100
AcDbEntity
  8
thing-hidden
  6
ByLayer
 62
  256
370
   -1
100
AcDbLine
 10
5175
 20
-370
 11
5175
 21
-3560
  0
LINE
  5
2C9
100
AcDbEntity
  8
thing-hidden
  6
ByLayer
 62
  256
370
   -1
100
AcDbLine
 10
5475
 20
-370
 11
5475
 21
-3560
  0
INSERT
  5
2CA
100
AcDbEntity
  8
outlet
  6
ByLayer
 62
  256
370
   -1
100
AcDbBlockReference
  2
my-free-wire
 10
5400
 20
-900
 30
0
 41
30
 42
30
 43
0
 50
0
 70
    1
 71
    1
 44
200
 45
200
  0
INSERT
  5
2CB
100
AcDbEntity
  8
outlet
  6
ByLayer
 62
  256
370
   -1
100
AcDbBlockReference
  2
my-free-wire
 10
5400
 20
-2900
 30
0
 41
30
 42
30
 43
0
 50
0
 70
    1
 71
    1
 44
200
 45
200
  0
INSERT
  5
2CC
100
AcDbEntity
  8
outlet
  6
ByLayer
 62
  256
370
   -1
100
AcDbBlockReference
  2
my-free-wire
 10
5200
 20
-4000
 30
0
 41
30
 42
30
 43
0
 50
0
 70
    1
 71
    1
 44
200
 45
200
  0
INSERT
  5
2CD
100
AcDbEntity
  8
outlet
  6
ByLayer
 62
  256
370
   -1
100
AcDbBlockReference
  2
my-switch-1
 10
5300
 20
-1200
 30
0
 41
30
 42
30
 43
0
 50
0
 70
    1
 71
    1
 44
200
 45
200
  0
LWPOLYLINE
  5
2CE
100
AcDbEntity
  8
wire
  6
ByLayer
 62
  256
370
   -1
100
AcDbPolyline
 90
    2
 70
    0
 43
0
 10
5339.000000000005
 20
-1079.999999999999
 42
-0.2216946626429397
 10
5430
 20
-780
 42
-0.2216946626429397
  0
LWPOLYLINE
  5
2CF
100
AcDbEntity
  8
wire
  6
ByLayer
 62
  256
370
   -1
100
AcDbPolyline
 90
    2
 70
    0
 43
0
 10
5520
 20
-870
 42
0.2216946626429396
 10
5640
 20
-1118.571539279239
 42
0.2216946626429396
  0
LWPOLYLINE
  5
2D0
100
AcDbEntity
  8
wire
  6
ByLayer
 62
  256
370
   -1
100
AcDbPolyline
 90
    2
 70
    0
 43
0
 10
5410.999999999995
 20
-1170
 42
-0.2216946626429401
 10
5429.999999999999
 20
-2765.000000000001
 42
-0.2216946626429401
  0
LWPOLYLINE
  5
2D1
100
AcDbEntity
  8
wire
  6
ByLayer
 62
  256
370
   -1
100
AcDbPolyline
 90
    2
 70
    0
 43
0
 10
5520
 20
-2870
 42
0.2216946626429408
 10
5640
 20
-2921.292647931605
 42
0.2216946626429408
  0
LWPOLYLINE
  5
2D2
100
AcDbEntity
  8
wire
  6
ByLayer
 62
  256
370
   -1
100
AcDbPolyline
 90
    2
 70
    0
 43
0
 10
5330
 20
-1141.851463282414
 42
0.4663076581549986
 10
5219.805708925127
 20
-3868.996526481115
 42
0.4663076581549986
  0
LWPOLYLINE
  5
2D3
100
AcDbEntity
  8
wire
  6
ByLayer
 62
  256
370
   -1
100
AcDbPolyline
 90
    2
 70
    0
 43
0
 10
5320
 20
-3970
 42
-0.4663076581549996
 10
5262.757124015079
 20
-4119.97908652233
 42
-0.4663076581549996
  0
INSERT
  5
2D4
100
AcDbEntity
  8
0
  6
ByLayer
 62
  256
370
   -1
100
AcDbBlockReference
  2
explication-1-800-2
 10
9500
 20
2000
 30
0
 41
50
 42
50
 43
0
 50
0
 70
    1
 71
    1
 44
0
 45
0
  0
INSERT
  5
2D5
100
AcDbEntity
  8
10-notice-text
  6
ByLayer
 62
  256
370
   -1
100
AcDbBlockReference
  2
template-notice-1
 10
-4000
 20
-10000
 30
0
 41
2
 42
2
 43
0
 50
0
 70
    1
 71
    1
 44
0
 45
0
  0
INSERT
  5
2D6
100
AcDbEntity
  8
light
  6
ByLayer
 62
  256
370
   -1
100
AcDbBlockReference
  2
elk6
 10
9925
 20
-4575
 30
0
 41
30
 42
30
 43
0
 50
0
 70
    1
 71
    1
 44
200
 45
200
  0
INSERT
  5
2D7
100
AcDbEntity
  8
light
  6
ByLayer
 62
  256
370
   -1
100
AcDbBlockReference
  2
elk7
 10
9925
 20
-4975
 30
0
 41
30
 42
30
 43
0
 50
0
 70
    1
 71
    1
 44
200
 45
200
  0
INSERT
  5
2D8
100
AcDbEntity
  8
light
  6
ByLayer
 62
  256
370
   -1
100
AcDbBlockReference
  2
lamp1
 10
10000
 20
-4175
 30
0
 41
30
 42
30
 43
0
 50
0
 70
    1
 71
    1
 44
200
 45
200
  0
INSERT
  5
2D9
100
AcDbEntity
  8
0
  6
ByLayer
 62
  256
370
   -1
100
AcDbBlockReference
  2
legend-wire
 10
9500
 20
-2750
 30
0
 41
1
 42
1
 43
0
 50
0
 70
    1
 71
    1
 44
0
 45
0
  0
LINE
  5
2DA
100
AcDbEntity
  8
wire
  6
ByLayer
 62
  256
370
   -1
100
AcDbLine
 10
9600
 20
-6900
 11
10400
 21
-6900
  0
INSERT
  5
2DB
100
AcDbEntity
  8
outlet
  6
ByLayer
 62
  256
370
   -1
100
AcDbBlockReference
  2
my-switch-1
 10
9925
 20
-5775
 30
0
 41
30
 42
30
 43
0
 50
0
 70
    1
 71
    1
 44
200
 45
200
  0
INSERT
  5
2DC
100
AcDbEntity
  8
outlet
  6
ByLayer
 62
  256
370
   -1
100
AcDbBlockReference
  2
my-switch-2
 10
9925
 20
-6175
 30
0
 41
30
 42
30
 43
0
 50
0
 70
    1
 71
    1
 44
200
 45
200
  0
INSERT
  5
2DD
100
AcDbEntity
  8
outlet
  6
ByLayer
 62
  256
370
   -1
100
AcDbBlockReference
  2
my-switch-2-pass
 10
9925
 20
-6575
 30
0
 41
30
 42
30
 43
0
 50
0
 70
    1
 71
    1
 44
200
 45
200
  0
INSERT
  5
2DE
100
AcDbEntity
  8
outlet
  6
ByLayer
 62
  256
370
   -1
100
AcDbBlockReference
  2
my-free-wire
 10
9925
 20
-5375
 30
0
 41
30
 42
30
 43
0
 50
0
 70
    1
 71
    1
 44
200
 45
200
  0
INSERT
  5
2DF
100
AcDbEntity
  8
0
  6
ByLayer
 62
  256
370
   -1
100
AcDbBlockReference
  2
sheet-A3-border
 10
-6000
 20
3000
 30
0
 41
50
 42
50
 43
0
 50
0
 70
    1
 71
    1
 44
0
 45
0
  0
ENDSEC
  0
SECTION
  2
OBJECTS
  0
DICTIONARY
  5
C
330
0
100
AcDbDictionary
281
    1
  3
ACAD_GROUP
350
D
  0
DICTIONARY
  5
D
330
C
100
AcDbDictionary
281
    1
  0
ENDSEC
  0
EOF
