999
dxfrw 0.6.3
  0
SECTION
  2
HEADER
  9
$ACADVER
  1
AC1021
  9
$DWGCODEPAGE
  3
ANSI_1251
  9
$INSBASE
 10
0
 20
0
 30
0
  9
$EXTMIN
 10
-6000
 20
-11850
 30
0
  9
$EXTMAX
 10
15000
 20
3000
 30
0
  9
$LIMMIN
 10
0
 20
0
  9
$LIMMAX
 10
12
 20
9
  9
$ORTHOMODE
 70
    0
  9
$REGENMODE
 70
    1
  9
$FILLMODE
 70
    1
  9
$QTEXTMODE
 70
    0
  9
$MIRRTEXT
 70
    0
  9
$LTSCALE
 40
1
  9
$ATTMODE
 70
    0
  9
$TEXTSIZE
 40
2.5
  9
$TRACEWID
 40
15.68
  9
$TEXTSTYLE
  7
Standard
  9
$CLAYER
  8
0
  9
$CELTYPE
  6
BYLAYER
  9
$CECOLOR
 62
  256
  9
$CELTSCALE
 40
1
  9
$DISPSILH
 70
    0
  9
$DIMSCALE
 40
50
  9
$DIMASZ
 40
2.5
  9
$DIMEXO
 40
0.625
  9
$DIMDLI
 40
3.75
  9
$DIMRND
 40
0
  9
$DIMDLE
 40
0
  9
$DIMEXE
 40
0.125
  9
$DIMTP
 40
0
  9
$DIMTM
 40
0
  9
$DIMTXT
 40
1.8
  9
$DIMCEN
 40
2.5
  9
$DIMTSZ
 40
1.5
  9
$DIMTOL
 70
    0
  9
$DIMLIM
 70
    0
  9
$DIMTIH
 70
    0
  9
$DIMTOH
 70
    0
  9
$DIMSE1
 70
    0
  9
$DIMSE2
 70
    0
  9
$DIMTAD
 70
    1
  9
$DIMZIN
 70
    1
  9
$DIMBLK
  1

  9
$DIMASO
 70
    1
  9
$DIMSHO
 70
    1
  9
$DIMPOST
  1

  9
$DIMAPOST
  1

  9
$DIMALT
 70
    0
  9
$DIMALTD
 70
    3
  9
$DIMALTF
 40
0.03937
  9
$DIMLFAC
 40
1
  9
$DIMTOFL
 70
    1
  9
$DIMTVP
 40
0
  9
$DIMTIX
 70
    0
  9
$DIMSOXD
 70
    0
  9
$DIMSAH
 70
    0
  9
$DIMBLK1
  1

  9
$DIMBLK2
  1

  9
$DIMSTYLE
  2
Standard
  9
$DIMCLRD
 70
    0
  9
$DIMCLRE
 70
    0
  9
$DIMCLRT
 70
    0
  9
$DIMTFAC
 40
1
  9
$DIMGAP
 40
0.625
  9
$DIMJUST
 70
    0
  9
$DIMSD1
 70
    0
  9
$DIMSD2
 70
    0
  9
$DIMTOLJ
 70
    0
  9
$DIMTZIN
 70
    8
  9
$DIMALTZ
 70
    0
  9
$DIMALTTZ
 70
    0
  9
$DIMUPT
 70
    0
  9
$DIMDEC
 70
    0
  9
$DIMTDEC
 70
    2
  9
$DIMALTU
 70
    2
  9
$DIMALTTD
 70
    3
  9
$DIMTXSTY
  7
standard
  9
$DIMAUNIT
 70
    0
  9
$DIMADEC
 70
    0
  9
$DIMALTRND
 40
0
  9
$DIMAZIN
 70
    0
  9
$DIMDSEP
 70
    0
  9
$DIMATFIT
 70
    3
  9
$DIMFRAC
 70
    0
  9
$DIMLDRBLK
  1
STANDARD
  9
$DIMLUNIT
 70
    2
  9
$DIMLWD
 70
   -2
  9
$DIMLWE
 70
   -2
  9
$DIMTMOVE
 70
    0
  9
$DIMFXL
 40
1
  9
$DIMFXLON
 70
    0
  9
$DIMJOGANG
 40
0.7854
  9
$DIMTFILL
 70
    0
  9
$DIMTFILLCLR
 70
    0
  9
$DIMARCSYM
 70
    0
  9
$DIMLTYPE
  6

  9
$DIMLTEX1
  6

  9
$DIMLTEX2
  6

  9
$LUNITS
 70
    2
  9
$LUPREC
 70
    0
  9
$SKETCHINC
 40
1
  9
$FILLETRAD
 40
0
  9
$AUNITS
 70
    0
  9
$AUPREC
 70
    2
  9
$MENU
  1
.
  9
$ELEVATION
 40
0
  9
$PELEVATION
 40
0
  9
$THICKNESS
 40
0
  9
$LIMCHECK
 70
    0
  9
$CHAMFERA
 40
0
  9
$CHAMFERB
 40
0
  9
$CHAMFERC
 40
0
  9
$CHAMFERD
 40
0
  9
$SKPOLY
 70
    0
  9
$USRTIMER
 70
    1
  9
$ANGBASE
 50
0
  9
$ANGDIR
 70
    0
  9
$PDMODE
 70
   34
  9
$PDSIZE
 40
0
  9
$PLINEWID
 40
0
  9
$SPLFRAME
 70
    0
  9
$SPLINETYPE
 70
    2
  9
$SPLINESEGS
 70
    8
  9
$HANDSEED
  5
20000
  9
$SURFTAB1
 70
    6
  9
$SURFTAB2
 70
    6
  9
$SURFTYPE
 70
    6
  9
$SURFU
 70
    6
  9
$SURFV
 70
    6
  9
$UCSBASE
  2

  9
$UCSNAME
  2

  9
$UCSORG
 10
0
 20
0
 30
0
  9
$UCSXDIR
 10
1
 20
0
 30
0
  9
$UCSYDIR
 10
0
 20
1
 30
0
  9
$UCSORTHOREF
  2

  9
$UCSORTHOVIEW
 70
    0
  9
$UCSORGTOP
 10
0
 20
0
 30
0
  9
$UCSORGBOTTOM
 10
0
 20
0
 30
0
  9
$UCSORGLEFT
 10
0
 20
0
 30
0
  9
$UCSORGRIGHT
 10
0
 20
0
 30
0
  9
$UCSORGFRONT
 10
0
 20
0
 30
0
  9
$UCSORGBACK
 10
0
 20
0
 30
0
  9
$PUCSBASE
  2

  9
$PUCSNAME
  2

  9
$PUCSORG
 10
0
 20
0
 30
0
  9
$PUCSXDIR
 10
1
 20
0
 30
0
  9
$PUCSYDIR
 10
0
 20
1
 30
0
  9
$PUCSORTHOREF
  2

  9
$PUCSORTHOVIEW
 70
    0
  9
$PUCSORGTOP
 10
0
 20
0
 30
0
  9
$PUCSORGBOTTOM
 10
0
 20
0
 30
0
  9
$PUCSORGLEFT
 10
0
 20
0
 30
0
  9
$PUCSORGRIGHT
 10
0
 20
0
 30
0
  9
$PUCSORGFRONT
 10
0
 20
0
 30
0
  9
$PUCSORGBACK
 10
0
 20
0
 30
0
  9
$USERI1
 70
    0
  9
$USERI2
 70
    0
  9
$USERI3
 70
    0
  9
$USERI4
 70
    0
  9
$USERI5
 70
    0
  9
$USERR1
 40
0
  9
$USERR2
 40
0
  9
$USERR3
 40
0
  9
$USERR4
 40
0
  9
$USERR5
 40
0
  9
$WORLDVIEW
 70
    1
  9
$SHADEDGE
 70
    3
  9
$SHADEDIF
 70
   70
  9
$TILEMODE
 70
    1
  9
$MAXACTVP
 70
   64
  9
$PINSBASE
 10
120
 20
237
 30
0
  9
$PLIMCHECK
 70
    0
  9
$PEXTMIN
 10
0
 20
0
 30
0
  9
$PEXTMAX
 10
0
 20
0
 30
0
  9
$GRIDMODE
 70
    1
  9
$SNAPSTYLE
 70
    0
  9
$GRIDUNIT
 10
0
 20
0
  9
$PLIMMIN
 10
0
 20
0
  9
$PLIMMAX
 10
420
 20
297
  9
$UNITMODE
 70
    0
  9
$VISRETAIN
 70
    1
  9
$PLINEGEN
 70
    0
  9
$PSLTSCALE
 70
    1
  9
$TREEDEPTH
 70
 3020
  9
$CMLSTYLE
  2
Standard
  9
$CMLJUST
 70
    0
  9
$CMLSCALE
 40
20
  9
$PROXYGRAPHICS
 70
    1
  9
$MEASUREMENT
 70
    1
  9
$CELWEIGHT
370
   -1
  9
$ENDCAPS
280
    0
  9
$JOINSTYLE
280
    0
  9
$LWDISPLAY
290
    0
  9
$INSUNITS
 70
    4
  9
$HYPERLINKBASE
  1

  9
$STYLESHEET
  1

  9
$XEDIT
290
    1
  9
$CEPSNTYPE
380
    0
  9
$PSTYLEMODE
290
    1
  9
$EXTNAMES
290
    1
  9
$PSVPSCALE
 40
0.02
  9
$OLESTARTUP
290
    0
  9
$SORTENTS
280
  127
  9
$INDEXCTL
280
    0
  9
$HIDETEXT
280
    1
  9
$XCLIPFRAME
290
    0
  9
$HALOGAP
280
    0
  9
$OBSCOLOR
 70
  257
  9
$OBSLTYPE
280
    0
  9
$INTERSECTIONDISPLAY
280
    0
  9
$INTERSECTIONCOLOR
 70
  257
  9
$DIMASSOC
280
    1
  9
$PROJECTNAME
  1

  9
$CAMERADISPLAY
290
    0
  9
$LENSLENGTH
 40
50
  9
$CAMERAHEIGHT
 40
0
  9
$STEPSPERSEC
 40
2
  9
$STEPSIZE
 40
50
  9
$3DDWFPREC
 40
2
  9
$PSOLWIDTH
 40
5
  9
$PSOLHEIGHT
 40
80
  9
$LOFTANG1
 40
1.570796326794897
  9
$LOFTANG2
 40
1.570796326794897
  9
$LOFTMAG1
 40
0
  9
$LOFTMAG2
 40
0
  9
$LOFTPARAM
 70
    7
  9
$LOFTNORMALS
280
    1
  9
$LATITUDE
 40
1
  9
$LONGITUDE
 40
1
  9
$NORTHDIRECTION
 40
0
  9
$TIMEZONE
 70
-8000
  9
$LIGHTGLYPHDISPLAY
280
    1
  9
$TILEMODELIGHTSYNCH
280
    1
  9
$SOLIDHIST
280
    1
  9
$SHOWHIST
280
    1
  9
$DWFFRAME
280
    2
  9
$DGNFRAME
280
    0
  9
$REALWORLDSCALE
290
    1
  9
$INTERFERECOLOR
 62
    1
  9
$CSHADOW
280
    0
  9
$SHADOWPLANELOCATION
 40
0
  0
ENDSEC
  0
SECTION
  2
CLASSES
  0
ENDSEC
  0
SECTION
  2
TABLES
  0
TABLE
  2
VPORT
  5
8
330
0
100
AcDbSymbolTable
 70
    1
  0
VPORT
  5
31
330
2
100
AcDbSymbolTableRecord
100
AcDbViewportTableRecord
  2
*ACTIVE
 70
    0
 10
0
 20
0
 11
1
 21
1
 12
7611.940298507463
 22
2115.671641791045
 13
0
 23
0
 14
10
 24
10
 15
10
 25
10
 16
0
 26
0
 36
1
 17
0
 27
0
 37
0
 40
17305.97014925373
 41
1.239327296248383
 42
50
 43
0
 44
0
 50
0
 51
0
 71
    0
 72
  100
 73
    1
 74
    3
 75
    0
 76
    1
 77
    0
 78
    0
281
    0
 65
    1
110
0
120
0
130
0
111
1
121
0
131
0
112
0
122
1
132
0
 79
    0
146
0
348
10020
 60
    7
 61
    5
292
1
282
    1
141
0
142
0
 63
  250
421
3358443
  0
ENDTAB
  0
TABLE
  2
LTYPE
  5
5
330
0
100
AcDbSymbolTable
 70
    4
  0
LTYPE
  5
14
330
5
100
AcDbSymbolTableRecord
100
AcDbLinetypeTableRecord
  2
ByBlock
 70
    0
  3

 72
   65
 73
    0
 40
0
  0
LTYPE
  5
15
330
5
100
AcDbSymbolTableRecord
100
AcDbLinetypeTableRecord
  2
ByLayer
 70
    0
  3

 72
   65
 73
    0
 40
0
  0
LTYPE
  5
16
330
5
100
AcDbSymbolTableRecord
100
AcDbLinetypeTableRecord
  2
Continuous
 70
    0
  3
Solid line
 72
   65
 73
    0
 40
0
  0
LTYPE
  5
32
330
5
100
AcDbSymbolTableRecord
100
AcDbLinetypeTableRecord
  2
DOT
 70
    0
  3
Dot . . . . . . . . . . . . . . . . . . . . . .
 72
   65
 73
    2
 40
6.35
 49
0
 74
    0
 49
-6.35
 74
    0
  0
LTYPE
  5
33
330
5
100
AcDbSymbolTableRecord
100
AcDbLinetypeTableRecord
  2
DOTTINY
 70
    0
  3
Dot (.15x) .....................................
 72
   65
 73
    2
 40
0.9525
 49
0
 74
    0
 49
-0.9525
 74
    0
  0
LTYPE
  5
34
330
5
100
AcDbSymbolTableRecord
100
AcDbLinetypeTableRecord
  2
DOT2
 70
    0
  3
Dot (.5x) .....................................
 72
   65
 73
    2
 40
3.175
 49
0
 74
    0
 49
-3.175
 74
    0
  0
LTYPE
  5
35
330
5
100
AcDbSymbolTableRecord
100
AcDbLinetypeTableRecord
  2
DOTX2
 70
    0
  3
Dot (2x) .  .  .  .  .  .  .  .  .  .  .  .  .
 72
   65
 73
    2
 40
12.7
 49
0
 74
    0
 49
-12.7
 74
    0
  0
LTYPE
  5
36
330
5
100
AcDbSymbolTableRecord
100
AcDbLinetypeTableRecord
  2
DASHED
 70
    0
  3
Dashed _ _ _ _ _ _ _ _ _ _ _ _ _ _ _ _ _
 72
   65
 73
    2
 40
19.05
 49
12.7
 74
    0
 49
-6.35
 74
    0
  0
LTYPE
  5
37
330
5
100
AcDbSymbolTableRecord
100
AcDbLinetypeTableRecord
  2
DASHEDTINY
 70
    0
  3
Dashed (.15x) _ _ _ _ _ _ _ _ _ _ _ _ _ _ _ _ _
 72
   65
 73
    2
 40
2.8575
 49
1.905
 74
    0
 49
-0.9525
 74
    0
  0
LTYPE
  5
38
330
5
100
AcDbSymbolTableRecord
100
AcDbLinetypeTableRecord
  2
DASHED2
 70
    0
  3
Dashed (.5x) _ _ _ _ _ _ _ _ _ _ _ _ _ _ _ _ _
 72
   65
 73
    2
 40
9.524999999999999
 49
6.35
 74
    0
 49
-3.175
 74
    0
  0
LTYPE
  5
39
330
5
100
AcDbSymbolTableRecord
100
AcDbLinetypeTableRecord
  2
DASHEDX2
 70
    0
  3
Dashed (2x) ____  ____  ____  ____  ____  ___
 72
   65
 73
    2
 40
38.09999999999999
 49
25.4
 74
    0
 49
-12.7
 74
    0
  0
LTYPE
  5
3A
330
5
100
AcDbSymbolTableRecord
100
AcDbLinetypeTableRecord
  2
DASHDOT
 70
    0
  3
Dash dot __ . __ . __ . __ . __ . __ . __ . __
 72
   65
 73
    4
 40
25.4
 49
12.7
 74
    0
 49
-6.35
 74
    0
 49
0
 74
    0
 49
-6.35
 74
    0
  0
LTYPE
  5
3B
330
5
100
AcDbSymbolTableRecord
100
AcDbLinetypeTableRecord
  2
DASHDOTTINY
 70
    0
  3
Dash dot (.15x) _._._._._._._._._._._._._._._.
 72
   65
 73
    4
 40
3.81
 49
1.905
 74
    0
 49
-0.9525
 74
    0
 49
0
 74
    0
 49
-0.9525
 74
    0
  0
LTYPE
  5
3C
330
5
100
AcDbSymbolTableRecord
100
AcDbLinetypeTableRecord
  2
DASHDOT2
 70
    0
  3
Dash dot (.5x) _._._._._._._._._._._._._._._.
 72
   65
 73
    4
 40
12.7
 49
6.35
 74
    0
 49
-3.175
 74
    0
 49
0
 74
    0
 49
-3.175
 74
    0
  0
LTYPE
  5
3D
330
5
100
AcDbSymbolTableRecord
100
AcDbLinetypeTableRecord
  2
DASHDOTX2
 70
    0
  3
Dash dot (2x) ____  .  ____  .  ____  .  ___
 72
   65
 73
    4
 40
50.8
 49
25.4
 74
    0
 49
-12.7
 74
    0
 49
0
 74
    0
 49
-12.7
 74
    0
  0
LTYPE
  5
3E
330
5
100
AcDbSymbolTableRecord
100
AcDbLinetypeTableRecord
  2
DIVIDE
 70
    0
  3
Divide ____ . . ____ . . ____ . . ____ . . ____
 72
   65
 73
    6
 40
31.75
 49
12.7
 74
    0
 49
-6.35
 74
    0
 49
0
 74
    0
 49
-6.35
 74
    0
 49
0
 74
    0
 49
-6.35
 74
    0
  0
LTYPE
  5
3F
330
5
100
AcDbSymbolTableRecord
100
AcDbLinetypeTableRecord
  2
DIVIDETINY
 70
    0
  3
Divide (.15x) __..__..__..__..__..__..__..__.._
 72
   65
 73
    6
 40
4.7625
 49
1.905
 74
    0
 49
-0.9525
 74
    0
 49
0
 74
    0
 49
-0.9525
 74
    0
 49
0
 74
    0
 49
-0.9525
 74
    0
  0
LTYPE
  5
40
330
5
100
AcDbSymbolTableRecord
100
AcDbLinetypeTableRecord
  2
DIVIDE2
 70
    0
  3
Divide (.5x) __..__..__..__..__..__..__..__.._
 72
   65
 73
    6
 40
15.875
 49
6.35
 74
    0
 49
-3.175
 74
    0
 49
0
 74
    0
 49
-3.175
 74
    0
 49
0
 74
    0
 49
-3.175
 74
    0
  0
LTYPE
  5
41
330
5
100
AcDbSymbolTableRecord
100
AcDbLinetypeTableRecord
  2
DIVIDEX2
 70
    0
  3
Divide (2x) ________  .  .  ________  .  .  _
 72
   65
 73
    6
 40
63.5
 49
25.4
 74
    0
 49
-12.7
 74
    0
 49
0
 74
    0
 49
-12.7
 74
    0
 49
0
 74
    0
 49
-12.7
 74
    0
  0
LTYPE
  5
42
330
5
100
AcDbSymbolTableRecord
100
AcDbLinetypeTableRecord
  2
BORDER
 70
    0
  3
Border __ __ . __ __ . __ __ . __ __ . __ __ .
 72
   65
 73
    6
 40
44.45
 49
12.7
 74
    0
 49
-6.35
 74
    0
 49
12.7
 74
    0
 49
-6.35
 74
    0
 49
0
 74
    0
 49
-6.35
 74
    0
  0
LTYPE
  5
43
330
5
100
AcDbSymbolTableRecord
100
AcDbLinetypeTableRecord
  2
BORDERTINY
 70
    0
  3
Border (.15x) __.__.__.__.__.__.__.__.__.__.__.
 72
   65
 73
    6
 40
6.6675
 49
1.905
 74
    0
 49
-0.9525
 74
    0
 49
1.905
 74
    0
 49
-0.9525
 74
    0
 49
0
 74
    0
 49
-0.9525
 74
    0
  0
LTYPE
  5
44
330
5
100
AcDbSymbolTableRecord
100
AcDbLinetypeTableRecord
  2
BORDER2
 70
    0
  3
Border (.5x) __.__.__.__.__.__.__.__.__.__.__.
 72
   65
 73
    6
 40
22.225
 49
6.35
 74
    0
 49
-3.175
 74
    0
 49
6.35
 74
    0
 49
-3.175
 74
    0
 49
0
 74
    0
 49
-3.175
 74
    0
  0
LTYPE
  5
45
330
5
100
AcDbSymbolTableRecord
100
AcDbLinetypeTableRecord
  2
BORDERX2
 70
    0
  3
Border (2x) ____  ____  .  ____  ____  .  ___
 72
   65
 73
    6
 40
88.89999999999999
 49
25.4
 74
    0
 49
-12.7
 74
    0
 49
25.4
 74
    0
 49
-12.7
 74
    0
 49
0
 74
    0
 49
-12.7
 74
    0
  0
LTYPE
  5
46
330
5
100
AcDbSymbolTableRecord
100
AcDbLinetypeTableRecord
  2
CENTER
 70
    0
  3
Center ____ _ ____ _ ____ _ ____ _ ____ _ ____
 72
   65
 73
    4
 40
50.8
 49
31.75
 74
    0
 49
-6.35
 74
    0
 49
6.35
 74
    0
 49
-6.35
 74
    0
  0
LTYPE
  5
47
330
5
100
AcDbSymbolTableRecord
100
AcDbLinetypeTableRecord
  2
CENTERTINY
 70
    0
  3
Center (.15x) ___ _ ___ _ ___ _ ___ _ ___ _ ___
 72
   65
 73
    4
 40
7.619999999999999
 49
4.7625
 74
    0
 49
-0.9525
 74
    0
 49
0.9525
 74
    0
 49
-0.9525
 74
    0
  0
LTYPE
  5
48
330
5
100
AcDbSymbolTableRecord
100
AcDbLinetypeTableRecord
  2
CENTER2
 70
    0
  3
Center (.5x) ___ _ ___ _ ___ _ ___ _ ___ _ ___
 72
   65
 73
    4
 40
28.575
 49
19.05
 74
    0
 49
-3.175
 74
    0
 49
3.175
 74
    0
 49
-3.175
 74
    0
  0
LTYPE
  5
49
330
5
100
AcDbSymbolTableRecord
100
AcDbLinetypeTableRecord
  2
CENTERX2
 70
    0
  3
Center (2x) ________  __  ________  __  _____
 72
   65
 73
    4
 40
101.6
 49
63.5
 74
    0
 49
-12.7
 74
    0
 49
12.7
 74
    0
 49
-12.7
 74
    0
  0
ENDTAB
  0
TABLE
  2
LAYER
  5
2
330
0
100
AcDbSymbolTable
 70
    1
  0
LAYER
  5
10
330
2
100
AcDbSymbolTableRecord
100
AcDbLayerTableRecord
  2
0
 70
    4
 62
    7
  6
CONTINUOUS
370
   -3
390
F
  0
LAYER
  5
4A
330
2
100
AcDbSymbolTableRecord
100
AcDbLayerTableRecord
  2
01-sheet-border-inner
 70
    4
 62
    7
  6
CONTINUOUS
370
   50
390
F
  0
LAYER
  5
4B
330
2
100
AcDbSymbolTableRecord
100
AcDbLayerTableRecord
  2
01-sheet-border-outer
 70
    4
 62
    7
  6
CONTINUOUS
290
0
370
    0
390
F
  0
LAYER
  5
4C
330
2
100
AcDbSymbolTableRecord
100
AcDbLayerTableRecord
  2
01-sheet-construction
 70
    5
 62
  176
420
  128
  6
CONTINUOUS
290
0
370
   -3
390
F
1001
LibreCad
1070
    1
  0
LAYER
  5
4D
330
2
100
AcDbSymbolTableRecord
100
AcDbLayerTableRecord
  2
02-title-block-construction
 70
    5
 62
  176
420
  128
  6
CONTINUOUS
290
0
370
   -3
390
F
1001
LibreCad
1070
    1
  0
LAYER
  5
4E
330
2
100
AcDbSymbolTableRecord
100
AcDbLayerTableRecord
  2
02-title-block-table
 70
    4
 62
    7
  6
CONTINUOUS
370
   50
390
F
  0
LAYER
  5
4F
330
2
100
AcDbSymbolTableRecord
100
AcDbLayerTableRecord
  2
02-title-block-text
 70
    4
 62
    7
  6
CONTINUOUS
370
    9
390
F
  0
LAYER
  5
50
330
2
100
AcDbSymbolTableRecord
100
AcDbLayerTableRecord
  2
03-explication-construction
 70
    5
 62
  176
420
  128
  6
CONTINUOUS
290
0
370
    0
390
F
1001
LibreCad
1070
    1
  0
LAYER
  5
51
330
2
100
AcDbSymbolTableRecord
100
AcDbLayerTableRecord
  2
03-explication-table
 70
    4
 62
    7
  6
CONTINUOUS
370
   50
390
F
  0
LAYER
  5
52
330
2
100
AcDbSymbolTableRecord
100
AcDbLayerTableRecord
  2
03-explication-text
 70
    4
 62
    7
  6
CONTINUOUS
370
    9
390
F
  0
LAYER
  5
53
330
2
100
AcDbSymbolTableRecord
100
AcDbLayerTableRecord
  2
04-legend-construction
 70
    5
 62
  176
420
  128
  6
CONTINUOUS
290
0
370
    0
390
F
1001
LibreCad
1070
    1
  0
LAYER
  5
54
330
2
100
AcDbSymbolTableRecord
100
AcDbLayerTableRecord
  2
04-legend-table
 70
    4
 62
    7
  6
CONTINUOUS
370
   50
390
F
  0
LAYER
  5
55
330
2
100
AcDbSymbolTableRecord
100
AcDbLayerTableRecord
  2
04-legend-text
 70
    4
 62
    7
  6
CONTINUOUS
370
    9
390
F
  0
LAYER
  5
56
330
2
100
AcDbSymbolTableRecord
100
AcDbLayerTableRecord
  2
10-notice-border
 70
    4
 62
    7
  6
CONTINUOUS
370
   25
390
F
  0
LAYER
  5
57
330
2
100
AcDbSymbolTableRecord
100
AcDbLayerTableRecord
  2
10-notice-text
 70
    4
 62
    7
  6
CONTINUOUS
370
    9
390
F
  0
LAYER
  5
58
330
2
100
AcDbSymbolTableRecord
100
AcDbLayerTableRecord
  2
construction
 70
    5
 62
  176
420
  128
  6
CONTINUOUS
290
0
370
    0
390
F
1001
LibreCad
1070
    1
  0
LAYER
  5
59
330
2
100
AcDbSymbolTableRecord
100
AcDbLayerTableRecord
  2
construction2
 70
    5
 62
   96
420
32768
  6
CONTINUOUS
290
0
370
    0
390
F
1001
LibreCad
1070
    1
  0
LAYER
  5
5A
330
2
100
AcDbSymbolTableRecord
100
AcDbLayerTableRecord
  2
dimension
 70
    4
 62
    7
  6
CONTINUOUS
370
    9
390
F
  0
LAYER
  5
5B
330
2
100
AcDbSymbolTableRecord
100
AcDbLayerTableRecord
  2
door
 70
    4
 62
    7
  6
CONTINUOUS
370
   20
390
F
  0
LAYER
  5
5C
330
2
100
AcDbSymbolTableRecord
100
AcDbLayerTableRecord
  2
outlet
 70
    4
 62
    7
  6
CONTINUOUS
370
    9
390
F
  0
LAYER
  5
5D
330
2
100
AcDbSymbolTableRecord
100
AcDbLayerTableRecord
  2
plasterboard
 70
    4
 62
    7
  6
CONTINUOUS
370
   18
390
F
  0
LAYER
  5
5E
330
2
100
AcDbSymbolTableRecord
100
AcDbLayerTableRecord
  2
plasterboard-hatch
 70
    4
 62
    7
  6
CONTINUOUS
370
    0
390
F
  0
LAYER
  5
5F
330
2
100
AcDbSymbolTableRecord
100
AcDbLayerTableRecord
  2
room-num
 70
    4
 62
    7
  6
CONTINUOUS
370
    9
390
F
  0
LAYER
  5
60
330
2
100
AcDbSymbolTableRecord
100
AcDbLayerTableRecord
  2
thing
 70
    4
 62
    7
  6
CONTINUOUS
370
    9
390
F
  0
LAYER
  5
61
330
2
100
AcDbSymbolTableRecord
100
AcDbLayerTableRecord
  2
wall
 70
    4
 62
    7
  6
CONTINUOUS
370
   35
390
F
  0
LAYER
  5
62
330
2
100
AcDbSymbolTableRecord
100
AcDbLayerTableRecord
  2
wall-hatch
 70
    4
 62
    7
  6
CONTINUOUS
370
    0
390
F
  0
LAYER
  5
63
330
2
100
AcDbSymbolTableRecord
100
AcDbLayerTableRecord
  2
window
 70
    4
 62
    7
  6
CONTINUOUS
370
   20
390
F
  0
ENDTAB
  0
TABLE
  2
STYLE
  5
3
330
0
100
AcDbSymbolTable
 70
    3
  0
STYLE
  5
64
330
2
100
AcDbSymbolTableRecord
100
AcDbTextStyleTableRecord
  2
unicode
 70
    0
 40
0
 41
1
 50
0
 71
    0
 42
1
  3
unicode
  4

  0
STYLE
  5
65
330
2
100
AcDbSymbolTableRecord
100
AcDbTextStyleTableRecord
  2
Standard
 70
    0
 40
0
 41
1
 50
0
 71
    0
 42
1
  3
txt
  4

  0
ENDTAB
  0
TABLE
  2
VIEW
  5
6
330
0
100
AcDbSymbolTable
 70
    0
  0
ENDTAB
  0
TABLE
  2
UCS
  5
7
330
0
100
AcDbSymbolTable
 70
    0
  0
ENDTAB
  0
TABLE
  2
APPID
  5
9
330
0
100
AcDbSymbolTable
 70
    1
  0
APPID
  5
12
330
9
100
AcDbSymbolTableRecord
100
AcDbRegAppTableRecord
  2
ACAD
 70
    0
  0
APPID
  5
66
330
9
100
AcDbSymbolTableRecord
100
AcDbRegAppTableRecord
  2
LibreCad
 70
    0
  0
ENDTAB
  0
TABLE
  2
DIMSTYLE
  5
A
330
0
100
AcDbSymbolTable
 70
    1
100
AcDbDimStyleTable
 71
    1
  0
DIMSTYLE
105
67
330
A
100
AcDbSymbolTableRecord
100
AcDbDimStyleTableRecord
  2
Standard
 70
    0
 40
50
 41
2.5
 42
0.625
 43
0.38
 44
0.125
 45
0
 46
0
 47
0
 48
0
 49
1
140
1.8
141
0.09
142
1.5
143
25.4
144
1
145
0
146
1
147
0.625
148
0
 71
    0
 72
    0
 73
    0
 74
    1
 75
    0
 76
    0
 77
    0
 78
    1
 79
    0
170
    0
171
    2
172
    0
173
    0
174
    0
175
    0
176
    0
177
    0
178
    0
179
    0
271
    0
272
    4
273
    2
274
    2
275
    0
276
    0
277
    2
278
    0
279
    0
280
    0
281
    0
282
    0
283
    1
284
    0
285
    0
286
    0
288
    0
289
    3
340
standard
341

371
   -2
372
   -2
  0
ENDTAB
  0
TABLE
  2
BLOCK_RECORD
  5
1
330
0
100
AcDbSymbolTable
 70
    2
  0
BLOCK_RECORD
  5
1F
330
1
100
AcDbSymbolTableRecord
100
AcDbBlockTableRecord
  2
*Model_Space
 70
    0
280
    1
281
    0
  0
BLOCK_RECORD
  5
1E
330
1
100
AcDbSymbolTableRecord
100
AcDbBlockTableRecord
  2
*Paper_Space
 70
    0
280
    1
281
    0
  0
BLOCK_RECORD
  5
68
330
1
100
AcDbSymbolTableRecord
100
AcDbBlockTableRecord
  2
*D33
 70
    0
280
    1
281
    0
  0
BLOCK_RECORD
  5
6B
330
1
100
AcDbSymbolTableRecord
100
AcDbBlockTableRecord
  2
*D26
 70
    0
280
    1
281
    0
  0
BLOCK_RECORD
  5
6E
330
1
100
AcDbSymbolTableRecord
100
AcDbBlockTableRecord
  2
*D11
 70
    0
280
    1
281
    0
  0
BLOCK_RECORD
  5
71
330
1
100
AcDbSymbolTableRecord
100
AcDbBlockTableRecord
  2
*D8
 70
    0
280
    1
281
    0
  0
BLOCK_RECORD
  5
74
330
1
100
AcDbSymbolTableRecord
100
AcDbBlockTableRecord
  2
*D16
 70
    0
280
    1
281
    0
  0
BLOCK_RECORD
  5
77
330
1
100
AcDbSymbolTableRecord
100
AcDbBlockTableRecord
  2
*D24
 70
    0
280
    1
281
    0
  0
BLOCK_RECORD
  5
7A
330
1
100
AcDbSymbolTableRecord
100
AcDbBlockTableRecord
  2
*D7
 70
    0
280
    1
281
    0
  0
BLOCK_RECORD
  5
7D
330
1
100
AcDbSymbolTableRecord
100
AcDbBlockTableRecord
  2
*D20
 70
    0
280
    1
281
    0
  0
BLOCK_RECORD
  5
80
330
1
100
AcDbSymbolTableRecord
100
AcDbBlockTableRecord
  2
*D30
 70
    0
280
    1
281
    0
  0
BLOCK_RECORD
  5
83
330
1
100
AcDbSymbolTableRecord
100
AcDbBlockTableRecord
  2
*D19
 70
    0
280
    1
281
    0
  0
BLOCK_RECORD
  5
86
330
1
100
AcDbSymbolTableRecord
100
AcDbBlockTableRecord
  2
*D28
 70
    0
280
    1
281
    0
  0
BLOCK_RECORD
  5
89
330
1
100
AcDbSymbolTableRecord
100
AcDbBlockTableRecord
  2
*D5
 70
    0
280
    1
281
    0
  0
BLOCK_RECORD
  5
8C
330
1
100
AcDbSymbolTableRecord
100
AcDbBlockTableRecord
  2
*D3
 70
    0
280
    1
281
    0
  0
BLOCK_RECORD
  5
8F
330
1
100
AcDbSymbolTableRecord
100
AcDbBlockTableRecord
  2
*D15
 70
    0
280
    1
281
    0
  0
BLOCK_RECORD
  5
92
330
1
100
AcDbSymbolTableRecord
100
AcDbBlockTableRecord
  2
*D25
 70
    0
280
    1
281
    0
  0
BLOCK_RECORD
  5
95
330
1
100
AcDbSymbolTableRecord
100
AcDbBlockTableRecord
  2
*D13
 70
    0
280
    1
281
    0
  0
BLOCK_RECORD
  5
98
330
1
100
AcDbSymbolTableRecord
100
AcDbBlockTableRecord
  2
*D31
 70
    0
280
    1
281
    0
  0
BLOCK_RECORD
  5
9B
330
1
100
AcDbSymbolTableRecord
100
AcDbBlockTableRecord
  2
*D22
 70
    0
280
    1
281
    0
  0
BLOCK_RECORD
  5
9E
330
1
100
AcDbSymbolTableRecord
100
AcDbBlockTableRecord
  2
*D34
 70
    0
280
    1
281
    0
  0
BLOCK_RECORD
  5
A1
330
1
100
AcDbSymbolTableRecord
100
AcDbBlockTableRecord
  2
*D14
 70
    0
280
    1
281
    0
  0
BLOCK_RECORD
  5
A4
330
1
100
AcDbSymbolTableRecord
100
AcDbBlockTableRecord
  2
*D27
 70
    0
280
    1
281
    0
  0
BLOCK_RECORD
  5
A7
330
1
100
AcDbSymbolTableRecord
100
AcDbBlockTableRecord
  2
*D21
 70
    0
280
    1
281
    0
  0
BLOCK_RECORD
  5
AA
330
1
100
AcDbSymbolTableRecord
100
AcDbBlockTableRecord
  2
*D2
 70
    0
280
    1
281
    0
  0
BLOCK_RECORD
  5
AD
330
1
100
AcDbSymbolTableRecord
100
AcDbBlockTableRecord
  2
*D10
 70
    0
280
    1
281
    0
  0
BLOCK_RECORD
  5
B0
330
1
100
AcDbSymbolTableRecord
100
AcDbBlockTableRecord
  2
*D6
 70
    0
280
    1
281
    0
  0
BLOCK_RECORD
  5
B3
330
1
100
AcDbSymbolTableRecord
100
AcDbBlockTableRecord
  2
*D9
 70
    0
280
    1
281
    0
  0
BLOCK_RECORD
  5
B6
330
1
100
AcDbSymbolTableRecord
100
AcDbBlockTableRecord
  2
*D1
 70
    0
280
    1
281
    0
  0
BLOCK_RECORD
  5
B9
330
1
100
AcDbSymbolTableRecord
100
AcDbBlockTableRecord
  2
*D29
 70
    0
280
    1
281
    0
  0
BLOCK_RECORD
  5
BC
330
1
100
AcDbSymbolTableRecord
100
AcDbBlockTableRecord
  2
*D12
 70
    0
280
    1
281
    0
  0
BLOCK_RECORD
  5
BF
330
1
100
AcDbSymbolTableRecord
100
AcDbBlockTableRecord
  2
*D23
 70
    0
280
    1
281
    0
  0
BLOCK_RECORD
  5
C2
330
1
100
AcDbSymbolTableRecord
100
AcDbBlockTableRecord
  2
*D17
 70
    0
280
    1
281
    0
  0
BLOCK_RECORD
  5
C5
330
1
100
AcDbSymbolTableRecord
100
AcDbBlockTableRecord
  2
*D4
 70
    0
280
    1
281
    0
  0
BLOCK_RECORD
  5
C8
330
1
100
AcDbSymbolTableRecord
100
AcDbBlockTableRecord
  2
*D32
 70
    0
280
    1
281
    0
  0
BLOCK_RECORD
  5
CB
330
1
100
AcDbSymbolTableRecord
100
AcDbBlockTableRecord
  2
*D18
 70
    0
280
    1
281
    0
  0
BLOCK_RECORD
  5
CE
330
1
100
AcDbSymbolTableRecord
100
AcDbBlockTableRecord
  2
*D36
 70
    0
280
    1
281
    0
  0
BLOCK_RECORD
  5
D1
330
1
100
AcDbSymbolTableRecord
100
AcDbBlockTableRecord
  2
*D35
 70
    0
280
    1
281
    0
  0
BLOCK_RECORD
  5
D4
330
1
100
AcDbSymbolTableRecord
100
AcDbBlockTableRecord
  2
my-outlet-V220
 70
    0
280
    1
281
    0
  0
BLOCK_RECORD
  5
D7
330
1
100
AcDbSymbolTableRecord
100
AcDbBlockTableRecord
  2
my-switch-1-pass
 70
    0
280
    1
281
    0
  0
BLOCK_RECORD
  5
DA
330
1
100
AcDbSymbolTableRecord
100
AcDbBlockTableRecord
  2
my-switch-1
 70
    0
280
    1
281
    0
  0
BLOCK_RECORD
  5
DD
330
1
100
AcDbSymbolTableRecord
100
AcDbBlockTableRecord
  2
my-switch-2-pass
 70
    0
280
    1
281
    0
  0
BLOCK_RECORD
  5
E0
330
1
100
AcDbSymbolTableRecord
100
AcDbBlockTableRecord
  2
my-switch-2
 70
    0
280
    1
281
    0
  0
BLOCK_RECORD
  5
E3
330
1
100
AcDbSymbolTableRecord
100
AcDbBlockTableRecord
  2
my-free-wire
 70
    0
280
    1
281
    0
  0
BLOCK_RECORD
  5
E6
330
1
100
AcDbSymbolTableRecord
100
AcDbBlockTableRecord
  2
my-outlet-IP
 70
    0
280
    1
281
    0
  0
BLOCK_RECORD
  5
E9
330
1
100
AcDbSymbolTableRecord
100
AcDbBlockTableRecord
  2
my-outlet-TV
 70
    0
280
    1
281
    0
  0
BLOCK_RECORD
  5
EC
330
1
100
AcDbSymbolTableRecord
100
AcDbBlockTableRecord
  2
explication-1-800-2
 70
    0
280
    1
281
    0
  0
BLOCK_RECORD
  5
EF
330
1
100
AcDbSymbolTableRecord
100
AcDbBlockTableRecord
  2
legend-with-area-2
 70
    0
280
    1
281
    0
  0
BLOCK_RECORD
  5
F2
330
1
100
AcDbSymbolTableRecord
100
AcDbBlockTableRecord
  2
template-notice-1
 70
    0
280
    1
281
    0
  0
BLOCK_RECORD
  5
F5
330
1
100
AcDbSymbolTableRecord
100
AcDbBlockTableRecord
  2
sheet-A3-border
 70
    0
280
    1
281
    0
  0
ENDTAB
  0
ENDSEC
  0
SECTION
  2
BLOCKS
  0
BLOCK
  5
20
330
1F
100
AcDbEntity
  8
0
100
AcDbBlockBegin
  2
*Model_Space
 70
    0
 10
0
 20
0
 30
0
  3
*Model_Space
  1

  0
ENDBLK
  5
21
330
1F
100
AcDbEntity
  8
0
100
AcDbBlockEnd
  0
BLOCK
  5
1C
330
1B
100
AcDbEntity
  8
0
100
AcDbBlockBegin
  2
*Paper_Space
 70
    0
 10
0
 20
0
 30
0
  3
*Paper_Space
  1

  0
ENDBLK
  5
1D
330
1F
100
AcDbEntity
  8
0
100
AcDbBlockEnd
  0
BLOCK
  5
69
330
68
100
AcDbEntity
  8
0
100
AcDbBlockBegin
  2
*D33
 70
    1
 10
0
 20
0
  3
*D33
  1

  0
LINE
  5
F8
100
AcDbEntity
  8
dimension
  6
ByBlock
 62
    0
370
   -2
100
AcDbLine
 10
1510
 20
-7450
 11
1510
 21
-6790
  0
MTEXT
  5
F9
100
AcDbEntity
  8
dimension
  6
CONTINUOUS
 62
    0
370
   -2
100
AcDbMText
 10
1440
 20
-6898.749999999997
 30
0
 40
90
 41
160.0000000000056
 71
    5
 72
    1
  1
160
  7
standard
210
0
220
0
230
1
 50
90
 73
    2
 44
1
  0
LINE
  5
FA
100
AcDbEntity
  8
dimension
  6
ByBlock
 62
    0
370
   -2
100
AcDbLine
 10
1563.033008588991
 20
-7253.033008588991
 11
1456.966991411009
 21
-7146.966991411009
  0
LINE
  5
FB
100
AcDbEntity
  8
dimension
  6
ByBlock
 62
    0
370
   -2
100
AcDbLine
 10
1563.033008588991
 20
-7093.033008588991
 11
1456.966991411009
 21
-6986.966991411009
  0
LINE
  5
FC
100
AcDbEntity
  8
dimension
  6
ByBlock
 62
    0
370
   -2
100
AcDbLine
 10
1416.25
 20
-7200
 11
1516.25
 21
-7200
  0
LINE
  5
FD
100
AcDbEntity
  8
dimension
  6
ByBlock
 62
    0
370
   -2
100
AcDbLine
 10
1416.25
 20
-7040
 11
1516.25
 21
-7040
  0
ENDBLK
  5
6A
330
68
100
AcDbEntity
  8
0
100
AcDbBlockEnd
  0
BLOCK
  5
6C
330
6B
100
AcDbEntity
  8
0
100
AcDbBlockBegin
  2
*D26
 70
    1
 10
0
 20
0
  3
*D26
  1

  0
LINE
  5
FE
100
AcDbEntity
  8
dimension
  6
ByBlock
 62
    0
370
   -2
100
AcDbLine
 10
4690
 20
-4000
 11
5320
 21
-4000
  0
MTEXT
  5
FF
100
AcDbEntity
  8
dimension
  6
CONTINUOUS
 62
    0
370
   -2
100
AcDbMText
 10
5181.250000000003
 20
-3923.75
 30
0
 40
90
 41
160.0000000000056
 71
    5
 72
    1
  1
130
  7
standard
210
0
220
0
230
1
 50
0
 73
    2
 44
1
  0
LINE
  5
100
100
AcDbEntity
  8
dimension
  6
ByBlock
 62
    0
370
   -2
100
AcDbLine
 10
4886.966991411009
 20
-4053.033008588991
 11
4993.033008588991
 21
-3946.966991411009
  0
LINE
  5
101
100
AcDbEntity
  8
dimension
  6
ByBlock
 62
    0
370
   -2
100
AcDbLine
 10
5016.966991411009
 20
-4053.033008588991
 11
5123.033008588991
 21
-3946.966991411009
  0
LINE
  5
102
100
AcDbEntity
  8
dimension
  6
ByBlock
 62
    0
370
   -2
100
AcDbLine
 10
4940
 20
-4128.75
 11
4940
 21
-3993.75
  0
LINE
  5
103
100
AcDbEntity
  8
dimension
  6
ByBlock
 62
    0
370
   -2
100
AcDbLine
 10
5070
 20
-4128.75
 11
5070
 21
-3993.75
  0
ENDBLK
  5
6D
330
6B
100
AcDbEntity
  8
0
100
AcDbBlockEnd
  0
BLOCK
  5
6F
330
6E
100
AcDbEntity
  8
0
100
AcDbBlockBegin
  2
*D11
 70
    1
 10
0
 20
0
  3
*D11
  1

  0
LINE
  5
104
100
AcDbEntity
  8
dimension
  6
ByBlock
 62
    0
370
   -2
100
AcDbLine
 10
5500
 20
-860
 11
5500
 21
-220
  0
MTEXT
  5
105
100
AcDbEntity
  8
dimension
  6
CONTINUOUS
 62
    0
370
   -2
100
AcDbMText
 10
5423.75
 20
-540
 30
0
 40
90
 41
190.0000000000056
 71
    5
 72
    1
  1
640
  7
standard
210
0
220
0
230
1
 50
90
 73
    2
 44
1
  0
LINE
  5
106
100
AcDbEntity
  8
dimension
  6
ByBlock
 62
    0
370
   -2
100
AcDbLine
 10
5446.966991411009
 20
-806.966991411009
 11
5553.033008588991
 21
-913.033008588991
  0
LINE
  5
107
100
AcDbEntity
  8
dimension
  6
ByBlock
 62
    0
370
   -2
100
AcDbLine
 10
5446.966991411009
 20
-166.9669914110089
 11
5553.033008588991
 21
-273.0330085889911
  0
LINE
  5
108
100
AcDbEntity
  8
dimension
  6
ByBlock
 62
    0
370
   -2
100
AcDbLine
 10
5743.75
 20
-860
 11
5493.75
 21
-860
  0
LINE
  5
109
100
AcDbEntity
  8
dimension
  6
ByBlock
 62
    0
370
   -2
100
AcDbLine
 10
5743.75
 20
-220
 11
5493.75
 21
-220
  0
ENDBLK
  5
70
330
6E
100
AcDbEntity
  8
0
100
AcDbBlockEnd
  0
BLOCK
  5
72
330
71
100
AcDbEntity
  8
0
100
AcDbBlockBegin
  2
*D8
 70
    1
 10
0
 20
0
  3
*D8
  1

  0
LINE
  5
10A
100
AcDbEntity
  8
outlet
  6
CONTINUOUS
 62
    7
370
    0
100
AcDbLine
 10
5770
 20
-730
 11
5380
 21
-330
  0
LINE
  5
10B
100
AcDbEntity
  8
outlet
  6
CONTINUOUS
 62
    7
370
    0
100
AcDbLine
 10
5380
 20
-330
 11
5170
 21
-330
  0
SOLID
  5
10C
100
AcDbEntity
  8
outlet
  6
CONTINUOUS
 62
    7
370
    0
100
AcDbTrace
 10
5770
 20
-730
 30
0
 11
5667.834489329456
 21
-655.0304013604878
 31
0
 12
5697.640476638159
 22
-625.9695637345019
 32
0
 13
5697.640476638159
 23
-625.9695637345019
 33
0
  0
ENDBLK
  5
73
330
71
100
AcDbEntity
  8
0
100
AcDbBlockEnd
  0
BLOCK
  5
75
330
74
100
AcDbEntity
  8
0
100
AcDbBlockBegin
  2
*D16
 70
    1
 10
0
 20
0
  3
*D16
  1

  0
LINE
  5
10D
100
AcDbEntity
  8
outlet
  6
CONTINUOUS
 62
    7
370
    0
100
AcDbLine
 10
4940
 20
-4160
 11
4970
 21
-3730
  0
LINE
  5
10E
100
AcDbEntity
  8
outlet
  6
CONTINUOUS
 62
    7
370
    0
100
AcDbLine
 10
4970
 20
-3730
 11
5330
 21
-3730
  0
SOLID
  5
10F
100
AcDbEntity
  8
outlet
  6
CONTINUOUS
 62
    7
370
    0
100
AcDbTrace
 10
4940
 20
-4160
 30
0
 11
4927.936022383415
 21
-4033.854477943888
 31
0
 12
4969.463543328846
 22
-4036.751746847057
 32
0
 13
4969.463543328846
 23
-4036.751746847057
 33
0
  0
ENDBLK
  5
76
330
74
100
AcDbEntity
  8
0
100
AcDbBlockEnd
  0
BLOCK
  5
78
330
77
100
AcDbEntity
  8
0
100
AcDbBlockBegin
  2
*D24
 70
    1
 10
0
 20
0
  3
*D24
  1

  0
LINE
  5
110
100
AcDbEntity
  8
dimension
  6
ByBlock
 62
    0
370
   -2
100
AcDbLine
 10
2952.5
 20
-500
 11
2235
 21
-500
  0
MTEXT
  5
111
100
AcDbEntity
  8
dimension
  6
CONTINUOUS
 62
    0
370
   -2
100
AcDbMText
 10
2593.75
 20
-423.75
 30
0
 40
90
 41
160
 71
    5
 72
    1
  1
218
  7
standard
210
0
220
0
230
1
 50
0
 73
    2
 44
1
  0
LINE
  5
112
100
AcDbEntity
  8
dimension
  6
ByBlock
 62
    0
370
   -2
100
AcDbLine
 10
2755.533008588991
 20
-446.966991411009
 11
2649.466991411009
 21
-553.033008588991
  0
LINE
  5
113
100
AcDbEntity
  8
dimension
  6
ByBlock
 62
    0
370
   -2
100
AcDbLine
 10
2538.033008588991
 20
-446.966991411009
 11
2431.966991411009
 21
-553.033008588991
  0
LINE
  5
114
100
AcDbEntity
  8
dimension
  6
ByBlock
 62
    0
370
   -2
100
AcDbLine
 10
2702.5
 20
-251.25
 11
2702.5
 21
-506.25
  0
LINE
  5
115
100
AcDbEntity
  8
dimension
  6
ByBlock
 62
    0
370
   -2
100
AcDbLine
 10
2485
 20
-251.25
 11
2485
 21
-506.25
  0
ENDBLK
  5
79
330
77
100
AcDbEntity
  8
0
100
AcDbBlockEnd
  0
BLOCK
  5
7B
330
7A
100
AcDbEntity
  8
0
100
AcDbBlockBegin
  2
*D7
 70
    1
 10
0
 20
0
  3
*D7
  1

  0
LINE
  5
116
100
AcDbEntity
  8
outlet
  6
CONTINUOUS
 62
    7
370
    0
100
AcDbLine
 10
5775
 20
-860
 11
5180
 21
-630
  0
LINE
  5
117
100
AcDbEntity
  8
outlet
  6
CONTINUOUS
 62
    7
370
    0
100
AcDbLine
 10
5180
 20
-630
 11
4670
 21
-630
  0
SOLID
  5
118
100
AcDbEntity
  8
outlet
  6
CONTINUOUS
 62
    7
370
    0
100
AcDbTrace
 10
5775
 20
-860
 30
0
 11
5650.903060008864
 21
-834.344946392981
 31
0
 12
5665.912381330535
 22
-795.5164847130053
 32
0
 13
5665.912381330535
 23
-795.5164847130053
 33
0
  0
ENDBLK
  5
7C
330
7A
100
AcDbEntity
  8
0
100
AcDbBlockEnd
  0
BLOCK
  5
7E
330
7D
100
AcDbEntity
  8
0
100
AcDbBlockBegin
  2
*D20
 70
    1
 10
0
 20
0
  3
*D20
  1

  0
LINE
  5
119
100
AcDbEntity
  8
dimension
  6
ByBlock
 62
    0
370
   -2
100
AcDbLine
 10
2702.5
 20
-7600
 11
2702.5
 21
-6950
  0
MTEXT
  5
11A
100
AcDbEntity
  8
dimension
  6
CONTINUOUS
 62
    0
370
   -2
100
AcDbMText
 10
2626.25
 20
-7088.749999999997
 30
0
 40
90
 41
160.0000000000056
 71
    5
 72
    1
  1
150
  7
standard
210
0
220
0
230
1
 50
90
 73
    2
 44
1
  0
LINE
  5
11B
100
AcDbEntity
  8
dimension
  6
ByBlock
 62
    0
370
   -2
100
AcDbLine
 10
2755.533008588991
 20
-7403.033008588991
 11
2649.466991411009
 21
-7296.966991411009
  0
LINE
  5
11C
100
AcDbEntity
  8
dimension
  6
ByBlock
 62
    0
370
   -2
100
AcDbLine
 10
2755.533008588991
 20
-7253.033008588991
 11
2649.466991411009
 21
-7146.966991411009
  0
LINE
  5
11D
100
AcDbEntity
  8
dimension
  6
ByBlock
 62
    0
370
   -2
100
AcDbLine
 10
2833.75
 20
-7350
 11
2696.25
 21
-7350
  0
LINE
  5
11E
100
AcDbEntity
  8
dimension
  6
ByBlock
 62
    0
370
   -2
100
AcDbLine
 10
2833.75
 20
-7200
 11
2696.25
 21
-7200
  0
ENDBLK
  5
7F
330
7D
100
AcDbEntity
  8
0
100
AcDbBlockEnd
  0
BLOCK
  5
81
330
80
100
AcDbEntity
  8
0
100
AcDbBlockBegin
  2
*D30
 70
    1
 10
0
 20
0
  3
*D30
  1

  0
LINE
  5
11F
100
AcDbEntity
  8
outlet
  6
CONTINUOUS
 62
    7
370
    0
100
AcDbLine
 10
2865
 20
-7350
 11
2480
 21
-7530
  0
LINE
  5
120
100
AcDbEntity
  8
outlet
  6
CONTINUOUS
 62
    7
370
    0
100
AcDbLine
 10
2480
 20
-7530
 11
2280
 21
-7530
  0
SOLID
  5
121
100
AcDbEntity
  8
outlet
  6
CONTINUOUS
 62
    7
370
    0
100
AcDbTrace
 10
2865
 20
-7350
 30
0
 11
2760.580145694013
 21
-7421.796422734417
 31
0
 12
2742.949266070693
 22
-7384.085930206759
 32
0
 13
2742.949266070693
 23
-7384.085930206759
 33
0
  0
ENDBLK
  5
82
330
80
100
AcDbEntity
  8
0
100
AcDbBlockEnd
  0
BLOCK
  5
84
330
83
100
AcDbEntity
  8
0
100
AcDbBlockBegin
  2
*D19
 70
    1
 10
0
 20
0
  3
*D19
  1

  0
LINE
  5
122
100
AcDbEntity
  8
dimension
  6
ByBlock
 62
    0
370
   -2
100
AcDbLine
 10
1700
 20
-5780
 11
1700
 21
-5130
  0
MTEXT
  5
123
100
AcDbEntity
  8
dimension
  6
CONTINUOUS
 62
    0
370
   -2
100
AcDbMText
 10
1623.75
 20
-5268.749999999997
 30
0
 40
90
 41
160.0000000000056
 71
    5
 72
    1
  1
150
  7
standard
210
0
220
0
230
1
 50
90
 73
    2
 44
1
  0
LINE
  5
124
100
AcDbEntity
  8
dimension
  6
ByBlock
 62
    0
370
   -2
100
AcDbLine
 10
1753.033008588991
 20
-5583.033008588991
 11
1646.966991411009
 21
-5476.966991411009
  0
LINE
  5
125
100
AcDbEntity
  8
dimension
  6
ByBlock
 62
    0
370
   -2
100
AcDbLine
 10
1753.033008588991
 20
-5433.033008588991
 11
1646.966991411009
 21
-5326.966991411009
  0
LINE
  5
126
100
AcDbEntity
  8
dimension
  6
ByBlock
 62
    0
370
   -2
100
AcDbLine
 10
1416.25
 20
-5530
 11
1706.25
 21
-5530
  0
LINE
  5
127
100
AcDbEntity
  8
dimension
  6
ByBlock
 62
    0
370
   -2
100
AcDbLine
 10
1416.25
 20
-5380
 11
1706.25
 21
-5380
  0
ENDBLK
  5
85
330
83
100
AcDbEntity
  8
0
100
AcDbBlockEnd
  0
BLOCK
  5
87
330
86
100
AcDbEntity
  8
0
100
AcDbBlockBegin
  2
*D28
 70
    1
 10
0
 20
0
  3
*D28
  1

  0
LINE
  5
128
100
AcDbEntity
  8
outlet
  6
CONTINUOUS
 62
    7
370
    0
100
AcDbLine
 10
5775
 20
-1986
 11
5280
 21
-1730
  0
LINE
  5
129
100
AcDbEntity
  8
outlet
  6
CONTINUOUS
 62
    7
370
    0
100
AcDbLine
 10
5280
 20
-1730
 11
4770
 21
-1730
  0
SOLID
  5
12A
100
AcDbEntity
  8
outlet
  6
CONTINUOUS
 62
    7
370
    0
100
AcDbTrace
 10
5775
 20
-1986
 30
0
 11
5654.408118995159
 21
-1947.066331710754
 31
0
 12
5673.531158062653
 22
-1910.090142888842
 32
0
 13
5673.531158062653
 23
-1910.090142888842
 33
0
  0
ENDBLK
  5
88
330
86
100
AcDbEntity
  8
0
100
AcDbBlockEnd
  0
BLOCK
  5
8A
330
89
100
AcDbEntity
  8
0
100
AcDbBlockBegin
  2
*D5
 70
    1
 10
0
 20
0
  3
*D5
  1

  0
LINE
  5
12B
100
AcDbEntity
  8
outlet
  6
CONTINUOUS
 62
    7
370
    0
100
AcDbLine
 10
1615
 20
-7550
 11
1770
 21
-7130
  0
LINE
  5
12C
100
AcDbEntity
  8
outlet
  6
CONTINUOUS
 62
    7
370
    0
100
AcDbLine
 10
1770
 20
-7130
 11
2130
 21
-7130
  0
SOLID
  5
12D
100
AcDbEntity
  8
outlet
  6
CONTINUOUS
 62
    7
370
    0
100
AcDbTrace
 10
1615
 20
-7550
 30
0
 11
1638.75093843586
 21
-7425.524599963854
 31
0
 12
1677.804779047235
 22
-7439.937326856147
 32
0
 13
1677.804779047235
 23
-7439.937326856147
 33
0
  0
ENDBLK
  5
8B
330
89
100
AcDbEntity
  8
0
100
AcDbBlockEnd
  0
BLOCK
  5
8D
330
8C
100
AcDbEntity
  8
0
100
AcDbBlockBegin
  2
*D3
 70
    1
 10
0
 20
0
  3
*D3
  1

  0
LINE
  5
12E
100
AcDbEntity
  8
outlet
  6
CONTINUOUS
 62
    7
370
    0
100
AcDbLine
 10
5705
 20
-6287.5
 11
5380
 21
-6030
  0
LINE
  5
12F
100
AcDbEntity
  8
outlet
  6
CONTINUOUS
 62
    7
370
    0
100
AcDbLine
 10
5380
 20
-6030
 11
5170
 21
-6030
  0
SOLID
  5
130
100
AcDbEntity
  8
outlet
  6
CONTINUOUS
 62
    7
370
    0
100
AcDbTrace
 10
5705
 20
-6287.5
 30
0
 11
5594.098960640588
 21
-6226.187751959785
 31
0
 12
5619.950727357337
 22
-6193.559308530879
 32
0
 13
5619.950727357337
 23
-6193.559308530879
 33
0
  0
ENDBLK
  5
8E
330
8C
100
AcDbEntity
  8
0
100
AcDbBlockEnd
  0
BLOCK
  5
90
330
8F
100
AcDbEntity
  8
0
100
AcDbBlockBegin
  2
*D15
 70
    1
 10
0
 20
0
  3
*D15
  1

  0
LINE
  5
131
100
AcDbEntity
  8
dimension
  6
ByBlock
 62
    0
370
   -2
100
AcDbLine
 10
5499.999999999999
 20
-2851
 11
5499.999999999999
 21
-4260
  0
MTEXT
  5
132
100
AcDbEntity
  8
dimension
  6
CONTINUOUS
 62
    0
370
   -2
100
AcDbMText
 10
5423.749999999999
 20
-3555.5
 30
0
 40
90
 41
240.0000000000001
 71
    5
 72
    1
  1
1409
  7
standard
210
0
220
0
230
1
 50
90
 73
    2
 44
1
  0
LINE
  5
133
100
AcDbEntity
  8
dimension
  6
ByBlock
 62
    0
370
   -2
100
AcDbLine
 10
5553.03300858899
 20
-2904.033008588991
 11
5446.966991411008
 21
-2797.966991411009
  0
LINE
  5
134
100
AcDbEntity
  8
dimension
  6
ByBlock
 62
    0
370
   -2
100
AcDbLine
 10
5553.03300858899
 20
-4313.033008588991
 11
5446.966991411008
 21
-4206.966991411009
  0
LINE
  5
135
100
AcDbEntity
  8
dimension
  6
ByBlock
 62
    0
370
   -2
100
AcDbLine
 10
5743.749999999999
 20
-2851
 11
5493.749999999999
 21
-2851
  0
LINE
  5
136
100
AcDbEntity
  8
dimension
  6
ByBlock
 62
    0
370
   -2
100
AcDbLine
 10
5743.75
 20
-4260
 11
5493.749999999999
 21
-4260
  0
ENDBLK
  5
91
330
8F
100
AcDbEntity
  8
0
100
AcDbBlockEnd
  0
BLOCK
  5
93
330
92
100
AcDbEntity
  8
0
100
AcDbBlockBegin
  2
*D25
 70
    1
 10
0
 20
0
  3
*D25
  1

  0
LINE
  5
137
100
AcDbEntity
  8
dimension
  6
ByBlock
 62
    0
370
   -2
100
AcDbLine
 10
3875
 20
-3860
 11
4505
 21
-3860
  0
MTEXT
  5
138
100
AcDbEntity
  8
dimension
  6
CONTINUOUS
 62
    0
370
   -2
100
AcDbMText
 10
4366.250000000003
 20
-3783.75
 30
0
 40
90
 41
160.0000000000056
 71
    5
 72
    1
  1
130
  7
standard
210
0
220
0
230
1
 50
0
 73
    2
 44
1
  0
LINE
  5
139
100
AcDbEntity
  8
dimension
  6
ByBlock
 62
    0
370
   -2
100
AcDbLine
 10
4071.966991411009
 20
-3913.033008588991
 11
4178.033008588991
 21
-3806.966991411009
  0
LINE
  5
13A
100
AcDbEntity
  8
dimension
  6
ByBlock
 62
    0
370
   -2
100
AcDbLine
 10
4201.966991411009
 20
-3913.033008588991
 11
4308.033008588991
 21
-3806.966991411009
  0
LINE
  5
13B
100
AcDbEntity
  8
dimension
  6
ByBlock
 62
    0
370
   -2
100
AcDbLine
 10
4125
 20
-4128.75
 11
4125
 21
-3853.75
  0
LINE
  5
13C
100
AcDbEntity
  8
dimension
  6
ByBlock
 62
    0
370
   -2
100
AcDbLine
 10
4255
 20
-4128.75
 11
4255
 21
-3853.75
  0
ENDBLK
  5
94
330
92
100
AcDbEntity
  8
0
100
AcDbBlockEnd
  0
BLOCK
  5
96
330
95
100
AcDbEntity
  8
0
100
AcDbBlockBegin
  2
*D13
 70
    1
 10
0
 20
0
  3
*D13
  1

  0
LINE
  5
13D
100
AcDbEntity
  8
dimension
  6
ByBlock
 62
    0
370
   -2
100
AcDbLine
 10
5500
 20
-1210
 11
5500
 21
-1986
  0
MTEXT
  5
13E
100
AcDbEntity
  8
dimension
  6
CONTINUOUS
 62
    0
370
   -2
100
AcDbMText
 10
5423.75
 20
-1598
 30
0
 40
90
 41
180.0000000000056
 71
    5
 72
    1
  1
776
  7
standard
210
0
220
0
230
1
 50
90
 73
    2
 44
1
  0
LINE
  5
13F
100
AcDbEntity
  8
dimension
  6
ByBlock
 62
    0
370
   -2
100
AcDbLine
 10
5553.033008588991
 20
-1263.033008588991
 11
5446.966991411009
 21
-1156.966991411009
  0
LINE
  5
140
100
AcDbEntity
  8
dimension
  6
ByBlock
 62
    0
370
   -2
100
AcDbLine
 10
5553.033008588991
 20
-2039.033008588991
 11
5446.966991411009
 21
-1932.966991411009
  0
LINE
  5
141
100
AcDbEntity
  8
dimension
  6
ByBlock
 62
    0
370
   -2
100
AcDbLine
 10
5743.75
 20
-1210
 11
5493.75
 21
-1210
  0
LINE
  5
142
100
AcDbEntity
  8
dimension
  6
ByBlock
 62
    0
370
   -2
100
AcDbLine
 10
5743.75
 20
-1986
 11
5493.75
 21
-1986
  0
ENDBLK
  5
97
330
95
100
AcDbEntity
  8
0
100
AcDbBlockEnd
  0
BLOCK
  5
99
330
98
100
AcDbEntity
  8
0
100
AcDbBlockBegin
  2
*D31
 70
    1
 10
0
 20
0
  3
*D31
  1

  0
LINE
  5
143
100
AcDbEntity
  8
dimension
  6
ByBlock
 62
    0
370
   -2
100
AcDbLine
 10
1365
 20
-7400
 11
2095
 21
-7400
  0
MTEXT
  5
144
100
AcDbEntity
  8
dimension
  6
CONTINUOUS
 62
    0
370
   -2
100
AcDbMText
 10
1730
 20
-7323.75
 30
0
 40
90
 41
180.0000000000056
 71
    5
 72
    1
  1
230
  7
standard
210
0
220
0
230
1
 50
0
 73
    2
 44
1
  0
LINE
  5
145
100
AcDbEntity
  8
dimension
  6
ByBlock
 62
    0
370
   -2
100
AcDbLine
 10
1561.966991411009
 20
-7453.033008588991
 11
1668.033008588991
 21
-7346.966991411009
  0
LINE
  5
146
100
AcDbEntity
  8
dimension
  6
ByBlock
 62
    0
370
   -2
100
AcDbLine
 10
1791.966991411009
 20
-7453.033008588991
 11
1898.033008588991
 21
-7346.966991411009
  0
LINE
  5
147
100
AcDbEntity
  8
dimension
  6
ByBlock
 62
    0
370
   -2
100
AcDbLine
 10
1615
 20
-7518.75
 11
1615
 21
-7393.75
  0
LINE
  5
148
100
AcDbEntity
  8
dimension
  6
ByBlock
 62
    0
370
   -2
100
AcDbLine
 10
1845
 20
-7518.75
 11
1845
 21
-7393.75
  0
ENDBLK
  5
9A
330
98
100
AcDbEntity
  8
0
100
AcDbBlockEnd
  0
BLOCK
  5
9C
330
9B
100
AcDbEntity
  8
0
100
AcDbBlockBegin
  2
*D22
 70
    1
 10
0
 20
0
  3
*D22
  1

  0
LINE
  5
149
100
AcDbEntity
  8
dimension
  6
ByBlock
 62
    0
370
   -2
100
AcDbLine
 10
300
 20
-1950
 11
300
 21
-5380
  0
MTEXT
  5
14A
100
AcDbEntity
  8
dimension
  6
CONTINUOUS
 62
    0
370
   -2
100
AcDbMText
 10
223.75
 20
-3665
 30
0
 40
90
 41
260.0000000000111
 71
    5
 72
    1
  1
3430
  7
standard
210
0
220
0
230
1
 50
90
 73
    2
 44
1
  0
LINE
  5
14B
100
AcDbEntity
  8
dimension
  6
ByBlock
 62
    0
370
   -2
100
AcDbLine
 10
353.033008588991
 20
-2003.033008588991
 11
246.9669914110089
 21
-1896.966991411009
  0
LINE
  5
14C
100
AcDbEntity
  8
dimension
  6
ByBlock
 62
    0
370
   -2
100
AcDbLine
 10
353.033008588991
 20
-5433.033008588991
 11
246.9669914110089
 21
-5326.966991411009
  0
LINE
  5
14D
100
AcDbEntity
  8
dimension
  6
ByBlock
 62
    0
370
   -2
100
AcDbLine
 10
51.25000000000022
 20
-1950
 11
306.25
 21
-1950
  0
LINE
  5
14E
100
AcDbEntity
  8
dimension
  6
ByBlock
 62
    0
370
   -2
100
AcDbLine
 10
51.25000000000001
 20
-5380
 11
306.25
 21
-5380
  0
ENDBLK
  5
9D
330
9B
100
AcDbEntity
  8
0
100
AcDbBlockEnd
  0
BLOCK
  5
9F
330
9E
100
AcDbEntity
  8
0
100
AcDbBlockBegin
  2
*D34
 70
    1
 10
0
 20
0
  3
*D34
  1

  0
LINE
  5
14F
100
AcDbEntity
  8
dimension
  6
CONTINUOUS
 62
    7
370
    0
100
AcDbLine
 10
4255
 20
-4160
 11
4570
 21
-3790
  0
LINE
  5
150
100
AcDbEntity
  8
dimension
  6
CONTINUOUS
 62
    7
370
    0
100
AcDbLine
 10
4570
 20
-3790
 11
4780
 21
-3790
  0
SOLID
  5
151
100
AcDbEntity
  8
dimension
  6
CONTINUOUS
 62
    7
370
    0
100
AcDbTrace
 10
4255
 20
-4160
 30
0
 11
4320.182089366696
 21
-4051.328349987061
 31
0
 12
4351.879307151406
 22
-4078.313819182152
 32
0
 13
4351.879307151406
 23
-4078.313819182152
 33
0
  0
ENDBLK
  5
A0
330
9E
100
AcDbEntity
  8
0
100
AcDbBlockEnd
  0
BLOCK
  5
A2
330
A1
100
AcDbEntity
  8
0
100
AcDbBlockBegin
  2
*D14
 70
    1
 10
0
 20
0
  3
*D14
  1

  0
LINE
  5
152
100
AcDbEntity
  8
dimension
  6
ByBlock
 62
    0
370
   -2
100
AcDbLine
 10
5499.999999999999
 20
-1986
 11
5499.999999999999
 21
-2851
  0
MTEXT
  5
153
100
AcDbEntity
  8
dimension
  6
CONTINUOUS
 62
    0
370
   -2
100
AcDbMText
 10
5423.749999999999
 20
-2418.5
 30
0
 40
90
 41
180.0000000000112
 71
    5
 72
    1
  1
865
  7
standard
210
0
220
0
230
1
 50
90
 73
    2
 44
1
  0
LINE
  5
154
100
AcDbEntity
  8
dimension
  6
ByBlock
 62
    0
370
   -2
100
AcDbLine
 10
5553.03300858899
 20
-2039.033008588991
 11
5446.966991411008
 21
-1932.966991411009
  0
LINE
  5
155
100
AcDbEntity
  8
dimension
  6
ByBlock
 62
    0
370
   -2
100
AcDbLine
 10
5553.03300858899
 20
-2904.033008588991
 11
5446.966991411008
 21
-2797.966991411009
  0
LINE
  5
156
100
AcDbEntity
  8
dimension
  6
ByBlock
 62
    0
370
   -2
100
AcDbLine
 10
5743.75
 20
-1986
 11
5493.749999999999
 21
-1986
  0
LINE
  5
157
100
AcDbEntity
  8
dimension
  6
ByBlock
 62
    0
370
   -2
100
AcDbLine
 10
5743.749999999999
 20
-2851
 11
5493.749999999999
 21
-2851
  0
ENDBLK
  5
A3
330
A1
100
AcDbEntity
  8
0
100
AcDbBlockEnd
  0
BLOCK
  5
A5
330
A4
100
AcDbEntity
  8
0
100
AcDbBlockBegin
  2
*D27
 70
    1
 10
0
 20
0
  3
*D27
  1

  0
LINE
  5
158
100
AcDbEntity
  8
dimension
  6
ByBlock
 62
    0
370
   -2
100
AcDbLine
 10
4400
 20
-7220
 11
4400
 21
-7820
  0
MTEXT
  5
159
100
AcDbEntity
  8
dimension
  6
CONTINUOUS
 62
    0
370
   -2
100
AcDbMText
 10
4323.75
 20
-7358.75
 30
0
 40
90
 41
160
 71
    5
 72
    1
  1
100
  7
standard
210
0
220
0
230
1
 50
90
 73
    2
 44
1
  0
LINE
  5
15A
100
AcDbEntity
  8
dimension
  6
ByBlock
 62
    0
370
   -2
100
AcDbLine
 10
4346.966991411009
 20
-7416.966991411009
 11
4453.033008588991
 21
-7523.033008588991
  0
LINE
  5
15B
100
AcDbEntity
  8
dimension
  6
ByBlock
 62
    0
370
   -2
100
AcDbLine
 10
4346.966991411009
 20
-7516.966991411009
 11
4453.033008588991
 21
-7623.033008588991
  0
LINE
  5
15C
100
AcDbEntity
  8
dimension
  6
ByBlock
 62
    0
370
   -2
100
AcDbLine
 10
4136.25
 20
-7470
 11
4406.25
 21
-7470
  0
LINE
  5
15D
100
AcDbEntity
  8
dimension
  6
ByBlock
 62
    0
370
   -2
100
AcDbLine
 10
4136.25
 20
-7570
 11
4406.25
 21
-7570
  0
ENDBLK
  5
A6
330
A4
100
AcDbEntity
  8
0
100
AcDbBlockEnd
  0
BLOCK
  5
A8
330
A7
100
AcDbEntity
  8
0
100
AcDbBlockBegin
  2
*D21
 70
    1
 10
0
 20
0
  3
*D21
  1

  0
LINE
  5
15E
100
AcDbEntity
  8
dimension
  6
ByBlock
 62
    0
370
   -2
100
AcDbLine
 10
300
 20
-20
 11
300
 21
-1950
  0
MTEXT
  5
15F
100
AcDbEntity
  8
dimension
  6
CONTINUOUS
 62
    0
370
   -2
100
AcDbMText
 10
223.75
 20
-985
 30
0
 40
90
 41
230.0000000000056
 71
    5
 72
    1
  1
1930
  7
standard
210
0
220
0
230
1
 50
90
 73
    2
 44
1
  0
LINE
  5
160
100
AcDbEntity
  8
dimension
  6
ByBlock
 62
    0
370
   -2
100
AcDbLine
 10
353.033008588991
 20
-73.03300858899107
 11
246.9669914110089
 21
33.03300858899107
  0
LINE
  5
161
100
AcDbEntity
  8
dimension
  6
ByBlock
 62
    0
370
   -2
100
AcDbLine
 10
353.033008588991
 20
-2003.033008588991
 11
246.9669914110089
 21
-1896.966991411009
  0
LINE
  5
162
100
AcDbEntity
  8
dimension
  6
ByBlock
 62
    0
370
   -2
100
AcDbLine
 10
51.25
 20
-20
 11
306.25
 21
-20
  0
LINE
  5
163
100
AcDbEntity
  8
dimension
  6
ByBlock
 62
    0
370
   -2
100
AcDbLine
 10
51.25000000000022
 20
-1950
 11
306.25
 21
-1950
  0
ENDBLK
  5
A9
330
A7
100
AcDbEntity
  8
0
100
AcDbBlockEnd
  0
BLOCK
  5
AB
330
AA
100
AcDbEntity
  8
0
100
AcDbBlockBegin
  2
*D2
 70
    1
 10
0
 20
0
  3
*D2
  1

  0
LINE
  5
164
100
AcDbEntity
  8
outlet
  6
CONTINUOUS
 62
    7
370
    0
100
AcDbLine
 10
3985
 20
-5640
 11
3580
 21
-5380
  0
LINE
  5
165
100
AcDbEntity
  8
outlet
  6
CONTINUOUS
 62
    7
370
    0
100
AcDbLine
 10
3580
 20
-5380
 11
3370
 21
-5380
  0
SOLID
  5
166
100
AcDbEntity
  8
outlet
  6
CONTINUOUS
 62
    7
370
    0
100
AcDbTrace
 10
3985
 20
-5640
 30
0
 11
3868.565994017411
 21
-5589.986456418395
 31
0
 12
3891.055040236775
 22
-5554.955442115155
 32
0
 13
3891.055040236775
 23
-5554.955442115155
 33
0
  0
ENDBLK
  5
AC
330
AA
100
AcDbEntity
  8
0
100
AcDbBlockEnd
  0
BLOCK
  5
AE
330
AD
100
AcDbEntity
  8
0
100
AcDbBlockBegin
  2
*D10
 70
    1
 10
0
 20
0
  3
*D10
  1

  0
LINE
  5
167
100
AcDbEntity
  8
outlet
  6
CONTINUOUS
 62
    7
370
    0
100
AcDbLine
 10
5774.999999999999
 20
-2851
 11
5280
 21
-2530
  0
LINE
  5
168
100
AcDbEntity
  8
outlet
  6
CONTINUOUS
 62
    7
370
    0
100
AcDbLine
 10
5280
 20
-2530
 11
5070
 21
-2530
  0
SOLID
  5
169
100
AcDbEntity
  8
outlet
  6
CONTINUOUS
 62
    7
370
    0
100
AcDbTrace
 10
5774.999999999999
 20
-2851
 30
0
 11
5658.797089731415
 21
-2800.451845376372
 31
0
 12
5681.446903548702
 22
-2765.524562387099
 32
0
 13
5681.446903548702
 23
-2765.524562387099
 33
0
  0
ENDBLK
  5
AF
330
AD
100
AcDbEntity
  8
0
100
AcDbBlockEnd
  0
BLOCK
  5
B1
330
B0
100
AcDbEntity
  8
0
100
AcDbBlockBegin
  2
*D6
 70
    1
 10
0
 20
0
  3
*D6
  1

  0
LINE
  5
16A
100
AcDbEntity
  8
outlet
  6
CONTINUOUS
 62
    7
370
    0
100
AcDbLine
 10
1385
 20
-7200
 11
1680
 21
-6700
  0
LINE
  5
16B
100
AcDbEntity
  8
outlet
  6
CONTINUOUS
 62
    7
370
    0
100
AcDbLine
 10
1680
 20
-6700
 11
1890
 21
-6700
  0
SOLID
  5
16C
100
AcDbEntity
  8
outlet
  6
CONTINUOUS
 62
    7
370
    0
100
AcDbTrace
 10
1385
 20
-7200
 30
0
 11
1430.591948839973
 21
-7081.764614045896
 31
0
 12
1466.445266654599
 22
-7102.918071556525
 32
0
 13
1466.445266654599
 23
-7102.918071556525
 33
0
  0
ENDBLK
  5
B2
330
B0
100
AcDbEntity
  8
0
100
AcDbBlockEnd
  0
BLOCK
  5
B4
330
B3
100
AcDbEntity
  8
0
100
AcDbBlockBegin
  2
*D9
 70
    1
 10
0
 20
0
  3
*D9
  1

  0
LINE
  5
16D
100
AcDbEntity
  8
outlet
  6
CONTINUOUS
 62
    7
370
    0
100
AcDbLine
 10
5775
 20
-1210
 11
5180
 21
-1130
  0
LINE
  5
16E
100
AcDbEntity
  8
outlet
  6
CONTINUOUS
 62
    7
370
    0
100
AcDbLine
 10
5180
 20
-1130
 11
4670
 21
-1130
  0
SOLID
  5
16F
100
AcDbEntity
  8
outlet
  6
CONTINUOUS
 62
    7
370
    0
100
AcDbTrace
 10
5775
 20
-1210
 30
0
 11
5648.341177450443
 21
-1213.971770524887
 31
0
 12
5653.888366137697
 22
-1172.714554663434
 32
0
 13
5653.888366137697
 23
-1172.714554663434
 33
0
  0
ENDBLK
  5
B5
330
B3
100
AcDbEntity
  8
0
100
AcDbBlockEnd
  0
BLOCK
  5
B7
330
B6
100
AcDbEntity
  8
0
100
AcDbBlockBegin
  2
*D1
 70
    1
 10
0
 20
0
  3
*D1
  1

  0
LINE
  5
170
100
AcDbEntity
  8
outlet
  6
CONTINUOUS
 62
    7
370
    0
100
AcDbLine
 10
20.00000000000022
 20
-1950
 11
470
 21
-1830
  0
LINE
  5
171
100
AcDbEntity
  8
outlet
  6
CONTINUOUS
 62
    7
370
    0
100
AcDbLine
 10
470
 20
-1830
 11
1130
 21
-1830
  0
SOLID
  5
172
100
AcDbEntity
  8
outlet
  6
CONTINUOUS
 62
    7
370
    0
100
AcDbTrace
 10
20.00000000000022
 20
-1950
 30
0
 11
135.4163170346885
 21
-1897.680729621955
 31
0
 12
146.1424178656236
 22
-1937.903607737962
 32
0
 13
146.1424178656236
 23
-1937.903607737962
 33
0
  0
ENDBLK
  5
B8
330
B6
100
AcDbEntity
  8
0
100
AcDbBlockEnd
  0
BLOCK
  5
BA
330
B9
100
AcDbEntity
  8
0
100
AcDbBlockBegin
  2
*D29
 70
    1
 10
0
 20
0
  3
*D29
  1

  0
LINE
  5
173
100
AcDbEntity
  8
outlet
  6
CONTINUOUS
 62
    7
370
    0
100
AcDbLine
 10
3985
 20
-3860
 11
3480
 21
-4430
  0
LINE
  5
174
100
AcDbEntity
  8
outlet
  6
CONTINUOUS
 62
    7
370
    0
100
AcDbLine
 10
3480
 20
-4430
 11
2970
 21
-4430
  0
SOLID
  5
175
100
AcDbEntity
  8
outlet
  6
CONTINUOUS
 62
    7
370
    0
100
AcDbTrace
 10
3985
 20
-3860
 30
0
 11
3917.6868052083
 21
-3967.364640816599
 31
0
 12
3886.52810409614
 22
-3939.759124918983
 32
0
 13
3886.52810409614
 23
-3939.759124918983
 33
0
  0
ENDBLK
  5
BB
330
B9
100
AcDbEntity
  8
0
100
AcDbBlockEnd
  0
BLOCK
  5
BD
330
BC
100
AcDbEntity
  8
0
100
AcDbBlockBegin
  2
*D12
 70
    1
 10
0
 20
0
  3
*D12
  1

  0
LINE
  5
176
100
AcDbEntity
  8
dimension
  6
ByBlock
 62
    0
370
   -2
100
AcDbLine
 10
5500
 20
-860
 11
5500
 21
-1210
  0
MTEXT
  5
177
100
AcDbEntity
  8
dimension
  6
CONTINUOUS
 62
    0
370
   -2
100
AcDbMText
 10
5423.75
 20
-1035
 30
0
 40
90
 41
180.0000000000112
 71
    5
 72
    1
  1
350
  7
standard
210
0
220
0
230
1
 50
90
 73
    2
 44
1
  0
LINE
  5
178
100
AcDbEntity
  8
dimension
  6
ByBlock
 62
    0
370
   -2
100
AcDbLine
 10
5553.033008588991
 20
-913.033008588991
 11
5446.966991411009
 21
-806.966991411009
  0
LINE
  5
179
100
AcDbEntity
  8
dimension
  6
ByBlock
 62
    0
370
   -2
100
AcDbLine
 10
5553.033008588991
 20
-1263.033008588991
 11
5446.966991411009
 21
-1156.966991411009
  0
LINE
  5
17A
100
AcDbEntity
  8
dimension
  6
ByBlock
 62
    0
370
   -2
100
AcDbLine
 10
5743.75
 20
-860
 11
5493.75
 21
-860
  0
LINE
  5
17B
100
AcDbEntity
  8
dimension
  6
ByBlock
 62
    0
370
   -2
100
AcDbLine
 10
5743.75
 20
-1210
 11
5493.75
 21
-1210
  0
ENDBLK
  5
BE
330
BC
100
AcDbEntity
  8
0
100
AcDbBlockEnd
  0
BLOCK
  5
C0
330
BF
100
AcDbEntity
  8
0
100
AcDbBlockBegin
  2
*D23
 70
    1
 10
0
 20
0
  3
*D23
  1

  0
LINE
  5
17C
100
AcDbEntity
  8
dimension
  6
ByBlock
 62
    0
370
   -2
100
AcDbLine
 10
2452.5
 20
-499.9999999999999
 11
3170.000000000001
 21
-500.0000000000001
  0
MTEXT
  5
17D
100
AcDbEntity
  8
dimension
  6
CONTINUOUS
 62
    0
370
   -2
100
AcDbMText
 10
2811.25
 20
-423.75
 30
0
 40
90
 41
160
 71
    5
 72
    1
  1
218
  7
standard
210
0
220
0
230
1
 50
0
 73
    2
 44
1
  0
LINE
  5
17E
100
AcDbEntity
  8
dimension
  6
ByBlock
 62
    0
370
   -2
100
AcDbLine
 10
2649.466991411009
 20
-553.033008588991
 11
2755.533008588991
 21
-446.966991411009
  0
LINE
  5
17F
100
AcDbEntity
  8
dimension
  6
ByBlock
 62
    0
370
   -2
100
AcDbLine
 10
2866.96699141101
 20
-553.033008588991
 11
2973.033008588992
 21
-446.966991411009
  0
LINE
  5
180
100
AcDbEntity
  8
dimension
  6
ByBlock
 62
    0
370
   -2
100
AcDbLine
 10
2702.5
 20
-251.25
 11
2702.5
 21
-506.25
  0
LINE
  5
181
100
AcDbEntity
  8
dimension
  6
ByBlock
 62
    0
370
   -2
100
AcDbLine
 10
2920.000000000001
 20
-251.25
 11
2920.000000000001
 21
-506.25
  0
ENDBLK
  5
C1
330
BF
100
AcDbEntity
  8
0
100
AcDbBlockEnd
  0
BLOCK
  5
C3
330
C2
100
AcDbEntity
  8
0
100
AcDbBlockBegin
  2
*D17
 70
    1
 10
0
 20
0
  3
*D17
  1

  0
LINE
  5
182
100
AcDbEntity
  8
dimension
  6
ByBlock
 62
    0
370
   -2
100
AcDbLine
 10
3700
 20
-3310
 11
3700
 21
-4110
  0
MTEXT
  5
183
100
AcDbEntity
  8
dimension
  6
CONTINUOUS
 62
    0
370
   -2
100
AcDbMText
 10
3623.75
 20
-3710
 30
0
 40
90
 41
180.0000000000056
 71
    5
 72
    1
  1
300
  7
standard
210
0
220
0
230
1
 50
90
 73
    2
 44
1
  0
LINE
  5
184
100
AcDbEntity
  8
dimension
  6
ByBlock
 62
    0
370
   -2
100
AcDbLine
 10
3646.966991411009
 20
-3506.966991411009
 11
3753.033008588991
 21
-3613.033008588991
  0
LINE
  5
185
100
AcDbEntity
  8
dimension
  6
ByBlock
 62
    0
370
   -2
100
AcDbLine
 10
3646.966991411009
 20
-3806.966991411009
 11
3753.033008588991
 21
-3913.033008588991
  0
LINE
  5
186
100
AcDbEntity
  8
dimension
  6
ByBlock
 62
    0
370
   -2
100
AcDbLine
 10
3953.75
 20
-3560
 11
3693.75
 21
-3560
  0
LINE
  5
187
100
AcDbEntity
  8
dimension
  6
ByBlock
 62
    0
370
   -2
100
AcDbLine
 10
3953.75
 20
-3860
 11
3693.75
 21
-3860
  0
ENDBLK
  5
C4
330
C2
100
AcDbEntity
  8
0
100
AcDbBlockEnd
  0
BLOCK
  5
C6
330
C5
100
AcDbEntity
  8
0
100
AcDbBlockBegin
  2
*D4
 70
    1
 10
0
 20
0
  3
*D4
  1

  0
LINE
  5
188
100
AcDbEntity
  8
outlet
  6
CONTINUOUS
 62
    7
370
    0
100
AcDbLine
 10
4105
 20
-7470
 11
4470
 21
-7230
  0
LINE
  5
189
100
AcDbEntity
  8
outlet
  6
CONTINUOUS
 62
    7
370
    0
100
AcDbLine
 10
4470
 20
-7230
 11
4680
 21
-7230
  0
SOLID
  5
18A
100
AcDbEntity
  8
outlet
  6
CONTINUOUS
 62
    7
370
    0
100
AcDbTrace
 10
4105
 20
-7470
 30
0
 11
4198.008949944289
 21
-7383.932773246705
 31
0
 12
4220.879889777096
 22
-7418.715660909097
 32
0
 13
4220.879889777096
 23
-7418.715660909097
 33
0
  0
ENDBLK
  5
C7
330
C5
100
AcDbEntity
  8
0
100
AcDbBlockEnd
  0
BLOCK
  5
C9
330
C8
100
AcDbEntity
  8
0
100
AcDbBlockBegin
  2
*D32
 70
    1
 10
0
 20
0
  3
*D32
  1

  0
LINE
  5
18B
100
AcDbEntity
  8
outlet
  6
CONTINUOUS
 62
    7
370
    0
100
AcDbLine
 10
1385
 20
-5530
 11
1870
 21
-5930
  0
LINE
  5
18C
100
AcDbEntity
  8
outlet
  6
CONTINUOUS
 62
    7
370
    0
100
AcDbLine
 10
1870
 20
-5930
 11
2080
 21
-5930
  0
SOLID
  5
18D
100
AcDbEntity
  8
outlet
  6
CONTINUOUS
 62
    7
370
    0
100
AcDbTrace
 10
1385
 20
-5530
 30
0
 11
1494.677219641836
 21
-5593.475505373169
 31
0
 12
1468.190498911624
 22
-5625.590654258551
 32
0
 13
1468.190498911624
 23
-5625.590654258551
 33
0
  0
ENDBLK
  5
CA
330
C8
100
AcDbEntity
  8
0
100
AcDbBlockEnd
  0
BLOCK
  5
CC
330
CB
100
AcDbEntity
  8
0
100
AcDbBlockBegin
  2
*D18
 70
    1
 10
0
 20
0
  3
*D18
  1

  0
LINE
  5
18E
100
AcDbEntity
  8
dimension
  6
ByBlock
 62
    0
370
   -2
100
AcDbLine
 10
3700
 20
-6190
 11
3700
 21
-5390
  0
MTEXT
  5
18F
100
AcDbEntity
  8
dimension
  6
CONTINUOUS
 62
    0
370
   -2
100
AcDbMText
 10
3623.75
 20
-5790
 30
0
 40
90
 41
180.0000000000056
 71
    5
 72
    1
  1
300
  7
standard
210
0
220
0
230
1
 50
90
 73
    2
 44
1
  0
LINE
  5
190
100
AcDbEntity
  8
dimension
  6
ByBlock
 62
    0
370
   -2
100
AcDbLine
 10
3753.033008588991
 20
-5993.033008588991
 11
3646.966991411009
 21
-5886.966991411009
  0
LINE
  5
191
100
AcDbEntity
  8
dimension
  6
ByBlock
 62
    0
370
   -2
100
AcDbLine
 10
3753.033008588991
 20
-5693.033008588991
 11
3646.966991411009
 21
-5586.966991411009
  0
LINE
  5
192
100
AcDbEntity
  8
dimension
  6
ByBlock
 62
    0
370
   -2
100
AcDbLine
 10
3953.75
 20
-5940
 11
3693.75
 21
-5940
  0
LINE
  5
193
100
AcDbEntity
  8
dimension
  6
ByBlock
 62
    0
370
   -2
100
AcDbLine
 10
3953.75
 20
-5640
 11
3693.75
 21
-5640
  0
ENDBLK
  5
CD
330
CB
100
AcDbEntity
  8
0
100
AcDbBlockEnd
  0
BLOCK
  5
CF
330
CE
100
AcDbEntity
  8
0
100
AcDbBlockBegin
  2
*D36
 70
    1
 10
0
 20
0
  3
*D36
  1

  0
LINE
  5
194
100
AcDbEntity
  8
outlet
  6
CONTINUOUS
 62
    7
370
    0
100
AcDbLine
 10
5300
 20
-4260
 11
5570
 21
-3730
  0
LINE
  5
195
100
AcDbEntity
  8
outlet
  6
CONTINUOUS
 62
    7
370
    0
100
AcDbLine
 10
5570
 20
-3730
 11
5760
 21
-3730
  0
SOLID
  5
196
100
AcDbEntity
  8
outlet
  6
CONTINUOUS
 62
    7
370
    0
100
AcDbTrace
 10
5300
 20
-4260
 30
0
 11
5338.194419076753
 21
-4139.171945963977
 31
0
 12
5375.287026277968
 22
-4158.0681798212
 32
0
 13
5375.287026277968
 23
-4158.0681798212
 33
0
  0
ENDBLK
  5
D0
330
CE
100
AcDbEntity
  8
0
100
AcDbBlockEnd
  0
BLOCK
  5
D2
330
D1
100
AcDbEntity
  8
0
100
AcDbBlockBegin
  2
*D35
 70
    1
 10
0
 20
0
  3
*D35
  1

  0
LINE
  5
197
100
AcDbEntity
  8
dimension
  6
CONTINUOUS
 62
    7
370
    0
100
AcDbLine
 10
2702.5
 20
-220
 11
2680
 21
-870
  0
LINE
  5
198
100
AcDbEntity
  8
dimension
  6
CONTINUOUS
 62
    7
370
    0
100
AcDbLine
 10
2680
 20
-870
 11
2320
 21
-870
  0
SOLID
  5
199
100
AcDbEntity
  8
dimension
  6
CONTINUOUS
 62
    7
370
    0
100
AcDbTrace
 10
2702.5
 20
-220
 30
0
 11
2718.977440927511
 21
-345.6452395883864
 31
0
 12
2677.373892890793
 22
-344.2051167717308
 32
0
 13
2677.373892890793
 23
-344.2051167717308
 33
0
  0
ENDBLK
  5
D3
330
D1
100
AcDbEntity
  8
0
100
AcDbBlockEnd
  0
BLOCK
  5
D5
330
D4
100
AcDbEntity
  8
0
100
AcDbBlockBegin
  2
my-outlet-V220
 70
    0
 10
0
 20
0
  3
my-outlet-V220
  1

  0
LWPOLYLINE
  5
19A
100
AcDbEntity
  8
0
  6
ByLayer
 62
  256
370
   -1
100
AcDbPolyline
 90
    4
 70
    1
 43
0
 10
0
 20
0
 10
5
 20
0
 10
5
 20
5
 10
0
 20
5
  0
CIRCLE
  5
19B
100
AcDbEntity
  8
0
  6
ByLayer
 62
  256
370
   -1
100
AcDbCircle
 10
2.5
 20
2.5
 40
1.5
  0
CIRCLE
  5
19C
100
AcDbEntity
  8
0
  6
ByLayer
 62
  256
370
   -1
100
AcDbCircle
 10
1.666666666666667
 20
2.5
 40
0.2
  0
CIRCLE
  5
19D
100
AcDbEntity
  8
0
  6
ByLayer
 62
  256
370
   -1
100
AcDbCircle
 10
3.333333333333333
 20
2.5
 40
0.2
  0
ENDBLK
  5
D6
330
D4
100
AcDbEntity
  8
0
100
AcDbBlockEnd
  0
BLOCK
  5
D8
330
D7
100
AcDbEntity
  8
0
100
AcDbBlockBegin
  2
my-switch-1-pass
 70
    0
 10
0
 20
0
  3
my-switch-1-pass
  1

  0
LWPOLYLINE
  5
19E
100
AcDbEntity
  8
0
  6
ByLayer
 62
  256
370
   -1
100
AcDbPolyline
 90
    4
 70
    1
 43
0
 10
0
 20
0
 10
5
 20
0
 10
5
 20
5
 10
0
 20
5
  0
LWPOLYLINE
  5
19F
100
AcDbEntity
  8
0
  6
ByLayer
 62
  256
370
   -1
100
AcDbPolyline
 90
    8
 70
    1
 43
0
 10
1.3
 20
4
 10
3.7
 20
4.000000000000001
 42
-0.414213562373095
 10
4
 20
3.700000000000001
 10
4
 20
1.300000000000001
 42
-0.4142135623730955
 10
3.7
 20
0.9999999999999998
 10
1.3
 20
0.9999999999999999
 42
-0.4142135623730954
 10
0.9999999999999999
 20
1.3
 10
0.9999999999999998
 20
3.7
 42
-0.4142135623730954
  0
LINE
  5
1A0
100
AcDbEntity
  8
0
  6
ByLayer
 62
  256
370
   -1
100
AcDbLine
 10
5
 20
5.000000000000001
 11
6
 21
6.000000000000001
  0
LINE
  5
1A1
100
AcDbEntity
  8
0
  6
ByLayer
 62
  256
370
   -1
100
AcDbLine
 10
6
 20
6.000000000000001
 11
6
 21
5.500000000000001
  0
LINE
  5
1A2
100
AcDbEntity
  8
0
  6
ByLayer
 62
  256
370
   -1
100
AcDbLine
 10
6
 20
6.000000000000001
 11
5.5
 21
6.000000000000001
  0
ENDBLK
  5
D9
330
D7
100
AcDbEntity
  8
0
100
AcDbBlockEnd
  0
BLOCK
  5
DB
330
DA
100
AcDbEntity
  8
0
100
AcDbBlockBegin
  2
my-switch-1
 70
    0
 10
0
 20
0
  3
my-switch-1
  1

  0
LWPOLYLINE
  5
1A3
100
AcDbEntity
  8
0
  6
ByLayer
 62
  256
370
   -1
100
AcDbPolyline
 90
    4
 70
    1
 43
0
 10
0
 20
0
 10
5
 20
0
 10
5
 20
5
 10
0
 20
5
  0
LWPOLYLINE
  5
1A4
100
AcDbEntity
  8
0
  6
ByLayer
 62
  256
370
   -1
100
AcDbPolyline
 90
    8
 70
    1
 43
0
 10
1.3
 20
4
 10
3.7
 20
4.000000000000001
 42
-0.414213562373095
 10
4
 20
3.700000000000001
 10
4
 20
1.300000000000001
 42
-0.4142135623730955
 10
3.7
 20
0.9999999999999998
 10
1.3
 20
0.9999999999999999
 42
-0.4142135623730954
 10
0.9999999999999999
 20
1.3
 10
0.9999999999999998
 20
3.7
 42
-0.4142135623730954
  0
ENDBLK
  5
DC
330
DA
100
AcDbEntity
  8
0
100
AcDbBlockEnd
  0
BLOCK
  5
DE
330
DD
100
AcDbEntity
  8
0
100
AcDbBlockBegin
  2
my-switch-2-pass
 70
    0
 10
0
 20
0
  3
my-switch-2-pass
  1

  0
LWPOLYLINE
  5
1A5
100
AcDbEntity
  8
0
  6
ByLayer
 62
  256
370
   -1
100
AcDbPolyline
 90
    4
 70
    1
 43
0
 10
0
 20
0
 10
5
 20
0
 10
5
 20
5
 10
0
 20
5
  0
LWPOLYLINE
  5
1A6
100
AcDbEntity
  8
0
  6
ByLayer
 62
  256
370
   -1
100
AcDbPolyline
 90
    8
 70
    1
 43
0
 10
1.3
 20
4
 10
3.7
 20
4.000000000000001
 42
-0.414213562373095
 10
4
 20
3.700000000000001
 10
4
 20
1.300000000000001
 42
-0.4142135623730955
 10
3.7
 20
0.9999999999999998
 10
1.3
 20
0.9999999999999999
 42
-0.4142135623730954
 10
0.9999999999999999
 20
1.3
 10
0.9999999999999998
 20
3.7
 42
-0.4142135623730954
  0
LINE
  5
1A7
100
AcDbEntity
  8
0
  6
ByLayer
 62
  256
370
   -1
100
AcDbLine
 10
2.5
 20
4
 11
2.5
 21
1
  0
LINE
  5
1A8
100
AcDbEntity
  8
0
  6
ByLayer
 62
  256
370
   -1
100
AcDbLine
 10
5
 20
5
 11
6
 21
6
  0
LINE
  5
1A9
100
AcDbEntity
  8
0
  6
ByLayer
 62
  256
370
   -1
100
AcDbLine
 10
6
 20
6
 11
6
 21
5.5
  0
LINE
  5
1AA
100
AcDbEntity
  8
0
  6
ByLayer
 62
  256
370
   -1
100
AcDbLine
 10
6
 20
6
 11
5.5
 21
6
  0
ENDBLK
  5
DF
330
DD
100
AcDbEntity
  8
0
100
AcDbBlockEnd
  0
BLOCK
  5
E1
330
E0
100
AcDbEntity
  8
0
100
AcDbBlockBegin
  2
my-switch-2
 70
    0
 10
0
 20
0
  3
my-switch-2
  1

  0
LWPOLYLINE
  5
1AB
100
AcDbEntity
  8
0
  6
ByLayer
 62
  256
370
   -1
100
AcDbPolyline
 90
    4
 70
    1
 43
0
 10
0
 20
0
 10
5
 20
0
 10
5
 20
5
 10
0
 20
5
  0
LWPOLYLINE
  5
1AC
100
AcDbEntity
  8
0
  6
ByLayer
 62
  256
370
   -1
100
AcDbPolyline
 90
    8
 70
    1
 43
0
 10
1.3
 20
4
 10
3.7
 20
4.000000000000001
 42
-0.414213562373095
 10
4
 20
3.700000000000001
 10
4
 20
1.300000000000001
 42
-0.4142135623730955
 10
3.7
 20
0.9999999999999998
 10
1.3
 20
0.9999999999999999
 42
-0.4142135623730954
 10
0.9999999999999999
 20
1.3
 10
0.9999999999999998
 20
3.7
 42
-0.4142135623730954
  0
LINE
  5
1AD
100
AcDbEntity
  8
0
  6
ByLayer
 62
  256
370
   -1
100
AcDbLine
 10
2.5
 20
4
 11
2.5
 21
1
  0
ENDBLK
  5
E2
330
E0
100
AcDbEntity
  8
0
100
AcDbBlockEnd
  0
BLOCK
  5
E4
330
E3
100
AcDbEntity
  8
0
100
AcDbBlockBegin
  2
my-free-wire
 70
    0
 10
0
 20
0
  3
my-free-wire
  1

  0
LINE
  5
1AE
100
AcDbEntity
  8
0
  6
ByLayer
 62
  256
370
   -1
100
AcDbLine
 10
5
 20
5
 11
0
 21
0
  0
LINE
  5
1AF
100
AcDbEntity
  8
0
  6
ByLayer
 62
  256
370
   -1
100
AcDbLine
 10
5
 20
5
 11
0
 21
5
  0
LINE
  5
1B0
100
AcDbEntity
  8
0
  6
ByLayer
 62
  256
370
   -1
100
AcDbLine
 10
0
 20
5
 11
0
 21
0
  0
CIRCLE
  5
1B1
100
AcDbEntity
  8
0
  6
ByLayer
 62
  256
370
   -1
100
AcDbCircle
 10
1
 20
4
 40
0.5
  0
LWPOLYLINE
  5
1B2
100
AcDbEntity
  8
0
  6
ByLayer
 62
  256
370
   -1
100
AcDbPolyline
 90
    4
 70
    0
 43
0
 10
1
 20
4
 42
-0.414213562373095
 10
2
 20
3
 42
0.414213562373095
 10
3
 20
2
 42
-0.4142135623730949
 10
4
 20
0.9999999999999997
 42
-0.4142135623730949
  0
ENDBLK
  5
E5
330
E3
100
AcDbEntity
  8
0
100
AcDbBlockEnd
  0
BLOCK
  5
E7
330
E6
100
AcDbEntity
  8
0
100
AcDbBlockBegin
  2
my-outlet-IP
 70
    0
 10
0
 20
0
  3
my-outlet-IP
  1

  0
LWPOLYLINE
  5
1B3
100
AcDbEntity
  8
0
  6
ByLayer
 62
  256
370
   -1
100
AcDbPolyline
 90
    4
 70
    1
 43
0
 10
0
 20
0
 10
5
 20
0
 10
5
 20
5
 10
0
 20
5
  0
MTEXT
  5
1B4
100
AcDbEntity
  8
0
  6
ByLayer
 62
  256
370
   -1
100
AcDbMText
 10
2.5
 20
2.5
 30
0
 40
2
 41
1.777777777777778
 71
    5
 72
    1
  1
IP
  7
unicode
210
0
220
0
230
1
 50
0
 73
    2
 44
1
  0
ENDBLK
  5
E8
330
E6
100
AcDbEntity
  8
0
100
AcDbBlockEnd
  0
BLOCK
  5
EA
330
E9
100
AcDbEntity
  8
0
100
AcDbBlockBegin
  2
my-outlet-TV
 70
    0
 10
0
 20
0
  3
my-outlet-TV
  1

  0
LWPOLYLINE
  5
1B5
100
AcDbEntity
  8
0
  6
ByLayer
 62
  256
370
   -1
100
AcDbPolyline
 90
    4
 70
    1
 43
0
 10
0
 20
0
 10
5
 20
0
 10
5
 20
5
 10
0
 20
5
  0
MTEXT
  5
1B6
100
AcDbEntity
  8
0
  6
ByLayer
 62
  256
370
   -1
100
AcDbMText
 10
2.5
 20
2.5
 30
0
 40
2
 41
3.111111111111111
 71
    5
 72
    1
  1
TV
  7
unicode
210
0
220
0
230
1
 50
0
 73
    2
 44
1
  0
ENDBLK
  5
EB
330
E9
100
AcDbEntity
  8
0
100
AcDbBlockEnd
  0
BLOCK
  5
ED
330
EC
100
AcDbEntity
  8
0
100
AcDbBlockBegin
  2
explication-1-800-2
 70
    0
 10
0
 20
0
  3
explication-1-800-2
  1

  0
LINE
  5
1B7
100
AcDbEntity
  8
03-explication-construction
  6
ByLayer
 62
  256
370
   -1
100
AcDbLine
 10
10
 20
-15
 11
10
 21
-30
  0
LINE
  5
1B8
100
AcDbEntity
  8
03-explication-construction
  6
ByLayer
 62
  256
370
   -1
100
AcDbLine
 10
80
 20
-30
 11
80
 21
-15
  0
MTEXT
  5
1B9
100
AcDbEntity
  8
03-explication-text
  6
ByLayer
 62
  256
370
   -1
100
AcDbMText
 10
47.5
 20
-7.5
 30
0
 40
3
 41
50.08333333333333
 71
    5
 72
    1
  1
 
  7
unicode
210
0
220
0
230
1
 50
0
 73
    2
 44
1
  0
MTEXT
  5
1BA
100
AcDbEntity
  8
03-explication-text
  6
ByLayer
 62
  256
370
   -1
100
AcDbMText
 10
87.5
 20
-22.5
 30
0
 40
3
 41
3.334481356397898
 71
    5
 72
    1
  1

  7
unicode
210
0
220
0
230
1
 50
0
 73
    2
 44
1
  0
MTEXT
  5
1BB
100
AcDbEntity
  8
03-explication-text
  6
ByLayer
 62
  256
370
   -1
100
AcDbMText
 10
45.00000000000001
 20
-22.5
 30
0
 40
3
 41
28.66666666666666
 71
    5
 72
    1
  1

  7
unicode
210
0
220
0
230
1
 50
0
 73
    2
 44
1
  0
MTEXT
  5
1BC
100
AcDbEntity
  8
03-explication-text
  6
ByLayer
 62
  256
370
   -1
100
AcDbMText
 10
5
 20
-22.5
 30
0
 40
3
 41
1.666666666666667
 71
    5
 72
    1
  1
N
  7
unicode
210
0
220
0
230
1
 50
0
 73
    2
 44
1
  0
LWPOLYLINE
  5
1BD
100
AcDbEntity
  8
03-explication-table
  6
ByLayer
 62
  256
370
   -1
100
AcDbPolyline
 90
    4
 70
    1
 43
0
 10
0
 20
0
 10
95
 20
0
 10
95
 20
-15
 10
0
 20
-15
  0
LWPOLYLINE
  5
1BE
100
AcDbEntity
  8
03-explication-table
  6
ByLayer
 62
  256
370
   -1
100
AcDbPolyline
 90
    4
 70
    1
 43
0
 10
95
 20
-15
 10
0
 20
-15
 10
0
 20
-30
 10
95
 20
-30
  0
LWPOLYLINE
  5
1BF
100
AcDbEntity
  8
03-explication-table
  6
ByLayer
 62
  256
370
   -1
100
AcDbPolyline
 90
    4
 70
    1
 43
0
 10
95
 20
-54
 10
0
 20
-54
 10
0
 20
-62
 10
95
 20
-62
  0
LWPOLYLINE
  5
1C0
100
AcDbEntity
  8
03-explication-table
  6
ByLayer
 62
  256
370
   -1
100
AcDbPolyline
 90
    4
 70
    1
 43
0
 10
0
 20
-62
 10
95
 20
-62
 10
95
 20
-70
 10
0
 20
-70
  0
LINE
  5
1C1
100
AcDbEntity
  8
03-explication-construction
  6
ByLayer
 62
  256
370
   -1
100
AcDbLine
 10
15
 20
-15
 11
15
 21
-94
  0
LINE
  5
1C2
100
AcDbEntity
  8
03-explication-construction
  6
ByLayer
 62
  256
370
   -1
100
AcDbLine
 10
5
 20
-15
 11
5
 21
-30
  0
LINE
  5
1C3
100
AcDbEntity
  8
03-explication-construction
  6
ByLayer
 62
  256
370
   -1
100
AcDbLine
 10
87.5
 20
-15
 11
87.5
 21
-94
  0
LINE
  5
1C4
100
AcDbEntity
  8
03-explication-construction
  6
ByLayer
 62
  256
370
   -1
100
AcDbLine
 10
47.5
 20
-15.00000000000001
 11
47.5
 21
-1.163414459189985e-14
  0
LINE
  5
1C5
100
AcDbEntity
  8
03-explication-construction
  6
ByLayer
 62
  256
370
   -1
100
AcDbLine
 10
45
 20
-15.00000000000001
 11
45
 21
-94.00000000000001
  0
LINE
  5
1C6
100
AcDbEntity
  8
03-explication-construction
  6
ByLayer
 62
  256
370
   -1
100
AcDbLine
 10
95
 20
-15
 11
0
 21
-15
  0
LINE
  5
1C7
100
AcDbEntity
  8
03-explication-construction
  6
ByLayer
 62
  256
370
   -1
100
AcDbLine
 10
0
 20
-34
 11
95
 21
-34
  0
LINE
  5
1C8
100
AcDbEntity
  8
03-explication-construction
  6
ByLayer
 62
  256
370
   -1
100
AcDbLine
 10
0
 20
-42
 11
95
 21
-42
  0
LINE
  5
1C9
100
AcDbEntity
  8
03-explication-construction
  6
ByLayer
 62
  256
370
   -1
100
AcDbLine
 10
0
 20
-50
 11
95
 21
-50
  0
LINE
  5
1CA
100
AcDbEntity
  8
03-explication-construction
  6
ByLayer
 62
  256
370
   -1
100
AcDbLine
 10
0
 20
-58
 11
95
 21
-58
  0
LINE
  5
1CB
100
AcDbEntity
  8
03-explication-construction
  6
ByLayer
 62
  256
370
   -1
100
AcDbLine
 10
0
 20
-66
 11
95
 21
-66
  0
LINE
  5
1CC
100
AcDbEntity
  8
03-explication-construction
  6
ByLayer
 62
  256
370
   -1
100
AcDbLine
 10
0
 20
-74
 11
95
 21
-74
  0
LINE
  5
1CD
100
AcDbEntity
  8
03-explication-construction
  6
ByLayer
 62
  256
370
   -1
100
AcDbLine
 10
0
 20
-82
 11
95
 21
-82
  0
LINE
  5
1CE
100
AcDbEntity
  8
03-explication-construction
  6
ByLayer
 62
  256
370
   -1
100
AcDbLine
 10
0
 20
-90
 11
95
 21
-90
  0
LINE
  5
1CF
100
AcDbEntity
  8
03-explication-construction
  6
ByLayer
 62
  256
370
   -1
100
AcDbLine
 10
95
 20
-22.5
 11
-1.377727649040772e-15
 21
-22.5
  0
LINE
  5
1D0
100
AcDbEntity
  8
03-explication-construction
  6
ByLayer
 62
  256
370
   -1
100
AcDbLine
 10
-1.377727649040772e-15
 20
-7.5
 11
95
 21
-7.5
  0
LINE
  5
1D1
100
AcDbEntity
  8
03-explication-table
  6
ByLayer
 62
  256
370
   -1
100
AcDbLine
 10
10
 20
-15
 11
10
 21
-30
  0
LINE
  5
1D2
100
AcDbEntity
  8
03-explication-table
  6
ByLayer
 62
  256
370
   -1
100
AcDbLine
 10
10
 20
-30
 11
10
 21
-38
  0
LINE
  5
1D3
100
AcDbEntity
  8
03-explication-table
  6
ByLayer
 62
  256
370
   -1
100
AcDbLine
 10
10
 20
-38
 11
10
 21
-46
  0
LINE
  5
1D4
100
AcDbEntity
  8
03-explication-table
  6
ByLayer
 62
  256
370
   -1
100
AcDbLine
 10
10
 20
-46
 11
10
 21
-54
  0
LINE
  5
1D5
100
AcDbEntity
  8
03-explication-table
  6
ByLayer
 62
  256
370
   -1
100
AcDbLine
 10
10
 20
-54
 11
10
 21
-62
  0
LINE
  5
1D6
100
AcDbEntity
  8
03-explication-table
  6
ByLayer
 62
  256
370
   -1
100
AcDbLine
 10
10
 20
-62
 11
10
 21
-70
  0
LINE
  5
1D7
100
AcDbEntity
  8
03-explication-table
  6
ByLayer
 62
  256
370
   -1
100
AcDbLine
 10
80
 20
-62
 11
80
 21
-70
  0
LINE
  5
1D8
100
AcDbEntity
  8
03-explication-table
  6
ByLayer
 62
  256
370
   -1
100
AcDbLine
 10
80
 20
-54
 11
80
 21
-62
  0
LINE
  5
1D9
100
AcDbEntity
  8
03-explication-table
  6
ByLayer
 62
  256
370
   -1
100
AcDbLine
 10
80
 20
-46
 11
80
 21
-54
  0
LINE
  5
1DA
100
AcDbEntity
  8
03-explication-table
  6
ByLayer
 62
  256
370
   -1
100
AcDbLine
 10
80
 20
-38
 11
80
 21
-46
  0
LINE
  5
1DB
100
AcDbEntity
  8
03-explication-table
  6
ByLayer
 62
  256
370
   -1
100
AcDbLine
 10
80
 20
-15
 11
80
 21
-30
  0
LINE
  5
1DC
100
AcDbEntity
  8
03-explication-table
  6
ByLayer
 62
  256
370
   -1
100
AcDbLine
 10
80
 20
-30
 11
80
 21
-38
  0
MTEXT
  5
1DD
100
AcDbEntity
  8
03-explication-text
  6
ByLayer
 62
  256
370
   -1
100
AcDbMText
 10
15
 20
-66
 30
0
 40
3
 41
15.83333333333333
 71
    4
 72
    1
  1

  7
unicode
210
0
220
0
230
1
 50
0
 73
    2
 44
1
  0
MTEXT
  5
1DE
100
AcDbEntity
  8
03-explication-text
  6
ByLayer
 62
  256
370
   -1
100
AcDbMText
 10
15
 20
-58
 30
0
 40
3
 41
26
 71
    4
 72
    1
  1

  7
unicode
210
0
220
0
230
1
 50
0
 73
    2
 44
1
  0
MTEXT
  5
1DF
100
AcDbEntity
  8
03-explication-text
  6
ByLayer
 62
  256
370
   -1
100
AcDbMText
 10
5
 20
-34
 30
0
 40
3
 41
5.333333333333333
 71
    5
 72
    1
  1
801
  7
unicode
210
0
220
0
230
1
 50
0
 73
    2
 44
1
  0
MTEXT
  5
1E0
100
AcDbEntity
  8
03-explication-text
  6
ByLayer
 62
  256
370
   -1
100
AcDbMText
 10
5
 20
-42
 30
0
 40
3
 41
6
 71
    5
 72
    1
  1
802
  7
unicode
210
0
220
0
230
1
 50
0
 73
    2
 44
1
  0
MTEXT
  5
1E1
100
AcDbEntity
  8
03-explication-text
  6
ByLayer
 62
  256
370
   -1
100
AcDbMText
 10
5
 20
-50
 30
0
 40
3
 41
6
 71
    5
 72
    1
  1
803
  7
unicode
210
0
220
0
230
1
 50
0
 73
    2
 44
1
  0
MTEXT
  5
1E2
100
AcDbEntity
  8
03-explication-text
  6
ByLayer
 62
  256
370
   -1
100
AcDbMText
 10
5
 20
-58
 30
0
 40
3
 41
6.333333333333333
 71
    5
 72
    1
  1
804
  7
unicode
210
0
220
0
230
1
 50
0
 73
    2
 44
1
  0
MTEXT
  5
1E3
100
AcDbEntity
  8
03-explication-text
  6
ByLayer
 62
  256
370
   -1
100
AcDbMText
 10
5
 20
-66
 30
0
 40
3
 41
6
 71
    5
 72
    1
  1
805
  7
unicode
210
0
220
0
230
1
 50
0
 73
    2
 44
1
  0
MTEXT
  5
1E4
100
AcDbEntity
  8
03-explication-text
  6
ByLayer
 62
  256
370
   -1
100
AcDbMText
 10
87.5
 20
-58
 30
0
 40
3
 41
4.833333333333334
 71
    5
 72
    1
  1
2,3
  7
unicode
210
0
220
0
230
1
 50
0
 73
    2
 44
1
  0
MTEXT
  5
1E5
100
AcDbEntity
  8
03-explication-text
  6
ByLayer
 62
  256
370
   -1
100
AcDbMText
 10
87.5
 20
-66
 30
0
 40
3
 41
4.5
 71
    5
 72
    1
  1
4,1
  7
unicode
210
0
220
0
230
1
 50
0
 73
    2
 44
1
  0
LWPOLYLINE
  5
1E6
100
AcDbEntity
  8
03-explication-table
  6
ByLayer
 62
  256
370
   -1
100
AcDbPolyline
 90
    4
 70
    1
 43
0
 10
0
 20
-46
 10
80
 20
-46
 10
80
 20
-54
 10
0
 20
-54
  0
LWPOLYLINE
  5
1E7
100
AcDbEntity
  8
03-explication-table
  6
ByLayer
 62
  256
370
   -1
100
AcDbPolyline
 90
    4
 70
    1
 43
0
 10
0
 20
-30
 10
80
 20
-30
 10
80
 20
-38
 10
0
 20
-38
  0
LWPOLYLINE
  5
1E8
100
AcDbEntity
  8
03-explication-table
  6
ByLayer
 62
  256
370
   -1
100
AcDbPolyline
 90
    4
 70
    1
 43
0
 10
80
 20
-38
 10
0
 20
-38
 10
0
 20
-46
 10
80
 20
-46
  0
LWPOLYLINE
  5
1E9
100
AcDbEntity
  8
03-explication-table
  6
ByLayer
 62
  256
370
   -1
100
AcDbPolyline
 90
    4
 70
    1
 43
0
 10
80
 20
-30
 10
95
 20
-30
 10
95
 20
-54
 10
80
 20
-54
  0
MTEXT
  5
1EA
100
AcDbEntity
  8
03-explication-text
  6
ByLayer
 62
  256
370
   -1
100
AcDbMText
 10
15
 20
-34
 30
0
 40
3
 41
19.16666666666666
 71
    4
 72
    1
  1

  7
unicode
210
0
220
0
230
1
 50
0
 73
    2
 44
1
  0
MTEXT
  5
1EB
100
AcDbEntity
  8
03-explication-text
  6
ByLayer
 62
  256
370
   -1
100
AcDbMText
 10
15
 20
-42
 30
0
 40
3
 41
18.83333333333333
 71
    4
 72
    1
  1

  7
unicode
210
0
220
0
230
1
 50
0
 73
    2
 44
1
  0
MTEXT
  5
1EC
100
AcDbEntity
  8
03-explication-text
  6
ByLayer
 62
  256
370
   -1
100
AcDbMText
 10
15
 20
-50
 30
0
 40
3
 41
11
 71
    4
 72
    1
  1

  7
unicode
210
0
220
0
230
1
 50
0
 73
    2
 44
1
  0
MTEXT
  5
1ED
100
AcDbEntity
  8
03-explication-text
  6
ByLayer
 62
  256
370
   -1
100
AcDbMText
 10
87.5
 20
-42
 30
0
 40
3
 41
7.5
 71
    5
 72
    1
  1
34,7
  7
unicode
210
0
220
0
230
1
 50
0
 73
    2
 44
1
  0
ENDBLK
  5
EE
330
EC
100
AcDbEntity
  8
0
100
AcDbBlockEnd
  0
BLOCK
  5
F0
330
EF
100
AcDbEntity
  8
0
100
AcDbBlockBegin
  2
legend-with-area-2
 70
    0
 10
0
 20
0
  3
legend-with-area-2
  1

  0
LINE
  5
1EE
100
AcDbEntity
  8
04-legend-construction
  6
ByLayer
 62
  256
370
   -1
100
AcDbLine
 10
4750
 20
-750
 11
0
 21
-750
  0
LWPOLYLINE
  5
1EF
100
AcDbEntity
  8
04-legend-table
  6
ByLayer
 62
  256
370
   -1
100
AcDbPolyline
 90
    4
 70
    1
 43
0
 10
0
 20
0
 10
4750
 20
0
 10
4750
 20
-750
 10
0
 20
-750
  0
MTEXT
  5
1F0
100
AcDbEntity
  8
04-legend-text
  6
ByLayer
 62
  256
370
   -1
100
AcDbMText
 10
2375
 20
-375
 30
0
 40
150
 41
2320.833333333333
 71
    5
 72
    1
  1
 
  7
unicode
210
0
220
0
230
1
 50
0
 73
    2
 44
1
  0
LINE
  5
1F1
100
AcDbEntity
  8
04-legend-construction
  6
ByLayer
 62
  256
370
   -1
100
AcDbLine
 10
1000
 20
-2.664535259100376e-13
 11
1000
 21
-750
  0
LINE
  5
1F2
100
AcDbEntity
  8
04-legend-construction
  6
ByLayer
 62
  256
370
   -1
100
AcDbLine
 10
1250
 20
-3.276858658674052e-13
 11
1250
 21
-750.0000000000006
  0
LINE
  5
1F3
100
AcDbEntity
  8
04-legend-construction
  6
ByLayer
 62
  256
370
   -1
100
AcDbLine
 10
2375
 20
8.725608443924891e-13
 11
2375
 21
-749.999999999999
  0
LINE
  5
1F4
100
AcDbEntity
  8
04-legend-construction
  6
ByLayer
 62
  256
370
   -1
100
AcDbLine
 10
-6.88863824520386e-14
 20
-375
 11
4750
 21
-375
  0
LWPOLYLINE
  5
1F5
100
AcDbEntity
  8
04-legend-table
  6
ByLayer
 62
  256
370
   -1
100
AcDbPolyline
 90
    4
 70
    1
 43
0
 10
0
 20
-1950
 10
1000
 20
-1950
 10
1000
 20
-1550
 10
0
 20
-1550
  0
LWPOLYLINE
  5
1F6
100
AcDbEntity
  8
04-legend-table
  6
ByLayer
 62
  256
370
   -1
100
AcDbPolyline
 90
    4
 70
    1
 43
0
 10
0
 20
-1550
 10
1000
 20
-1550
 10
1000
 20
-1150
 10
0
 20
-1150
  0
LWPOLYLINE
  5
1F7
100
AcDbEntity
  8
04-legend-table
  6
ByLayer
 62
  256
370
   -1
100
AcDbPolyline
 90
    4
 70
    1
 43
0
 10
0
 20
-1150
 10
1000
 20
-1150
 10
1000
 20
-750
 10
0
 20
-750
  0
LINE
  5
1F8
100
AcDbEntity
  8
04-legend-construction
  6
ByLayer
 62
  256
370
   -1
100
AcDbLine
 10
4750
 20
-950
 11
1000
 21
-950
  0
LINE
  5
1F9
100
AcDbEntity
  8
04-legend-construction
  6
ByLayer
 62
  256
370
   -1
100
AcDbLine
 10
4750
 20
-1150
 11
1000
 21
-1150
  0
LINE
  5
1FA
100
AcDbEntity
  8
04-legend-construction
  6
ByLayer
 62
  256
370
   -1
100
AcDbLine
 10
4750
 20
-1350
 11
1000
 21
-1350
  0
LINE
  5
1FB
100
AcDbEntity
  8
04-legend-construction
  6
ByLayer
 62
  256
370
   -1
100
AcDbLine
 10
4750
 20
-1550
 11
1000
 21
-1550
  0
LINE
  5
1FC
100
AcDbEntity
  8
04-legend-construction
  6
ByLayer
 62
  256
370
   -1
100
AcDbLine
 10
4750
 20
-1750
 11
1000
 21
-1750
  0
LINE
  5
1FD
100
AcDbEntity
  8
04-legend-construction
  6
ByLayer
 62
  256
370
   -1
100
AcDbLine
 10
500
 20
-750
 11
500
 21
-1.224646799147354e-13
  0
LINE
  5
1FE
100
AcDbEntity
  8
04-legend-construction
  6
ByLayer
 62
  256
370
   -1
100
AcDbLine
 10
4000
 20
2.755455298081544e-13
 11
4000
 21
-749.9999999999994
  0
LINE
  5
1FF
100
AcDbEntity
  8
04-legend-construction
  6
ByLayer
 62
  256
370
   -1
100
AcDbLine
 10
4375
 20
1.377727649040772e-13
 11
4375
 21
-750
  0
LWPOLYLINE
  5
200
100
AcDbEntity
  8
04-legend-table
  6
ByLayer
 62
  256
370
   -1
100
AcDbPolyline
 90
    4
 70
    1
 43
0
 10
1000
 20
-750
 10
4000
 20
-750
 10
4000
 20
-1150
 10
1000
 20
-1150
  0
LWPOLYLINE
  5
201
100
AcDbEntity
  8
04-legend-table
  6
ByLayer
 62
  256
370
   -1
100
AcDbPolyline
 90
    4
 70
    1
 43
0
 10
4000
 20
-750
 10
4750
 20
-750
 10
4750
 20
-1150
 10
4000
 20
-1150
  0
LWPOLYLINE
  5
202
100
AcDbEntity
  8
04-legend-table
  6
ByLayer
 62
  256
370
   -1
100
AcDbPolyline
 90
    4
 70
    1
 43
0
 10
1000
 20
-1150
 10
4000
 20
-1150
 10
4000
 20
-1550
 10
1000
 20
-1550
  0
LWPOLYLINE
  5
203
100
AcDbEntity
  8
04-legend-table
  6
ByLayer
 62
  256
370
   -1
100
AcDbPolyline
 90
    4
 70
    1
 43
0
 10
4000
 20
-1150
 10
4750
 20
-1150
 10
4750
 20
-1550
 10
4000
 20
-1550
  0
LWPOLYLINE
  5
204
100
AcDbEntity
  8
04-legend-table
  6
ByLayer
 62
  256
370
   -1
100
AcDbPolyline
 90
    4
 70
    1
 43
0
 10
1000
 20
-1550
 10
4000
 20
-1550
 10
4000
 20
-1950
 10
1000
 20
-1950
  0
LWPOLYLINE
  5
205
100
AcDbEntity
  8
04-legend-table
  6
ByLayer
 62
  256
370
   -1
100
AcDbPolyline
 90
    4
 70
    1
 43
0
 10
4000
 20
-1550
 10
4750
 20
-1550
 10
4750
 20
-1950
 10
4000
 20
-1950
  0
LINE
  5
206
100
AcDbEntity
  8
04-legend-construction
  6
ByLayer
 62
  256
370
   -1
100
AcDbLine
 10
2500
 20
-1150
 11
2500
 21
-750
  0
MTEXT
  5
207
100
AcDbEntity
  8
04-legend-text
  6
ByLayer
 62
  256
370
   -1
100
AcDbMText
 10
2500
 20
-950
 30
0
 40
150
 41
1433.333333333333
 71
    5
 72
    1
  1

  7
unicode
210
0
220
0
230
1
 50
0
 73
    2
 44
1
  0
MTEXT
  5
208
100
AcDbEntity
  8
04-legend-text
  6
ByLayer
 62
  256
370
   -1
100
AcDbMText
 10
4375
 20
-950
 30
0
 40
150
 41
650
 71
    5
 72
    1
  1
-
  7
unicode
210
0
220
0
230
1
 50
0
 73
    2
 44
1
  0
MTEXT
  5
209
100
AcDbEntity
  8
04-legend-text
  6
ByLayer
 62
  256
370
   -1
100
AcDbMText
 10
1250
 20
-1350
 30
0
 40
150
 41
1520.833333333332
 71
    4
 72
    1
  1
 
  7
unicode
210
0
220
0
230
1
 50
0
 73
    2
 44
1
  0
MTEXT
  5
20A
100
AcDbEntity
  8
04-legend-text
  6
ByLayer
 62
  256
370
   -1
100
AcDbMText
 10
1250
 20
-1750
 30
0
 40
150
 41
2041.666666666667
 71
    4
 72
    1
  1
. 1 
  7
unicode
210
0
220
0
230
1
 50
0
 73
    2
 44
1
  0
MTEXT
  5
20B
100
AcDbEntity
  8
04-legend-text
  6
ByLayer
 62
  256
370
   -1
100
AcDbMText
 10
4375
 20
-1350
 30
0
 40
150
 41
83.33333333333334
 71
    5
 72
    1
  1
4
  7
unicode
210
0
220
0
230
1
 50
0
 73
    2
 44
1
  0
MTEXT
  5
20C
100
AcDbEntity
  8
04-legend-text
  6
ByLayer
 62
  256
370
   -1
100
AcDbMText
 10
4375
 20
-1750
 30
0
 40
150
 41
66.66666666666667
 71
    5
 72
    1
  1
5
  7
unicode
210
0
220
0
230
1
 50
0
 73
    2
 44
1
  0
LINE
  5
20D
100
AcDbEntity
  8
04-legend-construction
  6
ByLayer
 62
  256
370
   -1
100
AcDbLine
 10
-3.673940397442059e-14
 20
-2550
 11
4750
 21
-2550
  0
LINE
  5
20E
100
AcDbEntity
  8
04-legend-construction
  6
ByLayer
 62
  256
370
   -1
100
AcDbLine
 10
4750
 20
-2950
 11
-3.673940397442059e-14
 21
-2950
  0
LINE
  5
20F
100
AcDbEntity
  8
04-legend-construction
  6
ByLayer
 62
  256
370
   -1
100
AcDbLine
 10
-3.673940397442059e-14
 20
-3350
 11
4750
 21
-3350
  0
LINE
  5
210
100
AcDbEntity
  8
04-legend-construction
  6
ByLayer
 62
  256
370
   -1
100
AcDbLine
 10
4750
 20
-2150
 11
1000
 21
-2150
  0
LINE
  5
211
100
AcDbEntity
  8
04-legend-construction
  6
ByLayer
 62
  256
370
   -1
100
AcDbLine
 10
4750
 20
-2350
 11
1000
 21
-2350
  0
LINE
  5
212
100
AcDbEntity
  8
04-legend-construction
  6
ByLayer
 62
  256
370
   -1
100
AcDbLine
 10
-7.34788079488412e-14
 20
-2750
 11
4750
 21
-2750
  0
LINE
  5
213
100
AcDbEntity
  8
04-legend-construction
  6
ByLayer
 62
  256
370
   -1
100
AcDbLine
 10
4750
 20
-3150
 11
-7.34788079488412e-14
 21
-3150
  0
LINE
  5
214
100
AcDbEntity
  8
04-legend-construction
  6
ByLayer
 62
  256
370
   -1
100
AcDbLine
 10
-7.34788079488412e-14
 20
-3550
 11
4750
 21
-3550
  0
LWPOLYLINE
  5
215
100
AcDbEntity
  8
04-legend-table
  6
ByLayer
 62
  256
370
   -1
100
AcDbPolyline
 90
    4
 70
    1
 43
0
 10
0
 20
-3550
 10
1000
 20
-3550
 10
1000
 20
-3150
 10
0
 20
-3150
  0
LWPOLYLINE
  5
216
100
AcDbEntity
  8
04-legend-table
  6
ByLayer
 62
  256
370
   -1
100
AcDbPolyline
 90
    4
 70
    1
 43
0
 10
0
 20
-3150
 10
1000
 20
-3150
 10
1000
 20
-2750
 10
0
 20
-2750
  0
LWPOLYLINE
  5
217
100
AcDbEntity
  8
04-legend-table
  6
ByLayer
 62
  256
370
   -1
100
AcDbPolyline
 90
    4
 70
    1
 43
0
 10
0
 20
-2750
 10
1000
 20
-2750
 10
1000
 20
-2350
 10
0
 20
-2350
  0
LWPOLYLINE
  5
218
100
AcDbEntity
  8
04-legend-table
  6
ByLayer
 62
  256
370
   -1
100
AcDbPolyline
 90
    4
 70
    1
 43
0
 10
0
 20
-2350
 10
1000
 20
-2350
 10
1000
 20
-1950
 10
0
 20
-1950
  0
LWPOLYLINE
  5
219
100
AcDbEntity
  8
04-legend-table
  6
ByLayer
 62
  256
370
   -1
100
AcDbPolyline
 90
    4
 70
    1
 43
0
 10
1000
 20
-1950
 10
4000
 20
-1950
 10
4000
 20
-2350
 10
1000
 20
-2350
  0
LWPOLYLINE
  5
21A
100
AcDbEntity
  8
04-legend-table
  6
ByLayer
 62
  256
370
   -1
100
AcDbPolyline
 90
    4
 70
    1
 43
0
 10
4000
 20
-1950
 10
4750
 20
-1950
 10
4750
 20
-2350
 10
4000
 20
-2350
  0
LWPOLYLINE
  5
21B
100
AcDbEntity
  8
04-legend-table
  6
ByLayer
 62
  256
370
   -1
100
AcDbPolyline
 90
    4
 70
    1
 43
0
 10
1000
 20
-2350
 10
4000
 20
-2350
 10
4000
 20
-2750
 10
1000
 20
-2750
  0
LWPOLYLINE
  5
21C
100
AcDbEntity
  8
04-legend-table
  6
ByLayer
 62
  256
370
   -1
100
AcDbPolyline
 90
    4
 70
    1
 43
0
 10
4000
 20
-2350
 10
4750
 20
-2350
 10
4750
 20
-2750
 10
4000
 20
-2750
  0
LWPOLYLINE
  5
21D
100
AcDbEntity
  8
04-legend-table
  6
ByLayer
 62
  256
370
   -1
100
AcDbPolyline
 90
    4
 70
    1
 43
0
 10
1000
 20
-2750
 10
4000
 20
-2750
 10
4000
 20
-3150
 10
1000
 20
-3150
  0
LWPOLYLINE
  5
21E
100
AcDbEntity
  8
04-legend-table
  6
ByLayer
 62
  256
370
   -1
100
AcDbPolyline
 90
    4
 70
    1
 43
0
 10
4000
 20
-2750
 10
4750
 20
-2750
 10
4750
 20
-3150
 10
4000
 20
-3150
  0
LWPOLYLINE
  5
21F
100
AcDbEntity
  8
04-legend-table
  6
ByLayer
 62
  256
370
   -1
100
AcDbPolyline
 90
    4
 70
    1
 43
0
 10
1000
 20
-3150
 10
4000
 20
-3150
 10
4000
 20
-3550
 10
1000
 20
-3550
  0
LWPOLYLINE
  5
220
100
AcDbEntity
  8
04-legend-table
  6
ByLayer
 62
  256
370
   -1
100
AcDbPolyline
 90
    4
 70
    1
 43
0
 10
4000
 20
-3150
 10
4750
 20
-3150
 10
4750
 20
-3550
 10
4000
 20
-3550
  0
LWPOLYLINE
  5
221
100
AcDbEntity
  8
04-legend-table
  6
ByLayer
 62
  256
370
   -1
100
AcDbPolyline
 90
    4
 70
    1
 43
0
 10
0
 20
-3950
 10
1000
 20
-3950
 10
1000
 20
-3550
 10
0
 20
-3550
  0
LWPOLYLINE
  5
222
100
AcDbEntity
  8
04-legend-table
  6
ByLayer
 62
  256
370
   -1
100
AcDbPolyline
 90
    4
 70
    1
 43
0
 10
1000
 20
-3550
 10
4000
 20
-3550
 10
4000
 20
-3950
 10
1000
 20
-3950
  0
LWPOLYLINE
  5
223
100
AcDbEntity
  8
04-legend-table
  6
ByLayer
 62
  256
370
   -1
100
AcDbPolyline
 90
    4
 70
    1
 43
0
 10
4000
 20
-3550
 10
4750
 20
-3550
 10
4750
 20
-3950
 10
4000
 20
-3950
  0
MTEXT
  5
224
100
AcDbEntity
  8
04-legend-text
  6
ByLayer
 62
  256
370
   -1
100
AcDbMText
 10
1250
 20
-2150
 30
0
 40
150
 41
1725
 71
    4
 72
    1
  1
. 2- .
  7
unicode
210
0
220
0
230
1
 50
0
 73
    2
 44
1
  0
MTEXT
  5
225
100
AcDbEntity
  8
04-legend-text
  6
ByLayer
 62
  256
370
   -1
100
AcDbMText
 10
1250
 20
-2550
 30
0
 40
150
 41
2629.166666666667
 71
    4
 72
    1
  1
. 2- . 
  7
unicode
210
0
220
0
230
1
 50
0
 73
    2
 44
1
  0
MTEXT
  5
226
100
AcDbEntity
  8
04-legend-text
  6
ByLayer
 62
  256
370
   -1
100
AcDbMText
 10
1250
 20
-2950
 30
0
 40
150
 41
1437.500000000001
 71
    4
 72
    1
  1
 220
  7
unicode
210
0
220
0
230
1
 50
0
 73
    2
 44
1
  0
MTEXT
  5
227
100
AcDbEntity
  8
04-legend-text
  6
ByLayer
 62
  256
370
   -1
100
AcDbMText
 10
1250
 20
-3350
 30
0
 40
150
 41
2529.166666666667
 71
    4
 72
    1
  1
 
  7
unicode
210
0
220
0
230
1
 50
0
 73
    2
 44
1
  0
MTEXT
  5
228
100
AcDbEntity
  8
04-legend-text
  6
ByLayer
 62
  256
370
   -1
100
AcDbMText
 10
1250
 20
-3750
 30
0
 40
150
 41
2550
 71
    4
 72
    1
  1
 RJ-45 Ethernet
  7
unicode
210
0
220
0
230
1
 50
0
 73
    2
 44
1
  0
MTEXT
  5
229
100
AcDbEntity
  8
04-legend-text
  6
ByLayer
 62
  256
370
   -1
100
AcDbMText
 10
4375
 20
-2150
 30
0
 40
150
 41
83.33333333333334
 71
    5
 72
    1
  1
4
  7
unicode
210
0
220
0
230
1
 50
0
 73
    2
 44
1
  0
MTEXT
  5
22A
100
AcDbEntity
  8
04-legend-text
  6
ByLayer
 62
  256
370
   -1
100
AcDbMText
 10
4375
 20
-2550
 30
0
 40
150
 41
33.33333333333334
 71
    5
 72
    1
  1
1
  7
unicode
210
0
220
0
230
1
 50
0
 73
    2
 44
1
  0
MTEXT
  5
22B
100
AcDbEntity
  8
04-legend-text
  6
ByLayer
 62
  256
370
   -1
100
AcDbMText
 10
4375
 20
-2950
 30
0
 40
150
 41
150
 71
    5
 72
    1
  1
18
  7
unicode
210
0
220
0
230
1
 50
0
 73
    2
 44
1
  0
MTEXT
  5
22C
100
AcDbEntity
  8
04-legend-text
  6
ByLayer
 62
  256
370
   -1
100
AcDbMText
 10
4375
 20
-3350
 30
0
 40
150
 41
33.33333333333334
 71
    5
 72
    1
  1
1
  7
unicode
210
0
220
0
230
1
 50
0
 73
    2
 44
1
  0
MTEXT
  5
22D
100
AcDbEntity
  8
04-legend-text
  6
ByLayer
 62
  256
370
   -1
100
AcDbMText
 10
4375
 20
-3750
 30
0
 40
150
 41
33.33333333333334
 71
    5
 72
    1
  1
1
  7
unicode
210
0
220
0
230
1
 50
0
 73
    2
 44
1
  0
ENDBLK
  5
F1
330
EF
100
AcDbEntity
  8
0
100
AcDbBlockEnd
  0
BLOCK
  5
F3
330
F2
100
AcDbEntity
  8
0
100
AcDbBlockBegin
  2
template-notice-1
 70
    0
 10
0
 20
0
  3
template-notice-1
  1

  0
LWPOLYLINE
  5
22E
100
AcDbEntity
  8
10-notice-border
  6
ByLayer
 62
  256
370
   -1
100
AcDbPolyline
 90
    4
 70
    1
 43
0
 10
0
 20
0
 10
2200
 20
0
 10
2200
 20
-700
 10
0
 20
-700
  0
MTEXT
  5
22F
100
AcDbEntity
  8
10-notice-text
  6
ByLayer
 62
  256
370
   -1
100
AcDbMText
 10
100
 20
-100
 30
0
 40
60
 41
533.3333333333334
 71
    1
 72
    1
  1
:
  7
unicode
210
0
220
0
230
1
 50
0
 73
    2
 44
1
  0
MTEXT
  5
230
100
AcDbEntity
  8
10-notice-text
  6
ByLayer
 62
  256
370
   -1
100
AcDbMText
 10
100
 20
-300
 30
0
 40
60
 41
1530
 71
    1
 72
    1
  1
    \P  .
  7
unicode
210
0
220
0
230
1
 50
0
 73
    2
 44
1
  0
ENDBLK
  5
F4
330
F2
100
AcDbEntity
  8
0
100
AcDbBlockEnd
  0
BLOCK
  5
F6
330
F5
100
AcDbEntity
  8
0
100
AcDbBlockBegin
  2
sheet-A3-border
 70
    0
 10
0
 20
0
  3
sheet-A3-border
  1

  0
LINE
  5
231
100
AcDbEntity
  8
01-sheet-construction
  6
ByLayer
 62
  256
370
   -1
100
AcDbLine
 10
0
 20
-297
 11
420
 21
-297
  0
LINE
  5
232
100
AcDbEntity
  8
01-sheet-construction
  6
ByLayer
 62
  256
370
   -1
100
AcDbLine
 10
420
 20
-297
 11
420
 21
0
  0
LINE
  5
233
100
AcDbEntity
  8
01-sheet-construction
  6
ByLayer
 62
  256
370
   -1
100
AcDbLine
 10
420
 20
0
 11
0
 21
0
  0
LINE
  5
234
100
AcDbEntity
  8
01-sheet-construction
  6
ByLayer
 62
  256
370
   -1
100
AcDbLine
 10
0
 20
0
 11
0
 21
-297
  0
LINE
  5
235
100
AcDbEntity
  8
01-sheet-border-inner
  6
ByLayer
 62
  256
370
   -1
100
AcDbLine
 10
20
 20
-292
 11
415
 21
-292
  0
LINE
  5
236
100
AcDbEntity
  8
01-sheet-border-inner
  6
ByLayer
 62
  256
370
   -1
100
AcDbLine
 10
415
 20
-292
 11
415
 21
-5
  0
LINE
  5
237
100
AcDbEntity
  8
01-sheet-border-inner
  6
ByLayer
 62
  256
370
   -1
100
AcDbLine
 10
415
 20
-5
 11
20
 21
-5
  0
LINE
  5
238
100
AcDbEntity
  8
01-sheet-border-inner
  6
ByLayer
 62
  256
370
   -1
100
AcDbLine
 10
20
 20
-5
 11
20
 21
-292
  0
LWPOLYLINE
  5
239
100
AcDbEntity
  8
01-sheet-border-outer
  6
ByLayer
 62
  256
370
   -1
100
AcDbPolyline
 90
    4
 70
    1
 43
0
 10
0
 20
0
 10
420
 20
0
 10
420
 20
-297
 10
0
 20
-297
  0
LINE
  5
23A
100
AcDbEntity
  8
01-sheet-construction
  6
ByLayer
 62
  256
370
   -1
100
AcDbLine
 10
310
 20
-20
 11
405
 21
-20
  0
LINE
  5
23B
100
AcDbEntity
  8
01-sheet-construction
  6
ByLayer
 62
  256
370
   -1
100
AcDbLine
 10
310
 20
-20
 11
310
 21
-115
  0
LINE
  5
23C
100
AcDbEntity
  8
01-sheet-construction
  6
ByLayer
 62
  256
370
   -1
100
AcDbLine
 10
30
 20
-5.000000000000003
 11
30
 21
-292
  0
LINE
  5
23D
100
AcDbEntity
  8
01-sheet-construction
  6
ByLayer
 62
  256
370
   -1
100
AcDbLine
 10
20
 20
-282
 11
415
 21
-282
  0
LINE
  5
23E
100
AcDbEntity
  8
02-title-block-construction
  6
ByLayer
 62
  256
370
   -1
100
AcDbLine
 10
415
 20
-289.5
 11
250
 21
-289.5
  0
LINE
  5
23F
100
AcDbEntity
  8
02-title-block-construction
  6
ByLayer
 62
  256
370
   -1
100
AcDbLine
 10
415
 20
-287
 11
250
 21
-287
  0
LINE
  5
240
100
AcDbEntity
  8
02-title-block-construction
  6
ByLayer
 62
  256
370
   -1
100
AcDbLine
 10
250
 20
-284.5
 11
415
 21
-284.5
  0
LINE
  5
241
100
AcDbEntity
  8
02-title-block-construction
  6
ByLayer
 62
  256
370
   -1
100
AcDbLine
 10
250
 20
-282
 11
415
 21
-282
  0
LINE
  5
242
100
AcDbEntity
  8
02-title-block-construction
  6
ByLayer
 62
  256
370
   -1
100
AcDbLine
 10
250
 20
-279.5
 11
415
 21
-279.5
  0
LINE
  5
243
100
AcDbEntity
  8
02-title-block-construction
  6
ByLayer
 62
  256
370
   -1
100
AcDbLine
 10
250
 20
-277
 11
415
 21
-277
  0
LINE
  5
244
100
AcDbEntity
  8
02-title-block-construction
  6
ByLayer
 62
  256
370
   -1
100
AcDbLine
 10
250
 20
-274.5
 11
415
 21
-274.5
  0
LINE
  5
245
100
AcDbEntity
  8
02-title-block-construction
  6
ByLayer
 62
  256
370
   -1
100
AcDbLine
 10
250
 20
-272
 11
415
 21
-272
  0
LINE
  5
246
100
AcDbEntity
  8
02-title-block-construction
  6
ByLayer
 62
  256
370
   -1
100
AcDbLine
 10
250
 20
-292
 11
250
 21
-272
  0
LINE
  5
247
100
AcDbEntity
  8
02-title-block-construction
  6
ByLayer
 62
  256
370
   -1
100
AcDbLine
 10
332.5
 20
-292
 11
332.5
 21
-272
  0
LINE
  5
248
100
AcDbEntity
  8
02-title-block-construction
  6
ByLayer
 62
  256
370
   -1
100
AcDbLine
 10
353.125
 20
-292.0000000000001
 11
353.125
 21
-272
  0
LINE
  5
249
100
AcDbEntity
  8
02-title-block-construction
  6
ByLayer
 62
  256
370
   -1
100
AcDbLine
 10
373.75
 20
-292.0000000000001
 11
373.75
 21
-272.0000000000001
  0
LINE
  5
24A
100
AcDbEntity
  8
02-title-block-construction
  6
ByLayer
 62
  256
370
   -1
100
AcDbLine
 10
394.375
 20
-292.0000000000001
 11
394.375
 21
-272.0000000000001
  0
LINE
  5
24B
100
AcDbEntity
  8
02-title-block-construction
  6
ByLayer
 62
  256
370
   -1
100
AcDbLine
 10
415
 20
-292.0000000000001
 11
415
 21
-272.0000000000001
  0
LINE
  5
24C
100
AcDbEntity
  8
02-title-block-construction
  6
ByLayer
 62
  256
370
   -1
100
AcDbLine
 10
342.8125
 20
-292
 11
342.8125
 21
-272
  0
LINE
  5
24D
100
AcDbEntity
  8
02-title-block-construction
  6
ByLayer
 62
  256
370
   -1
100
AcDbLine
 10
363.4375
 20
-292.0000000000001
 11
363.4375
 21
-272.0000000000001
  0
LINE
  5
24E
100
AcDbEntity
  8
02-title-block-construction
  6
ByLayer
 62
  256
370
   -1
100
AcDbLine
 10
384.0625
 20
-292.0000000000001
 11
384.0625
 21
-272.0000000000001
  0
LINE
  5
24F
100
AcDbEntity
  8
02-title-block-construction
  6
ByLayer
 62
  256
370
   -1
100
AcDbLine
 10
404.6875
 20
-292.0000000000001
 11
404.6875
 21
-272.0000000000001
  0
LINE
  5
250
100
AcDbEntity
  8
02-title-block-construction
  6
ByLayer
 62
  256
370
   -1
100
AcDbLine
 10
291.25
 20
-292
 11
291.25
 21
-272
  0
LWPOLYLINE
  5
251
100
AcDbEntity
  8
02-title-block-table
  6
ByLayer
 62
  256
370
   -1
100
AcDbPolyline
 90
    4
 70
    1
 43
0
 10
250
 20
-272
 10
415
 20
-272
 10
415
 20
-292
 10
250
 20
-292
  0
LINE
  5
252
100
AcDbEntity
  8
02-title-block-table
  6
ByLayer
 62
  256
370
   -1
100
AcDbLine
 10
250
 20
-282
 11
415
 21
-282
  0
LINE
  5
253
100
AcDbEntity
  8
02-title-block-table
  6
ByLayer
 62
  256
370
   -1
100
AcDbLine
 10
332.5
 20
-272
 11
332.5
 21
-292
  0
LINE
  5
254
100
AcDbEntity
  8
02-title-block-table
  6
ByLayer
 62
  256
370
   -1
100
AcDbLine
 10
353.125
 20
-272
 11
353.125
 21
-282
  0
LINE
  5
255
100
AcDbEntity
  8
02-title-block-table
  6
ByLayer
 62
  256
370
   -1
100
AcDbLine
 10
373.75
 20
-272
 11
373.75
 21
-282
  0
LINE
  5
256
100
AcDbEntity
  8
02-title-block-table
  6
ByLayer
 62
  256
370
   -1
100
AcDbLine
 10
394.375
 20
-272
 11
394.375
 21
-282
  0
LINE
  5
257
100
AcDbEntity
  8
02-title-block-table
  6
ByLayer
 62
  256
370
   -1
100
AcDbLine
 10
332.5
 20
-277
 11
415
 21
-277
  0
LINE
  5
258
100
AcDbEntity
  8
02-title-block-table
  6
ByLayer
 62
  256
370
   -1
100
AcDbLine
 10
332.5
 20
-287
 11
415
 21
-287
  0
LINE
  5
259
100
AcDbEntity
  8
02-title-block-table
  6
ByLayer
 62
  256
370
   -1
100
AcDbLine
 10
373.75
 20
-287
 11
373.75
 21
-292
  0
MTEXT
  5
25A
100
AcDbEntity
  8
02-title-block-text
  6
ByLayer
 62
  256
370
   -1
100
AcDbMText
 10
342.8125
 20
-274.5
 30
0
 40
2.5
 41
15
 71
    5
 72
    1
  1

  7
unicode
210
0
220
0
230
1
 50
0
 73
    2
 44
1
  0
MTEXT
  5
25B
100
AcDbEntity
  8
02-title-block-text
  6
ByLayer
 62
  256
370
   -1
100
AcDbMText
 10
363.4375
 20
-274.5
 30
0
 40
2.5
 41
7.5
 71
    5
 72
    1
  1

  7
unicode
210
0
220
0
230
1
 50
0
 73
    2
 44
1
  0
MTEXT
  5
25C
100
AcDbEntity
  8
02-title-block-text
  6
ByLayer
 62
  256
370
   -1
100
AcDbMText
 10
384.0625
 20
-274.5
 30
0
 40
2.5
 41
11.38888888888889
 71
    5
 72
    1
  1

  7
unicode
210
0
220
0
230
1
 50
0
 73
    2
 44
1
  0
MTEXT
  5
25D
100
AcDbEntity
  8
02-title-block-text
  6
ByLayer
 62
  256
370
   -1
100
AcDbMText
 10
404.6875
 20
-274.5
 30
0
 40
2.5
 41
8.888888888888889
 71
    5
 72
    1
  1

  7
unicode
210
0
220
0
230
1
 50
0
 73
    2
 44
1
  0
MTEXT
  5
25E
100
AcDbEntity
  8
02-title-block-text
  6
ByLayer
 62
  256
370
   -1
100
AcDbMText
 10
373.75
 20
-284.5
 30
0
 40
2.5
 41
47.36111111111111
 71
    5
 72
    1
  1
:  
  7
unicode
210
0
220
0
230
1
 50
0
 73
    2
 44
1
  0
MTEXT
  5
25F
100
AcDbEntity
  8
02-title-block-text
  6
ByLayer
 62
  256
370
   -1
100
AcDbMText
 10
394.375
 20
-289.5
 30
0
 40
2.5
 41
35.55555555555556
 71
    5
 72
    1
  1
http://artidea.gallery
  7
unicode
210
0
220
0
230
1
 50
0
 73
    2
 44
1
  0
MTEXT
  5
260
100
AcDbEntity
  8
02-title-block-text
  6
ByLayer
 62
  256
370
   -1
100
AcDbMText
 10
353.125
 20
-289.5
 30
0
 40
2.5
 41
31.31944444444445
 71
    5
 72
    1
  1
.: +79780123193
  7
unicode
210
0
220
0
230
1
 50
0
 73
    2
 44
1
  0
MTEXT
  5
261
100
AcDbEntity
  8
02-title-block-text
  6
ByLayer
 62
  256
370
   -1
100
AcDbMText
 10
384.0625
 20
-279.5
 30
0
 40
2.5
 41
4.166666666666667
 71
    5
 72
    1
  1
XX
  7
unicode
210
0
220
0
230
1
 50
0
 73
    2
 44
1
  0
MTEXT
  5
262
100
AcDbEntity
  8
02-title-block-text
  6
ByLayer
 62
  256
370
   -1
100
AcDbMText
 10
363.4375
 20
-279.5
 30
0
 40
2.5
 41
1.666666666666667
 71
    5
 72
    1
  1
X
  7
unicode
210
0
220
0
230
1
 50
0
 73
    2
 44
1
  0
MTEXT
  5
263
100
AcDbEntity
  8
02-title-block-text
  6
ByLayer
 62
  256
370
   -1
100
AcDbMText
 10
404.6875
 20
-279.5
 30
0
 40
2.5
 41
18.61111111111111
 71
    5
 72
    1
  1
0000-00-00
  7
unicode
210
0
220
0
230
1
 50
0
 73
    2
 44
1
  0
MTEXT
  5
264
100
AcDbEntity
  8
02-title-block-text
  6
ByLayer
 62
  256
370
   -1
100
AcDbMText
 10
342.8125
 20
-279.5
 30
0
 40
2.5
 41
5.277777777777779
 71
    5
 72
    1
  1
1:50
  7
unicode
210
0
220
0
230
1
 50
0
 73
    2
 44
1
  0
MTEXT
  5
265
100
AcDbEntity
  8
02-title-block-text
  6
ByLayer
 62
  256
370
   -1
100
AcDbMText
 10
291.25
 20
-277
 30
0
 40
2.5
 41
20.8350011243245
 71
    5
 72
    1
  1
AddressField
  7
unicode
210
0
220
0
230
1
 50
0
 73
    2
 44
1
  0
MTEXT
  5
266
100
AcDbEntity
  8
02-title-block-text
  6
ByLayer
 62
  256
370
   -1
100
AcDbMText
 10
291.25
 20
-287
 30
0
 40
2.5
 41
52.70833333333334
 71
    5
 72
    1
  1
   .
  7
unicode
210
0
220
0
230
1
 50
0
 73
    2
 44
1
  0
ENDBLK
  5
F7
330
F5
100
AcDbEntity
  8
0
100
AcDbBlockEnd
  0
ENDSEC
  0
SECTION
  2
ENTITIES
  0
HATCH
  5
267
100
AcDbEntity
  8
plasterboard-hatch
  6
ByLayer
 62
  256
370
   -1
100
AcDbHatch
 10
0
 20
0
 30
0
210
0
220
0
230
1
  2
kerpele
 70
    0
 71
    0
 91
    1
 92
    0
 93
    4
 72
    1
 10
4105
 20
-7420
 11
4085
 21
-7420
 72
    1
 10
4085
 20
-7420
 11
4085
 21
-7570
 72
    1
 10
4085
 20
-7570
 11
4105
 21
-7570
 72
    1
 10
4105
 20
-7570
 11
4105
 21
-7420
 97
    0
 75
    0
 76
    1
 52
-1.570796326794897
 41
1
 77
    0
 78
    0
 98
    0
  0
HATCH
  5
268
100
AcDbEntity
  8
plasterboard-hatch
  6
ByLayer
 62
  256
370
   -1
100
AcDbHatch
 10
0
 20
0
 30
0
210
0
220
0
230
1
  2
kerpele
 70
    0
 71
    0
 91
    1
 92
    0
 93
    4
 72
    1
 10
5775
 20
-3530
 11
5795
 21
-3530
 72
    1
 10
5795
 20
-3530
 11
5795
 21
-3650
 72
    1
 10
5795
 20
-3650
 11
5775
 21
-3650
 72
    1
 10
5775
 20
-3650
 11
5775
 21
-3530
 97
    0
 75
    0
 76
    1
 52
1.570796326794897
 41
1
 77
    0
 78
    0
 98
    0
  0
HATCH
  5
269
100
AcDbEntity
  8
plasterboard-hatch
  6
ByLayer
 62
  256
370
   -1
100
AcDbHatch
 10
0
 20
0
 30
0
210
0
220
0
230
1
  2
kerpele
 70
    0
 71
    0
 91
    1
 92
    0
 93
    4
 72
    1
 10
5705
 20
-6085
 11
5725
 21
-6085
 72
    1
 10
5725
 20
-6085
 11
5725
 21
-5180
 72
    1
 10
5725
 20
-5180
 11
5705
 21
-5180
 72
    1
 10
5705
 20
-5180
 11
5705
 21
-6085
 97
    0
 75
    0
 76
    1
 52
1.570796326794897
 41
1
 77
    0
 78
    0
 98
    0
  0
HATCH
  5
26A
100
AcDbEntity
  8
plasterboard-hatch
  6
ByBlock
 62
  256
370
   -1
100
AcDbHatch
 10
0
 20
0
 30
0
210
0
220
0
230
1
  2
kerpele
 70
    0
 71
    0
 91
    1
 92
    0
 93
   16
 72
    1
 10
1245
 20
-7550
 11
19.99999999999954
 21
-7550
 72
    1
 10
19.99999999999954
 20
-7550
 11
20
 21
-5520
 72
    1
 10
20
 20
-5520
 11
780
 21
-5520
 72
    1
 10
780
 20
-5520
 11
780
 21
-6250
 72
    1
 10
780
 20
-6250
 11
1245
 21
-6250
 72
    1
 10
1245
 20
-6250
 11
1245
 21
-6290
 72
    1
 10
1245
 20
-6290
 11
1265
 21
-6290
 72
    1
 10
1265
 20
-6290
 11
1265
 21
-6230
 72
    1
 10
1265
 20
-6230
 11
800
 21
-6230
 72
    1
 10
800
 20
-6230
 11
800
 21
-5500
 72
    1
 10
800
 20
-5500
 11
-3.373901931650958e-13
 21
-5500
 72
    1
 10
-3.373901931650958e-13
 20
-5500
 11
-4.641411368768469e-13
 21
-7570
 72
    1
 10
-4.641411368768469e-13
 20
-7570
 11
1265
 21
-7570
 72
    1
 10
1265
 20
-7570
 11
1265
 21
-7040
 72
    1
 10
1265
 20
-7040
 11
1245
 21
-7040
 72
    1
 10
1245
 20
-7040
 11
1245
 21
-7550
 97
    0
 75
    0
 76
    1
 52
1.570796326794897
 41
1
 77
    0
 78
    0
 98
    0
  0
HATCH
  5
26B
100
AcDbEntity
  8
plasterboard-hatch
  6
ByBlock
 62
  256
370
   -1
100
AcDbHatch
 10
0
 20
0
 30
0
210
0
220
0
230
1
  2
kerpele
 70
    0
 71
    0
 91
    1
 92
    0
 93
    8
 72
    1
 10
1845
 20
-7550
 11
1385
 21
-7550
 72
    1
 10
1385
 20
-7550
 11
1385
 21
-7040
 72
    1
 10
1385
 20
-7040
 11
1365
 21
-7040
 72
    1
 10
1365
 20
-7040
 11
1365
 21
-7570
 72
    1
 10
1365
 20
-7570
 11
1825
 21
-7570
 72
    1
 10
1825
 20
-7570
 11
1825
 21
-7720
 72
    1
 10
1825
 20
-7720
 11
1845
 21
-7720
 72
    1
 10
1845
 20
-7720
 11
1845
 21
-7550
 97
    0
 75
    0
 76
    1
 52
1.570796326794897
 41
1
 77
    0
 78
    0
 98
    0
  0
HATCH
  5
26C
100
AcDbEntity
  8
plasterboard-hatch
  6
ByBlock
 62
  256
370
   -1
100
AcDbHatch
 10
0
 20
0
 30
0
210
0
220
0
230
1
  2
kerpele
 70
    0
 71
    0
 91
    1
 92
    0
 93
   12
 72
    1
 10
2865
 20
-7200
 11
3985
 21
-7200
 72
    1
 10
3985
 20
-7200
 11
3985
 21
-6690
 72
    1
 10
3985
 20
-6690
 11
4005
 21
-6690
 72
    1
 10
4005
 20
-6690
 11
4005
 21
-7220
 72
    1
 10
4005
 20
-7220
 11
2885
 21
-7220
 72
    1
 10
2885
 20
-7220
 11
2885
 21
-7570
 72
    1
 10
2885
 20
-7570
 11
2850
 21
-7570
 72
    1
 10
2850
 20
-7570
 11
2850
 21
-7720
 72
    1
 10
2850
 20
-7720
 11
2830
 21
-7720
 72
    1
 10
2830
 20
-7720
 11
2830
 21
-7550
 72
    1
 10
2830
 20
-7550
 11
2865
 21
-7550
 72
    1
 10
2865
 20
-7550
 11
2865
 21
-7200
 97
    0
 75
    0
 76
    1
 52
1.570796326794897
 41
1
 77
    0
 78
    0
 98
    0
  0
HATCH
  5
26D
100
AcDbEntity
  8
plasterboard-hatch
  6
ByBlock
 62
  256
370
   -1
100
AcDbHatch
 10
0
 20
0
 30
0
210
0
220
0
230
1
  2
kerpele
 70
    0
 71
    0
 91
    1
 92
    0
 93
   16
 72
    1
 10
3985
 20
-3560
 11
4125
 21
-3560
 72
    1
 10
4125
 20
-3560
 11
4125
 21
-4160
 72
    1
 10
4125
 20
-4160
 11
5070
 21
-4160
 72
    1
 10
5070
 20
-4160
 11
5070
 21
-4260
 72
    1
 10
5070
 20
-4260
 11
5775
 21
-4260
 72
    1
 10
5775
 20
-4260
 11
5775
 21
-4250
 72
    1
 10
5775
 20
-4250
 11
5795
 21
-4250
 72
    1
 10
5795
 20
-4250
 11
5795
 21
-4280
 72
    1
 10
5795
 20
-4280
 11
5050
 21
-4280
 72
    1
 10
5050
 20
-4280
 11
5050
 21
-4180
 72
    1
 10
5050
 20
-4180
 11
4105
 21
-4180
 72
    1
 10
4105
 20
-4180
 11
4105
 21
-3580
 72
    1
 10
4105
 20
-3580
 11
4005
 21
-3580
 72
    1
 10
4005
 20
-3580
 11
4005
 21
-5940
 72
    1
 10
4005
 20
-5940
 11
3985
 21
-5940
 72
    1
 10
3985
 20
-5940
 11
3985
 21
-3560
 97
    0
 75
    0
 76
    1
 52
1.570796326794897
 41
1
 77
    0
 78
    0
 98
    0
  0
HATCH
  5
26E
100
AcDbEntity
  8
plasterboard-hatch
  6
ByBlock
 62
  256
370
   -1
100
AcDbHatch
 10
0
 20
0
 30
0
210
0
220
0
230
1
  2
kerpele
 70
    0
 71
    0
 91
    1
 92
    0
 93
   20
 72
    1
 10
5675
 20
-220
 11
5775
 21
-220
 72
    1
 10
5775
 20
-220
 11
5775
 21
-3530
 72
    1
 10
5775
 20
-3530
 11
5795
 21
-3530
 72
    1
 10
5795
 20
-3530
 11
5795
 21
-200
 72
    1
 10
5795
 20
-200
 11
5695
 21
-200
 72
    1
 10
5695
 20
-200
 11
5695
 21
0
 72
    1
 10
5695
 20
0
 11
2900
 21
0
 72
    1
 10
2900
 20
0
 11
2900
 21
-200
 72
    1
 10
2900
 20
-200
 11
2505
 21
-200
 72
    1
 10
2505
 20
-200
 11
2505
 21
0
 72
    1
 10
2505
 20
0
 11
2060
 21
0
 72
    1
 10
2060
 20
0
 11
2060
 21
-20
 72
    1
 10
2060
 20
-20
 11
2485
 21
-20
 72
    1
 10
2485
 20
-20
 11
2485
 21
-220
 72
    1
 10
2485
 20
-220
 11
2920
 21
-220
 72
    1
 10
2920
 20
-220
 11
2920
 21
-20
 72
    1
 10
2920
 20
-20
 11
3640
 21
-20
 72
    1
 10
3640
 20
-20
 11
5315
 21
-20
 72
    1
 10
5315
 20
-20
 11
5675
 21
-20
 72
    1
 10
5675
 20
-20
 11
5675
 21
-220
 97
    0
 75
    0
 76
    1
 52
1.570796326794897
 41
1
 77
    0
 78
    0
 98
    0
  0
HATCH
  5
26F
100
AcDbEntity
  8
plasterboard-hatch
  6
ByBlock
 62
  256
370
   -1
100
AcDbHatch
 10
0
 20
0
 30
0
210
0
220
0
230
1
  2
kerpele
 70
    0
 71
    0
 91
    1
 92
    0
 93
   11
 72
    1
 10
20.00000000000001
 20
-5380
 11
1385
 21
-5380
 72
    1
 10
1385
 20
-5380
 11
1385
 21
-6290
 72
    1
 10
1385
 20
-6290
 11
1365
 21
-6290
 72
    1
 10
1365
 20
-6290
 11
1365
 21
-5400
 72
    1
 10
1365
 20
-5400
 11
0
 21
-5400
 72
    1
 10
0
 20
-5400
 11
0
 21
0
 72
    1
 10
0
 20
0
 11
1200
 21
0
 72
    1
 10
1200
 20
0
 11
1200
 21
-20
 72
    1
 10
1200
 20
-20
 11
390
 21
-20
 72
    1
 10
390
 20
-20
 11
20
 21
-20
 72
    1
 10
20
 20
-20
 11
20.00000000000001
 21
-5380
 97
    0
 75
    0
 76
    1
 52
1.570796326794897
 41
1
 77
    0
 78
    0
 98
    0
  0
HATCH
  5
270
100
AcDbEntity
  8
wall-hatch
  6
ByLayer
 62
  256
370
   -1
100
AcDbHatch
 10
0
 20
0
 30
0
210
0
220
0
230
1
  2
gost_ferroconcrete
 70
    0
 71
    0
 91
    1
 92
    0
 93
   88
 72
    1
 10
5795
 20
-5080
 11
4105
 21
-5080
 72
    1
 10
4105
 20
-5080
 11
4105
 21
-4380
 72
    1
 10
4105
 20
-4380
 11
5795
 21
-4380
 72
    1
 10
5795
 20
-4380
 11
5795
 21
-5080
 72
    1
 10
2900
 20
0
 11
3640
 21
0
 72
    1
 10
3640
 20
0
 11
3640
 21
300
 72
    1
 10
3640
 20
300
 11
2060
 21
300
 72
    1
 10
2060
 20
300
 11
2060
 21
0
 72
    1
 10
2060
 20
0
 11
2505
 21
0
 72
    1
 10
2505
 20
0
 11
2505
 21
-200
 72
    1
 10
2505
 20
-200
 11
2900
 21
-200
 72
    1
 10
2900
 20
-200
 11
2900
 21
0
 72
    1
 10
3085
 20
-7420
 11
3830
 21
-7420
 72
    1
 10
3830
 20
-7420
 11
3830
 21
-7570
 72
    1
 10
3830
 20
-7570
 11
3085
 21
-7570
 72
    1
 10
3085
 20
-7570
 11
3085
 21
-7420
 72
    1
 10
1265
 20
-6130
 11
900
 21
-6130
 72
    1
 10
900
 20
-6130
 11
900
 21
-5500
 72
    1
 10
900
 20
-5500
 11
1265
 21
-5500
 72
    1
 10
1265
 20
-5500
 11
1265
 21
-6130
 72
    1
 10
390.0000000000001
 20
300
 11
-300
 21
300
 72
    1
 10
-300
 20
300
 11
-270
 21
220
 72
    1
 10
-270
 20
220
 11
-330
 21
110
 72
    1
 10
-330
 20
110
 11
-300
 21
1.469576158976824e-13
 72
    1
 10
-300
 20
1.469576158976824e-13
 11
-200
 21
1.469576158976824e-13
 72
    1
 10
-200
 20
1.469576158976824e-13
 11
-200
 21
-7570
 72
    1
 10
-200
 20
-7570
 11
-300
 21
-7570
 72
    1
 10
-300
 20
-7570
 11
-290
 21
-7610
 72
    1
 10
-290
 20
-7610
 11
-330
 21
-7690
 72
    1
 10
-330
 20
-7690
 11
-300
 21
-7770
 72
    1
 10
-300
 20
-7770
 11
1825
 21
-7770
 72
    1
 10
1825
 20
-7770
 11
1825
 21
-7570
 72
    1
 10
1825
 20
-7570
 11
1365
 21
-7570
 72
    1
 10
1365
 20
-7570
 11
1365
 21
-7040
 72
    1
 10
1365
 20
-7040
 11
1265
 21
-7040
 72
    1
 10
1265
 20
-7040
 11
1265
 21
-7570
 72
    1
 10
1265
 20
-7570
 11
-4.641411368768469e-13
 21
-7570
 72
    1
 10
-4.641411368768469e-13
 20
-7570
 11
-3.373901931650958e-13
 21
-5500
 72
    1
 10
-3.373901931650958e-13
 20
-5500
 11
800
 21
-5500
 72
    1
 10
800
 20
-5500
 11
800
 21
-6230
 72
    1
 10
800
 20
-6230
 11
1265
 21
-6230
 72
    1
 10
1265
 20
-6230
 11
1265
 21
-6290
 72
    1
 10
1265
 20
-6290
 11
1365
 21
-6290
 72
    1
 10
1365
 20
-6290
 11
1365
 21
-5400
 72
    1
 10
1365
 20
-5400
 11
0
 21
-5400
 72
    1
 10
0
 20
-5400
 11
0
 21
0
 72
    1
 10
0
 20
0
 11
390
 21
0
 72
    1
 10
390
 20
0
 11
390.0000000000001
 21
300
 72
    1
 10
6095
 20
-7770
 11
2850
 21
-7770
 72
    1
 10
2850
 20
-7770
 11
2850
 21
-7570
 72
    1
 10
2850
 20
-7570
 11
2885
 21
-7570
 72
    1
 10
2885
 20
-7570
 11
2885
 21
-7220
 72
    1
 10
2885
 20
-7220
 11
4005
 21
-7220
 72
    1
 10
4005
 20
-7220
 11
4005
 21
-6690
 72
    1
 10
4005
 20
-6690
 11
4105
 21
-6690
 72
    1
 10
4105
 20
-6690
 11
4105
 21
-7420
 72
    1
 10
4105
 20
-7420
 11
4030
 21
-7420
 72
    1
 10
4030
 20
-7420
 11
4030
 21
-7570
 72
    1
 10
4030
 20
-7570
 11
5795
 21
-7570
 72
    1
 10
5795
 20
-7570
 11
5795
 21
-6490
 72
    1
 10
5795
 20
-6490
 11
5705
 21
-6490
 72
    1
 10
5705
 20
-6490
 11
5705
 21
-6085
 72
    1
 10
5705
 20
-6085
 11
5795
 21
-6085
 72
    1
 10
5795
 20
-6085
 11
5795
 21
-5180
 72
    1
 10
5795
 20
-5180
 11
4105
 21
-5180
 72
    1
 10
4105
 20
-5180
 11
4105
 21
-5940
 72
    1
 10
4105
 20
-5940
 11
4005
 21
-5940
 72
    1
 10
4005
 20
-5940
 11
4005
 21
-3580
 72
    1
 10
4005
 20
-3580
 11
4105
 21
-3580
 72
    1
 10
4105
 20
-3580
 11
4105
 21
-4180
 72
    1
 10
4105
 20
-4180
 11
5050
 21
-4180
 72
    1
 10
5050
 20
-4180
 11
5050
 21
-4280
 72
    1
 10
5050
 20
-4280
 11
5795
 21
-4280
 72
    1
 10
5795
 20
-4280
 11
5795
 21
-200
 72
    1
 10
5795
 20
-200
 11
5695
 21
-200
 72
    1
 10
5695
 20
-200
 11
5695
 21
0
 72
    1
 10
5695
 20
0
 11
5315
 21
0
 72
    1
 10
5315
 20
0
 11
5315
 21
300
 72
    1
 10
5315
 20
300
 11
6095
 21
300
 72
    1
 10
6095
 20
300
 11
6150
 21
190
 72
    1
 10
6150
 20
190
 11
6080
 21
110
 72
    1
 10
6080
 20
110
 11
6095
 21
0
 72
    1
 10
6095
 20
0
 11
5995
 21
0
 72
    1
 10
5995
 20
0
 11
5995
 21
-7570
 72
    1
 10
5995
 20
-7570
 11
6095
 21
-7570
 72
    1
 10
6095
 20
-7570
 11
6140
 21
-7650
 72
    1
 10
6140
 20
-7650
 11
6080
 21
-7710
 72
    1
 10
6080
 20
-7710
 11
6095
 21
-7770
 97
    0
 75
    0
 76
    1
 52
0
 41
15
 77
    0
 78
    0
 98
    0
  0
LINE
  5
271
100
AcDbEntity
  8
construction
  6
ByLayer
 62
  256
370
   -1
100
AcDbLine
 10
-500
 20
0
 11
500
 21
0
  0
LINE
  5
272
100
AcDbEntity
  8
construction
  6
ByLayer
 62
  256
370
   -1
100
AcDbLine
 10
-3.061616997868383e-14
 20
-500
 11
3.061616997868383e-14
 21
500
  0
LINE
  5
273
100
AcDbEntity
  8
construction
  6
ByLayer
 62
  256
370
   -1
100
AcDbLine
 10
2505
 20
-500.0000000000006
 11
2505
 21
499.9999999999994
  0
LINE
  5
274
100
AcDbEntity
  8
construction
  6
ByLayer
 62
  256
370
   -1
100
AcDbLine
 10
2900
 20
-500.0000000000007
 11
2900
 21
499.9999999999993
  0
LINE
  5
275
100
AcDbEntity
  8
construction
  6
ByLayer
 62
  256
370
   -1
100
AcDbLine
 10
5695
 20
-500.0000000000014
 11
5695
 21
499.9999999999986
  0
LINE
  5
276
100
AcDbEntity
  8
construction
  6
ByLayer
 62
  256
370
   -1
100
AcDbLine
 10
5795
 20
-500.0000000000014
 11
5795
 21
499.9999999999986
  0
LINE
  5
277
100
AcDbEntity
  8
construction
  6
ByLayer
 62
  256
370
   -1
100
AcDbLine
 10
1365
 20
-500.0000000000003
 11
1365
 21
499.9999999999997
  0
LINE
  5
278
100
AcDbEntity
  8
construction
  6
ByLayer
 62
  256
370
   -1
100
AcDbLine
 10
-500.000000000001
 20
-5400
 11
499.999999999999
 21
-5400
  0
LINE
  5
279
100
AcDbEntity
  8
construction
  6
ByLayer
 62
  256
370
   -1
100
AcDbLine
 10
-500.000000000001
 20
-5500
 11
499.999999999999
 21
-5500
  0
LINE
  5
27A
100
AcDbEntity
  8
construction
  6
ByLayer
 62
  256
370
   -1
100
AcDbLine
 10
1.163414459189985e-13
 20
-3500
 11
1365
 21
-3500
  0
LINE
  5
27B
100
AcDbEntity
  8
construction
  6
ByLayer
 62
  256
370
   -1
100
AcDbLine
 10
1.224646799147353e-13
 20
-3400
 11
1365
 21
-3400
  0
LINE
  5
27C
100
AcDbEntity
  8
construction
  6
ByLayer
 62
  256
370
   -1
100
AcDbLine
 10
-500.0000000000014
 20
-7570
 11
499.9999999999986
 21
-7570
  0
LINE
  5
27D
100
AcDbEntity
  8
wall-hatch
  6
ByLayer
 62
  256
370
   -1
100
AcDbLine
 10
900
 20
-5500
 11
1265
 21
-6130
  0
LINE
  5
27E
100
AcDbEntity
  8
wall-hatch
  6
ByLayer
 62
  256
370
   -1
100
AcDbLine
 10
900
 20
-6130
 11
1265
 21
-5500
  0
LINE
  5
27F
100
AcDbEntity
  8
wall-hatch
  6
ByLayer
 62
  256
370
   -1
100
AcDbLine
 10
3085
 20
-7420
 11
3830
 21
-7570
  0
LINE
  5
280
100
AcDbEntity
  8
wall-hatch
  6
ByLayer
 62
  256
370
   -1
100
AcDbLine
 10
3085
 20
-7570
 11
3830
 21
-7420
  0
LINE
  5
281
100
AcDbEntity
  8
wall-hatch
  6
ByLayer
 62
  256
370
   -1
100
AcDbLine
 10
4105
 20
-4380
 11
5795
 21
-5080
  0
LINE
  5
282
100
AcDbEntity
  8
wall-hatch
  6
ByLayer
 62
  256
370
   -1
100
AcDbLine
 10
4105
 20
-5080
 11
5795
 21
-4380
  0
LINE
  5
283
100
AcDbEntity
  8
construction
  6
ByLayer
 62
  256
370
   -1
100
AcDbLine
 10
389.9999999999999
 20
-500.0000000000001
 11
390.0000000000001
 21
499.9999999999999
  0
LINE
  5
284
100
AcDbEntity
  8
construction
  6
ByLayer
 62
  256
370
   -1
100
AcDbLine
 10
2060
 20
-500.0000000000005
 11
2060
 21
499.9999999999995
  0
LINE
  5
285
100
AcDbEntity
  8
construction
  6
ByLayer
 62
  256
370
   -1
100
AcDbLine
 10
1200
 20
-500.0000000000003
 11
1200
 21
499.9999999999997
  0
LINE
  5
286
100
AcDbEntity
  8
construction
  6
ByLayer
 62
  256
370
   -1
100
AcDbLine
 10
5315
 20
-500.0000000000014
 11
5315
 21
499.9999999999986
  0
LINE
  5
287
100
AcDbEntity
  8
construction
  6
ByLayer
 62
  256
370
   -1
100
AcDbLine
 10
3640
 20
-500.0000000000011
 11
3640
 21
499.9999999999989
  0
LINE
  5
288
100
AcDbEntity
  8
construction
  6
ByLayer
 62
  256
370
   -1
100
AcDbLine
 10
4477.5
 20
-200
 11
4477.5
 21
800
  0
LINE
  5
289
100
AcDbEntity
  8
construction
  6
ByLayer
 62
  256
370
   -1
100
AcDbLine
 10
3640
 20
70
 11
5315
 21
70
  0
LWPOLYLINE
  5
28A
100
AcDbEntity
  8
wall
  6
ByLayer
 62
  256
370
   -1
100
AcDbPolyline
 90
    5
 70
    0
 43
0
 10
5795
 20
-5080
 10
4105
 20
-5080
 10
4105
 20
-4380
 10
5795
 20
-4380
 10
5795
 20
-5080
  0
LWPOLYLINE
  5
28B
100
AcDbEntity
  8
wall
  6
ByLayer
 62
  256
370
   -1
100
AcDbPolyline
 90
    9
 70
    0
 43
0
 10
2900
 20
0
 10
3640
 20
0
 10
3640
 20
300
 10
2060
 20
300
 10
2060
 20
0
 10
2505
 20
0
 10
2505
 20
-200
 10
2900
 20
-200
 10
2900
 20
0
  0
LWPOLYLINE
  5
28C
100
AcDbEntity
  8
wall
  6
ByLayer
 62
  256
370
   -1
100
AcDbPolyline
 90
    5
 70
    0
 43
0
 10
3085
 20
-7420
 10
3830
 20
-7420
 10
3830
 20
-7570
 10
3085
 20
-7570
 10
3085
 20
-7420
  0
LWPOLYLINE
  5
28D
100
AcDbEntity
  8
wall
  6
ByLayer
 62
  256
370
   -1
100
AcDbPolyline
 90
    4
 70
    1
 43
0
 10
1265
 20
-6130
 10
900
 20
-6130
 10
900
 20
-5500
 10
1265
 20
-5500
  0
LWPOLYLINE
  5
28E
100
AcDbEntity
  8
wall
  6
ByLayer
 62
  256
370
   -1
100
AcDbPolyline
 90
   28
 70
    1
 43
0
 10
390.0000000000001
 20
300
 10
-300
 20
300
 10
-270
 20
220
 10
-330
 20
110
 10
-300
 20
1.469576158976824e-13
 10
-200
 20
1.469576158976824e-13
 10
-200
 20
-7570
 10
-300
 20
-7570
 10
-290
 20
-7610
 10
-330
 20
-7690
 10
-300
 20
-7770
 10
1825
 20
-7770
 10
1825
 20
-7570
 10
1365
 20
-7570
 10
1365
 20
-7040
 10
1265
 20
-7040
 10
1265
 20
-7570
 10
-4.641411368768469e-13
 20
-7570
 10
-3.373901931650958e-13
 20
-5500
 10
800
 20
-5500
 10
800
 20
-6230
 10
1265
 20
-6230
 10
1265
 20
-6290
 10
1365
 20
-6290
 10
1365
 20
-5400
 10
0
 20
-5400
 10
0
 20
0
 10
390
 20
0
  0
LWPOLYLINE
  5
28F
100
AcDbEntity
  8
wall
  6
ByLayer
 62
  256
370
   -1
100
AcDbPolyline
 90
    4
 70
    1
 43
0
 10
1200
 20
300
 10
1200
 20
0
 10
390
 20
0
 10
390.0000000000001
 20
300
  0
LWPOLYLINE
  5
290
100
AcDbEntity
  8
wall
  6
ByLayer
 62
  256
370
   -1
100
AcDbPolyline
 90
    4
 70
    1
 43
0
 10
5315
 20
300
 10
3640
 20
300
 10
3640
 20
0
 10
5315
 20
0
  0
LWPOLYLINE
  5
291
100
AcDbEntity
  8
window
  6
ByLayer
 62
  256
370
   -1
100
AcDbPolyline
 90
    4
 70
    1
 43
0
 10
390
 20
70
 10
420
 20
70
 10
420
 20
140
 10
390
 20
140
  0
LWPOLYLINE
  5
292
100
AcDbEntity
  8
window
  6
ByLayer
 62
  256
370
   -1
100
AcDbPolyline
 90
    4
 70
    1
 43
0
 10
420
 20
70
 10
500
 20
70
 10
500
 20
140
 10
420
 20
140
  0
LWPOLYLINE
  5
293
100
AcDbEntity
  8
window
  6
ByLayer
 62
  256
370
   -1
100
AcDbPolyline
 90
    4
 70
    1
 43
0
 10
1200
 20
70
 10
1120
 20
70
 10
1120
 20
140
 10
1200
 20
140
  0
LWPOLYLINE
  5
294
100
AcDbEntity
  8
window
  6
ByLayer
 62
  256
370
   -1
100
AcDbPolyline
 90
    4
 70
    1
 43
0
 10
500
 20
140
 10
1120
 20
140
 10
1120
 20
70
 10
500
 20
70
  0
LWPOLYLINE
  5
295
100
AcDbEntity
  8
window
  6
ByLayer
 62
  256
370
   -1
100
AcDbPolyline
 90
    4
 70
    1
 43
0
 10
1120
 20
100
 10
500
 20
100
 10
500
 20
110
 10
1120
 20
110
  0
LWPOLYLINE
  5
296
100
AcDbEntity
  8
window
  6
ByLayer
 62
  256
370
   -1
100
AcDbPolyline
 90
    4
 70
    1
 43
0
 10
1200
 20
70
 10
1280
 20
70
 10
1280
 20
140
 10
1200
 20
140
  0
LWPOLYLINE
  5
297
100
AcDbEntity
  8
window
  6
ByLayer
 62
  256
370
   -1
100
AcDbPolyline
 90
    4
 70
    1
 43
0
 10
2060
 20
70
 10
2030
 20
70
 10
2030
 20
140
 10
2060
 20
140
  0
LWPOLYLINE
  5
298
100
AcDbEntity
  8
window
  6
ByLayer
 62
  256
370
   -1
100
AcDbPolyline
 90
    4
 70
    1
 43
0
 10
2030
 20
70
 10
1950
 20
70
 10
1950
 20
140
 10
2030
 20
140
  0
LWPOLYLINE
  5
299
100
AcDbEntity
  8
window
  6
ByLayer
 62
  256
370
   -1
100
AcDbPolyline
 90
    4
 70
    1
 43
0
 10
1280
 20
140
 10
1950
 20
140
 10
1950
 20
70
 10
1280
 20
70
  0
LWPOLYLINE
  5
29A
100
AcDbEntity
  8
window
  6
ByLayer
 62
  256
370
   -1
100
AcDbPolyline
 90
    4
 70
    1
 43
0
 10
1950
 20
100
 10
1280
 20
100
 10
1280
 20
110
 10
1950
 20
110
  0
LINE
  5
29B
100
AcDbEntity
  8
window
  6
ByLayer
 62
  256
370
   -1
100
AcDbLine
 10
2030
 20
70
 11
2030
 21
-760
  0
ARC
  5
29C
100
AcDbEntity
  8
window
  6
ByLayer
 62
  256
370
   -1
100
AcDbCircle
 10
2030
 20
70
 40
830
100
AcDbArc
 50
180
 51
270
  0
LWPOLYLINE
  5
29D
100
AcDbEntity
  8
window
  6
ByLayer
 62
  256
370
   -1
100
AcDbPolyline
 90
    4
 70
    1
 43
0
 10
3640
 20
70
 10
3670
 20
70
 10
3670
 20
140
 10
3640
 20
140
  0
LWPOLYLINE
  5
29E
100
AcDbEntity
  8
window
  6
ByLayer
 62
  256
370
   -1
100
AcDbPolyline
 90
    4
 70
    1
 43
0
 10
5315
 20
70
 10
5285
 20
70
 10
5285
 20
140
 10
5315
 20
140
  0
LWPOLYLINE
  5
29F
100
AcDbEntity
  8
window
  6
ByLayer
 62
  256
370
   -1
100
AcDbPolyline
 90
    4
 70
    1
 43
0
 10
3670
 20
70
 10
3750
 20
70
 10
3750
 20
140
 10
3670
 20
140
  0
LWPOLYLINE
  5
2A0
100
AcDbEntity
  8
window
  6
ByLayer
 62
  256
370
   -1
100
AcDbPolyline
 90
    4
 70
    1
 43
0
 10
5285
 20
70
 10
5205
 20
70
 10
5205
 20
140
 10
5285
 20
140
  0
LWPOLYLINE
  5
2A1
100
AcDbEntity
  8
window
  6
ByLayer
 62
  256
370
   -1
100
AcDbPolyline
 90
    4
 70
    1
 43
0
 10
4477.5
 20
70
 10
4397.5
 20
70
 10
4397.5
 20
140
 10
4477.5
 20
140
  0
LWPOLYLINE
  5
2A2
100
AcDbEntity
  8
window
  6
ByLayer
 62
  256
370
   -1
100
AcDbPolyline
 90
    4
 70
    1
 43
0
 10
4477.5
 20
70
 10
4557.5
 20
70
 10
4557.5
 20
140
 10
4477.5
 20
140
  0
LWPOLYLINE
  5
2A3
100
AcDbEntity
  8
window
  6
ByLayer
 62
  256
370
   -1
100
AcDbPolyline
 90
    4
 70
    1
 43
0
 10
4557.5
 20
140
 10
5205
 20
140
 10
5205
 20
70
 10
4557.5
 20
70
  0
LWPOLYLINE
  5
2A4
100
AcDbEntity
  8
window
  6
ByLayer
 62
  256
370
   -1
100
AcDbPolyline
 90
    4
 70
    1
 43
0
 10
3750
 20
140
 10
4397.5
 20
140
 10
4397.5
 20
70
 10
3750
 20
70
  0
LWPOLYLINE
  5
2A5
100
AcDbEntity
  8
window
  6
ByLayer
 62
  256
370
   -1
100
AcDbPolyline
 90
    4
 70
    1
 43
0
 10
5205
 20
100
 10
4557
 20
100
 10
4557
 20
110
 10
5205
 20
110
  0
LWPOLYLINE
  5
2A6
100
AcDbEntity
  8
window
  6
ByLayer
 62
  256
370
   -1
100
AcDbPolyline
 90
    4
 70
    1
 43
0
 10
4397.5
 20
100
 10
3749.5
 20
100
 10
3749.5
 20
110
 10
4397.5
 20
110
  0
LINE
  5
2A7
100
AcDbEntity
  8
construction
  6
ByLayer
 62
  256
370
   -1
100
AcDbLine
 10
1825
 20
-7720
 11
1365
 21
-7720
  0
LWPOLYLINE
  5
2A8
100
AcDbEntity
  8
door
  6
ByLayer
 62
  256
370
   -1
100
AcDbPolyline
 90
    4
 70
    1
 43
0
 10
2850
 20
-7720
 10
2820
 20
-7720
 10
2820
 20
-7770
 10
2850
 20
-7770
  0
LWPOLYLINE
  5
2A9
100
AcDbEntity
  8
door
  6
ByLayer
 62
  256
370
   -1
100
AcDbPolyline
 90
    8
 70
    1
 43
0
 10
2820
 20
-7720
 10
2780
 20
-7720
 10
2780
 20
-7740
 10
2800
 20
-7740
 10
2800
 20
-7790
 10
2880
 20
-7790
 10
2880
 20
-7770
 10
2820
 20
-7770
  0
LWPOLYLINE
  5
2AA
100
AcDbEntity
  8
door
  6
ByLayer
 62
  256
370
   -1
100
AcDbPolyline
 90
    4
 70
    1
 43
0
 10
1880
 20
-7740
 10
2800
 20
-7740
 10
2800
 20
-7790
 10
1880
 20
-7790
  0
LINE
  5
2AB
100
AcDbEntity
  8
door
  6
ByLayer
 62
  256
370
   -1
100
AcDbLine
 10
2800
 20
-7790
 11
2800
 21
-8710
  0
ARC
  5
2AC
100
AcDbEntity
  8
door
  6
ByLayer
 62
  256
370
   -1
100
AcDbCircle
 10
2800
 20
-7790
 40
920
100
AcDbArc
 50
180
 51
270
  0
MTEXT
  5
2AD
100
AcDbEntity
  8
room-num
  6
ByLayer
 62
  256
370
   -1
100
AcDbMText
 10
2574.285714285714
 20
-5707.142857142857
 30
0
 40
90
 41
160
 71
    5
 72
    1
  1
801
  7
unicode
210
0
220
0
230
1
 50
0
 73
    2
 44
1
  0
MTEXT
  5
2AE
100
AcDbEntity
  8
room-num
  6
ByLayer
 62
  256
370
   -1
100
AcDbMText
 10
1894.285714285714
 20
-2525.714285714286
 30
0
 40
90
 41
180
 71
    5
 72
    1
  1
802
  7
unicode
210
0
220
0
230
1
 50
0
 73
    2
 44
1
  0
MTEXT
  5
2AF
100
AcDbEntity
  8
room-num
  6
ByLayer
 62
  256
370
   -1
100
AcDbMText
 10
607.1428571428571
 20
-6642.142857142857
 30
0
 40
90
 41
190
 71
    5
 72
    1
  1
804
  7
unicode
210
0
220
0
230
1
 50
0
 73
    2
 44
1
  0
MTEXT
  5
2B0
100
AcDbEntity
  8
room-num
  6
ByLayer
 62
  256
370
   -1
100
AcDbMText
 10
4917.857142857143
 20
-6350.714285714286
 30
0
 40
90
 41
180
 71
    5
 72
    1
  1
805
  7
unicode
210
0
220
0
230
1
 50
0
 73
    2
 44
1
  0
CIRCLE
  5
2B1
100
AcDbEntity
  8
room-num
  6
ByLayer
 62
  256
370
   -1
100
AcDbCircle
 10
2582.706752508117
 20
-5705.218056206482
 40
150
  0
CIRCLE
  5
2B2
100
AcDbEntity
  8
room-num
  6
ByLayer
 62
  256
370
   -1
100
AcDbCircle
 10
603.3730962620668
 20
-6643.019481395108
 40
150
  0
CIRCLE
  5
2B3
100
AcDbEntity
  8
room-num
  6
ByLayer
 62
  256
370
   -1
100
AcDbCircle
 10
1893.767629290986
 20
-2523.289286280572
 40
150
  0
CIRCLE
  5
2B4
100
AcDbEntity
  8
room-num
  6
ByLayer
 62
  256
370
   -1
100
AcDbCircle
 10
4918.960155140808
 20
-6346.602544353768
 40
150
  0
LINE
  5
2B5
100
AcDbEntity
  8
construction
  6
ByLayer
 62
  256
370
   -1
100
AcDbLine
 10
5615
 20
-200
 11
5615
 21
9.797174393178826e-15
  0
LINE
  5
2B6
100
AcDbEntity
  8
construction
  6
ByLayer
 62
  256
370
   -1
100
AcDbLine
 10
5745
 20
-4280
 11
5745
 21
-200
  0
LWPOLYLINE
  5
2B7
100
AcDbEntity
  8
wall
  6
ByLayer
 62
  256
370
   -1
100
AcDbPolyline
 90
    4
 70
    1
 43
0
 10
5795
 20
-3650
 10
5775
 20
-3650
 10
5775
 20
-4250
 10
5795
 20
-4250
  0
LWPOLYLINE
  5
2B8
100
AcDbEntity
  8
wall
  6
ByLayer
 62
  256
370
   -1
100
AcDbPolyline
 90
   40
 70
    1
 43
0
 10
6095
 20
-7770
 10
2850
 20
-7770
 10
2850
 20
-7570
 10
2885
 20
-7570
 10
2885
 20
-7220
 10
4005
 20
-7220
 10
4005
 20
-6690
 10
4105
 20
-6690
 10
4105
 20
-7420
 10
4030
 20
-7420
 10
4030
 20
-7570
 10
5795
 20
-7570
 10
5795
 20
-6490
 10
5705
 20
-6490
 10
5705
 20
-6085
 10
5795
 20
-6085
 10
5795
 20
-5180
 10
4105
 20
-5180
 10
4105
 20
-5940
 10
4005
 20
-5940
 10
4005
 20
-3580
 10
4105
 20
-3580
 10
4105
 20
-4180
 10
5050
 20
-4180
 10
5050
 20
-4280
 10
5795
 20
-4280
 10
5795
 20
-200
 10
5695
 20
-200
 10
5695
 20
0
 10
5315
 20
0
 10
5315
 20
300
 10
6095
 20
300
 10
6150
 20
190
 10
6080
 20
110
 10
6095
 20
0
 10
5995
 20
0
 10
5995
 20
-7570
 10
6095
 20
-7570
 10
6140
 20
-7650
 10
6080
 20
-7710
  0
LWPOLYLINE
  5
2B9
100
AcDbEntity
  8
plasterboard
  6
ByLayer
 62
  256
370
   -1
100
AcDbPolyline
 90
   11
 70
    1
 43
0
 10
20.00000000000001
 20
-5380
 10
1385
 20
-5380
 10
1385
 20
-6290
 10
1365
 20
-6290
 10
1365
 20
-5400
 10
0
 20
-5400
 10
0
 20
0
 10
1200
 20
0
 10
1200
 20
-20
 10
390
 20
-20
 10
20
 20
-20
  0
LWPOLYLINE
  5
2BA
100
AcDbEntity
  8
plasterboard
  6
ByLayer
 62
  256
370
   -1
100
AcDbPolyline
 90
   16
 70
    1
 43
0
 10
1245
 20
-7550
 10
19.99999999999954
 20
-7550
 10
20
 20
-5520
 10
780
 20
-5520
 10
780
 20
-6250
 10
1245
 20
-6250
 10
1245
 20
-6290
 10
1265
 20
-6290
 10
1265
 20
-6230
 10
800
 20
-6230
 10
800
 20
-5500
 10
-3.373901931650958e-13
 20
-5500
 10
-4.641411368768469e-13
 20
-7570
 10
1265
 20
-7570
 10
1265
 20
-7040
 10
1245
 20
-7040
  0
LWPOLYLINE
  5
2BB
100
AcDbEntity
  8
plasterboard
  6
ByLayer
 62
  256
370
   -1
100
AcDbPolyline
 90
    8
 70
    1
 43
0
 10
1845
 20
-7550
 10
1385
 20
-7550
 10
1385
 20
-7040
 10
1365
 20
-7040
 10
1365
 20
-7570
 10
1825
 20
-7570
 10
1825
 20
-7720
 10
1845
 20
-7720
  0
LWPOLYLINE
  5
2BC
100
AcDbEntity
  8
plasterboard
  6
ByLayer
 62
  256
370
   -1
100
AcDbPolyline
 90
   12
 70
    1
 43
0
 10
2865
 20
-7200
 10
3985
 20
-7200
 10
3985
 20
-6690
 10
4005
 20
-6690
 10
4005
 20
-7220
 10
2885
 20
-7220
 10
2885
 20
-7570
 10
2850
 20
-7570
 10
2850
 20
-7720
 10
2830
 20
-7720
 10
2830
 20
-7550
 10
2865
 20
-7550
  0
LWPOLYLINE
  5
2BD
100
AcDbEntity
  8
plasterboard
  6
ByBlock
 62
  256
370
   -1
100
AcDbPolyline
 90
   16
 70
    1
 43
0
 10
3985
 20
-3560
 10
4125
 20
-3560
 10
4125
 20
-4160
 10
5070
 20
-4160
 10
5070
 20
-4260
 10
5775
 20
-4260
 10
5775
 20
-4250
 10
5795
 20
-4250
 10
5795
 20
-4280
 10
5050
 20
-4280
 10
5050
 20
-4180
 10
4105
 20
-4180
 10
4105
 20
-3580
 10
4005
 20
-3580
 10
4005
 20
-5940
 10
3985
 20
-5940
  0
LWPOLYLINE
  5
2BE
100
AcDbEntity
  8
plasterboard
  6
ByBlock
 62
  256
370
   -1
100
AcDbPolyline
 90
   20
 70
    1
 43
0
 10
5675
 20
-220
 10
5775
 20
-220
 10
5775
 20
-3530
 10
5795
 20
-3530
 10
5795
 20
-200
 10
5695
 20
-200
 10
5695
 20
0
 10
2900
 20
0
 10
2900
 20
-200
 10
2505
 20
-200
 10
2505
 20
0
 10
2060
 20
0
 10
2060
 20
-20
 10
2485
 20
-20
 10
2485
 20
-220
 10
2920
 20
-220
 10
2920
 20
-20
 10
3640
 20
-20
 10
5315
 20
-20
 10
5675
 20
-20
  0
LWPOLYLINE
  5
2BF
100
AcDbEntity
  8
door
  6
ByLayer
 62
  256
370
   -1
100
AcDbPolyline
 90
   10
 70
    1
 43
0
 10
1245
 20
-7040
 10
1245
 20
-7100
 10
1235
 20
-7100
 10
1235
 20
-7005
 10
1325
 20
-7005
 10
1325
 20
-7015
 10
1395
 20
-7015
 10
1395
 20
-7100
 10
1385
 20
-7100
 10
1385
 20
-7040
  0
LWPOLYLINE
  5
2C0
100
AcDbEntity
  8
door
  6
ByLayer
 62
  256
370
   -1
100
AcDbPolyline
 90
    4
 70
    1
 43
0
 10
1365
 20
-6355
 10
1365
 20
-6315
 10
2065
 20
-6315
 10
2065
 20
-6355
  0
ARC
  5
2C1
100
AcDbEntity
  8
door
  6
ByLayer
 62
  256
370
   -1
100
AcDbCircle
 10
1365
 20
-6315
 40
700
100
AcDbArc
 50
270
 51
356.7295120768164
  0
LWPOLYLINE
  5
2C2
100
AcDbEntity
  8
door
  6
ByLayer
 62
  256
370
   -1
100
AcDbPolyline
 90
    4
 70
    1
 43
0
 10
1825
 20
-7720
 10
1860
 20
-7720
 10
1860
 20
-7770
 10
1825
 20
-7770
  0
LWPOLYLINE
  5
2C3
100
AcDbEntity
  8
door
  6
ByLayer
 62
  256
370
   -1
100
AcDbPolyline
 90
    8
 70
    1
 43
0
 10
1860
 20
-7720
 10
1900
 20
-7720
 10
1900
 20
-7740
 10
1880
 20
-7740
 10
1880
 20
-7790
 10
1800
 20
-7790
 10
1800
 20
-7770
 10
1860
 20
-7770
  0
LWPOLYLINE
  5
2C4
100
AcDbEntity
  8
door
  6
ByLayer
 62
  256
370
   -1
100
AcDbPolyline
 90
   10
 70
    1
 43
0
 10
1385
 20
-6290
 10
1245
 20
-6290
 10
1245
 20
-6250
 10
1235
 20
-6250
 10
1235
 20
-6325
 10
1325
 20
-6325
 10
1325
 20
-6315
 10
1395
 20
-6315
 10
1395
 20
-6230
 10
1385
 20
-6230
  0
LWPOLYLINE
  5
2C5
100
AcDbEntity
  8
door
  6
ByLayer
 62
  256
370
   -1
100
AcDbPolyline
 90
    4
 70
    1
 43
0
 10
4085
 20
-6625
 10
4085
 20
-6665
 10
4785
 20
-6665
 10
4785
 20
-6625
  0
ARC
  5
2C6
100
AcDbEntity
  8
door
  6
ByLayer
 62
  256
370
   -1
100
AcDbCircle
 10
4085
 20
-6665
 40
700
100
AcDbArc
 50
3.270487923183595
 51
90
  0
LWPOLYLINE
  5
2C7
100
AcDbEntity
  8
door
  6
ByLayer
 62
  256
370
   -1
100
AcDbPolyline
 90
   10
 70
    1
 43
0
 10
3985
 20
-5940
 10
3985
 20
-5880
 10
3975
 20
-5880
 10
3975
 20
-5975
 10
4045
 20
-5975
 10
4045
 20
-5965
 10
4115
 20
-5965
 10
4115
 20
-5880
 10
4105
 20
-5880
 10
4105
 20
-5940
  0
LWPOLYLINE
  5
2C8
100
AcDbEntity
  8
door
  6
ByLayer
 62
  256
370
   -1
100
AcDbPolyline
 90
   10
 70
    1
 43
0
 10
4105
 20
-6690
 10
3985
 20
-6690
 10
3985
 20
-6750
 10
3975
 20
-6750
 10
3975
 20
-6655
 10
4045
 20
-6655
 10
4045
 20
-6665
 10
4115
 20
-6665
 10
4115
 20
-6750
 10
4105
 20
-6750
  0
LWPOLYLINE
  5
2C9
100
AcDbEntity
  8
plasterboard
  6
ByLayer
 62
  256
370
   -1
100
AcDbPolyline
 90
    4
 70
    1
 43
0
 10
5705
 20
-6085
 10
5725
 20
-6085
 10
5725
 20
-5180
 10
5705
 20
-5180
  0
LWPOLYLINE
  5
2CA
100
AcDbEntity
  8
plasterboard
  6
ByLayer
 62
  256
370
   -1
100
AcDbPolyline
 90
    4
 70
    1
 43
0
 10
5775
 20
-3530
 10
5795
 20
-3530
 10
5795
 20
-3650
 10
5775
 20
-3650
  0
LWPOLYLINE
  5
2CB
100
AcDbEntity
  8
plasterboard
  6
ByLayer
 62
  256
370
   -1
100
AcDbPolyline
 90
    4
 70
    1
 43
0
 10
4105
 20
-7420
 10
4085
 20
-7420
 10
4085
 20
-7570
 10
4105
 20
-7570
  0
LINE
  5
2CC
100
AcDbEntity
  8
construction2
  6
ByLayer
 62
  256
370
   -1
100
AcDbLine
 10
20.00000000000022
 20
-1950
 11
1385
 21
-1950
  0
INSERT
  5
2CD
100
AcDbEntity
  8
outlet
  6
ByLayer
 62
  256
370
   -1
100
AcDbBlockReference
  2
my-outlet-V220
 10
500
 20
-1800
 30
0
 41
30
 42
30
 43
0
 50
0
 70
    1
 71
    1
 44
200
 45
200
  0
INSERT
  5
2CE
100
AcDbEntity
  8
outlet
  6
ByLayer
 62
  256
370
   -1
100
AcDbBlockReference
  2
my-outlet-V220
 10
650
 20
-1800
 30
0
 41
30
 42
30
 43
0
 50
0
 70
    1
 71
    1
 44
200
 45
200
  0
INSERT
  5
2CF
100
AcDbEntity
  8
outlet
  6
ByLayer
 62
  256
370
   -1
100
AcDbBlockReference
  2
my-outlet-TV
 10
800
 20
-1800
 30
0
 41
30
 42
30
 43
0
 50
0
 70
    1
 71
    1
 44
200
 45
200
  0
INSERT
  5
2D0
100
AcDbEntity
  8
outlet
  6
ByLayer
 62
  256
370
   -1
100
AcDbBlockReference
  2
my-outlet-IP
 10
950
 20
-1800
 30
0
 41
30
 42
30
 43
0
 50
0
 70
    1
 71
    1
 44
200
 45
200
  0
LEADER
  5
2D1
100
AcDbEntity
  8
outlet
  6
ByLayer
 62
  256
370
   -1
100
AcDbLeader
  3
Standard
 71
    1
 72
    0
 73
    3
 74
    0
 75
    0
 40
1
 41
10
 76
3
 76
3
 10
20.00000000000022
 20
-1950
 30
0
 10
470
 20
-1830
 30
0
 10
1130
 20
-1830
 30
0
  0
LINE
  5
2D2
100
AcDbEntity
  8
construction2
  6
ByLayer
 62
  256
370
   -1
100
AcDbLine
 10
2702.5
 20
-320
 11
2702.5
 21
-120
  0
LINE
  5
2D3
100
AcDbEntity
  8
construction2
  6
ByLayer
 62
  256
370
   -1
100
AcDbLine
 10
3985
 20
-3860
 11
4125
 21
-3860
  0
LINE
  5
2D4
100
AcDbEntity
  8
construction2
  6
ByLayer
 62
  256
370
   -1
100
AcDbLine
 10
4105
 20
-5640
 11
3985
 21
-5640
  0
INSERT
  5
2D5
100
AcDbEntity
  8
outlet
  6
ByLayer
 62
  256
370
   -1
100
AcDbBlockReference
  2
my-switch-2
 10
3400
 20
-5200
 30
0
 41
30
 42
30
 43
0
 50
0
 70
    1
 71
    1
 44
200
 45
200
  0
INSERT
  5
2D6
100
AcDbEntity
  8
outlet
  6
ByLayer
 62
  256
370
   -1
100
AcDbBlockReference
  2
my-outlet-V220
 10
3400
 20
-5350
 30
0
 41
30
 42
30
 43
0
 50
0
 70
    1
 71
    1
 44
200
 45
200
  0
LEADER
  5
2D7
100
AcDbEntity
  8
outlet
  6
ByLayer
 62
  256
370
   -1
100
AcDbLeader
  3
Standard
 71
    1
 72
    0
 73
    3
 74
    0
 75
    0
 40
1
 41
10
 76
3
 76
3
 10
3985
 20
-5640
 30
0
 10
3580
 20
-5380
 30
0
 10
3370
 20
-5380
 30
0
  0
LINE
  5
2D8
100
AcDbEntity
  8
construction2
  6
ByLayer
 62
  256
370
   -1
100
AcDbLine
 10
2865
 20
-7350
 11
3985
 21
-7350
  0
LINE
  5
2D9
100
AcDbEntity
  8
construction2
  6
ByLayer
 62
  256
370
   -1
100
AcDbLine
 10
5605
 20
-6287.5
 11
5805
 21
-6287.5
  0
INSERT
  5
2DA
100
AcDbEntity
  8
outlet
  6
ByLayer
 62
  256
370
   -1
100
AcDbBlockReference
  2
my-free-wire
 10
5200
 20
-6000
 30
0
 41
30
 42
30
 43
0
 50
0
 70
    1
 71
    1
 44
200
 45
200
  0
LEADER
  5
2DB
100
AcDbEntity
  8
outlet
  6
ByLayer
 62
  256
370
   -1
100
AcDbLeader
  3
Standard
 71
    1
 72
    0
 73
    3
 74
    0
 75
    0
 40
1
 41
10
 76
3
 76
3
 10
5705
 20
-6287.5
 30
0
 10
5380
 20
-6030
 30
0
 10
5170
 20
-6030
 30
0
  0
LINE
  5
2DC
100
AcDbEntity
  8
construction2
  6
ByLayer
 62
  256
370
   -1
100
AcDbLine
 10
4030
 20
-7470
 11
5795
 21
-7470
  0
INSERT
  5
2DD
100
AcDbEntity
  8
outlet
  6
ByLayer
 62
  256
370
   -1
100
AcDbBlockReference
  2
my-outlet-V220
 10
4500
 20
-7200
 30
0
 41
30
 42
30
 43
0
 50
0
 70
    1
 71
    1
 44
200
 45
200
  0
LEADER
  5
2DE
100
AcDbEntity
  8
outlet
  6
ByLayer
 62
  256
370
   -1
100
AcDbLeader
  3
Standard
 71
    1
 72
    0
 73
    3
 74
    0
 75
    0
 40
1
 41
10
 76
3
 76
3
 10
4105
 20
-7470
 30
0
 10
4470
 20
-7230
 30
0
 10
4680
 20
-7230
 30
0
  0
LINE
  5
2DF
100
AcDbEntity
  8
construction2
  6
ByLayer
 62
  256
370
   -1
100
AcDbLine
 10
1615
 20
-7550
 11
1615
 21
-7040
  0
INSERT
  5
2E0
100
AcDbEntity
  8
outlet
  6
ByLayer
 62
  256
370
   -1
100
AcDbBlockReference
  2
my-switch-1
 10
1800
 20
-7100
 30
0
 41
30
 42
30
 43
0
 50
0
 70
    1
 71
    1
 44
200
 45
200
  0
INSERT
  5
2E1
100
AcDbEntity
  8
outlet
  6
ByLayer
 62
  256
370
   -1
100
AcDbBlockReference
  2
my-switch-1
 10
1950
 20
-7100
 30
0
 41
30
 42
30
 43
0
 50
0
 70
    1
 71
    1
 44
200
 45
200
  0
LEADER
  5
2E2
100
AcDbEntity
  8
outlet
  6
ByLayer
 62
  256
370
   -1
100
AcDbLeader
  3
Standard
 71
    1
 72
    0
 73
    3
 74
    0
 75
    0
 40
1
 41
10
 76
3
 76
3
 10
1615
 20
-7550
 30
0
 10
1770
 20
-7130
 30
0
 10
2130
 20
-7130
 30
0
  0
INSERT
  5
2E3
100
AcDbEntity
  8
outlet
  6
ByLayer
 62
  256
370
   -1
100
AcDbBlockReference
  2
my-switch-1
 10
1710
 20
-6520
 30
0
 41
30
 42
30
 43
0
 50
0
 70
    1
 71
    1
 44
200
 45
200
  0
INSERT
  5
2E4
100
AcDbEntity
  8
outlet
  6
ByLayer
 62
  256
370
   -1
100
AcDbBlockReference
  2
my-outlet-V220
 10
1710
 20
-6670
 30
0
 41
30
 42
30
 43
0
 50
0
 70
    1
 71
    1
 44
200
 45
200
  0
LINE
  5
2E5
100
AcDbEntity
  8
construction2
  6
ByLayer
 62
  256
370
   -1
100
AcDbLine
 10
1385
 20
-7200
 11
1245
 21
-7200
  0
LEADER
  5
2E6
100
AcDbEntity
  8
outlet
  6
ByLayer
 62
  256
370
   -1
100
AcDbLeader
  3
Standard
 71
    1
 72
    0
 73
    3
 74
    0
 75
    0
 40
1
 41
10
 76
3
 76
3
 10
1385
 20
-7200
 30
0
 10
1680
 20
-6700
 30
0
 10
1890
 20
-6700
 30
0
  0
LINE
  5
2E7
100
AcDbEntity
  8
construction2
  6
ByLayer
 62
  256
370
   -1
100
AcDbLine
 10
19.99999999999998
 20
-5530
 11
1385
 21
-5530
  0
LINE
  5
2E8
100
AcDbEntity
  8
construction2
  6
ByLayer
 62
  256
370
   -1
100
AcDbLine
 10
5675
 20
-860
 11
5775
 21
-860
  0
LINE
  5
2E9
100
AcDbEntity
  8
construction2
  6
ByLayer
 62
  256
370
   -1
100
AcDbLine
 10
5675
 20
-1210
 11
5775
 21
-1210
  0
LINE
  5
2EA
100
AcDbEntity
  8
construction2
  6
ByLayer
 62
  256
370
   -1
100
AcDbLine
 10
5675
 20
-1986
 11
5775
 21
-1986
  0
LINE
  5
2EB
100
AcDbEntity
  8
construction2
  6
ByLayer
 62
  256
370
   -1
100
AcDbLine
 10
5674.999999999999
 20
-2851
 11
5774.999999999999
 21
-2851
  0
INSERT
  5
2EC
100
AcDbEntity
  8
outlet
  6
ByLayer
 62
  256
370
   -1
100
AcDbBlockReference
  2
my-switch-1
 10
4700
 20
-600
 30
0
 41
30
 42
30
 43
0
 50
0
 70
    1
 71
    1
 44
200
 45
200
  0
INSERT
  5
2ED
100
AcDbEntity
  8
outlet
  6
ByLayer
 62
  256
370
   -1
100
AcDbBlockReference
  2
my-outlet-V220
 10
4850
 20
-600
 30
0
 41
30
 42
30
 43
0
 50
0
 70
    1
 71
    1
 44
200
 45
200
  0
INSERT
  5
2EE
100
AcDbEntity
  8
outlet
  6
ByLayer
 62
  256
370
   -1
100
AcDbBlockReference
  2
my-outlet-V220
 10
5000
 20
-600
 30
0
 41
30
 42
30
 43
0
 50
0
 70
    1
 71
    1
 44
200
 45
200
  0
LEADER
  5
2EF
100
AcDbEntity
  8
outlet
  6
ByLayer
 62
  256
370
   -1
100
AcDbLeader
  3
Standard
 71
    1
 72
    0
 73
    3
 74
    0
 75
    0
 40
1
 41
10
 76
3
 76
3
 10
5775
 20
-860
 30
0
 10
5180
 20
-630
 30
0
 10
4670
 20
-630
 30
0
  0
INSERT
  5
2F0
100
AcDbEntity
  8
outlet
  6
ByLayer
 62
  256
370
   -1
100
AcDbBlockReference
  2
my-free-wire
 10
5200
 20
-300
 30
0
 41
30
 42
30
 43
0
 50
0
 70
    1
 71
    1
 44
200
 45
200
  0
LEADER
  5
2F1
100
AcDbEntity
  8
outlet
  6
ByLayer
 62
  256
370
   -1
100
AcDbLeader
  3
Standard
 71
    1
 72
    0
 73
    3
 74
    0
 75
    0
 40
1
 41
10
 76
3
 76
3
 10
5770
 20
-730
 30
0
 10
5380
 20
-330
 30
0
 10
5170
 20
-330
 30
0
  0
INSERT
  5
2F2
100
AcDbEntity
  8
outlet
  6
ByLayer
 62
  256
370
   -1
100
AcDbBlockReference
  2
my-outlet-V220
 10
4700
 20
-1100
 30
0
 41
30
 42
30
 43
0
 50
0
 70
    1
 71
    1
 44
200
 45
200
  0
INSERT
  5
2F3
100
AcDbEntity
  8
outlet
  6
ByLayer
 62
  256
370
   -1
100
AcDbBlockReference
  2
my-outlet-V220
 10
4850
 20
-1100
 30
0
 41
30
 42
30
 43
0
 50
0
 70
    1
 71
    1
 44
200
 45
200
  0
INSERT
  5
2F4
100
AcDbEntity
  8
outlet
  6
ByLayer
 62
  256
370
   -1
100
AcDbBlockReference
  2
my-outlet-V220
 10
5000
 20
-1100
 30
0
 41
30
 42
30
 43
0
 50
0
 70
    1
 71
    1
 44
200
 45
200
  0
LEADER
  5
2F5
100
AcDbEntity
  8
outlet
  6
ByLayer
 62
  256
370
   -1
100
AcDbLeader
  3
Standard
 71
    1
 72
    0
 73
    3
 74
    0
 75
    0
 40
1
 41
10
 76
3
 76
3
 10
5775
 20
-1210
 30
0
 10
5180
 20
-1130
 30
0
 10
4670
 20
-1130
 30
0
  0
INSERT
  5
2F6
100
AcDbEntity
  8
outlet
  6
ByLayer
 62
  256
370
   -1
100
AcDbBlockReference
  2
my-free-wire
 10
5100
 20
-2500
 30
0
 41
30
 42
30
 43
0
 50
0
 70
    1
 71
    1
 44
200
 45
200
  0
LEADER
  5
2F7
100
AcDbEntity
  8
outlet
  6
ByLayer
 62
  256
370
   -1
100
AcDbLeader
  3
Standard
 71
    1
 72
    0
 73
    3
 74
    0
 75
    0
 40
1
 41
10
 76
3
 76
3
 10
5774.999999999999
 20
-2851
 30
0
 10
5280
 20
-2530
 30
0
 10
5070
 20
-2530
 30
0
  0
LINE
  5
2F8
100
AcDbEntity
  8
construction2
  6
ByLayer
 62
  256
370
   -1
100
AcDbLine
 10
4940
 20
-4160
 11
4940
 21
-4260
  0
LINE
  5
2F9
100
AcDbEntity
  8
construction2
  6
ByLayer
 62
  256
370
   -1
100
AcDbLine
 10
4255
 20
-3560
 11
4255
 21
-4160
  0
DIMENSION
  5
2FA
100
AcDbEntity
  8
dimension
  6
ByLayer
 62
  256
370
   -1
100
AcDbDimension
  2
*D11
 10
5500
 20
-220
 30
0
 11
5423.75
 21
-540
 31
0
 70
   32
 71
    5
  3
Standard
 53
0
210
0
220
0
230
1
100
AcDbAlignedDimension
 13
5775
 23
-860
 33
0
 14
5775
 24
-220
 34
0
 50
90
100
AcDbRotatedDimension
  0
DIMENSION
  5
2FB
100
AcDbEntity
  8
dimension
  6
ByLayer
 62
  256
370
   -1
100
AcDbDimension
  2
*D12
 10
5500
 20
-1210
 30
0
 11
5423.75
 21
-1035
 31
0
 70
   32
 71
    5
  3
Standard
 53
0
210
0
220
0
230
1
100
AcDbAlignedDimension
 13
5775
 23
-860
 33
0
 14
5775
 24
-1210
 34
0
 50
90
100
AcDbRotatedDimension
  0
DIMENSION
  5
2FC
100
AcDbEntity
  8
dimension
  6
ByLayer
 62
  256
370
   -1
100
AcDbDimension
  2
*D13
 10
5500
 20
-1986
 30
0
 11
5423.75
 21
-1598
 31
0
 70
   32
 71
    5
  3
Standard
 53
0
210
0
220
0
230
1
100
AcDbAlignedDimension
 13
5775
 23
-1210
 33
0
 14
5775
 24
-1986
 34
0
 50
90
100
AcDbRotatedDimension
  0
DIMENSION
  5
2FD
100
AcDbEntity
  8
dimension
  6
ByLayer
 62
  256
370
   -1
100
AcDbDimension
  2
*D14
 10
5499.999999999999
 20
-2851
 30
0
 11
5423.749999999999
 21
-2418.5
 31
0
 70
   32
 71
    5
  3
Standard
 53
0
210
0
220
0
230
1
100
AcDbAlignedDimension
 13
5775
 23
-1986
 33
0
 14
5774.999999999999
 24
-2851
 34
0
 50
90
100
AcDbRotatedDimension
  0
DIMENSION
  5
2FE
100
AcDbEntity
  8
dimension
  6
ByLayer
 62
  256
370
   -1
100
AcDbDimension
  2
*D15
 10
5499.999999999999
 20
-4260
 30
0
 11
5423.749999999999
 21
-3555.5
 31
0
 70
   32
 71
    5
  3
Standard
 53
0
210
0
220
0
230
1
100
AcDbAlignedDimension
 13
5774.999999999999
 23
-2851
 33
0
 14
5775
 24
-4260
 34
0
 50
90
100
AcDbRotatedDimension
  0
INSERT
  5
2FF
100
AcDbEntity
  8
outlet
  6
ByLayer
 62
  256
370
   -1
100
AcDbBlockReference
  2
my-outlet-V220
 10
5000
 20
-3700
 30
0
 41
30
 42
30
 43
0
 50
0
 70
    1
 71
    1
 44
200
 45
200
  0
INSERT
  5
300
100
AcDbEntity
  8
outlet
  6
ByLayer
 62
  256
370
   -1
100
AcDbBlockReference
  2
my-outlet-V220
 10
5150
 20
-3700
 30
0
 41
30
 42
30
 43
0
 50
0
 70
    1
 71
    1
 44
200
 45
200
  0
LEADER
  5
301
100
AcDbEntity
  8
outlet
  6
ByLayer
 62
  256
370
   -1
100
AcDbLeader
  3
Standard
 71
    1
 72
    0
 73
    3
 74
    0
 75
    0
 40
1
 41
10
 76
3
 76
3
 10
4940
 20
-4160
 30
0
 10
4970
 20
-3730
 30
0
 10
5330
 20
-3730
 30
0
  0
DIMENSION
  5
302
100
AcDbEntity
  8
dimension
  6
ByLayer
 62
  256
370
   -1
100
AcDbDimension
  2
*D17
 10
3700
 20
-3860
 30
0
 11
3623.75
 21
-3710
 31
0
 70
   32
 71
    5
  3
Standard
 53
0
210
0
220
0
230
1
100
AcDbAlignedDimension
 13
3985
 23
-3560
 33
0
 14
3985
 24
-3860
 34
0
 50
90
100
AcDbRotatedDimension
  0
DIMENSION
  5
303
100
AcDbEntity
  8
dimension
  6
ByLayer
 62
  256
370
   -1
100
AcDbDimension
  2
*D18
 10
3700
 20
-5640
 30
0
 11
3623.75
 21
-5790
 31
0
 70
   32
 71
    5
  3
Standard
 53
0
210
0
220
0
230
1
100
AcDbAlignedDimension
 13
3985
 23
-5940
 33
0
 14
3985
 24
-5640
 34
0
 50
90
100
AcDbRotatedDimension
  0
DIMENSION
  5
304
100
AcDbEntity
  8
dimension
  6
ByLayer
 62
  256
370
   -1
100
AcDbDimension
  2
*D19
 10
1700
 20
-5380
 30
0
 11
1623.75
 21
-5455
 31
0
 70
   32
 71
    5
  3
Standard
 53
0
210
0
220
0
230
1
100
AcDbAlignedDimension
 13
1385
 23
-5530
 33
0
 14
1385
 24
-5380
 34
0
 50
90
100
AcDbRotatedDimension
  0
DIMENSION
  5
305
100
AcDbEntity
  8
dimension
  6
ByLayer
 62
  256
370
   -1
100
AcDbDimension
  2
*D20
 10
2702.5
 20
-7200
 30
0
 11
2626.25
 21
-7275
 31
0
 70
   32
 71
    5
  3
Standard
 53
0
210
0
220
0
230
1
100
AcDbAlignedDimension
 13
2865
 23
-7350
 33
0
 14
2865
 24
-7200
 34
0
 50
90
100
AcDbRotatedDimension
  0
DIMENSION
  5
306
100
AcDbEntity
  8
dimension
  6
ByLayer
 62
  256
370
   -1
100
AcDbDimension
  2
*D21
 10
300
 20
-1950
 30
0
 11
223.75
 21
-985
 31
0
 70
   32
 71
    5
  3
Standard
 53
0
210
0
220
0
230
1
100
AcDbAlignedDimension
 13
20
 23
-20
 33
0
 14
20.00000000000022
 24
-1950
 34
0
 50
90
100
AcDbRotatedDimension
  0
DIMENSION
  5
307
100
AcDbEntity
  8
dimension
  6
ByLayer
 62
  256
370
   -1
100
AcDbDimension
  2
*D22
 10
300
 20
-5380
 30
0
 11
223.75
 21
-3665
 31
0
 70
   32
 71
    5
  3
Standard
 53
0
210
0
220
0
230
1
100
AcDbAlignedDimension
 13
20.00000000000022
 23
-1950
 33
0
 14
20.00000000000001
 24
-5380
 34
0
 50
90
100
AcDbRotatedDimension
  0
DIMENSION
  5
308
100
AcDbEntity
  8
dimension
  6
ByLayer
 62
  256
370
   -1
100
AcDbDimension
  2
*D23
 10
2920.000000000001
 20
-500
 30
0
 11
2811.25
 21
-423.75
 31
0
 70
   32
 71
    5
  3
Standard
 53
0
210
0
220
0
230
1
100
AcDbAlignedDimension
 13
2702.5
 23
-220
 33
0
 14
2920.000000000001
 24
-220
 34
0
100
AcDbRotatedDimension
  0
DIMENSION
  5
309
100
AcDbEntity
  8
dimension
  6
ByLayer
 62
  256
370
   -1
100
AcDbDimension
  2
*D24
 10
2485
 20
-500
 30
0
 11
2593.75
 21
-423.75
 31
0
 70
   32
 71
    5
  3
Standard
 53
0
210
0
220
0
230
1
100
AcDbAlignedDimension
 13
2702.5
 23
-220
 33
0
 14
2485
 24
-220
 34
0
100
AcDbRotatedDimension
  0
DIMENSION
  5
30A
100
AcDbEntity
  8
dimension
  6
ByLayer
 62
  256
370
   -1
100
AcDbDimension
  2
*D25
 10
4255
 20
-3860
 30
0
 11
4190
 21
-3783.75
 31
0
 70
   32
 71
    5
  3
Standard
 53
0
210
0
220
0
230
1
100
AcDbAlignedDimension
 13
4125
 23
-4160
 33
0
 14
4255
 24
-4160
 34
0
100
AcDbRotatedDimension
  0
DIMENSION
  5
30B
100
AcDbEntity
  8
dimension
  6
ByLayer
 62
  256
370
   -1
100
AcDbDimension
  2
*D26
 10
5070
 20
-4000
 30
0
 11
5005
 21
-3923.75
 31
0
 70
   32
 71
    5
  3
Standard
 53
0
210
0
220
0
230
1
100
AcDbAlignedDimension
 13
4940
 23
-4160
 33
0
 14
5070
 24
-4160
 34
0
100
AcDbRotatedDimension
  0
DIMENSION
  5
30C
100
AcDbEntity
  8
dimension
  6
ByLayer
 62
  256
370
   -1
100
AcDbDimension
  2
*D27
 10
4400
 20
-7570
 30
0
 11
4323.75
 21
-7520
 31
0
 70
   32
 71
    5
  3
Standard
 53
0
210
0
220
0
230
1
100
AcDbAlignedDimension
 13
4105
 23
-7470
 33
0
 14
4105
 24
-7570
 34
0
 50
90
100
AcDbRotatedDimension
  0
INSERT
  5
30D
100
AcDbEntity
  8
outlet
  6
ByLayer
 62
  256
370
   -1
100
AcDbBlockReference
  2
my-outlet-V220
 10
5100
 20
-1700
 30
0
 41
30
 42
30
 43
0
 50
0
 70
    1
 71
    1
 44
200
 45
200
  0
INSERT
  5
30E
100
AcDbEntity
  8
outlet
  6
ByLayer
 62
  256
370
   -1
100
AcDbBlockReference
  2
my-outlet-V220
 10
4950
 20
-1700
 30
0
 41
30
 42
30
 43
0
 50
0
 70
    1
 71
    1
 44
200
 45
200
  0
INSERT
  5
30F
100
AcDbEntity
  8
outlet
  6
ByLayer
 62
  256
370
   -1
100
AcDbBlockReference
  2
my-outlet-V220
 10
4800
 20
-1700
 30
0
 41
30
 42
30
 43
0
 50
0
 70
    1
 71
    1
 44
200
 45
200
  0
LEADER
  5
310
100
AcDbEntity
  8
outlet
  6
ByLayer
 62
  256
370
   -1
100
AcDbLeader
  3
Standard
 71
    1
 72
    0
 73
    3
 74
    0
 75
    0
 40
1
 41
10
 76
3
 76
3
 10
5775
 20
-1986
 30
0
 10
5280
 20
-1730
 30
0
 10
4770
 20
-1730
 30
0
  0
INSERT
  5
311
100
AcDbEntity
  8
outlet
  6
ByLayer
 62
  256
370
   -1
100
AcDbBlockReference
  2
my-switch-2
 10
3000
 20
-4400
 30
0
 41
30
 42
30
 43
0
 50
0
 70
    1
 71
    1
 44
200
 45
200
  0
INSERT
  5
312
100
AcDbEntity
  8
outlet
  6
ByLayer
 62
  256
370
   -1
100
AcDbBlockReference
  2
my-switch-2
 10
3150
 20
-4400
 30
0
 41
30
 42
30
 43
0
 50
0
 70
    1
 71
    1
 44
200
 45
200
  0
INSERT
  5
313
100
AcDbEntity
  8
outlet
  6
ByLayer
 62
  256
370
   -1
100
AcDbBlockReference
  2
my-switch-2
 10
3300
 20
-4400
 30
0
 41
30
 42
30
 43
0
 50
0
 70
    1
 71
    1
 44
200
 45
200
  0
LEADER
  5
314
100
AcDbEntity
  8
outlet
  6
ByLayer
 62
  256
370
   -1
100
AcDbLeader
  3
Standard
 71
    1
 72
    0
 73
    3
 74
    0
 75
    0
 40
1
 41
10
 76
3
 76
3
 10
3985
 20
-3860
 30
0
 10
3480
 20
-4430
 30
0
 10
2970
 20
-4430
 30
0
  0
INSERT
  5
315
100
AcDbEntity
  8
outlet
  6
ByLayer
 62
  256
370
   -1
100
AcDbBlockReference
  2
my-switch-1
 10
2300
 20
-7500
 30
0
 41
30
 42
30
 43
0
 50
0
 70
    1
 71
    1
 44
200
 45
200
  0
LEADER
  5
316
100
AcDbEntity
  8
outlet
  6
ByLayer
 62
  256
370
   -1
100
AcDbLeader
  3
Standard
 71
    1
 72
    0
 73
    3
 74
    0
 75
    0
 40
1
 41
10
 76
3
 76
3
 10
2865
 20
-7350
 30
0
 10
2480
 20
-7530
 30
0
 10
2280
 20
-7530
 30
0
  0
DIMENSION
  5
317
100
AcDbEntity
  8
dimension
  6
ByLayer
 62
  256
370
   -1
100
AcDbDimension
  2
*D31
 10
1845
 20
-7400
 30
0
 11
1730
 21
-7323.75
 31
0
 70
   32
 71
    5
  3
Standard
 53
0
210
0
220
0
230
1
100
AcDbAlignedDimension
 13
1615
 23
-7550
 33
0
 14
1845
 24
-7550
 34
0
100
AcDbRotatedDimension
  0
INSERT
  5
318
100
AcDbEntity
  8
outlet
  6
ByLayer
 62
  256
370
   -1
100
AcDbBlockReference
  2
my-switch-2-pass
 10
1900
 20
-5900
 30
0
 41
30
 42
30
 43
0
 50
0
 70
    1
 71
    1
 44
200
 45
200
  0
LEADER
  5
319
100
AcDbEntity
  8
outlet
  6
ByLayer
 62
  256
370
   -1
100
AcDbLeader
  3
Standard
 71
    1
 72
    0
 73
    3
 74
    0
 75
    0
 40
1
 41
10
 76
3
 76
3
 10
1385
 20
-5530
 30
0
 10
1870
 20
-5930
 30
0
 10
2080
 20
-5930
 30
0
  0
MTEXT
  5
31A
100
AcDbEntity
  8
outlet
  6
ByLayer
 62
  256
370
   -1
100
AcDbMText
 10
6700
 20
-300
 30
0
 40
90
 41
1215
 71
    5
 72
    1
  1
\P \P  
  7
unicode
210
0
220
0
230
1
 50
0
 73
    2
 44
1
  0
MTEXT
  5
31B
100
AcDbEntity
  8
outlet
  6
ByLayer
 62
  256
370
   -1
100
AcDbMText
 10
6700
 20
-2400
 30
0
 40
90
 41
1215
 71
    5
 72
    1
  1
\P \P  
  7
unicode
210
0
220
0
230
1
 50
0
 73
    2
 44
1
  0
MTEXT
  5
31C
100
AcDbEntity
  8
outlet
  6
ByLayer
 62
  256
370
   -1
100
AcDbMText
 10
4800
 20
-5500
 30
0
 40
90
 41
1215
 71
    5
 72
    1
  1
\P \P  
  7
unicode
210
0
220
0
230
1
 50
0
 73
    2
 44
1
  0
LWPOLYLINE
  5
31D
100
AcDbEntity
  8
outlet
  6
ByLayer
 62
  256
370
   -1
100
AcDbPolyline
 90
    3
 70
    0
 43
0
 10
5770
 20
-730
 10
6070
 20
-550
 10
7340
 20
-550
  0
LWPOLYLINE
  5
31E
100
AcDbEntity
  8
outlet
  6
ByLayer
 62
  256
370
   -1
100
AcDbPolyline
 90
    3
 70
    0
 43
0
 10
5774.999999999999
 20
-2851
 10
6070
 20
-2650
 10
7340
 20
-2650
  0
LWPOLYLINE
  5
31F
100
AcDbEntity
  8
outlet
  6
ByLayer
 62
  256
370
   -1
100
AcDbPolyline
 90
    3
 70
    0
 43
0
 10
5705
 20
-6287.5
 10
5440
 20
-5750
 10
4160
 20
-5750
  0
DIMENSION
  5
320
100
AcDbEntity
  8
dimension
  6
ByLayer
 62
  256
370
   -1
100
AcDbDimension
  2
*D33
 10
1510
 20
-7040
 30
0
 11
1440
 21
-7090
 31
0
 70
   32
 71
    5
  3
Standard
 53
0
210
0
220
0
230
1
100
AcDbAlignedDimension
 13
1385
 23
-7200
 33
0
 14
1385
 24
-7040
 34
0
 50
90
100
AcDbRotatedDimension
  0
INSERT
  5
321
100
AcDbEntity
  8
outlet
  6
ByLayer
 62
  256
370
   -1
100
AcDbBlockReference
  2
my-outlet-V220
 10
4600
 20
-3760
 30
0
 41
30
 42
30
 43
0
 50
0
 70
    1
 71
    1
 44
200
 45
200
  0
LEADER
  5
322
100
AcDbEntity
  8
dimension
  6
ByLayer
 62
  256
370
   -1
100
AcDbLeader
  3
Standard
 71
    1
 72
    0
 73
    3
 74
    0
 75
    0
 40
1
 41
10
 76
3
 76
3
 10
4255
 20
-4160
 30
0
 10
4570
 20
-3790
 30
0
 10
4780
 20
-3790
 30
0
  0
INSERT
  5
323
100
AcDbEntity
  8
outlet
  6
ByLayer
 62
  256
370
   -1
100
AcDbBlockReference
  2
my-outlet-V220
 10
2350
 20
-840
 30
0
 41
30
 42
30
 43
0
 50
0
 70
    1
 71
    1
 44
200
 45
200
  0
INSERT
  5
324
100
AcDbEntity
  8
outlet
  6
ByLayer
 62
  256
370
   -1
100
AcDbBlockReference
  2
my-outlet-V220
 10
2500
 20
-840
 30
0
 41
30
 42
30
 43
0
 50
0
 70
    1
 71
    1
 44
200
 45
200
  0
LEADER
  5
325
100
AcDbEntity
  8
dimension
  6
ByLayer
 62
  256
370
   -1
100
AcDbLeader
  3
Standard
 71
    1
 72
    0
 73
    3
 74
    0
 75
    0
 40
1
 41
10
 76
3
 76
3
 10
2702.5
 20
-220
 30
0
 10
2680
 20
-870
 30
0
 10
2320
 20
-870
 30
0
  0
MTEXT
  5
326
100
AcDbEntity
  8
room-num
  6
ByLayer
 62
  256
370
   -1
100
AcDbMText
 10
4300
 20
-2400
 30
0
 40
90
 41
180
 71
    5
 72
    1
  1
803
  7
unicode
210
0
220
0
230
1
 50
0
 73
    2
 44
1
  0
CIRCLE
  5
327
100
AcDbEntity
  8
room-num
  6
ByLayer
 62
  256
370
   -1
100
AcDbCircle
 10
4298.459836480495
 20
-2398.15331646921
 40
150
  0
INSERT
  5
328
100
AcDbEntity
  8
outlet
  6
ByLayer
 62
  256
370
   -1
100
AcDbBlockReference
  2
my-free-wire
 10
5600
 20
-3700
 30
0
 41
30
 42
30
 43
0
 50
0
 70
    1
 71
    1
 44
200
 45
200
  0
LEADER
  5
329
100
AcDbEntity
  8
outlet
  6
ByLayer
 62
  256
370
   -1
100
AcDbLeader
  3
Standard
 71
    1
 72
    0
 73
    3
 74
    0
 75
    0
 40
1
 41
10
 76
3
 76
3
 10
5300
 20
-4260
 30
0
 10
5570
 20
-3730
 30
0
 10
5760
 20
-3730
 30
0
  0
MTEXT
  5
32A
100
AcDbEntity
  8
outlet
  6
ByLayer
 62
  256
370
   -1
100
AcDbMText
 10
6700
 20
-3500
 30
0
 40
90
 41
1215
 71
    5
 72
    1
  1
\P \P  
  7
unicode
210
0
220
0
230
1
 50
0
 73
    2
 44
1
  0
LWPOLYLINE
  5
32B
100
AcDbEntity
  8
outlet
  6
ByLayer
 62
  256
370
   -1
100
AcDbPolyline
 90
    3
 70
    0
 43
0
 10
5300
 20
-4260
 10
6060
 20
-3760
 10
7340
 20
-3760
  0
INSERT
  5
32C
100
AcDbEntity
  8
0
  6
ByLayer
 62
  256
370
   -1
100
AcDbBlockReference
  2
explication-1-800-2
 10
9500
 20
2000
 30
0
 41
50
 42
50
 43
0
 50
0
 70
    1
 71
    1
 44
0
 45
0
  0
INSERT
  5
32D
100
AcDbEntity
  8
0
  6
ByLayer
 62
  256
370
   -1
100
AcDbBlockReference
  2
legend-with-area-2
 10
9500
 20
-2750
 30
0
 41
1
 42
1
 43
0
 50
0
 70
    1
 71
    1
 44
0
 45
0
  0
LINE
  5
32E
100
AcDbEntity
  8
04-legend-construction
  6
ByLayer
 62
  256
370
   -1
100
AcDbLine
 10
9500
 20
-6500
 11
14250
 21
-6500
  0
INSERT
  5
32F
100
AcDbEntity
  8
outlet
  6
ByLayer
 62
  256
370
   -1
100
AcDbBlockReference
  2
my-free-wire
 10
9925
 20
-4175
 30
0
 41
30
 42
30
 43
0
 50
0
 70
    1
 71
    1
 44
200
 45
200
  0
INSERT
  5
330
100
AcDbEntity
  8
outlet
  6
ByLayer
 62
  256
370
   -1
100
AcDbBlockReference
  2
my-switch-1
 10
9925
 20
-4575
 30
0
 41
30
 42
30
 43
0
 50
0
 70
    1
 71
    1
 44
200
 45
200
  0
INSERT
  5
331
100
AcDbEntity
  8
outlet
  6
ByLayer
 62
  256
370
   -1
100
AcDbBlockReference
  2
my-switch-2
 10
9925
 20
-4975
 30
0
 41
30
 42
30
 43
0
 50
0
 70
    1
 71
    1
 44
200
 45
200
  0
INSERT
  5
332
100
AcDbEntity
  8
outlet
  6
ByLayer
 62
  256
370
   -1
100
AcDbBlockReference
  2
my-switch-2-pass
 10
9925
 20
-5375
 30
0
 41
30
 42
30
 43
0
 50
0
 70
    1
 71
    1
 44
200
 45
200
  0
INSERT
  5
333
100
AcDbEntity
  8
outlet
  6
ByLayer
 62
  256
370
   -1
100
AcDbBlockReference
  2
my-outlet-V220
 10
9925
 20
-5775
 30
0
 41
30
 42
30
 43
0
 50
0
 70
    1
 71
    1
 44
200
 45
200
  0
INSERT
  5
334
100
AcDbEntity
  8
outlet
  6
ByLayer
 62
  256
370
   -1
100
AcDbBlockReference
  2
my-outlet-TV
 10
9925
 20
-6175
 30
0
 41
30
 42
30
 43
0
 50
0
 70
    1
 71
    1
 44
200
 45
200
  0
INSERT
  5
335
100
AcDbEntity
  8
outlet
  6
ByLayer
 62
  256
370
   -1
100
AcDbBlockReference
  2
my-outlet-IP
 10
9925
 20
-6575
 30
0
 41
30
 42
30
 43
0
 50
0
 70
    1
 71
    1
 44
200
 45
200
  0
INSERT
  5
336
100
AcDbEntity
  8
10-notice-text
  6
ByLayer
 62
  256
370
   -1
100
AcDbBlockReference
  2
template-notice-1
 10
-4000
 20
-10000
 30
0
 41
2
 42
2
 43
0
 50
0
 70
    1
 71
    1
 44
0
 45
0
  0
INSERT
  5
337
100
AcDbEntity
  8
0
  6
ByLayer
 62
  256
370
   -1
100
AcDbBlockReference
  2
sheet-A3-border
 10
-6000
 20
3000
 30
0
 41
50
 42
50
 43
0
 50
0
 70
    1
 71
    1
 44
0
 45
0
  0
ENDSEC
  0
SECTION
  2
OBJECTS
  0
DICTIONARY
  5
C
330
0
100
AcDbDictionary
281
    1
  3
ACAD_GROUP
350
D
  0
DICTIONARY
  5
D
330
C
100
AcDbDictionary
281
    1
  0
ENDSEC
  0
EOF
